<svg xmlns="http://www.w3.org/2000/svg" width="16" height="16" fill="none" viewBox="0 0 16 16"><path fill="#444f5c" fill-rule="evenodd" d="M15 8A7 7 0 1 0 1 8a7 7 0 0 0 14 0m-6.535 5.738c-.233.23-.389.262-.465.262s-.232-.032-.465-.262c-.238-.234-.497-.623-.737-1.182a9 9 0 0 1-.507-1.646c.547.059 1.12.09 1.709.09q.887 0 1.709-.09a9 9 0 0 1-.507 1.646c-.24.56-.5.948-.737 1.182m1.418-3.855C9.293 9.958 8.66 10 8 10s-1.292-.042-1.883-.117A15 15 0 0 1 6 8c0-.66.042-1.292.117-1.883C6.707 6.042 7.34 6 8 6s1.292.042 1.883.117C9.958 6.707 10 7.34 10 8s-.042 1.292-.117 1.883m.875.875c-.223 1.214-.589 2.25-1.048 2.995a6.01 6.01 0 0 0 4.043-4.043c-.745.459-1.781.825-2.995 1.048M2.248 9.71a6.01 6.01 0 0 0 4.042 4.043c-.459-.745-.825-1.781-1.048-2.995-1.214-.223-2.25-.589-2.995-1.048m2.842-.001a9 9 0 0 1-1.646-.507c-.56-.24-.948-.5-1.182-.737C2.032 8.232 2 8.076 2 8s.032-.232.262-.465c.234-.238.623-.497 1.182-.737A9 9 0 0 1 5.09 6.29 16 16 0 0 0 5 8q0 .887.09 1.709m.152-4.467c-1.214.223-2.25.589-2.995 1.048A6.01 6.01 0 0 1 6.29 2.247c-.459.745-.825 1.781-1.048 2.995m1.05-.152a9 9 0 0 1 .506-1.646c.24-.56.5-.948.737-1.182C7.768 2.032 7.924 2 8 2s.232.032.465.262c.238.234.497.623.737 1.182.2.468.374 1.024.507 1.646A16 16 0 0 0 8 5q-.887 0-1.709.09m4.466.152c-.223-1.214-.589-2.25-1.048-2.995a6.01 6.01 0 0 1 4.043 4.043c-.745-.459-1.781-.825-2.995-1.048m.152 1.05a9 9 0 0 1 1.646.506c.56.24.948.5 1.182.737.23.233.262.389.262.465s-.032.232-.262.465c-.234.238-.623.497-1.182.737-.468.2-1.024.374-1.646.507.059-.547.09-1.12.09-1.709q0-.887-.09-1.709" clip-rule="evenodd"/></svg>