<svg xmlns="http://www.w3.org/2000/svg" width="16" height="16" fill="none" viewBox="0 0 16 16"><path fill="#444f5c" fill-rule="evenodd" d="M2.3 2.335a1.5 1.5 0 0 1 1.5-1.5h2.253a1.5 1.5 0 0 1 1.5 1.5v5.18h1.315v-2.06a1.5 1.5 0 0 1 1.5-1.5h2.174a1.5 1.5 0 0 1 1.5 1.5v2.06h1.378a.5.5 0 0 1 0 1h-1.378v2.03a1.5 1.5 0 0 1-1.5 1.5h-2.174a1.5 1.5 0 0 1-1.5-1.5v-2.03H7.553v5.15a1.5 1.5 0 0 1-1.5 1.5H3.8a1.5 1.5 0 0 1-1.5-1.5v-5.15H.58a.5.5 0 0 1 0-1H2.3zm1.5-.5a.5.5 0 0 0-.5.5v11.33a.5.5 0 0 0 .5.5h2.253a.5.5 0 0 0 .5-.5V2.334a.5.5 0 0 0-.5-.5zm6.068 3.62a.5.5 0 0 1 .5-.5h2.174a.5.5 0 0 1 .5.5v5.09a.5.5 0 0 1-.5.5h-2.174a.5.5 0 0 1-.5-.5z" clip-rule="evenodd"/></svg>