<svg xmlns="http://www.w3.org/2000/svg" width="16" height="16" fill="none" viewBox="0 0 16 16"><path fill="#444f5c" fill-rule="evenodd" d="M7.5 2.75A1.5 1.5 0 0 1 9 1.25h4a1.5 1.5 0 0 1 1.5 1.5v8.5a1.5 1.5 0 0 1-1.5 1.5H9a1.5 1.5 0 0 1-1.5-1.5zm1.5-.5a.5.5 0 0 0-.5.5v8.5a.5.5 0 0 0 .5.5h4a.5.5 0 0 0 .5-.5v-8.5a.5.5 0 0 0-.5-.5z" clip-rule="evenodd"/><path fill="#444f5c" d="M.5 14.25a.5.5 0 0 1 .5-.5h14a.5.5 0 1 1 0 1H1a.5.5 0 0 1-.5-.5"/><path fill="#444f5c" fill-rule="evenodd" d="M3 4.25a1.5 1.5 0 0 0-1.5 1.5v5.5a1.5 1.5 0 0 0 1.5 1.5h2a1.5 1.5 0 0 0 1.5-1.5v-5.5A1.5 1.5 0 0 0 5 4.25zm-.5 1.5a.5.5 0 0 1 .5-.5h2a.5.5 0 0 1 .5.5v5.5a.5.5 0 0 1-.5.5H3a.5.5 0 0 1-.5-.5z" clip-rule="evenodd"/></svg>