<svg xmlns="http://www.w3.org/2000/svg" width="16" height="16" fill="none" viewBox="0 0 16 16"><g fill="#444f5c" fill-rule="evenodd" clip-path="url(#a)" clip-rule="evenodd"><path d="M7.611.24a.9.9 0 0 1 .613-.006l6.39 2.254c.789.278.805 1.386.026 1.688l-6.436 2.49a.9.9 0 0 1-.65-.002L1.34 4.245c-.771-.3-.763-1.394.013-1.682zm.315.95L1.948 3.408l5.932 2.31 6.147-2.378zM.1 6.685a.9.9 0 0 1 1.226-.84l5.35 2.083a.9.9 0 0 1 .574.842l-.022 6.115a.9.9 0 0 1-1.23.833l-5.33-2.104a.9.9 0 0 1-.57-.837zm1 .146v5.878l5.128 2.026.022-5.9zm13.566-.996a.9.9 0 0 1 1.226.838v6.093a.9.9 0 0 1-.569.837l-5.328 2.104a.9.9 0 0 1-1.23-.834L8.741 8.76a.9.9 0 0 1 .574-.842zm.226 6.863V6.82l-5.15 2.004.022 5.9z"/></g><defs><clipPath id="a"><path fill="#fff" d="M0 0h16v16H0z"/></clipPath></defs></svg>