<svg xmlns="http://www.w3.org/2000/svg" width="16" height="16" fill="none" viewBox="0 0 16 16"><g fill="#444f5c" clip-path="url(#a)"><path d="M5.51 6.642a.5.5 0 0 1 .707 0L7.92 8.344l1.703-1.702a.5.5 0 0 1 .707.707L8.627 9.05l1.702 1.702a.5.5 0 1 1-.707.707L7.919 9.758 6.217 11.46a.5.5 0 1 1-.707-.707L7.212 9.05 5.51 7.349a.5.5 0 0 1 0-.707"/><path fill-rule="evenodd" d="M3.897.052a.5.5 0 0 1 .5.5v1.104h7.152V.552a.5.5 0 0 1 1 0v1.104h1.909a1.5 1.5 0 0 1 1.5 1.5v11.182a1.5 1.5 0 0 1-1.5 1.5H1.542a1.5 1.5 0 0 1-1.5-1.5V3.156a1.5 1.5 0 0 1 1.5-1.5h1.855V.552a.5.5 0 0 1 .5-.5m7.652 2.604v1.187a.5.5 0 0 0 1 0V2.656h1.909a.5.5 0 0 1 .5.5v11.182a.5.5 0 0 1-.5.5H1.542a.5.5 0 0 1-.5-.5V3.156a.5.5 0 0 1 .5-.5h1.855v1.187a.5.5 0 0 0 1 0V2.656z" clip-rule="evenodd"/></g><defs><clipPath id="a"><path fill="#fff" d="M0 0h16v16H0z"/></clipPath></defs></svg>