<svg xmlns="http://www.w3.org/2000/svg" width="16" height="16" fill="none" viewBox="0 0 16 16"><path fill="#444f5c" d="M8.125 8a.5.5 0 0 0-1 0v3.124a.5.5 0 0 0 .719.45l2.082-1.015a.5.5 0 0 0-.438-.899l-1.363.664z"/><path fill="#444f5c" fill-rule="evenodd" d="M12.992 1a.5.5 0 1 0-1 0v.86h-7.99V1a.5.5 0 1 0-1 0v.86H1.998a1.5 1.5 0 0 0-1.5 1.5V13A1.5 1.5 0 0 0 2 14.5h12a1.5 1.5 0 0 0 1.5-1.5V3.36a1.5 1.5 0 0 0-1.5-1.5h-1.007zm-9.99 2.392V2.86H1.998a.5.5 0 0 0-.5.5v1.663h13V3.359a.5.5 0 0 0-.5-.5h-1.007v.533a.5.5 0 1 1-1 0V2.86h-7.99v.533a.5.5 0 1 1-1 0M1.498 13V6.022h13V13a.5.5 0 0 1-.5.5H2a.5.5 0 0 1-.5-.5" clip-rule="evenodd"/></svg>