<svg xmlns="http://www.w3.org/2000/svg" width="16" height="16" fill="none" viewBox="0 0 16 16"><path fill="#444f5c" d="M5.75 6a.5.5 0 0 1 .5-.5h4a.5.5 0 0 1 .5.5v4a.5.5 0 0 1-1 0V7.207l-3.396 3.397a.5.5 0 0 1-.708-.708L9.043 6.5H6.25a.5.5 0 0 1-.5-.5"/><path fill="#444f5c" fill-rule="evenodd" d="M1 2.5A1.5 1.5 0 0 1 2.5 1h11A1.5 1.5 0 0 1 15 2.5v11a1.5 1.5 0 0 1-1.5 1.5h-11A1.5 1.5 0 0 1 1 13.5zM2.5 2a.5.5 0 0 0-.5.5v11a.5.5 0 0 0 .5.5h11a.5.5 0 0 0 .5-.5v-11a.5.5 0 0 0-.5-.5z" clip-rule="evenodd"/></svg>