<svg xmlns="http://www.w3.org/2000/svg" width="16" height="16" fill="none" viewBox="0 0 16 16"><path fill="#444f5c" fill-rule="evenodd" d="M12.492 1a.5.5 0 0 1 .5.5v.859H14a1.5 1.5 0 0 1 1.5 1.5v9.64A1.5 1.5 0 0 1 14 15H2a1.5 1.5 0 0 1-1.5-1.5V3.86A1.5 1.5 0 0 1 2 2.36h1.002V1.5a.5.5 0 0 1 1 0v.859h7.99V1.5a.5.5 0 0 1 .5-.5m-9.49 2.359v.533a.5.5 0 0 0 1 0V3.36h7.99v.533a.5.5 0 1 0 1 0V3.36H14a.5.5 0 0 1 .5.5v1.663h-13V3.859a.5.5 0 0 1 .5-.5zM1.5 6.522V13.5a.5.5 0 0 0 .5.5h12a.5.5 0 0 0 .5-.5V6.522z" clip-rule="evenodd"/></svg>