<svg xmlns="http://www.w3.org/2000/svg" width="16" height="16" fill="none" viewBox="0 0 16 16"><path fill="#444f5c" fill-rule="evenodd" d="M10.146 1.146a.5.5 0 0 1 .708 0l3 3a.5.5 0 0 1 0 .708l-3 3a.5.5 0 0 1-.708-.708L12.793 4.5l-2.647-2.646a.5.5 0 0 1 0-.708" clip-rule="evenodd"/><path fill="#444f5c" fill-rule="evenodd" d="M2 4.5a.5.5 0 0 1 .5-.5h11a.5.5 0 0 1 0 1h-11a.5.5 0 0 1-.5-.5m3.854 3.646a.5.5 0 0 1 0 .708L3.207 11.5l2.647 2.646a.5.5 0 0 1-.708.708l-3-3a.5.5 0 0 1 0-.708l3-3a.5.5 0 0 1 .708 0" clip-rule="evenodd"/><path fill="#444f5c" fill-rule="evenodd" d="M2 11.5a.5.5 0 0 1 .5-.5h11a.5.5 0 0 1 0 1h-11a.5.5 0 0 1-.5-.5" clip-rule="evenodd"/></svg>