<svg xmlns="http://www.w3.org/2000/svg" width="16" height="16" fill="none" viewBox="0 0 16 16"><path fill="#444f5c" d="M16 6.119v6.394c0 .793-.643 1.436-1.436 1.436H1.436A1.436 1.436 0 0 1 0 12.513V6.119a.6.6 0 0 0 .205.035h15.59A.6.6 0 0 0 16 6.119m-3.416 1.76-2.066 2.066-.612-.78a.617.617 0 0 0-.969.759l.812 1.035a.944.944 0 0 0 1.41.085l2.296-2.296a.616.616 0 0 0-.87-.87zM5.949 9.846H3.077a.615.615 0 0 0 0 1.23h2.872a.615.615 0 0 0 0-1.23M4.308 7.795H3.077a.615.615 0 0 0 0 1.23h1.231a.615.615 0 0 0 0-1.23m10.256-5.744c.793 0 1.436.643 1.436 1.436v1.471a.6.6 0 0 0-.205-.035H.205A.6.6 0 0 0 0 4.958V3.487c0-.793.643-1.436 1.436-1.436z"/></svg>