<svg xmlns="http://www.w3.org/2000/svg" width="16" height="16" fill="none" viewBox="0 0 16 16"><path fill="#444f5c" d="M2.242 1.632a.5.5 0 0 1 .5-.5h9.307a.5.5 0 0 1 .5.5v2.894a.5.5 0 0 0 1 0V1.632a1.5 1.5 0 0 0-1.5-1.5H2.742a1.5 1.5 0 0 0-1.5 1.5v12.133a1.5 1.5 0 0 0 1.5 1.5h2.78a.5.5 0 0 0 0-1h-2.78a.5.5 0 0 1-.5-.5z"/><path fill="#444f5c" d="M5 3.5a.5.5 0 0 0 0 1h5a.5.5 0 0 0 0-1z"/><path fill="#444f5c" fill-rule="evenodd" d="M10.5 14.375a3.48 3.48 0 0 0 2.35-.907l1.651 1.651a.5.5 0 0 0 .707-.707l-1.717-1.718a3.5 3.5 0 1 0-2.99 1.68m0-1a2.5 2.5 0 1 0 0-5 2.5 2.5 0 0 0 0 5" clip-rule="evenodd"/><path fill="#444f5c" d="M4.5 6.375a.5.5 0 0 1 .5-.5h2a.5.5 0 0 1 0 1H5a.5.5 0 0 1-.5-.5"/></svg>