<svg xmlns="http://www.w3.org/2000/svg" width="16" height="16" fill="none" viewBox="0 0 16 16"><g fill="#444f5c" clip-path="url(#a)"><path d="M10.293 1.085a.5.5 0 1 0-.316-.948l-1.62.54a.5.5 0 0 0-.289.697l.81 1.62a.5.5 0 0 0 .895-.447l-.171-.342a6.099 6.099 0 0 1-.113 11.797.5.5 0 1 0 .243.97 7.099 7.099 0 0 0 .113-13.737zM6.51 2.176a.5.5 0 1 0-.243-.97 7.099 7.099 0 0 0-.57 13.596l-.331.114a.5.5 0 0 0 .323.946l1.616-.553a.5.5 0 0 0 .283-.7l-.823-1.613a.5.5 0 0 0-.89.454l.22.431A6.1 6.1 0 0 1 6.51 2.176"/><path d="M8.5 5.93a.5.5 0 0 0-1 0V9a.5.5 0 0 0 .2.4l2 1.5a.5.5 0 0 0 .6-.8L8.5 8.75z"/></g><defs><clipPath id="a"><path fill="#fff" d="M0 0h16v16H0z"/></clipPath></defs></svg>