<svg xmlns="http://www.w3.org/2000/svg" width="16" height="16" fill="none" viewBox="0 0 16 16"><path fill="#444f5c" fill-rule="evenodd" d="M3.662 1.095a1.5 1.5 0 0 0-1.5 1.5v.067a.5.5 0 1 0 1 0v-.067a.5.5 0 0 1 .5-.5h8.676a.5.5 0 0 1 .5.5v7.4l-1.282-1.28a.5.5 0 1 0-.707.706l2.129 2.129a.5.5 0 0 0 .152.108.5.5 0 0 0 .561-.102l.005-.005 2.13-2.13a.5.5 0 1 0-.707-.707l-1.281 1.282V2.595a1.5 1.5 0 0 0-1.5-1.5zm8.676 13.81a1.5 1.5 0 0 0 1.5-1.5v-.067a.5.5 0 1 0-1 0v.067a.5.5 0 0 1-.5.5H3.662a.5.5 0 0 1-.5-.5v-7.4l1.282 1.281a.5.5 0 0 0 .707-.707L3.022 4.45a.5.5 0 0 0-.718-.001l-2.13 2.13a.5.5 0 0 0 .707.707l1.281-1.281v7.4a1.5 1.5 0 0 0 1.5 1.5z" clip-rule="evenodd"/></svg>