<svg xmlns="http://www.w3.org/2000/svg" width="16" height="16" fill="none" viewBox="0 0 16 16"><g fill="#444f5c" fill-rule="evenodd" clip-path="url(#a)" clip-rule="evenodd"><path d="M5.214 5.714a2.786 2.786 0 1 1 5.572 0 2.786 2.786 0 0 1-5.572 0M8 3.93A1.786 1.786 0 1 0 8 7.5a1.786 1.786 0 0 0 0-3.57"/><path d="M8 16A8 8 0 1 0 8 0a8 8 0 0 0 0 16m5.002-3.103a7 7 0 1 0-10 .004 4.5 4.5 0 0 1 4.427-3.687h1.17c2.201 0 4.03 1.59 4.403 3.683m-.93.798v-.009A3.47 3.47 0 0 0 8.6 10.214H7.429a3.5 3.5 0 0 0-3.5 3.48A6.97 6.97 0 0 0 8 15a6.97 6.97 0 0 0 4.072-1.305"/></g><defs><clipPath id="a"><path fill="#fff" d="M0 0h16v16H0z"/></clipPath></defs></svg>