<svg xmlns="http://www.w3.org/2000/svg" width="16" height="16" fill="none" viewBox="0 0 16 16"><path fill="#444f5c" d="M2.95 6a.5.5 0 0 0-1 0v4a.5.5 0 0 0 1 0z"/><path fill="#444f5c" fill-rule="evenodd" d="M.027 5a1.5 1.5 0 0 1 1.5-1.5h10.897a1.5 1.5 0 0 1 1.5 1.5v6a1.5 1.5 0 0 1-1.5 1.5H1.527a1.5 1.5 0 0 1-1.5-1.5zm1.5-.5a.5.5 0 0 0-.5.5v6a.5.5 0 0 0 .5.5h10.897a.5.5 0 0 0 .5-.5V5a.5.5 0 0 0-.5-.5z" clip-rule="evenodd"/><path fill="#444f5c" d="M15.443 4.5a.5.5 0 0 1 .5.5v6a.5.5 0 0 1-1 0V5a.5.5 0 0 1 .5-.5"/></svg>