<svg xmlns="http://www.w3.org/2000/svg" width="16" height="16" fill="none" viewBox="0 0 16 16"><g fill="#444f5c" fill-rule="evenodd" clip-path="url(#a)" clip-rule="evenodd"><path d="M8 1a5 5 0 0 0-5 5v3.5a.5.5 0 0 1-.084.277L1.434 12h13.132l-1.482-2.223A.5.5 0 0 1 13 9.5V6a5 5 0 0 0-5-5M2 6a6 6 0 1 1 12 0v3.349l1.916 2.874A.5.5 0 0 1 15.5 13H.5a.5.5 0 0 1-.416-.777L2 9.349z"/><path d="M5.5 12a.5.5 0 0 1 .5.5 2 2 0 1 0 4 0 .5.5 0 0 1 1 0 3 3 0 1 1-6 0 .5.5 0 0 1 .5-.5M8 3.5A2.5 2.5 0 0 0 5.5 6a.5.5 0 0 1-1 0A3.5 3.5 0 0 1 8 2.5a.5.5 0 0 1 0 1"/></g><defs><clipPath id="a"><path fill="#fff" d="M0 0h16v16H0z"/></clipPath></defs></svg>