<svg xmlns="http://www.w3.org/2000/svg" width="16" height="16" fill="none" viewBox="0 0 16 16"><g clip-path="url(#a)"><path fill="#444f5c" d="M1.143 9.143h13.714V3.429c0-.631-.512-1.143-1.143-1.143H2.285c-.631 0-1.143.512-1.143 1.143zm1.143-8h11.429a2.286 2.286 0 0 1 2.286 2.286v9.143a2.286 2.286 0 0 1-2.286 2.286H2.286A2.286 2.286 0 0 1 0 12.572V3.429a2.286 2.286 0 0 1 2.286-2.286m-1.143 9.143v2.286c0 .63.512 1.143 1.143 1.143h11.429c.631 0 1.143-.512 1.143-1.143v-2.286z"/></g><defs><clipPath id="a"><path fill="#fff" d="M0 0h16v16H0z"/></clipPath></defs></svg>