<svg xmlns="http://www.w3.org/2000/svg" width="16" height="16" fill="none" viewBox="0 0 16 16"><path fill="#444f5c" d="M4.483.814a.5.5 0 1 0-1 0v2.359a.5.5 0 0 0 1 0z"/><path fill="#444f5c" fill-rule="evenodd" d="M1.501 6.041a.5.5 0 0 1 .5-.5h9.846q.036 0 .07.005h2.074a1.5 1.5 0 0 1 1.5 1.5v1.109a2.5 2.5 0 0 1-2.5 2.5h-.66a5.423 5.423 0 0 1-10.83-.417zm1 .5v3.697a4.423 4.423 0 1 0 8.846 0V6.54zm9.85.005v3.109h.64a1.5 1.5 0 0 0 1.5-1.5v-1.11a.5.5 0 0 0-.5-.5z" clip-rule="evenodd"/><path fill="#444f5c" d="M6.98.314a.5.5 0 0 1 .5.5v2.359a.5.5 0 0 1-1 0V.814a.5.5 0 0 1 .5-.5m3.499.5a.5.5 0 1 0-1 0v2.359a.5.5 0 0 0 1 0z"/></svg>