<svg xmlns="http://www.w3.org/2000/svg" width="16" height="16" fill="none" viewBox="0 0 16 16"><g fill="#444f5c" clip-path="url(#a)"><path d="M4.5 3a.5.5 0 0 0 1 0V1a.5.5 0 0 0-1 0zm-1.096 9.095a2.05 2.05 0 0 1 0-2.902l2.32-2.32a.5.5 0 0 0-.707-.708l-2.32 2.32a3.052 3.052 0 0 0 4.316 4.317l2.27-2.27a.5.5 0 1 0-.707-.706l-2.27 2.27a2.05 2.05 0 0 1-2.902 0m3.263-7.58a.5.5 0 0 0 .707.707l2.32-2.32a2.052 2.052 0 0 1 2.902 2.902L10.271 8.13a.5.5 0 1 0 .707.707l2.326-2.325a3.052 3.052 0 0 0-4.317-4.316z"/><path d="M5.525 9.267a.5.5 0 0 0 .707.707l4.243-4.243a.5.5 0 0 0-.707-.707zm7.329 2.879 1.5 1.5a.5.5 0 0 1-.708.708l-1.5-1.5a.5.5 0 0 1 .708-.708m-10.5-10.5a.5.5 0 1 0-.708.708l1.5 1.5a.5.5 0 1 0 .708-.708zM12.5 11a.5.5 0 0 1 .5-.5h2a.5.5 0 0 1 0 1h-2a.5.5 0 0 1-.5-.5m-1 2a.5.5 0 0 0-1 0v2a.5.5 0 0 0 1 0zm-8-8a.5.5 0 0 1-.5.5H1a.5.5 0 0 1 0-1h2a.5.5 0 0 1 .5.5"/></g><defs><clipPath id="a"><path fill="#fff" d="M0 0h16v16H0z"/></clipPath></defs></svg>