<svg xmlns="http://www.w3.org/2000/svg" width="16" height="16" fill="none" viewBox="0 0 16 16"><path fill="#444f5c" fill-rule="evenodd" d="M3.04 6.412C3.04 3.703 5.255 1.5 7.995 1.5s4.954 2.203 4.954 4.912a4.9 4.9 0 0 1-2.214 4.093c-.428.283-.755.765-.755 1.34V12a.5.5 0 0 1-.5.5H6.51a.5.5 0 0 1-.5-.5v-.156c0-.574-.327-1.056-.755-1.338A4.9 4.9 0 0 1 3.04 6.411M7.995.5C4.71.5 2.04 3.143 2.04 6.412c0 2.06 1.06 3.87 2.664 4.928.2.133.305.326.305.504V12a1.5 1.5 0 0 0 1.5 1.5H9.48a1.5 1.5 0 0 0 1.5-1.5v-.156c0-.178.105-.371.305-.504a5.9 5.9 0 0 0 2.664-4.928C13.95 3.143 11.28.5 7.995.5M9.502 15a.5.5 0 0 1 0 1H6.497a.5.5 0 0 1 0-1z" clip-rule="evenodd"/></svg>