<svg xmlns="http://www.w3.org/2000/svg" width="16" height="16" fill="none" viewBox="0 0 16 16"><g clip-path="url(#a)"><path fill="#444f5c" d="M9.795.614c1.094 0 2.005.869 2.005 1.971v.857h2.795c.776 0 1.405.614 1.405 1.371v3.6h-4.2a.6.6 0 0 0 0 1.2H16v4.4c0 .757-.629 1.371-1.405 1.371H1.405C.629 15.384 0 14.77 0 14.013v-4.4h4.2a.6.6 0 0 0 0-1.2H0v-3.6c0-.757.629-1.371 1.405-1.371H4.2v-.857c0-1.102.911-1.971 2.005-1.971zM8 6.614a2.2 2.2 0 1 0 0 4.4 2.2 2.2 0 0 0 0-4.4m0 1.2a1 1 0 1 1 0 2 1 1 0 0 1 0-2m1.795-6h-3.59c-.458 0-.805.359-.805.771v.857h5.2v-.857a.79.79 0 0 0-.805-.771"/></g><defs><clipPath id="a"><path fill="#fff" d="M0 0h16v16H0z"/></clipPath></defs></svg>