<svg xmlns="http://www.w3.org/2000/svg" width="16" height="16" fill="none" viewBox="0 0 16 16"><path fill="#444f5c" d="M.521 3.9a1.5 1.5 0 0 1 1.5-1.5h12a1.5 1.5 0 0 1 1.5 1.5v4.434a1.5 1.5 0 0 1-1.5 1.5h-1a.5.5 0 1 1 0-1h1a.5.5 0 0 0 .5-.5V3.9a.5.5 0 0 0-.5-.5h-12a.5.5 0 0 0-.5.5v4.434a.5.5 0 0 0 .5.5h1a.5.5 0 1 1 0 1h-1a1.5 1.5 0 0 1-1.5-1.5z"/><path fill="#444f5c" d="m9.274 10.085.633-.366a.4.4 0 0 0 .03-.673L7.54 7.355a.4.4 0 0 0-.628.363l.265 2.922a.4.4 0 0 0 .598.31l.634-.365.977 1.692a.5.5 0 0 0 .866-.5z"/></svg>