<svg xmlns="http://www.w3.org/2000/svg" width="16" height="16" fill="none" viewBox="0 0 16 16"><path fill="#444f5c" fill-rule="evenodd" d="M4 2.5a.5.5 0 0 0-.5.5v3a.5.5 0 0 0 .5.5h8a.5.5 0 0 0 .5-.5V3a.5.5 0 0 0-.5-.5zm.5 3v-2h7v2z" clip-rule="evenodd"/><path fill="#444f5c" d="M6 9a1 1 0 1 1-2 0 1 1 0 0 1 2 0m2 1a1 1 0 1 0 0-2 1 1 0 0 0 0 2m4-1a1 1 0 1 1-2 0 1 1 0 0 1 2 0m-7 4a1 1 0 1 0 0-2 1 1 0 0 0 0 2m4-1a1 1 0 1 1-2 0 1 1 0 0 1 2 0m2 1a1 1 0 1 0 0-2 1 1 0 0 0 0 2"/><path fill="#444f5c" fill-rule="evenodd" d="M3 .5A1.5 1.5 0 0 0 1.5 2v12A1.5 1.5 0 0 0 3 15.5h10a1.5 1.5 0 0 0 1.5-1.5V2A1.5 1.5 0 0 0 13 .5zM2.5 2a.5.5 0 0 1 .5-.5h10a.5.5 0 0 1 .5.5v12a.5.5 0 0 1-.5.5H3a.5.5 0 0 1-.5-.5z" clip-rule="evenodd"/></svg>