<svg xmlns="http://www.w3.org/2000/svg" width="16" height="16" fill="none" viewBox="0 0 16 16"><path fill="#444f5c" fill-rule="evenodd" d="M12.001 1.25a.5.5 0 0 1 .5.5v1h.978a1.5 1.5 0 0 1 1.5 1.5v2.359a.5.5 0 0 1 0 .282v6.359a1.5 1.5 0 0 1-1.5 1.5H2.5a1.5 1.5 0 0 1-1.5-1.5v-9a1.5 1.5 0 0 1 1.5-1.5h1v-1a.5.5 0 0 1 1 0v1h7v-1a.5.5 0 0 1 .5-.5m-8.5 2.5v.989a.5.5 0 0 0 1 0V3.75h7v1a.5.5 0 0 0 1 0v-1h.978a.5.5 0 0 1 .5.5v2H2v-2a.5.5 0 0 1 .5-.5zM2 7.25v6a.5.5 0 0 0 .5.5h10.98a.5.5 0 0 0 .5-.5v-6z" clip-rule="evenodd"/></svg>