<svg xmlns="http://www.w3.org/2000/svg" width="16" height="16" fill="none" viewBox="0 0 16 16"><path fill="#444f5c" fill-rule="evenodd" d="M0 3.5A1.5 1.5 0 0 1 1.5 2h13A1.5 1.5 0 0 1 16 3.5v9a1.5 1.5 0 0 1-1.5 1.5h-13A1.5 1.5 0 0 1 0 12.5zM1.5 3a.5.5 0 0 0-.5.5v9a.5.5 0 0 0 .5.5h13a.5.5 0 0 0 .5-.5v-9a.5.5 0 0 0-.5-.5z" clip-rule="evenodd"/><path fill="#444f5c" fill-rule="evenodd" d="M0 5.5A.5.5 0 0 1 .5 5h15a.5.5 0 0 1 0 1H.5a.5.5 0 0 1-.5-.5m4.5-5A.5.5 0 0 1 5 1v2.5a.5.5 0 0 1-1 0V1a.5.5 0 0 1 .5-.5m7 0a.5.5 0 0 1 .5.5v2.5a.5.5 0 0 1-1 0V1a.5.5 0 0 1 .5-.5m-1.5 8a.5.5 0 0 1 .5-.5h2a.5.5 0 0 1 .5.5v2a.5.5 0 0 1-.5.5h-2a.5.5 0 0 1-.5-.5zm1 .5v1h1V9z" clip-rule="evenodd"/></svg>