<svg xmlns="http://www.w3.org/2000/svg" width="16" height="16" fill="none" viewBox="0 0 16 16"><path fill="#444f5c" fill-rule="evenodd" d="M4.43 1.8c.725-.289 1.484.096 1.791.738l1.125 2.354a1.5 1.5 0 0 1-.22 1.63l-.709.818a.5.5 0 0 0 .036.692l2.13 2a.5.5 0 0 0 .652.028l1.022-.808a1.5 1.5 0 0 1 1.525-.2l2.499 1.08c.727.314 1.183 1.248.617 2.013-.79 1.065-2.164 2.128-3.99 2.323-1.839.197-4.033-.496-6.43-2.744-1.325-1.242-2.577-3.16-2.899-5.05-.162-.952-.091-1.927.362-2.798.457-.877 1.27-1.593 2.488-2.077m.889 1.17c-.11-.232-.347-.31-.52-.241-1.04.412-1.646.984-1.97 1.608-.328.63-.4 1.371-.264 2.17.275 1.616 1.383 3.349 2.598 4.488 2.247 2.108 4.165 2.637 5.64 2.48 1.488-.16 2.63-1.032 3.291-1.925a.26.26 0 0 0 .037-.25.44.44 0 0 0-.247-.25l-2.499-1.08a.5.5 0 0 0-.508.067l-1.022.808a1.5 1.5 0 0 1-1.957-.084l-2.13-2a1.5 1.5 0 0 1-.106-2.076l.709-.818a.5.5 0 0 0 .073-.543z" clip-rule="evenodd"/></svg>