<svg xmlns="http://www.w3.org/2000/svg" width="16" height="16" fill="none" viewBox="0 0 16 16"><g clip-path="url(#a)"><path fill="#444f5c" fill-rule="evenodd" d="M4.723.275a.5.5 0 0 1 .5.5v.239h5.259V.775a.5.5 0 0 1 1 0v.239h1.987a1.5 1.5 0 0 1 1.5 1.5v2.265a.5.5 0 0 1-.5.5H1.953v8.2a.5.5 0 0 0 .5.5h2.525a.5.5 0 0 1 0 1H2.453a1.5 1.5 0 0 1-1.5-1.5V2.514a1.5 1.5 0 0 1 1.5-1.5h1.77V.775a.5.5 0 0 1 .5-.5m-.5 2v-.261h-1.77a.5.5 0 0 0-.5.5v1.765h12.016V2.514a.5.5 0 0 0-.5-.5h-1.987v.261a.5.5 0 1 1-1 0v-.261H5.223v.261a.5.5 0 1 1-1 0m4.285 7.382a3.5 3.5 0 0 0 5.094 4.63zm5.795 3.918L9.151 8.89a3.5 3.5 0 0 1 5.152 4.684M11.483 7a4.5 4.5 0 1 0 0 9 4.5 4.5 0 0 0 0-9" clip-rule="evenodd"/></g><defs><clipPath id="a"><path fill="#fff" d="M0 0h16v16H0z"/></clipPath></defs></svg>