<svg xmlns="http://www.w3.org/2000/svg" width="16" height="16" fill="none" viewBox="0 0 16 16"><g clip-path="url(#a)"><path fill="#444f5c" d="M15.908 5.713a.4.4 0 0 0-.318-.16h-1.557c-.384-1.074-.885-2.126-1.454-2.524-1.968-1.372-7.19-1.372-9.158 0-.569.398-1.068 1.451-1.454 2.524H.41a.4.4 0 0 0-.318.16.45.45 0 0 0-.084.362l.231 1.184a.415.415 0 0 0 .401.346h.461a3.04 3.04 0 0 0-.664 1.916c-.003.847.301 1.613.856 2.155l.018.015v1.657c0 .359.275.651.615.651h1.436c.339 0 .615-.292.615-.651v-.666h8.046v.666c0 .359.275.651.614.651h1.436c.338 0 .614-.292.614-.651v-1.625c.589-.572.871-1.358.874-2.144.002-.709-.223-1.42-.695-1.976h.492a.414.414 0 0 0 .401-.346l.231-1.184a.46.46 0 0 0-.084-.361zM4.096 4.117c1.569-1.094 6.239-1.094 7.807 0 .305.212.697 1.068 1.056 2.117H3.04c.358-1.048.751-1.905 1.055-2.117zM2.258 9.685c0-.708.542-1.281 1.209-1.281s1.209.573 1.209 1.281-.541 1.281-1.209 1.281c-.667 0-1.209-.573-1.209-1.281m10.291 1.281c-.667 0-1.209-.573-1.209-1.281s.542-1.281 1.209-1.281c.668 0 1.209.573 1.209 1.281s-.542 1.281-1.209 1.281"/></g><defs><clipPath id="a"><path fill="#fff" d="M0 0h16v16H0z"/></clipPath></defs></svg>