<svg xmlns="http://www.w3.org/2000/svg" width="16" height="16" fill="none" viewBox="0 0 16 16"><path fill="#444f5c" fill-rule="evenodd" d="M4 1.987a1.5 1.5 0 0 0-1.5 1.5v1.775a.5.5 0 0 0 1 0V3.487a.5.5 0 0 1 .5-.5h9.431a.5.5 0 0 1 .5.5v.602h-1.578a2.059 2.059 0 1 0 0 4.118h1.578v3.81a.5.5 0 0 1-.5.5h-2.676a.5.5 0 1 0 0 1h2.676a1.5 1.5 0 0 0 1.5-1.5v-3.81h.54a.5.5 0 0 0 .5-.5V4.589a.5.5 0 0 0-.5-.5h-.54v-.602a1.5 1.5 0 0 0-1.5-1.5zm7.294 4.161c0-.585.474-1.059 1.059-1.059h2.617v2.118h-2.617a1.06 1.06 0 0 1-1.06-1.059" clip-rule="evenodd"/><path fill="#444f5c" d="M5.874 11.082a.5.5 0 0 0-.748-.664L4.1 11.574l-.3-.224a.5.5 0 0 0-.6.8l.667.5a.5.5 0 0 0 .673-.068z"/><path fill="#444f5c" fill-rule="evenodd" d="M.5 11.5a4 4 0 1 1 8 0 4 4 0 0 1-8 0m4-3a3 3 0 1 0 0 6 3 3 0 0 0 0-6" clip-rule="evenodd"/></svg>