<svg xmlns="http://www.w3.org/2000/svg" width="16" height="16" fill="none" viewBox="0 0 16 16"><path fill="#444f5c" d="M1.333 3.333a1 1 0 0 0-1 1V11a1 1 0 0 0 1 1h13.333a1 1 0 0 0 1-1V4.333a1 1 0 0 0-1-1zm0-.333h13.333C15.404 3 16 3.597 16 4.333V11c0 .736-.597 1.334-1.334 1.334H1.333A1.334 1.334 0 0 1 0 11V4.333C0 3.597.597 3 1.333 3"/><path fill="#444f5c" d="M1.52 7.218a.167.167 0 1 1 0-.334h2.732a.167.167 0 1 1 0 .334zm10 3.334a.167.167 0 1 1 0-.334h2.732a.167.167 0 1 1 0 .334zm.334-5.167h2.118c.11 0 .28-.17.28-.5s-.17-.5-.28-.5h-2.118c-.157 0-.333.146-.333.5s.175.5.333.5m0 .333c-.329 0-.667-.28-.667-.833s.338-.834.667-.834h2.118c.293 0 .614.32.614.834 0 .513-.32.833-.614.833zM1.52 8.551a.167.167 0 1 1 0-.333h12.732a.167.167 0 1 1 0 .333z"/></svg>