<svg xmlns="http://www.w3.org/2000/svg" width="24" height="24" fill="none" viewBox="0 0 24 24"><path fill="#444f5c" d="M11.725 1.33a.699.699 0 0 1 .036 1.396c-5.021.127-9.036 4.239-9.036 9.273a9.276 9.276 0 0 0 17.78 3.711.697.697 0 1 1 1.279.559 10.67 10.67 0 0 1-9.783 6.402c-5.894 0-10.672-4.778-10.672-10.672 0-5.791 4.619-10.522 10.397-10.67zM12 7.31c.353 0 .646.263.692.603l.006.095v3.557l3.604 1.803a.7.7 0 0 1 .352.841l-.039.096a.7.7 0 0 1-.841.352l-.096-.039-3.99-1.995a.7.7 0 0 1-.379-.527l-.007-.098v-3.99c0-.386.313-.698.698-.698m9.974 4.11a.698.698 0 1 1 0 1.396.698.698 0 0 1 0-1.396m-.748-3.92a.698.698 0 1 1 0 1.396.698.698 0 0 1 0-1.396m-2.234-3.301a.698.698 0 1 1 0 1.396.698.698 0 0 1 0-1.396M15.69 2.024a.698.698 0 1 1 0 1.396.698.698 0 0 1 0-1.396"/></svg>