<svg xmlns="http://www.w3.org/2000/svg" width="16" height="16" fill="none" viewBox="0 0 16 16"><path fill="#444f5c" d="M10.854 5.146a.5.5 0 0 1 0 .707L8.707 8l2.146 2.146a.5.5 0 0 1-.707.708L8 8.707l-2.147 2.146a.5.5 0 1 1-.707-.707L7.293 8 5.146 5.853a.5.5 0 0 1 .707-.707L8 7.293l2.146-2.147a.5.5 0 0 1 .707 0"/><path fill="#444f5c" fill-rule="evenodd" d="M1.5 3A1.5 1.5 0 0 1 3 1.5h10A1.5 1.5 0 0 1 14.5 3v10a1.5 1.5 0 0 1-1.5 1.5H3A1.5 1.5 0 0 1 1.5 13zM3 2.5a.5.5 0 0 0-.5.5v10a.5.5 0 0 0 .5.5h10a.5.5 0 0 0 .5-.5V3a.5.5 0 0 0-.5-.5z" clip-rule="evenodd"/></svg>