<svg xmlns="http://www.w3.org/2000/svg" width="16" height="16" fill="none" viewBox="0 0 16 16"><path fill="#444f5c" fill-rule="evenodd" d="M8 2.5a3.5 3.5 0 0 0-3.37 4.45.5.5 0 0 1-.61.618A2.003 2.003 0 0 0 1.5 9.5a2 2 0 0 0 2 2 .5.5 0 0 1 0 1 3 3 0 1 1 .028-6 4.5 4.5 0 1 1 8.948-.968A3.5 3.5 0 0 1 12 12.5a.5.5 0 0 1 0-1 2.5 2.5 0 0 0 0-5 .5.5 0 0 1-.5-.5A3.5 3.5 0 0 0 8 2.5m0 6a.5.5 0 0 1 .5.5v5.293l1.146-1.147a.5.5 0 0 1 .708.708l-2 2a.5.5 0 0 1-.708 0l-2-2a.5.5 0 0 1 .708-.708L7.5 14.293V9a.5.5 0 0 1 .5-.5" clip-rule="evenodd"/></svg>