<svg xmlns="http://www.w3.org/2000/svg" width="16" height="16" fill="none" viewBox="0 0 16 16"><g fill="#444f5c" clip-path="url(#a)"><path d="M14.588 2.619H1.412a.47.47 0 0 0-.471.471v1.964c0 .26.211.471.471.471h13.176c.26 0 .471-.211.471-.471V3.09a.47.47 0 0 0-.471-.471m-.47.941v1.023H1.883V3.56z"/><path d="M11.658 0H4.341c-.557 0-1.057.33-1.204.837L2.51 2.956a.47.47 0 0 0 .451.604h10.076a.47.47 0 0 0 .451-.604L12.86.835C12.714.331 12.213 0 11.657 0zm0 .941.076.006c.12.02.205.085.224.152l.449 1.519H3.591l.449-1.517c.024-.083.142-.161.301-.161zm2.155 3.642H2.187a.47.47 0 0 0-.466.539l1.55 10.476a.47.47 0 0 0 .466.402h8.526a.47.47 0 0 0 .466-.402l1.55-10.476a.47.47 0 0 0-.466-.539m-.546.941-1.411 9.535H4.143L2.732 5.524z"/><path d="M8 6.547c-1.754 0-3.183 1.379-3.183 3.09S6.246 12.726 8 12.726c1.755 0 3.183-1.379 3.183-3.09S9.754 6.547 8 6.547m0 .941c1.242 0 2.242.966 2.242 2.148s-1 2.148-2.242 2.148-2.242-.966-2.242-2.148 1-2.148 2.242-2.148"/></g><defs><clipPath id="a"><path fill="#fff" d="M0 0h16v16H0z"/></clipPath></defs></svg>