<svg xmlns="http://www.w3.org/2000/svg" width="16" height="16" fill="none" viewBox="0 0 16 16"><path fill="#444f5c" d="M4.429 6.5a.5.5 0 0 1 0-1h5.505a.5.5 0 0 1 0 1z"/><path fill="#444f5c" fill-rule="evenodd" d="M.5 3A1.5 1.5 0 0 1 2 1.5h10A1.5 1.5 0 0 1 13.5 3v6.182a1.5 1.5 0 0 1-1.5 1.5H4.03a.5.5 0 0 0-.277.084l-2.476 1.65A.5.5 0 0 1 .5 12zM2 2.5a.5.5 0 0 0-.5.5v8.066l1.698-1.132a1.5 1.5 0 0 1 .832-.252H12a.5.5 0 0 0 .5-.5V3a.5.5 0 0 0-.5-.5z" clip-rule="evenodd"/><path fill="#444f5c" d="M15 9.5a.5.5 0 0 0-.5.5v4.039l-1.547-1.085a1.5 1.5 0 0 0-.861-.272H8a.5.5 0 0 0 0 1h4.092a.5.5 0 0 1 .287.09l2.334 1.637A.5.5 0 0 0 15.5 15v-5a.5.5 0 0 0-.5-.5"/></svg>