<svg xmlns="http://www.w3.org/2000/svg" width="16" height="16" fill="none" viewBox="0 0 16 16"><path fill="#444f5c" fill-rule="evenodd" d="M9.634 4.483a1.587 1.587 0 1 1 .899.443l-.784 1.36.029.028c.338.338.554.753.646 1.189h1.984a1.588 1.588 0 1 1 0 1h-1.983a2.4 2.4 0 0 1-.66 1.202l.934 1.384q.158-.034.325-.034a1.587 1.587 0 1 1-1.19.539l-.913-1.352a2.4 2.4 0 0 1-1.78-.046l-.95 1.426a1.587 1.587 0 1 1-.852-.525l.988-1.482a2.4 2.4 0 0 1-.574-1.112H3.592a1.588 1.588 0 1 1 0-1h2.161c.093-.436.309-.85.647-1.189l.003-.002L5.39 4.889a1.59 1.59 0 0 1-2-1.532 1.587 1.587 0 1 1 2.836.979l1.018 1.433A2.4 2.4 0 0 1 8.9 5.756zm.528-1.129a.587.587 0 1 0 1.174 0 .587.587 0 0 0-1.174 0m3.166 4.649a.587.587 0 1 0 1.173 0 .587.587 0 0 0-1.173 0M2.085 8.59a.587.587 0 1 1 0-1.174.587.587 0 0 1 0 1.174m8.353 4.052a.587.587 0 1 0 1.173 0 .587.587 0 0 0-1.174 0M4.976 3.944a.587.587 0 1 0 0-1.173.587.587 0 0 0 0 1.173m.587 8.698a.587.587 0 1 1-1.174 0 .587.587 0 0 1 1.173 0m1.544-3.658A1.388 1.388 0 1 1 9.07 7.021a1.388 1.388 0 0 1-1.964 1.963" clip-rule="evenodd"/></svg>