<svg xmlns="http://www.w3.org/2000/svg" width="16" height="16" fill="none" viewBox="0 0 16 16"><g clip-path="url(#a)"><path fill="#444f5c" d="M14.921 9.461a3.94 3.94 0 0 0-6.249 2.222H6.666a.382.382 0 0 0 0 .762h1.907a5 5 0 0 0 0 .254H6.666a.382.382 0 0 0 0 .762h2.006a3.95 3.95 0 0 0 1.9 2.54H1.841a1.397 1.397 0 0 1-1.397-1.397V1.398c0-.771.625-1.397 1.397-1.397h11.683c.771 0 1.397.625 1.397 1.397zM3.746 9.353v1.866a1.652 1.652 0 1 0 .762 0V9.353a1.652 1.652 0 0 0 0-3.214V4.781a1.652 1.652 0 1 0-.762 0v1.358a1.652 1.652 0 0 0 0 3.214m.381-5.29a.889.889 0 1 1 0-1.778.889.889 0 0 1 0 1.778m0 4.572a.889.889 0 1 1 0-1.778.889.889 0 0 1 0 1.778m0 5.079a.889.889 0 1 1 0-1.778.889.889 0 0 1 0 1.778m2.54-10.92h5.474a.382.382 0 0 0 0-.762H6.667a.382.382 0 0 0 0 .762m0 1.016h2.934a.382.382 0 0 0 0-.762H6.667a.382.382 0 0 0 0 .762m0 3.555h5.474a.382.382 0 0 0 0-.762H6.667a.382.382 0 0 0 0 .762m0 1.016h2.934a.382.382 0 0 0 0-.762H6.667a.382.382 0 0 0 0 .762m5.482 4.318a.38.38 0 0 0 .549.456l1.76-1.016a.38.38 0 1 0-.381-.659l-1.188.686v-.802a.382.382 0 0 0-.762 0v1.208a.4.4 0 0 0 .022.127m.359 2.92a3.048 3.048 0 1 1 0-6.096 3.048 3.048 0 0 1 0 6.096"/></g><defs><clipPath id="a"><path fill="#fff" d="M0 0h16v16H0z"/></clipPath></defs></svg>