<svg xmlns="http://www.w3.org/2000/svg" width="16" height="16" fill="none" viewBox="0 0 16 16"><path fill="#444f5c" fill-rule="evenodd" d="M3.5 4a.5.5 0 0 0-.5.5v9a.5.5 0 0 0 .5.5h7a.5.5 0 0 0 .5-.5v-9a.5.5 0 0 0-.5-.5zM2 4.5A1.5 1.5 0 0 1 3.5 3h7A1.5 1.5 0 0 1 12 4.5v9a1.5 1.5 0 0 1-1.5 1.5h-7A1.5 1.5 0 0 1 2 13.5z" clip-rule="evenodd"/><path fill="#444f5c" fill-rule="evenodd" d="M4 2.5A1.5 1.5 0 0 1 5.5 1h7A1.5 1.5 0 0 1 14 2.5v9a1.5 1.5 0 0 1-1.5 1.5h-1a.5.5 0 0 1 0-1h1a.5.5 0 0 0 .5-.5v-9a.5.5 0 0 0-.5-.5h-7a.5.5 0 0 0-.5.5v1a.5.5 0 0 1-1 0z" clip-rule="evenodd"/></svg>