<svg xmlns="http://www.w3.org/2000/svg" width="16" height="16" fill="none" viewBox="0 0 16 16"><g fill="#444f5c" clip-path="url(#a)"><path d="M8 5a3 3 0 0 0 0 6 .5.5 0 0 1 0 1 4 4 0 0 1 0-8 .5.5 0 0 1 0 1m1.739-.603a.5.5 0 0 0-.435.901q.07.034.137.07a.5.5 0 1 0 .48-.876 4 4 0 0 0-.182-.095m1.546 1.321a.5.5 0 1 0-.82.57 3 3 0 0 1 .162.263.5.5 0 0 0 .875-.484 4 4 0 0 0-.217-.349m.712 2.116a.5.5 0 0 0-1 .042 3 3 0 0 1-.003.308.5.5 0 0 0 .999.061 4 4 0 0 0 .004-.41m-.534 2.167a.5.5 0 1 0-.866-.5 3 3 0 0 1-.167.258.5.5 0 1 0 .81.586 4 4 0 0 0 .223-.344m-1.612 1.544a.5.5 0 0 0-.463-.887l-.138.068a.5.5 0 1 0 .417.91q.094-.045.184-.091"/><path fill-rule="evenodd" d="M8 15.5a7.5 7.5 0 1 0 0-15 7.5 7.5 0 0 0 0 15m0-1a6.5 6.5 0 1 0 0-13 6.5 6.5 0 0 0 0 13" clip-rule="evenodd"/></g><defs><clipPath id="a"><path fill="#fff" d="M0 0h16v16H0z"/></clipPath></defs></svg>