<svg xmlns="http://www.w3.org/2000/svg" width="16" height="16" fill="none" viewBox="0 0 16 16"><path fill="#444f5c" d="M3.313 5a.5.5 0 0 0-.782-.413L.718 5.827a.5.5 0 0 0 .564.826l1.031-.705v5.048a.5.5 0 1 0 1 0zm8.257-.5a.5.5 0 0 0 0 1h2.175l-1.858 1.76a.5.5 0 0 0-.225.565.5.5 0 0 0 .811.258c.19-.09.405-.141.635-.141.798 0 1.392.601 1.392 1.279s-.594 1.28-1.392 1.28c-.461 0-.862-.206-1.113-.512a.5.5 0 0 0-.773.634 2.43 2.43 0 0 0 1.886.877c1.292 0 2.392-.992 2.392-2.279 0-1.112-.822-2.004-1.879-2.226l1.723-1.632A.5.5 0 0 0 15 4.5zM6.234 5.857c.163-.17.595-.348 1.13-.35.52-.003.974.164 1.224.477.123.154.276.584-.084 1.385-.359.798-1.206 1.894-2.936 3.236a.5.5 0 0 0 .306.895H9.6a.5.5 0 0 0 0-1H7.254c1.133-1.025 1.81-1.937 2.162-2.721.45-1.003.392-1.868-.046-2.418-.51-.64-1.315-.857-2.01-.855-.682.003-1.424.22-1.846.656a.5.5 0 1 0 .72.695"/></svg>