<svg xmlns="http://www.w3.org/2000/svg" width="16" height="16" fill="none" viewBox="0 0 16 16"><path fill="#444f5c" d="m5.354 11.354 6-6a.5.5 0 0 0-.708-.708l-6 6a.5.5 0 0 0 .708.708M11 9.75a1.25 1.25 0 1 1-2.5 0 1.25 1.25 0 0 1 2.5 0M6.25 7.5a1.25 1.25 0 1 0 0-2.5 1.25 1.25 0 0 0 0 2.5"/><path fill="#444f5c" fill-rule="evenodd" d="M15.5 2a.5.5 0 0 0-.5-.5H1a.5.5 0 0 0-.5.5v3.818a.5.5 0 0 0 .5.5h.5a1.5 1.5 0 0 1 1.5 1.5v.364a1.5 1.5 0 0 1-1.5 1.5H1a.5.5 0 0 0-.5.5V14a.5.5 0 0 0 .5.5h14a.5.5 0 0 0 .5-.5v-3.818a.5.5 0 0 0-.5-.5h-.5a1.5 1.5 0 0 1-1.5-1.5v-.364a1.5 1.5 0 0 1 1.5-1.5h.5a.5.5 0 0 0 .5-.5zm-14 .5h13v2.818a2.5 2.5 0 0 0-2.5 2.5v.364a2.5 2.5 0 0 0 2.5 2.5V13.5h-13v-2.818a2.5 2.5 0 0 0 2.5-2.5v-.364a2.5 2.5 0 0 0-2.5-2.5z" clip-rule="evenodd"/></svg>