<svg xmlns="http://www.w3.org/2000/svg" width="16" height="16" fill="none" viewBox="0 0 16 16"><path fill="#444f5c" d="M13 .5a.5.5 0 0 1 .5.5v1.5H15a.5.5 0 1 1 0 1h-1.5V5a.5.5 0 1 1-1 0V3.5H11a.5.5 0 0 1 0-1h1.5V1a.5.5 0 0 1 .5-.5"/><path fill="#444f5c" fill-rule="evenodd" d="M1.5 4a.5.5 0 0 1 .5-.5h6a.5.5 0 0 0 0-1H2A1.5 1.5 0 0 0 .5 4v8A1.5 1.5 0 0 0 2 13.5h12a1.5 1.5 0 0 0 1.5-1.5V6.5a.5.5 0 0 0-1 0v3.398L11.988 7.7a1.5 1.5 0 0 0-1.976 0l-2.805 2.454a.5.5 0 0 1-.577.058l-2.292-1.31a1.5 1.5 0 0 0-1.681.132L1.5 9.96zm0 7.24V12a.5.5 0 0 0 .5.5h12a.5.5 0 0 0 .5-.5v-.773l-3.17-2.775a.5.5 0 0 0-.66 0l-2.805 2.455a1.5 1.5 0 0 1-1.732.174l-2.29-1.31a.5.5 0 0 0-.561.044z" clip-rule="evenodd"/></svg>