<svg xmlns="http://www.w3.org/2000/svg" width="16" height="16" fill="none" viewBox="0 0 16 16"><path fill="#444f5c" d="M16 3.175H5.686L4.541 4.32H0V2.666c0-.771.625-1.397 1.397-1.397h13.206c.771 0 1.397.625 1.397 1.397zm0 .762v9.396c0 .771-.625 1.397-1.397 1.397H1.397A1.397 1.397 0 0 1 0 13.333V5.082h4.856l1.145-1.145zm-1.702 2.539c0-.427-.361-.553-.688-.637v-.44c.141.035.279.1.389.204l.248-.327a1.1 1.1 0 0 0-.637-.279v-.298h-.298v.292c-.421.041-.675.311-.675.631 0 .424.352.55.675.628v.493a.93.93 0 0 1-.499-.267l-.242.339c.173.173.411.298.741.327v.283h.298v-.286c.462-.047.688-.317.688-.663m-1.202-.892c0-.113.085-.195.245-.21v.399c-.144-.038-.245-.091-.245-.188zm.486 1.168v-.44c.151.044.261.097.261.214 0 .104-.082.201-.261.226M1.905 3.683a.507.507 0 1 0 .001-1.015.507.507 0 0 0-.001 1.015m1.524 0a.507.507 0 1 0 .001-1.015.507.507 0 0 0-.001 1.015m8.127 1.509h-3.81a.382.382 0 0 0 0 .762h3.81a.382.382 0 0 0 0-.762m0 1.016H9.27a.382.382 0 0 0 0 .762h2.286a.382.382 0 0 0 0-.762m-3.302 5.094a.762.762 0 1 0 0 1.524h5.079a.762.762 0 1 0 0-1.524z"/></svg>