<svg xmlns="http://www.w3.org/2000/svg" width="16" height="16" fill="none" viewBox="0 0 16 16"><path fill="#444f5c" d="M2.5 2.507a1.5 1.5 0 0 1 1.5-1.5h8a1.5 1.5 0 0 1 1.5 1.5v2.116a.5.5 0 0 1-1 0V2.507a.5.5 0 0 0-.5-.5H4a.5.5 0 0 0-.5.5v10.985a.5.5 0 0 0 .5.5h1.011a.5.5 0 0 1 0 1H4a1.5 1.5 0 0 1-1.5-1.5zm10.433 7.741a.5.5 0 1 0-.707-.708l-1.858 1.858-.594-.594a.5.5 0 1 0-.707.707l.948.948a.5.5 0 0 0 .707 0z"/><path fill="#444f5c" fill-rule="evenodd" d="M16 11a5 5 0 1 1-10 0 5 5 0 0 1 10 0m-5 4a4 4 0 1 0 0-8 4 4 0 0 0 0 8" clip-rule="evenodd"/><path fill="#444f5c" d="M9.5 4.25a.5.5 0 0 0 0-1h-4a.5.5 0 1 0 0 1zM5 5.75a.5.5 0 0 1 .5-.5h2a.5.5 0 0 1 0 1h-2a.5.5 0 0 1-.5-.5"/></svg>