<svg xmlns="http://www.w3.org/2000/svg" width="16" height="16" fill="none" viewBox="0 0 16 16"><g clip-path="url(#a)"><path fill="#444f5c" d="M11.5 7.5a4 4 0 1 1 0 8 4 4 0 0 1 0-8m1-7a2 2 0 0 1 2 2l.001 4.39a5.5 5.5 0 0 0-7.611 7.611L2.5 14.5a2 2 0 0 1-2-2v-10a2 2 0 0 1 2-2zm.216 9.589-.069.058-1.646 1.647-.646-.647-.069-.058a.5.5 0 0 0-.696.696l.058.069 1 1 .069.058a.5.5 0 0 0 .569 0l.069-.058 2-2 .058-.069a.5.5 0 0 0-.696-.696zM5.75 5.5h-2.5a.75.75 0 0 0-.102 1.493L3.25 7h2.5a.75.75 0 0 0 0-1.5m6-3h-8.5a.75.75 0 0 0-.102 1.493L3.25 4h8.5a.75.75 0 0 0 0-1.5"/></g><defs><clipPath id="a"><path fill="#fff" d="M0 0h16v16H0z"/></clipPath></defs></svg>