<svg xmlns="http://www.w3.org/2000/svg" width="16" height="16" fill="none" viewBox="0 0 16 16"><path fill="#444f5c" d="M3.93 4.518A.473.473 0 0 1 3.465 5a.473.473 0 0 1-.464-.482c0-.266.208-.482.464-.482.257 0 .465.216.465.482M5.133 5a.473.473 0 0 0 .464-.482.473.473 0 0 0-.464-.482.473.473 0 0 0-.465.482c0 .266.208.482.465.482"/><path fill="#444f5c" fill-rule="evenodd" d="M3 2.5A1.5 1.5 0 0 0 1.5 4v8A1.5 1.5 0 0 0 3 13.5h10a1.5 1.5 0 0 0 1.5-1.5V4A1.5 1.5 0 0 0 13 2.5zM2.5 4a.5.5 0 0 1 .5-.5h10a.5.5 0 0 1 .5.5v.5H6.96a.5.5 0 0 0-.361.154l-.812.846H2.5zm0 2.5V12a.5.5 0 0 0 .5.5h10a.5.5 0 0 0 .5-.5V5.5H7.173l-.812.846A.5.5 0 0 1 6 6.5z" clip-rule="evenodd"/></svg>