<svg xmlns="http://www.w3.org/2000/svg" width="16" height="16" fill="none" viewBox="0 0 16 16"><g fill="#444f5c" clip-path="url(#a)"><path d="M6.956 9.544a1.59 1.59 0 0 0-1.59 1.59.5.5 0 1 1-1 0 2.59 2.59 0 0 1 2.59-2.59h2.09a2.59 2.59 0 0 1 2.589 2.59.5.5 0 1 1-1 0 1.59 1.59 0 0 0-1.59-1.59z"/><path fill-rule="evenodd" d="M10.09 5.91a2.09 2.09 0 1 1-4.179 0 2.09 2.09 0 0 1 4.179 0m-1 0a1.09 1.09 0 1 1-2.179 0 1.09 1.09 0 0 1 2.179 0" clip-rule="evenodd"/><path fill-rule="evenodd" d="M6.755 1.007a1.353 1.353 0 0 1 2.483-.01l.193.44c.339.83 1.312 1.256 2.197.91l.438-.173a1.36 1.36 0 0 1 1.76 1.775l-.167.416a1.76 1.76 0 0 0-.067 1.072l.105.34a1.72 1.72 0 0 0 .886.812l.822.353a.67.67 0 0 1 .408.617v.444c0 .534-.316 1.017-.805 1.232l-.445.195c-.83.338-1.255 1.312-.91 2.196l.174.439a1.36 1.36 0 0 1-1.775 1.76l-.409-.164c-.892-.321-1.835.08-2.213.902l-.184.43a1.353 1.353 0 0 1-2.483.01l-.193-.44c-.338-.83-1.312-1.255-2.196-.91l-.439.174a1.36 1.36 0 0 1-1.76-1.775l.164-.409c.321-.892-.08-1.835-.903-2.213l-.43-.184a1.353 1.353 0 0 1-.009-2.483l.44-.193c.83-.338 1.256-1.312.91-2.196l-.173-.439a1.36 1.36 0 0 1 1.775-1.76l.409.164c.892.321 1.835-.08 2.213-.903zM8 1.188a.35.35 0 0 0-.325.213l-.19.445c-.6 1.315-2.101 1.931-3.476 1.43L4 3.273l-.425-.172a.36.36 0 0 0-.47.467l.173.44c.54 1.379-.111 2.933-1.457 3.486l-.422.185a.353.353 0 0 0 .002.648l.445.19c1.315.6 1.931 2.101 1.43 3.476l-.003.008-.172.426a.36.36 0 0 0 .467.47l.439-.174h.001c1.378-.54 2.933.111 3.486 1.455l.185.423a.353.353 0 0 0 .648-.002l.19-.445c.6-1.315 2.101-1.931 3.476-1.43l.008.003.426.172a.36.36 0 0 0 .47-.467l-.174-.439v-.001c-.54-1.379.111-2.933 1.455-3.486l.428-.187a.35.35 0 0 0 .207-.316v-.228l-.602-.258-.011-.004a2.72 2.72 0 0 1-1.401-1.295 1 1 0 0 1-.053-.13l-.117-.38-.003-.013a2.76 2.76 0 0 1 .105-1.702v-.001l.169-.417a.36.36 0 0 0-.467-.47l-.439.173h-.001c-1.379.54-2.933-.111-3.486-1.457L8.322 1.4A.35.35 0 0 0 8 1.187" clip-rule="evenodd"/></g><defs><clipPath id="a"><path fill="#fff" d="M0 0h16v16H0z"/></clipPath></defs></svg>