<svg xmlns="http://www.w3.org/2000/svg" width="16" height="16" fill="none" viewBox="0 0 16 16"><path fill="#444f5c" d="M7.045 8.74a1.41 1.41 0 0 0-1.41 1.41.5.5 0 0 1-1 0 2.41 2.41 0 0 1 2.41-2.41h1.91a2.41 2.41 0 0 1 2.409 2.41.5.5 0 0 1-1 0 1.41 1.41 0 0 0-1.41-1.41z"/><path fill="#444f5c" fill-rule="evenodd" d="M7.958 3.5a1.919 1.919 0 1 0 0 3.838 1.919 1.919 0 0 0 0-3.838M7.04 5.419a.919.919 0 1 1 1.838 0 .919.919 0 0 1-1.838 0" clip-rule="evenodd"/><path fill="#444f5c" fill-rule="evenodd" d="M3 1.5A1.5 1.5 0 0 0 1.5 3v8q.001.264.085.5H.5a.5.5 0 0 0-.487.615l.291 1.23a1.5 1.5 0 0 0 1.46 1.155h12.499a1.5 1.5 0 0 0 1.467-1.186l.259-1.21a.5.5 0 0 0-.489-.604h-1.085a1.5 1.5 0 0 0 .085-.5V3A1.5 1.5 0 0 0 13 1.5zm10 10a.5.5 0 0 0 .5-.5V3a.5.5 0 0 0-.5-.5H3a.5.5 0 0 0-.5.5v8a.5.5 0 0 0 .5.5zm-11.868 1 .145.615a.5.5 0 0 0 .487.385h12.499a.5.5 0 0 0 .489-.395l.13-.605z" clip-rule="evenodd"/></svg>