<svg xmlns="http://www.w3.org/2000/svg" width="16" height="16" fill="none" viewBox="0 0 16 16"><path fill="#444f5c" fill-rule="evenodd" d="m13.305 6.253.018-.02 1.079-1.078a1.5 1.5 0 0 0 0-2.12L12.207.84a1.5 1.5 0 0 0-2.121 0L8.989 1.937l-.019.02-6.27 6.27a.5.5 0 0 0-.154.238L1.052 13.57a.5.5 0 0 0-.016.206.5.5 0 0 0 .427.76h13.293a.5.5 0 1 0 0-1H3.903l2.848-.834a.5.5 0 0 0 .239-.133zm.39-1.805-.744.744-2.902-2.902.744-.743a.5.5 0 0 1 .707 0l2.194 2.194a.5.5 0 0 1 0 .707m-9.96 4.158 5.608-5.608L12.244 5.9l-5.608 5.608zm1.95 3.366-3.417 1 1-3.416z" clip-rule="evenodd"/></svg>