<svg xmlns="http://www.w3.org/2000/svg" width="16" height="16" fill="none" viewBox="0 0 16 16"><g fill="#444f5c" fill-rule="evenodd" clip-path="url(#a)" clip-rule="evenodd"><path d="M5.59 6.612a2.392 2.392 0 1 1 4.784 0 2.392 2.392 0 0 1-4.784 0M7.982 5.22a1.392 1.392 0 1 0 0 2.785 1.392 1.392 0 0 0 0-2.785"/><path d="M.07 8a7.912 7.912 0 1 1 15.824 0A7.912 7.912 0 0 1 .071 8m7.913-6.912a6.912 6.912 0 0 0-4.421 12.225 4.502 4.502 0 0 1 8.842 0A6.912 6.912 0 0 0 7.983 1.088m3.495 12.876a3.5 3.5 0 0 0-6.99 0 6.9 6.9 0 0 0 3.495.948 6.9 6.9 0 0 0 3.495-.948"/></g><defs><clipPath id="a"><path fill="#fff" d="M0 0h16v16H0z"/></clipPath></defs></svg>