<svg xmlns="http://www.w3.org/2000/svg" width="16" height="16" fill="none" viewBox="0 0 16 16"><g fill="#444f5c" clip-path="url(#a)"><path d="M2 .5A1.5 1.5 0 0 0 .5 2v12A1.5 1.5 0 0 0 2 15.5h3.5a.5.5 0 0 0 0-1H2a.5.5 0 0 1-.5-.5V2a.5.5 0 0 1 .5-.5h11a.5.5 0 0 1 .5.5v3a.5.5 0 0 0 1 0V2A1.5 1.5 0 0 0 13 .5z"/><path d="M9.805 5.123a.5.5 0 0 0 0-1l-7 .003a.5.5 0 0 0 0 1zm-7.5 2a.5.5 0 0 1 .5-.5h4a.5.5 0 1 1 0 1h-4a.5.5 0 0 1-.5-.5m7.803 2.489a3.136 3.136 0 0 1 4.47.037l-2.246.166a.5.5 0 1 0 .073.998l3.117-.231h.014a.5.5 0 0 0 .46-.552l-.23-3.115a.5.5 0 1 0-.998.074l.118 1.593a4.136 4.136 0 1 0 1.11 5.153.5.5 0 1 0-.887-.46 3.136 3.136 0 1 1-5.002-3.662"/></g><defs><clipPath id="a"><path fill="#fff" d="M0 0h16v16H0z"/></clipPath></defs></svg>