<svg xmlns="http://www.w3.org/2000/svg" width="16" height="16" fill="none" viewBox="0 0 16 16"><g fill="#444f5c" clip-path="url(#a)"><path d="M8 .092a8 8 0 0 0-1.593.163.5.5 0 1 0 .201.979 6.907 6.907 0 1 1-3.224 11.904.5.5 0 0 0-.668.744 7.9 7.9 0 0 0 4.75 2.007l.01.001h.007q.24.017.486.017H8a8 8 0 0 0 .535-.018 7.91 7.91 0 0 0 6.576-4.43 7.9 7.9 0 0 0 0-6.919l-.017-.039a7.9 7.9 0 0 0-1.333-1.918 7.9 7.9 0 0 0-5.76-2.49m-3.056 1.71a.5.5 0 1 0-.443-.897 8 8 0 0 0-.896.518.5.5 0 1 0 .557.831q.374-.25.782-.452M2.256 4.162a.5.5 0 1 0-.831-.556 8 8 0 0 0-.518.895.5.5 0 1 0 .896.443q.202-.406.453-.782M1.107 7.547a.5.5 0 1 0-.998-.064 8 8 0 0 0 0 1.034.5.5 0 0 0 .998-.064 7 7 0 0 1 0-.906m.696 3.508a.5.5 0 1 0-.896.443q.23.466.518.896a.5.5 0 1 0 .83-.557 7 7 0 0 1-.452-.782"/><path d="M8.005 3.033a.5.5 0 0 1 .5.5V7.6l2.754 1.46a.5.5 0 1 1-.468.884l-3.02-1.602a.5.5 0 0 1-.266-.466V3.533a.5.5 0 0 1 .5-.5"/></g><defs><clipPath id="a"><path fill="#fff" d="M0 0h16v16H0z"/></clipPath></defs></svg>