<svg xmlns="http://www.w3.org/2000/svg" width="16" height="16" fill="none" viewBox="0 0 16 16"><path fill="#444f5c" d="M5.226 1.5a1.5 1.5 0 0 0-1.35.846L1.887 6.45H1a.5.5 0 0 0 0 1h.7V13a.5.5 0 0 0 1 0v-1.15h2.8a.5.5 0 0 0 0-1H2.7V9.1h1.9a.5.5 0 0 0 0-1H2.7V7.065l2.077-4.283a.5.5 0 0 1 .45-.282h5.936a.5.5 0 0 1 .453.289l.43.922a.5.5 0 1 0 .907-.422l-.43-.923a1.5 1.5 0 0 0-1.36-.866z"/><path fill="#444f5c" fill-rule="evenodd" d="M7.5 7.5h2V7A1.5 1.5 0 0 1 11 5.5h1A1.5 1.5 0 0 1 13.5 7v.5h2a.5.5 0 0 1 0 1h-.448l-.465 4.65a1.5 1.5 0 0 1-1.492 1.35h-3.09a1.5 1.5 0 0 1-1.493-1.35L8.047 8.5H7.5a.5.5 0 0 1 0-1m5 0V7a.5.5 0 0 0-.5-.5h-1a.5.5 0 0 0-.5.5v.5zm-3.448 1 .455 4.55a.5.5 0 0 0 .498.45h3.09a.5.5 0 0 0 .497-.45l.455-4.55z" clip-rule="evenodd"/></svg>