<svg xmlns="http://www.w3.org/2000/svg" width="16" height="16" fill="none" viewBox="0 0 16 16"><g fill="#444f5c" clip-path="url(#a)"><path fill-rule="evenodd" d="M7.964.064a3.548 3.548 0 1 0 0 7.096 3.548 3.548 0 0 0 0-7.096M5.416 3.612a2.548 2.548 0 1 1 5.096 0 2.548 2.548 0 0 1-5.096 0" clip-rule="evenodd"/><path d="M1.497 15.318A5.466 5.466 0 0 1 6.964 9.85a.5.5 0 1 0 0-1 6.466 6.466 0 0 0-6.467 6.467v.129a.5.5 0 0 0 1 0z"/><path fill-rule="evenodd" d="M11.996 10.434c.365.23.797.363 1.26.363 1.288 0 2.343-1.033 2.343-2.32 0-1.288-1.055-2.32-2.344-2.32s-2.343 1.032-2.343 2.32c0 .463.136.894.372 1.255l-4.639 4.671a.5.5 0 1 0 .71.705l.512-.516 1.21 1.209a.5.5 0 1 0 .707-.707l-1.212-1.212 1.066-1.074 1.057 1.057a.5.5 0 1 0 .707-.707l-1.059-1.06zm-.084-1.957c0-.723.595-1.32 1.343-1.32.749 0 1.344.597 1.344 1.32s-.595 1.32-1.344 1.32a1.33 1.33 0 0 1-1.343-1.32" clip-rule="evenodd"/></g><defs><clipPath id="a"><path fill="#fff" d="M0 0h16v16H0z"/></clipPath></defs></svg>