<svg xmlns="http://www.w3.org/2000/svg" width="16" height="16" fill="none" viewBox="0 0 16 16"><path fill="#444f5c" d="M11.705 4.018a.587.587 0 1 0 .83-.83.587.587 0 0 0-.83.83"/><path fill="#444f5c" fill-rule="evenodd" d="M12.907.837A2 2 0 0 0 10.153.77L6.9 3.714a2 2 0 0 0-.146 2.82L1.97 11.318a.6.6 0 0 0-.175.398l-.083 1.882a.6.6 0 0 0 .64.625l1.8-.122a.6.6 0 0 0 .547-.48l.227-1.115 1.11-.218a.6.6 0 0 0 .475-.485l.179-1.022.919-.087a.6.6 0 0 0 .368-.173L9.38 9.118a2 2 0 0 0 2.628-.321l2.918-3.287a2 2 0 0 0-.084-2.744zm1.23 2.637L12.2 1.545a1 1 0 0 0-1.377-.033L7.57 4.456a1 1 0 0 0-.036 1.449l2.272 2.271a1 1 0 0 0 1.455-.043l2.918-3.287a1 1 0 0 0-.042-1.372M7.266 7.436l-4.479 4.48-.057 1.28 1.05-.072.22-1.08a.6.6 0 0 1 .472-.468l1.101-.216.184-1.052a.6.6 0 0 1 .535-.494l1.08-.102 1.085-1.085z" clip-rule="evenodd"/></svg>