<svg xmlns="http://www.w3.org/2000/svg" width="16" height="16" fill="none" viewBox="0 0 16 16"><g clip-path="url(#a)"><path fill="#444f5c" fill-rule="evenodd" d="M-.013 2.504a1.5 1.5 0 0 1 1.5-1.5h13.026a1.5 1.5 0 0 1 1.5 1.5v8.733a1.5 1.5 0 0 1-1.5 1.5H8.499v1.146h3.793a.5.5 0 0 1 0 1H3.706a.5.5 0 0 1 0-1H7.5v-1.146H1.487a1.5 1.5 0 0 1-1.5-1.5zm1.5-.5a.5.5 0 0 0-.5.5v8.733a.5.5 0 0 0 .5.5h13.026a.5.5 0 0 0 .5-.5V2.504a.5.5 0 0 0-.5-.5z" clip-rule="evenodd"/></g><defs><clipPath id="a"><path fill="#fff" d="M0 0h16v16H0z"/></clipPath></defs></svg>