<svg xmlns="http://www.w3.org/2000/svg" width="16" height="16" fill="none" viewBox="0 0 16 16"><g clip-path="url(#a)"><path fill="#444f5c" d="M6.095 7.365V5.46a1.905 1.905 0 0 1 3.81 0v1.905h.635a.382.382 0 0 1 0 .762H5.461a.382.382 0 0 1 0-.762h.635zM8 3.302A1.397 1.397 0 1 1 8 .508a1.397 1.397 0 0 1 0 2.794m-4.335 9.142h-.237a1.905 1.905 0 0 1-1.905-1.905l.008.006-.003-.003v-.003h-.005v-2.54a1.397 1.397 0 0 1 2.794 0v2.159h.635c.771 0 1.397.625 1.397 1.397v3.048a.89.89 0 0 1-.889.889h-.111a.89.89 0 0 1-.862-.673zm-.744-6.095a1.397 1.397 0 1 1 0-2.794 1.397 1.397 0 0 1 0 2.794m-2.159.127v4.571c0 1.192.966 2.159 2.159 2.159a.382.382 0 0 1 0 .762A2.92 2.92 0 0 1 0 11.047V6.476a.382.382 0 0 1 .762 0m11.573 5.968-.821 2.374a.89.89 0 0 1-.862.673h-.111a.89.89 0 0 1-.889-.889v-3.048c0-.771.625-1.397 1.397-1.397h.635V7.998a1.397 1.397 0 0 1 2.794 0v2.54h-.005v.003l-.003.003.008-.006a1.905 1.905 0 0 1-1.905 1.905h-.237zm.744-6.095a1.397 1.397 0 1 1 0-2.794 1.397 1.397 0 0 1 0 2.794m2.159.127a.382.382 0 0 1 .762 0v4.571a2.92 2.92 0 0 1-2.921 2.921.382.382 0 0 1 0-.762 2.16 2.16 0 0 0 2.159-2.159z"/></g><defs><clipPath id="a"><path fill="#fff" d="M0 0h16v16H0z"/></clipPath></defs></svg>