<svg xmlns="http://www.w3.org/2000/svg" width="16" height="16" fill="none" viewBox="0 0 16 16"><g fill="#444f5c" clip-path="url(#a)"><path d="M6.615 3.212a.5.5 0 0 1-.5-.5V1.006a.5.5 0 1 1 1 0v1.706a.5.5 0 0 1-.5.5M3.053 9.67a2.338 2.338 0 0 0 3.306 3.306l1.893-1.893a.5.5 0 0 1 .707.707l-1.893 1.893a3.338 3.338 0 0 1-4.72-4.72l1.947-1.947A.5.5 0 0 1 5 7.723zm3.904-4.611a.5.5 0 0 1 0-.707l2.007-2.007a3.338 3.338 0 0 1 4.72 4.72l-2.006 2.007a.5.5 0 1 1-.708-.707l2.007-2.007a2.338 2.338 0 0 0-3.306-3.306L7.664 5.06a.5.5 0 0 1-.707 0M3.205 6.689a.5.5 0 0 0-.493-.507L1.006 6.16a.5.5 0 1 0-.013 1l1.706.022a.5.5 0 0 0 .506-.493m10.077 3.144a.5.5 0 1 1 .014-1l1.706.023a.5.5 0 0 1-.014 1zm-3.362 3.47a.5.5 0 0 0-1 0v1.706a.5.5 0 1 0 1 0zM3.888 3.88a.5.5 0 0 1-.707 0L1.975 2.675a.5.5 0 1 1 .707-.707l1.206 1.207a.5.5 0 0 1 0 .707m8.966 8.253a.5.5 0 1 0-.707.707l1.206 1.206a.5.5 0 0 0 .707-.707z"/></g><defs><clipPath id="a"><path fill="#fff" d="M0 0h16v16H0z"/></clipPath></defs></svg>