<svg xmlns="http://www.w3.org/2000/svg" width="16" height="16" fill="none" viewBox="0 0 16 16"><g fill="#444f5c" clip-path="url(#a)"><path d="M4.283 5.001a.5.5 0 0 1 .5-.5h.5a.5.5 0 1 1 0 1h-.5a.5.5 0 0 1-.5-.5m.5 2.499a.5.5 0 0 0 0 1h.5a.5.5 0 1 0 0-1zm-.5 3.501a.5.5 0 0 1 .5-.5h.5a.5.5 0 1 1 0 1h-.5a.5.5 0 0 1-.5-.5m2.937-6.5a.5.5 0 0 0 0 1h4a.5.5 0 0 0 0-1zM6.72 8a.5.5 0 0 1 .5-.5h4a.5.5 0 0 1 0 1h-4a.5.5 0 0 1-.5-.5m.5 2.501a.5.5 0 1 0 0 1h4a.5.5 0 0 0 0-1z"/><path fill-rule="evenodd" d="M1.007 1.495a1.5 1.5 0 0 1 1.5-1.5h10.99a1.5 1.5 0 0 1 1.5 1.5v13.01a1.5 1.5 0 0 1-1.5 1.5H2.506a1.5 1.5 0 0 1-1.5-1.5zm1.5-.5a.5.5 0 0 0-.5.5v13.01a.5.5 0 0 0 .5.5h10.99a.5.5 0 0 0 .5-.5V1.495a.5.5 0 0 0-.5-.5z" clip-rule="evenodd"/></g><defs><clipPath id="a"><path fill="#fff" d="M0 0h16v16H0z"/></clipPath></defs></svg>