<svg xmlns="http://www.w3.org/2000/svg" width="16" height="16" fill="none" viewBox="0 0 16 16"><g fill="#444f5c" clip-path="url(#a)"><path d="M12.928 3.114a.5.5 0 0 1-.006.707L7.104 9.535a.5.5 0 0 1-.701 0L4.22 7.393a.5.5 0 1 1 .7-.714l1.832 1.799 5.468-5.37a.5.5 0 0 1 .707.006"/><path fill-rule="evenodd" d="M1 .036a1 1 0 0 0-1 1V12.75a1 1 0 0 0 1 1h14a1 1 0 0 0 1-1V1.036a1 1 0 0 0-1-1zm14 1H1V12.75h14z" clip-rule="evenodd"/><path d="M3.429 14.964a.5.5 0 1 0 0 1h9.142a.5.5 0 1 0 0-1z"/></g><defs><clipPath id="a"><path fill="#fff" d="M0 0h16v16H0z"/></clipPath></defs></svg>