<svg xmlns="http://www.w3.org/2000/svg" width="16" height="16" fill="none" viewBox="0 0 16 16"><g fill="#444f5c" fill-rule="evenodd" clip-path="url(#a)" clip-rule="evenodd"><path d="M8.52 3.25a.5.5 0 0 0-1 0v.34c-.32.065-.619.193-.881.37l-.237-.237a.5.5 0 1 0-.707.707l.243.244c-.162.25-.28.532-.342.834h-.342a.5.5 0 0 0 0 1h.338c.066.327.196.63.377.896l-.236.236a.5.5 0 0 0 .707.707l.245-.244c.251.16.533.278.836.34v.34a.5.5 0 0 0 1 0v-.34c.32-.066.62-.194.882-.37l.237.236a.5.5 0 1 0 .707-.707l-.244-.244c.162-.25.28-.532.343-.834h.34a.5.5 0 0 0 0-1h-.337a2.5 2.5 0 0 0-.376-.896l.236-.236a.5.5 0 1 0-.707-.707l-.245.245a2.5 2.5 0 0 0-.836-.34zm.474 1.655a1.477 1.477 0 0 0-2.45 1.044.5.5 0 0 1 0 .122 1.477 1.477 0 0 0 2.49 1.02.5.5 0 0 1 .086-.088c.235-.262.378-.607.378-.987 0-.39-.15-.743-.397-1.007a.5.5 0 0 1-.107-.104"/><path d="M1.5 2A1.5 1.5 0 0 1 3 .5h10A1.5 1.5 0 0 1 14.5 2v8a1.5 1.5 0 0 1-.085.5H15.5a.5.5 0 0 1 .489.605l-.26 1.21a1.5 1.5 0 0 1-1.466 1.185h-12.5a1.5 1.5 0 0 1-1.46-1.155l-.29-1.23A.5.5 0 0 1 .5 10.5h1.085A1.5 1.5 0 0 1 1.5 10zm12 8a.5.5 0 0 1-.5.5H3a.5.5 0 0 1-.5-.5V2a.5.5 0 0 1 .5-.5h10a.5.5 0 0 1 .5.5zM1.132 11.5h13.75l-.13.605a.5.5 0 0 1-.49.395H1.765a.5.5 0 0 1-.487-.385z"/></g><defs><clipPath id="a"><path fill="#fff" d="M0 0h16v16H0z"/></clipPath></defs></svg>