<svg xmlns="http://www.w3.org/2000/svg" width="16" height="16" fill="none" viewBox="0 0 16 16"><g fill="#444f5c" clip-path="url(#a)"><path d="m5.027 9.143.103.217a3.174 3.174 0 0 0 5.738 0l.103-.217h4.138c.491 0 .889.398.889.889v4.063c0 .771-.625 1.397-1.397 1.397H1.395a1.397 1.397 0 0 1-1.397-1.397v-4.064c0-.491.398-.889.889-.889h4.138zm8.941-.581L2.031 8.545V2.921c0-.21.171-.381.381-.381h11.175c.21 0 .381.171.381.381zM4.952 4.43h-1.27a.382.382 0 0 0 0 .762h1.27a.382.382 0 0 0 0-.762m1.524 1.524H3.682a.382.382 0 0 0 0 .762h2.794a.382.382 0 0 0 0-.762M7.492 4.43h-1.27a.382.382 0 0 0 0 .762h1.27a.382.382 0 0 0 0-.762M3.81 1.27h8.381v.689h.762V.889a.38.38 0 0 0-.381-.381H3.429a.38.38 0 0 0-.381.381v1.053h.762z"/></g><defs><clipPath id="a"><path fill="#fff" d="M0 0h16v16H0z"/></clipPath></defs></svg>