<svg xmlns="http://www.w3.org/2000/svg" width="16" height="16" fill="none" viewBox="0 0 16 16"><g fill="#444f5c" clip-path="url(#a)"><path d="M8.5 1.06a.5.5 0 0 0-1 0v9.915L5.146 8.62a.5.5 0 1 0-.707.707l3.207 3.207a.5.5 0 0 0 .708 0l3.207-3.207a.5.5 0 0 0-.707-.707L8.5 10.975z"/><path d="M1 9.057a.5.5 0 0 0-1 0v5.25a1.5 1.5 0 0 0 1.5 1.5h13a1.5 1.5 0 0 0 1.5-1.5v-5.25a.5.5 0 1 0-1 0v5.25a.5.5 0 0 1-.5.5h-13a.5.5 0 0 1-.5-.5z"/></g><defs><clipPath id="a"><path fill="#fff" d="M0 0h16v16H0z"/></clipPath></defs></svg>