<svg xmlns="http://www.w3.org/2000/svg" width="16" height="16" fill="none" viewBox="0 0 16 16"><path fill="#444f5c" d="M5.724 8.822c.177-.088.488-.173.91-.233A10 10 0 0 1 8 8.5c.48 0 .957.03 1.367.089.42.06.732.145.91.233a.5.5 0 1 0 .447-.894c-.323-.162-.762-.264-1.216-.33A11 11 0 0 0 8 7.5c-.52 0-1.043.032-1.508.099-.454.065-.893.167-1.216.329a.5.5 0 1 0 .448.894"/><path fill="#444f5c" fill-rule="evenodd" d="M.5 8a7.5 7.5 0 1 1 15 0 7.5 7.5 0 0 1-15 0M8 1.5a6.5 6.5 0 0 0-6.13 4.332 18.6 18.6 0 0 1 12.26 0A6.5 6.5 0 0 0 8 1.5M1.5 8q0-.513.077-1.006a.5.5 0 0 0 .102-.027 17.6 17.6 0 0 1 12.641 0 .5.5 0 0 0 .103.027 6.5 6.5 0 0 1-.098 2.509 5 5 0 0 0-4.822 4.822 6.5 6.5 0 0 1-3.006 0 5 5 0 0 0-4.822-4.822A6.5 6.5 0 0 1 1.5 8m9.032 5.988a4 4 0 0 1 3.456-3.456 6.52 6.52 0 0 1-3.456 3.456m-8.52-3.455a6.52 6.52 0 0 0 3.455 3.455 4 4 0 0 0-3.455-3.455" clip-rule="evenodd"/></svg>