<svg xmlns="http://www.w3.org/2000/svg" width="16" height="16" fill="none" viewBox="0 0 16 16"><g fill="#444f5c" fill-rule="evenodd" clip-path="url(#a)" clip-rule="evenodd"><path d="M12.354 2.06a.5.5 0 0 0-.707 0l-9.098 9.098a.5.5 0 0 0-.131.232l-.73 2.923 2.922-.73a.5.5 0 0 0 .232-.132l9.097-9.097a.5.5 0 0 0 0-.708zm-1.415-.706a1.5 1.5 0 0 1 2.122 0l1.585 1.585a1.5 1.5 0 0 1 0 2.122L5.55 14.158a1.5 1.5 0 0 1-.696.394l-3.732.933a.5.5 0 0 1-.606-.606l.933-3.732a1.5 1.5 0 0 1 .394-.696z"/><path d="M2.146 10.646a.5.5 0 0 1 .708 0l2.5 2.5a.5.5 0 1 1-.708.707l-2.5-2.5a.5.5 0 0 1 0-.707m7-7a.5.5 0 0 1 .708 0l2.5 2.5a.5.5 0 0 1-.707.708l-2.5-2.5a.5.5 0 0 1 0-.708"/></g><defs><clipPath id="a"><path fill="#fff" d="M0 0h16v16H0z"/></clipPath></defs></svg>