<svg xmlns="http://www.w3.org/2000/svg" width="16" height="16" fill="none" viewBox="0 0 16 16"><g clip-path="url(#a)"><path fill="#444f5c" d="M15.29 16.004H.709a.656.656 0 0 1-.663-.649v-5.194c0-.358.297-.649.663-.649s.663.291.663.649v4.545h13.255v-4.545c0-.358.297-.649.663-.649s.663.291.663.649v5.194a.656.656 0 0 1-.663.649M14.514 3.88a.68.68 0 0 1-.137.505L11.78 7.7a.64.64 0 0 1-.913.103.674.674 0 0 1-.101-.932l1.753-2.238H9.975c-2.506 0-4.545 2.081-4.545 4.639a.656.656 0 0 1-.649.663.656.656 0 0 1-.649-.663c0-3.289 2.622-5.965 5.844-5.965h2.544l-1.752-2.236a.676.676 0 0 1 .101-.932.64.64 0 0 1 .913.103l2.597 3.314a.66.66 0 0 1 .131.294l.004.028z"/></g><defs><clipPath id="a"><path fill="#fff" d="M0 0h16v16H0z"/></clipPath></defs></svg>