<svg xmlns="http://www.w3.org/2000/svg" width="16" height="16" fill="none" viewBox="0 0 16 16"><path fill="#444f5c" d="M8 10.667A2.67 2.67 0 0 1 5.333 8 2.67 2.67 0 0 1 8 5.333 2.67 2.67 0 0 1 10.667 8 2.67 2.67 0 0 1 8 10.667m0-4c-.735 0-1.333.598-1.333 1.333S7.265 9.333 8 9.333 9.333 8.735 9.333 8 8.735 6.667 8 6.667"/><path fill="#444f5c" d="M8 13.333c-3.164 0-6.122-1.87-7.912-5.003a.67.67 0 0 1 0-.661C1.878 4.537 4.836 2.666 8 2.666s6.122 1.87 7.912 5.003a.67.67 0 0 1 0 .661c-1.79 3.132-4.748 5.003-7.912 5.003M1.443 8C3.006 10.512 5.431 12 8 12s4.995-1.488 6.557-4C12.994 5.488 10.569 4 8 4S3.005 5.488 1.443 8"/></svg>