<svg xmlns="http://www.w3.org/2000/svg" width="16" height="16" fill="none" viewBox="0 0 16 16"><path fill="#444f5c" fill-rule="evenodd" d="M8 14A6 6 0 1 0 8 2a6 6 0 0 0 0 12m0 1A7 7 0 1 0 8 1a7 7 0 0 0 0 14" clip-rule="evenodd"/><path fill="#444f5c" d="M7 7a1 1 0 1 1-2 0 1 1 0 0 1 2 0m4 0a1 1 0 1 1-2 0 1 1 0 0 1 2 0"/><path fill="#444f5c" fill-rule="evenodd" d="M5.177 10.118a.5.5 0 0 1 .705.06L5.5 10.5l.382-.322-.001-.002-.001-.002.002.004.018.018q.027.03.09.087c.086.076.218.181.396.288.354.212.891.429 1.614.429s1.26-.217 1.614-.43a2.6 2.6 0 0 0 .486-.374l.018-.02a.5.5 0 0 1 .764.646L10.5 10.5l.382.322v.001l-.001.001-.002.002-.004.005-.013.015a2 2 0 0 1-.187.183 3.6 3.6 0 0 1-.548.4A4.1 4.1 0 0 1 8 12a4.1 4.1 0 0 1-2.128-.57 3.6 3.6 0 0 1-.693-.54l-.04-.044-.014-.015-.004-.005-.002-.002s-.001-.002.381-.324l-.382.322a.5.5 0 0 1 .06-.704m4.941.059.002-.002z" clip-rule="evenodd"/></svg>