<svg xmlns="http://www.w3.org/2000/svg" width="16" height="16" fill="none" viewBox="0 0 16 16"><g clip-path="url(#a)"><path fill="#444f5c" fill-rule="evenodd" d="M1.5 2.132a.5.5 0 0 1 .5-.5h13a.5.5 0 0 0 0-1H2a1.5 1.5 0 0 0-1.5 1.5v8.263a1.5 1.5 0 0 0 1.5 1.5h4.16a.5.5 0 0 1 .306.104l3.915 3.027a.7.7 0 0 0 1.128-.554v-2.077a.5.5 0 0 1 .5-.5H15a.5.5 0 0 0 0-1h-2.992a1.5 1.5 0 0 0-1.5 1.5v1.466l-3.431-2.653a1.5 1.5 0 0 0-.918-.313H2a.5.5 0 0 1-.5-.5zM13.73 7.08a.34.34 0 0 0-.27.545l.193.254a1.3 1.3 0 0 1-.26.025q-.361 0-.632-.177a1.16 1.16 0 0 1-.42-.522q-.148-.344-.148-.845 0-.5.148-.845.15-.344.42-.521t.633-.178.632.178.418.521q.15.345.15.845 0 .501-.15.845-.081.187-.197.325l-.248-.319a.34.34 0 0 0-.268-.13m1.128 1.182q.27-.24.456-.586.293-.542.293-1.316 0-.773-.293-1.316a2 2 0 0 0-.794-.826 2.23 2.23 0 0 0-1.126-.286q-.63 0-1.131.286-.501.285-.792.826-.29.542-.29 1.316 0 .771.29 1.313.291.543.792.83.5.285 1.13.285.447 0 .83-.144l.27.333a.365.365 0 0 0 .57-.459zm-10.947.462a.5.5 0 0 1-.5-.5v-3.73a.5.5 0 0 1 .5-.5H6.13a.412.412 0 1 1 0 .824H4.411v1.127h1.51a.412.412 0 1 1 0 .824h-1.51v1.453a.5.5 0 0 1-.5.5m3.64-.348a.503.503 0 1 1-.954-.32l1.193-3.45a.903.903 0 0 1 1.708 0l1.19 3.452a.503.503 0 1 1-.955.319l-.237-.73H7.79zm1.11-3.3.581 1.79h-1.2l.582-1.79z" clip-rule="evenodd"/></g><defs><clipPath id="a"><path fill="#fff" d="M0 0h16v16H0z"/></clipPath></defs></svg>