<svg xmlns="http://www.w3.org/2000/svg" width="16" height="16" fill="none" viewBox="0 0 16 16"><g fill="#444f5c" clip-path="url(#a)"><path d="M14.673 9.194a3.556 3.556 0 1 0 0 4.978v.432c0 .771-.625 1.397-1.397 1.397H2.101a1.397 1.397 0 0 1-1.397-1.397V1.398c0-.771.625-1.397 1.397-1.397h8.751v2.837c0 .631.512 1.143 1.143 1.143h2.678zM5.86 4.727c0-.678-.574-.878-1.092-1.012v-.698c.224.055.444.16.618.324l.394-.519a1.73 1.73 0 0 0-1.012-.444v-.474h-.474v.464c-.668.065-1.072.494-1.072 1.002 0 .673.559.873 1.072.997v.783a1.47 1.47 0 0 1-.793-.424l-.384.539c.274.274.653.474 1.177.519v.449h.474v-.454c.733-.075 1.092-.504 1.092-1.052M3.95 3.311c0-.18.135-.309.389-.334v.633c-.229-.06-.389-.145-.389-.299m.773 1.855v-.698c.239.07.414.155.414.339 0 .165-.13.319-.414.359m1.95 2.82h-3.81a.382.382 0 0 0 0 .762h3.81a.382.382 0 0 0 0-.762m-.762 1.411H3.625a.382.382 0 0 0 0 .762h2.286a.382.382 0 0 0 0-.762"/><path d="M12.515 13.856v-2.035a.5.5 0 0 0-.241-.068.54.54 0 0 0-.241.068v2.022c0 .137-.107.246-.227.246a.227.227 0 0 1-.227-.232.24.24 0 0 0-.241-.246.24.24 0 0 0-.241.246c0 .396.321.724.708.724a.73.73 0 0 0 .708-.725z"/><path d="M12.515 9.116v-.314a.24.24 0 0 0-.241-.246.24.24 0 0 0-.241.246v.314c-1.403.109-2.553 1.202-2.78 2.609-.027.164.147.259.254.15.2-.205.454-.424.721-.424.334 0 .642.219.828.56.093.164.307.164.387 0 .187-.342.481-.56.828-.56.334 0 .642.219.828.56.093.164.307.164.387 0 .187-.342.481-.56.828-.56.267 0 .521.219.721.424.107.109.281.014.254-.15-.239-1.407-1.374-2.5-2.778-2.609zM11.752.381 14.8 3.429h-2.54a.507.507 0 0 1-.508-.508z"/></g><defs><clipPath id="a"><path fill="#fff" d="M0 0h16v16H0z"/></clipPath></defs></svg>