<svg xmlns="http://www.w3.org/2000/svg" width="16" height="16" fill="none" viewBox="0 0 16 16"><path fill="#444f5c" d="M3 1.5a.5.5 0 0 0-.5.5v12a.5.5 0 0 0 .5.5h3a.5.5 0 0 1 0 1H3A1.5 1.5 0 0 1 1.5 14V2A1.5 1.5 0 0 1 3 .5h10A1.5 1.5 0 0 1 14.5 2v2a.5.5 0 0 1-1 0V2a.5.5 0 0 0-.5-.5z"/><path fill="#444f5c" fill-rule="evenodd" d="M11.5 10.8h-3c-.782 0-1.6-.675-1.361-1.613a4.502 4.502 0 0 1 8.722 0c.24.938-.579 1.613-1.361 1.613h-2v3.387c0 .49-.247.93-.629 1.232-.38.3-.873.456-1.371.456a2.22 2.22 0 0 1-1.371-.456c-.382-.303-.629-.742-.629-1.232a.5.5 0 1 1 1 0c0 .14.07.305.25.448.183.145.452.24.75.24s.567-.095.75-.24c.18-.143.25-.308.25-.448zM8.108 9.433a3.502 3.502 0 0 1 6.784 0 .24.24 0 0 1-.062.233.45.45 0 0 1-.33.134h-6a.45.45 0 0 1-.33-.134.24.24 0 0 1-.062-.233" clip-rule="evenodd"/><path fill="#444f5c" d="M5 3.5a.5.5 0 0 0 0 1h6a.5.5 0 0 0 0-1zM4.5 7a.5.5 0 0 1 .5-.5h1a.5.5 0 0 1 0 1H5a.5.5 0 0 1-.5-.5"/></svg>