<svg xmlns="http://www.w3.org/2000/svg" width="16" height="16" fill="none" viewBox="0 0 16 16"><path fill="#444f5c" d="M3.543 5.094a5.413 5.413 0 0 1 9.779 1.958l-.857-.65a.5.5 0 0 0-.604.798l1.762 1.335a.503.503 0 0 0 .719-.115l1.39-1.566a.5.5 0 0 0-.747-.664l-.666.75A6.413 6.413 0 0 0 2.717 4.53a.5.5 0 0 0 .826.563m4.476 9.455a6.414 6.414 0 0 1-6.292-5.175l-.636.736a.5.5 0 1 1-.757-.654L1.651 7.93a.5.5 0 0 1 .849-.104l1.674 1.235a.5.5 0 1 1-.594.804l-.862-.636a5.413 5.413 0 0 0 9.927 1.716.5.5 0 1 1 .854.52 6.41 6.41 0 0 1-5.48 3.082"/><path fill="#444f5c" d="M7.2 5.275a1.612 1.612 0 1 0 0 3.225h1.6a.612.612 0 1 1 0 1.224H6.665a.5.5 0 1 0 0 1H7.5v.39a.5.5 0 0 0 1 0v-.39h.3a1.612 1.612 0 1 0 0-3.224H7.2a.612.612 0 1 1 0-1.225h2.135a.5.5 0 1 0 0-1H8.5v-.39a.5.5 0 0 0-1 0v.39z"/></svg>