<svg xmlns="http://www.w3.org/2000/svg" width="16" height="16" fill="none" viewBox="0 0 16 16"><g fill="#444f5c" clip-path="url(#a)"><path d="M10.754 5.967a.5.5 0 0 0-.678-.734L7.6 7.52l-.854-.973a.5.5 0 0 0-.751.66l1.192 1.358a.5.5 0 0 0 .715.037z"/><path fill-rule="evenodd" d="M3.81 11.153c-.98.22-1.778.703-2.31 1.095v3.233a.5.5 0 0 1-1 0V2a.5.5 0 0 1 .176-.38c1.14-.974 4.094-2.245 7.59-.044 1.496.942 2.856.905 3.96.544 1.124-.368 1.992-1.078 2.435-1.488A.5.5 0 0 1 15.5 1v10.5a.5.5 0 0 1-.178.382c-1.157.977-4.246 2.148-7.59.041-1.495-.943-2.835-1.015-3.923-.77m-2.31-.11v-8.8c1-.734 3.361-1.628 6.234.18 1.781 1.122 3.457 1.088 4.802.648A7.3 7.3 0 0 0 14.5 2.054v9.2c-1.018.723-3.493 1.55-6.233-.177-1.734-1.092-3.347-1.2-4.677-.9a7 7 0 0 0-2.09.866" clip-rule="evenodd"/></g><defs><clipPath id="a"><path fill="#fff" d="M0 0h16v16H0z"/></clipPath></defs></svg>