<svg xmlns="http://www.w3.org/2000/svg" width="16" height="16" fill="none" viewBox="0 0 16 16"><path fill="#444f5c" d="M4.5 4a.5.5 0 0 0-1 0v8a.5.5 0 0 0 1 0zm7.5-.5a.5.5 0 0 1 .5.5v8a.5.5 0 0 1-1 0V4a.5.5 0 0 1 .5-.5M8.854 6.146a.5.5 0 1 0-.707.708l.646.646H6a.5.5 0 0 0 0 1h2.793l-.646.646a.5.5 0 1 0 .707.708l1.5-1.5a.5.5 0 0 0 0-.708z"/><path fill="#444f5c" fill-rule="evenodd" d="M2 1.5A1.5 1.5 0 0 0 .5 3v10A1.5 1.5 0 0 0 2 14.5h12a1.5 1.5 0 0 0 1.5-1.5V3A1.5 1.5 0 0 0 14 1.5zM1.5 3a.5.5 0 0 1 .5-.5h12a.5.5 0 0 1 .5.5v10a.5.5 0 0 1-.5.5H2a.5.5 0 0 1-.5-.5z" clip-rule="evenodd"/></svg>