<svg xmlns="http://www.w3.org/2000/svg" width="16" height="16" fill="none" viewBox="0 0 16 16"><path fill="#444f5c" fill-rule="evenodd" d="M3 10.26c.43-.287 1.195-.614 2.138-.718a5.28 5.28 0 0 1 3.583.886c1.381.93 2.543 1.172 3.514 1.025.96-.145 1.646-.659 2.1-1.068a.5.5 0 0 0 .165-.371V2.027a.5.5 0 0 0-.851-.355c-.346.34-.865.725-1.58.837-.703.11-1.678-.032-2.964-.897C7.63.621 6.136.408 4.895.552c-1.22.143-2.223.637-2.732 1.1a.5.5 0 0 0-.163.37V14.5a.5.5 0 1 0 1 0zm0-8v6.854a6.4 6.4 0 0 1 2.028-.567 6.28 6.28 0 0 1 4.251 1.05c1.228.826 2.141.967 2.806.866.586-.088 1.046-.373 1.415-.679V3.041a3.6 3.6 0 0 1-1.276.456c-1.006.157-2.231-.083-3.677-1.055-1.256-.844-2.505-1.016-3.535-.896-.904.106-1.62.434-2.012.715" clip-rule="evenodd"/></svg>