<svg xmlns="http://www.w3.org/2000/svg" width="16" height="16" fill="none" viewBox="0 0 16 16"><g clip-path="url(#a)"><path fill="#444f5c" d="M13.866.818a.47.47 0 0 1 .366.015c.111.055.179.151.182.256v7.554c-.002.121-.092.229-.229.277l-1.019.396c-1.742.674-3.805.509-5.349-.427-1.317-.799-2.999-.821-4.485-.246l-.61.246v6.854c0 .17-.326.258-.537.258s-.598-.137-.598-.307V1.049c.018-.107.197-.202.32-.244L2.926.409C4.67-.263 6.733-.095 8.275.844c1.317.804 3.082.948 4.572.372L13.866.82z"/></g><defs><clipPath id="a"><path fill="#fff" d="M0 0h16v16H0z"/></clipPath></defs></svg>