<svg xmlns="http://www.w3.org/2000/svg" width="16" height="16" fill="none" viewBox="0 0 16 16"><path fill="#444f5c" d="M6.5 1.25a.5.5 0 0 0 0 1h4.406a.5.5 0 0 1 .44.26L14 7.379v5.372a.5.5 0 0 0 1 0v-5h.5a.5.5 0 0 0 0-1h-.703l-2.574-4.718a1.5 1.5 0 0 0-1.317-.782z"/><path fill="#444f5c" fill-rule="evenodd" d="M4.65 3.75a1.5 1.5 0 0 0-1.37.89L1.674 8.25H1a.5.5 0 0 0 0 1h.5v5a.5.5 0 0 0 1 0v-1h9v1a.5.5 0 0 0 1 0v-5.5a.5.5 0 0 0-.043-.203L10.72 4.64a1.5 1.5 0 0 0-1.37-.891zm-2.15 6v-.894l1.693-3.81a.5.5 0 0 1 .457-.296h4.7a.5.5 0 0 1 .457.297l1.693 3.81v.893H10a.5.5 0 0 0 0 1h1.5v1.5h-9v-1.5H4a.5.5 0 0 0 0-1z" clip-rule="evenodd"/></svg>