<svg xmlns="http://www.w3.org/2000/svg" width="16" height="16" fill="none" viewBox="0 0 16 16"><path fill="#444f5c" fill-rule="evenodd" d="M8.346.625a.5.5 0 0 0-.64-.018c-.452.355-1.3.906-2.334 1.365-1.037.461-2.226.815-3.372.815a.5.5 0 0 0-.5.5V8.92q0 .028.003.056c.17 1.523 1.719 4.735 6.335 6.491a.5.5 0 0 0 .346.004 13.1 13.1 0 0 0 3.673-2.09c1.263-1.034 2.413-2.447 2.639-4.202l.004-.063v-5.94a.5.5 0 0 0-.539-.5c-.974.077-3.535-.219-5.615-2.051M2.5 8.89V3.768c1.166-.084 2.308-.451 3.278-.882.904-.402 1.681-.87 2.218-1.25C9.953 3.208 12.2 3.65 13.5 3.686v5.397c-.189 1.379-1.113 2.572-2.276 3.525a12.2 12.2 0 0 1-3.204 1.858c-4.128-1.634-5.38-4.454-5.52-5.574M7.076 5.23a1.66 1.66 0 0 0 0 3.321h1.67a.66.66 0 1 1 0 1.322H6.52a.5.5 0 0 0 0 1h.892v.428a.5.5 0 1 0 1 0v-.429h.335a1.66 1.66 0 1 0 0-3.32h-1.67a.66.66 0 1 1 0-1.322h2.228a.5.5 0 0 0 0-1h-.893V4.8a.5.5 0 0 0-1 0v.429z" clip-rule="evenodd"/></svg>