<svg xmlns="http://www.w3.org/2000/svg" width="16" height="16" fill="none" viewBox="0 0 16 16"><path fill="#444f5c" fill-rule="evenodd" d="M2.925 4.021a3.012 3.012 0 1 1 6.024 0 3.012 3.012 0 0 1-6.024 0M5.937 2.01a2.012 2.012 0 1 0 0 4.024 2.012 2.012 0 0 0 0-4.024" clip-rule="evenodd"/><path fill="#444f5c" d="M13.431 3.462a.5.5 0 0 0-1 0v2h-2a.5.5 0 1 0 0 1h2v2a.5.5 0 1 0 1 0v-2h2a.5.5 0 0 0 0-1h-2zM1.069 13.51a4.217 4.217 0 0 1 4.217-4.218h1.252a4.185 4.185 0 0 1 4.185 4.185.5.5 0 1 0 1 0 5.185 5.185 0 0 0-5.185-5.185H5.286A5.217 5.217 0 0 0 .07 13.509a.5.5 0 0 0 1 0"/></svg>