<svg xmlns="http://www.w3.org/2000/svg" width="16" height="16" fill="none" viewBox="0 0 16 16"><g fill="#444f5c" clip-path="url(#a)"><path d="M2.248.307a.5.5 0 0 1 .237.425V6.08a.5.5 0 1 1-1 0V1.541l-.613.307A.5.5 0 0 1 .425.954L1.76.285a.5.5 0 0 1 .487.022m3.248 2.431a.5.5 0 0 1 .5-.5h9.357a.5.5 0 0 1 0 1H5.995a.5.5 0 0 1-.5-.5m0 5.346a.5.5 0 0 1 .5-.5h9.357a.5.5 0 0 1 0 1H5.995a.5.5 0 0 1-.5-.5m.5 4.846a.5.5 0 1 0 0 1h9.357a.5.5 0 0 0 0-1zM3.558 9.814a1.902 1.902 0 0 0-3.103-.172l-.002.004q-.177.226-.274.494a.5.5 0 0 0 .94.343q.043-.12.122-.222a.9.9 0 0 1 1.238-.168l.004.003a.81.81 0 0 1 .167 1.158L.248 14.468a.5.5 0 0 0 .4.8h2.674a.5.5 0 1 0 0-1H1.646l1.796-2.403a1.81 1.81 0 0 0 .116-2.05"/></g><defs><clipPath id="a"><path fill="#fff" d="M0 0h16v16H0z"/></clipPath></defs></svg>