<svg xmlns="http://www.w3.org/2000/svg" width="16" height="16" fill="none" viewBox="0 0 16 16"><g fill="#444f5c" clip-path="url(#a)"><path d="M2.5 9.5A.5.5 0 0 1 3 9h5a.5.5 0 0 1 0 1H3a.5.5 0 0 1-.5-.5M5 7.773a.5.5 0 0 0 0-1H3a.5.5 0 0 0 0 1z"/><path fill-rule="evenodd" d="M6 .5A1.5 1.5 0 0 0 4.5 2v1.5H2A1.5 1.5 0 0 0 .5 5v9A1.5 1.5 0 0 0 2 15.5h8a1.5 1.5 0 0 0 1.5-1.5v-1.5H14a1.5 1.5 0 0 0 1.5-1.5V2A1.5 1.5 0 0 0 14 .5zm5.5 11H14a.5.5 0 0 0 .5-.5V2a.5.5 0 0 0-.5-.5H6a.5.5 0 0 0-.5.5v1.5H10A1.5 1.5 0 0 1 11.5 5zM1.5 5a.5.5 0 0 1 .5-.5h8a.5.5 0 0 1 .5.5v9a.5.5 0 0 1-.5.5H2a.5.5 0 0 1-.5-.5z" clip-rule="evenodd"/></g><defs><clipPath id="a"><path fill="#fff" d="M0 0h16v16H0z"/></clipPath></defs></svg>