<svg xmlns="http://www.w3.org/2000/svg" width="16" height="16" fill="none" viewBox="0 0 16 16"><path fill="#444f5c" fill-rule="evenodd" d="M3.512 3.342a1.5 1.5 0 0 0-1.5 1.5v3.323a1.5 1.5 0 0 0 1.5 1.5h.33a.46.46 0 0 1 .436.605l-.495 1.483a1.447 1.447 0 0 0 2.746.915l1.063-3.19a1.5 1.5 0 0 0 .077-.475v-4.16a1.5 1.5 0 0 0-1.5-1.5zm-.5 1.5a.5.5 0 0 1 .5-.5h2.657a.5.5 0 0 1 .5.5v4.161a.5.5 0 0 1-.025.158l-1.064 3.19a.447.447 0 1 1-.848-.282l.495-1.483a1.46 1.46 0 0 0-1.385-1.92h-.33a.5.5 0 0 1-.5-.5zm7.818-1.5a1.5 1.5 0 0 0-1.5 1.5v3.323a1.5 1.5 0 0 0 1.5 1.5h.332a.46.46 0 0 1 .435.605l-.495 1.483a1.447 1.447 0 0 0 2.746.915l1.063-3.19a1.5 1.5 0 0 0 .077-.475v-4.16a1.5 1.5 0 0 0-1.5-1.5zm-.5 1.5a.5.5 0 0 1 .5-.5h2.658a.5.5 0 0 1 .5.5v4.161a.5.5 0 0 1-.025.158l-1.064 3.19a.447.447 0 1 1-.848-.282l.495-1.483a1.46 1.46 0 0 0-1.384-1.92h-.331a.5.5 0 0 1-.5-.5z" clip-rule="evenodd"/></svg>