<svg xmlns="http://www.w3.org/2000/svg" width="16" height="16" fill="none" viewBox="0 0 16 16"><g clip-path="url(#a)"><path fill="#444f5c" fill-rule="evenodd" d="M5.947.868A1 1 0 0 1 6.937 0h2.125a1 1 0 0 1 .992.868l.21 1.574c.511.208.987.485 1.417.82l1.469-.606a1 1 0 0 1 1.247.424l1.062 1.84a1 1 0 0 1-.256 1.292l-1.258.97a6 6 0 0 1 0 1.636l1.258.97a1 1 0 0 1 .256 1.292l-1.062 1.84a1 1 0 0 1-1.247.424l-1.47-.605c-.429.334-.905.61-1.417.82l-.21 1.573a1 1 0 0 1-.99.868H6.937a1 1 0 0 1-.991-.868l-.21-1.574a6 6 0 0 1-1.418-.82l-1.469.606a1 1 0 0 1-1.247-.424L.54 11.08a1 1 0 0 1 .256-1.292l1.258-.97a6 6 0 0 1 0-1.637L.797 6.212A1 1 0 0 1 .54 4.92l1.062-1.84a1 1 0 0 1 1.247-.424l1.47.605c.429-.334.905-.61 1.417-.82zM9.062 1H6.938l-.29 2.175-.29.101a5 5 0 0 0-1.626.94l-.233.201-2.03-.837-1.062 1.84 1.738 1.339-.057.302a5 5 0 0 0 0 1.878l.057.302-1.738 1.34 1.062 1.839 2.03-.837.233.201c.473.41 1.023.73 1.625.94l.29.101.29 2.175h2.125l.29-2.175.29-.101a5 5 0 0 0 1.626-.94l.233-.201 2.03.837 1.062-1.84-1.738-1.339.057-.302a5 5 0 0 0 0-1.878l-.057-.302 1.738-1.34-1.062-1.839-2.03.837-.233-.201a5 5 0 0 0-1.625-.94l-.29-.101zM8 6a2 2 0 1 0 0 4 2 2 0 0 0 0-4M5 8a3 3 0 1 1 6 0 3 3 0 0 1-6 0" clip-rule="evenodd"/></g><defs><clipPath id="a"><path fill="#fff" d="M0 0h16v16H0z"/></clipPath></defs></svg>