<svg xmlns="http://www.w3.org/2000/svg" width="16" height="16" fill="none" viewBox="0 0 16 16"><path fill="#444f5c" fill-rule="evenodd" d="M14.945 2.448c0-.769-.623-1.392-1.392-1.392A5.86 5.86 0 0 0 9.412 2.77l-.21.21-4.045-.367a.5.5 0 0 0-.4.144l-3.11 3.111a.5.5 0 0 0 .255.844l3.74.748 2.898 2.9.748 3.74a.5.5 0 0 0 .844.256l3.111-3.111a.5.5 0 0 0 .145-.4L13.02 6.8l.21-.21a5.86 5.86 0 0 0 1.715-4.14m-1.392-.392c.216 0 .392.176.392.392a4.86 4.86 0 0 1-1.422 3.434L9 9.405 6.596 7.001l3.523-3.523a4.86 4.86 0 0 1 3.434-1.422M5.725 6.458 8.28 3.902 5.299 3.63 3.014 5.916zm4.36 6.53-.542-2.712L12.1 7.72l.27 2.982z" clip-rule="evenodd"/><path fill="#444f5c" d="M7.483 10.758a.5.5 0 1 0-.865-.502 3.3 3.3 0 0 1-1.914 1.515 4 4 0 0 1-.61.139c.172-1.496.83-2.317 1.478-2.722a.5.5 0 0 0-.53-.848c-1.048.655-1.92 1.96-1.986 4.09a.5.5 0 0 0 .474.515l.026-.5-.026.5h.014l.027.001h.091a5 5 0 0 0 1.341-.221 4.3 4.3 0 0 0 2.48-1.967"/></svg>