<svg xmlns="http://www.w3.org/2000/svg" width="16" height="16" fill="none" viewBox="0 0 16 16"><g clip-path="url(#a)"><path fill="#444f5c" d="M7.958 8.871a4.33 4.33 0 0 1 4.175 3.172.524.524 0 0 1-.412.655l-.092.008-7.341-.003a.522.522 0 0 1-.503-.663 4.33 4.33 0 0 1 4.174-3.168zm4.748-.255a3.4 3.4 0 0 1 3.279 2.491.41.41 0 0 1-.308.511l-.088.009-2.722-.003c-.512-1.016-1.211-1.856-2.029-2.449a3.4 3.4 0 0 1 1.868-.56zm-9.412 0c.666 0 1.295.193 1.826.531-.837.595-1.55 1.446-2.071 2.479H.411a.41.41 0 0 1-.396-.521 3.404 3.404 0 0 1 3.278-2.489zm9.404-4.381a1.644 1.644 0 1 1-.001 3.287 1.644 1.644 0 0 1 .001-3.287m-9.412 0a1.644 1.644 0 1 1-.001 3.287 1.644 1.644 0 0 1 .001-3.287m4.662-.941a2.092 2.092 0 1 1 0 4.184 2.092 2.092 0 0 1 0-4.184"/></g><defs><clipPath id="a"><path fill="#fff" d="M0 0h16v16H0z"/></clipPath></defs></svg>