<svg xmlns="http://www.w3.org/2000/svg" width="16" height="16" fill="none" viewBox="0 0 16 16"><path fill="#444f5c" fill-rule="evenodd" d="M7.776.553a.5.5 0 0 1 .448 0l7 3.5a.5.5 0 0 1 0 .894l-7 3.5a.5.5 0 0 1-.448 0l-7-3.5a.5.5 0 0 1 0-.894zM2.118 4.5 8 7.441 13.882 4.5 8 1.559z" clip-rule="evenodd"/><path fill="#444f5c" fill-rule="evenodd" d="M4.447 5.776a.5.5 0 0 1-.223.671L2.118 7.5 8 10.441 13.882 7.5l-2.106-1.053a.5.5 0 1 1 .448-.894l3 1.5a.5.5 0 0 1 0 .894l-7 3.5a.5.5 0 0 1-.448 0l-7-3.5a.5.5 0 0 1 0-.894l3-1.5a.5.5 0 0 1 .671.223" clip-rule="evenodd"/><path fill="#444f5c" fill-rule="evenodd" d="M4.447 8.776a.5.5 0 0 1-.223.671L2.118 10.5 8 13.441l5.882-2.941-2.106-1.053a.5.5 0 1 1 .448-.894l3 1.5a.5.5 0 0 1 0 .894l-7 3.5a.5.5 0 0 1-.448 0l-7-3.5a.5.5 0 0 1 0-.894l3-1.5a.5.5 0 0 1 .671.223" clip-rule="evenodd"/></svg>