<svg xmlns="http://www.w3.org/2000/svg" width="16" height="16" fill="none" viewBox="0 0 16 16"><path fill="#444f5c" fill-rule="evenodd" d="M8 4.288a7.05 7.05 0 0 0-7.049 7.049.5.5 0 0 0 .5.5h3.71a.5.5 0 0 0 .5-.5 2.339 2.339 0 1 1 4.678 0 .5.5 0 0 0 .5.5h3.71a.5.5 0 0 0 .5-.5A7.05 7.05 0 0 0 8 4.287m-.49 1.02a6.05 6.05 0 0 0-5.538 5.529h2.727A3.34 3.34 0 0 1 7.51 8.034zm1 2.729a3.34 3.34 0 0 1 1.477.616l1.928-1.928A6.05 6.05 0 0 0 8.51 5.31zm4.111-.604-1.928 1.929a3.34 3.34 0 0 1 .609 1.475h2.726a6.05 6.05 0 0 0-1.407-3.404" clip-rule="evenodd"/></svg>