<svg xmlns="http://www.w3.org/2000/svg" width="16" height="16" fill="none" viewBox="0 0 16 16"><g clip-path="url(#a)"><path fill="#444f5c" d="M8.254 1.997v1.296c-1.609 0-3.219.274-4.028.821-.314.213-.719 1.069-1.089 2.118h5.117v6.452H4.103v.666a.643.643 0 0 1-.634.651H1.987a.643.643 0 0 1-.634-.651v-1.658l-.019-.015c-.573-.542-.886-1.308-.883-2.156a3 3 0 0 1 .685-1.917H.66a.426.426 0 0 1-.414-.346L.008 6.073a.44.44 0 0 1 .086-.362c.08-.101.2-.16.328-.16h1.607c.399-1.073.913-2.127 1.5-2.525 1.015-.686 2.87-1.03 4.724-1.03zM3.577 8.404c-.689 0-1.247.573-1.247 1.281s.559 1.282 1.247 1.282 1.247-.574 1.247-1.282-.558-1.281-1.247-1.281"/></g><defs><clipPath id="a"><path fill="#fff" d="M0 0h16v16H0z"/></clipPath></defs></svg>