<svg xmlns="http://www.w3.org/2000/svg" width="16" height="16" fill="none" viewBox="0 0 16 16"><path fill="#444f5c" fill-rule="evenodd" d="M10.586 2.494c-1.433-.152-2.882.091-3.993.637-.637.313-1.054.692-1.243 1.087-.209.433-.246.722-.226.903.028.246.122.33.234.38.158.07.426.094.812.035.76-.117 1.704-.514 2.415-.884a.78.78 0 0 1 .916.146l5.11 5.22a1.563 1.563 0 0 1-1.905 2.444l-1.333.89a.7.7 0 0 1-.692.05.1.1 0 0 0-.108.014l-.917.773a1.3 1.3 0 0 1-.85.311h-.643c-1 .692-2.05.642-3.003.206-2.13-.975-3.29-2.89-3.917-5.04C.617 7.52.5 5.075.5 2.923a.976.976 0 0 1 1.023-.975l4.748.229c1.279-.597 2.87-.842 4.42-.677 1.602.17 3.205.78 4.396 1.944.284.278.413.653.413 1.014v4.425a.5.5 0 0 1-1 0V4.458a.4.4 0 0 0-.113-.299c-.994-.972-2.369-1.513-3.8-1.665m-5.67.619L1.5 2.948c0 2.127.12 4.443.703 6.438.582 1.996 1.606 3.602 3.373 4.41.714.327 1.39.334 2.055-.144a.8.8 0 0 1 .463-.152h.712a.32.32 0 0 0 .205-.075l.917-.773a1.1 1.1 0 0 1 1.017-.216l.996-.666-1.295-1.295a.5.5 0 0 1 .708-.707l1.723 1.723.024.024a.563.563 0 0 0 .796-.798L8.9 5.614c-.73.368-1.714.777-2.58.91-.455.07-.95.075-1.368-.11-.464-.205-.758-.613-.822-1.18-.05-.432.06-.915.318-1.45.117-.245.276-.468.467-.671" clip-rule="evenodd"/></svg>