<svg xmlns="http://www.w3.org/2000/svg" width="16" height="16" fill="none" viewBox="0 0 16 16"><path fill="#444f5c" d="M8 5a1.824 1.824 0 0 0-1.833 1.814.5.5 0 0 1-1 0A2.824 2.824 0 0 1 8 4a2.824 2.824 0 0 1 2.833 2.814c0 .793-.332 1.423-.88 1.841-.408.312-.914.49-1.453.557v1.121a.5.5 0 1 1-1 0v-1.59a.5.5 0 0 1 .5-.5c.567 0 1.034-.144 1.346-.383.297-.226.487-.56.487-1.046C9.833 5.816 9.016 5 8 5m.583 7.08c0 .32-.26.58-.583.58a.58.58 0 0 1-.583-.58c0-.32.26-.58.583-.58s.583.26.583.58"/><path fill="#444f5c" fill-rule="evenodd" d="M15 8A7 7 0 1 1 1 8a7 7 0 0 1 14 0m-1 0A6 6 0 1 1 2 8a6 6 0 0 1 12 0" clip-rule="evenodd"/></svg>