<svg xmlns="http://www.w3.org/2000/svg" width="16" height="16" fill="none" viewBox="0 0 16 16"><path fill="#444f5c" fill-rule="evenodd" d="M7.494 1.022a.775.775 0 0 1 .913-.053c.804.51 2.19 1.495 3.378 2.887 1.188 1.393 2.211 3.23 2.211 5.432 0 1.633-.589 3.207-1.65 4.375-1.064 1.17-2.517 1.837-4.043 1.837s-2.978-.667-4.042-1.837c-1.056-1.162-1.648-2.64-1.75-4.256a6.5 6.5 0 0 1 .369-2.538c.3-.838.808-1.654 1.584-2.141a.74.74 0 0 1 .873.057.81.81 0 0 1 .276.765c-.092.517-.15 1.21.011 1.702.076.23.187.376.33.459.141.082.387.145.82.066.752-.327 1.064-1.22 1.048-2.495-.016-1.239-.349-2.59-.59-3.406a.8.8 0 0 1 .262-.854m.846 1.101c.223.852.467 2.025.482 3.146.017 1.332-.292 2.86-1.685 3.44a1 1 0 0 1-.153.046c-.602.115-1.118.06-1.532-.18-.415-.24-.65-.623-.778-1.01-.17-.52-.172-1.12-.125-1.616-.306.329-.55.763-.728 1.258a5.6 5.6 0 0 0-.312 2.137c.089 1.407.6 2.666 1.492 3.647.885.973 2.074 1.509 3.302 1.509s2.418-.536 3.302-1.51c.886-.974 1.391-2.305 1.391-3.702 0-1.88-.873-3.494-1.972-4.782-.897-1.051-1.924-1.86-2.684-2.383" clip-rule="evenodd"/></svg>