<svg xmlns="http://www.w3.org/2000/svg" width="16" height="16" fill="none" viewBox="0 0 16 16"><path fill="#444f5c" fill-rule="evenodd" d="M9 3.5a1.5 1.5 0 1 0 0 3 1.5 1.5 0 0 0 0-3M8.5 5a.5.5 0 1 1 1 0 .5.5 0 0 1-1 0" clip-rule="evenodd"/><path fill="#444f5c" fill-rule="evenodd" d="M1.719 1.432a1.5 1.5 0 0 0-1.5 1.5v7.708a1.5 1.5 0 0 0 1.5 1.5h.927v.928a1.5 1.5 0 0 0 1.5 1.5H14.28a1.5 1.5 0 0 0 1.5-1.5V5.359a1.5 1.5 0 0 0-1.5-1.5h-.927v-.927a1.5 1.5 0 0 0-1.5-1.5zm-.5 9.208V9.349L3.73 6.553a.5.5 0 0 1 .651-.08l4.236 2.846a1.5 1.5 0 0 0 1.447.125l2.29-1.02v2.217a.5.5 0 0 1-.5.5H1.72a.5.5 0 0 1-.5-.5m8.438-2.109 2.697-1.202V2.932a.5.5 0 0 0-.5-.5H1.72a.5.5 0 0 0-.5.5v4.92l1.768-1.967a1.5 1.5 0 0 1 1.952-.243L9.175 8.49a.5.5 0 0 0 .482.042m3.697-.89v2.999a1.5 1.5 0 0 1-1.5 1.5H3.646v.928a.5.5 0 0 0 .5.5H14.28a.5.5 0 0 0 .5-.5v-7.71a.5.5 0 0 0-.5-.5h-.927z" clip-rule="evenodd"/></svg>