<svg xmlns="http://www.w3.org/2000/svg" width="16" height="16" fill="none" viewBox="0 0 16 16"><path fill="#444f5c" fill-rule="evenodd" d="M1.08 3.34c-.639-.998.078-2.308 1.264-2.308h7.965a1.5 1.5 0 0 1 1.218.624l3.945 5.484a1.5 1.5 0 0 1 .003 1.747l-3.947 5.527a1.5 1.5 0 0 1-1.22.628H2.336a1.5 1.5 0 0 1-1.266-2.305l2.831-4.453a.5.5 0 0 0 0-.538zm1.264-1.308a.5.5 0 0 0-.421.77l2.82 4.405a1.5 1.5 0 0 1 .003 1.613l-2.831 4.454a.5.5 0 0 0 .422.768h7.97a.5.5 0 0 0 .407-.21l3.947-5.526a.5.5 0 0 0 0-.582L10.714 2.24a.5.5 0 0 0-.406-.208z" clip-rule="evenodd"/></svg>