<svg xmlns="http://www.w3.org/2000/svg" width="16" height="16" fill="none" viewBox="0 0 16 16"><g fill="#444f5c" clip-path="url(#a)"><path d="M11.896.076a.5.5 0 1 0 0 1h2.157L11.791 2.96a.5.5 0 0 0 .32.884h3.323a.5.5 0 0 0 0-1h-1.941L15.754.96a.5.5 0 0 0-.32-.884zM8.267 5.194a.5.5 0 0 0 0 1h1.355L8.113 7.45a.5.5 0 0 0 .32.884h2.57a.5.5 0 0 0 0-1H9.814l1.51-1.257a.5.5 0 0 0-.32-.884z"/><path fill-rule="evenodd" d="M4.216 3.5a.5.5 0 0 0-.245.054A6.31 6.31 0 0 0 .5 9.186c0 3.49 2.838 6.314 6.336 6.314a6.34 6.34 0 0 0 5.659-3.47.5.5 0 0 0 .053-.25.5.5 0 0 0-.628-.502 6 6 0 0 1-1.522.197c-3.212 0-5.785-2.943-5.785-6.231q0-.59.112-1.146a.5.5 0 0 0-.51-.598m6.836 8.945q-.322.03-.653.03c-3.852 0-6.785-3.482-6.785-7.231q0-.15.006-.298a5.3 5.3 0 0 0-2.12 4.24c0 2.933 2.388 5.314 5.337 5.314a5.33 5.33 0 0 0 4.215-2.055" clip-rule="evenodd"/></g><defs><clipPath id="a"><path fill="#fff" d="M0 0h16v16H0z"/></clipPath></defs></svg>