<svg xmlns="http://www.w3.org/2000/svg" width="16" height="16" fill="none" viewBox="0 0 16 16"><path fill="#444f5c" d="M13.295 1.648a.5.5 0 1 1 .71.704l-3.963 4.005 2.115-.057a.5.5 0 0 1 .027 1l-3.36.09a.5.5 0 0 1-.51-.447L7.97 3.679a.5.5 0 1 1 .994-.105l.233 2.215z"/><path fill="#444f5c" fill-rule="evenodd" d="M2.89 3.795c.722-.287 1.475.097 1.783.73l1.033 2.13A1.5 1.5 0 0 1 5.482 8.3l-.6.681a.5.5 0 0 0 .036.698l1.956 1.81a.5.5 0 0 0 .646.027l.93-.724a1.5 1.5 0 0 1 1.51-.197l2.305.981c.731.311 1.2 1.258.608 2.024-.77.994-2.086 1.968-3.822 2.134-1.748.168-3.825-.494-6.09-2.585C1.7 11.984.503 10.183.191 8.406.035 7.507.099 6.586.53 5.76c.433-.83 1.207-1.507 2.36-1.965m.883 1.167c-.111-.23-.345-.305-.515-.238-.976.388-1.541.92-1.842 1.498-.304.583-.37 1.269-.24 2.01.264 1.504 1.312 3.12 2.464 4.183 2.116 1.954 3.924 2.458 5.316 2.325 1.405-.135 2.487-.927 3.126-1.752a.24.24 0 0 0 .039-.241.44.44 0 0 0-.248-.25l-2.305-.98a.5.5 0 0 0-.503.065l-.93.724a1.5 1.5 0 0 1-1.94-.083l-1.956-1.809a1.5 1.5 0 0 1-.108-2.092l.6-.682a.5.5 0 0 0 .075-.549z" clip-rule="evenodd"/></svg>