<svg xmlns="http://www.w3.org/2000/svg" width="16" height="16" fill="none" viewBox="0 0 16 16"><path fill="#444f5c" fill-rule="evenodd" d="M11.464 4.302a1.832 1.832 0 1 0 0 3.665 1.832 1.832 0 0 0 0-3.665m-.832 1.833a.832.832 0 1 1 1.664 0 .832.832 0 0 1-1.664 0" clip-rule="evenodd"/><path fill="#444f5c" fill-rule="evenodd" d="M.04 3.67a1.5 1.5 0 0 1 1.5-1.5h12.92a1.5 1.5 0 0 1 1.5 1.5v8.659a1.5 1.5 0 0 1-1.5 1.5H1.54a1.5 1.5 0 0 1-1.5-1.5zm14.92 0v5.05l-3.501 1.313a.5.5 0 0 1-.422-.033L5.484 6.86a1.5 1.5 0 0 0-1.763.21L1.039 9.58V3.67a.5.5 0 0 1 .5-.5h12.922a.5.5 0 0 1 .5.5M1.04 12.33v-1.38L4.403 7.8a.5.5 0 0 1 .588-.07l5.553 3.14a1.5 1.5 0 0 0 1.265.098l3.15-1.182v2.542a.5.5 0 0 1-.5.5H1.54a.5.5 0 0 1-.5-.5" clip-rule="evenodd"/></svg>