<svg xmlns="http://www.w3.org/2000/svg" width="24" height="24" fill="none" viewBox="0 0 24 24"><path fill="#444f5c" d="M14.684 21.616v1.5H9.772v-1.5zM6.103 5.358v1.5H3.45a.25.25 0 0 0-.243.192l-.007.057v11.671a.25.25 0 0 0 .192.243l.057.007h17.1a.25.25 0 0 0 .243-.192l.007-.057V7.108a.25.25 0 0 0-.192-.243l-.057-.007h-2.393v-1.5h2.393a1.75 1.75 0 0 1 1.744 1.606l.006.143v11.671a1.75 1.75 0 0 1-1.606 1.744l-.143.006h-17.1a1.75 1.75 0 0 1-1.744-1.606l-.006-.143V7.108a1.75 1.75 0 0 1 1.606-1.744l.143-.006zM12 .884a1.97 1.97 0 0 1 1.681.949l5.148 8.594a1.97 1.97 0 0 1 .005 1.955 1.97 1.97 0 0 1-1.693.991H6.849a1.97 1.97 0 0 1-1.685-.991 1.97 1.97 0 0 1 .011-1.965l5.144-8.587a1.97 1.97 0 0 1 1.68-.946zm0 1.5a.47.47 0 0 0-.395.22l-5.136 8.574a.46.46 0 0 0-.001.462.46.46 0 0 0 .39.234h10.276a.466.466 0 0 0 .403-.686l-5.14-8.58A.47.47 0 0 0 12 2.384m.75 2.527v3.241h-1.5V4.911z"/></svg>