<svg xmlns="http://www.w3.org/2000/svg" width="16" height="16" fill="none" viewBox="0 0 16 16"><g fill="#444f5c" fill-rule="evenodd" clip-path="url(#a)" clip-rule="evenodd"><path d="M4.978 7.534a1.5 1.5 0 0 0-1.5 1.5v2.478a1.5 1.5 0 0 0 1.5 1.5h2.053a1.5 1.5 0 0 0 1.5-1.5V9.034a1.5 1.5 0 0 0-1.5-1.5zm-.5 1.5a.5.5 0 0 1 .5-.5h2.053a.5.5 0 0 1 .5.5v2.478a.5.5 0 0 1-.5.5H4.978a.5.5 0 0 1-.5-.5z"/><path d="M-.014 2.601a1.5 1.5 0 0 1 1.5-1.5h13.028a1.5 1.5 0 0 1 1.5 1.5v1.407a1.5 1.5 0 0 1-1.025 1.423v8.019a1.5 1.5 0 0 1-1.5 1.5H2.51a1.5 1.5 0 0 1-1.5-1.5V5.43A1.5 1.5 0 0 1-.014 4.008zm1.5-.5a.5.5 0 0 0-.5.5v1.407a.5.5 0 0 0 .5.5H6V2.101zm7.515 2.407H6.999V2.101h2.002zm1 0h4.513a.5.5 0 0 0 .5-.5V2.601a.5.5 0 0 0-.5-.5h-4.513zM2.01 5.524v7.926a.5.5 0 0 0 .5.5h10.98a.5.5 0 0 0 .5-.5V5.524z"/></g><defs><clipPath id="a"><path fill="#fff" d="M0 0h16v16H0z"/></clipPath></defs></svg>