<svg xmlns="http://www.w3.org/2000/svg" width="16" height="16" fill="none" viewBox="0 0 16 16"><path fill="#444f5c" d="M15.076 3c.51 0 .924.392.924.872v8.033c0 .483-.414.872-.924.872H.924c-.51 0-.924-.391-.924-.872V3.872C0 3.392.414 3 .924 3zm0 .8H.924C.85 3.8.8 3.843.8 3.872v8.033c0 .03.05.072.124.072h14.152c.075 0 .124-.043.124-.072V3.872c0-.026-.046-.072-.124-.072m-3.507 5.81a.402.402 0 0 1 0 .803H4.43a.402.402 0 0 1 0-.804zm-7.66-2.221a.5.5 0 1 1-.001 1 .5.5 0 0 1 0-1m2.043 0a.5.5 0 1 1 0 1 .5.5 0 0 1 0-1m2.048 0a.5.5 0 1 1 0 1 .5.5 0 0 1 0-1m2.044 0a.5.5 0 1 1 0 1 .5.5 0 0 1 0-1m2.047 0 .059.003a.5.5 0 0 1-.059.996l-.058-.003a.5.5 0 0 1 .058-.996m-9.208-2.12a.5.5 0 1 1 0 1 .5.5 0 0 1 0-1m2.047 0a.5.5 0 1 1 0 1 .5.5 0 0 1 0-1m2.044 0a.5.5 0 1 1 0 1 .5.5 0 0 1 0-1m2.048 0a.5.5 0 1 1 0 1 .5.5 0 0 1 0-1m2.047 0a.5.5 0 1 1 0 1 .5.5 0 0 1 0-1m2.047 0a.5.5 0 1 1 0 1 .5.5 0 0 1 0-1"/></svg>