<svg xmlns="http://www.w3.org/2000/svg" width="24" height="24" fill="none" viewBox="0 0 24 24"><path fill="#444f5c" d="M12.203 4.676c3.402 0 6.164 2.719 6.164 6.079 0 .875-.192 1.74-.561 2.535l-2.173 4.671a3.05 3.05 0 0 0-.285 1.287v1.311c0 1.821-1.495 3.292-3.332 3.292s-3.332-1.471-3.332-3.292v-1.305c0-.447-.099-.889-.289-1.295l-2.188-4.661a6 6 0 0 1-.57-2.551c0-3.356 2.759-6.071 6.156-6.071zm1.645 14.692h-3.665v1.19c0 .937.738 1.711 1.682 1.786l.151.006c1.015 0 1.832-.805 1.832-1.792zM12.203 6.176h-.411c-2.574 0-4.656 2.049-4.656 4.571 0 .661.146 1.313.428 1.913l2.188 4.661q.125.268.215.547h1.284v-1.163l-1.083-1.065a.75.75 0 0 1 .968-1.141l.085.072.78.768.782-.769a.75.75 0 0 1 1.126.985l-.073.084-1.085 1.067v1.162l1.311.001a5 5 0 0 1 .099-.28l.112-.261 2.173-4.671a4.5 4.5 0 0 0 .421-1.902c0-2.526-2.086-4.579-4.664-4.579m-7.18 6.376a.75.75 0 0 1-.196.966l-.085.056-1.957 1.112a.75.75 0 0 1-.827-1.248l.085-.056L4 12.27a.75.75 0 0 1 1.023.282m14.885-.326.092.044 1.957 1.112a.751.751 0 0 1-.649 1.349l-.092-.044-1.957-1.112a.751.751 0 0 1 .649-1.349m1.612-6.819a.75.75 0 0 1-.196.966l-.085.056-1.957 1.112a.75.75 0 0 1-.827-1.248l.085-.056 1.957-1.112a.75.75 0 0 1 1.023.282M3.409 5.081l.092.044 1.957 1.112a.751.751 0 0 1-.649 1.349l-.092-.044L2.76 6.43a.751.751 0 0 1 .649-1.349M12.163.15a.75.75 0 0 1 .743.648l.007.102v2.224a.75.75 0 0 1-1.493.102l-.007-.102V.9a.75.75 0 0 1 .75-.75"/></svg>