<svg xmlns="http://www.w3.org/2000/svg" width="16" height="16" fill="none" viewBox="0 0 16 16"><g fill="#444f5c" clip-path="url(#a)"><path d="M13.203 3.643a.8.8 0 1 1-1.546.414.8.8 0 0 1 1.546-.414"/><path fill-rule="evenodd" d="M14.001.803a1.5 1.5 0 0 1 1.5 1.5l-.003 5.182a1.5 1.5 0 0 1-.44 1.06l-6.376 6.37a1.5 1.5 0 0 1-2.121-.001L1.348 9.696a1.5 1.5 0 0 1-.011-2.11L7.54 1.251A1.5 1.5 0 0 1 8.612.8zm.5 1.5a.5.5 0 0 0-.5-.5L8.61 1.8a.5.5 0 0 0-.357.15L2.051 8.286a.5.5 0 0 0 .004.703l5.213 5.218a.5.5 0 0 0 .707 0l6.376-6.37a.5.5 0 0 0 .147-.353z" clip-rule="evenodd"/></g><defs><clipPath id="a"><path fill="#fff" d="M0 0h16v16H0z"/></clipPath></defs></svg>