<svg xmlns="http://www.w3.org/2000/svg" width="24" height="24" fill="none" viewBox="0 0 24 24"><path fill="#444f5c" d="M19.921 10.581a1.652 1.652 0 0 1 1.232 2.752l-2.81 3.144a.3.3 0 0 0-.073.224l.475 4.696a1.65 1.65 0 0 1-2.309 1.677l-4.319-1.903a.3.3 0 0 0-.235 0l-4.319 1.903a1.65 1.65 0 0 1-2.309-1.677l.475-4.696a.3.3 0 0 0-.073-.224l-2.81-3.144a1.652 1.652 0 0 1 1.231-2.752zm0 1.36H4.08a.292.292 0 0 0-.217.486l2.81 3.144c.309.346.458.805.412 1.267l-.475 4.696a.291.291 0 0 0 .407.296l4.319-1.903a1.65 1.65 0 0 1 1.332 0l4.319 1.903q.07.03.147.023a.29.29 0 0 0 .261-.319l-.475-4.696a1.65 1.65 0 0 1 .412-1.267l2.81-3.144a.29.29 0 0 0-.217-.485zM12.003.785a3.672 3.672 0 1 1 0 7.344 3.672 3.672 0 0 1 0-7.344m0 1.36a2.312 2.312 0 1 0 0 4.624 2.312 2.312 0 0 0 0-4.624"/></svg>