<svg xmlns="http://www.w3.org/2000/svg" width="16" height="16" fill="none" viewBox="0 0 16 16"><path fill="#444f5c" fill-rule="evenodd" d="M2.771 3.377a.5.5 0 0 0-.5.5v8.414a.5.5 0 0 0 .5.5h3.755a.5.5 0 0 0 .5-.5V3.877a.5.5 0 0 0-.5-.5zm.5 8.414V4.377h2.755v7.414z" clip-rule="evenodd"/><path fill="#444f5c" fill-rule="evenodd" d="M1.57 1.216a1.5 1.5 0 0 0-1.5 1.5v10.587a1.5 1.5 0 0 0 1.5 1.5h12.86a1.5 1.5 0 0 0 1.5-1.5V2.716a1.5 1.5 0 0 0-1.5-1.5zm-.5 1.5a.5.5 0 0 1 .5-.5h12.86a.5.5 0 0 1 .5.5v10.587a.5.5 0 0 1-.5.5H1.57a.5.5 0 0 1-.5-.5z" clip-rule="evenodd"/></svg>