<svg xmlns="http://www.w3.org/2000/svg" width="16" height="16" fill="none" viewBox="0 0 16 16"><path fill="#444f5c" fill-rule="evenodd" d="M8 16A8 8 0 1 0 8 0a8 8 0 0 0 0 16M3.696 6.39l2.458 2.453a.85.85 0 0 1-.112.96.81.81 0 0 1-1.14 0L2.735 7.638a.806.806 0 0 1 0-1.137.81.81 0 0 1 .96-.111m6.078-.356a.784.784 0 0 1-.961.134L6.355 3.693c-.179-.312-.157-.691.111-.959a.81.81 0 0 1 1.14 0l2.168 2.163a.806.806 0 0 1 0 1.137M8.5 6.48l-.47.468 4.47 4.46-1.095 1.092-4.47-4.46-.469.469-2.458-2.453 2.034-2.029z" clip-rule="evenodd"/></svg>