<svg xmlns="http://www.w3.org/2000/svg" width="16" height="16" fill="none" viewBox="0 0 16 16"><path fill="#444f5c" fill-rule="evenodd" d="M2.5 6.5a5.5 5.5 0 1 1 8.475 4.627c-.424.273-.74.747-.74 1.306 0 .258-.21.467-.468.467H8.5V9.36l2.158-2.158a.5.5 0 1 0-.707-.707L8 8.445l-1.95-1.95a.5.5 0 0 0-.708.707L7.5 9.359V12.9H6.233a.467.467 0 0 1-.467-.467c0-.559-.317-1.033-.741-1.306A5.5 5.5 0 0 1 2.5 6.5M8 0a6.5 6.5 0 0 0-3.517 11.967c.186.12.283.3.283.466 0 .81.656 1.467 1.467 1.467h3.534c.81 0 1.467-.657 1.467-1.467 0-.167.097-.346.283-.466A6.5 6.5 0 0 0 8 0M5.12 14.988a.5.5 0 0 0 0 1h5.759a.5.5 0 1 0 0-1z" clip-rule="evenodd"/></svg>