<svg xmlns="http://www.w3.org/2000/svg" width="16" height="16" fill="none" viewBox="0 0 16 16"><path fill="#444f5c" d="M13 13.5a.5.5 0 0 1-.363-.156l-1.99-1.986a.5.5 0 0 1 .706-.708l1.147 1.144V4.207l-1.146 1.147a.5.5 0 1 1-.707-.708l2-2a.5.5 0 0 1 .71.003l1.997 1.997a.5.5 0 1 1-.707.708L13.5 4.207v7.588l1.147-1.145a.5.5 0 0 1 .706.708l-1.993 1.99a.5.5 0 0 1-.36.152M1 2.5a.5.5 0 0 0 0 1h7a.5.5 0 1 0 0-1zM.5 8a.5.5 0 0 1 .5-.5h7a.5.5 0 0 1 0 1H1A.5.5 0 0 1 .5 8m.5 4.5a.5.5 0 0 0 0 1h7a.5.5 0 0 0 0-1z"/></svg>