<svg xmlns="http://www.w3.org/2000/svg" width="16" height="16" fill="none" viewBox="0 0 16 16"><path fill="#444f5c" fill-rule="evenodd" d="M1 1.5A1.5 1.5 0 0 1 2.5 0h11A1.5 1.5 0 0 1 15 1.5v13a1.5 1.5 0 0 1-1.5 1.5h-11A1.5 1.5 0 0 1 1 14.5zM2.5 1a.5.5 0 0 0-.5.5v13a.5.5 0 0 0 .5.5h11a.5.5 0 0 0 .5-.5v-13a.5.5 0 0 0-.5-.5z" clip-rule="evenodd"/><path fill="#444f5c" fill-rule="evenodd" d="M4 3.5a.5.5 0 0 1 .5-.5h1a.5.5 0 0 1 0 1h-1a.5.5 0 0 1-.5-.5m3 0a.5.5 0 0 1 .5-.5h4a.5.5 0 0 1 0 1h-4a.5.5 0 0 1-.5-.5m-3 3a.5.5 0 0 1 .5-.5h1a.5.5 0 0 1 0 1h-1a.5.5 0 0 1-.5-.5m3 0a.5.5 0 0 1 .5-.5h4a.5.5 0 0 1 0 1h-4a.5.5 0 0 1-.5-.5m-3 3a.5.5 0 0 1 .5-.5h1a.5.5 0 0 1 0 1h-1a.5.5 0 0 1-.5-.5m3 0a.5.5 0 0 1 .5-.5h4a.5.5 0 0 1 0 1h-4a.5.5 0 0 1-.5-.5m-3 3a.5.5 0 0 1 .5-.5h1a.5.5 0 0 1 0 1h-1a.5.5 0 0 1-.5-.5m3 0a.5.5 0 0 1 .5-.5h2a.5.5 0 0 1 0 1h-2a.5.5 0 0 1-.5-.5" clip-rule="evenodd"/></svg>