<svg xmlns="http://www.w3.org/2000/svg" width="16" height="16" fill="none" viewBox="0 0 16 16"><path fill="#444f5c" d="M9.686 5.206a1.042 1.042 0 1 0-2.084 0v3.537a1.042 1.042 0 1 0 2.084 0z"/><path fill="#444f5c" d="m2.032 6.813 1.152-3.109c.412-.737.987-1.2 1.673-1.418h6.281c.713.218 1.289.682 1.673 1.418l1.152 3.109.156-.067c.098-.043.204-.089.309-.124.795-.245 1.481-.163 1.563.218.083.355-.466.845-1.234 1.091.137.191.247.382.384.627 0 .968.007 1.65.014 2.333.007.682.014 1.365.014 2.333a.49.49 0 0 1-.493.491h-2.441a.485.485 0 0 1-.466-.491v-.412H4.254v.412a.49.49 0 0 1-.493.491H1.32a.485.485 0 0 1-.466-.491c0-.968.007-1.651.014-2.333s.014-1.365.014-2.333c.076-.17.166-.315.25-.451q.056-.09.107-.176C.498 7.686-.05 7.194.005 6.84c.082-.382.768-.463 1.563-.218.104.034.207.08.304.122q.086.039.161.068zm2.962-3.409c-.439.082-.713.355-.878.737l-.248.689a66 66 0 0 0-.684 1.956 38 38 0 0 1 9.654 0l-.248-.689a66 66 0 0 1-.684-1.956c-.192-.382-.439-.655-.905-.737zm-1.432 5.78a.914.914 0 0 0-.972.97.915.915 0 0 0 .972.97l.219.003c.562.012 1.241.027 1.241-.487 0-.583-.876-1.455-1.46-1.455zm9.581.266a.92.92 0 0 0-.704-.266c-.584 0-1.46.873-1.46 1.455 0 .513.679.499 1.241.487l.219-.003a.914.914 0 0 0 .972-.97.92.92 0 0 0-.268-.703"/></svg>