<svg xmlns="http://www.w3.org/2000/svg" width="32" height="32" fill="none" viewBox="0 0 32 32"><g fill="#444f5c" clip-path="url(#a)"><path d="M9.171 6.593a.583.583 0 0 0 .418.998A.58.58 0 0 0 10 7.42l.001-.001a.58.58 0 0 0 .17-.415.58.58 0 0 0-.173-.413.58.58 0 0 0-.827.001m1.657 1.657a1.74 1.74 0 0 1-1.236.513 1.74 1.74 0 0 1-1.244-.513 1.75 1.75 0 0 1-.518-1.24c-.002-.47.18-.912.51-1.244l.003-.002c.331-.331.77-.513 1.237-.514.47-.001.912.181 1.244.512s.517.772.518 1.241c.001.468-.18.91-.51 1.242l-.003.004zm3.121-2.433.006 2.364a.591.591 0 1 1-1.183.003l-.006-2.364a.591.591 0 1 1 1.183-.003"/><path d="m24.304 7.582-8.08.015-.003-1.182L24.3 6.4l.837.588zm-9.254 2.597a.98.98 0 0 1-.286.695l-.001.001a.97.97 0 0 1-.692.288l-7.32-.031a.984.984 0 0 1-.984-.979L5.752 3.84a.98.98 0 0 1 .979-.984l7.319.03a.98.98 0 0 1 .984.981zm9.778-4.853a.6.6 0 0 0-.341-.108l-8.267.015-.004-1.37a2.166 2.166 0 0 0-2.17-2.158l-7.319-.031a2.167 2.167 0 0 0-2.159 2.17l.016 6.312a2.167 2.167 0 0 0 2.169 2.158l7.32.031a2.15 2.15 0 0 0 1.525-.634l.003-.003c.408-.411.632-.955.631-1.532l-.004-1.397 8.267-.015a.6.6 0 0 0 .341-.109l1.666-1.187a.6.6 0 0 0 .248-.482.59.59 0 0 0-.251-.481l-1.672-1.177zM14.059 18.436a.546.546 0 1 1 1.092 0v2.026a.545.545 0 1 1-1.092 0z"/><path d="M1.85 20.24q-.755.349-.755.779v2.444c0 1.779 1.4 3.222 3.126 3.222h2.087c.972 4.263 5.374 2.399 5.168 0h9.502c.467 3.807 5.011 2.958 5.011 0h4.307a.6.6 0 0 0 .223-.043.636.636 0 0 0 .346-.816l-1.381-3.635a1.78 1.78 0 0 0-1.321-1.123l-5.021-.676a2.8 2.8 0 0 1-1.043-.431l-2.9-1.96a7.4 7.4 0 0 0-4.119-1.279l-4.919-.026a5.13 5.13 0 0 0-3.688 1.55l-1.466 1.493a1.66 1.66 0 0 1-1.187.502H1.847zm21.906 10.07c-1.665.148-3.091-.814-3.652-2.533h-7.675c-.392 1.232-1.533 2.214-2.887 2.478-1.747.34-3.306-.572-4.042-2.478H4.22c-2.337 0-4.218-1.94-4.218-4.314v-2.444c0-.82.541-1.378 1.389-1.769l.218-.101h2.213c.15 0 .296-.062.408-.175l1.466-1.493a6.23 6.23 0 0 1 4.473-1.877l4.919.026a8.5 8.5 0 0 1 4.725 1.467l2.9 1.96c.193.131.409.22.577.253l5.078.686a2.87 2.87 0 0 1 2.138 1.808l1.381 3.635a1.73 1.73 0 0 1-.958 2.216 1.7 1.7 0 0 1-.631.123h-3.376c-.431 1.409-1.681 2.401-3.165 2.533z"/><path d="M23.484 29.227c1.384 0 2.506-1.156 2.506-2.583s-1.122-2.583-2.506-2.583-2.506 1.156-2.506 2.583 1.122 2.583 2.506 2.583m0 .989c-1.937 0-3.495-1.606-3.495-3.572s1.558-3.572 3.495-3.572 3.495 1.606 3.495 3.572-1.558 3.572-3.495 3.572m-14.562-.99c1.384 0 2.506-1.155 2.506-2.582s-1.122-2.583-2.506-2.583-2.506 1.156-2.506 2.583 1.122 2.583 2.506 2.583m0 .99c-1.937 0-3.495-1.606-3.495-3.572s1.558-3.572 3.495-3.572 3.495 1.606 3.495 3.572-1.558 3.572-3.495 3.572M.546 23.464a.546.546 0 1 1 0-1.092h2.546a.545.545 0 1 1 0 1.092zm26.939 0a.546.546 0 1 1 0-1.092h2.546a.545.545 0 1 1 0 1.092zM6.371 21.28a.546.546 0 1 1 0-1.092h17.108a.545.545 0 1 1 0 1.092z"/><path d="M8.213 20.68a.546.546 0 0 1-.772-.772l2.376-2.376a.546.546 0 0 1 .772.772z"/></g><defs><clipPath id="a"><path fill="#fff" d="M0 0h32v32H0z"/></clipPath></defs></svg>