<svg xmlns="http://www.w3.org/2000/svg" width="16" height="16" fill="none" viewBox="0 0 16 16"><g fill="#444f5c" clip-path="url(#a)"><path d="M4 .667A3.333 3.333 0 0 0 .667 4v8A3.333 3.333 0 0 0 4 15.333h8A3.333 3.333 0 0 0 15.333 12V4A3.333 3.333 0 0 0 12 .667zM4 0h8a4 4 0 0 1 4 4v8a4 4 0 0 1-4 4H4a4 4 0 0 1-4-4V4a4 4 0 0 1 4-4"/><path d="M10.5 6.667h-.417v-.762C10.083 4.854 9.15 4 8 4s-2.083.853-2.083 1.905v.762H5.5c-.458 0-.833.343-.833.762v3.81c0 .419.375.762.833.762h5c.458 0 .833-.343.833-.762v-3.81c0-.419-.375-.762-.833-.762M8 10.095c-.458 0-.833-.343-.833-.762s.375-.762.833-.762.833.343.833.762-.375.762-.833.762M6.709 6.667v-.762c0-.651.579-1.181 1.292-1.181s1.292.53 1.292 1.181v.762z"/></g><defs><clipPath id="a"><path fill="#fff" d="M0 0h16v16H0z"/></clipPath></defs></svg>