<svg xmlns="http://www.w3.org/2000/svg" width="16" height="16" fill="none" viewBox="0 0 16 16"><path fill="#444f5c" d="M8.5 4.5a.5.5 0 0 0-1 0v1a.5.5 0 0 0 1 0z"/><path fill="#444f5c" fill-rule="evenodd" d="M8 .098a.5.5 0 0 1 .414.22l4.383 6.47a5.795 5.795 0 1 1-9.594 0L7.586.319A.5.5 0 0 1 8 .098M8 1.49 4.03 7.35a4.78 4.78 0 0 0-.67 3.899c.344-.2.744-.39 1.212-.503.737-.18 1.603-.164 2.64.22 1.135.419 2.442.654 3.525.618.542-.018 1.003-.103 1.351-.248.347-.143.549-.33.646-.54a4.78 4.78 0 0 0-.764-3.447zM5.34 14.028A4.8 4.8 0 0 1 3.72 12.2a3.7 3.7 0 0 1 1.088-.483c.531-.129 1.195-.132 2.057.186 1.238.458 2.673.721 3.905.68a5.3 5.3 0 0 0 1.426-.223 4.795 4.795 0 0 1-6.855 1.667" clip-rule="evenodd"/></svg>