<svg xmlns="http://www.w3.org/2000/svg" width="16" height="16" fill="none" viewBox="0 0 16 16"><path fill="#444f5c" fill-rule="evenodd" d="M3 2.5A1.5 1.5 0 0 0 1.5 4v7A1.5 1.5 0 0 0 3 12.5h2.5a.5.5 0 0 0 0-1H3a.5.5 0 0 1-.5-.5V4.093l5.232 3.329a.5.5 0 0 0 .536 0l5.232-3.33V6a.5.5 0 0 0 1 0V4A1.5 1.5 0 0 0 13 2.5zm.431 1L8 6.407 12.569 3.5z" clip-rule="evenodd"/><path fill="#444f5c" fill-rule="evenodd" d="M8.5 11.5A1.5 1.5 0 0 1 10 10v-.5A1.5 1.5 0 0 1 11.5 8h1A1.5 1.5 0 0 1 14 9.5v.5a1.5 1.5 0 0 1 1.5 1.5V14a1.5 1.5 0 0 1-1.5 1.5h-4A1.5 1.5 0 0 1 8.5 14zM13 10v-.5a.5.5 0 0 0-.5-.5h-1a.5.5 0 0 0-.5.5v.5zm1 1a.5.5 0 0 1 .5.5V14a.5.5 0 0 1-.5.5h-4a.5.5 0 0 1-.5-.5v-2.5a.5.5 0 0 1 .5-.5z" clip-rule="evenodd"/></svg>