<svg xmlns="http://www.w3.org/2000/svg" width="16" height="16" fill="none" viewBox="0 0 16 16"><path fill="#444f5c" d="M4.606 1.265a.5.5 0 1 0-.625.781l1.56 1.247h-.713a4.775 4.775 0 1 0 0 9.55h2.138a.5.5 0 1 0 0-1H4.828a3.775 3.775 0 1 1 0-7.55h.93L3.94 6.112a.5.5 0 0 0 .707.707L7.32 4.147a.5.5 0 0 0-.041-.744zm3.997 2.528a.5.5 0 0 1 .5-.5h5.344a.5.5 0 0 1 0 1H9.103a.5.5 0 0 1-.5-.5m0 4.276a.5.5 0 0 1 .5-.5h5.344a.5.5 0 0 1 0 1H9.103a.5.5 0 0 1-.5-.5m.5 3.775a.5.5 0 0 0 0 1h5.344a.5.5 0 1 0 0-1z"/></svg>