<svg xmlns="http://www.w3.org/2000/svg" width="16" height="16" fill="none" viewBox="0 0 16 16"><g clip-path="url(#a)"><path fill="#444f5c" d="M12.276 15.02a2.34 2.34 0 0 0 2.25-1.697l1.429-5.002A1.17 1.17 0 0 0 14.83 6.83h-4.299a1.17 1.17 0 0 1-1.17-1.17V2.15A1.17 1.17 0 0 0 8.191.98h-.378c-.478 0-.909.291-1.086.736L5.016 5.994a4.7 4.7 0 0 0-.335 1.738v6.119c0 .646.524 1.17 1.17 1.17zm-10.287 0a.936.936 0 0 0 .936-.936V7.766a.936.936 0 0 0-.936-.936H.936A.936.936 0 0 0 0 7.766v6.318c0 .517.419.936.936.936z"/></g><defs><clipPath id="a"><path fill="#fff" d="M0 0h16v16H0z"/></clipPath></defs></svg>