<svg xmlns="http://www.w3.org/2000/svg" width="16" height="16" fill="none" viewBox="0 0 16 16"><path fill="#444f5c" d="m15.458 7.193-.053-.085-.052-.084-.053-.084-.052-.085a.4.4 0 0 1-.007-.102 1 1 0 0 1 .017-.093l.024-.09a.4.4 0 0 0-.036-.29.6.6 0 0 0-.13-.16.7.7 0 0 0-.392-.162q-.002-.024-.023-.053a.4.4 0 0 0-.052-.053q-.031-.027-.062-.049l-.05-.036q-.01 0-.016-.008l-.009-.02-.004-.025-.003-.02a.3.3 0 0 0-.1-.12c-.05-.04-.112-.08-.177-.117s-.133-.073-.193-.105a2 2 0 0 1-.149-.088l-.175-.16-.175-.159-.176-.16-.175-.159-.11-.076-.11-.076-.109-.076-.11-.075a.4.4 0 0 1-.051-.059l-.045-.06q-.022-.03-.048-.06l-.059-.058a1 1 0 0 0-.133-.09q-.072-.04-.143-.084a1 1 0 0 1-.137-.092.6.6 0 0 1-.114-.111q-.041-.058-.029-.1a.1.1 0 0 1 .06-.062.2.2 0 0 1 .11-.006q.061.012.114.061l.117.108.116.107.116.108.117.108v.014c.046 0 .1.022.156.055s.115.079.174.128q.09.076.169.148c.052.046.101.088.14.114l.088.042.088.043.087.043.087.042.149.105.149.105.149.104.149.104c.037.03.07.07.104.11q.05.063.103.124t.117.104a.3.3 0 0 0 .148.055l.023-.006.023-.007.023-.006.022-.007a.1.1 0 0 0 .026-.069.2.2 0 0 0-.012-.076q-.014-.038-.03-.074l-.03-.064a.6.6 0 0 0-.152-.2 1.4 1.4 0 0 0-.231-.163 4 4 0 0 0-.256-.135 5 5 0 0 1-.231-.117l-.105-.093-.105-.094-.105-.094-.105-.094a4 4 0 0 0-.25-.173q-.132-.083-.265-.17a3 3 0 0 1-.253-.185 1.4 1.4 0 0 1-.214-.218l-.004-.004-.004-.004-.005-.003-.004-.004.026-.024.025-.024.026-.024.025-.024a.2.2 0 0 1 .053.008l.052.016.054.017q.029.007.062.007c0 .01.046.042.116.085s.165.097.264.154c.098.057.198.118.28.173a.7.7 0 0 1 .171.14q.05.001.096.02.046.02.093.046.045.028.092.053a.5.5 0 0 0 .093.04v-.015l.011.001h.005v-.004l-.003-.01a.6.6 0 0 0-.143-.243 3 3 0 0 0-.29-.283 6 6 0 0 0-.59-.441.2.2 0 0 0-.062-.024l-.065-.012a.4.4 0 0 1-.064-.017.13.13 0 0 1-.055-.038h-.037l-.018-.001-.019-.001c-.082-.01-.126-.039-.148-.078s-.021-.089-.016-.143c.004-.054.013-.11.009-.164a.2.2 0 0 0-.07-.142 4 4 0 0 0-.547-.373 7 7 0 0 0-1.363-.607 5 5 0 0 0-.66-.166.3.3 0 0 1-.063-.02l-.06-.03a.3.3 0 0 0-.064-.023q-.032-.007-.069-.004-.014 0-.023.014a.1.1 0 0 0-.009.037l-.003.041v.034l.049.014.113.033.14.042.122.037q0 .009.014.012.012.004.034.006l.037.004q.018.001.03.006.109.04.21.104.101.063.197.142.095.078.184.162l.175.164q0 .008.014.008.013-.001.033-.007l.037-.013.028-.01a.52.52 0 0 1 .406.01q.091.038.177.09l.167.095.077.034q.044.018.087.04a.3.3 0 0 1 .076.052q.031.029.043.07a.1.1 0 0 1 0 .056.2.2 0 0 1-.025.05l-.038.045-.04.039a.4.4 0 0 1-.183.107.23.23 0 0 1-.152-.023 1 1 0 0 1-.147-.098q-.075-.061-.168-.12l-.004-.003-.004-.004-.004-.003-.003-.004a.5.5 0 0 1-.168-.047 1 1 0 0 1-.157-.098l-.15-.11a.7.7 0 0 0-.152-.084.2.2 0 0 0-.059-.015l-.06-.007a.4.4 0 0 1-.059-.01.2.2 0 0 1-.052-.021l-.058-.046-.057-.045-.057-.046-.058-.045-.1-.026q-.051-.015-.102-.026-.05-.015-.1-.026l-.102-.026a3 3 0 0 1-.223-.093 6 6 0 0 1-.216-.106q-.107-.055-.215-.108a4 4 0 0 0-.218-.101 9 9 0 0 0-.664-.268 3 3 0 0 0-.254-.08c-.063-.002-.166-.017-.3-.033A4 4 0 0 0 7.28 1a3 3 0 0 0-.611.055c-.22.043-.452.115-.689.23-.022.006.093.045.276.107.182.06.43.143.672.235.241.091.477.192.633.29s.232.19.158.268a.8.8 0 0 1-.315-.012 3 3 0 0 1-.407-.114c-.143-.049-.286-.103-.418-.153s-.253-.097-.349-.128a.6.6 0 0 1-.258-.017c-.09-.022-.18-.058-.265-.091a2 2 0 0 0-.236-.08c-.07-.017-.131-.017-.177.014a2.6 2.6 0 0 0-.464.044 1 1 0 0 0-.187.06q-.076.037-.087.09a.13.13 0 0 0 .056.085q.046.034.13.053.08.02.199.03.116.01.268.015l.03.01.029.01.029.01.029.01q.088.008.184.01c.062.003.127.007.186.017q.091.013.161.054a.25.25 0 0 1 .105.122c-.002 0-.065.002-.173.002s-.259-.001-.435-.01a7 7 0 0 1-.581-.054 4 4 0 0 1-.614-.128c-.048-.013-.14.025-.259.096a5 5 0 0 0-.421.298c-.157.12-.323.255-.482.387-.16.131-.311.26-.439.365 0 .054.073.075.203.078s.32-.012.554-.033c.233-.02.512-.047.823-.063.31-.017.65-.026 1.01-.013a.14.14 0 0 1 .1.04.14.14 0 0 1 .036.087.2.2 0 0 1-.019.103.2.2 0 0 1-.065.085c0 .002-.13.006-.328.014l-.721.025-.722.025a8 8 0 0 0-.328.014c-.05 0-.139.015-.244.038a8 8 0 0 0-.66.175 2 2 0 0 0-.156.052.7.7 0 0 0-.12.113 3 3 0 0 0-.291.372c-.028.047-.036.074-.01.066.49-.147.92-.248 1.246-.303.325-.056.546-.066.62-.034.072.034-.002.109-.267.227s-.722.276-1.411.475a2.5 2.5 0 0 0-.317.178 2 2 0 0 0-.244.189 1.2 1.2 0 0 0-.16.174.36.36 0 0 0-.083.203q-.005.031.006.05t.046.02a.4.4 0 0 0 .108-.025q.001-.025.02-.025.02 0 .048.021a.22.22 0 0 1 .084.129l-.015.005-.017.004-.017.003-.018.004q-.001.071-.029.129a.4.4 0 0 1-.072.106q-.045.048-.095.094-.05.047-.094.098l-.028.046q-.012.024-.027.047-.014.021-.027.046l-.027.046-.045.05-.045.051-.045.051-.046.05a.7.7 0 0 0-.06.148q-.031.098-.057.215t-.04.221a1 1 0 0 0-.013.164l.013.04.012.04.013.04q.008.02.013.04l.026-.015.027-.015.028-.015q.013-.006.027-.016a1 1 0 0 0 .125-.122.6.6 0 0 0 .087-.145.5.5 0 0 0 .02-.099c.005-.037.01-.078.019-.114a.15.15 0 0 1 .05-.085c.025-.019.06-.027.112-.015a.2.2 0 0 1 .112.057.13.13 0 0 1 .031.088.2.2 0 0 1-.028.1.4.4 0 0 1-.067.089q-.021.016-.041.034l-.042.034-.04.034q-.022.016-.042.033a.4.4 0 0 0-.056.132 1 1 0 0 0-.02.146q-.006.076-.01.153-.005.076-.022.15l-.045.12-.045.12-.045.119-.045.12a.3.3 0 0 0 .001.09l.02.085q.015.043.024.088.011.046.007.097l-.015.063-.015.063-.015.064-.016.063a4 4 0 0 0 .09 1.077q.061.266.161.501.1.236.24.426.044 0 .06-.027a.1.1 0 0 0 .02-.063.4.4 0 0 0-.003-.073l-.01-.059a3 3 0 0 0-.044-.196l-.054-.199q-.028-.098-.054-.198a2 2 0 0 1-.042-.198l-.002-.19-.003-.19-.003-.188-.003-.19L1 9.077Q.991 9.06.987 9.044l-.012-.032-.013-.033-.002-.097-.003-.097-.003-.098-.003-.097.015-.052.015-.051.015-.051.015-.051.005-.095a1 1 0 0 1 .012-.1.2.2 0 0 1 .038-.085.12.12 0 0 1 .085-.042l.026.006.033.01.029.01q.011.006.017.007c.024.02.041.068.051.13s.017.14.02.22a3 3 0 0 1-.02.394.2.2 0 0 1-.015.05l-.017.048-.014.05q-.004.026-.003.057l.013.045.012.043.012.044.012.043.004.106.004.107q.001.054.004.106l.003.106.013.05.014.052.015.05.014.053.005.113.006.114.005.114.003.113.057.137.056.138.056.137.055.137q.01.03.015.06l.01.058q.005.029.015.058t.029.053a4.4 4.4 0 0 0 .296.64q.038.066.06.108c.02.035.051.09.089.15l.122.196c.042.067.083.132.119.184l.077.112.115.151c.058.077.131.176.21.277.078.1.161.207.238.3.076.092.146.17.198.22a2 2 0 0 0 .197.152q.104.068.211.13t.212.126.2.141h.049l.017-.032.017-.032.017-.031.017-.033-.015-.01-.015-.01-.015-.01-.015-.01-.138-.147-.13-.148a4 4 0 0 1-.236-.307l-.02-.043-.019-.042-.02-.043-.02-.043-.061-.034-.062-.034-.062-.034-.062-.035a.6.6 0 0 1-.102-.073.8.8 0 0 1-.154-.195.6.6 0 0 1-.045-.106.1.1 0 0 0-.008-.034l-.017-.032-.017-.035a.1.1 0 0 1-.008-.04l-.011-.009-.012-.008-.01-.009-.012-.007-.03-.053-.03-.054-.03-.054-.031-.053q-.042-.055-.088-.102c-.03-.033-.061-.061-.09-.093a.5.5 0 0 1-.072-.1.4.4 0 0 1-.041-.124.05.05 0 0 1-.035-.016.2.2 0 0 1-.026-.037l-.021-.042-.019-.034a4 4 0 0 1-.23-.307 1.7 1.7 0 0 1-.174-.332l-.01-.116-.01-.115q-.003-.057-.009-.115l-.01-.116-.043-.076-.044-.076q-.023-.037-.044-.077l-.043-.077-.004-.061-.004-.061-.004-.061-.003-.063-.028-.123-.034-.13a2 2 0 0 1-.049-.254l.001-.205.001-.205v-.205l.002-.205q.008-.02.013-.04l.012-.04.012-.04.013-.041.013-.1.012-.085a.4.4 0 0 1 .07-.16c.065 0 .112.044.143.113.03.068.048.16.055.257.006.096.004.198-.006.285a.8.8 0 0 1-.041.197l-.004.17-.004.17-.003.17-.004.169.047.09q.022.047.047.09.022.046.046.09.022.046.046.09.008.001.015.028l.008.061.006.068q.001.031.006.044a1 1 0 0 1 .028.116l.014.06q.007.03.017.058.013.033.034.064l.045.06.045.062a.3.3 0 0 1 .034.066l.01.075.012.076.011.075.012.075a.5.5 0 0 0 .047.077q.026.037.06.073l.06.072a.5.5 0 0 1 .05.077 1 1 0 0 1 .031.086q.014.048.026.097.014.05.035.096.022.045.055.079.001.02.028.049l.061.058a1 1 0 0 1 .064.069q.029.036.035.077l.032.029.033.028.033.03.033.028q.04.042.07.082l.057.083q.026.042.054.082.026.041.06.082l.064.066.065.066.065.066.064.066.022.042.021.043.022.043.022.042a.2.2 0 0 0 .058.034l.064.014q.034.005.067.013a.2.2 0 0 1 .062.024l.085.073.085.073.086.075.085.074.067.035.068.036.067.036.068.037q.053 0 .098.031.043.03.082.07a1 1 0 0 0 .078.076.2.2 0 0 0 .09.045c.068.012.111-.006.137-.043a.26.26 0 0 0 .035-.152c0-.06-.008-.126-.015-.184A1 1 0 0 1 5 12.988a.04.04 0 0 1-.037-.018.1.1 0 0 1-.014-.042q-.001-.024.007-.046a.1.1 0 0 1 .023-.033c.03-.02.064-.02.1-.01q.054.016.11.051.056.037.112.067.055.032.105.032.038-.002.075-.016l.072-.035q.036-.02.067-.042l.061-.04a.18.18 0 0 0 .075-.114.3.3 0 0 0-.005-.152.25.25 0 0 0-.074-.124.15.15 0 0 0-.134-.031l-.055-.004q-.028-.001-.055-.004l-.056-.003-.055-.004c-.051 0-.101-.03-.142-.076a.4.4 0 0 1-.09-.162c-.015-.058-.016-.113.004-.15.021-.037.065-.055.138-.038l.052.034.051.033.052.033.051.034.055.016.054.014.055.015.056.014.073.06.072.06.072.061.072.06q.05.027.1.049l.105.04.105.04q.052.02.104.043l.061.032q.027.017.052.03a.2.2 0 0 0 .058.02.3.3 0 0 0 .08.006c0 .029.038.064.098.102a2 2 0 0 0 .224.118l.242.107c.071.03.13.054.155.067q.045.025.085.054l.079.059q.038.029.081.052.044.024.094.04l.07.007q.034.005.068.006l.07.007.07.007q.04.014.082.025l.081.026.082.026.081.027.054.01.052.01.05.014a.2.2 0 0 1 .046.025l.101.002a.7.7 0 0 1 .173.03q.041.012.083.032 0 .01.005.013l.012.001.017-.003.017-.004a1 1 0 0 1 .133 0 .5.5 0 0 1 .134.027.3.3 0 0 1 .106.063.18.18 0 0 1 .051.11c.006.057-.016.092-.052.112a.24.24 0 0 1-.14.016 1 1 0 0 1-.164-.04.5.5 0 0 1-.118-.057.2.2 0 0 1-.07-.011q-.032-.011-.062-.026l-.065-.027a.3.3 0 0 0-.074-.014 1 1 0 0 0-.113.006 1 1 0 0 0-.1.018l-.095.021a1 1 0 0 1-.1.014.7.7 0 0 1-.138-.01 2.5 2.5 0 0 1-.473-.133 2 2 0 0 1-.268-.142c-.102-.06-.214-.128-.326-.193a4 4 0 0 0-.322-.17.7.7 0 0 0-.256-.073c0-.017-.025-.038-.063-.062a1 1 0 0 0-.143-.07 1 1 0 0 0-.16-.05c-.05-.011-.09-.015-.11-.007v.015h-.033v-.015h-.037l-.003.06-.006.064a.3.3 0 0 0 .014.121l.084.09.085.091.084.09.084.091.013.061.012.061.012.06.012.061c-.01 0-.034.023-.067.052-.034.029-.076.065-.118.09-.043.025-.085.04-.12.027s-.06-.053-.069-.136a.05.05 0 0 1-.03-.014.2.2 0 0 1-.025-.035l-.018-.04a.5.5 0 0 0-.064-.122.6.6 0 0 0-.081-.1.23.23 0 0 0-.1-.061.12.12 0 0 0-.108.026.3.3 0 0 0-.07.081q-.03.046-.057.1a.5.5 0 0 1-.068.097.3.3 0 0 1-.107.076.3.3 0 0 1-.065.018q-.035.006-.074.007H4.9l-.073-.002-.05-.004-.08-.006q-.045-.004-.077-.004t-.033.005q0 .02.015.037.016.017.043.032.024.015.05.027.023.012.038.022l.06.048.06.048.06.048.06.049q.063.033.143.055t.164.032a1.5 1.5 0 0 0 .343-.002l.042-.011.042-.012.043-.011.043-.012.038.012.039.01.038.01.038.01.023.022.022.023.023.022.022.022.025.034.024.032q.013.016.024.033l.025.033a.4.4 0 0 0 .13.074q.07.026.147.04.078.014.157.025.08.01.154.029l.033.02.033.019.033.02.034.019.081.035a1 1 0 0 0 .188.043l.097.01.01.01q.004.006.009.01l.01.01.008.01q.06.029.12.043t.123.023l.13.014q.066.005.133.02l.124.035.125.036.124.036.125.035q.136.02.301.015t.335-.03a5 5 0 0 0 .602-.125l.043-.012q.025-.008.052-.019a.1.1 0 0 0 .04-.029.05.05 0 0 0 .011-.041.12.12 0 0 0-.054-.075.3.3 0 0 0-.098-.037c-.037-.01-.075-.015-.11-.024a.3.3 0 0 1-.087-.033c-.01-.003-.004.002.005.007l.035.02-.04-.028q-.014 0-.016-.014a.1.1 0 0 1 0-.034.1.1 0 0 1 .011-.037q.008-.017.014-.024a.33.33 0 0 1 .19-.064q.046-.001.102.001t.123-.003l.052-.014.05-.014.051-.014.05-.014.1-.002.097-.002.194-.005.052-.014.052-.014.05-.014.05-.014h.065l.063-.002h.064l.064-.002.029-.01.029-.01.029-.01.029-.01q.038.002.075.012t.074.02.078.019a.37.37 0 0 0 .207-.025 1 1 0 0 0 .144-.067.4.4 0 0 0 .107-.095.1.1 0 0 0 .006-.11.1.1 0 0 0-.033-.035q-.022-.015-.045-.027a.3.3 0 0 0-.102-.022.3.3 0 0 0-.091.011l-.083.03-.081.033a.4.4 0 0 1-.086.022q-.109 0-.216.002l-.216.002-.216.001-.216.002q-.046.001-.114-.004a1 1 0 0 1-.134-.022.4.4 0 0 1-.112-.047.11.11 0 0 1-.051-.085q0-.025.012-.045a.1.1 0 0 1 .034-.033.3.3 0 0 1 .043-.026l.041-.02a.9.9 0 0 1 .316-.097 1.4 1.4 0 0 1 .303.006c.101.012.201.027.305.036s.212.009.325-.01q.045 0 .091-.016.048-.014.099-.033.05-.02.1-.037a1 1 0 0 1 .1-.024.1.1 0 0 0 .047-.01l.042-.02a.2.2 0 0 1 .046-.015.1.1 0 0 1 .059.006.3.3 0 0 1 .084.058l.094.09c.031.03.064.058.097.075q.05.029.094.016.026-.01.04-.04a.3.3 0 0 0 .014-.068l.008-.073a.14.14 0 0 1 .02-.058.7.7 0 0 1 .117-.112 1.7 1.7 0 0 1 .38-.228.3.3 0 0 1 .152-.031q.033-.002.086-.038t.111-.09.11-.1c.034-.03.061-.059.08-.075q.051-.044.107-.081.055-.037.111-.07l.113-.068q.055-.035.107-.073c.066-.049.14-.115.213-.19a3.2 3.2 0 0 0 .409-.512c.054-.085.1-.167.127-.236a.2.2 0 0 0 .01-.086.2.2 0 0 0-.01-.043.06.06 0 0 0-.023-.03.04.04 0 0 0-.02-.005l-.019.004-.017.01-.014.01-.117.104q-.057.054-.117.104l-.116.104-.116.105-.166.127-.173.127-.171.128a4 4 0 0 0-.163.13.4.4 0 0 0-.056.058l-.046.062a.4.4 0 0 1-.05.057.3.3 0 0 1-.067.046l-.002.006h-.003q-.002-.003-.006-.005l-.006-.002h-.037q-.001.016-.014.027a.1.1 0 0 1-.033.018l-.038.012-.033.008-.075.038-.075.038-.076.038-.075.038q-.091.032-.186.056l-.19.05a3 3 0 0 0-.185.054q-.092.031-.176.074a.2.2 0 0 0-.053.043l-.04.057a.3.3 0 0 1-.041.053.13.13 0 0 1-.06.034l-.083-.009-.082-.007q-.043-.005-.083-.007l-.082-.009a.2.2 0 0 0-.064.007l-.054.015-.053.017-.056.014a2.6 2.6 0 0 1-.434.021 1 1 0 0 1-.218-.035.25.25 0 0 1-.14-.092q-.01 0-.013-.003-.003-.004 0-.01l.006-.014.008-.011a.2.2 0 0 1 .065-.071.4.4 0 0 1 .091-.046q.051-.016.104-.028l.1-.02q.043-.008.081-.006.04.002.073.012.037.009.073.02.037.009.075.013a1.4 1.4 0 0 0 .385-.026q.094-.021.177-.056a.7.7 0 0 0 .152-.086q0-.009.004-.014.005-.004.012-.005l.016-.002h.016l.143-.054.142-.053.143-.053.141-.054.06-.015.06-.01.057-.014a.2.2 0 0 0 .056-.025l.035-.011q.034-.012.08-.025l.086-.028.05-.017q.135-.054.265-.148.13-.092.25-.205.123-.114.236-.23c.075-.076.149-.153.219-.22l.066-.053q.033-.023.068-.044.034-.02.067-.044a.3.3 0 0 0 .061-.056l.04-.077.04-.077.041-.078.041-.078q.045-.053.092-.1l.091-.095q.045-.047.085-.096a1 1 0 0 0 .072-.109.5.5 0 0 0 .035-.085l.027-.089q.01-.045.025-.09.014-.046.034-.088l.065-.124.067-.125q.034-.061.066-.124l.068-.124.011-.047.01-.046.01-.046.01-.048q.021-.03.041-.063l.04-.063q.022-.032.04-.063l.041-.063a1 1 0 0 0 .035-.128q.012-.065.02-.13.007-.065.01-.133l.012-.14.008-.035.009-.036.008-.036.008-.035-.023-.076-.022-.075-.024-.076-.023-.076.012-.058.011-.059.012-.058.01-.059q.003-.045-.003-.088-.006-.041-.016-.08L15.045 8l-.017-.085a.8.8 0 0 0-.074-.193c-.039-.078-.088-.165-.134-.249a4 4 0 0 1-.124-.237c-.032-.07-.05-.124-.045-.155l-.03-.033-.057-.067-.03-.034a.3.3 0 0 1-.015-.08l-.007-.088q-.003-.044-.012-.085a.2.2 0 0 0-.033-.073l-.161-.154-.161-.154-.161-.154-.162-.155-.059-.067-.059-.067-.059-.067-.059-.067a1.3 1.3 0 0 0-.187-.126 2 2 0 0 1-.226-.146.5.5 0 0 1-.156-.175.21.21 0 0 1 .023-.21l.053.039a2 2 0 0 1 .109.076l.054.037.174.1.174.098q.087.05.17.104.085.055.165.115.037.036.076.068l.074.068q.038.033.075.068l.075.067q.045.036.09.064.044.029.083.059t.076.067a.4.4 0 0 1 .065.09v.031l.01.01q.007.003.012.009.006.003.011.009.006.004.011.01a1 1 0 0 1 .116.222 3 3 0 0 1 .078.239c.023.08.045.162.075.241.029.08.061.155.106.226l.051.05.05.052.051.05.05.052q.03.036.053.07.025.035.052.068a.4.4 0 0 0 .139.113l.016-.025.015-.025.016-.026.017-.026a.3.3 0 0 0 .017-.087 1 1 0 0 0-.003-.093 1 1 0 0 0-.038-.177m-13.88.6c-.1-.003-.156-.026-.186-.065s-.032-.094-.018-.16c.014-.065.044-.142.078-.226.033-.083.072-.172.1-.263a.5.5 0 0 1 .114-.13.3.3 0 0 1 .101-.05.2.2 0 0 1 .074-.006q.027.003.03.001a.33.33 0 0 1 .098.248.8.8 0 0 1-.065.3.9.9 0 0 1-.155.252c-.058.064-.12.104-.174.1zm.144-1.646a.3.3 0 0 1-.08.172q-.03.035-.067.072-.035.035-.068.074l-.02-.014-.02-.014-.02-.013-.02-.014c-.03-.03-.035-.08-.026-.14a.8.8 0 0 1 .066-.193 2 2 0 0 1 .183-.312l.047-.067a.14.14 0 0 1 .055-.044q.03-.01.055.022a.3.3 0 0 1 .046.13l-.007.036-.014.076-.014.076-.006.038q.01 0-.001.014l-.032.035-.038.039c-.01.012-.02.022-.02.027m7.439 8.495a.1.1 0 0 1-.024.039.3.3 0 0 1-.038.031q-.021.014-.044.024l-.043.02a.45.45 0 0 1-.356.007q-.078-.031-.158-.068a1 1 0 0 0-.173-.059q-.034 0-.068-.003l-.067-.002-.067-.004-.068-.003q0-.019-.019-.032a.1.1 0 0 0-.043-.018l-.05-.01-.042-.006a4 4 0 0 1-.652-.159 1.7 1.7 0 0 1-.333-.149c-.09-.056-.153-.118-.168-.184a.16.16 0 0 1 .012-.11q.011-.023.025-.045l.03-.047.06.006.061.005.061.006.06.006q.042.016.074.038.033.021.062.044.03.023.064.04.036.02.083.029c0 .018.018.031.045.041s.065.02.103.026.08.012.113.019a.2.2 0 0 1 .078.024 1 1 0 0 1 .258.034 1 1 0 0 1 .125.044q.057.027.091.065c.044 0 .132.01.238.027.107.018.233.043.352.073.118.032.23.069.306.111.08.043.123.09.107.14zm3.007-8.1q.01 0 .015.003.006 0 .006.005l.002.01v.013q.011.053.037.12a1.1 1.1 0 0 0 .144.26 1 1 0 0 0 .087.096l-.009.028q-.003.015-.009.028l-.01.028-.008.027q0 .01-.003.013l-.006.002-.01-.002-.014-.003a.2.2 0 0 1-.08-.027l-.065-.043-.06-.05-.066-.05-.06-.038-.06-.039-.058-.04-.06-.04.004-.02.004-.019.004-.02.003-.019a.05.05 0 0 1-.037-.016.2.2 0 0 1-.023-.04.2.2 0 0 1-.014-.046l-.008-.038a.5.5 0 0 0-.034-.09 1 1 0 0 0-.045-.085l-.05-.082a1.2 1.2 0 0 1-.103-.203l-.052-.121a1.4 1.4 0 0 0-.124-.235 4 4 0 0 0-.161-.203l-.084-.1-.08-.099a.1.1 0 0 1-.022-.074.1.1 0 0 1 .013-.035.1.1 0 0 1 .026-.033V5.25q.117.046.226.126.108.08.202.182t.172.212a1.7 1.7 0 0 1 .204.365q.03.075.063.144a.7.7 0 0 0 .202.264zm-.644 3.298-.002.009q-.001.003-.004.002l-.006-.003q-.004-.002-.006-.007l-.043.034-.094.071a2 2 0 0 1-.114.078.6.6 0 0 1-.106.054.5.5 0 0 0-.093.04c-.043.023-.096.05-.148.08-.053.03-.107.06-.153.088l-.104.068-.051.011-.052.011-.052.012-.051.01-.085.039-.085.038-.085.038-.085.038q-.048.015-.116.029l-.141.027q-.076.01-.144.017a1 1 0 0 1-.12.002.4.4 0 0 1-.068-.012l-.065-.018a1 1 0 0 0-.14-.026l-.228-.005-.114-.002q-.058 0-.115-.003a.6.6 0 0 1-.118-.029 1 1 0 0 1-.113-.044q-.056-.025-.112-.047a1 1 0 0 0-.11-.038.4.4 0 0 0-.139-.009 1 1 0 0 0-.171.027 2 2 0 0 0-.167.047 1 1 0 0 0-.123.052q0 .118.035.176.034.058.093.08c.04.017.087.026.138.037s.108.02.166.041a1 1 0 0 1 .097.04 2 2 0 0 1 .183.105l.085.058.003.004.004.004.004.004.005.003q.03 0 .06.015t.059.038a.4.4 0 0 1 .09.1q.014.02.02.05a.4.4 0 0 1 .007.058v.121h-.015q-.002.009-.023.013t-.05.005h-.058l-.04-.002a1 1 0 0 1-.201-.054 10 10 0 0 1-.705-.27 1 1 0 0 1-.18-.089l-.09-.001a.7.7 0 0 1-.18-.034.2.2 0 0 1-.07-.043.6.6 0 0 1-.173-.026l-.074-.03-.08-.034a1 1 0 0 0-.086-.027l-.087-.019-.084-.022a.5.5 0 0 1-.082-.036l-.075-.063-.075-.063-.074-.063-.074-.064-.06-.031q-.03-.014-.06-.032l-.06-.031-.06-.032-.054-.042-.054-.043-.055-.043q-.026-.022-.054-.042a.14.14 0 0 0-.074-.019.3.3 0 0 0-.074.011.4.4 0 0 1-.073.012.14.14 0 0 1-.071-.014l-.061-.05-.124-.103-.062-.05-.089-.066-.09-.063a1.5 1.5 0 0 1-.174-.144 1 1 0 0 1-.109-.123 3 3 0 0 1-.095-.134l-.09-.138a3 3 0 0 0-.092-.132l-.049-.055-.052-.054a.3.3 0 0 1-.038-.058.14.14 0 0 1-.012-.069q-.038-.001-.055-.045a.3.3 0 0 1-.015-.1.7.7 0 0 1 .018-.187c-.04 0-.085-.042-.124-.106a.8.8 0 0 1-.095-.238.6.6 0 0 1-.011-.256c.016-.076.054-.135.125-.159.05-.016.086-.007.113.017a.2.2 0 0 1 .055.107 1 1 0 0 1 .023.14c.004.046.007.087.014.113l.014.04.014.04.014.04.014.041v.03c.017 0 .035.018.052.046a1 1 0 0 1 .056.107l.051.117c.016.035.03.064.043.078q0 .072.033.125.031.054.079.1.046.044.098.09.051.044.09.098l.033.056.029.058q.014.03.033.056a.3.3 0 0 0 .045.05.3.3 0 0 0 .058.034l.06.024q.032.01.06.027a.3.3 0 0 1 .056.043q.027.03.042.063t.03.064q.014.033.038.062.022.031.063.056l.05.012.049.013.05.012.051.012q.066.023.128.052.06.03.121.064.062.035.123.065a1 1 0 0 0 .135.056h.007l.007.003.008.002.08.065.08.065.081.065.081.066q.063.037.143.068.079.03.165.055l.171.05q.084.023.157.047h.015q0-.02.018-.043a1 1 0 0 1 .093-.085l.042-.03-.019-.036-.017-.037-.018-.037-.018-.037a.7.7 0 0 0-.063-.148c-.018-.028-.034-.038-.058-.042-.022-.004-.05-.003-.087-.007a.5.5 0 0 1-.218-.075l-.065-.04-.066-.037a.4.4 0 0 0-.073-.026l-.078-.01-.08-.01-.077-.01-.078-.01a1 1 0 0 1-.194-.118L6.1 9.678q-.044-.037-.092-.073l-.051-.031q-.028-.014-.056-.033a.2.2 0 0 1-.043-.043.1.1 0 0 1-.014-.06c.007-.093.085-.123.2-.112.117.011.27.062.427.128.157.067.317.149.446.222.13.073.227.138.26.17q.073 0 .142-.003.07-.004.134 0a.6.6 0 0 1 .123.016q.059.014.11.049a.6.6 0 0 0 .23.089q.128.024.251.022c.081.001.156-.003.215-.006.06-.003.102-.006.12 0l.12.035.12.036.122.034.118.03c.038.01.1.017.168.023l.222.02q.116.012.209.03c.06.014.106.03.127.052a.4.4 0 0 0 .092-.012l.085-.027q.042-.015.083-.034.041-.018.082-.032l.069-.01.067-.01.068-.01.067-.011.098-.045.096-.044.097-.045.096-.045.046-.034.045-.035q.023-.016.045-.034l.046-.034c.074-.038.167-.075.266-.115.1-.041.202-.087.297-.14a1 1 0 0 0 .247-.189.44.44 0 0 0 .116-.262q.02-.002.037-.04.018-.037.033-.09.017-.053.037-.1a.2.2 0 0 1 .046-.07q0-.097-.015-.185a2 2 0 0 0-.037-.17l-.046-.163a2 2 0 0 1-.042-.164l-.004-.061-.003-.061-.004-.061-.004-.062a1 1 0 0 0-.034-.12q-.02-.054-.03-.103a.3.3 0 0 1-.007-.104.3.3 0 0 1 .042-.119c.127.02.237.126.324.28s.15.355.185.562.042.422.015.603-.086.329-.185.403c0 .045-.027.098-.071.153a1.2 1.2 0 0 1-.168.166 2 2 0 0 1-.197.145 1 1 0 0 1-.159.089zm.19.714-.001.008q-.002.003-.003.002l-.006-.003-.006-.006a.1.1 0 0 0-.041.014.2.2 0 0 0-.039.035l-.033.042-.024.034-.022-.004-.028-.005-.024-.003-.013-.002-.014.02-.014.02-.014.021-.014.02a.4.4 0 0 1-.128.122 1 1 0 0 1-.171.08 1.2 1.2 0 0 1-.22.056q-.002-.003-.042.006a1 1 0 0 1-.09.01.14.14 0 0 1-.086-.024c-.022-.018-.035-.047-.03-.095a.4.4 0 0 1 .067-.038l.1-.048q.055-.024.1-.047a.4.4 0 0 0 .067-.04l.04-.014.04-.015.04-.015.04-.014a1 1 0 0 1 .166-.198.7.7 0 0 1 .149-.098c.048-.024.092-.042.134-.066a.4.4 0 0 0 .119-.1q.118.012.157.052a.09.09 0 0 1 .026.093.3.3 0 0 1-.066.108.5.5 0 0 1-.116.094zM9.282 11.93l.059.014.06.014.06.013.06.013q.087.004.173.004t.168.003.158.02.147.055c0 .028-.023.05-.057.071a.5.5 0 0 1-.13.05c-.05.013-.102.024-.147.035s-.084.02-.107.032v.017l-.025-.004-.026-.004-.025-.004-.025-.005q-.001.029-.037.04a.3.3 0 0 1-.083.01 1 1 0 0 1-.092-.012.2.2 0 0 1-.06-.02l-.11-.003-.11-.002-.11-.002-.112-.002a.3.3 0 0 1-.056.003q-.027-.001-.057-.005l-.057-.004q-.028-.002-.055.004l-.126-.025-.123-.025-.122-.025-.126-.024a.7.7 0 0 1-.195-.031.7.7 0 0 1-.184-.088.35.35 0 0 1-.121-.136.21.21 0 0 1-.002-.173q.135.003.267.024.132.02.265.049l.263.057q.13.03.26.05l.134.003.135.004.135.004zm.612-.986a1 1 0 0 1 .231-.006c.05.005.074.02.082.04q.009.03-.017.075c-.016.028-.041.062-.066.097a.4.4 0 0 1-.06.037l-.076.04-.077.04-.061.036c-.026.027-.036.075-.041.128s-.008.11-.02.153c-.01.044-.032.075-.075.076s-.11-.027-.214-.103l-.062-.05a.3.3 0 0 1-.073-.12.3.3 0 0 1-.011-.078c-.004-.116.014-.186.046-.227s.078-.055.133-.06c.054-.005.116 0 .178-.007a.33.33 0 0 0 .183-.07m-2.581.885v.016a.7.7 0 0 1-.338-.086 2 2 0 0 1-.146-.082q-.071-.044-.145-.084a.5.5 0 0 1-.173-.076 4 4 0 0 1-.267-.176 6 6 0 0 1-.26-.195 1 1 0 0 1-.148-.138q-.01-.002.008-.023l.047-.053.058-.058.04-.04a.4.4 0 0 1 .172.046.6.6 0 0 1 .127.093l.117.11q.059.057.137.099c.038.02.106.045.188.075.081.03.177.062.27.094.092.033.183.065.253.094s.122.055.138.074a.17.17 0 0 1 .027.168.3.3 0 0 1-.041.08.4.4 0 0 1-.064.062m.73-7.465a.2.2 0 0 1-.05-.05q-.021-.029-.02-.055 0-.027.04-.038a.4.4 0 0 1 .133.002l.163.077a2 2 0 0 1 .334.206q.075.06.13.126.003.002-.003-.006l-.013-.017-.014-.018q-.006-.007-.004-.006.035.061.04.102.006.042-.026.051-.031.01-.11-.025a1.4 1.4 0 0 1-.21-.128 9 9 0 0 0-.284-.162c-.042-.024-.08-.044-.106-.06m1.084-.003c-.026.006-.12-.034-.248-.101a10 10 0 0 1-.449-.253c-.16-.095-.319-.193-.441-.271a2 2 0 0 1-.224-.154.1.1 0 0 1-.02-.029.15.15 0 0 1-.011-.069l.003-.035c.063.002.175.033.309.084a6 6 0 0 1 .865.413c.12.073.21.137.245.183q.035.002.05.032.015.032.01.074a.2.2 0 0 1-.027.079.1.1 0 0 1-.062.047m-.759.606.161.14.08.071.08.07.059.027.058.026.058.025.058.025.06.03q.032.014.06.029l.06.03.06.03.134.12q.066.063.133.122l.133.12.133.12.037.045.036.045.037.044.036.045q.021.017.046.03l.05.03q.024.014.042.034a.1.1 0 0 1 .025.05q.004.024.001.045a.1.1 0 0 1-.014.037.2.2 0 0 1-.025.033l-.034.027q-.076.05-.147.052a.3.3 0 0 1-.138-.034.5.5 0 0 1-.123-.09 1 1 0 0 1-.106-.12l-.013-.028-.013-.028-.014-.028-.013-.028a1 1 0 0 0-.17-.2 4 4 0 0 0-.576-.431 2 2 0 0 0-.239-.125l-.033-.017-.034-.016-.034-.017-.034-.017-.006-.002-.007-.003-.006-.003q-.004 0-.007-.003l-.003-.002-.003-.001-.002-.002-.003-.002a4 4 0 0 1-.204-.133l-.208-.143a3 3 0 0 0-.212-.131 1.4 1.4 0 0 0-.219-.1.4.4 0 0 0-.133-.02l-.149-.001a.5.5 0 0 1-.138-.017.2.2 0 0 1-.103-.067.09.09 0 0 1-.016-.081.15.15 0 0 1 .051-.067q.038-.03.079-.056.04-.026.066-.05a.7.7 0 0 1 .26.056q.051.022.104.051.052.028.12.058l.054.01.056.012.055.01.055.01.16.088.16.088.16.087zm2.53 1.133c.032.01.093.054.166.117a4 4 0 0 1 .463.478.6.6 0 0 1 .11.169q.006.03.004.053a.2.2 0 0 1-.034.087l-.029.042c-.04 0-.076-.024-.112-.059-.035-.035-.07-.084-.107-.134a1 1 0 0 0-.117-.139.27.27 0 0 0-.14-.078c0-.037-.034-.068-.078-.1-.044-.031-.101-.064-.147-.1-.046-.038-.082-.082-.085-.135s.023-.12.106-.2m.151 2.652q0-.05-.005-.099a1 1 0 0 1-.004-.097.3.3 0 0 1 .018-.09.2.2 0 0 1 .059-.078.4.4 0 0 1 .006-.068l.014-.067q.008-.032.012-.065a.2.2 0 0 0-.003-.064l-.024-.038-.023-.038-.023-.038-.024-.04a1 1 0 0 1-.03-.137A3 3 0 0 1 11 7.638c-.006-.068-.008-.135-.006-.193a.4.4 0 0 1 .02-.13l.066.007q.03.003.06.013a.2.2 0 0 1 .098.068l.011.06.011.06.011.06q.005.03.012.059l.051.1.052.098.051.1.051.099q0 .027.008.053l.016.055q.01.03.015.06.007.03.003.067a.4.4 0 0 1-.027.1 1 1 0 0 1-.049.09l-.054.089a1 1 0 0 0-.046.09l-.01.076-.01.075-.011.075-.01.075a1 1 0 0 1-.135.214 1.5 1.5 0 0 1-.195.19 2 2 0 0 1-.456.272.4.4 0 0 1-.162.02.2.2 0 0 1-.08-.023.1.1 0 0 1-.051-.052c-.012-.028.006-.065.04-.106.033-.04.084-.088.136-.135s.107-.098.15-.145c.041-.047.072-.093.077-.133l.06-.044.133-.099.139-.102c.04-.027.07-.049.077-.052zm-.375-.306a.3.3 0 0 1-.05.084 1 1 0 0 1-.079.082q-.044.041-.089.078-.045.036-.08.069l-.04.037-.038.038a.2.2 0 0 0-.03.042.2.2 0 0 0-.016.049l-.017.003q-.007.004-.01.01l-.007.015-.007.014a.5.5 0 0 1-.171.17l-.094.053a1 1 0 0 0-.107.073l-.003.002-.003.002-.002.002-.003.002q-.002.005-.052.025a4 4 0 0 1-.252.092c-.04.012-.072.022-.087.025l-.001.006H9.43q-.002-.004-.006-.004l-.005-.003h-.038l-.005.007-.005.007-.006.006q-.004.003-.005.008a.4.4 0 0 1-.179.052c-.062.004-.13.001-.195 0-.066 0-.13 0-.19.015a.3.3 0 0 0-.162.096L8.617 9.6q-.008-.001-.017-.005l-.016-.003-.017-.004h-.019v.016a.2.2 0 0 0-.047.006l-.049.014-.051.014a.3.3 0 0 1-.056.006l-.051-.012-.05-.011-.051-.012-.052-.01-.183-.018-.182-.018-.182-.018-.182-.016q-.075-.015-.148-.038l-.146-.052a2 2 0 0 0-.148-.051 1 1 0 0 0-.153-.036c0-.078-.056-.125-.138-.155-.081-.031-.188-.049-.29-.068a.7.7 0 0 1-.256-.088c-.06-.045-.082-.11-.038-.215.033-.078.077-.11.127-.114.05-.002.104.023.16.06.054.037.109.085.16.128.05.042.093.079.127.093q.037.014.084.02a1 1 0 0 0 .097.006q.05 0 .098-.004t.09-.009q0 .01.01.019.009.01.024.017l.028.014.023.01.077.03.077.03.076.03.077.03.08.005.08.006.079.005.08.005q.059.012.122.03l.13.034q.067.017.132.029.065.011.127.014a.4.4 0 0 0 .079-.005q.036-.006.07-.016l.067-.018a.4.4 0 0 1 .073-.013l.096-.005.096-.006.096-.005.096-.007.084-.033.085-.033.085-.034.085-.033.046-.034.046-.033.046-.034.046-.035c.1-.046.188-.081.267-.115a1.2 1.2 0 0 0 .204-.106.6.6 0 0 0 .159-.155q.07-.097.127-.26l.03-.068.03-.063.025-.067a.3.3 0 0 0 .005-.15l-.018-.064-.02-.064q-.007-.032-.01-.068l-.005-.17a2 2 0 0 0-.033-.315 1 1 0 0 0-.043-.155.6.6 0 0 0-.067-.128c-.024-.038-.048-.073-.064-.11a.2.2 0 0 1-.02-.115.3.3 0 0 1 .07-.143.4.4 0 0 1 .108.039 1 1 0 0 1 .094.062q.044.037.086.075.042.039.087.076.011.001.015.032.004.03.004.072l-.002.08-.002.053.005.082.004.081.004.082.004.08.027.058q.015.029.027.058l.028.057.027.057.005.086.006.085.006.086.005.085.024.096q.013.05.023.1.01.053.01.104a.3.3 0 0 1-.015.11zM9.702 9.95l-.104-.009-.211-.022-.21-.024a1 1 0 0 1-.103-.015q-.07-.031-.077-.067-.008-.034.023-.067a.32.32 0 0 1 .179-.08l.057-.025.055-.025.056-.024.056-.024a1 1 0 0 1 .104-.012l.109-.001a.5.5 0 0 0 .104-.012.2.2 0 0 0 .087-.038l.003-.001.002-.002.003-.002.002-.002.002-.002q.002 0 .002-.002l.002-.002.002-.001.08.001q.044.001.087.01a.2.2 0 0 1 .076.027.1.1 0 0 1 .046.053c.008.027-.01.063-.042.1a1.3 1.3 0 0 1-.281.215.4.4 0 0 1-.108.05zM5.775 7.238a.2.2 0 0 0-.014.087q0 .061.014.142t.041.167a1 1 0 0 0 .07.16c.022.08.082.15.159.215s.17.123.256.178c.086.056.166.107.216.159s.072.103.042.157c-.017.023-.07.028-.146.015a.9.9 0 0 1-.277-.112 1.3 1.3 0 0 1-.315-.264 1.5 1.5 0 0 1-.262-.444.66.66 0 0 1-.042-.348 1 1 0 0 1 .042-.164q.03-.08.072-.171a.53.53 0 0 1 .246-.249 1 1 0 0 1 .118-.048.6.6 0 0 1 .125-.014q.05.001.081.019.03.017.043.052a.3.3 0 0 1 .014.086q0 .028-.02.047a.2.2 0 0 1-.05.038l-.078.047a1 1 0 0 0-.093.073.3.3 0 0 1-.043.032l-.078.053-.078.055a.2.2 0 0 0-.043.032m-.498-.643a.5.5 0 0 1 0 .12 1 1 0 0 1-.021.113l-.025.115a1 1 0 0 0-.013.125l.003.114.006.228.002.114.01.044.011.043.01.044.01.043a.2.2 0 0 1-.01.046.2.2 0 0 1-.021.04l-.026.036-.029.038a.1.1 0 0 1-.084-.042.3.3 0 0 1-.04-.098q-.01-.057-.016-.113t-.016-.088l-.026-.054-.027-.054-.028-.054-.027-.054-.004-.114-.003-.114-.004-.114-.004-.114q-.006-.055-.019-.108-.011-.055-.025-.109a.6.6 0 0 1-.01-.238l.029-.051.028-.051.027-.051.027-.051q0-.036.021-.07a.4.4 0 0 1 .051-.068.6.6 0 0 1 .133-.1l.003-.004.004-.003.004-.004.004-.004a.4.4 0 0 0 .112-.024q.07-.024.158-.057.087-.032.175-.059a.6.6 0 0 1 .166-.027.7.7 0 0 1 .207.048q.077.037.096.087t-.03.105a.5.5 0 0 1-.171.107l-.03-.003-.03-.003-.028-.004-.03-.004a1 1 0 0 1-.128.056c-.056.021-.122.043-.187.066l-.188.066a1 1 0 0 0-.127.055q0 .036.019.066a.4.4 0 0 0 .04.059q.024.027.044.059a.2.2 0 0 1 .025.069zm-.836-1.063c-.013-.038.02-.087.082-.141.06-.055.147-.115.237-.173s.186-.112.263-.156c.077-.043.139-.078.16-.094.044.003.1.01.148.025.047.014.088.034.1.064.012.028-.002.067-.063.116-.06.05-.17.11-.345.185q0 .006-.002.007l-.003-.001-.006-.004-.006-.003H4.97c0 .025-.028.06-.073.095a.8.8 0 0 1-.168.096.5.5 0 0 1-.179.044c-.052 0-.094-.017-.11-.061zm.828 2.972a.9.9 0 0 1 .371.216.3.3 0 0 1 .096.173c.004.059-.025.114-.105.163a.17.17 0 0 1-.156.007.4.4 0 0 1-.144-.112.7.7 0 0 1-.105-.163.4.4 0 0 1-.039-.142q.001-.021.01-.041l.02-.036q.011-.018.025-.033zm4.15-1.19h-.017c0-.008-.034-.018-.079-.034a.7.7 0 0 1-.148-.067c-.046-.03-.083-.07-.085-.123s.025-.119.108-.2h.06a.6.6 0 0 1 .112.013.3.3 0 0 1 .05.022c.029.018.063.065.099.128s.073.142.107.222c.033.081.064.165.087.237s.038.133.043.169a.2.2 0 0 1-.003.06l-.014.055-.014.056a.2.2 0 0 0 0 .064l-.021.01-.021.012-.022.012-.022.012q0 .029-.003.055a.3.3 0 0 1-.032.094.3.3 0 0 1-.033.04l-.001.059a.18.18 0 0 1-.067.131q0 .075-.036.14a.5.5 0 0 1-.091.118.6.6 0 0 1-.267.14l-.07.008-.07.007-.07.008-.07.006c-.028.007-.075.032-.13.058s-.118.058-.18.077a.3.3 0 0 1-.17.016c-.047-.014-.085-.05-.099-.124a.2.2 0 0 1 .002-.076.15.15 0 0 1 .033-.06.2.2 0 0 1 .058-.04.2.2 0 0 1 .076-.019l.062.006.061.005.062.006.063.005.049-.024.048-.024.05-.023.047-.023a2 2 0 0 0 .107-.106 16 16 0 0 0 .351-.38 1 1 0 0 0 .083-.105.6.6 0 0 0 .024-.15 2 2 0 0 0-.002-.16l-.008-.164a1 1 0 0 1 .003-.152zm-2.616-.22a.5.5 0 0 0-.126.014.6.6 0 0 0-.111.034v.015l-.042-.024-.043-.025-.042-.024-.043-.024q.002-.036.035-.07a.4.4 0 0 1 .082-.064l.097-.056.075-.045V6.81a1 1 0 0 1 .234.033.25.25 0 0 1 .103.053.09.09 0 0 1-.011.143.2.2 0 0 1-.067.027l-.076.014zm.1 1.311a.3.3 0 0 1 .072.025q.034.017.065.036.03.019.065.034.033.016.072.022c.043.007.12.006.21.004s.194-.002.286.006c.091.01.175.027.224.063.048.035.067.089.029.168a.25.25 0 0 1-.123.13c-.048.02-.1.02-.156.011a1 1 0 0 1-.166-.047 1 1 0 0 0-.157-.047 3 3 0 0 1-.196-.043.8.8 0 0 1-.187-.071c-.053-.03-.091-.068-.102-.116-.01-.047.006-.105.062-.176zm-.51-.805.014-.045.015-.046.014-.046.014-.047.151.059a88 88 0 0 0 .813.314c0-.009.043.009.119.035s.182.06.306.088c.125.027.27.044.42.035.151-.01.308-.044.459-.123q.024-.016.04-.056a.5.5 0 0 0 .025-.096q.011-.054.025-.106a.4.4 0 0 1 .033-.09q.04.015.076.038a.33.33 0 0 1 .115.121q.018.037.022.078c.008.099-.007.164-.036.21a.26.26 0 0 1-.123.096c-.05.022-.107.037-.161.057a.36.36 0 0 0-.148.095.3.3 0 0 0-.077.008l-.07.019-.07.019a.4.4 0 0 1-.071.01 3.4 3.4 0 0 1-.713-.05 3.4 3.4 0 0 1-.601-.16 2 2 0 0 1-.421-.212c-.104-.072-.164-.143-.17-.202zm1.415-.28s.01-.01.029-.022l.065-.048q.038-.025.068-.048l.036-.025v-.015c.043 0 .1.002.161.008a.7.7 0 0 1 .179.036c.054.018.099.044.123.082.025.037.028.085 0 .147a.21.21 0 0 1-.144.116.4.4 0 0 1-.204-.006.6.6 0 0 1-.196-.09.3.3 0 0 1-.117-.136m1.209-.852-.008.003-.007.004-.009.004q-.004 0-.007.003a.18.18 0 0 1-.14-.013.6.6 0 0 1-.13-.094l-.12-.12a.5.5 0 0 0-.112-.088c-.048-.024-.12-.047-.195-.074A1.5 1.5 0 0 1 8.071 6c-.064-.036-.112-.08-.127-.134-.014-.053.007-.117.082-.196a.6.6 0 0 1 .179.03q.068.026.113.066c.033.027.062.059.098.091a1 1 0 0 0 .13.101c.025.016.084.042.152.074s.147.072.215.116a.4.4 0 0 1 .15.148c.023.055.015.111-.046.169zm-.897-.089.073.06.073.061.073.06.074.06a.5.5 0 0 0 .138.055c.045.012.086.02.115.035q.046.019.04.068a.4.4 0 0 1-.085.158.4.4 0 0 1-.1-.014 1 1 0 0 1-.087-.032l-.085-.038a1 1 0 0 0-.09-.03q-.131-.03-.256-.054a4 4 0 0 1-.243-.056 2 2 0 0 1-.23-.078 1.2 1.2 0 0 1-.217-.124v-.015c-.066 0-.117.002-.161.001a1 1 0 0 1-.111-.009.4.4 0 0 1-.098-.037 1 1 0 0 1-.123-.082q-.014 0-.045-.028c-.02-.016-.046-.04-.071-.063a1 1 0 0 1-.066-.066q-.028-.032-.029-.041.03-.02.07-.04a.3.3 0 0 1 .209-.029q.065.013.151.063a2 2 0 0 1 .457.056q.103.025.205.056l.21.063.051.01.053.012.051.011.052.01zm-1.084-.916a.23.23 0 0 1-.116.016.3.3 0 0 1-.1-.032q-.046-.024-.093-.046a.3.3 0 0 0-.1-.03l-.073-.006-.074-.007-.074-.007-.074-.008a.5.5 0 0 1-.16-.076.3.3 0 0 1-.095-.115.15.15 0 0 1 .002-.13.28.28 0 0 1 .129-.121v-.015c.035.01.095.029.167.054.07.025.155.054.238.085.081.032.162.064.226.095a.5.5 0 0 1 .134.08q.067.001.108.032.041.03.052.075a.12.12 0 0 1-.012.087.16.16 0 0 1-.085.069m3.783-.792c-.037.028-.086.03-.14.015a.6.6 0 0 1-.17-.086.8.8 0 0 1-.144-.13.26.26 0 0 1-.067-.118.1.1 0 0 1 .002-.047.2.2 0 0 1 .018-.039.2.2 0 0 1 .027-.035l.03-.033a.7.7 0 0 1 .156.062c.065.033.136.076.196.123s.11.1.13.15c.022.05.014.097-.038.138m-.483-.97q-.002.023-.03.016a.3.3 0 0 1-.067-.029q-.039-.022-.073-.044-.032-.023-.042-.032a1 1 0 0 0-.102-.08l-.107-.066-.107-.062-.106-.068-.117-.085q-.058-.045-.115-.085-.057-.042-.117-.08a2 2 0 0 0-.125-.073l-.09-.04q-.045-.022-.091-.042l-.091-.04-.092-.041-.108-.091-.108-.091-.108-.09q-.053-.047-.107-.092 0-.018.013-.037a.2.2 0 0 1 .032-.036l.038-.032.035-.022v-.015q.141.031.243.08.1.046.183.11.083.062.167.136t.194.157l.127.08.143.09q.07.046.122.075a.3.3 0 0 0 .06.03.4.4 0 0 0 .083.08c.05.043.117.097.185.159.067.06.137.126.191.189a.4.4 0 0 1 .101.173h-.011l-.005-.002zm-.47 1.139c.043 0 .098.027.158.071s.125.104.185.168.115.133.154.194c.04.061.066.115.069.15a.2.2 0 0 1-.01.072.2.2 0 0 1-.03.057q-.02.026-.042.051-.022.026-.041.057a.1.1 0 0 1-.033-.007.1.1 0 0 1-.03-.017q-.015-.01-.027-.022l-.022-.023-.016-.036-.016-.036-.015-.037-.015-.036-.043-.043-.044-.044-.043-.044q-.021-.02-.043-.044a1 1 0 0 0-.117-.076q-.062-.032-.127-.063-.066-.03-.129-.064a.7.7 0 0 1-.119-.083l-.016-.017-.016-.016-.016-.018-.016-.018a.15.15 0 0 1-.018-.068q0-.033.01-.065a.4.4 0 0 1 .028-.06q.017-.03.037-.057a.8.8 0 0 1 .323.108q.048.027.084.065zM6.412 3.78a.5.5 0 0 1-.14-.036 2 2 0 0 1-.36-.191.3.3 0 0 1-.09-.09.1.1 0 0 1-.026-.052.1.1 0 0 1 .003-.06.1.1 0 0 1 .04-.05.15.15 0 0 1 .082-.02c.015 0 .05.013.092.033s.095.047.146.074c.052.027.104.054.146.074q.066.031.092.033c0 .014.044.027.112.042l.245.053c.09.02.18.046.25.077.069.03.117.069.121.115.006.052-.029.085-.087.106a.6.6 0 0 1-.222.018 1 1 0 0 1-.244-.044.34.34 0 0 1-.159-.083zm-.145.706a1 1 0 0 1-.23.057q-.121.014-.248.02-.126.002-.257.002-.129 0-.258.01a3 3 0 0 0-.246.033q-.137.023-.281.05a3 3 0 0 1-.281.035 1 1 0 0 1-.243-.011l-.035-.012q-.018-.008-.035-.02a.1.1 0 0 1-.03-.027.1.1 0 0 1-.014-.03l.005-.015.006-.015.005-.016.006-.015a.2.2 0 0 1 .105-.051.6.6 0 0 1 .136-.013l.143.002q.07.003.13-.004l.111-.028.112-.028.111-.028.112-.028.136-.003.135-.004.135-.004.135-.003.087-.019q.042-.012.086-.022a.5.5 0 0 1 .089-.012.3.3 0 0 1 .097.014q.011-.01.022-.016l.02-.016.021-.016.02-.015v-.015a.47.47 0 0 1 .263.094c.03.026.047.056.039.085-.01.03-.042.058-.109.084M5.49 3.94a.2.2 0 0 1-.076.055.4.4 0 0 1-.096.022l-.102.01a.4.4 0 0 0-.095.02l-.039.005-.038.004-.039.003-.038.004-.037.004q-.02.001-.038.004l-.038.003-.039.004-.147.004c-.063 0-.133.002-.2-.004a.6.6 0 0 1-.17-.033c-.042-.019-.066-.046-.057-.086.005-.024.058-.044.137-.062a3 3 0 0 1 .295-.045c.108-.014.223-.025.318-.037.096-.013.172-.024.21-.036l.027-.016.015-.009.014-.008a1 1 0 0 1 .09.012.4.4 0 0 1 .1.033c.03.015.055.034.065.059q.014.037-.023.088zM4.287 5.97c.06-.002.103.099.128.248.025.15.033.35.025.546-.007.197-.03.39-.066.53s-.085.224-.145.2c-.029-.004-.048-.028-.063-.063a.5.5 0 0 1-.028-.13l-.013-.153a1 1 0 0 0-.015-.125Q4.1 7.021 4.098 7l.003-.051.008-.059q.005-.028.006-.045c.001-.085.002-.182.007-.28.004-.097.01-.194.023-.281a1 1 0 0 1 .052-.221c.022-.056.051-.09.09-.093m8.126-1.486.025.02.025.02.026.019.025.02.079.061q.044.036.083.076a.5.5 0 0 1 .064.084.13.13 0 0 1 .019.084.2.2 0 0 1-.05.04.1.1 0 0 1-.066-.002.4.4 0 0 1-.107-.063 2 2 0 0 1-.174-.145 8 8 0 0 0-.257-.194l-.498-.369a33 33 0 0 1-.493-.372 1.7 1.7 0 0 1-.24-.205.1.1 0 0 1-.015-.04.2.2 0 0 1-.005-.045l.002-.046q.002-.023.006-.043c.037-.033.089-.033.149-.012s.13.065.2.12c.072.054.145.12.213.184.069.065.132.13.186.181 0 .008.049.051.123.111a16 16 0 0 0 .547.424 1 1 0 0 0 .133.092m-4.9-3.2c.078 0 .205.026.354.066s.32.094.49.153c.17.06.338.121.479.18s.254.108.315.144q.088.052.164.112l.15.121q.074.06.155.12.08.054.181.1a.5.5 0 0 0 .086.028q.045.01.09.017l.091.014a1 1 0 0 1 .092.022l.059.039.059.04.06.04.058.04q.045.02.094.031a4 4 0 0 0 .196.04 1 1 0 0 1 .097.03l.041.03.042.029.04.03.042.03a.09.09 0 0 1-.043.076.3.3 0 0 1-.102.037c-.04.007-.082.01-.118.014q-.059.005-.094.014a.5.5 0 0 1-.12-.02 1 1 0 0 1-.128-.046l-.125-.055a1 1 0 0 0-.112-.047 3 3 0 0 0-.163-.053l-.145-.045a1.3 1.3 0 0 1-.291-.133l-.066-.05-.065-.052-.066-.05-.067-.052-.11-.053-.112-.053-.111-.053-.112-.053-.046-.034-.046-.035-.046-.034-.045-.034-.045-.019-.045-.018-.045-.019-.046-.019a.8.8 0 0 1-.222-.064 3 3 0 0 1-.323-.154 1.7 1.7 0 0 1-.28-.186c-.072-.061-.112-.12-.096-.165m.257 1.438v-.015h.118q0 .01.012.02a.3.3 0 0 0 .064.028q.016.006.028.008.106.026.192.064.087.037.165.083t.157.097q.078.052.168.106l.062.034c.022.012.043.02.063.033l.063.032q.03.017.063.033.065.001.14.048.076.046.154.112l.15.127a.7.7 0 0 0 .132.09l.012.004.012.004.014.004.013.004q.01.001.015.025a.3.3 0 0 1 .003.058l-.001.063-.002.044h-.015q-.002.024-.03.016a.3.3 0 0 1-.065-.03 1 1 0 0 1-.11-.08c-.008 0-.089-.041-.205-.103s-.269-.144-.42-.227l-.419-.232a2 2 0 0 1-.195-.117.37.37 0 0 1-.195-.053L7.83 2.96a.3.3 0 0 0-.095-.03v-.014q-.02-.002-.021-.027a.26.26 0 0 1 .025-.124q.015-.03.031-.04zm-1.367-.54a3 3 0 0 1 .42.057q.105.025.2.06a1 1 0 0 1 .177.088.1.1 0 0 1-.015.039.3.3 0 0 1-.082.066l-.038.021q0 .01-.007.011a.04.04 0 0 1-.019.001q-.01 0-.023-.004l-.02-.003c-.056-.006-.132-.01-.213-.02a1.3 1.3 0 0 1-.236-.044c-.072-.023-.13-.053-.16-.098-.03-.042-.031-.1.015-.175zm-2.573.448.042-.017.043-.016.042-.017.042-.017h.439q.218 0 .433.002.216.004.427.016t.415.036q.06.008.113.023.056.016.108.036l.105.041q.052.02.107.036c.075.022.182.048.299.08.117.033.248.07.37.116.121.045.234.1.32.163.087.064.146.138.158.224h-.015c0 .017-.024.022-.063.022-.038 0-.09-.007-.146-.016l-.165-.027a1 1 0 0 0-.12-.01c0-.025-.048-.053-.12-.081a4 4 0 0 0-.272-.089l-.283-.082a.5.5 0 0 1-.157-.065c-.087 0-.187-.017-.29-.042-.105-.025-.217-.055-.329-.081a3 3 0 0 0-.328-.063.8.8 0 0 0-.295.02c-.033 0-.127.006-.245.011s-.26.007-.385.002c-.126-.006-.236-.021-.29-.054-.055-.03-.055-.079.04-.152m.15 2.745a.4.4 0 0 1-.064.133c-.038.06-.09.134-.144.206a6 6 0 0 1-.16.202 2 2 0 0 1-.106.12.25.25 0 0 1-.033.116.4.4 0 0 1-.082.106.3.3 0 0 1-.11.067.16.16 0 0 1-.115-.003v-.015q-.011-.001-.015-.014t-.003-.032l.004-.037q.001-.016.005-.027a.2.2 0 0 1 .02-.058l.03-.05.035-.05a.2.2 0 0 0 .026-.053l.015-.122.007-.062.008-.06a.4.4 0 0 1 .08-.14c.044-.056.097-.118.154-.178.056-.061.115-.122.165-.174s.092-.095.116-.123a.3.3 0 0 1 .083-.04q.042-.012.073.006.031.02.037.085a.7.7 0 0 1-.025.199zM2.9 7.282q-.02.03-.046.074l-.06.095q-.03.049-.066.095a1 1 0 0 1-.065.076.3.3 0 0 0-.033.109l-.042.2a1.3 1.3 0 0 1-.058.2c-.023.057-.05.098-.082.111l-.055.01q-.021.002-.034-.003l-.023-.013-.018-.02c-.029-.029-.038-.092-.035-.172s.017-.177.038-.273.05-.191.077-.268a.4.4 0 0 1 .08-.156q.004 0 .014-.007l.021-.014.022-.015.013-.007q0-.07.007-.116a.3.3 0 0 1 .027-.083 1 1 0 0 1 .053-.084l.088-.117a.5.5 0 0 1 .096-.076.13.13 0 0 1 .07-.02q.029.004.053.021t.047.045a.3.3 0 0 1 .021.086.2.2 0 0 1-.01.073.2.2 0 0 1-.039.065l-.06.063q.002.01.009.024.005.014.008.03a.1.1 0 0 1 0 .033.1.1 0 0 1-.02.036zm.03.76a.3.3 0 0 1 .048.013l.045.016a.1.1 0 0 1 .039.026.3.3 0 0 1 .033.037c.007.012.02.047.036.092a3 3 0 0 1 .113.43 1 1 0 0 1-.013.105l-.021.103a1 1 0 0 0-.012.104q-.003.055.014.114.014.05.046.091.031.042.068.084a1 1 0 0 1 .068.084.3.3 0 0 1 .06.183l.004.086a.3.3 0 0 0 .017.081q.014.039.05.07.002.047.022.087a.3.3 0 0 0 .055.073q.032.034.069.067l.07.064c.063.065.134.145.2.234.067.088.131.186.18.286a.9.9 0 0 1 .092.305.5.5 0 0 1-.06.29.1.1 0 0 1-.053-.016.3.3 0 0 1-.051-.037.5.5 0 0 1-.081-.088.2.2 0 0 1-.028-.061q-.007-.035-.009-.07-.001-.037-.005-.071a.2.2 0 0 0-.02-.063l-.049-.078-.047-.078-.048-.078-.048-.078-.053-.055-.055-.055-.053-.054-.055-.055a2 2 0 0 1-.076-.122l-.072-.121q-.035-.06-.08-.119a.7.7 0 0 0-.101-.108l-.015-.004q-.006-.004-.007-.011-.002-.007-.002-.015t-.002-.015l-.028-.06-.028-.06-.028-.06-.028-.061a1.4 1.4 0 0 1-.035-.193 3 3 0 0 1-.016-.195l-.011-.196a2 2 0 0 0-.02-.199.7.7 0 0 0-.051-.168q-.034-.077-.057-.15a.3.3 0 0 1-.007-.154.4.4 0 0 1 .096-.178zm.49-1.296.03-.052.043-.075.041-.074.031-.052c.046.023.08.093.105.192.025.098.042.225.054.36s.02.276.025.404.009.244.015.326a.4.4 0 0 1-.028.17.07.07 0 0 1-.066.04c-.024.001-.05-.01-.073-.014s-.041-.007-.053.007c-.046 0-.077-.069-.1-.174a2.4 2.4 0 0 1-.043-.392 6 6 0 0 1-.002-.418 2 2 0 0 1 .022-.247zm-.347-2.117v-.016q.1.003.187.025a.3.3 0 0 1 .136.065c.032.029.049.064.042.107s-.034.093-.093.151H3.31q0-.01-.011-.007l-.025.01-.03.02-.025.012-.124.046-.125.044-.125.045-.125.045q-.042.021-.083.047l-.08.05a1 1 0 0 1-.084.046.4.4 0 0 1-.09.032.2.2 0 0 1-.046.002q-.022-.003-.042-.01a.16.16 0 0 1-.067-.051c-.038-.052-.012-.114.05-.18s.16-.135.267-.2.222-.126.32-.175l.208-.106zm-1.01 2.055v-.015q-.014-.001-.017-.028a.6.6 0 0 1 .01-.133l.009-.043q.035-.148.111-.278t.174-.247q.099-.119.208-.233.107-.114.209-.23l.007-.01.008-.009.007-.009.007-.01a.3.3 0 0 1 .12.05q.036.03.04.073a.3.3 0 0 1-.007.095c-.005.035-.014.073-.018.114a.1.1 0 0 0-.036.013c-.012.007-.022.02-.033.03l-.028.037-.022.03-.001.004-.001.004-.001.003v.004q-.066.07-.125.138-.06.068-.112.137a1 1 0 0 0-.095.144q-.042.075-.074.163c0 .024-.017.049-.042.071a.5.5 0 0 1-.099.063 1 1 0 0 1-.2.072m1.185 4.525a.28.28 0 0 1-.201-.05.5.5 0 0 1-.136-.162 2 2 0 0 1-.097-.198 1 1 0 0 0-.083-.163l-.048-.058-.05-.056a.4.4 0 0 1-.04-.06.2.2 0 0 1-.02-.07.03.03 0 0 1-.023-.009l-.016-.022-.01-.027-.007-.024-.006-.105-.007-.105q-.004-.052-.006-.106L2.49 9.89l-.041-.07q-.02-.036-.042-.071l-.085-.141a1 1 0 0 1-.019-.117 17 17 0 0 1-.045-.437 1 1 0 0 1-.005-.11l.037-.045.038-.045.037-.044.038-.044a.37.37 0 0 1 .139.181c.032.079.054.173.069.27s.026.199.037.292c.012.094.023.18.042.248l.046.06.045.06.046.06.046.061a.3.3 0 0 1 .031.072l.02.077.02.077a.3.3 0 0 0 .036.07l.1.215c.026.058.051.119.07.174.02.053.033.102.034.131.013 0 .04.023.067.057s.058.08.078.126c.02.047.03.095.02.133s-.04.067-.102.074zm1.408 1.508c-.057.063-.117.082-.176.076a.35.35 0 0 1-.174-.085 1.3 1.3 0 0 1-.15-.15 1 1 0 0 0-.11-.116 8 8 0 0 1-.146-.238 2 2 0 0 1-.07-.146 6 6 0 0 1-.1-.24l-.052-.037a1 1 0 0 1-.106-.086.3.3 0 0 1-.083-.104c-.015-.035-.013-.067.019-.093a.4.4 0 0 1 .12-.022q.053 0 .095.015.043.016.081.041l.078.051a.7.7 0 0 1 .157.15q.072.09.131.194.06.106.12.204.059.098.121.174l.064.064.064.065.063.065q.033.032.064.065a.1.1 0 0 1 .014.038.15.15 0 0 1-.002.083l-.02.033zm.31-.751a.1.1 0 0 1-.02.04.1.1 0 0 1-.029.02l-.034.006-.035.001c-.027 0-.06-.029-.094-.072a1.7 1.7 0 0 1-.186-.34.5.5 0 0 1-.033-.11v-.061a.2.2 0 0 1 .011-.05.2.2 0 0 1 .028-.045.3.3 0 0 1 .054-.046.15.15 0 0 1 .12.01q.056.03.102.112.046.081.076.215.03.132.041.318zm5.046 1.363q0 .01-.005.014-.004.004-.012.004l-.017-.002-.018-.002q-.154 0-.296-.028a2 2 0 0 1-.275-.07 6 6 0 0 1-.264-.09 7 7 0 0 0-.261-.091l-.082-.01-.081-.009-.082-.01-.08-.008-.132-.033-.13-.032-.132-.033-.131-.032-.037-.019-.036-.02-.037-.019-.036-.02a1 1 0 0 0-.153-.022l-.148-.009a1 1 0 0 1-.143-.016.5.5 0 0 1-.135-.048l-.215-.116-.216-.12a8 8 0 0 1-.418-.252l-.074-.064-.074-.063-.074-.063-.075-.063a1 1 0 0 0-.086-.05 1 1 0 0 0-.096-.04q-.048-.018-.098-.033l-.098-.033a.6.6 0 0 1-.11-.09 8 8 0 0 1-.419-.422 1 1 0 0 1-.109-.13l-.018-.072-.02-.072q-.008-.037-.018-.073l-.019-.072v-.015a1 1 0 0 1-.096-.078 1 1 0 0 1-.082-.086l-.074-.09q-.036-.045-.077-.088a.6.6 0 0 0-.087-.076l-.094-.067-.095-.068a.6.6 0 0 1-.086-.08 2 2 0 0 1-.1-.122l-.098-.128a2 2 0 0 0-.102-.124 1 1 0 0 0-.113-.113h-.015a1.2 1.2 0 0 0-.14-.33c-.069-.123-.148-.255-.214-.386a1 1 0 0 1-.117-.382.38.38 0 0 1 .148-.323l.038.02.039.02.038.019.039.02.02.036.019.037.02.038.02.037q.047.063.069.144c.015.054.022.11.029.168l.016.174a1 1 0 0 0 .032.163l.04.046.04.047.04.045.04.046q.038.048.072.102.035.053.067.108.033.055.063.112l.057.109.006.021.005.022.004.021.003.022.04.03.04.03q.021.014.041.03l.04.029.085.063.087.061q.043.03.087.065a1 1 0 0 1 .14.14l.05.069.053.067q.03.032.068.057.046.027.102.05l.115.044a1 1 0 0 1 .107.054q.049.03.08.076.012.021.016.042a.1.1 0 0 1-.002.041.2.2 0 0 1-.041.076l.004.016.004.016.003.016.004.015q-.022.002-.034.023a.14.14 0 0 0-.014.052.3.3 0 0 0 0 .058.1.1 0 0 0 .01.044.5.5 0 0 0 .095.13 1 1 0 0 0 .133.107q.073.048.148.088l.14.074.06.047.06.047.06.048.06.047q.046.03.097.052a2 2 0 0 0 .207.078q.053.019.105.04.045.018.083.043t.076.051l.075.052a1 1 0 0 0 .081.047l.09.035.09.034.09.034.09.035.172.086.171.086.172.086.171.087q.03.01.063.007a.4.4 0 0 0 .06-.009l.062-.015a.3.3 0 0 1 .143.003q.039.01.073.025.035.014.069.032l.068.033.047.015.047.015.047.014.047.015q.066.023.13.017a1 1 0 0 0 .126-.02q.063-.016.124-.025a.3.3 0 0 1 .128.006l.006.002.006.002.005.002.095.078.095.077.094.078.095.077.073.033.073.032q.037.014.073.032l.073.031.031.033q.013.016.02.034.01.017.015.038l.011.045h-.012q-.004.004-.006.003zm3.21-7.229.096.08.095.082.095.08.095.082.049.02.048.018.048.02.047.019a1.2 1.2 0 0 1 .251.248q.049.065.095.132.046.068.1.138.024.026.05.05a.4.4 0 0 1 .048.054q.024.03.043.076.02.046.036.12c.02.152.04.25.06.317.02.068.039.104.06.135.022.03.045.054.073.095.027.042.057.1.091.2q.03.123.039.232a2 2 0 0 1-.002.4l-.023.183q0 .078.015.151l.025.143a.7.7 0 0 1 .01.138.4.4 0 0 1-.032.136 2 2 0 0 0-.056.12l-.12.27c-.045.1-.093.203-.134.284a.7.7 0 0 1-.097.162c-.23.337-.452.616-.657.846q-.31.343-.56.553a4 4 0 0 1-.42.315 2 2 0 0 1-.232.132l-.086.037a2 2 0 0 1-.13.046l-.055.014a1 1 0 0 0-.097.054l-.096.058q-.049.03-.098.054a.6.6 0 0 1-.219.055l-.116.009q-.057.004-.115.011a.6.6 0 0 0-.109.025l-.096.03-.081.024-.06.017-.033.007a1 1 0 0 0-.175.045q-.096.032-.199.075a4 4 0 0 1-.207.077 1.3 1.3 0 0 1-.2.052q-.062-.004-.134-.011a1 1 0 0 1-.14-.023.4.4 0 0 1-.112-.041c-.029-.019-.05-.041-.055-.07-.008-.044.027-.076.085-.1a1 1 0 0 1 .222-.045c.082-.009.166-.012.232-.014l.118-.001a.2.2 0 0 0 .075-.024q.028-.016.054-.04a.7.7 0 0 1 .195-.116l.103-.027.085-.018q.039-.008.078-.012l.083-.01a1 1 0 0 0 .1-.04q.047-.023.095-.05a2 2 0 0 1 .193-.094 1 1 0 0 1 .19-.043l.06-.006.04-.006.085-.038.085-.038.085-.038.086-.037a1 1 0 0 1 .125-.038l.124-.027q.061-.013.122-.03a.5.5 0 0 0 .12-.052l.054-.046.05-.047a1 1 0 0 1 .138-.117q.053-.04.123-.096a3 3 0 0 0 .375-.357c.079-.087.167-.19.265-.318a1 1 0 0 0 .053-.092l.067-.143.084-.184q.045-.102.103-.215.057-.086.094-.145l.066-.101.053-.077.06-.072a1 1 0 0 0 .043-.12q.016-.059.025-.119l.015-.124.015-.134a4 4 0 0 0 .053-.183l.027-.092.027-.092a.7.7 0 0 0 .005-.161.6.6 0 0 0-.022-.123q-.016-.053-.037-.106-.02-.051-.038-.11l-.025-.068a2 2 0 0 0-.066-.16.3.3 0 0 0-.034-.058q-.036-.05-.073-.096t-.073-.093a1 1 0 0 1-.12-.2l-.011-.09-.01-.091-.012-.091q-.004-.045-.011-.091-.01-.027-.024-.05t-.032-.043a.3.3 0 0 1-.028-.045.2.2 0 0 1-.014-.056.5.5 0 0 1-.107-.12 11 11 0 0 1-.199-.267c-.072-.098-.146-.2-.208-.279a1 1 0 0 0-.133-.156q-.016 0-.018-.028a.6.6 0 0 1 .021-.133zm-.044.765q.055.038.12.078.066.04.128.084.063.044.117.093a.5.5 0 0 1 .09.108.3.3 0 0 1 .03.082 1 1 0 0 1 .01.089l.007.09a1 1 0 0 0 .015.09l.045.123.045.124.045.123.045.123.004.177.003.177.004.177.005.177a.15.15 0 0 0 .032.073q.026.034.056.064.031.032.055.067a.2.2 0 0 1 .03.083.1.1 0 0 1-.034.088l-.028.021q0 .064-.005.114a.47.47 0 0 1-.115.266q-.01 0-.012.009t.001.021l.007.026.005.023-.016.004-.017.004-.017.003-.017.004q0 .089-.017.16a.4.4 0 0 1-.051.127.6.6 0 0 1-.086.11 2 2 0 0 1-.118.109l.004.015.004.016q0 .008.003.016l.004.016-.063.055-.063.056-.064.055-.064.055v.014l-.013.002q-.004.002-.004.006l.001.01v.01a.2.2 0 0 1-.025.076.6.6 0 0 1-.18.195c-.001.057-.038.127-.098.203-.059.076-.14.156-.227.232a3 3 0 0 1-.268.202 1 1 0 0 1-.217.114.2.2 0 0 1-.06.007.5.5 0 0 1-.139-.018l-.06-.016-.045.032-.047.032-.047.031q-.023.014-.046.032v-.015l-.027.013-.027.012-.027.012-.027.012-.128.04-.135.042a1.2 1.2 0 0 1-.277.042l-.03.015-.03.015-.03.016-.03.016h-.119l-.119.001h-.238a.2.2 0 0 1-.064-.015l-.072-.038-.066-.047-.052-.04h-.017v-.031a.1.1 0 0 0 .051-.02l.055-.048q.03-.028.059-.05a.2.2 0 0 1 .06-.03l.1-.005.1-.006.1-.005.101-.006a1 1 0 0 0 .172-.04 1.8 1.8 0 0 0 .367-.168 1 1 0 0 0 .137-.103.6.6 0 0 0 .074-.09q.032-.047.06-.096.03-.049.062-.093a.4.4 0 0 1 .079-.08q0-.051.034-.102a.6.6 0 0 1 .081-.097q.05-.047.1-.088t.09-.075h.016q0-.021.003-.038a.1.1 0 0 1 .01-.032q.006-.015.016-.029l.023-.028a.02.02 0 0 0 .015-.007l.006-.015v-.018l.002-.017q.008-.033.015-.073l.014-.083.016-.082a.4.4 0 0 1 .024-.076l.033-.08.035-.074a.5.5 0 0 0 .044-.17c.007 0 .024-.018.045-.046.022-.028.048-.066.076-.105s.057-.08.084-.112a.3.3 0 0 1 .067-.067.5.5 0 0 0-.014-.112l-.03-.106a1 1 0 0 1-.025-.103.4.4 0 0 1-.006-.104.2.2 0 0 1 .016-.058.3.3 0 0 1 .03-.046l.035-.044a.2.2 0 0 0 .03-.049l.003-.054.004-.054.004-.053.003-.054q-.005-.012-.012-.022l-.012-.022-.012-.021-.013-.02-.006-.052-.005-.052-.006-.052-.007-.052-.012-.03-.012-.028-.013-.029q-.007-.014-.012-.03l-.005-.06-.005-.06-.006-.061-.006-.06a.2.2 0 0 0-.043-.074l-.058-.06a.2.2 0 0 1-.048-.067.2.2 0 0 1-.013-.09q.01-.075.056-.1a.17.17 0 0 1 .108-.016.4.4 0 0 1 .21.113q.008.014.014.032.008.016.013.033.007.014.013.032l.013.032q-.011 0-.01.008 0 .007.009.018l.03.04a1 1 0 0 1 .149.397.8.8 0 0 1 .004.22.6.6 0 0 1-.063.201q-.01 0-.012.018a.3.3 0 0 0 .005.09l.004.034c.003.112.01.224.01.333q.003.165-.017.32a1 1 0 0 1-.08.288.7.7 0 0 1-.183.243q0 .045.003.085l-.001.077a.2.2 0 0 1-.02.072.2.2 0 0 1-.05.066.3.3 0 0 1-.032.131.4.4 0 0 1-.08.102q-.047.046-.098.091a1 1 0 0 0-.096.101l-.017.033-.034.063-.017.031-.015.038-.015.037q-.01.02-.016.037l-.017.037a.6.6 0 0 1-.096.107c-.041.039-.086.08-.122.123-.035.043-.06.084-.063.125-.001.041.022.08.083.114q.015.01.03.01.015.002.03 0a.2.2 0 0 0 .057-.023.7.7 0 0 0 .117-.093q.052-.052.095-.108t.089-.111q.043-.056.097-.105a1 1 0 0 1 .104-.084l.106-.074q.053-.037.104-.078a1 1 0 0 0 .096-.094l.034-.067.033-.067.034-.067.034-.066q.002-.019.024-.054l.056-.08.061-.082a.4.4 0 0 0 .04-.063.6.6 0 0 0 .03-.113l.018-.11a.3.3 0 0 1 .033-.102.3.3 0 0 1 .079-.09q0-.03-.004-.062l-.005-.062q-.002-.03 0-.06a.2.2 0 0 1 .016-.058 1 1 0 0 1 .05-.09l.056-.08a.4.4 0 0 0 .046-.086.3.3 0 0 0 .024-.103 1 1 0 0 0-.005-.14 2 2 0 0 0-.019-.131l-.022-.126q-.011-.061-.016-.125l-.002-.119-.002-.118-.002-.119-.002-.119-.01-.04-.012-.039-.011-.039-.012-.038a.05.05 0 0 1-.032-.012.13.13 0 0 1-.042-.057q-.007-.016-.01-.027l-.042-.076-.041-.076-.042-.075-.04-.075-.029-.072-.023-.071-.028-.069a.3.3 0 0 0-.038-.064l-.119-.15-.118-.15-.118-.15-.118-.151a.2.2 0 0 1-.01-.05.15.15 0 0 1 .023-.09.3.3 0 0 1 .029-.04.4.4 0 0 1 .109.064q.045.04.084.084l.077.093q.038.046.085.09.004.001.013.019l.026.041.029.046q.017.023.028.03zm-.464-1.059a.3.3 0 0 1-.014.137.17.17 0 0 1-.064.076.2.2 0 0 1-.083.034.4.4 0 0 1-.076.01c0-.101-.07-.21-.172-.33-.102-.118-.235-.245-.362-.381a2 2 0 0 1-.322-.435.65.65 0 0 1-.053-.49c.023.033.075.097.145.177l.238.268c.084.095.17.188.238.267s.122.143.143.176a.6.6 0 0 0 .094.098q.059.05.12.106a.7.7 0 0 1 .109.128q.046.07.059.16M12.4 14.22a.62.62 0 0 1 .188-.446.66.66 0 0 1 .701-.135.64.64 0 0 1 .388.58.64.64 0 0 1-.185.449.63.63 0 0 1-.7.134.63.63 0 0 1-.393-.582m1.177 0a.54.54 0 0 0-.158-.38.527.527 0 0 0-.761 0 .55.55 0 0 0-.16.38.5.5 0 0 0 .044.21.56.56 0 0 0 .289.291.53.53 0 0 0 .588-.118.56.56 0 0 0 .158-.383m-.68.34-.013-.003-.011-.002-.011-.002h-.024l-.012.002-.011.002-.01.002v-.679h.225q.063 0 .107.01a.2.2 0 0 1 .073.029.13.13 0 0 1 .043.047q.014.03.014.066a.14.14 0 0 1-.02.075.2.2 0 0 1-.049.055.3.3 0 0 1-.07.037.4.4 0 0 1-.08.02l.054.066.056.064.055.065.056.065.012.014.037.042.005.006.005.007.005.006.006.007-.016-.002q-.008 0-.015-.002l-.014-.002h-.03l-.015.002-.015.002-.015.002-.017-.022-.017-.023-.017-.02q-.007-.011-.016-.021l-.127-.152-.02-.023-.022-.023-.02-.023-.02-.023H12.9v.329zm0-.384h.115a.2.2 0 0 0 .118-.037.12.12 0 0 0 .042-.094.1.1 0 0 0-.007-.046.1.1 0 0 0-.022-.034.1.1 0 0 0-.038-.022.2.2 0 0 0-.052-.01h-.156z"/></svg>