<svg xmlns="http://www.w3.org/2000/svg" width="16" height="16" fill="none" viewBox="0 0 16 16"><path fill="#444f5c" fill-rule="evenodd" d="M11.148 4.6a.5.5 0 0 0 .6.8l1.199-.9-.004 6.989-1.195-.897a.5.5 0 1 0-.6.8l1.955 1.467a.5.5 0 0 0 .34.133h.001a.5.5 0 0 0 .303-.1l2-1.5a.5.5 0 0 0-.6-.8l-1.204.903.004-6.995 1.2.9a.5.5 0 0 0 .6-.8L13.75 3.101a.5.5 0 0 0-.601-.001l-.006.004zM1.557 7.491l6.988.004-.9-1.2a.5.5 0 0 1 .8-.6l1.499 1.999a.5.5 0 0 1 0 .604l-1.498 1.998a.5.5 0 0 1-.8-.6l.9-1.2L1.55 8.49l.904 1.205a.5.5 0 0 1-.8.6l-1.5-2a.5.5 0 0 1-.1-.333.5.5 0 0 1 .131-.31l1.469-1.957a.5.5 0 1 1 .8.6z" clip-rule="evenodd"/></svg>