<svg xmlns="http://www.w3.org/2000/svg" width="16" height="16" fill="none" viewBox="0 0 16 16"><path fill="#444f5c" fill-rule="evenodd" d="M8 .998a2.667 2.667 0 0 0-2.667 2.667V8a2.667 2.667 0 1 0 5.335 0V3.665A2.667 2.667 0 0 0 8 .998M6.333 3.665a1.667 1.667 0 1 1 3.334 0V8a1.667 1.667 0 1 1-3.334 0z" clip-rule="evenodd"/><path fill="#444f5c" d="M4.165 8a.5.5 0 0 0-1 0c0 2.501 1.9 4.56 4.335 4.81v1.192H5.833a.5.5 0 0 0 0 1h4.335a.5.5 0 1 0 0-1H8.5V12.81A4.836 4.836 0 0 0 12.835 8a.5.5 0 1 0-1 0 3.835 3.835 0 1 1-7.67 0"/></svg>