<svg xmlns="http://www.w3.org/2000/svg" width="16" height="16" fill="none" viewBox="0 0 16 16"><path fill="#444f5c" d="M3.417 2.71a7 7 0 0 1 4.1-1.693.5.5 0 0 0-.017.126v1.714a.5.5 0 0 0 1 0V1.143a.5.5 0 0 0-.016-.126 7 7 0 0 1 4.1 1.692l-1.509 1.509a.5.5 0 0 0 .707.707l1.509-1.509A7 7 0 0 1 14.982 7.5h-1.268a.5.5 0 0 0 0 1h1.715l.035-.001A.503.503 0 0 0 16 8 8 8 0 0 0 0 8a.5.5 0 0 0 .536.499L.57 8.5h1.715a.5.5 0 0 0 0-1H1.018a7 7 0 0 1 1.691-4.084l1.509 1.509a.5.5 0 1 0 .707-.707zM5 10.375a.5.5 0 0 1 .5.5v4a.5.5 0 0 1-1 0v-4a.5.5 0 0 1 .5-.5m3.5 4.5v-2a1.5 1.5 0 0 1 3 0v2a.5.5 0 0 0 1 0v-2a2.5 2.5 0 0 0-4-2 .5.5 0 0 0-1 .005v3.995a.5.5 0 0 0 1 0"/></svg>