<svg xmlns="http://www.w3.org/2000/svg" width="16" height="16" fill="none" viewBox="0 0 16 16"><path fill="#444f5c" d="M7.516 1.017a7 7 0 0 0-4.1 1.692l1.509 1.509a.5.5 0 0 1-.707.707L2.709 3.416A7 7 0 0 0 1.018 7.5h1.268a.5.5 0 0 1 0 1H.57l-.035-.001A.5.5 0 0 1 0 8a8 8 0 1 1 16 0 .5.5 0 0 1-.536.499l-.036.001h-1.714a.5.5 0 0 1 0-1h1.268a7 7 0 0 0-1.691-4.084l-1.509 1.509a.5.5 0 1 1-.707-.707l1.509-1.509a7 7 0 0 0-4.1-1.692.5.5 0 0 1 .016.126v1.714a.5.5 0 0 1-1 0V1.143a.5.5 0 0 1 .016-.126"/><path fill="#444f5c" fill-rule="evenodd" d="M3.69 15.194c-1.395 0-2.261-1.048-2.261-2.315 0-1.258.866-2.306 2.26-2.306 1.413 0 2.27 1.048 2.27 2.306 0 1.267-.857 2.315-2.27 2.315m0-.847c.82 0 1.275-.684 1.275-1.468 0-.775-.456-1.458-1.276-1.458-.811 0-1.267.683-1.267 1.458 0 .784.456 1.468 1.267 1.468" clip-rule="evenodd"/><path fill="#444f5c" d="M10.395 15.085a.48.48 0 0 1-.479-.479v-.104a2.1 2.1 0 0 1-1.558.692c-.948 0-1.413-.492-1.413-1.394v-2.64a.479.479 0 1 1 .957 0v2.292c0 .684.346.894.884.894.483 0 .902-.274 1.13-.574V11.16a.479.479 0 0 1 .957 0v3.446a.48.48 0 0 1-.478.478m3.062.11c-.739 0-1.13-.4-1.13-1.13v-2.543h-.31a.42.42 0 1 1 0-.839h.31v-.724a.478.478 0 1 1 .956 0v.724h.474a.42.42 0 1 1 0 .84h-.474v2.305c0 .3.146.52.42.52l.067-.003c.175-.017.428.06.482.229.065.207.009.445-.194.524a1.7 1.7 0 0 1-.601.097"/></svg>