<svg xmlns="http://www.w3.org/2000/svg" width="16" height="16" fill="none" viewBox="0 0 16 16"><g fill="#444f5c" clip-path="url(#a)"><path d="M3.39 12.11a.5.5 0 1 0 0 1h9.22a.5.5 0 0 0 0-1z"/><path fill-rule="evenodd" d="M1.51.01a1.5 1.5 0 0 0-1.5 1.5v12.98a1.5 1.5 0 0 0 1.5 1.5h12.98a1.5 1.5 0 0 0 1.5-1.5V1.51a1.5 1.5 0 0 0-1.5-1.5zm-.5 1.5a.5.5 0 0 1 .5-.5h12.98a.5.5 0 0 1 .5.5v12.98a.5.5 0 0 1-.5.5H1.51a.5.5 0 0 1-.5-.5z" clip-rule="evenodd"/></g><defs><clipPath id="a"><path fill="#fff" d="M0 0h16v16H0z"/></clipPath></defs></svg>