<svg xmlns="http://www.w3.org/2000/svg" width="16" height="16" fill="none" viewBox="0 0 16 16"><path fill="#444f5c" fill-rule="evenodd" d="M10.019.679a1.5 1.5 0 0 1 1.11.009l2.438.995c.564.23.933.78.933 1.39v9.21a1.5 1.5 0 0 1-1.678 1.49l-2.062-.247a.5.5 0 0 0-.24.03l-4.513 1.756a1.5 1.5 0 0 1-1.175-.037l-2.463-1.143A1.5 1.5 0 0 1 1.5 12.77V3.59a1.5 1.5 0 0 1 1.759-1.478l1.981.347a.5.5 0 0 0 .267-.027zm-4.09 2.663 4.142-1.61v10.926L5.93 14.27zm-1 .078-1.843-.322a.5.5 0 0 0-.586.492v9.18a.5.5 0 0 0 .29.454l2.139.993zm8.012 9.36-1.87-.224V1.744l2.118.865a.5.5 0 0 1 .311.463v9.21a.5.5 0 0 1-.56.497" clip-rule="evenodd"/></svg>