<svg xmlns="http://www.w3.org/2000/svg" width="16" height="16" fill="none" viewBox="0 0 16 16"><g fill="#444f5c" clip-path="url(#a)"><path d="M11.814 2.354a.5.5 0 0 0-1 0v.226a1.217 1.217 0 0 0 .142 2.425h1.075a.217.217 0 0 1 0 .434H10.24a.5.5 0 1 0 0 1h.575v.217a.5.5 0 1 0 1 0V6.44h.217a1.217 1.217 0 0 0 0-2.434h-1.075a.217.217 0 1 1 0-.434h1.434a.5.5 0 0 0 0-1h-.576z"/><path fill-rule="evenodd" d="M6.993 4.505a4.501 4.501 0 1 1 9.003 0 4.501 4.501 0 0 1-9.003 0m4.502-3.501a3.501 3.501 0 1 0 0 7.003 3.501 3.501 0 0 0 0-7.003" clip-rule="evenodd"/><path d="M2 1.5a.5.5 0 0 0-.5.5v12.021c0 .486.638.666.892.252a1.48 1.48 0 0 1 2.416-.155l.352.438a.5.5 0 0 0 .736.048l.913-.876a1.5 1.5 0 0 1 2.189.12l.618.74a.5.5 0 0 0 .724.046l.88-.819a1.5 1.5 0 0 1 2.3.314l.054.087c.264.43.926.243.926-.261v-3.43a.5.5 0 1 1 1 0v3.43c0 1.513-1.987 2.074-2.778.784l-.054-.087a.5.5 0 0 0-.767-.105l-.88.819a1.5 1.5 0 0 1-2.172-.136l-.619-.74a.5.5 0 0 0-.73-.04l-.912.875a1.5 1.5 0 0 1-2.207-.142l-.352-.437a.48.48 0 0 0-.785.05C2.462 16.07.5 15.516.5 14.02V2A1.5 1.5 0 0 1 2 .5h4.09a.5.5 0 0 1 0 1z"/><path d="M4 8.5a.5.5 0 0 0 0 1h3a.5.5 0 0 0 0-1zm-.5 2.875a.5.5 0 0 1 .5-.5h5a.5.5 0 0 1 0 1H4a.5.5 0 0 1-.5-.5"/></g><defs><clipPath id="a"><path fill="#fff" d="M0 0h16v16H0z"/></clipPath></defs></svg>