<svg xmlns="http://www.w3.org/2000/svg" width="16" height="16" fill="none" viewBox="0 0 16 16"><g fill="#444f5c" clip-path="url(#a)"><path d="M9.735.848V.424A.435.435 0 0 0 9.292 0a.434.434 0 0 0-.442.424v.424H3.54V.424A.435.435 0 0 0 3.098 0a.436.436 0 0 0-.443.424v.424H0v10.051h12.39L12.391.848zm1.769 9.203H.884V1.697h1.77v.051c0 .233.199.424.443.424a.434.434 0 0 0 .442-.424v-.051h5.31v.051c0 .233.199.424.442.424a.436.436 0 0 0 .443-.424v-.051h1.77z"/><path d="M1.769 9.202h8.85V3.259l-8.85.001zm3.54-.848V6.656h1.77v1.698zm4.426 0h-1.77V6.656h1.77zm0-4.246v1.698h-1.77V4.108zm-2.656 0v1.698h-1.77V4.108zm-4.425 0h1.77v1.698l-1.77.001zm0 2.547h1.77v1.698l-1.77.001z"/><path d="M11.908 15.58a3.42 3.42 0 1 1 0-6.839 3.42 3.42 0 0 1 0 6.839m-1.238-4.157.739.739-.74.74-.022.018a.358.358 0 0 0 .505.505l.02-.024.738-.738.74.74.018.022a.358.358 0 0 0 .505-.505l-.023-.02-.739-.739.74-.74.022-.018a.358.358 0 0 0-.505-.505l-.02.023-.739.739-.74-.74-.018-.022a.358.358 0 0 0-.505.505z"/></g><defs><clipPath id="a"><path fill="#fff" d="M0 0h16v16H0z"/></clipPath></defs></svg>