<svg xmlns="http://www.w3.org/2000/svg" width="16" height="16" fill="none" viewBox="0 0 16 16"><g clip-path="url(#a)"><path fill="#444f5c" fill-rule="evenodd" d="M2 0A1.5 1.5 0 0 0 .5 1.5v13A1.5 1.5 0 0 0 2 16h6.5a1.5 1.5 0 0 0 1.5-1.5V11a.5.5 0 0 0-1 0v3.5a.5.5 0 0 1-.5.5H2a.5.5 0 0 1-.5-.5v-13A.5.5 0 0 1 2 1h6.5a.5.5 0 0 1 .5.5V5a.5.5 0 0 0 1 0V1.5A1.5 1.5 0 0 0 8.5 0zm10.621 4.882a.5.5 0 0 0-.711.703L13.803 7.5H4a.5.5 0 0 0 0 1h9.793l-1.88 1.88a.5.5 0 0 0 .706.707l2.735-2.733a.5.5 0 0 0 .002-.706z" clip-rule="evenodd"/></g><defs><clipPath id="a"><path fill="#fff" d="M0 0h16v16H0z"/></clipPath></defs></svg>