<svg xmlns="http://www.w3.org/2000/svg" width="16" height="16" fill="none" viewBox="0 0 16 16"><path fill="#444f5c" d="M8 .556a3.17 3.17 0 0 0-2.695 1.506.5.5 0 0 0 .85.525 2.17 2.17 0 0 1 3.38-.395c.407.407.636.96.636 1.535V7.76a.5.5 0 1 0 1 0V3.727A3.17 3.17 0 0 0 8 .557"/><path fill="#444f5c" fill-rule="evenodd" d="M3.029 1.789a.5.5 0 0 0-.74.672l2.54 2.795V8a3.17 3.17 0 0 0 4.908 2.654l.77.848a4.3 4.3 0 0 1-2.496.805h-.022A4.305 4.305 0 0 1 3.693 8a.5.5 0 1 0-1 0A5.307 5.307 0 0 0 7.5 13.284v1.66a.5.5 0 1 0 1 0v-1.66q.175-.017.349-.045c.85-.138 1.65-.48 2.335-.993l1.787 1.966a.5.5 0 0 0 .74-.673l-3.536-3.89-.009-.01-.008-.008-4.452-4.897-.013-.015zM5.829 8V6.356L9.051 9.9A2.172 2.172 0 0 1 5.83 8" clip-rule="evenodd"/><path fill="#444f5c" d="M13.307 8a.5.5 0 0 0-1 0 4.3 4.3 0 0 1-.293 1.566.5.5 0 0 0 .931.364c.24-.616.363-1.27.362-1.93"/></svg>