<svg xmlns="http://www.w3.org/2000/svg" width="16" height="16" fill="none" viewBox="0 0 16 16"><g fill="#444f5c" clip-path="url(#a)"><path fill-rule="evenodd" d="M7.445 2.016c.975-.827 2.47-.134 2.47 1.144v9.746c0 1.261-1.461 1.96-2.442 1.167l-3.033-2.45a.5.5 0 0 0-.315-.112H2a1.5 1.5 0 0 1-1.5-1.5V6.188a1.5 1.5 0 0 1 1.5-1.5h2.112a.5.5 0 0 0 .323-.119zm1.47 1.144a.5.5 0 0 0-.823-.382l-3.01 2.554a1.5 1.5 0 0 1-.97.356H2a.5.5 0 0 0-.5.5v3.823a.5.5 0 0 0 .5.5h2.125a1.5 1.5 0 0 1 .943.333l3.033 2.451a.5.5 0 0 0 .815-.389z" clip-rule="evenodd"/><path d="M15.862 5.893a.5.5 0 0 1 0 .707l-1.4 1.4 1.4 1.4a.5.5 0 1 1-.707.707l-1.4-1.4-1.4 1.4a.5.5 0 1 1-.707-.707l1.4-1.4-1.4-1.4a.5.5 0 1 1 .707-.707l1.4 1.4 1.4-1.4a.5.5 0 0 1 .707 0"/></g><defs><clipPath id="a"><path fill="#fff" d="M0 0h16v16H0z"/></clipPath></defs></svg>