<svg xmlns="http://www.w3.org/2000/svg" width="16" height="16" fill="none" viewBox="0 0 16 16"><path fill="#444f5c" d="M4.578 2.959a1.289 1.289 0 1 1-2.578 0 1.289 1.289 0 0 1 2.578 0m0 4.927a1.289 1.289 0 1 1-2.578 0 1.289 1.289 0 0 1 2.578 0M3.289 14.33a1.289 1.289 0 1 0 0-2.578 1.289 1.289 0 0 0 0 2.578m6-11.371a1.289 1.289 0 1 1-2.578 0 1.289 1.289 0 0 1 2.578 0M8 9.174a1.289 1.289 0 1 0 0-2.577 1.289 1.289 0 0 0 0 2.577m1.289 3.867a1.289 1.289 0 1 1-2.578 0 1.289 1.289 0 0 1 2.578 0m3.422-8.793a1.289 1.289 0 1 0 0-2.578 1.289 1.289 0 0 0 0 2.578M14 7.886a1.289 1.289 0 1 1-2.578 0 1.289 1.289 0 0 1 2.578 0m-1.289 6.444a1.289 1.289 0 1 0 0-2.578 1.289 1.289 0 0 0 0 2.578"/></svg>