<svg xmlns="http://www.w3.org/2000/svg" width="16" height="16" fill="none" viewBox="0 0 16 16"><path fill="#444f5c" fill-rule="evenodd" d="M.84 1.634a.5.5 0 0 0-.68.732l1.609 1.498A.5.5 0 0 0 1.75 4v10.688a.5.5 0 0 0 .796.403l2.804-2.057a.5.5 0 0 1 .296-.097h5.868l3.145 2.929a.5.5 0 1 0 .682-.732zm9.6 10.304L6.748 8.5H5a.5.5 0 0 1 0-1h.674L2.75 4.778v8.923l2.009-1.473a1.5 1.5 0 0 1 .887-.29z" clip-rule="evenodd"/><path fill="#444f5c" d="M6 1.813a.5.5 0 0 0 0 1h7.75a.5.5 0 0 1 .5.5v7.124a.5.5 0 0 0 1 0V3.314a1.5 1.5 0 0 0-1.5-1.5z"/><path fill="#444f5c" d="M9.5 6a.5.5 0 0 1 .5-.5h1.5a.5.5 0 0 1 0 1H10a.5.5 0 0 1-.5-.5"/></svg>