<svg xmlns="http://www.w3.org/2000/svg" width="16" height="16" fill="none" viewBox="0 0 16 16"><g fill="#444f5c" clip-path="url(#a)"><path d="M6.45.205a8 8 0 0 1 3.1 0 .5.5 0 0 1-.194.981 7 7 0 0 0-2.712 0 .5.5 0 1 1-.194-.98m5.271 1.324a.5.5 0 0 1 .694-.137 8 8 0 0 1 2.192 2.192.5.5 0 1 1-.83.556 7 7 0 0 0-1.918-1.917.5.5 0 0 1-.138-.694m-7.443 0a.5.5 0 0 1-.137.694A7 7 0 0 0 2.224 4.14a.5.5 0 0 1-.831-.556 8 8 0 0 1 2.192-2.192.5.5 0 0 1 .693.137M.793 6.056a.5.5 0 0 1 .393.588 7 7 0 0 0 0 2.712.5.5 0 1 1-.98.194 8 8 0 0 1 0-3.1.5.5 0 0 1 .587-.394m14.414 0a.5.5 0 0 1 .587.394 8 8 0 0 1 0 3.1.5.5 0 1 1-.98-.194 7 7 0 0 0 0-2.712.5.5 0 0 1 .393-.588M1.53 11.722a.5.5 0 0 1 .694.137 7 7 0 0 0 1.917 1.917.5.5 0 1 1-.556.831 8 8 0 0 1-2.192-2.192.5.5 0 0 1 .137-.693m12.94 0a.5.5 0 0 1 .137.693 8 8 0 0 1-2.192 2.192.5.5 0 0 1-.556-.83 7 7 0 0 0 1.917-1.918.5.5 0 0 1 .694-.137m-8.414 3.485a.5.5 0 0 1 .588-.393 7 7 0 0 0 2.712 0 .5.5 0 0 1 .194.98 8 8 0 0 1-3.1 0 .5.5 0 0 1-.394-.587"/></g><defs><clipPath id="a"><path fill="#fff" d="M0 0h16v16H0z"/></clipPath></defs></svg>