<svg xmlns="http://www.w3.org/2000/svg" width="16" height="16" fill="none" viewBox="0 0 16 16"><path fill="#444f5c" fill-rule="evenodd" d="M4.646 1.646a.5.5 0 1 1 .708.708L4.207 3.5l1.147 1.146a.5.5 0 1 1-.708.708L3.5 4.207 2.354 5.354a.5.5 0 1 1-.708-.708L2.793 3.5 1.646 2.354a.5.5 0 1 1 .708-.708L3.5 2.793zM14.5 3a.5.5 0 0 0-1 0v11a.5.5 0 0 0 1 0zM10 5.5a.5.5 0 0 1 .5.5v8a.5.5 0 0 1-1 0V6a.5.5 0 0 1 .5-.5M6.5 9a.5.5 0 0 0-1 0v5a.5.5 0 0 0 1 0zm-4 3a.5.5 0 0 0-1 0v2a.5.5 0 0 0 1 0z" clip-rule="evenodd"/></svg>