<svg xmlns="http://www.w3.org/2000/svg" width="16" height="16" fill="none" viewBox="0 0 16 16"><path fill="#444f5c" fill-rule="evenodd" d="M11.877.59a.5.5 0 0 0-.987.161l.196 1.21a6.507 6.507 0 0 0-8.118 9.859.5.5 0 0 0 .112.1l-1.122 1.122a.5.5 0 0 0 .707.707L14.015 2.4a.5.5 0 0 0-.706-.708l-1.079 1.08zM3.772 11.229l7.584-7.584-1.857.444a.5.5 0 0 1-.232-.973l1.283-.307a5.507 5.507 0 0 0-6.81 8.375z" clip-rule="evenodd"/><path fill="#444f5c" d="M7.01 15.7a.5.5 0 1 0 .794-.607l-.737-.965q.455.065.926.065a6.507 6.507 0 0 0 6.163-8.6.5.5 0 1 0-.947.321 5.507 5.507 0 0 1-6.084 7.211l.994-.882a.5.5 0 1 0-.664-.748l-1.832 1.627a.5.5 0 0 0-.066.677z"/></svg>