<svg xmlns="http://www.w3.org/2000/svg" width="16" height="16" fill="none" viewBox="0 0 16 16"><g fill="#444f5c" clip-path="url(#a)"><path d="M5.27 14.986a7.5 7.5 0 0 0 9.506-3.772.5.5 0 1 0-.903-.428 6.501 6.501 0 1 1-6.337-9.27.5.5 0 1 0-.072-.997A7.5 7.5 0 0 0 5.27 14.986"/><path fill-rule="evenodd" d="M10.34 7.093c.24.619.835 1.288 1.686 1.256l1.989-.075c.805-.03 1.526-.73 1.363-1.62a7.5 7.5 0 0 0-3.749-5.217c-.793-.439-1.685.022-1.97.775l-.706 1.861c-.302.797.143 1.574.653 1.999a2.5 2.5 0 0 1 .734 1.02m1.648.256c-.252.01-.556-.207-.716-.618a3.5 3.5 0 0 0-1.026-1.428c-.338-.282-.447-.639-.358-.875l.706-1.861c.106-.28.377-.351.551-.255a6.5 6.5 0 0 1 3.25 4.52c.035.196-.12.431-.418.442z" clip-rule="evenodd"/><path d="M6.908 10.794a3 3 0 0 0 3.256-.716.5.5 0 0 1 .72.693 4 4 0 1 1-4.489-6.435.5.5 0 1 1 .401.916 3 3 0 0 0 .112 5.542"/><path d="M9 8a1 1 0 1 1-2 0 1 1 0 0 1 2 0"/></g><defs><clipPath id="a"><path fill="#fff" d="M0 0h16v16H0z"/></clipPath></defs></svg>