<svg xmlns="http://www.w3.org/2000/svg" width="16" height="16" fill="none" viewBox="0 0 16 16"><path fill="#444f5c" fill-rule="evenodd" d="M8.013.068a4.58 4.58 0 0 0-4.49 3.693l-.988 5.012a.5.5 0 0 1-.042.125l-1.206 2.437A1.5 1.5 0 0 0 2.632 13.5h2.153a3.5 3.5 0 0 0 6.43 0h2.153a1.5 1.5 0 0 0 1.345-2.165L13.509 8.9a.5.5 0 0 1-.043-.127l-.957-4.99A4.58 4.58 0 0 0 8.013.068m-3.51 3.886a3.577 3.577 0 0 1 7.024.017l.957 4.99q.038.2.128.382l1.204 2.435a.5.5 0 0 1-.448.722H2.632a.5.5 0 0 1-.448-.722l1.205-2.437a1.5 1.5 0 0 0 .127-.375zm5.578 9.546H5.92a2.498 2.498 0 0 0 4.162 0" clip-rule="evenodd"/></svg>