<svg xmlns="http://www.w3.org/2000/svg" width="16" height="16" fill="none" viewBox="0 0 16 16"><path fill="#444f5c" d="M3.117 1.322a.5.5 0 0 1 .237.425v4.574a.5.5 0 0 1-1 0V2.556l-.42.21a.5.5 0 0 1-.447-.894L2.631 1.3a.5.5 0 0 1 .486.022m2.668 2.14a.5.5 0 0 1 .5-.5h8.004a.5.5 0 1 1 0 1H6.285a.5.5 0 0 1-.5-.5m0 4.574a.5.5 0 0 1 .5-.5h8.004a.5.5 0 1 1 0 1H6.285a.5.5 0 0 1-.5-.5m.5 4.074a.5.5 0 1 0 0 1h8.004a.5.5 0 1 0 0-1zM4.262 9.478a1.7 1.7 0 0 0-2.773-.154l-.003.003a1.6 1.6 0 0 0-.245.443.5.5 0 0 0 .94.343.6.6 0 0 1 .094-.17.7.7 0 0 1 .96-.13l.003.003a.62.62 0 0 1 .128.887l-2.055 2.75a.5.5 0 0 0 .4.8h2.287a.5.5 0 1 0 0-1H2.709l1.45-1.939a1.62 1.62 0 0 0 .103-1.836"/></svg>