<svg xmlns="http://www.w3.org/2000/svg" width="16" height="16" fill="none" viewBox="0 0 16 16"><g fill="#444f5c" clip-path="url(#a)"><path d="M3.354 3.354a6.57 6.57 0 0 1 9.777.54l-2.267-.324a.5.5 0 0 0-.141.99l3.35.479a.5.5 0 0 0 .591-.42l.482-3.375a.5.5 0 1 0-.99-.142l-.3 2.099a7.571 7.571 0 1 0 .866 8.288.5.5 0 1 0-.887-.461 6.571 6.571 0 1 1-10.48-7.674"/><path fill-rule="evenodd" d="M8.336 4.349a.5.5 0 0 0-.802-.006c-.253.334-.649.892-1.024 1.462-.368.56-.74 1.168-.922 1.585-.205.47-.465 1.081-.465 1.699a2.81 2.81 0 1 0 5.62 0c0-.414-.13-.864-.303-1.292a10 10 0 0 0-.67-1.32c-.507-.86-1.098-1.67-1.434-2.128M6.504 7.79c.145-.331.472-.874.842-1.437.199-.302.403-.6.586-.858.302.424.658.948.977 1.49.24.406.453.813.604 1.186.155.382.23.692.23.917a1.81 1.81 0 1 1-3.62 0c0-.377.164-.802.381-1.298" clip-rule="evenodd"/></g><defs><clipPath id="a"><path fill="#fff" d="M0 0h16v16H0z"/></clipPath></defs></svg>