<svg xmlns="http://www.w3.org/2000/svg" width="16" height="16" fill="none" viewBox="0 0 16 16"><path fill="#444f5c" d="M9.146 3.656a.5.5 0 0 1 .708 0l1.5 1.5a.5.5 0 0 1-.354.853H5a.5.5 0 0 1 0-1h4.793l-.647-.646a.5.5 0 0 1 0-.707m-3 5.707a.5.5 0 0 0 .708-.707l-.647-.647H11a.5.5 0 0 0 0-1H5a.5.5 0 0 0-.354.854z"/><path fill="#444f5c" fill-rule="evenodd" d="M.5 2.519a1.5 1.5 0 0 1 1.5-1.5h12a1.5 1.5 0 0 1 1.5 1.5v8.262a1.5 1.5 0 0 1-1.5 1.5h-1.99a.5.5 0 0 0-.5.5v2.078a.7.7 0 0 1-1.129.553l-3.914-3.027a.5.5 0 0 0-.306-.104H2a1.5 1.5 0 0 1-1.5-1.5zm1.5-.5a.5.5 0 0 0-.5.5v8.262a.5.5 0 0 0 .5.5h4.16c.332 0 .655.11.917.313l3.432 2.654V12.78a1.5 1.5 0 0 1 1.5-1.5H14a.5.5 0 0 0 .5-.5V2.519a.5.5 0 0 0-.5-.5z" clip-rule="evenodd"/></svg>