<svg xmlns="http://www.w3.org/2000/svg" width="16" height="16" fill="none" viewBox="0 0 16 16"><g clip-path="url(#a)"><path fill="#444f5c" d="M15.244 0c.371 0 .68.267.744.62L16 .756v4.276a.756.756 0 0 1-1.5.136l-.012-.136-.001-2.451-4.053 4.055a.756.756 0 0 1-1.156-.964l.087-.105 4.055-4.056-2.451.001a.756.756 0 0 1-.744-.62l-.012-.136c0-.371.267-.68.62-.744L10.969 0zm.469 13.859c-.496 1.504-2.43 2.252-3.812 2.127-1.888-.17-3.942-1.171-5.502-2.274-2.292-1.621-4.438-4.13-5.691-6.791C-.176 5.04-.375 2.729.942 1.015 1.428.38 1.953.042 2.745.004c1.095-.053 1.25.573 1.626 1.551.281.73.655 1.475.864 2.233.391 1.414-.976 1.472-1.149 2.628-.109.729.774 1.706 1.174 2.225a10.8 10.8 0 0 0 2.781 2.563c.607.382 1.588 1.072 2.284.691 1.07-.586.969-2.393 2.467-1.781.775.317 1.525.771 2.267 1.17 1.143.615 1.09 1.253.655 2.576l.03-.096.015-.039-.013.04-.032.096z"/></g><defs><clipPath id="a"><path fill="#fff" d="M0 0h16v16H0z"/></clipPath></defs></svg>