<svg xmlns="http://www.w3.org/2000/svg" width="16" height="16" fill="none" viewBox="0 0 16 16"><path fill="#444f5c" d="M2.506.5a1.5 1.5 0 0 0-1.5 1.5v12a1.5 1.5 0 0 0 1.5 1.5h5.3a.5.5 0 0 0 0-1h-5.3a.5.5 0 0 1-.5-.5V2a.5.5 0 0 1 .5-.5h10.94a.5.5 0 0 1 .5.5v5.667a.5.5 0 0 0 1 0V2a1.5 1.5 0 0 0-1.5-1.5z"/><path fill="#444f5c" d="M12.707 10.154a.5.5 0 1 0-1 0v1.923h-1.74a.5.5 0 0 0 0 1h1.74V15a.5.5 0 1 0 1 0v-1.923h1.739a.5.5 0 1 0 0-1h-1.739zM4.37 4.014a.5.5 0 0 0 0 1h2.593a.5.5 0 1 0 0-1zm4.164.5a.5.5 0 0 1 .5-.5h2.594a.5.5 0 0 1 0 1H9.034a.5.5 0 0 1-.5-.5M4.37 6.98a.5.5 0 0 0 0 1h4.767a.5.5 0 0 0 0-1z"/></svg>