<svg xmlns="http://www.w3.org/2000/svg" width="16" height="16" fill="none" viewBox="0 0 16 16"><path fill="#444f5c" d="M12.648 5.948h-1.085V3.647C11.563 1.637 9.964 0 8 0S4.437 1.636 4.437 3.647v2.302H3.352C2.606 5.949 2 6.57 2 7.333v7.283C2 15.38 2.606 16 3.352 16h9.295c.746 0 1.352-.621 1.352-1.384V7.332c0-.763-.606-1.384-1.352-1.384zM5.061 3.647C5.061 1.988 6.379.639 8 .639s2.939 1.349 2.939 3.008v2.302H5.062V3.647zm8.315 10.968a.74.74 0 0 1-.728.745H3.353a.74.74 0 0 1-.728-.745V7.332c0-.411.327-.745.728-.745h9.295c.401 0 .728.334.728.745zM8 9.122c-.579 0-1.049.482-1.049 1.074 0 .481.311.883.737 1.02v1.505c0 .176.14.319.312.319a.316.316 0 0 0 .312-.319v-1.505c.426-.137.737-.54.737-1.02 0-.592-.471-1.074-1.049-1.074m0 1.509a.43.43 0 0 1-.425-.435A.43.43 0 0 1 8 9.761a.43.43 0 0 1 .425.435.43.43 0 0 1-.425.435"/></svg>