<svg xmlns="http://www.w3.org/2000/svg" width="16" height="16" fill="none" viewBox="0 0 16 16"><path fill="#444f5c" fill-rule="evenodd" d="M3.5 1a.5.5 0 0 0-.5.5v6a.5.5 0 0 1-1 0v-6A1.5 1.5 0 0 1 3.5 0h5.175a1.5 1.5 0 0 1 1.08.458l3.824 3.964c.27.28.421.653.421 1.042V7.5a.5.5 0 0 1-1 0v-2h-3A1.5 1.5 0 0 1 8.5 4V1zm6 .635L12.265 4.5H10a.5.5 0 0 1-.5-.5zM2.038 15.09a.54.54 0 0 1-.538-.538V10.5A.5.5 0 0 1 2 10h1.509q.58 0 .986.221.409.22.622.61.216.387.216.894t-.219.895q-.218.388-.634.604-.412.216-.999.216h-.905v1.113a.54.54 0 0 1-.538.538m1.27-2.513h-.732V10.88h.726q.313 0 .517.107a.68.68 0 0 1 .304.296.9.9 0 0 1 .101.442.94.94 0 0 1-.101.445.7.7 0 0 1-.304.3 1.1 1.1 0 0 1-.512.108m4.529 2.513H6.532a.5.5 0 0 1-.5-.5V10.5a.5.5 0 0 1 .5-.5h1.32q.768 0 1.322.306.555.303.853.872.3.57.3 1.362 0 .796-.3 1.368a2.07 2.07 0 0 1-.858.877q-.556.306-1.332.306m-.728-.922h.683q.477 0 .803-.17.328-.17.492-.529.167-.36.167-.93 0-.564-.167-.922a1.08 1.08 0 0 0-.49-.527q-.325-.169-.802-.169h-.686zm4.016.384a.538.538 0 1 0 1.076 0v-1.565h1.627a.444.444 0 1 0 0-.887h-1.627v-1.214h1.851a.444.444 0 1 0 0-.887h-2.427a.5.5 0 0 0-.5.5z" clip-rule="evenodd"/></svg>