<svg xmlns="http://www.w3.org/2000/svg" width="16" height="16" fill="none" viewBox="0 0 16 16"><path fill="#444f5c" fill-rule="evenodd" d="M1.5 4a2.5 2.5 0 1 1 5 0 2.5 2.5 0 0 1-5 0M4 2.5a1.5 1.5 0 1 0 0 3 1.5 1.5 0 0 0 0-3" clip-rule="evenodd"/><path fill="#444f5c" d="M14.04 1.961c.196.194.197.51.002.705l-11.37 11.37a.505.505 0 0 1-.71.003.496.496 0 0 1-.003-.705l11.37-11.37a.504.504 0 0 1 .71-.003"/><path fill="#444f5c" fill-rule="evenodd" d="M12 9.5a2.5 2.5 0 1 0 0 5 2.5 2.5 0 0 0 0-5M10.5 12a1.5 1.5 0 1 1 3 0 1.5 1.5 0 0 1-3 0" clip-rule="evenodd"/></svg>