<svg xmlns="http://www.w3.org/2000/svg" width="16" height="16" fill="none" viewBox="0 0 16 16"><path fill="#444f5c" d="M14.176 10.873c1 .539.954 1.097.573 2.254l.039-.119-.04.121-.073.222.073-.222c-.433 1.313-2.125 1.967-3.335 1.858-1.652-.148-3.449-1.025-4.814-1.99-2.006-1.419-3.883-3.614-4.979-5.942-.774-1.645-.947-3.668.204-5.168.426-.555.885-.851 1.577-.885.958-.047 1.094.501 1.422 1.357.245.638.573 1.291.756 1.953.343 1.238-.854 1.288-1.005 2.3-.095.637.678 1.492 1.028 1.947a9.4 9.4 0 0 0 2.433 2.243c.531.334 1.39.938 1.998.605.936-.512.847-2.093 2.159-1.559.678.277 1.335.675 1.983 1.024zm.612 2.135.035-.107z"/></svg>