<svg xmlns="http://www.w3.org/2000/svg" width="16" height="16" fill="none" viewBox="0 0 16 16"><g fill="#444f5c" fill-rule="evenodd" clip-path="url(#a)" clip-rule="evenodd"><path d="M9.236.167a.5.5 0 0 0-.5.5v6.22a.5.5 0 0 0 .5.5h6.22a.5.5 0 0 0 .5-.5 6.72 6.72 0 0 0-6.72-6.72m.5 6.22V1.188a5.72 5.72 0 0 1 5.197 5.197z"/><path d="M7.283 1.528a7.238 7.238 0 1 0 7.237 7.238.5.5 0 0 0-.5-.5H7.783V2.028a.5.5 0 0 0-.5-.5M3.817 3.58a6.24 6.24 0 0 1 2.966-1.032v6.218a.5.5 0 0 0 .5.5H13.5A6.238 6.238 0 1 1 3.817 3.58"/></g><defs><clipPath id="a"><path fill="#fff" d="M0 0h16v16H0z"/></clipPath></defs></svg>