<svg xmlns="http://www.w3.org/2000/svg" width="16" height="16" fill="none" viewBox="0 0 16 16"><path fill="#444f5c" d="M12.493 6.33v.398c0 .287.004.528.01.534s.594.008 1.462.004l1.452-.006c.004-.35-.005-.576 0-.927zm-.558.545h-1.61l-2.078.707v.643l2.078.697h1.61s-.006-.213 0-.74h.908c0 .124.007.257.007.257h2.236l-.014-1.065h-2.22l-.005.27h-.912c-.008-.712 0-.77 0-.77zm-10.53.038-.044.066c-.083.125-.25.473-.25.934 0 .46.167.809.25.934l.044.066h1.407l1.708-.74v-.52l-1.708-.741zm3.4.731v.54h3.159v-.54zm7.688 1.853 2.923-.003v-.926h-2.923zM1.74 9.12h.725v1.84H1.74zm11.788.548h.725v1.292h-.725zm-1.643 1.469c-.124-.004-.152 1.601 0 1.594-.004.131 4.024.115 4.02 0 .124.004.129-1.594 0-1.594 0-.12-4.016-.12-4.02 0m-11.781.004c-.124-.004-.152 1.601 0 1.594-.004.131 4.024.115 4.02 0 .124.004.129-1.594 0-1.594 0-.12-4.016-.12-4.02 0M1.74 6.708h.725v-1.84H1.74zm11.788-.548h.725V4.868h-.725zm-1.643-1.473c-.124.004-.152-1.602 0-1.594-.004-.132 4.024-.116 4.02 0 .124-.004.129 1.594 0 1.594 0 .119-4.016.119-4.02 0m-11.781 0c-.124.004-.152-1.602 0-1.594-.004-.132 4.024-.116 4.02 0 .124-.004.129 1.594 0 1.594 0 .119-4.016.119-4.02 0"/></svg>