<svg xmlns="http://www.w3.org/2000/svg" width="16" height="16" fill="none" viewBox="0 0 16 16"><path fill="#444f5c" fill-rule="evenodd" d="M1.218 3.055H.56a.5.5 0 0 1 0-1h.658a2.314 2.314 0 0 1 4.517 0h9.705a.5.5 0 1 1 0 1H5.735a2.314 2.314 0 0 1-4.517 0m.946-.5a1.313 1.313 0 1 1 2.625 0 1.313 1.313 0 0 1-2.625 0M.56 7.493a.5.5 0 0 0 0 1h8.8a2.314 2.314 0 0 0 4.523 0h1.558a.5.5 0 1 0 0-1h-1.564a2.314 2.314 0 0 0-4.512 0zm11.06-.8a1.313 1.313 0 1 0 0 2.626 1.313 1.313 0 0 0 0-2.626m-3.134 6.233a2.314 2.314 0 0 0-4.51 0H.56a.5.5 0 1 0 0 1h3.408a2.314 2.314 0 0 0 4.525 0h6.947a.5.5 0 1 0 0-1zm-3.568.517a1.313 1.313 0 1 1 2.626 0 1.313 1.313 0 0 1-2.626 0" clip-rule="evenodd"/></svg>