<svg xmlns="http://www.w3.org/2000/svg" width="16" height="16" fill="none" viewBox="0 0 16 16"><g fill="#444f5c" clip-path="url(#a)"><path fill-rule="evenodd" d="M1.806.984a1.5 1.5 0 0 0-1.5 1.5v8.468a1.5 1.5 0 0 0 1.5 1.5h2.68a.5.5 0 0 0 0-1h-2.68a.5.5 0 0 1-.5-.5V2.734l6.395 4.768a.5.5 0 0 0 .598 0l6.395-4.775v3.741a.5.5 0 0 0 1 0V2.484a1.5 1.5 0 0 0-1.5-1.5zm12.21 1H1.974L8 6.477z" clip-rule="evenodd"/><path d="M11.55 10.938a1 1 0 1 0 0 2 1 1 0 0 0 0-2"/><path fill-rule="evenodd" d="M11.538 8.876c-2.419 0-3.732 1.65-4.216 2.423a1.23 1.23 0 0 0 0 1.306c.484.774 1.797 2.422 4.216 2.422s3.732-1.648 4.216-2.422a1.23 1.23 0 0 0 0-1.306c-.484-.774-1.797-2.423-4.216-2.423M8.17 11.83c.416-.665 1.466-1.953 3.368-1.953s2.952 1.288 3.368 1.953a.23.23 0 0 1 0 .246c-.416.665-1.466 1.952-3.368 1.952S8.586 12.74 8.17 12.075a.23.23 0 0 1 0-.246" clip-rule="evenodd"/></g><defs><clipPath id="a"><path fill="#fff" d="M0 0h16v16H0z"/></clipPath></defs></svg>