<svg xmlns="http://www.w3.org/2000/svg" width="16" height="16" fill="none" viewBox="0 0 16 16"><g fill="#444f5c" clip-path="url(#a)"><path d="M8.5 4.592a.5.5 0 1 0-1 0v.473h-.376a1.717 1.717 0 0 0 0 3.435h1.752a.717.717 0 0 1 0 1.434H6.539a.5.5 0 0 0 0 1H7.5v.474a.5.5 0 1 0 1 0v-.474h.376a1.717 1.717 0 0 0 0-3.434H7.124a.717.717 0 1 1 0-1.435H9.46a.5.5 0 0 0 0-1H8.5z"/><path fill-rule="evenodd" d="M7.424.016a.5.5 0 0 0-.46.302l-.416.969c-.389.848-1.36 1.26-2.28.93L3.31 1.83a.5.5 0 0 0-.541.11l-.821.82a.5.5 0 0 0-.112.538l.39.986c.356.91-.082 1.914-.938 2.263l-.973.427a.5.5 0 0 0-.299.458v1.146c0 .2.12.38.303.46l.968.415c.849.389 1.261 1.361.93 2.28l-.387.959a.5.5 0 0 0 .11.54l.821.822a.5.5 0 0 0 .537.111l.986-.39c.911-.356 1.915.082 2.264.937l.426.973a.5.5 0 0 0 .458.3h1.146a.5.5 0 0 0 .46-.304l.415-.968c.39-.849 1.362-1.261 2.28-.93l.96.387a.5.5 0 0 0 .54-.11l.821-.82a.5.5 0 0 0 .111-.538l-.39-.986c-.355-.911.083-1.915.938-2.264l.972-.426a.5.5 0 0 0 .3-.458V7.433a.5.5 0 0 0-.303-.46l-.95-.407-.03-.012a1.77 1.77 0 0 1-.882-.824l-.108-.35a1.8 1.8 0 0 1 .07-1.105l.39-.966a.5.5 0 0 0-.11-.54l-.821-.822a.5.5 0 0 0-.538-.111l-.986.39c-.91.356-1.914-.083-2.263-.938L9.027.315a.5.5 0 0 0-.457-.3zM14.35 7.49l.01.004.624.267v.48l-.656.287c-1.37.563-2.034 2.147-1.484 3.552v.002l.27.681-.355.355-.66-.267-.017-.006c-1.401-.511-2.932.117-3.542 1.457l-.292.681h-.49l-.288-.656c-.563-1.37-2.147-2.033-3.552-1.483h-.001l-.682.27-.355-.355.267-.66.006-.017c.511-1.402-.116-2.932-1.457-3.542l-.681-.293v-.49l.656-.287c1.371-.563 2.035-2.147 1.485-3.552l-.27-.683.355-.355.66.267.016.006c1.402.51 2.933-.117 3.543-1.457l.292-.681h.49l.287.656c.564 1.37 2.148 2.034 3.553 1.484h.001l.682-.27.354.355-.266.66-.001.002a2.8 2.8 0 0 0-.1 1.759l.124.404.03.076A2.78 2.78 0 0 0 14.35 7.49" clip-rule="evenodd"/></g><defs><clipPath id="a"><path fill="#fff" d="M0 0h16v16H0z"/></clipPath></defs></svg>