<svg xmlns="http://www.w3.org/2000/svg" width="16" height="16" fill="none" viewBox="0 0 16 16"><path fill="#444f5c" d="M7.826 1.4a6.5 6.5 0 0 0 0 13 .5.5 0 0 0 0-1 5.5 5.5 0 1 1 5.5-5.5.5.5 0 0 0 1 0 6.5 6.5 0 0 0-6.5-6.5"/><path fill="#444f5c" d="M8.322 4.561a.5.5 0 0 0-1 0v.406h-.316a1.632 1.632 0 0 0 0 3.263h1.629a.632.632 0 0 1 0 1.264H6.462a.5.5 0 0 0 0 1h.86v.406a.5.5 0 0 0 1 0v-.406h.313a1.632 1.632 0 0 0 0-3.264H7.006a.632.632 0 1 1 0-1.263H9.18a.5.5 0 1 0 0-1h-.857zM11.65 9.4a.5.5 0 0 1 .5.5v3.983a.5.5 0 0 1-.01.107.5.5 0 0 1-.824.48l-1.326-1.2a.5.5 0 0 1 .672-.74l.489.442V9.9a.5.5 0 0 1 .5-.5m1.079.61a.5.5 0 0 1 .823-.48l1.326 1.2a.5.5 0 0 1-.671.74l-.49-.442V14.1a.5.5 0 0 1-1 0v-3.983q0-.056.012-.107"/></svg>