<svg xmlns="http://www.w3.org/2000/svg" width="16" height="16" fill="none" viewBox="0 0 16 16"><g fill="#444f5c" clip-path="url(#a)"><path d="M8.504 3.37a.5.5 0 0 0-1 0v.822h-.691a2.154 2.154 0 1 0 0 4.308h2.38a1.154 1.154 0 0 1 0 2.307H6.017a.5.5 0 0 0 0 1h1.486v.824a.5.5 0 0 0 1 0v-.824h.688a2.154 2.154 0 1 0 0-4.307H6.813a1.154 1.154 0 0 1 0-2.308h3.175a.5.5 0 0 0 0-1H8.503z"/><path fill-rule="evenodd" d="M7.982 15.982a7.982 7.982 0 1 0 0-15.964 7.982 7.982 0 0 0 0 15.964M14.964 8A6.982 6.982 0 1 1 1 8a6.982 6.982 0 0 1 13.964 0" clip-rule="evenodd"/></g><defs><clipPath id="a"><path fill="#fff" d="M0 0h16v16H0z"/></clipPath></defs></svg>