<svg xmlns="http://www.w3.org/2000/svg" width="16" height="16" fill="none" viewBox="0 0 16 16"><path fill="#444f5c" d="M4.281 3.67a.537.537 0 0 1 0 1.072c-.604 0-1.209-.002-1.813.003-.623.005-1.02.448-1.022 1.147a665 665 0 0 0 0 4.236c.003.674.406 1.124 1.008 1.13.6.005 1.2.004 1.812.003a.536.536 0 0 1 .003 1.072c-.532.002-1.336.003-1.823-.002-1.115-.011-1.95-.939-1.957-2.187Q.476 7.992.49 5.84c.008-1.213.837-2.15 1.913-2.166.62-.01 1.242-.006 1.878-.004m7.438 0a.537.537 0 0 0 0 1.072c.604 0 1.209-.002 1.813.003.623.005 1.02.448 1.022 1.147a665 665 0 0 1 0 4.236c-.003.674-.406 1.124-1.008 1.13-.6.005-1.2.004-1.812.003a.536.536 0 0 0-.003 1.072 177 177 0 0 0 1.823-.002c1.115-.011 1.95-.939 1.957-2.187q.013-2.152-.001-4.304c-.008-1.213-.837-2.15-1.913-2.166-.62-.01-1.242-.006-1.878-.004m-4.29 9.757V2.574q-.47.002-.938 0c-.425-.003-.68-.209-.675-.543.005-.323.251-.527.655-.528q1.512-.004 3.023 0c.403.001.65.205.655.528s-.244.537-.641.543c-.316.005-.966 0-.966 0v10.854c.333 0 .658-.004.983.001.376.006.617.213.624.525.007.324-.242.544-.638.545q-1.529.006-3.057 0c-.396-.001-.644-.22-.638-.545.006-.312.247-.519.624-.525.316-.005.633-.001.989-.001z"/></svg>