<svg xmlns="http://www.w3.org/2000/svg" width="16" height="16" fill="none" viewBox="0 0 16 16"><path fill="#444f5c" fill-rule="evenodd" d="M11.146 10.146a.5.5 0 0 1 .708 0l1.646 1.647 1.646-1.647a.5.5 0 0 1 .708.708l-2 2a.5.5 0 0 1-.708 0l-2-2a.5.5 0 0 1 0-.708m-9-7a.5.5 0 0 1 .708 0l2 2a.5.5 0 1 1-.708.708L2.5 4.207.854 5.854a.5.5 0 1 1-.708-.708z" clip-rule="evenodd"/><path fill="#444f5c" fill-rule="evenodd" d="M4 2.5a.5.5 0 0 1 .5-.5h7A2.5 2.5 0 0 1 14 4.5v8a.5.5 0 0 1-1 0v-8A1.5 1.5 0 0 0 11.5 3h-7a.5.5 0 0 1-.5-.5M2.5 3a.5.5 0 0 1 .5.5v8A1.5 1.5 0 0 0 4.5 13h7a.5.5 0 0 1 0 1h-7A2.5 2.5 0 0 1 2 11.5v-8a.5.5 0 0 1 .5-.5" clip-rule="evenodd"/></svg>