<svg xmlns="http://www.w3.org/2000/svg" width="16" height="16" fill="none" viewBox="0 0 16 16"><g clip-path="url(#a)"><path fill="#444f5c" fill-rule="evenodd" d="M.038 1.538a1.5 1.5 0 0 1 1.5-1.5h12.924a1.5 1.5 0 0 1 1.5 1.5v12.924a1.5 1.5 0 0 1-1.5 1.5H1.538a1.5 1.5 0 0 1-1.5-1.5zm1.5-.5a.5.5 0 0 0-.5.5V4.56h13.924V1.538a.5.5 0 0 0-.5-.5zm-.5 13.424V5.561H5.55v9.401H1.538a.5.5 0 0 1-.5-.5m5.512.5h7.912a.5.5 0 0 0 .5-.5V5.561H6.55z" clip-rule="evenodd"/></g><defs><clipPath id="a"><path fill="#fff" d="M0 0h16v16H0z"/></clipPath></defs></svg>