<svg xmlns="http://www.w3.org/2000/svg" width="16" height="16" fill="none" viewBox="0 0 16 16"><g fill="#444f5c" clip-path="url(#a)"><path d="M2 1.5a.5.5 0 0 0-.5.5v12a.5.5 0 0 0 .5.5h4a.5.5 0 0 1 0 1H2A1.5 1.5 0 0 1 .5 14V2A1.5 1.5 0 0 1 2 .5h11A1.5 1.5 0 0 1 14.5 2v3a.5.5 0 0 1-1 0V2a.5.5 0 0 0-.5-.5z"/><path d="M3.5 6.5A.5.5 0 0 1 4 6h2a.5.5 0 0 1 0 1H4a.5.5 0 0 1-.5-.5m.5-3a.5.5 0 0 0 0 1h6a.5.5 0 0 0 0-1z"/><path fill-rule="evenodd" d="M14.265 7.951a4.5 4.5 0 1 0 .09.072.5.5 0 0 0-.09-.072m-2.765.05a3.5 3.5 0 0 0-2.656 5.78l4.42-5.303A3.5 3.5 0 0 0 11.5 8m2.547 1.1-4.45 5.339a3.5 3.5 0 0 0 4.45-5.34" clip-rule="evenodd"/></g><defs><clipPath id="a"><path fill="#fff" d="M0 0h16v16H0z"/></clipPath></defs></svg>