<svg xmlns="http://www.w3.org/2000/svg" width="16" height="16" fill="none" viewBox="0 0 16 16"><g fill="#444f5c" clip-path="url(#a)"><path fill-rule="evenodd" d="M5.75 5.25a2.25 2.25 0 1 1 4.5 0 2.25 2.25 0 0 1-4.5 0M8 4a1.25 1.25 0 1 0 0 2.5A1.25 1.25 0 0 0 8 4" clip-rule="evenodd"/><path d="M4.5 12.5a3 3 0 0 1 3-3h1.027a2.973 2.973 0 0 1 2.973 2.973.5.5 0 1 0 1 0A3.973 3.973 0 0 0 8.527 8.5H7.5a4 4 0 0 0-4 4 .5.5 0 0 0 1 0"/><path fill-rule="evenodd" d="M.563 2.034a1.5 1.5 0 0 1 1.5-1.51h11.714a1.5 1.5 0 0 1 1.5 1.491l.074 11.976a1.5 1.5 0 0 1-1.5 1.509H2.136a1.5 1.5 0 0 1-1.5-1.491zm1.5-.51a.5.5 0 0 0-.5.503l.073 11.976a.5.5 0 0 0 .5.497h11.715a.5.5 0 0 0 .5-.503L14.277 2.02a.5.5 0 0 0-.5-.497z" clip-rule="evenodd"/></g><defs><clipPath id="a"><path fill="#fff" d="M0 0h16v16H0z"/></clipPath></defs></svg>