<svg xmlns="http://www.w3.org/2000/svg" width="16" height="16" fill="none" viewBox="0 0 16 16"><path fill="#444f5c" fill-rule="evenodd" d="M7.916 2.5a5.5 5.5 0 1 1-5.423 6.421.5.5 0 0 0-.986.166A6.502 6.502 0 0 0 14.417 8 6.5 6.5 0 0 0 2.084 5.125a.5.5 0 1 0 .897.443A5.5 5.5 0 0 1 7.916 2.5" clip-rule="evenodd"/><path fill="#444f5c" fill-rule="evenodd" d="M2.008 1.966a.5.5 0 0 0-.44.553L1.903 5.5a.5.5 0 0 0 .553.441l2.98-.336a.5.5 0 1 0-.111-.994l-2.485.28-.28-2.484a.5.5 0 0 0-.553-.44" clip-rule="evenodd"/></svg>