<svg xmlns="http://www.w3.org/2000/svg" width="16" height="16" fill="none" viewBox="0 0 16 16"><path fill="#444f5c" d="M3.278.584a.5.5 0 0 1 .138.694C2.853 2.12 2.5 2.833 2.5 3.786c0 .974.29 1.692.834 2.507a.5.5 0 0 1-.831.556C1.883 5.919 1.5 5.01 1.5 3.786c0-1.248.482-2.162 1.084-3.064a.5.5 0 0 1 .694-.138m9.526 0a.5.5 0 0 1 .693.138c.62.93 1.003 1.838 1.003 3.063a5.9 5.9 0 0 1-1.003 3.278.5.5 0 1 1-.831-.555c.53-.795.834-1.726.834-2.723 0-.974-.29-1.692-.834-2.507a.5.5 0 0 1 .138-.694"/><path fill="#444f5c" fill-rule="evenodd" d="M6.078 4.5a1.5 1.5 0 0 1 1.5-1.5h.628a1.5 1.5 0 0 1 1.5 1.5v2.8a.5.5 0 0 0 .329.47l3.256 1.188a1.5 1.5 0 0 1 .93 1.812l-1.012 3.633a1.5 1.5 0 0 1-1.445 1.097H7.01a1.5 1.5 0 0 1-1.091-.47l-3.593-3.807a1.5 1.5 0 0 1 .047-2.107l.532-.515a1.5 1.5 0 0 1 2.152.067l1.021 1.12zm1.5-.5a.5.5 0 0 0-.5.5v6.58a.5.5 0 0 1-.87.336l-1.89-2.074a.5.5 0 0 0-.717-.022l-.532.514a.5.5 0 0 0-.016.703l3.593 3.806a.5.5 0 0 0 .364.157h4.754a.5.5 0 0 0 .482-.366l1.012-3.632a.5.5 0 0 0-.31-.604L9.692 8.71a1.5 1.5 0 0 1-.986-1.41V4.5a.5.5 0 0 0-.5-.5z" clip-rule="evenodd"/><path fill="#444f5c" d="M4.925 4.461C4.925 2.841 6.286 1.5 8 1.5s3.075 1.34 3.075 2.961c0 .414-.088.807-.246 1.164a.5.5 0 1 0 .913.407 3.9 3.9 0 0 0 .333-1.57C12.075 2.257 10.235.5 8 .5S3.925 2.258 3.925 4.461c0 .558.118 1.089.333 1.57a.5.5 0 0 0 .913-.406 2.9 2.9 0 0 1-.246-1.164"/></svg>