<svg xmlns="http://www.w3.org/2000/svg" width="16" height="16" fill="none" viewBox="0 0 16 16"><g fill="#444f5c" clip-path="url(#a)"><path d="M8.407 10.802a2.194 2.194 0 0 1 2.835.002l.105.089a.5.5 0 0 0 .646-.763l-.105-.09a3.195 3.195 0 0 0-4.126-.002 2.196 2.196 0 0 1-2.787.038l-.332-.266a.5.5 0 0 0-.625.781l.332.266a3.195 3.195 0 0 0 4.057-.055"/><path fill-rule="evenodd" d="M8 .087a7.913 7.913 0 1 0 0 15.826A7.913 7.913 0 0 0 8 .087M1.087 8a6.913 6.913 0 1 1 13.826 0A6.913 6.913 0 0 1 1.087 8" clip-rule="evenodd"/></g><defs><clipPath id="a"><path fill="#fff" d="M0 0h16v16H0z"/></clipPath></defs></svg>