<svg xmlns="http://www.w3.org/2000/svg" width="16" height="16" fill="none" viewBox="0 0 16 16"><g fill="#444f5c" clip-path="url(#a)"><path d="M4.99 8.6a.5.5 0 0 0-.988.151 4.046 4.046 0 0 0 7.996 0 .5.5 0 0 0-.989-.152 3.046 3.046 0 0 1-6.019 0"/><path fill-rule="evenodd" d="M8 .219A7.781 7.781 0 1 0 8 15.78 7.781 7.781 0 0 0 8 .22M1.219 8A6.781 6.781 0 1 1 14.78 8 6.781 6.781 0 0 1 1.22 8" clip-rule="evenodd"/></g><defs><clipPath id="a"><path fill="#fff" d="M0 0h16v16H0z"/></clipPath></defs></svg>