<svg xmlns="http://www.w3.org/2000/svg" width="16" height="16" fill="none" viewBox="0 0 16 16"><g fill="#444f5c" clip-path="url(#a)"><path fill-rule="evenodd" d="M3.778.943a1.5 1.5 0 0 1 1.357-.86h5.731a1.5 1.5 0 0 1 1.357.86l1.928 4.09H15a.5.5 0 0 1 0 1h-.667v5.55a.5.5 0 1 1-1 0v-1.15H2.667v1.15a.5.5 0 1 1-1 0v-5.55H1a.5.5 0 0 1 0-1h.85zm-1.11 4.701v1.039H4.5a.5.5 0 0 1 0 1H2.667v1.75h10.667v-1.75H11.5a.5.5 0 1 1 0-1h1.833V5.644L11.319 1.37a.5.5 0 0 0-.453-.286H5.135a.5.5 0 0 0-.453.286z" clip-rule="evenodd"/><path d="M4.805 12.064a.5.5 0 0 1 .5-.5h5.39a.5.5 0 1 1 0 1H8.5v2.817a.5.5 0 1 1-1 0v-2.817H5.305a.5.5 0 0 1-.5-.5"/></g><defs><clipPath id="a"><path fill="#fff" d="M0 0h16v16H0z"/></clipPath></defs></svg>