<svg xmlns="http://www.w3.org/2000/svg" width="16" height="16" fill="none" viewBox="0 0 16 16"><path fill="#444f5c" d="M.5 1.521A1.5 1.5 0 0 1 2 .021h9a1.5 1.5 0 0 1 1.5 1.5v.394a.5.5 0 1 1-1 0v-.394a.5.5 0 0 0-.5-.5H2a.5.5 0 0 0-.5.5v12.925a.5.5 0 0 0 .5.5h9a.5.5 0 0 0 .5-.5v-.393a.5.5 0 1 1 1 0v.393a1.5 1.5 0 0 1-1.5 1.5H2a1.5 1.5 0 0 1-1.5-1.5z"/><path fill="#444f5c" d="M2.392 3.9a.5.5 0 0 1 .5-.5h3.406a.5.5 0 0 1 0 1H2.892a.5.5 0 0 1-.5-.5m.5 1.527a.5.5 0 0 0 0 1H4.2a.5.5 0 0 0 0-1zm8.606.352a.5.5 0 0 1 .5.5v2.113l1.094-.532a.5.5 0 1 1 .437.899l-1.812.882a.5.5 0 0 1-.719-.45V6.28a.5.5 0 0 1 .5-.5"/><path fill="#444f5c" fill-rule="evenodd" d="M11.499 3.54a4.46 4.46 0 1 0 0 8.92 4.46 4.46 0 0 0 0-8.92M8.039 8a3.46 3.46 0 1 1 6.92 0 3.46 3.46 0 0 1-6.92 0" clip-rule="evenodd"/></svg>