<svg xmlns="http://www.w3.org/2000/svg" width="16" height="16" fill="none" viewBox="0 0 16 16"><g fill="#444f5c" fill-rule="evenodd" clip-path="url(#a)" clip-rule="evenodd"><path d="M8.9 3.5a.5.5 0 0 0-1 0v.444a2.6 2.6 0 0 0-.974.41l-.311-.311a.5.5 0 0 0-.707.707l.318.318a2.6 2.6 0 0 0-.38.923H5.4a.5.5 0 0 0 0 1h.443c.07.362.214.698.416.99l-.31.31a.5.5 0 0 0 .707.707l.32-.319c.276.181.589.311.924.376V9.5a.5.5 0 1 0 1 0v-.445a2.6 2.6 0 0 0 .975-.41l.311.312a.5.5 0 1 0 .707-.707l-.318-.318a2.6 2.6 0 0 0 .38-.924h.445a.5.5 0 0 0 0-1h-.443a2.6 2.6 0 0 0-.415-.99l.31-.31a.5.5 0 0 0-.707-.707l-.32.32a2.6 2.6 0 0 0-.925-.377zm-2.103 3a1.603 1.603 0 1 1 3.207 0 1.603 1.603 0 0 1-3.207 0"/><path d="M3.636 15.953c-.92 0-1.568-.798-1.492-1.63V1.547a1.5 1.5 0 0 1 1.5-1.5h9.398a1.5 1.5 0 0 1 1.5 1.5v9.876a1.5 1.5 0 0 1-1.5 1.5H5.384c-.91 0-1.747.497-2.183 1.296-.18.33.059.733.435.733h9.372a.5.5 0 1 1 0 1zM3.144 1.548a.5.5 0 0 1 .5-.5h9.398a.5.5 0 0 1 .5.5v9.876a.5.5 0 0 1-.5.5H5.384a3.5 3.5 0 0 0-2.24.814z"/></g><defs><clipPath id="a"><path fill="#fff" d="M0 0h16v16H0z"/></clipPath></defs></svg>