<svg xmlns="http://www.w3.org/2000/svg" width="16" height="16" fill="none" viewBox="0 0 16 16"><g clip-path="url(#a)"><path fill="#444f5c" fill-rule="evenodd" d="M13 1a2 2 0 1 0 0 4 2 2 0 0 0 0-4m-3 2q.001.459.13.876L5.422 6.23a3 3 0 1 0 0 3.54l4.708 2.354Q10 12.541 10 13a3 3 0 1 0 .578-1.77L5.87 8.876a3 3 0 0 0 0-1.752l4.708-2.354A3 3 0 1 0 10 3M3 6a1.995 1.995 0 0 1 1.956 1.581 2 2 0 0 1-.448 1.732A2 2 0 1 1 3 6m8 7q0-.216.044-.419A1.995 1.995 0 0 1 13 11a2 2 0 1 1-2 2" clip-rule="evenodd"/></g><defs><clipPath id="a"><path fill="#fff" d="M0 0h16v16H0z"/></clipPath></defs></svg>