<svg xmlns="http://www.w3.org/2000/svg" width="16" height="16" fill="none" viewBox="0 0 16 16"><g fill="#444f5c" clip-path="url(#a)"><path d="M6 3a1 1 0 1 0 0 2 1 1 0 0 0 0-2M5 8a1 1 0 1 1 2 0 1 1 0 0 1-2 0m5-5a1 1 0 1 0 0 2 1 1 0 0 0 0-2M9 8a1 1 0 1 1 2 0 1 1 0 0 1-2 0"/><path fill-rule="evenodd" d="M13 15.5a.5.5 0 0 0 .5-.5V2A1.5 1.5 0 0 0 12 .5H4A1.5 1.5 0 0 0 2.5 2v13a.5.5 0 0 0 .5.5zM3.5 2a.5.5 0 0 1 .5-.5h8a.5.5 0 0 1 .5.5v12.5H10V12a1.5 1.5 0 0 0-1.5-1.5h-1A1.5 1.5 0 0 0 6 12v2.5H3.5zM7 14.5V12a.5.5 0 0 1 .5-.5h1a.5.5 0 0 1 .5.5v2.5z" clip-rule="evenodd"/></g><defs><clipPath id="a"><path fill="#fff" d="M0 0h16v16H0z"/></clipPath></defs></svg>