<svg xmlns="http://www.w3.org/2000/svg" width="16" height="16" fill="none" viewBox="0 0 16 16"><g fill="#444f5c" fill-rule="evenodd" clip-path="url(#a)" clip-rule="evenodd"><path d="M10.002 14.88a.5.5 0 0 0-.5-.5H6.497a.5.5 0 1 0 0 1h3.005a.5.5 0 0 0 .5-.5M8 4.5c-1.968 0-3.5 1.476-3.5 3.22 0 1.05.546 1.993 1.413 2.587.418.285.764.767.764 1.358V12a.5.5 0 0 0 .5.5h1.646a.5.5 0 0 0 .5-.5v-.335c0-.59.346-1.072.764-1.358.867-.594 1.413-1.537 1.413-2.586C11.5 5.976 9.968 4.5 8 4.5M3.5 7.72C3.5 5.357 5.55 3.5 8 3.5s4.5 1.856 4.5 4.22c0 1.412-.737 2.65-1.848 3.412-.22.15-.33.352-.33.533V12a1.5 1.5 0 0 1-1.5 1.5H7.178a1.5 1.5 0 0 1-1.5-1.5v-.335c0-.18-.11-.383-.329-.533-1.11-.761-1.848-2-1.848-3.411M0 8a.5.5 0 0 1 .5-.5H2a.5.5 0 0 1 0 1H.5A.5.5 0 0 1 0 8m8-8a.5.5 0 0 1 .5.5V2a.5.5 0 0 1-1 0V.5A.5.5 0 0 1 8 0m6.354 2.646a.5.5 0 0 1 0 .708l-1 1a.5.5 0 0 1-.708-.708l1-1a.5.5 0 0 1 .708 0m-12.708 0a.5.5 0 0 0 0 .708l1 1a.5.5 0 1 0 .708-.708l-1-1a.5.5 0 0 0-.708 0M13.5 8a.5.5 0 0 1 .5-.5h1.5a.5.5 0 0 1 0 1H14a.5.5 0 0 1-.5-.5"/></g><defs><clipPath id="a"><path fill="#fff" d="M0 0h16v16H0z"/></clipPath></defs></svg>