<svg xmlns="http://www.w3.org/2000/svg" width="16" height="16" fill="none" viewBox="0 0 16 16"><path fill="#444f5c" fill-rule="evenodd" d="M8 3.104 6.925 5.69a1.5 1.5 0 0 1-1.265.919l-2.792.224 2.127 1.821a1.5 1.5 0 0 1 .483 1.488l-.65 2.724 2.39-1.46a1.5 1.5 0 0 1 1.564 0l2.39 1.46-.65-2.724a1.5 1.5 0 0 1 .483-1.488l2.127-1.821-2.791-.224a1.5 1.5 0 0 1-1.266-.92zm.462-1.494a.5.5 0 0 0-.924 0L6.001 5.306a.5.5 0 0 1-.421.306l-3.99.32a.5.5 0 0 0-.285.878l3.04 2.604a.5.5 0 0 1 .16.496l-.928 3.893a.5.5 0 0 0 .747.542l3.415-2.086a.5.5 0 0 1 .522 0l3.415 2.086a.5.5 0 0 0 .747-.542l-.928-3.893a.5.5 0 0 1 .16-.496l3.04-2.604a.5.5 0 0 0-.285-.878l-3.99-.32a.5.5 0 0 1-.42-.306z" clip-rule="evenodd"/></svg>