<svg xmlns="http://www.w3.org/2000/svg" width="16" height="16" fill="none" viewBox="0 0 16 16"><g fill="#444f5c" clip-path="url(#a)"><path d="M7.57 3.951a.5.5 0 0 1 .5-.5h3.669a.5.5 0 0 1 0 1h-3.67a.5.5 0 0 1-.5-.5m.501 3.514a.5.5 0 0 0 0 1h3.669a.5.5 0 0 0 0-1zm-.5 4.521a.5.5 0 0 1 .5-.5h3.669a.5.5 0 0 1 0 1h-3.67a.5.5 0 0 1-.5-.5m-2.5-7.223a.81.81 0 0 0 .808-.812.81.81 0 0 0-.808-.811.81.81 0 0 0-.808.811.81.81 0 0 0 .808.812m.808 3.202a.81.81 0 0 1-.808.811.81.81 0 0 1-.808-.811.81.81 0 0 1 .808-.812.81.81 0 0 1 .808.812m-.808 4.825a.81.81 0 0 0 .808-.811.81.81 0 0 0-.808-.812.81.81 0 0 0-.808.812.81.81 0 0 0 .808.811"/><path fill-rule="evenodd" d="M1.223 1.673a1.5 1.5 0 0 1 1.5-1.5h10.554a1.5 1.5 0 0 1 1.5 1.5V14.35a1.5 1.5 0 0 1-1.5 1.5H2.723a1.5 1.5 0 0 1-1.5-1.5zm1.5-.5a.5.5 0 0 0-.5.5V14.35a.5.5 0 0 0 .5.5h10.554a.5.5 0 0 0 .5-.5V1.673a.5.5 0 0 0-.5-.5z" clip-rule="evenodd"/></g><defs><clipPath id="a"><path fill="#fff" d="M0 0h16v16H0z"/></clipPath></defs></svg>