<svg xmlns="http://www.w3.org/2000/svg" width="16" height="16" fill="none" viewBox="0 0 16 16"><path fill="#444f5c" d="M6.45 3.1a.5.5 0 0 1 .5.5v2.765a.5.5 0 0 1-1 0V3.6a.5.5 0 0 1 .5-.5"/><path fill="#444f5c" fill-rule="evenodd" d="M8.117 3.1a.5.5 0 0 0-.5.5v2.765a.5.5 0 0 0 1 0v-.659h.852a1.303 1.303 0 1 0 0-2.606zM9.47 4.706h-.852V4.1h.852a.303.303 0 1 1 0 .606" clip-rule="evenodd"/><path fill="#444f5c" fill-rule="evenodd" d="M4.625 1.37A4.87 4.87 0 0 1 8 .022a4.87 4.87 0 0 1 3.375 1.346 4.54 4.54 0 0 1 1.407 3.272c0 1.675-.789 2.996-1.682 3.953-.892.955-1.916 1.58-2.47 1.879a1.32 1.32 0 0 1-1.26 0c-.554-.299-1.578-.924-2.47-1.879-.894-.957-1.682-2.278-1.682-3.953 0-1.231.508-2.408 1.407-3.272M8 1.022A3.87 3.87 0 0 0 5.318 2.09a3.54 3.54 0 0 0-1.1 2.551c0 1.339.626 2.428 1.413 3.27.789.845 1.709 1.41 2.213 1.681a.32.32 0 0 0 .311 0c.505-.272 1.425-.836 2.214-1.68.787-.843 1.413-1.932 1.413-3.27a3.54 3.54 0 0 0-1.1-2.552A3.87 3.87 0 0 0 8 1.023" clip-rule="evenodd"/><path fill="#444f5c" d="M1.506 4.235a.5.5 0 0 0-.5.5v7.636a.5.5 0 0 0 .5.5h12.988a.5.5 0 0 0 .5-.5V4.735a.5.5 0 0 0-.5-.5h-.212a.5.5 0 1 1 0-1h.212a1.5 1.5 0 0 1 1.5 1.5v7.636a1.5 1.5 0 0 1-1.5 1.5H1.506a1.5 1.5 0 0 1-1.5-1.5V4.735a1.5 1.5 0 0 1 1.5-1.5h.212a.5.5 0 1 1 0 1zM5 15a.5.5 0 0 0 0 1h6a.5.5 0 0 0 0-1z"/></svg>