<svg xmlns="http://www.w3.org/2000/svg" width="16" height="16" fill="none" viewBox="0 0 16 16"><path fill="#444f5c" fill-rule="evenodd" d="M4.104 2.58C4.882 1.95 6.107 1.5 7.94 1.5c2.145 0 3.44.716 4.144 1.627a.5.5 0 0 1-.791.612C10.82 3.128 9.854 2.5 7.94 2.5c-1.674 0-2.655.41-3.208.858-.555.448-.711.955-.716 1.23 0 .313.029.548.072.728a.5.5 0 0 1-.972.234 4 4 0 0 1-.1-.966v-.007c.009-.587.312-1.37 1.087-1.997m7.91 5.92H14a.5.5 0 0 0 0-1H2a.5.5 0 0 0 0 1h6c1.713 0 2.808.314 3.417.803.562.45.79 1.115.593 2.099-.17.844-1.006 1.592-2.382 1.9-1.354.303-3.125.14-4.904-.75a.5.5 0 1 0-.448.895c1.968.984 3.973 1.188 5.57.83 1.576-.351 2.866-1.29 3.144-2.679.25-1.25-.022-2.334-.947-3.076z" clip-rule="evenodd"/></svg>