<svg xmlns="http://www.w3.org/2000/svg" width="24" height="24" fill="none" viewBox="0 0 24 24"><g clip-path="url(#a)"><path fill="#444f5c" d="M3.548.976a.75.75 0 0 1 .743.648l.007.102v1.861a2.566 2.566 0 0 1 0 4.906v7.012a2.566 2.566 0 0 1 0 4.906v1.861a.75.75 0 0 1-1.493.102l-.007-.102V20.41a2.566 2.566 0 0 1 0-4.906V8.492a2.566 2.566 0 0 1 0-4.906V1.725a.75.75 0 0 1 .75-.75zm18.468 11.919a1 1 0 0 1 1 1v8.129a1 1 0 0 1-1 1H9.59a1 1 0 0 1-1-1v-1.628l-1.729-1.729a1 1 0 0 1-.083-1.32l.083-.094 1.729-1.73v-1.627a1 1 0 0 1 .883-.993l.117-.007zm-.5 1.499H10.09v1.336a1 1 0 0 1-.206.608l-.087.099-1.522 1.522 1.523 1.522c.156.156.255.359.284.576l.009.131v1.335h11.426v-7.129zm-2.05 4.065a.75.75 0 0 1 .102 1.493l-.102.007h-7.239a.75.75 0 0 1-.102-1.493l.102-.007zM3.548 16.895a1.065 1.065 0 1 0 0 2.13 1.065 1.065 0 0 0 0-2.13m13.671-.936a.75.75 0 0 1 .102 1.493l-.102.007h-4.993a.75.75 0 0 1-.102-1.493l.102-.007zM22.016.976a1 1 0 0 1 1 1v8.129a1 1 0 0 1-1 1H9.59a1 1 0 0 1-1-1V8.477l-1.729-1.73a1 1 0 0 1-.083-1.32l.083-.094 1.729-1.73V1.976a1 1 0 0 1 .883-.993L9.59.976zm-.5 1.5H10.09v1.335a1 1 0 0 1-.206.608l-.087.099L8.275 6.04l1.522 1.523c.156.156.255.359.284.576l.009.131v1.334h11.426zm-2.05 4.065a.75.75 0 0 1 .102 1.493l-.102.007h-7.239a.75.75 0 0 1-.102-1.493l.102-.007zM3.548 4.976a1.065 1.065 0 1 0 0 2.13 1.065 1.065 0 0 0 0-2.13m11.753-.935a.75.75 0 0 1 .102 1.493l-.102.007h-3.074a.75.75 0 0 1-.102-1.493l.102-.007z"/></g><defs><clipPath id="a"><path fill="#fff" d="M0 0h24v24H0z"/></clipPath></defs></svg>