<svg xmlns="http://www.w3.org/2000/svg" width="32" height="32" fill="none" viewBox="0 0 32 32"><path fill="#444f5c" d="M28.5 1v30h-25V1zM26 3.5H6v25h20zM14.825 18.225a.785.785 0 0 1 .074 1.014l-.074.086-3.5 3.4s-.064.064-.141.09l-.059.01-.06.049a.34.34 0 0 1-.18.05l-.06.001-.075-.016c-.05-.019-.1-.05-.15-.069l-.075-.016-.05-.001c-.044-.003-.062-.013-.109-.058l-.041-.041-1.6-1.6c-.3-.3-.3-.8 0-1.1a.785.785 0 0 1 1.014-.074l.086.074 1.1 1.1 3-2.9c.3-.3.7-.299.9.001m8.123 2.275a.512.512 0 1 1 0 1.024h-6.655a.512.512 0 1 1 0-1.024zM13.925 8.225c.3-.3.7-.3.9 0 .3.3.3.8 0 1.1l-3.5 3.4s-.1.1-.2.1l-.06.049c-.08.051-.16.051-.24.051l-.075-.016c-.075-.028-.15-.084-.225-.084l-.05-.001c-.054-.003-.07-.019-.15-.099l-1.6-1.6c-.3-.3-.3-.8 0-1.1s.8-.3 1.1 0l1.1 1.1zm9.023 2.275a.512.512 0 1 1 0 1.024h-6.655a.512.512 0 1 1 0-1.024z"/></svg>