<svg xmlns="http://www.w3.org/2000/svg" width="16" height="16" fill="none" viewBox="0 0 16 16"><g clip-path="url(#a)"><path fill="#444f5c" d="M8 0a8 8 0 1 1 0 16A8 8 0 0 1 8 0m4.914 5.6H3.085a.66.66 0 0 0-.486.205.68.68 0 0 0-.2.499.7.7 0 0 0 .2.499.65.65 0 0 0 .486.205h4.229v4.373q0 .257.2.437a.7.7 0 0 0 .486.18q.285 0 .486-.18.2-.18.2-.437V7.008h4.286a.7.7 0 0 0 .443-.227.67.67 0 0 0 .186-.477.7.7 0 0 0-.2-.499.65.65 0 0 0-.486-.205z"/></g><defs><clipPath id="a"><path fill="#fff" d="M0 0h16v16H0z"/></clipPath></defs></svg>