<svg xmlns="http://www.w3.org/2000/svg" width="16" height="16" fill="none" viewBox="0 0 16 16"><path fill="#444f5c" d="M2.354 1.646a.5.5 0 1 0-.708.708l4 4a.5.5 0 1 0 .708-.708z"/><path fill="#444f5c" d="M4.78 2.154a.5.5 0 0 0 0 1h4.36a.5.5 0 0 1 .374.168l4.97 5.612a.5.5 0 0 1-.012.675l-4.577 4.82a.5.5 0 0 1-.695.029L3.314 9.214a.5.5 0 0 1-.167-.374V4.793a.5.5 0 1 0-1 0V8.84c0 .428.182.836.502 1.12l5.884 5.244a1.5 1.5 0 0 0 2.086-.086l4.577-4.82a1.5 1.5 0 0 0 .036-2.028l-4.97-5.61a1.5 1.5 0 0 0-1.123-.506z"/></svg>