<svg xmlns="http://www.w3.org/2000/svg" width="16" height="16" fill="none" viewBox="0 0 16 16"><g clip-path="url(#a)"><path fill="#444f5c" d="M9.753 10.037a5.7 5.7 0 0 1 1.414 2.327c.171.553.261 1.127.261 1.714v1.058a.43.43 0 0 1-.428.428H.429a.43.43 0 0 1-.428-.428v-1.058q0-.882.261-1.714a5.7 5.7 0 0 1 2.786-3.349 3.95 3.95 0 0 0 2.673 1.061h.007a3.94 3.94 0 0 0 2.657-1.05c.499.263.96.601 1.368 1.011m4.572-2.643A5.68 5.68 0 0 1 16 11.435v1.058a.43.43 0 0 1-.428.428h-3.394a7 7 0 0 0-.193-.814 6.6 6.6 0 0 0-1.624-2.674c-.42-.42-.891-.78-1.405-1.067a3.9 3.9 0 0 0 .497-1.024q.406.095.831.094a3.92 3.92 0 0 0 2.67-1.054c.497.261.96.6 1.371 1.011zM9.05 4.086a3.95 3.95 0 0 0-1.693-1.5 3.07 3.07 0 0 1 5.999.921 3.074 3.074 0 0 1-3.732 3q.018-.176.017-.357c0-.65-.154-1.273-.463-1.847l-.009-.026-.03-.043c-.03-.05-.064-.11-.09-.15zM6.42 9.138a3.07 3.07 0 1 1-1.412-5.976A3.07 3.07 0 0 1 6.42 9.138"/></g><defs><clipPath id="a"><path fill="#fff" d="M0 0h16v16H0z"/></clipPath></defs></svg>