<svg xmlns="http://www.w3.org/2000/svg" width="16" height="16" fill="none" viewBox="0 0 16 16"><g fill="#444f5c" clip-path="url(#a)"><path fill-rule="evenodd" d="M7.687 10.042a.5.5 0 0 1-.127-.016H5.697a.5.5 0 0 1-.5-.5V4.69a.5.5 0 0 1 .5-.5H7.2l.02-.048L9.02.525c.137-.274.443-.55.866-.52.41.03.896.202 1.271.64.375.437.59 1.08.575 1.955q.001.033.017.05l.006.005h2.315a1.5 1.5 0 0 1 1.485 1.713l-.627 4.368a1.5 1.5 0 0 1-1.48 1.287zM9.915.97l-.02.04-.08-.009A.15.15 0 0 0 9.903.98zM8.184 9.04l5.262-.018a.5.5 0 0 0 .493-.43l.627-4.367a.5.5 0 0 0-.495-.57h-2.315c-.615 0-1.033-.53-1.023-1.073.012-.708-.162-1.087-.334-1.287a.83.83 0 0 0-.503-.284l-1.727 3.47v-.12l-.113.001a.5.5 0 0 1 .093.158l.02-.04v.115q.01.046.01.094v2.528zm0 0 .002.5h-.008v-.5zM7.177 7.22 7.17 5.19h-.973v3.835h.98z" clip-rule="evenodd"/><path d="M1.593 2.074a1.5 1.5 0 0 0-1.5 1.5v7.922a1.5 1.5 0 0 0 1.5 1.5H6.17a.5.5 0 0 1 .5.5v1.933a.5.5 0 0 0 .83.376l3.018-2.65a.5.5 0 0 1 .33-.123h1.615a.5.5 0 0 0 0-1h-1.615a1.5 1.5 0 0 0-.99.372l-2.188 1.92v-.828a1.5 1.5 0 0 0-1.5-1.5H1.593a.5.5 0 0 1-.5-.5V3.574a.5.5 0 0 1 .5-.5H3.45a.5.5 0 0 0 0-1z"/></g><defs><clipPath id="a"><path fill="#fff" d="M0 0h16v16H0z"/></clipPath></defs></svg>