<svg xmlns="http://www.w3.org/2000/svg" width="16" height="16" fill="none" viewBox="0 0 16 16"><g fill="#444f5c" clip-path="url(#a)"><path d="M7.635 3.52a.5.5 0 0 0-.5.5v3.122H5.043a.5.5 0 0 0 0 1h2.592a.5.5 0 0 0 .5-.5V4.021a.5.5 0 0 0-.5-.5m4.427 6.457a.5.5 0 0 1 .5.5v1.146a.5.5 0 1 1-1 0v-1.146a.5.5 0 0 1 .5-.5m.61 3.256a.61.61 0 1 1-1.22 0 .61.61 0 0 1 1.22 0"/><path fill-rule="evenodd" d="M14.109 8.6a6.921 6.921 0 1 0-5.591 5.37 4 4 0 1 0 5.59-5.37m-3.655-6.488A5.921 5.921 0 1 0 8.13 13.018a4 4 0 0 1 5.042-4.843 5.92 5.92 0 0 0-2.72-6.063M9 12a3 3 0 1 1 6 0 3 3 0 0 1-6 0" clip-rule="evenodd"/></g><defs><clipPath id="a"><path fill="#fff" d="M0 0h16v16H0z"/></clipPath></defs></svg>