<svg xmlns="http://www.w3.org/2000/svg" width="16" height="16" fill="none" viewBox="0 0 16 16"><g fill="#444f5c" clip-path="url(#a)"><path d="M7.842 1.08a.5.5 0 0 1 .316 0l5.684 1.894a.5.5 0 1 0 .316-.948L8.474.13a1.5 1.5 0 0 0-.948 0L1.842 2.026a.5.5 0 1 0 .316.948z"/><path fill-rule="evenodd" d="M5.308 4a1.5 1.5 0 0 0-1.357.86L2.023 8.95h-.85a.5.5 0 0 0 0 1h.667v5.55a.5.5 0 0 0 1 0v-1.15h10.667v1.15a.5.5 0 1 0 1 0V9.95h.667a.5.5 0 1 0 0-1h-.85l-1.928-4.09A1.5 1.5 0 0 0 11.04 4zM2.84 10.6V9.562l2.016-4.275A.5.5 0 0 1 5.308 5h5.732a.5.5 0 0 1 .452.287l2.015 4.275V10.6h-1.833a.5.5 0 0 0 0 1h1.833v1.75H2.84V11.6h1.834a.5.5 0 0 0 0-1z" clip-rule="evenodd"/></g><defs><clipPath id="a"><path fill="#fff" d="M0 0h16v16H0z"/></clipPath></defs></svg>