<svg xmlns="http://www.w3.org/2000/svg" width="16" height="16" fill="none" viewBox="0 0 16 16"><path fill="#444f5c" d="m3.252 8.678.916-2.474c.327-.586.786-.955 1.331-1.128h4.997c.568.173 1.026.543 1.331 1.128l.916 2.474.124-.053c.078-.034.162-.071.246-.099.633-.195 1.178-.13 1.244.173.066.282-.371.672-.982.868.109.152.196.304.306.499 0 .77.005 1.313.011 1.856s.011 1.086.011 1.856a.39.39 0 0 1-.393.39h-1.942a.386.386 0 0 1-.371-.39v-.328H5.018v.328a.39.39 0 0 1-.393.39H2.683a.386.386 0 0 1-.371-.39c0-.77.005-1.313.011-1.856s.011-1.086.011-1.856c.061-.136.132-.251.199-.359l.085-.14c-.589-.195-1.026-.586-.982-.868.066-.304.611-.369 1.244-.173.082.027.165.063.242.097l.128.055zm2.356-2.712c-.349.065-.567.282-.698.586q-.095.268-.198.549c-.188.52-.384 1.061-.544 1.556a30.3 30.3 0 0 1 7.681 0l-.197-.548c-.188-.52-.384-1.061-.544-1.556-.153-.304-.349-.521-.72-.586H5.609zm-1.139 4.599a.728.728 0 0 0-.773.771.73.73 0 0 0 .773.771l.174.003c.447.01.987.021.987-.387 0-.464-.696-1.158-1.161-1.158m7.623.211a.73.73 0 0 0-.56-.211c-.465 0-1.162.694-1.162 1.158 0 .409.541.397.987.387l.174-.003a.728.728 0 0 0 .773-.771.74.74 0 0 0-.213-.56zM7.514 2.171a.52.52 0 0 1 .589-.33l.074.021 5.001 1.819a.517.517 0 0 1-.28.993l-.074-.021-5.001-1.819a.517.517 0 0 1-.309-.663"/><path fill="#444f5c" d="M7.823 1.862a.518.518 0 0 1 .424.94l-.07.031-5.001 1.819a.518.518 0 0 1-.424-.94l.07-.031z"/></svg>