<svg xmlns="http://www.w3.org/2000/svg" width="16" height="16" fill="none" viewBox="0 0 16 16"><g fill="#444f5c" clip-path="url(#a)"><path d="M13.844 4.511H8l-5.906-.002c-.193 0-.277.026-.237.264.117.691.204 1.387.3 2.081l.405 2.892c.13.925.266 1.85.396 2.776q.219 1.574.434 3.149c.031.227.147.331.394.33q4.21-.01 8.42-.004c.275 0 .363-.075.402-.346q.146-1.018.285-2.036c.191-1.389.378-2.779.572-4.167q.323-2.314.651-4.627c.043-.308.037-.308-.273-.308zm-8.344 9.6c-.267.022-.46-.188-.489-.51-.121-1.35-.247-2.699-.368-4.049q-.117-1.315-.225-2.631a.477.477 0 0 1 .403-.497.46.46 0 0 1 .526.417c.071.744.129 1.49.195 2.235.072.814.15 1.628.222 2.443.056.644.105 1.289.156 1.934h-.003l.005.117c.009.318-.15.52-.422.542zm2.954-.568c0 .365-.175.584-.462.582-.276-.002-.449-.219-.45-.569q-.002-1.008 0-2.015V6.925c0-.281.135-.464.356-.503.315-.056.55.136.553.467.006.672.002 1.344.003 2.015zm3.119-6.605c-.105 1.227-.206 2.454-.313 3.68-.089 1.017-.185 2.033-.278 3.049-.024.263-.24.463-.481.445-.258-.019-.433-.216-.431-.489 0-.063.006-.125.01-.188h-.01q.142-1.546.281-3.096c.054-.613.102-1.227.153-1.841.047-.559.091-1.118.147-1.677.026-.257.259-.425.518-.398.243.025.424.256.403.513zm3.153-4.183c-.005-.382-.163-.699-.5-.868a1.8 1.8 0 0 0-.736-.177c-.742-.022-1.485-.012-2.228-.006-.176 0-.245-.042-.247-.236A1.49 1.49 0 0 0 9.526.001a525 525 0 0 0-3.073 0C5.67.003 4.991.659 4.981 1.439c-.003.207-.063.268-.268.266-.766-.009-1.531-.006-2.299 0-.719.006-1.145.446-1.144 1.163v.704c0 .315 0 .316.323.316H7.97c2.156 0 4.335-.002 6.5.003.188 0 .272-.041.262-.245-.015-.296 0-.594-.004-.891zM9.593 1.333a.29.29 0 0 1-.292.292H6.697a.29.29 0 0 1-.292-.292v-.136c0-.161.131-.292.292-.292h2.604a.293.293 0 0 1 .292.291z"/></g><defs><clipPath id="a"><path fill="#fff" d="M0 0h16v16H0z"/></clipPath></defs></svg>