<svg xmlns="http://www.w3.org/2000/svg" width="16" height="16" fill="none" viewBox="0 0 16 16"><g fill="#444f5c" fill-rule="evenodd" clip-path="url(#a)" clip-rule="evenodd"><path d="m7.014 10.974 3.529-2.117a1 1 0 0 0 0-1.715L7.014 5.025a1 1 0 0 0-1.514.858v4.234a1 1 0 0 0 1.514.857M10.028 8 6.5 10.117V5.883z"/><path d="M8 .5a7.5 7.5 0 1 0 0 15 7.5 7.5 0 0 0 0-15M1.5 8a6.5 6.5 0 1 1 13 0 6.5 6.5 0 0 1-13 0"/></g><defs><clipPath id="a"><path fill="#fff" d="M0 0h16v16H0z"/></clipPath></defs></svg>