<svg xmlns="http://www.w3.org/2000/svg" width="16" height="16" fill="none" viewBox="0 0 16 16"><g clip-path="url(#a)"><path fill="#444f5c" fill-rule="evenodd" d="M8 15A7 7 0 1 0 8 1a7 7 0 0 0 0 14m0 1A8 8 0 1 0 8 0a8 8 0 0 0 0 16M6.291 3.709a.5.5 0 0 1 0 .707L5.207 5.5H11a.5.5 0 0 1 0 1H5.207l1.084 1.084a.5.5 0 1 1-.707.707L3.646 6.354a.5.5 0 0 1 0-.708L5.584 3.71a.5.5 0 0 1 .707 0M9.71 8.414a.5.5 0 1 1 .707-.708l1.938 1.938a.5.5 0 0 1 0 .707l-1.938 1.938a.5.5 0 0 1-.707-.708l1.084-1.083H5a.5.5 0 0 1 0-1h5.793z" clip-rule="evenodd"/></g><defs><clipPath id="a"><path fill="#fff" d="M0 0h16v16H0z"/></clipPath></defs></svg>