<svg xmlns="http://www.w3.org/2000/svg" width="16" height="16" fill="none" viewBox="0 0 16 16"><path fill="#444f5c" d="M8 7.684c-.409 0-.809.372-.809.92a.5.5 0 0 1-1 0c0-1.02.772-1.92 1.809-1.92s1.808.9 1.808 1.92c0 .85-.533 1.614-1.308 1.848v.639a.5.5 0 0 1-1 0v-1.066a.5.5 0 0 1 .5-.5c.408 0 .808-.373.808-.92 0-.549-.4-.921-.808-.921m.017 5.367c.296 0 .537-.24.537-.534a.536.536 0 0 0-.537-.535.536.536 0 0 0-.537.535c0 .295.24.534.537.534"/><path fill="#444f5c" fill-rule="evenodd" d="M3.63.019a1.5 1.5 0 0 0-1.5 1.5V14.48a1.5 1.5 0 0 0 1.5 1.5h8.74a1.5 1.5 0 0 0 1.5-1.5V5.21a1.5 1.5 0 0 0-.443-1.063L9.72.456A1.5 1.5 0 0 0 8.661.018zm-.5 1.5a.5.5 0 0 1 .5-.5h4.944v2.775a1.5 1.5 0 0 0 1.5 1.5h2.795v9.187a.5.5 0 0 1-.5.5H3.631a.5.5 0 0 1-.5-.5zm9.028 2.775L9.574 1.722v2.072a.5.5 0 0 0 .5.5z" clip-rule="evenodd"/></svg>