<svg xmlns="http://www.w3.org/2000/svg" width="16" height="16" fill="none" viewBox="0 0 16 16"><g clip-path="url(#a)"><path fill="#444f5c" fill-rule="evenodd" d="M2.193 5.772A5.36 5.36 0 0 1 7.553.5h.33c2.606 0 4.749 2.022 5 4.567a3.228 3.228 0 0 1-.372 6.433H12a.5.5 0 0 1 0-1h.511a2.227 2.227 0 1 0 0-4.455h-.034a.57.57 0 0 1-.57-.558C11.865 3.29 10.069 1.5 7.884 1.5h-.33a4.36 4.36 0 0 0-4.36 4.288l-.01.621a.57.57 0 0 1-.452.546l-.333.07a1.756 1.756 0 0 0 .358 3.475h.471a.5.5 0 0 1 0 1h-.47a2.756 2.756 0 0 1-.568-5.453zm5.618 8.53a.5.5 0 0 1-.5-.5V8.619l-1.39 1.39a.5.5 0 0 1-.707-.707l2.243-2.243a.5.5 0 0 1 .707 0l2.243 2.243a.5.5 0 1 1-.707.707l-1.389-1.39v5.183a.5.5 0 0 1-.5.5" clip-rule="evenodd"/></g><defs><clipPath id="a"><path fill="#fff" d="M0 0h16v16H0z"/></clipPath></defs></svg>