<svg xmlns="http://www.w3.org/2000/svg" width="16" height="16" fill="none" viewBox="0 0 16 16"><path fill="#444f5c" fill-rule="evenodd" d="M6.5 3a2.5 2.5 0 1 0 0 5 2.5 2.5 0 0 0 0-5M3 5.5a3.5 3.5 0 1 1 7 0 3.5 3.5 0 0 1-7 0M13.5 0a.5.5 0 0 1 .5.5v4a.5.5 0 0 1-1 0v-4a.5.5 0 0 1 .5-.5" clip-rule="evenodd"/><path fill="#444f5c" fill-rule="evenodd" d="M11 2.5a.5.5 0 0 1 .5-.5h4a.5.5 0 0 1 0 1h-4a.5.5 0 0 1-.5-.5M6.5 9A4.5 4.5 0 0 0 2 13.5a.5.5 0 0 1-1 0q.001-.565.11-1.1A5.502 5.502 0 0 1 12 13.5a.5.5 0 0 1-1 0q0-.464-.09-.9A4.5 4.5 0 0 0 6.5 9" clip-rule="evenodd"/></svg>