<svg xmlns="http://www.w3.org/2000/svg" width="16" height="16" fill="none" viewBox="0 0 16 16"><path fill="#444f5c" fill-rule="evenodd" d="M7.5 14a6.5 6.5 0 1 0 0-13 6.5 6.5 0 0 0 0 13m0 1a7.5 7.5 0 1 0 0-15 7.5 7.5 0 0 0 0 15" clip-rule="evenodd"/><path fill="#444f5c" fill-rule="evenodd" d="M7.5 4a2.5 2.5 0 1 0 0 5 2.5 2.5 0 0 0 0-5M4 6.5a3.5 3.5 0 1 1 7 0 3.5 3.5 0 0 1-7 0" clip-rule="evenodd"/><path fill="#444f5c" fill-rule="evenodd" d="M7.5 10a4.5 4.5 0 0 0-4.247 3.01l-.944-.332a5.502 5.502 0 0 1 10.44.172l-.955.3A4.5 4.5 0 0 0 7.5 10" clip-rule="evenodd"/></svg>