<svg xmlns="http://www.w3.org/2000/svg" width="16" height="16" fill="none" viewBox="0 0 16 16"><g fill="#444f5c" clip-path="url(#a)"><path d="M10.444 3.163a.5.5 0 0 0-.497.868l1.449.827a.5.5 0 0 0 .496-.868z"/><path fill-rule="evenodd" d="M10.81.918a1.5 1.5 0 0 0-2.05.549L6.368 5.61a1.5 1.5 0 0 0 .549 2.049l1.055.61-1.937 3.126a.5.5 0 1 0 .85.527L8.84 8.769l1.097.634a1.5 1.5 0 0 0 2.05-.549l2.392-4.144a1.5 1.5 0 0 0-.55-2.05zM9.625 1.967a.5.5 0 0 1 .683-.183l3.02 1.743a.5.5 0 0 1 .183.683l-2.393 4.144a.5.5 0 0 1-.683.183l-3.02-1.743a.5.5 0 0 1-.182-.683z" clip-rule="evenodd"/><path d="M1.555 12.65a.5.5 0 1 0 0 1h2.234a.5.5 0 0 1 .248.065l2.342 1.338a3.5 3.5 0 0 0 2.312.414l4.946-.824a.5.5 0 0 0-.164-.987l-4.946.825a2.5 2.5 0 0 1-1.652-.296l-2.341-1.338a1.5 1.5 0 0 0-.745-.197z"/></g><defs><clipPath id="a"><path fill="#fff" d="M0 0h16v16H0z"/></clipPath></defs></svg>