<svg xmlns="http://www.w3.org/2000/svg" width="16" height="16" fill="none" viewBox="0 0 16 16"><g fill="#444f5c" clip-path="url(#a)"><path d="M8.945 11.594a.5.5 0 1 0-.707-.707l-1.163 1.162-.34-.34a.5.5 0 0 0-.708.706l.695.695a.5.5 0 0 0 .707 0z"/><path fill-rule="evenodd" d="M5.5-.033a.5.5 0 0 0 0 1h1.486V2.23H3.584a1.5 1.5 0 0 0-1.5 1.5v2.776H1.053V5.022a.5.5 0 1 0-1 0v3.97a.5.5 0 0 0 1 0V7.508h1.031v1.056c0 .398.159.78.44 1.06l1.553 1.554a3.505 3.505 0 1 0 6.685-.428l1.125-1.125a.5.5 0 0 1 .354-.147h.094a1.5 1.5 0 0 0 1.5-1.5v-.422h1.112V9.04a.5.5 0 1 0 1 0V5.07a.5.5 0 0 0-1 0v1.485h-1.112v-.423a1.5 1.5 0 0 0-1.5-1.5h-.095a.5.5 0 0 1-.353-.147L10.072 2.67a1.5 1.5 0 0 0-1.06-.439H7.985V.967H9.47a.5.5 0 0 0 0-1zm1.986 8.526c-1.269 0-2.38.674-2.995 1.683l-1.26-1.26a.5.5 0 0 1-.147-.353V3.731a.5.5 0 0 1 .5-.5h3.763a.5.5 0 0 0 .277 0h1.387a.5.5 0 0 1 .354.146l1.815 1.815a1.5 1.5 0 0 0 1.06.44h.095a.5.5 0 0 1 .5.5v1.845a.5.5 0 0 1-.5.5h-.095a1.5 1.5 0 0 0-1.06.44l-.928.927a3.5 3.5 0 0 0-2.766-1.351m0 1a2.505 2.505 0 1 0 0 5.01 2.505 2.505 0 0 0 0-5.01" clip-rule="evenodd"/></g><defs><clipPath id="a"><path fill="#fff" d="M0 0h16v16H0z"/></clipPath></defs></svg>