<svg xmlns="http://www.w3.org/2000/svg" width="16" height="16" fill="none" viewBox="0 0 16 16"><path fill="#444f5c" d="M9.863 3.725C9.863 2.772 8.962 2 7.85 2s-2.013.772-2.013 1.725S6.738 5.45 7.85 5.45s2.013-.772 2.013-1.725M6.052 5.9c-.293 0-.531.204-.531.455 0 .488.426 1.997.769 3.211l.151.537v.001c.128.459.233.834 1.281.831l.677-.003q.905-.004 1.808-.005.049.329.124.763c.079.462.174 1.016.26 1.671.051.837 1.506.86 1.587.02l.313-3.138c.041-.422-.276-.834-.807-.834H9.463c.083-.588.219-1.283.591-3.094.04-.194-.155-.332-.262-.374-.209-.081-2.078-.059-3.131-.047-.27.003-.488.006-.609.006"/><path fill="#444f5c" d="M4.818 6.558c.15.619.309 1.245.447 1.866.657 2.684.705 3.158 3.817 3.053l.542-.017c.167-.005.175 1.129.041 1.133l-.532.017c-4.156.141-4.312-.451-5.165-3.955-.161-.617-.297-1.245-.447-1.865-.177-.731 1.12-.962 1.297-.232"/></svg>