<svg xmlns="http://www.w3.org/2000/svg" width="16" height="16" fill="none" viewBox="0 0 16 16"><g clip-path="url(#a)"><path fill="#444f5c" fill-rule="evenodd" d="M.047 7.999a7.953 7.953 0 1 1 15.906 0 7.953 7.953 0 0 1-15.906 0m7.149-6.907q.113-.013.227-.023v6.452h-3c.116-2.644 1.19-4.953 2.773-6.43M3.42 7.52c.093-2.298.85-4.395 2.056-6.003a6.96 6.96 0 0 0-4.415 6.018.5.5 0 0 1 .124-.015zm-2.356.985q.059.015.121.015h2.237c.1 2.28.855 4.36 2.054 5.959a6.96 6.96 0 0 1-4.412-5.974m3.36.015h2.998v6.407l-.228-.023c-1.574-1.468-2.645-3.759-2.77-6.384m3.998 0v6.418q.12-.007.238-.018c1.582-1.468 2.66-3.766 2.787-6.4zm4.025 0c-.101 2.311-.876 4.419-2.103 6.025a6.96 6.96 0 0 0 4.589-6.03l-.073.005zm2.489-.995-.076-.005h-2.41c-.095-2.33-.871-4.454-2.107-6.07a6.96 6.96 0 0 1 4.593 6.075m-3.487-.005H8.423V1.059q.12.006.237.018c1.591 1.476 2.673 3.79 2.79 6.444" clip-rule="evenodd"/></g><defs><clipPath id="a"><path fill="#fff" d="M0 0h16v16H0z"/></clipPath></defs></svg>