<svg xmlns="http://www.w3.org/2000/svg" width="16" height="16" fill="none" viewBox="0 0 16 16"><path fill="#444f5c" d="M15.015 1.314a.5.5 0 1 0-.811-.584L4.164 14.666a.5.5 0 1 0 .812.585l1.988-2.76a1.48 1.48 0 0 1 2.083.01.5.5 0 1 0 .707-.707A2.48 2.48 0 0 0 8 11.068h-.01l1.89-2.625a5.4 5.4 0 0 1 1.967 1.258.5.5 0 1 0 .707-.707 6.4 6.4 0 0 0-2.071-1.388l1.761-2.445q.143.072.283.15a9.4 9.4 0 0 1 2.12 1.59.5.5 0 1 0 .706-.707 10.4 10.4 0 0 0-2.518-1.853zM.646 6.901a.5.5 0 0 1 0-.707 10.4 10.4 0 0 1 9.567-2.807.5.5 0 1 1-.213.977A9.4 9.4 0 0 0 1.354 6.9a.5.5 0 0 1-.708 0m2.801 2.094a.5.5 0 0 0 .707.707 5.44 5.44 0 0 1 3.6-1.587.5.5 0 0 0-.044-1 6.44 6.44 0 0 0-4.263 1.88"/></svg>