<svg xmlns="http://www.w3.org/2000/svg" width="16" height="16" fill="none" viewBox="0 0 16 16"><g fill="#444f5c" clip-path="url(#a)"><path d="M3.653 2.684a.81.81 0 0 1-.808.811.81.81 0 0 1-.807-.811.81.81 0 0 1 .807-.812.81.81 0 0 1 .808.812m1.337.811a.81.81 0 0 0 .807-.811.81.81 0 0 0-.807-.812.81.81 0 0 0-.808.812.81.81 0 0 0 .808.811"/><path fill-rule="evenodd" d="M1.674.174a1.5 1.5 0 0 0-1.5 1.5v12.653a1.5 1.5 0 0 0 1.5 1.5h12.652a1.5 1.5 0 0 0 1.5-1.5V1.674a1.5 1.5 0 0 0-1.5-1.5zm-.5 1.5a.5.5 0 0 1 .5-.5h12.652a.5.5 0 0 1 .5.5v2.42H1.174zm0 3.42v9.233a.5.5 0 0 0 .5.5h12.652a.5.5 0 0 0 .5-.5V5.095z" clip-rule="evenodd"/></g><defs><clipPath id="a"><path fill="#fff" d="M0 0h16v16H0z"/></clipPath></defs></svg>