<svg xmlns="http://www.w3.org/2000/svg" width="16" height="16" fill="none" viewBox="0 0 16 16"><path fill="#444f5c" fill-rule="evenodd" d="M0 1a1 1 0 0 1 1-1h14a1 1 0 0 1 1 1v14a1 1 0 0 1-1 1H1a1 1 0 0 1-1-1zm8.48 0h3.04a.5.5 0 0 0-.02.143v13.714q0 .075.02.143H8.48a.5.5 0 0 0 .02-.143V1.143A.5.5 0 0 0 8.48 1m4.02.143A.5.5 0 0 0 12.48 1H15v14h-2.52a.5.5 0 0 0 .02-.143zM3.52 1H1v14h2.52a.5.5 0 0 1-.02-.143V1.143A.5.5 0 0 1 3.52 1m.96 0h3.04a.5.5 0 0 0-.02.143v13.714a.5.5 0 0 0 .02.143H4.48a.5.5 0 0 0 .02-.143V1.143A.5.5 0 0 0 4.48 1" clip-rule="evenodd"/></svg>