<svg xmlns="http://www.w3.org/2000/svg" width="16" height="16" fill="none" viewBox="0 0 16 16"><path fill="#444f5c" d="M5.906 4.679c.31-.387.778-.613 1.274-.613h.316v-.405a.5.5 0 1 1 1 0v.405h.857a.5.5 0 1 1 0 1H7.18a.632.632 0 1 0 0 1.264h1.63a1.632 1.632 0 1 1 0 3.264h-.313V10a.5.5 0 0 1-1 0v-.406h-.86a.5.5 0 1 1 0-1H8.81a.632.632 0 0 0 0-1.264H7.18a1.632 1.632 0 0 1-1.274-2.65M6 11.5a.5.5 0 0 0 0 1h4a.5.5 0 1 0 0-1z"/><path fill="#444f5c" fill-rule="evenodd" d="M1.5 2A1.5 1.5 0 0 1 3 .5h10A1.5 1.5 0 0 1 14.5 2v12a1.5 1.5 0 0 1-1.5 1.5H3A1.5 1.5 0 0 1 1.5 14zM3 1.5a.5.5 0 0 0-.5.5v12a.5.5 0 0 0 .5.5h10a.5.5 0 0 0 .5-.5V2a.5.5 0 0 0-.5-.5z" clip-rule="evenodd"/></svg>