<svg xmlns="http://www.w3.org/2000/svg" width="16" height="16" fill="none" viewBox="0 0 16 16"><path fill="#444f5c" fill-rule="evenodd" d="M2.994 5.56a3.012 3.012 0 1 1 6.023 0 3.012 3.012 0 0 1-6.023 0m3.012-2.013a2.012 2.012 0 1 0 0 4.024 2.012 2.012 0 0 0 0-4.024" clip-rule="evenodd"/><path fill="#444f5c" d="M13.5 5a.5.5 0 0 0-1 0v2h-2a.5.5 0 0 0 0 1h2v2a.5.5 0 0 0 1 0V8h2a.5.5 0 0 0 0-1h-2zM1.138 15.047a4.217 4.217 0 0 1 4.217-4.217h1.252a4.185 4.185 0 0 1 4.185 4.185.5.5 0 1 0 1 0A5.185 5.185 0 0 0 6.607 9.83H5.355a5.217 5.217 0 0 0-5.217 5.217.5.5 0 0 0 1 0"/></svg>