<svg xmlns="http://www.w3.org/2000/svg" width="16" height="16" fill="none" viewBox="0 0 16 16"><path fill="#444f5c" fill-rule="evenodd" d="M8 3.371a2.759 2.759 0 1 0 0 5.517 2.759 2.759 0 0 0 0-5.517M6.24 6.13a1.759 1.759 0 1 1 3.517 0 1.759 1.759 0 0 1-3.517 0" clip-rule="evenodd"/><path fill="#444f5c" fill-rule="evenodd" d="M8 .09a6.5 6.5 0 0 0-6.499 6.498c0 1.693.73 3.259 1.773 4.686s2.427 2.759 3.8 3.985a1.45 1.45 0 0 0 1.868.068c1.244-.985 2.621-2.344 3.692-3.856 1.063-1.501 1.865-3.21 1.865-4.883A6.5 6.5 0 0 0 8 .09M2.501 6.587a5.499 5.499 0 0 1 10.998 0c0 1.371-.668 2.875-1.681 4.305-1.007 1.421-2.313 2.713-3.496 3.65a.45.45 0 0 1-.582-.03c-1.364-1.218-2.682-2.49-3.659-3.828s-1.58-2.699-1.58-4.097" clip-rule="evenodd"/></svg>