<svg xmlns="http://www.w3.org/2000/svg" width="16" height="16" fill="none" viewBox="0 0 16 16"><path fill="#444f5c" d="m2.256 9.884.336-.92h2.384l.336.92h1.24L4.496 4.548H3.072L1.008 9.884zM4.664 7.98H2.896l.888-2.448zm3.744 3.472c.952 0 2.088-.36 2.088-1.832v-3.6H9.472v.496c-.312-.392-.728-.592-1.192-.592-.976 0-1.704.704-1.704 1.968 0 1.288.736 1.968 1.704 1.968.472 0 .888-.224 1.192-.608v.392c0 .76-.576.976-1.064.976s-.896-.136-1.208-.48l-.456.736c.48.424 1 .576 1.664.576M8.6 8.956c-.576 0-.976-.4-.976-1.064s.4-1.064.976-1.064c.336 0 .704.184.872.44v1.248c-.168.248-.536.44-.872.44m4.52 1.024c.6 0 1.2-.176 1.592-.536l-.448-.656c-.248.24-.672.384-1.032.384-.656 0-1.048-.408-1.112-.896h2.872v-.224c0-1.264-.784-2.128-1.936-2.128-1.176 0-2 .904-2 2.024 0 1.24.888 2.032 2.064 2.032m.888-2.392h-1.904c.048-.384.32-.856.952-.856.672 0 .928.488.952.856"/></svg>