<svg xmlns="http://www.w3.org/2000/svg" width="16" height="16" fill="none" viewBox="0 0 16 16"><path fill="#444f5c" d="M1.5 2a.5.5 0 0 0 .5.5h12a.5.5 0 0 0 0-1H2a.5.5 0 0 0-.5.5"/><path fill="#444f5c" fill-rule="evenodd" d="M4 3.5A1.5 1.5 0 0 0 2.5 5v8A1.5 1.5 0 0 0 4 14.5h3A1.5 1.5 0 0 0 8.5 13V5A1.5 1.5 0 0 0 7 3.5zM3.5 5a.5.5 0 0 1 .5-.5h3a.5.5 0 0 1 .5.5v8a.5.5 0 0 1-.5.5H4a.5.5 0 0 1-.5-.5zm6 0A1.5 1.5 0 0 1 11 3.5h1A1.5 1.5 0 0 1 13.5 5v4a1.5 1.5 0 0 1-1.5 1.5h-1A1.5 1.5 0 0 1 9.5 9zm1.5-.5a.5.5 0 0 0-.5.5v4a.5.5 0 0 0 .5.5h1a.5.5 0 0 0 .5-.5V5a.5.5 0 0 0-.5-.5z" clip-rule="evenodd"/></svg>