<svg xmlns="http://www.w3.org/2000/svg" width="16" height="16" fill="none" viewBox="0 0 16 16"><path fill="#444f5c" fill-rule="evenodd" d="M10.339 1.605a1.508 1.508 0 0 1 2.275.862l2.177 7.89a1.492 1.492 0 0 1-1.543 1.886l-7.795-.527a1.5 1.5 0 0 1-.284-.047l-.85.266.642 1.92a.497.497 0 0 1-.316.631.503.503 0 0 1-.633-.318l-.648-1.935-.267.083a1.51 1.51 0 0 1-1.903-1.045L.532 8.826c-.21-.776.23-1.576.997-1.816l1.8-.562a1.5 1.5 0 0 1 .533-.613zm1.31 1.123a.503.503 0 0 0-.759-.287l-6.476 4.23a.5.5 0 0 0-.208.547l.86 3.133a.5.5 0 0 0 .45.369l7.795.526a.497.497 0 0 0 .515-.628zM3.235 7.524l-1.404.439a.497.497 0 0 0-.332.605l.661 2.447a.503.503 0 0 0 .635.348l1.362-.425z" clip-rule="evenodd"/></svg>