<svg xmlns="http://www.w3.org/2000/svg" width="16" height="16" fill="none" viewBox="0 0 16 16"><g fill="#444f5c" clip-path="url(#a)"><path fill-rule="evenodd" d="M4.741.275a.5.5 0 0 1 .5.5v.24H10.5v-.24a.5.5 0 0 1 1 0v.24h1.987a1.5 1.5 0 0 1 1.5 1.5v3.372a.5.5 0 1 1-1 0v-.608H1.971v8.2a.5.5 0 0 0 .5.5H5.79a.5.5 0 0 1 0 1H2.47a1.5 1.5 0 0 1-1.5-1.5V2.514a1.5 1.5 0 0 1 1.5-1.5h1.771V.775a.5.5 0 0 1 .5-.5m-.5 2v-.26h-1.77a.5.5 0 0 0-.5.5v1.764h12.016V2.514a.5.5 0 0 0-.5-.5H11.5v.261a.5.5 0 0 1-1 0v-.26H5.241v.26a.5.5 0 0 1-1 0" clip-rule="evenodd"/><path d="M11.5 10a.5.5 0 0 0-1 0v2a.5.5 0 0 0 .5.5h1.5a.5.5 0 0 0 0-1h-1z"/><path fill-rule="evenodd" d="M11.501 7.001a4.5 4.5 0 1 0 0 9 4.5 4.5 0 0 0 0-9m-3.5 4.5a3.5 3.5 0 1 1 7 0 3.5 3.5 0 0 1-7 0" clip-rule="evenodd"/></g><defs><clipPath id="a"><path fill="#fff" d="M0 0h16v16H0z"/></clipPath></defs></svg>