<svg xmlns="http://www.w3.org/2000/svg" width="16" height="16" fill="none" viewBox="0 0 16 16"><g clip-path="url(#a)"><path fill="#444f5c" d="M11.733.267c.295 0 .533.239.533.533v1.067h1.6c1.125 0 2.046.87 2.127 1.974l.006.159v9.6a2.133 2.133 0 0 1-2.133 2.133H2.133A2.133 2.133 0 0 1 0 13.6V4c0-1.178.955-2.133 2.133-2.133h1.6V.8a.533.533 0 1 1 1.066 0v1.067h6.4V.8c0-.295.239-.533.533-.533zm2.134 2.666h-1.6V4a.533.533 0 1 1-1.066 0V2.933h-6.4V4a.533.533 0 1 1-1.066 0V2.933h-1.6c-.547 0-.998.412-1.059.942l-.007.124v2.667h13.867V3.999c0-.547-.412-.998-.942-1.059l-.124-.007z"/></g><defs><clipPath id="a"><path fill="#fff" d="M0 0h16v16H0z"/></clipPath></defs></svg>