<svg xmlns="http://www.w3.org/2000/svg" width="16" height="16" fill="none" viewBox="0 0 16 16"><g fill="#444f5c" clip-path="url(#a)"><path d="M4.7 8.058a.5.5 0 0 1 .516-.5H7.5a.5.5 0 1 1 0 1H6.436l1.987 1.903a.5.5 0 0 0 .7-.007l1.307-1.308a.5.5 0 0 1 .707.707L9.83 11.161a1.5 1.5 0 0 1-2.099.023L5.7 9.237v1.103a.5.5 0 0 1-1 0z"/><path fill-rule="evenodd" d="M4.424.552a.5.5 0 0 0-1 0v1.104H1.542a1.5 1.5 0 0 0-1.5 1.5v11.182a1.5 1.5 0 0 0 1.5 1.5h12.916a1.5 1.5 0 0 0 1.5-1.5V3.156a1.5 1.5 0 0 0-1.5-1.5h-1.882V.552a.5.5 0 0 0-1 0v1.104H4.424zm7.152 3.29V2.657H4.424v1.187a.5.5 0 0 1-1 0V2.656H1.542a.5.5 0 0 0-.5.5v11.182a.5.5 0 0 0 .5.5h12.916a.5.5 0 0 0 .5-.5V3.156a.5.5 0 0 0-.5-.5h-1.882v1.187a.5.5 0 0 1-1 0" clip-rule="evenodd"/></g><defs><clipPath id="a"><path fill="#fff" d="M0 0h16v16H0z"/></clipPath></defs></svg>