<svg xmlns="http://www.w3.org/2000/svg" width="16" height="16" fill="none" viewBox="0 0 16 16"><g fill="#444f5c" clip-path="url(#a)"><path fill-rule="evenodd" d="M5.241.775a.5.5 0 0 0-1 0v.24h-1.77a1.5 1.5 0 0 0-1.5 1.5v10.964a1.5 1.5 0 0 0 1.5 1.5h3.515a.5.5 0 1 0 0-1H2.47a.5.5 0 0 1-.5-.5v-8.2h12.017v.798a.5.5 0 0 0 1 0V2.514a1.5 1.5 0 0 0-1.5-1.5H11.5V.775a.5.5 0 0 0-1 0v.24H5.241zm-1 1.24v.26a.5.5 0 0 0 1 0v-.26H10.5v.26a.5.5 0 0 0 1 0v-.26h1.987a.5.5 0 0 1 .5.5v1.764H1.97V2.514a.5.5 0 0 1 .5-.5z" clip-rule="evenodd"/><path d="M12 9.5a.5.5 0 0 0-1 0V12a.5.5 0 0 0 .5.5h2a.5.5 0 0 0 0-1H12z"/><path fill-rule="evenodd" d="M7.001 11.502a4.5 4.5 0 1 1 9 0 4.5 4.5 0 0 1-9 0m4.5-3.5a3.5 3.5 0 1 0 0 7 3.5 3.5 0 0 0 0-7" clip-rule="evenodd"/></g><defs><clipPath id="a"><path fill="#fff" d="M0 0h16v16H0z"/></clipPath></defs></svg>