<svg xmlns="http://www.w3.org/2000/svg" width="16" height="16" fill="none" viewBox="0 0 16 16"><path fill="#444f5c" fill-rule="evenodd" d="M4.573.057a.5.5 0 0 1 .503.498l.003.603h5.309l-.003-.6a.5.5 0 0 1 .497-.501.5.5 0 0 1 .503.498l.003.603h2.034a1.5 1.5 0 0 1 1.5 1.5v4.475a.5.5 0 0 1-1 0v-.841H1.67a.5.5 0 0 1-.12-.015v7.718a.5.5 0 0 0 .5.5h5.74a.5.5 0 1 1 0 1H2.05a1.5 1.5 0 0 1-1.5-1.5V2.658a1.5 1.5 0 0 1 1.5-1.5h2.028l-.003-.6a.5.5 0 0 1 .497-.501m-.485 3.109-.005-1.008H2.051a.5.5 0 0 0-.5.5v2.648a.5.5 0 0 1 .12-.014h12.25V2.658a.5.5 0 0 0-.5-.5h-2.028l.004 1.005a.499.499 0 1 1-1 .003l-.005-1.008H5.084l.005 1.005a.5.5 0 0 1-.497.501.5.5 0 0 1-.503-.498" clip-rule="evenodd"/><path fill="#444f5c" d="M12.288 10.666a.5.5 0 0 1 .5.5v1.064l.873.296a.5.5 0 1 1-.322.947l-1.198-.406a.5.5 0 0 1-.353-.485"/><path fill="#444f5c" d="M11.788 12.582v-1.416a.5.5 0 0 1 .5-.5"/><path fill="#444f5c" fill-rule="evenodd" d="M12.43 8.83a3.556 3.556 0 1 0 0 7.113 3.556 3.556 0 0 0 0-7.113m-2.556 3.557a2.556 2.556 0 1 1 5.112 0 2.556 2.556 0 0 1-5.112 0" clip-rule="evenodd"/></svg>