<svg xmlns="http://www.w3.org/2000/svg" width="16" height="16" fill="none" viewBox="0 0 16 16"><g fill="#444f5c" clip-path="url(#a)"><path d="M5.17 8a.5.5 0 0 1 .5-.5h4.828a.5.5 0 1 1 0 1H5.67a.5.5 0 0 1-.5-.5"/><path fill-rule="evenodd" d="M2 .5A1.5 1.5 0 0 0 .5 2v1a1.5 1.5 0 0 0 1 1.415V14A1.5 1.5 0 0 0 3 15.5h10a1.5 1.5 0 0 0 1.5-1.5V4.415A1.5 1.5 0 0 0 15.5 3V2A1.5 1.5 0 0 0 14 .5zm11.5 4h-11V14a.5.5 0 0 0 .5.5h10a.5.5 0 0 0 .5-.5zm.5-1a.5.5 0 0 0 .5-.5V2a.5.5 0 0 0-.5-.5H2a.5.5 0 0 0-.5.5v1a.5.5 0 0 0 .5.5z" clip-rule="evenodd"/></g><defs><clipPath id="a"><path fill="#fff" d="M0 0h16v16H0z"/></clipPath></defs></svg>