<svg xmlns="http://www.w3.org/2000/svg" width="16" height="16" fill="none" viewBox="0 0 16 16"><path fill="#444f5c" fill-rule="evenodd" d="M14.153 5.85c.66 2.394 1.133 5.29 1.344 7.092A.5.5 0 0 1 15 13.5H1a.5.5 0 0 1-.5-.5c0-.796.002-2.523 1.138-4.746q.43-.841.973-1.205a1.48 1.48 0 0 1 1.153-.236c.357.076.656.275.883.484.224.206.403.446.528.665.467.697.857 1.07 1.16 1.249.287.17.48.16.62.11.165-.06.342-.207.512-.45.167-.239.3-.53.392-.805.127-.381.259-.828.402-1.313l.13-.436c.192-.648.404-1.338.643-1.98.237-.638.508-1.253.824-1.74.308-.474.714-.914 1.254-1.058.43-.114.818.03 1.125.273.294.233.546.58.763.967.439.78.824 1.88 1.152 3.072m-2.537-3.254c-.136-.108-.205-.101-.247-.09-.174.046-.405.225-.672.635-.257.397-.498.931-.726 1.544-.226.609-.43 1.272-.622 1.917l-.126.422c-.144.49-.283.959-.416 1.358a4.2 4.2 0 0 1-.52 1.062c-.234.333-.56.662-.994.817-.459.165-.962.11-1.467-.19-.487-.288-.982-.802-1.493-1.57l-.02-.032a1.8 1.8 0 0 0-.343-.437.93.93 0 0 0-.415-.24c-.109-.024-.233-.015-.39.089-.17.114-.394.354-.637.828-.835 1.636-.992 2.958-1.021 3.79h12.927c-.232-1.771-.666-4.285-1.245-6.382-.323-1.17-.682-2.175-1.06-2.848-.19-.339-.366-.556-.513-.673" clip-rule="evenodd"/></svg>