<svg xmlns="http://www.w3.org/2000/svg" width="16" height="16" fill="none" viewBox="0 0 16 16"><path fill="#444f5c" d="m11.083 3.146.066.058 4.647 4.648c.251.25.27.646.058.92l-.058.065-4.647 4.648a.696.696 0 0 1-1.044-.92l.058-.066 3.457-3.458H6.008a.697.697 0 0 1-.081-1.389l.081-.005h7.612L10.163 4.19a.7.7 0 0 1-.058-.92l.058-.066a.7.7 0 0 1 .85-.107zM4.017 7.647a.697.697 0 0 1 .081 1.39l-.081.004h-.664a.697.697 0 0 1-.082-1.389l.082-.005zm-2.656 0a.697.697 0 0 1 .081 1.39l-.081.004H.697a.697.697 0 0 1-.081-1.389l.081-.005z"/></svg>