<svg xmlns="http://www.w3.org/2000/svg" width="16" height="16" fill="none" viewBox="0 0 16 16"><g clip-path="url(#a)"><path fill="#444f5c" fill-rule="evenodd" d="M16 8A8 8 0 1 1 0 8a8 8 0 0 1 16 0m-3.416 5.29A6.97 6.97 0 0 1 8 15a6.97 6.97 0 0 1-4.584-1.71l1.724-1.723A4.55 4.55 0 0 0 8 12.572a4.55 4.55 0 0 0 2.86-1.005zm.707-.706A6.97 6.97 0 0 0 15 8a6.97 6.97 0 0 0-1.71-4.584L11.568 5.14A4.55 4.55 0 0 1 12.57 8a4.55 4.55 0 0 1-1.004 2.86zm-2.884-1.946a.5.5 0 0 1 .232-.23c.579-.636.932-1.48.932-2.408s-.353-1.773-.934-2.408a.5.5 0 0 1-.23-.23A3.56 3.56 0 0 0 8 4.43c-.928 0-1.773.354-2.408.934a.5.5 0 0 1-.23.229A3.56 3.56 0 0 0 4.43 8c0 .927.353 1.772.933 2.407a.5.5 0 0 1 .23.231c.636.58 1.48.934 2.408.934s1.772-.354 2.407-.934m-5.974.222L2.71 12.584A6.97 6.97 0 0 1 1 8c0-1.753.644-3.356 1.71-4.584L4.432 5.14A4.55 4.55 0 0 0 3.43 8c0 1.082.376 2.077 1.004 2.86m6.427-6.427 1.724-1.724A6.97 6.97 0 0 0 8 1a6.97 6.97 0 0 0-4.584 1.71l1.725 1.723A4.55 4.55 0 0 1 8 3.43c1.082 0 2.076.376 2.86 1.004" clip-rule="evenodd"/></g><defs><clipPath id="a"><path fill="#fff" d="M0 0h16v16H0z"/></clipPath></defs></svg>