<svg xmlns="http://www.w3.org/2000/svg" width="16" height="16" fill="none" viewBox="0 0 16 16"><g clip-path="url(#a)"><path fill="#444f5c" fill-rule="evenodd" d="M8.547 1.243a3.323 3.323 0 1 1 4.7 4.7l-6.322 6.323a1.912 1.912 0 1 1-2.704-2.704l5.657-5.657a.5.5 0 0 1 .707.707L4.93 10.27a.912.912 0 0 0 1.289 1.29l6.322-6.323A2.324 2.324 0 1 0 9.254 1.95L2.932 8.273a3.735 3.735 0 1 0 5.282 5.282l5.657-5.657a.5.5 0 0 1 .707.707l-5.656 5.657a4.735 4.735 0 1 1-6.697-6.697z" clip-rule="evenodd"/></g><defs><clipPath id="a"><path fill="#fff" d="M0 0h16v16H0z"/></clipPath></defs></svg>