<svg xmlns="http://www.w3.org/2000/svg" width="16" height="16" fill="none" viewBox="0 0 16 16"><path fill="#444f5c" d="M7.452 6.224a.5.5 0 0 0-.894-.447l-1 2a.5.5 0 0 0 .447.723h1.19l-.637 1.277a.5.5 0 1 0 .894.447l1-2a.5.5 0 0 0-.447-.724H6.814z"/><path fill="#444f5c" fill-rule="evenodd" d="M.005 5c0-.847.708-1.5 1.54-1.5h10.92c.832 0 1.54.653 1.54 1.5v6c0 .847-.708 1.5-1.54 1.5H1.545c-.832 0-1.54-.653-1.54-1.5zm1.54-.5c-.317 0-.54.242-.54.5v6c0 .258.223.5.54.5h10.92c.317 0 .54-.242.54-.5V5c0-.258-.223-.5-.54-.5z" clip-rule="evenodd"/><path fill="#444f5c" d="M15.502 5.5a.5.5 0 0 1 .5.5v4a.5.5 0 0 1-1 0V6a.5.5 0 0 1 .5-.5"/></svg>