<svg xmlns="http://www.w3.org/2000/svg" width="16" height="16" fill="none" viewBox="0 0 16 16"><path fill="#444f5c" fill-rule="evenodd" d="M1 5.5a.5.5 0 0 0-.5.5v2q0 .038.006.074L.5 9.999a.5.5 0 0 0 .5.501h2.503a1.5 1.5 0 0 0 1.12-2.498A1.5 1.5 0 0 0 3.505 5.5zm.504 3-.002 1h2a.5.5 0 0 0 .002-1zm2.002-1a.5.5 0 0 0 0-1H1.5v1z" clip-rule="evenodd"/><path fill="#444f5c" d="M11.324 5.532a.5.5 0 0 1 .552.139L14.5 8.669V6a.5.5 0 0 1 1 0v4a.5.5 0 0 1-.876.33L12 7.33V10a.5.5 0 1 1-1 0V6a.5.5 0 0 1 .324-.468M6.31 8c0-.832.69-1.5 1.69-1.5.592 0 1.063.167 1.34.47a.5.5 0 1 0 .738-.675C9.54 5.71 8.75 5.5 8 5.5 6.548 5.5 5.31 6.52 5.31 8S6.548 10.5 8 10.5c.75 0 1.541-.21 2.078-.795a.5.5 0 1 0-.738-.675c-.277.303-.748.47-1.34.47-1 0-1.69-.668-1.69-1.5"/></svg>