<svg xmlns="http://www.w3.org/2000/svg" width="16" height="16" fill="none" viewBox="0 0 16 16"><g fill="#444f5c" clip-path="url(#a)"><path fill-rule="evenodd" d="M1.562 5.722A2.67 2.67 0 0 1 .156 4.603l.423-.266-.426-.262L1.99 1.09A1.5 1.5 0 0 1 3.268.376h8.466a1.5 1.5 0 0 1 1.277.714l1.837 2.985-.425.262.423.266c-.93 1.482-2.942 1.661-4.134.537a2.326 2.326 0 0 1-3.211.016A2.326 2.326 0 0 1 4.29 5.14a2.68 2.68 0 0 1-1.728.725v7.36a.5.5 0 0 0 .5.5h2.461a.5.5 0 0 1 0 1h-2.46a1.5 1.5 0 0 1-1.5-1.5zm1.28-4.108a.5.5 0 0 1 .426-.238h8.466a.5.5 0 0 1 .426.238l1.659 2.696a1.702 1.702 0 0 1-2.7-.239l-.424.266-.44-.237a1.314 1.314 0 0 1-2.314 0l-.44.237-.44-.237a1.314 1.314 0 0 1-2.315 0l-.44.237-.423-.266c-.377.6-1.035.861-1.656.783a.5.5 0 0 0-.16-.028 1.7 1.7 0 0 1-.884-.516z" clip-rule="evenodd"/><path d="M13.63 11.028a.5.5 0 0 0-.755-.657l-1.46 1.677-.39-.444a.5.5 0 1 0-.752.66l.768.874a.5.5 0 0 0 .752-.002z"/><path fill-rule="evenodd" d="M15.917 11.754a3.966 3.966 0 1 1-7.933 0 3.966 3.966 0 0 1 7.933 0M11.95 14.72a2.966 2.966 0 1 0 0-5.933 2.966 2.966 0 0 0 0 5.933" clip-rule="evenodd"/></g><defs><clipPath id="a"><path fill="#fff" d="M0 0h16v16H0z"/></clipPath></defs></svg>