<svg xmlns="http://www.w3.org/2000/svg" width="16" height="16" fill="none" viewBox="0 0 16 16"><path fill="#444f5c" d="M3.946 4.492a.5.5 0 0 1 .5-.5h.5a.5.5 0 1 1 0 1h-.5a.5.5 0 0 1-.5-.5m3.213-.5a.5.5 0 1 0 0 1h4.395a.5.5 0 1 0 0-1zm-3.213 3.5a.5.5 0 0 1 .5-.5h.5a.5.5 0 1 1 0 1h-.5a.5.5 0 0 1-.5-.5m3.213-.5a.5.5 0 1 0 0 1h4.395a.5.5 0 1 0 0-1zm-3.213 3.5a.5.5 0 0 1 .5-.5h.5a.5.5 0 1 1 0 1h-.5a.5.5 0 0 1-.5-.5m3.213-.5a.5.5 0 1 0 0 1h2.197a.5.5 0 0 0 0-1z"/><path fill="#444f5c" fill-rule="evenodd" d="M1.223 1.662a1.5 1.5 0 0 1 1.5-1.5h10.554a1.5 1.5 0 0 1 1.5 1.5v12.676a1.5 1.5 0 0 1-1.5 1.5H2.723a1.5 1.5 0 0 1-1.5-1.5zm1.5-.5a.5.5 0 0 0-.5.5v12.676a.5.5 0 0 0 .5.5h10.554a.5.5 0 0 0 .5-.5V1.662a.5.5 0 0 0-.5-.5z" clip-rule="evenodd"/></svg>