<svg xmlns="http://www.w3.org/2000/svg" width="16" height="16" fill="none" viewBox="0 0 16 16"><path fill="#444f5c" d="M6.857 9.711c-.987 0-1.787.8-1.787 1.787a.5.5 0 0 1-1 0A2.786 2.786 0 0 1 6.857 8.71h2.286a2.786 2.786 0 0 1 2.786 2.787.5.5 0 0 1-1 0c0-.987-.8-1.787-1.786-1.787z"/><path fill="#444f5c" fill-rule="evenodd" d="M8 4.003a2.012 2.012 0 1 0 0 4.023 2.012 2.012 0 0 0 0-4.023M6.988 6.015a1.012 1.012 0 1 1 2.024 0 1.012 1.012 0 0 1-2.024 0" clip-rule="evenodd"/><path fill="#444f5c" fill-rule="evenodd" d="M.5 8a7.5 7.5 0 1 1 15 0 7.5 7.5 0 0 1-15 0M8 1.5a6.5 6.5 0 1 0 0 13 6.5 6.5 0 0 0 0-13" clip-rule="evenodd"/></svg>