<svg xmlns="http://www.w3.org/2000/svg" width="16" height="16" fill="none" viewBox="0 0 16 16"><g clip-path="url(#a)"><path fill="#444f5c" d="M10.433 9.045c.434-.432.965-.672 1.528-.672.567 0 1.099.244 1.516.675l1.846 1.839c.899.896.902 2.143.015 3.063-.134.14-.278.281-.449.444l-.155.151a6 6 0 0 0-.426.452Q13.379 16 11.976 16c-.065 0-.065 0-.125-.002l-.111-.004c-1.067-.069-2.011-.377-3.168-.924a16.3 16.3 0 0 1-5.435-4.241C1.89 9.336 1.042 7.926.479 6.403.1 5.386-.051 4.521.015 3.688a2.96 2.96 0 0 1 .882-1.89L2.056.643c.438-.416.962-.644 1.517-.644.559 0 1.083.228 1.499.634a16 16 0 0 1 .75.744l.051.052.153.154.913.91c.445.44.693.976.693 1.54 0 .561-.248 1.097-.691 1.538-.14.14-.202.202-.278.28-.2.204-.359.364-.506.505.165.297.379.609.662.966.831 1.015 1.692 1.796 2.633 2.392.05.032.108.064.197.109l.781-.778z"/></g><defs><clipPath id="a"><path fill="#fff" d="M0 0h16v16H0z"/></clipPath></defs></svg>