<svg xmlns="http://www.w3.org/2000/svg" width="16" height="16" fill="none" viewBox="0 0 16 16"><path fill="#444f5c" fill-rule="evenodd" d="M8 5.895a3.125 3.125 0 1 0 0 6.25 3.125 3.125 0 0 0 0-6.25M5.875 9.02a2.125 2.125 0 1 1 4.25 0 2.125 2.125 0 0 1-4.25 0" clip-rule="evenodd"/><path fill="#444f5c" fill-rule="evenodd" d="M5.586 1.123a.5.5 0 0 0-.425.236l-.917 1.477a.5.5 0 0 1-.425.237H2a1.5 1.5 0 0 0-1.5 1.5v8.885a1.5 1.5 0 0 0 1.5 1.5h12a1.5 1.5 0 0 0 1.5-1.5V4.573a1.5 1.5 0 0 0-1.5-1.5h-1.798a.5.5 0 0 1-.398-.197L10.619 1.32a.5.5 0 0 0-.398-.197zm-.492 2.24.77-1.24h4.11l1.033 1.358a1.5 1.5 0 0 0 1.194.592H14a.5.5 0 0 1 .5.5v8.885a.5.5 0 0 1-.5.5H2a.5.5 0 0 1-.5-.5V4.573a.5.5 0 0 1 .5-.5h1.82c.518 0 1-.268 1.274-.71" clip-rule="evenodd"/></svg>