<svg xmlns="http://www.w3.org/2000/svg" width="16" height="16" fill="none" viewBox="0 0 16 16"><g clip-path="url(#a)"><path fill="#444f5c" d="M12.788 1.482a1.026 1.026 0 0 1 1.209.632l.036.114 1.937 7.749a1.026 1.026 0 0 1-.796 1.255l-.119.016-4.132.326a.36.36 0 0 0-.331.314 3.078 3.078 0 0 1-5.997.473.36.36 0 0 0-.376-.258l-2.686.212a1.03 1.03 0 0 1-1.039-.656l-.037-.118-.425-1.699c-.1-.4.05-.817.371-1.063l.101-.069 12.01-7.117q.13-.077.274-.113zM9.087 11.721l-3.032.239a.364.364 0 0 0-.283.549 2.054 2.054 0 0 0 3.682-.291.364.364 0 0 0-.367-.497"/></g><defs><clipPath id="a"><path fill="#fff" d="M0 0h16v16H0z"/></clipPath></defs></svg>