<svg xmlns="http://www.w3.org/2000/svg" width="16" height="16" fill="none" viewBox="0 0 16 16"><g fill="#444f5c" clip-path="url(#a)"><path fill-rule="evenodd" d="M.667.167a.5.5 0 0 0 0 1h1.847a.5.5 0 0 1 .49.401l.502 2.507.01.047L4.63 9.691a1.83 1.83 0 0 0 1.828 1.475h6.47a1.83 1.83 0 0 0 1.83-1.475v-.004l.84-4.406A1.5 1.5 0 0 0 14.125 3.5H4.41l-.425-2.128A1.5 1.5 0 0 0 2.514.167zM5.61 9.495l-1-4.995h9.515a.5.5 0 0 1 .49.593l-.84 4.404a.83.83 0 0 1-.832.67h-6.5a.834.834 0 0 1-.833-.672" clip-rule="evenodd"/><path d="M5.5 14a1.167 1.167 0 1 1 2.333 0A1.167 1.167 0 0 1 5.5 14m6 0a1.167 1.167 0 1 1 2.333 0 1.167 1.167 0 0 1-2.333 0"/></g><defs><clipPath id="a"><path fill="#fff" d="M0 0h16v16H0z"/></clipPath></defs></svg>