<svg xmlns="http://www.w3.org/2000/svg" width="16" height="16" fill="none" viewBox="0 0 16 16"><path fill="#444f5c" d="M1.333 4.334a1 1 0 0 0-1 1V11a1 1 0 0 0 1 1h13.334a1 1 0 0 0 1-1V5.334a1 1 0 0 0-1-1zm0-.334h13.334C15.403 4 16 4.597 16 5.333V11c0 .737-.597 1.333-1.333 1.333H1.333A1.333 1.333 0 0 1 0 11V5.333C0 4.597.597 4 1.333 4"/><path fill="#444f5c" d="M1.333 6.667v3q0 .067.007.135.067-.008.137-.008c.62 0 1.129.483 1.129 1.087q0 .06-.006.117l.066.002h10.668l.066-.002a1 1 0 0 1-.006-.117c0-.604.51-1.087 1.129-1.087q.07 0 .137.008.007-.068.007-.135v-3q0-.067-.007-.135-.067.008-.137.008c-.62 0-1.129-.483-1.129-1.087q0-.06.006-.118l-.066-.001H2.666l-.066.001a1 1 0 0 1 .006.118c0 .604-.51 1.087-1.129 1.087q-.07 0-.137-.008-.007.068-.007.135m-.333 3v-3q.001-.292.094-.553.173.091.384.093c.44 0 .795-.338.795-.754a.7.7 0 0 0-.105-.376 1.7 1.7 0 0 1 .5-.076h10.667q.262.001.5.076a.7.7 0 0 0-.106.376c0 .417.356.754.796.754a.8.8 0 0 0 .383-.093c.061.173.094.36.094.553v3q-.001.292-.094.553a.8.8 0 0 0-.383-.093c-.44 0-.796.338-.796.754 0 .137.038.265.106.376a1.7 1.7 0 0 1-.5.076H2.668q-.263-.001-.5-.076a.7.7 0 0 0 .105-.376c0-.417-.356-.754-.795-.754a.8.8 0 0 0-.384.093A1.7 1.7 0 0 1 1 9.667"/><path fill="#444f5c" d="M8 10.5a2.167 2.167 0 1 1 0-4.334A2.167 2.167 0 0 1 8 10.5m0-.333a1.833 1.833 0 1 0 0-3.666 1.833 1.833 0 0 0 0 3.666"/><path fill="#444f5c" d="M8.11 7.13a1 1 0 0 1 .669.308l-.166.206a.84.84 0 0 0-.64-.27c-.266 0-.456.144-.456.357 0 .226.256.293.538.37.362.098.774.212.774.684 0 .308-.195.623-.718.657v.193h-.238v-.197a1.06 1.06 0 0 1-.711-.35l.163-.212a.93.93 0 0 0 .697.32c.395 0 .521-.215.521-.387 0-.27-.269-.344-.561-.425-.355-.094-.75-.195-.75-.636 0-.336.267-.575.641-.617v-.227h.238z"/></svg>