<svg xmlns="http://www.w3.org/2000/svg" width="16" height="16" fill="none" viewBox="0 0 16 16"><path fill="#444f5c" d="M3.653 2.86A1.5 1.5 0 0 1 5.01 2h5.732a1.5 1.5 0 0 1 1.356.86l.897 1.902a.5.5 0 0 1-.905.426l-.896-1.901A.5.5 0 0 0 10.742 3H5.01a.5.5 0 0 0-.452.287L2.542 7.562V8.6h1.834a.5.5 0 0 1 0 1H2.542v1.75h4.56a.5.5 0 0 1 0 1h-4.56v1.15a.5.5 0 0 1-1 0V7.95H.876a.5.5 0 0 1 0-1h.85z"/><path fill="#444f5c" d="M13.022 7.146a.5.5 0 0 1 .707 0l1.5 1.5a.5.5 0 0 1-.353.854h-5a.5.5 0 0 1 0-1h3.793l-.647-.646a.5.5 0 0 1 0-.708M9.876 11h5a.5.5 0 1 1 0 1h-3.793l.646.646a.5.5 0 0 1-.707.708l-1.5-1.5A.5.5 0 0 1 9.876 11"/></svg>