<svg xmlns="http://www.w3.org/2000/svg" width="16" height="16" fill="none" viewBox="0 0 16 16"><path fill="#444f5c" d="M4.5 6a.5.5 0 0 1 .5-.5h6a.5.5 0 0 1 0 1H5a.5.5 0 0 1-.5-.5M5 8a.5.5 0 0 0 0 1h3a.5.5 0 0 0 0-1z"/><path fill="#444f5c" fill-rule="evenodd" d="M.75 3.313a1.5 1.5 0 0 1 1.5-1.5h11.5a1.5 1.5 0 0 1 1.5 1.5v8.124a1.5 1.5 0 0 1-1.5 1.5H4.646a.5.5 0 0 0-.296.097l-2.804 2.057a.5.5 0 0 1-.796-.403zm1.5-.5a.5.5 0 0 0-.5.5V13.7l2.009-1.473a1.5 1.5 0 0 1 .887-.29h9.104a.5.5 0 0 0 .5-.5V3.312a.5.5 0 0 0-.5-.5z" clip-rule="evenodd"/></svg>