<svg xmlns="http://www.w3.org/2000/svg" width="16" height="16" fill="none" viewBox="0 0 16 16"><path fill="#444f5c" d="M7 4a.5.5 0 0 0 0 1h1.8a.7.7 0 1 1 0 1.4h-.367a1.6 1.6 0 0 0-1.6 1.6.5.5 0 0 0 1 0 .6.6 0 0 1 .6-.6H8.8a1.7 1.7 0 0 0 0-3.4zm.833 5.5a.5.5 0 1 0-1 0v.2a.5.5 0 0 0 1 0z"/><path fill="#444f5c" fill-rule="evenodd" d="M2.5 1.5A1.5 1.5 0 0 0 1 3v11a.5.5 0 0 0 .785.41l2.697-1.87a.5.5 0 0 1 .285-.09H13.5a1.5 1.5 0 0 0 1.5-1.5V3a1.5 1.5 0 0 0-1.5-1.5zM2 3a.5.5 0 0 1 .5-.5h11a.5.5 0 0 1 .5.5v7.95a.5.5 0 0 1-.5.5H4.767a1.5 1.5 0 0 0-.855.268L2 13.045z" clip-rule="evenodd"/></svg>