<svg xmlns="http://www.w3.org/2000/svg" width="16" height="16" fill="none" viewBox="0 0 16 16"><g clip-path="url(#a)"><path fill="#444f5c" d="M13.602-.004a2 2 0 0 1 1.995 1.852l.005.149v12.005a2 2 0 0 1-1.852 1.995l-.149.005H9.599a2 2 0 0 1-1.995-1.852l-.005-.149v-3.902a1 1 0 0 1 1-1H11.9a.7.7 0 0 0 0-1.4H2.785l1.807 1.806c.246.246.271.63.074.904l-.074.087a.7.7 0 0 1-.904.074l-.087-.074L.6 7.495a.7.7 0 0 1-.074-.904L.6 6.504l3.001-3.001a.7.7 0 0 1 1.064.904l-.074.087L2.784 6.3l3.813-.001a1 1 0 0 0 1-1.001v-3.3A2 2 0 0 1 9.449.003l.149-.005H13.6z"/></g><defs><clipPath id="a"><path fill="#fff" d="M0 0h16v16H0z"/></clipPath></defs></svg>