<svg xmlns="http://www.w3.org/2000/svg" width="16" height="16" fill="none" viewBox="0 0 16 16"><g fill="#444f5c" clip-path="url(#a)"><path d="M.5 1A.5.5 0 0 1 1 .5h14a.5.5 0 0 1 0 1H8.32L2.039 15.208a.5.5 0 1 1-.91-.416L7.222 1.5H1A.5.5 0 0 1 .5 1"/><path d="M15.014 7.638a.5.5 0 0 1 .017.707L12.025 11.5l3.006 3.155a.5.5 0 1 1-.724.69l-2.973-3.12-2.972 3.12a.5.5 0 1 1-.724-.69l3.006-3.155-3.006-3.155a.5.5 0 0 1 .724-.69l2.972 3.12 2.973-3.12a.5.5 0 0 1 .707-.017"/></g><defs><clipPath id="a"><path fill="#fff" d="M0 0h16v16H0z"/></clipPath></defs></svg>