<svg xmlns="http://www.w3.org/2000/svg" width="24" height="24" fill="none" viewBox="0 0 24 24"><path fill="#444f5c" fill-rule="evenodd" d="M12.004 0C5.39 0 0 5.384 0 12.004S5.389 24 12.004 24C18.62 24 24 18.624 24 12.004S18.62 0 12.004 0M5.048.133A.8.8 0 0 0 4.756.2a8.97 8.97 0 0 0-4.64 4.644v-.001a.8.8 0 0 0 .399 1.093.797.797 0 0 0 1.067-.459c.706-1.646 2.163-3.096 3.808-3.801v-.001A.801.801 0 0 0 5.048.133m13.804 0a.8.8 0 0 0-.241 1.542c1.644.705 3.102 2.155 3.807 3.801v.001a.797.797 0 0 0 1.502-.001.8.8 0 0 0-.037-.633 8.98 8.98 0 0 0-4.64-4.644V.2a.8.8 0 0 0-.39-.067m-6.849 1.459c5.751 0 10.389 4.656 10.389 10.411s-4.637 10.403-10.389 10.403A10.39 10.39 0 0 1 1.606 12.003c0-5.755 4.645-10.411 10.397-10.411" clip-rule="evenodd"/><path fill="#444f5c" fill-rule="evenodd" d="M10.586 12.95c-.487-.468-1.275-1.327-1.8-1.872-.524-.507-.86-.079-1.498.624-.712.74 0 1.13 1.012 2.184l1.836 1.912c.675.624 1.237-.313 2.136-1.21l3.673-3.862c1.161-1.17 1.424-1.17.487-2.106-.825-.897-.787-.897-2.099.507-.6.585-3.56 3.705-3.747 3.823" clip-rule="evenodd"/></svg>