<svg xmlns="http://www.w3.org/2000/svg" width="16" height="16" fill="none" viewBox="0 0 16 16"><g fill="#444f5c" clip-path="url(#a)"><path d="M7.981 1.02a6.972 6.972 0 0 0 .02 13.944q.228 0 .456-.015a.5.5 0 0 1 .065.998 8 8 0 0 1-.542.016A7.972 7.972 0 0 1 8 .02q.262 0 .522.017a.5.5 0 0 1-.065.998 7 7 0 0 0-.476-.015"/><path d="M8 4.218a.5.5 0 0 1 .5.5v3.559l3.59 1.715a.5.5 0 0 1-.431.902l-3.874-1.85a.5.5 0 0 1-.285-.451V4.718a.5.5 0 0 1 .5-.5m2.242 10.376a.5.5 0 1 0 .321.947q.495-.168.963-.4a.5.5 0 1 0-.442-.896 7 7 0 0 1-.842.349m2.356-1.36a.5.5 0 1 0 .659.752 8 8 0 0 0 .737-.738.5.5 0 1 0-.751-.66 7 7 0 0 1-.646.646m1.657-2.159a.5.5 0 0 0 .896.443q.232-.468.4-.964a.5.5 0 0 0-.947-.321q-.147.433-.35.842m.705-2.627a.5.5 0 0 0 .998.065 8 8 0 0 0 0-1.043.5.5 0 0 0-.998.066 7 7 0 0 1 0 .912m-.355-2.698a.5.5 0 0 0 .947-.32 8 8 0 0 0-.4-.964.5.5 0 1 0-.896.442q.2.41.349.843m-1.36-2.356a.5.5 0 0 0 .751-.66 8 8 0 0 0-.737-.737.5.5 0 0 0-.66.752 7 7 0 0 1 .646.645m-2.159-1.657a.5.5 0 0 0 .443-.896 8 8 0 0 0-.964-.4.5.5 0 1 0-.321.947q.433.147.842.35"/></g><defs><clipPath id="a"><path fill="#fff" d="M0 0h16v16H0z"/></clipPath></defs></svg>