<svg xmlns="http://www.w3.org/2000/svg" width="16" height="16" fill="none" viewBox="0 0 16 16"><g fill="#444f5c" clip-path="url(#a)"><path d="M5.33 0a.5.5 0 0 0 0 1h5.598a.5.5 0 1 0 0-1z"/><path fill-rule="evenodd" d="M7.95 4.533a4.6 4.6 0 0 1 2.723.764 4.6 4.6 0 0 1 1.902 5.027 4.6 4.6 0 0 1-1.539 2.37.5.5 0 0 1-.702-.072L7.738 9.445a.5.5 0 0 1-.113-.297L7.47 5.052a.5.5 0 0 1 .48-.519m.54 1.015.128 3.394 2.153 2.634a3.6 3.6 0 0 0 .73-3.718 3.6 3.6 0 0 0-3.012-2.31" clip-rule="evenodd"/><path fill-rule="evenodd" d="M1.307 9.123a6.821 6.821 0 1 1 13.643 0 6.821 6.821 0 0 1-13.643 0M8.13 3.302a5.821 5.821 0 1 0 0 11.643 5.821 5.821 0 0 0 0-11.643" clip-rule="evenodd"/></g><defs><clipPath id="a"><path fill="#fff" d="M0 0h16v16H0z"/></clipPath></defs></svg>