<svg xmlns="http://www.w3.org/2000/svg" width="16" height="16" fill="none" viewBox="0 0 16 16"><path fill="#444f5c" d="m12.163 7.257-.5-.033a.502.502 0 0 0 .54.53"/><path fill="#444f5c" fill-rule="evenodd" d="M7.729 2.427c1.259 0 2.223.29 2.953.755a4.05 4.05 0 0 1 1.485 1.694 5.2 5.2 0 0 1 .485 1.882l.055.003a4.6 4.6 0 0 1 1.263.257c.469.17.966.456 1.346.934.385.485.62 1.13.62 1.962 0 1.664-.823 2.606-1.658 3.107a4.2 4.2 0 0 1-1.615.55l-.01.002h-.005l-.042-.498.04.498-.047.002-9.717-.136h-.013l-.095.004a2.9 2.9 0 0 1-1.274-.275 2.36 2.36 0 0 1-1-.898c-.274-.443-.434-1.019-.434-1.751 0-.762.223-1.35.599-1.78.369-.422.847-.65 1.288-.773A4.3 4.3 0 0 1 3.06 7.82a8 8 0 0 1-.008-.292 6.8 6.8 0 0 1 .267-1.982c.223-.735.626-1.504 1.341-2.098.72-.598 1.715-.984 3.056-1.021zM4.102 8.27a.5.5 0 0 1-.568.576H3.53l-.018-.003-.08-.009a4 4 0 0 0-.305-.015 3.3 3.3 0 0 0-.907.109c-.32.09-.602.238-.804.469-.195.222-.352.565-.352 1.12 0 .585.127.97.285 1.228.158.256.366.416.582.52a1.9 1.9 0 0 0 .882.175h.01-.002l.052-.003 9.709.137.067-.01a3.2 3.2 0 0 0 1.113-.402c.58-.348 1.172-.987 1.172-2.25 0-.632-.174-1.05-.402-1.339-.234-.294-.555-.49-.905-.617a3.9 3.9 0 0 0-1.402-.203h-.022l-.042-.497-.498-.033v-.031q.002-.038.002-.117a4 4 0 0 0-.03-.439 4.2 4.2 0 0 0-.371-1.33 3.05 3.05 0 0 0-1.12-1.282c-.543-.346-1.311-.597-2.41-.598h.008l-.014-.5v.5h.007c-1.152.033-1.918.359-2.438.79-.525.436-.84 1.015-1.023 1.62a5.8 5.8 0 0 0-.224 1.683 6 6 0 0 0 .05.743z" clip-rule="evenodd"/></svg>