<svg xmlns="http://www.w3.org/2000/svg" width="16" height="16" fill="none" viewBox="0 0 16 16"><g clip-path="url(#a)"><path fill="#444f5c" fill-rule="evenodd" d="M5.086 1.572a1.5 1.5 0 0 1 1.5-1.5h2.862a1.5 1.5 0 0 1 1.5 1.5v.623q.011.051.011.106V3.7h2.646a1.5 1.5 0 0 1 1.5 1.5v9.317a1.5 1.5 0 0 1-1.5 1.5H2.394a1.5 1.5 0 0 1-1.5-1.5v-5.98a1.5 1.5 0 0 1 1.5-1.5h2.692zM9.948 4.2q0 .054.011.106v10.71H6.09V2.187l-.003-.056v-.558a.5.5 0 0 1 .5-.5h2.862a.5.5 0 0 1 .5.5zM5.09 15.017v-6.98H2.394a.5.5 0 0 0-.5.5v5.98a.5.5 0 0 0 .5.5zm8.516 0H10.96V4.7h2.646a.5.5 0 0 1 .5.5v9.317a.5.5 0 0 1-.5.5" clip-rule="evenodd"/></g><defs><clipPath id="a"><path fill="#fff" d="M0 0h16v16H0z"/></clipPath></defs></svg>