<svg xmlns="http://www.w3.org/2000/svg" width="16" height="16" fill="none" viewBox="0 0 16 16"><path fill="#444f5c" fill-rule="evenodd" d="M8 12.035a4.658 4.658 0 1 1 0-8.07 4.658 4.658 0 1 1 0 8.07m-.892-.67a3.658 3.658 0 1 1 0-6.73A4.64 4.64 0 0 0 5.67 8c0 1.323.551 2.517 1.437 3.365m1.784-6.73a3.658 3.658 0 1 1 0 6.73A4.64 4.64 0 0 0 10.329 8a4.64 4.64 0 0 0-1.437-3.365M8 5.179a3.65 3.65 0 0 1 1.329 2.82 3.65 3.65 0 0 1-1.33 2.822A3.65 3.65 0 0 1 6.672 8 3.65 3.65 0 0 1 8 5.179" clip-rule="evenodd"/></svg>