<svg xmlns="http://www.w3.org/2000/svg" width="16" height="16" fill="none" viewBox="0 0 16 16"><path fill="#444f5c" d="M6.202 7.455a.5.5 0 1 0-.992-.129 5.2 5.2 0 0 0 0 1.348.5.5 0 0 0 .992-.129 4.2 4.2 0 0 1 0-1.09"/><path fill="#444f5c" fill-rule="evenodd" d="M5.667 2.834a5.167 5.167 0 1 0 0 10.333 5.167 5.167 0 0 0 0-10.333M1.5 8a4.167 4.167 0 0 1 5.501-3.948q-.426.36-.766.803a.5.5 0 0 0 .792.609q.335-.435.77-.77a.5.5 0 0 0 .148-.183A4.16 4.16 0 0 1 9.833 8a4.16 4.16 0 0 1-1.888 3.489.5.5 0 0 0-.148-.184 4.2 4.2 0 0 1-.77-.77.5.5 0 0 0-.792.61q.34.442.766.803A4.167 4.167 0 0 1 1.5 8" clip-rule="evenodd"/><path fill="#444f5c" d="M10.334 2.834q-.343 0-.675.043a.5.5 0 1 0 .13.992 4.2 4.2 0 0 1 1.09 0 .5.5 0 1 0 .129-.992 5 5 0 0 0-.674-.043m3.146 1.067a.5.5 0 1 0-.61.793q.435.335.77.77a.5.5 0 1 0 .792-.61 5.2 5.2 0 0 0-.953-.953m1.978 3.425a.5.5 0 0 0-.992.13 4.2 4.2 0 0 1 0 1.089.5.5 0 1 0 .992.13 5.2 5.2 0 0 0 0-1.349m-1.024 3.82a.5.5 0 1 0-.793-.61q-.335.436-.77.77a.5.5 0 1 0 .61.793c.357-.275.678-.595.952-.953m-4.643.986a.5.5 0 0 0-.13.991 5.2 5.2 0 0 0 1.349 0 .5.5 0 1 0-.13-.991 4.2 4.2 0 0 1-1.09 0"/></svg>