<svg xmlns="http://www.w3.org/2000/svg" width="32" height="32" fill="none" viewBox="0 0 32 32"><g fill="#444f5c" clip-path="url(#a)"><path d="M14.059 18.302a.545.545 0 1 1 1.092 0v2.026a.545.545 0 1 1-1.092 0z"/><path d="M1.85 20.106q-.755.348-.755.778v2.444c0 1.779 1.4 3.222 3.126 3.222h2.087c.972 4.263 5.374 2.399 5.168 0h9.502c.467 3.807 5.011 2.958 5.011 0h4.307a.6.6 0 0 0 .223-.043.636.636 0 0 0 .346-.816l-1.381-3.635a1.78 1.78 0 0 0-1.321-1.123l-5.021-.676a2.8 2.8 0 0 1-1.043-.431l-2.9-1.96a7.4 7.4 0 0 0-4.119-1.279l-4.919-.026a5.13 5.13 0 0 0-3.688 1.55l-1.466 1.493a1.66 1.66 0 0 1-1.187.502H1.847zm21.906 10.069c-1.665.148-3.091-.814-3.652-2.533h-7.675c-.392 1.232-1.533 2.214-2.887 2.478-1.747.34-3.306-.572-4.042-2.478H4.22c-2.337 0-4.218-1.939-4.218-4.314v-2.444c0-.82.541-1.378 1.389-1.769l.218-.101h2.213c.15 0 .296-.062.408-.175l1.466-1.493a6.23 6.23 0 0 1 4.473-1.877l4.919.026a8.5 8.5 0 0 1 4.725 1.467l2.9 1.96c.193.131.409.22.577.253l5.078.686a2.87 2.87 0 0 1 2.138 1.808l1.381 3.635a1.73 1.73 0 0 1-.958 2.216 1.7 1.7 0 0 1-.631.123h-3.376c-.431 1.409-1.681 2.401-3.165 2.533z"/><path d="M23.484 29.092c1.384 0 2.506-1.156 2.506-2.583s-1.122-2.583-2.506-2.583-2.506 1.156-2.506 2.583 1.122 2.583 2.506 2.583m0 .989c-1.937 0-3.495-1.606-3.495-3.572s1.558-3.572 3.495-3.572 3.495 1.606 3.495 3.572-1.558 3.572-3.495 3.572m-14.562-.989c1.384 0 2.506-1.156 2.506-2.583s-1.122-2.583-2.506-2.583-2.506 1.156-2.506 2.583 1.122 2.583 2.506 2.583m0 .989c-1.937 0-3.495-1.606-3.495-3.572s1.558-3.572 3.495-3.572 3.495 1.606 3.495 3.572-1.558 3.572-3.495 3.572M.546 23.329a.545.545 0 1 1 0-1.092h2.546a.545.545 0 1 1 0 1.092zm26.939 0a.545.545 0 1 1 0-1.092h2.546a.545.545 0 1 1 0 1.092zM6.371 21.145a.545.545 0 1 1 0-1.092h17.108a.545.545 0 1 1 0 1.092z"/><path d="M8.213 20.545a.546.546 0 0 1-.772-.772l2.376-2.376a.546.546 0 0 1 .772.772zm5.778-13.03h1.173c.09 0 .162-.073.162-.162V6.18a.16.16 0 0 0-.162-.162h-1.173a.16.16 0 0 0-.162.162v1.173c0 .09.074.162.162.162M12.17 6.018h-1.173a.16.16 0 0 0-.162.162v1.173c0 .09.073.162.162.162h1.173c.09 0 .162-.073.162-.162V6.18a.163.163 0 0 0-.162-.162m1.821 3.994h1.173c.09 0 .162-.073.162-.162V8.677a.16.16 0 0 0-.162-.162h-1.173a.16.16 0 0 0-.162.162V9.85c0 .09.074.162.162.162M12.17 8.514h-1.173a.16.16 0 0 0-.162.162v1.173c0 .09.073.162.162.162h1.173c.09 0 .162-.073.162-.162V8.676a.163.163 0 0 0-.162-.162m0 2.496h-1.173a.16.16 0 0 0-.162.162v1.173c0 .09.073.162.162.162h1.173c.09 0 .162-.073.162-.162v-1.173a.163.163 0 0 0-.162-.162"/><path d="M18.161 12.649h-.351V2.498a.17.17 0 0 0-.169-.169h-1.39v-.351a.17.17 0 0 0-.168-.169h-5.897a.17.17 0 0 0-.169.169v.351h-1.39a.17.17 0 0 0-.169.169v10.151h-.351a.17.17 0 0 0-.169.169v1.221a.17.17 0 0 0 .169.169H18.16a.17.17 0 0 0 .169-.169v-1.221a.17.17 0 0 0-.168-.169M9.498 3.368h7.274v9.282h-1.298v-1.825c0-.1-.082-.182-.182-.182h-1.195c-.1 0-.182.082-.182.182v1.825H9.498z"/></g><defs><clipPath id="a"><path fill="#fff" d="M0 0h32v32H0z"/></clipPath></defs></svg>