<svg xmlns="http://www.w3.org/2000/svg" width="16" height="16" fill="none" viewBox="0 0 16 16"><g clip-path="url(#a)"><path fill="#444f5c" d="M8 0a1.5 1.5 0 0 1 .501 2.914v1.621a3.5 3.5 0 0 1 1.595.661l1.146-1.147a1.5 1.5 0 1 1 .708.708l-1.147 1.146a3.5 3.5 0 0 1 .661 1.595l1.621.001a1.5 1.5 0 1 1 .001 1.001h-1.621a3.5 3.5 0 0 1-.661 1.595l1.147 1.146a1.5 1.5 0 1 1-.708.708l-1.146-1.147a3.5 3.5 0 0 1-1.595.661v1.621a1.5 1.5 0 1 1-1.001-.001v-1.621a3.5 3.5 0 0 1-1.596-.661l-1.146 1.147a1.5 1.5 0 1 1-.708-.708l1.147-1.146a3.5 3.5 0 0 1-.661-1.595H2.916a1.5 1.5 0 1 1 .001-1.001h1.621a3.5 3.5 0 0 1 .661-1.596L4.052 4.756a1.5 1.5 0 1 1 .708-.708l1.146 1.147a3.5 3.5 0 0 1 1.596-.661v-1.62a1.5 1.5 0 0 1 .5-2.916zm0 7a1 1 0 1 0 0 2 1 1 0 0 0 0-2"/></g><defs><clipPath id="a"><path fill="#fff" d="M0 0h16v16H0z"/></clipPath></defs></svg>