<svg xmlns="http://www.w3.org/2000/svg" width="16" height="16" fill="none" viewBox="0 0 16 16"><path fill="#444f5c" d="M10.167 3.286a.5.5 0 0 0 .147-.692l-.302-.464a6.211 6.211 0 0 1 .302 11.64.5.5 0 1 0 .372.928 7.21 7.21 0 0 0-.209-13.464l.358-.166a.5.5 0 0 0-.421-.907L8.728.944a.5.5 0 0 0-.208.727l.956 1.469a.5.5 0 0 0 .691.146M5.379 15.684a.5.5 0 0 1 .266-.655l.277-.118a7.21 7.21 0 0 1-.608-13.597.5.5 0 1 1 .372.928 6.21 6.21 0 0 0 .701 11.762l-.32-.532a.5.5 0 0 1 .857-.515l.958 1.593a.5.5 0 0 1-.234.718l-1.614.682a.5.5 0 0 1-.655-.266"/><path fill="#444f5c" fill-rule="evenodd" d="M8.5 4.916a.5.5 0 1 0-1 0v.47c-.373.07-.72.22-1.02.429l-.33-.33a.5.5 0 0 0-.706.708l.335.336c-.192.288-.33.616-.397.968H4.91a.5.5 0 0 0 0 1h.468c.071.38.222.732.436 1.037l-.328.328a.5.5 0 1 0 .707.707l.337-.338c.289.192.617.328.97.395v.47a.5.5 0 0 0 1 0v-.47c.373-.07.72-.22 1.02-.429l.33.33a.5.5 0 1 0 .707-.707l-.337-.337c.193-.288.33-.615.398-.968h.472a.5.5 0 1 0 0-1h-.468a2.65 2.65 0 0 0-.436-1.037l.328-.328a.5.5 0 1 0-.707-.707l-.337.337a2.7 2.7 0 0 0-.97-.394zm-2.167 3.09a1.667 1.667 0 1 1 3.334 0 1.667 1.667 0 0 1-3.334 0" clip-rule="evenodd"/></svg>