<svg xmlns="http://www.w3.org/2000/svg" width="16" height="16" fill="none" viewBox="0 0 16 16"><path fill="#444f5c" d="M10.627 8.26a.5.5 0 0 0-.745-.667l-2.809 3.131-.957-1.058a.5.5 0 0 0-.742.67l1.33 1.47a.5.5 0 0 0 .743-.001z"/><path fill="#444f5c" fill-rule="evenodd" d="M1.5 1.927A1.5 1.5 0 0 1 3 .427h6.586a1.5 1.5 0 0 1 1.06.44l3.415 3.413a1.5 1.5 0 0 1 .439 1.061v8.586a1.5 1.5 0 0 1-1.5 1.5H3a1.5 1.5 0 0 1-1.5-1.5zm1.5-.5a.5.5 0 0 0-.5.5v12a.5.5 0 0 0 .5.5h10a.5.5 0 0 0 .5-.5v-8.5H11a1.5 1.5 0 0 1-1.5-1.5v-2.5zm7.5.707 2.293 2.293H11a.5.5 0 0 1-.5-.5z" clip-rule="evenodd"/></svg>