<svg xmlns="http://www.w3.org/2000/svg" width="16" height="16" fill="none" viewBox="0 0 16 16"><path fill="#444f5c" d="M9.87 6.421a.5.5 0 0 1 .038.706L7.742 9.541a.5.5 0 0 1-.743.002l-.906-1.001a.5.5 0 0 1 .742-.671l.533.59 1.796-2.002a.5.5 0 0 1 .706-.038M5 11.427a.5.5 0 0 0 0 1h6a.5.5 0 0 0 0-1z"/><path fill="#444f5c" fill-rule="evenodd" d="M3 .427a1.5 1.5 0 0 0-1.5 1.5v12a1.5 1.5 0 0 0 1.5 1.5h10a1.5 1.5 0 0 0 1.5-1.5V5.341a1.5 1.5 0 0 0-.44-1.06L10.647.866a1.5 1.5 0 0 0-1.06-.439zm-.5 1.5a.5.5 0 0 1 .5-.5h6.5v2.5a1.5 1.5 0 0 0 1.5 1.5h2.5v8.5a.5.5 0 0 1-.5.5H3a.5.5 0 0 1-.5-.5zm10.293 2.5L10.5 2.134v1.793a.5.5 0 0 0 .5.5z" clip-rule="evenodd"/></svg>