<svg xmlns="http://www.w3.org/2000/svg" width="16" height="16" fill="none" viewBox="0 0 16 16"><path fill="#444f5c" fill-rule="evenodd" d="M9 5.505a.5.5 0 0 0-.5.5v6.003a.5.5 0 0 0 1 0v-1.5H12a2.5 2.5 0 0 0 2.5-2.5 2.503 2.503 0 0 0-2.503-2.503zm3 4.003H9.5V6.505h2.497c.83 0 1.502.673 1.502 1.503a1.5 1.5 0 0 1-1.5 1.5" clip-rule="evenodd"/><path fill="#444f5c" d="M2.5 9.007c0-1.376 1.166-2.5 2.5-2.5.697 0 1.155.27 1.616.82a.5.5 0 0 0 .767-.64C6.78 5.964 6.06 5.507 5 5.507c-1.874 0-3.5 1.56-3.5 3.5s1.626 3.5 3.5 3.5c1.06 0 1.78-.456 2.383-1.18a.5.5 0 0 0-.767-.64c-.46.551-.919.82-1.616.82-1.334 0-2.5-1.124-2.5-2.5"/></svg>