<svg xmlns="http://www.w3.org/2000/svg" width="16" height="16" fill="none" viewBox="0 0 16 16"><g clip-path="url(#a)"><path fill="#444f5c" d="M8 .004c4.409 0 7.996 3.587 7.996 7.996S12.409 15.996 8 15.996.004 12.409.004 8 3.591.004 8 .004M6.736 6.433c0-.506.74-.592 1.382-.592.605 0 1.431.284 2.123.642l.135-1.394c-.346-.198-1.147-.432-1.962-.481l.197-1.419h-1.32l.198 1.419c-1.703.16-2.258 1.147-2.258 1.974 0 2.085 3.886 1.641 3.886 2.924 0 .482-.456.654-1.258.654-1.086 0-1.9-.382-2.319-.777l-.21 1.567c.395.234 1.197.444 2.159.494l-.198 1.37h1.32l-.197-1.382c1.999-.173 2.357-1.234 2.357-1.937 0-2.48-4.034-1.863-4.034-3.06z"/></g><defs><clipPath id="a"><path fill="#fff" d="M0 0h16v16H0z"/></clipPath></defs></svg>