<svg xmlns="http://www.w3.org/2000/svg" width="16" height="16" fill="none" viewBox="0 0 16 16"><g clip-path="url(#a)"><path fill="#444f5c" fill-rule="evenodd" d="M1.03 8a6.971 6.971 0 1 1 13.94 0A6.971 6.971 0 0 1 1.03 8M8 .029a7.971 7.971 0 1 0 0 15.942A7.971 7.971 0 0 0 8 .029M6.98 4.643a1.929 1.929 0 0 0 0 3.857h2.055a.929.929 0 1 1 0 1.857H6.293a.5.5 0 1 0 0 1h1.214V12a.5.5 0 0 0 1 0v-.643h.528a1.929 1.929 0 1 0 0-3.857H6.979a.929.929 0 0 1 0-1.857h2.742a.5.5 0 1 0 0-1H8.507V4a.5.5 0 0 0-1 0v.643z" clip-rule="evenodd"/></g><defs><clipPath id="a"><path fill="#fff" d="M0 0h16v16H0z"/></clipPath></defs></svg>