<svg xmlns="http://www.w3.org/2000/svg" width="16" height="16" fill="none" viewBox="0 0 16 16"><path fill="#444f5c" d="M7 3.5a.5.5 0 0 0-1 0V4a1.5 1.5 0 1 0 0 3h1.5a.5.5 0 0 1 0 1H5a.5.5 0 0 0 0 1h1v.5a.5.5 0 0 0 1 0V9h.5a1.5 1.5 0 1 0 0-3H6a.5.5 0 0 1 0-1h2a.5.5 0 0 0 0-1H7zm-3 8a.5.5 0 0 0 0 1h5a.5.5 0 0 0 0-1z"/><path fill="#444f5c" fill-rule="evenodd" d="M2 .5A1.5 1.5 0 0 0 .5 2v12A1.5 1.5 0 0 0 2 15.5h11a1.5 1.5 0 0 0 1.5-1.5v-3a.5.5 0 0 0-.5-.5h-1.5V2A1.5 1.5 0 0 0 11 .5zm9.5 14H2a.5.5 0 0 1-.5-.5V2a.5.5 0 0 1 .5-.5h9a.5.5 0 0 1 .5.5zm1.5 0h-.5v-3h1V14a.5.5 0 0 1-.5.5" clip-rule="evenodd"/></svg>