<svg xmlns="http://www.w3.org/2000/svg" width="16" height="16" fill="none" viewBox="0 0 16 16"><g fill="#444f5c" fill-rule="evenodd" clip-path="url(#a)" clip-rule="evenodd"><path d="M3.542 6.417a4.45 4.45 0 0 0 1.583 3.408v3.716a.5.5 0 0 0 .724.447l2.15-1.075 2.152 1.075a.5.5 0 0 0 .724-.447V9.824a4.458 4.458 0 1 0-7.333-3.407M8 2.959a3.458 3.458 0 1 0 0 6.916 3.458 3.458 0 0 0 0-6.916m-1.875 9.773v-2.269c.57.264 1.205.412 1.875.412s1.305-.148 1.875-.412v2.27l-1.652-.827a.5.5 0 0 0-.447 0z"/><path d="M13 0H3a3 3 0 0 0-3 3v10a3 3 0 0 0 3 3h10a3 3 0 0 0 3-3V3a3 3 0 0 0-3-3M1 3a2 2 0 0 1 2-2h10a2 2 0 0 1 2 2v10a2 2 0 0 1-2 2H3a2 2 0 0 1-2-2z"/></g><defs><clipPath id="a"><path fill="#fff" d="M0 0h16v16H0z"/></clipPath></defs></svg>