<svg xmlns="http://www.w3.org/2000/svg" width="16" height="16" fill="none" viewBox="0 0 16 16"><g fill="#444f5c" fill-rule="evenodd" clip-path="url(#a)" clip-rule="evenodd"><path d="M6.634 2.551a2.7 2.7 0 0 1-.704.46c-.266.11-.555.148-.812.164-.168.011-.355.014-.526.017l-.234.004c-.517.015-.796.078-.948.23s-.215.432-.23.949l-.004.233c-.003.171-.006.358-.017.526a2.6 2.6 0 0 1-.164.812 2.7 2.7 0 0 1-.46.703c-.118.136-.252.277-.376.406l-.148.155c-.166.178-.297.33-.387.476-.088.142-.118.249-.118.336s.03.194.118.336c.09.146.22.299.387.477l.148.155c.124.129.258.27.376.405.171.2.347.434.46.703.11.266.147.556.164.813.011.168.014.355.017.526q0 .126.004.233c.015.517.078.797.23.949s.431.215.948.23l.234.004c.171.002.358.005.526.016.257.017.546.055.812.165.269.112.504.288.703.46.136.117.277.252.405.375l.156.148c.178.167.33.298.476.387.142.088.249.118.336.118s.194-.03.336-.118c.146-.09.298-.22.476-.387l.156-.148c.128-.123.27-.258.405-.375.199-.172.434-.348.703-.46.266-.11.555-.148.813-.165.168-.01.354-.014.526-.016l.233-.005c.517-.014.796-.077.948-.23.152-.152.215-.43.23-.948l.004-.233c.003-.171.006-.358.017-.526.017-.257.054-.546.164-.812.112-.27.29-.505.46-.704.118-.136.252-.276.376-.405L14 8.835c.166-.178.297-.331.387-.477.088-.142.118-.248.118-.336 0-.087-.03-.193-.118-.335A3 3 0 0 0 14 7.212l-.146-.154c-.124-.129-.26-.27-.378-.408a2.46 2.46 0 0 1-.624-1.516c-.011-.168-.014-.355-.017-.526q0-.125-.004-.234c-.015-.517-.078-.796-.23-.948s-.431-.215-.948-.23l-.233-.004c-.172-.003-.358-.006-.526-.017a2.6 2.6 0 0 1-.812-.164 2.7 2.7 0 0 1-.704-.46 10 10 0 0 1-.405-.375l-.156-.148a3 3 0 0 0-.476-.388c-.142-.087-.249-.118-.336-.118s-.194.03-.335.118c-.145.09-.298.22-.476.387l-.153.147c-.13.123-.27.259-.408.377M7.145.79c.239-.147.528-.267.861-.267s.622.12.861.267c.236.146.45.335.635.51l.188.177c.118.114.226.218.342.318.169.145.309.241.433.293.115.047.274.076.494.09.146.01.286.012.44.014l.283.006c.48.013 1.16.055 1.627.522s.509 1.148.523 1.627l.005.283a8 8 0 0 0 .014.44c.014.22.043.38.09.495.052.124.148.265.294.434.1.116.205.225.319.344l.176.185c.174.185.363.399.509.634.147.24.267.528.267.861 0 .334-.12.622-.267.861a4 4 0 0 1-.509.636l-.178.187a8 8 0 0 0-.317.343 1.7 1.7 0 0 0-.294.433 1.6 1.6 0 0 0-.09.494 8 8 0 0 0-.014.44l-.005.283c-.014.479-.055 1.16-.523 1.627-.467.467-1.148.508-1.627.522l-.283.005c-.154.003-.294.005-.44.014-.22.014-.379.043-.494.09a1.7 1.7 0 0 0-.433.294c-.116.1-.224.204-.342.317l-.188.178a4 4 0 0 1-.635.51 1.64 1.64 0 0 1-.861.266 1.64 1.64 0 0 1-.861-.267 4 4 0 0 1-.635-.509q-.1-.093-.188-.178c-.118-.113-.226-.217-.342-.317a1.7 1.7 0 0 0-.433-.293 1.6 1.6 0 0 0-.494-.09c-.145-.01-.286-.012-.44-.015l-.283-.005c-.48-.014-1.16-.055-1.627-.522-.467-.468-.509-1.148-.522-1.627l-.006-.284a8 8 0 0 0-.014-.44 1.6 1.6 0 0 0-.09-.493 1.7 1.7 0 0 0-.294-.433 8 8 0 0 0-.317-.343l-.178-.187a4 4 0 0 1-.509-.636 1.64 1.64 0 0 1-.267-.86c0-.334.12-.623.267-.862.145-.236.335-.45.509-.635l.178-.187c.114-.119.217-.227.317-.343a1.7 1.7 0 0 0 .294-.433c.047-.114.076-.274.09-.494a8 8 0 0 0 .014-.44l.006-.283c.013-.479.055-1.16.522-1.627s1.147-.51 1.627-.523l.283-.006c.154-.002.295-.004.44-.013.22-.015.38-.044.494-.091M7.145.789a4 4 0 0 0-.634.51zm-.634.51q-.098.091-.185.175zm-.185.175c-.12.115-.228.22-.345.32zm-.345.32a1.7 1.7 0 0 1-.434.293z"/><path d="M11.052 5.784a.5.5 0 0 1 0 .707l-3.77 3.77a.5.5 0 0 1-.707 0L4.96 8.645a.5.5 0 1 1 .707-.707L6.93 9.2l3.416-3.416a.5.5 0 0 1 .707 0"/></g><defs><clipPath id="a"><path fill="#fff" d="M0 0h16v16H0z"/></clipPath></defs></svg>