<svg xmlns="http://www.w3.org/2000/svg" width="16" height="16" fill="none" viewBox="0 0 16 16"><g clip-path="url(#a)"><path fill="#444f5c" fill-rule="evenodd" d="M3.004 2.25a.5.5 0 0 1 .439-.262h9.114a.5.5 0 0 1 .44.261l1.871 3.444c-.69 1.055-2.303 1.014-2.938-.13a.562.562 0 0 0-.998.03c-.487 1.024-1.942 1.024-2.425.009a.561.561 0 0 0-1.014 0C7.01 6.617 5.555 6.617 5.07 5.593a.562.562 0 0 0-.999-.03c-.635 1.144-2.248 1.185-2.938.13zM3.443.987a1.5 1.5 0 0 0-1.318.784L.139 5.425a.58.58 0 0 0 .003.554l.049.089c.922 1.662 3.15 1.818 4.355.529C5.454 7.606 7.083 7.62 8 6.622c.918.998 2.546.984 3.454-.025 1.205 1.289 3.433 1.133 4.355-.53l.05-.088a.58.58 0 0 0 .002-.554l-1.986-3.653a1.5 1.5 0 0 0-1.318-.784zM13.918 9a.5.5 0 1 0-1 0v5a.5.5 0 0 1-.5.5H3.463a.5.5 0 0 1-.5-.5V9a.5.5 0 0 0-1 0v5a1.5 1.5 0 0 0 1.5 1.5h8.955a1.5 1.5 0 0 0 1.5-1.5z" clip-rule="evenodd"/></g><defs><clipPath id="a"><path fill="#fff" d="M0 0h16v16H0z"/></clipPath></defs></svg>