<svg xmlns="http://www.w3.org/2000/svg" width="16" height="16" fill="none" viewBox="0 0 16 16"><g clip-path="url(#a)"><path fill="#444f5c" d="M6.709 8a4.002 4.002 0 1 1 0 8.005 4.002 4.002 0 0 1 0-8.005m1.217 2.59-.069.058-1.647 1.647-.647-.647-.069-.058a.5.5 0 0 0-.696.696l.058.069 1 1 .069.058a.5.5 0 0 0 .569 0l.069-.058 2.001-2.001.058-.069a.5.5 0 0 0-.696-.696zM4.574.016l.131.029 3.437.921c.536.144 1 .473 1.313.927l.098.156 4.262 7.383c.362.628.181 1.42-.397 1.832l-.113.073-1.6.925q.006-.128.007-.258A5.002 5.002 0 0 0 3.451 8.21L2.31 6.234a2.33 2.33 0 0 1-.273-1.584l.041-.18.921-3.437c.188-.7.876-1.132 1.576-1.014zm.159 2.048a.93.93 0 1 0 .928 1.61.93.93 0 0 0-.928-1.61"/></g><defs><clipPath id="a"><path fill="#fff" d="M0 0h16v16H0z"/></clipPath></defs></svg>