<svg xmlns="http://www.w3.org/2000/svg" width="16" height="16" fill="none" viewBox="0 0 16 16"><g fill="#444f5c" clip-path="url(#a)"><path d="m3.831 10.21.781.785-.781.785.781.785-.781.785.919.924-.642.646-.661-.664V8.221a.38.38 0 1 0-.762 0v6.349L4.107 16l1.422-1.43v-.592l-.625-.628.781-.785-.781-.785.781-.785-.781-.785.625-.628V8.221a.38.38 0 1 0-.762 0v1.047z"/><path d="M5.045 1.063c1.463 0 2.21 1.08 2.463 2.82.086.592.105 1.085.105 1.931 0 1.868-1.28 2.841-3.089 2.841H3.71C1.875 8.62.603 7.659.603 5.814c0-.846.019-1.339.104-1.931.249-1.74.988-2.821 2.438-2.821h1.901zM4.42 3.809c.26 0 .469-.236.469-.471a.47.47 0 0 0-.469-.471h-.599a.47.47 0 0 0-.469.471c0 .262.208.471.469.471z"/><path d="M10.347 9.38 7.241 6.258q-.802-.409-1.149-1.434c-.189-.729.108-1.438.818-2.08l.937-.942a2.51 2.51 0 0 1 3.559-.001l3.256 3.246a2.537 2.537 0 0 1 0 3.573l-.755.759a2.51 2.51 0 0 1-3.56 0zm2.899-2.493c0-.607-.489-1.099-1.094-1.099s-1.094.492-1.094 1.099.489 1.099 1.094 1.099 1.094-.492 1.094-1.099M9.718 3.485a.49.49 0 0 0 0-.68.486.486 0 0 0-.677 0l-.417.419a.49.49 0 0 0 0 .68.486.486 0 0 0 .677 0z"/><path d="M4.204 2.525C3.825 1.51 4.304.762 5.305.762c.511 0 1.085.213 1.6.583.526.385.939.905 1.141 1.446.07.187.106.349.106.469l.335-.181c0-.224.371-.289.272-.554-.256-.687-.763-1.326-1.408-1.797C6.711.269 5.987 0 5.304 0 3.756 0 2.93 1.291 3.489 2.791z"/></g><defs><clipPath id="a"><path fill="#fff" d="M0 0h16v16H0z"/></clipPath></defs></svg>