<svg xmlns="http://www.w3.org/2000/svg" width="32" height="32" fill="none" viewBox="0 0 32 32"><g fill="#444f5c" clip-path="url(#a)"><path d="M14.059 18.589a.545.545 0 1 1 1.092 0v2.026a.545.545 0 1 1-1.092 0z"/><path d="M1.85 20.394q-.755.348-.755.778v2.444c0 1.78 1.4 3.222 3.126 3.222h2.087c.972 4.263 5.374 2.399 5.168 0h9.502c.467 3.807 5.011 2.958 5.011 0h4.307a.6.6 0 0 0 .223-.043.636.636 0 0 0 .346-.816l-1.381-3.635a1.78 1.78 0 0 0-1.321-1.123l-5.021-.676a2.8 2.8 0 0 1-1.043-.431l-2.9-1.96a7.4 7.4 0 0 0-4.119-1.279l-4.919-.026a5.13 5.13 0 0 0-3.688 1.55l-1.466 1.493a1.66 1.66 0 0 1-1.187.502H1.847zm21.906 10.069c-1.665.148-3.091-.814-3.652-2.533h-7.675c-.392 1.232-1.533 2.214-2.887 2.478-1.747.34-3.306-.572-4.042-2.478H4.22c-2.337 0-4.218-1.939-4.218-4.314v-2.444c0-.82.541-1.378 1.389-1.769l.218-.101h2.213c.15 0 .296-.062.408-.175l1.466-1.493a6.23 6.23 0 0 1 4.473-1.877l4.919.026a8.5 8.5 0 0 1 4.725 1.467l2.9 1.96c.193.131.409.22.577.253l5.078.686a2.87 2.87 0 0 1 2.138 1.808l1.381 3.635a1.73 1.73 0 0 1-.958 2.216 1.7 1.7 0 0 1-.631.123h-3.376c-.431 1.409-1.681 2.401-3.165 2.533z"/><path d="M23.484 29.38c1.384 0 2.506-1.156 2.506-2.583s-1.122-2.583-2.506-2.583-2.506 1.156-2.506 2.583 1.122 2.583 2.506 2.583m0 .989c-1.937 0-3.495-1.606-3.495-3.572s1.558-3.572 3.495-3.572 3.495 1.606 3.495 3.572-1.558 3.572-3.495 3.572M8.922 29.38c1.384 0 2.506-1.156 2.506-2.583s-1.122-2.583-2.506-2.583-2.506 1.156-2.506 2.583 1.122 2.583 2.506 2.583m0 .989c-1.937 0-3.495-1.606-3.495-3.572s1.558-3.572 3.495-3.572 3.495 1.606 3.495 3.572-1.558 3.572-3.495 3.572M.546 23.617a.545.545 0 1 1 0-1.092h2.546a.545.545 0 1 1 0 1.092zm26.939 0a.545.545 0 1 1 0-1.092h2.546a.545.545 0 1 1 0 1.092zM6.371 21.433a.545.545 0 1 1 0-1.092h17.108a.545.545 0 1 1 0 1.092z"/><path d="M8.213 20.833a.546.546 0 0 1-.772-.772l2.376-2.376a.546.546 0 0 1 .772.772zm3.585-18.219c-.905 0-1.638.733-1.638 1.638v3.276c0 .905.733 1.638 1.638 1.638h6.917c.905 0 1.638-.733 1.638-1.638V4.252c0-.905-.733-1.638-1.638-1.638zm0-1.092h6.917a2.73 2.73 0 0 1 2.73 2.73v3.276a2.73 2.73 0 0 1-2.73 2.73h-6.917a2.73 2.73 0 0 1-2.73-2.73V4.252a2.73 2.73 0 0 1 2.73-2.73"/><path d="M12.609 13.279a.546.546 0 0 1-.828-.712l2.546-2.957a.546.546 0 0 1 .828.712z"/><path d="M15.803 13.315a.545.545 0 1 1-1.092 0v-3.35a.545.545 0 1 1 1.092 0z"/><path d="M17.968 13.279a.546.546 0 0 0 .828-.712L16.25 9.61a.546.546 0 0 0-.828.712zm-3.803-8.683v2.59a.29.29 0 0 0 .445.247l2.072-1.295a.292.292 0 0 0 0-.494L14.61 4.349a.29.29 0 0 0-.445.247"/></g><defs><clipPath id="a"><path fill="#fff" d="M0 0h32v32H0z"/></clipPath></defs></svg>