<svg xmlns="http://www.w3.org/2000/svg" width="16" height="16" fill="none" viewBox="0 0 16 16"><g fill="#444f5c" fill-rule="evenodd" clip-path="url(#a)" clip-rule="evenodd"><path d="M.5 3.124a2.624 2.624 0 1 1 3.124 2.577V15a.5.5 0 0 1-1 0V5.701A2.625 2.625 0 0 1 .5 3.124M3.124 1.5a1.624 1.624 0 1 0 0 3.249 1.624 1.624 0 0 0 0-3.249M10.5 12.846c0-1.322.978-2.416 2.25-2.598v-3.59a1.5 1.5 0 0 0-1.5-1.5H9.163l.69.689a.5.5 0 1 1-.705.706L7.66 5.068a.5.5 0 0 1-.002-.707l1.513-1.515a.5.5 0 0 1 .709.708l-.604.604h1.974a2.5 2.5 0 0 1 2.5 2.5v3.639a2.625 2.625 0 1 1-3.25 2.55m2.624-1.624a1.624 1.624 0 1 0 0 3.249 1.624 1.624 0 0 0 0-3.25"/></g><defs><clipPath id="a"><path fill="#fff" d="M0 0h16v16H0z"/></clipPath></defs></svg>