<svg xmlns="http://www.w3.org/2000/svg" width="16" height="16" fill="none" viewBox="0 0 16 16"><g fill="#444f5c" clip-path="url(#a)"><path fill-rule="evenodd" d="M6.5 1.5a1.5 1.5 0 1 1 3 0 1.5 1.5 0 0 1-3 0M8 1a.5.5 0 1 0 0 1 .5.5 0 0 0 0-1M2 4.5a1.5 1.5 0 1 1 3 0 1.5 1.5 0 0 1-3 0M3.5 4a.5.5 0 1 0 0 1 .5.5 0 0 0 0-1" clip-rule="evenodd"/><path d="M2.982 7.632a.5.5 0 1 0-.964-.263l-.776 2.842a2.372 2.372 0 0 0 2.551 2.982c.724-.08 1.385.42 1.505 1.138l.209 1.251a.5.5 0 1 0 .986-.164l-.208-1.251a2.37 2.37 0 0 0-2.602-1.968 1.372 1.372 0 0 1-1.476-1.725zm10.386-.614a.5.5 0 0 0-.35.614l.775 2.842a1.372 1.372 0 0 1-1.476 1.725 2.37 2.37 0 0 0-2.602 1.968l-.208 1.25a.5.5 0 0 0 .986.165l.209-1.25c.12-.72.78-1.22 1.505-1.14a2.372 2.372 0 0 0 2.55-2.981l-.775-2.842a.5.5 0 0 0-.614-.351"/><path fill-rule="evenodd" d="M12.5 3a1.5 1.5 0 1 1 0 3 1.5 1.5 0 0 1 0-3m.5 1.5a.5.5 0 1 0-1 0 .5.5 0 0 0 1 0" clip-rule="evenodd"/><path d="M5.5 9a.5.5 0 0 1 .5-.5h1.5v-4a.5.5 0 0 1 1 0v4H10a.5.5 0 0 1 0 1H6a.5.5 0 0 1-.5-.5"/></g><defs><clipPath id="a"><path fill="#fff" d="M0 0h16v16H0z"/></clipPath></defs></svg>