<svg xmlns="http://www.w3.org/2000/svg" width="16" height="16" fill="none" viewBox="0 0 16 16"><path fill="#444f5c" fill-rule="evenodd" d="M4.071 4.571a.5.5 0 0 1 .5-.5h1.572a3.5 3.5 0 0 1 3.5 3.5v.857a3.5 3.5 0 0 1-3.5 3.5H4.57a.5.5 0 0 1-.5-.5zm1 .5v5.857h1.072a2.5 2.5 0 0 0 2.5-2.5v-.857a2.5 2.5 0 0 0-2.5-2.5z" clip-rule="evenodd"/><path fill="#444f5c" d="M11.929 4.571a.5.5 0 0 0-1 0v6.857a.5.5 0 1 0 1 0z"/><path fill="#444f5c" fill-rule="evenodd" d="M1 0a1 1 0 0 0-1 1v14a1 1 0 0 0 1 1h14a1 1 0 0 0 1-1V1a1 1 0 0 0-1-1zm14 1H1v14h14z" clip-rule="evenodd"/></svg>