<svg xmlns="http://www.w3.org/2000/svg" width="16" height="16" fill="none" viewBox="0 0 16 16"><g clip-path="url(#a)"><path fill="#444f5c" d="M11.477 5.89a.6.6 0 0 1 .297.58l-.405 4.005a1 1 0 0 1-.444.734l-7.214 4.763a.2.2 0 0 1-.283-.267L7.74 8.237a.556.556 0 0 0-.122-.703l-.082-.058a.556.556 0 0 0-.703.122l-.058.082-4.312 7.468a.2.2 0 0 1-.273.073.2.2 0 0 1-.1-.185l.518-8.629a1 1 0 0 1 .413-.751l3.266-2.353a.6.6 0 0 1 .65-.033l4.539 2.621zm2.233-2.57a.4.4 0 0 1 .028.674l-1.319.917a.6.6 0 0 1-.642.027L7.612 2.533a.6.6 0 0 1-.298-.57L7.448.362a.4.4 0 0 1 .598-.313z"/></g><defs><clipPath id="a"><path fill="#fff" d="M0 0h16v16H0z"/></clipPath></defs></svg>