<svg xmlns="http://www.w3.org/2000/svg" width="16" height="16" fill="none" viewBox="0 0 16 16"><path fill="#444f5c" d="M1.5 2A1.5 1.5 0 0 1 3 .5h8A1.5 1.5 0 0 1 12.5 2v3a.5.5 0 0 1-1 0V2a.5.5 0 0 0-.5-.5H3a.5.5 0 0 0-.5.5v10a.5.5 0 0 0 .5.5h3a.5.5 0 0 1 0 1H3A1.5 1.5 0 0 1 1.5 12zm11 8.5a.5.5 0 0 0-1 0v1.582a.5.5 0 0 0 .5.5h1.519a.5.5 0 0 0 0-1H12.5z"/><path fill="#444f5c" fill-rule="evenodd" d="M8 12a4 4 0 1 1 8 0 4 4 0 0 1-8 0m4-3a3 3 0 1 0 0 6 3 3 0 0 0 0-6" clip-rule="evenodd"/><path fill="#444f5c" d="M3.877 6.34a.5.5 0 0 1 .5-.5h3.246a.5.5 0 0 1 0 1H4.377a.5.5 0 0 1-.5-.5m1.582-1.664a.5.5 0 1 0 0-1H4.377a.5.5 0 0 0 0 1z"/></svg>