<svg xmlns="http://www.w3.org/2000/svg" width="16" height="16" fill="none" viewBox="0 0 16 16"><g clip-path="url(#a)"><path fill="#444f5c" d="M13.714 0A2.286 2.286 0 0 1 16 2.286v11.429a2.286 2.286 0 0 1-2.286 2.286H2.285a2.286 2.286 0 0 1-2.286-2.286V2.286A2.286 2.286 0 0 1 2.285 0zM8.722 6.991a.86.86 0 0 0-1.016.066L4.882 9.403l-.079.075a.864.864 0 0 0-.032 1.142l.075.079a.864.864 0 0 0 1.142.032l1.406-1.167.001 3.515.006.101a.864.864 0 0 0 1.722-.101V9.564l1.407 1.167.088.064a.863.863 0 0 0 1.018-1.392L8.812 7.057zm4.135-4.705H3.143a.857.857 0 0 0 0 1.714h9.714a.857.857 0 0 0 0-1.714"/></g><defs><clipPath id="a"><path fill="#fff" d="M0 0h16v16H0z"/></clipPath></defs></svg>