<svg xmlns="http://www.w3.org/2000/svg" width="16" height="16" fill="none" viewBox="0 0 16 16"><g fill="#444f5c" clip-path="url(#a)"><path fill-rule="evenodd" d="M4 9.5A1.5 1.5 0 0 0 2.5 11v1A1.5 1.5 0 0 0 4 13.5h8a1.5 1.5 0 0 0 1.5-1.5v-1A1.5 1.5 0 0 0 12 9.5zM3.5 11a.5.5 0 0 1 .5-.5h8a.5.5 0 0 1 .5.5v1a.5.5 0 0 1-.5.5H4a.5.5 0 0 1-.5-.5z" clip-rule="evenodd"/><path d="M8 2.771a.5.5 0 0 1 .5.5v2.993l.972-.972a.5.5 0 0 1 .707.707L8.353 7.824a.5.5 0 0 1-.707 0L5.821 6a.5.5 0 1 1 .707-.708l.971.972V3.27a.5.5 0 0 1 .5-.5"/><path fill-rule="evenodd" d="M1.5 0A1.5 1.5 0 0 0 0 1.5v13A1.5 1.5 0 0 0 1.5 16h13a1.5 1.5 0 0 0 1.5-1.5v-13A1.5 1.5 0 0 0 14.5 0zM1 1.5a.5.5 0 0 1 .5-.5h13a.5.5 0 0 1 .5.5v13a.5.5 0 0 1-.5.5h-13a.5.5 0 0 1-.5-.5z" clip-rule="evenodd"/></g><defs><clipPath id="a"><path fill="#fff" d="M0 0h16v16H0z"/></clipPath></defs></svg>