<svg xmlns="http://www.w3.org/2000/svg" width="16" height="16" fill="none" viewBox="0 0 16 16"><g fill="#444f5c" clip-path="url(#a)"><path d="m8-18.708 2.479-2.479a.5.5 0 1 1 .708.708L8.708-18l2.479 2.479a.5.5 0 1 1-.708.708L8-17.292l-2.479 2.479a.5.5 0 1 1-.708-.708L7.292-18l-2.479-2.479a.5.5 0 1 1 .708-.708z"/><path fill-rule="evenodd" d="M8-26a8 8 0 1 1 0 16 8 8 0 0 1 0-16m0 .905a7.095 7.095 0 1 0 0 14.19 7.095 7.095 0 0 0 0-14.19M.5 8a7.5 7.5 0 1 1 15 0 7.5 7.5 0 0 1-15 0m7.024-3.283a3.317 3.317 0 1 0 2.136 6.155l2.067 2.454A6.5 6.5 0 1 1 7.524 1.517zm4.976 7.974a6.48 6.48 0 0 0 1.976-5.26l-3.16.523V8c0 .867-.332 1.656-.876 2.246zM8.524 1.52a6.5 6.5 0 0 1 5.789 4.924l-3.16.523a3.32 3.32 0 0 0-2.629-2.243zM5.684 8a2.317 2.317 0 1 1 4.633 0 2.317 2.317 0 0 1-4.633 0" clip-rule="evenodd"/></g><defs><clipPath id="a"><path fill="#fff" d="M0 0h16v16H0z"/></clipPath></defs></svg>