<svg xmlns="http://www.w3.org/2000/svg" width="16" height="16" fill="none" viewBox="0 0 16 16"><path fill="#444f5c" fill-rule="evenodd" d="M15.037.83a1.5 1.5 0 0 0-2.084-.036L6.375 6.933a1.5 1.5 0 0 0-.432.732L5.515 9.38a.5.5 0 0 0 .606.606l1.75-.437a1.5 1.5 0 0 0 .66-.359l6.554-6.117a1.5 1.5 0 0 0 .037-2.158zm-1.402.695a.5.5 0 0 1 .695.012l.085.085a.5.5 0 0 1-.013.719L7.848 8.458a.5.5 0 0 1-.22.12l-.94.235.225-.905a.5.5 0 0 1 .144-.244z" clip-rule="evenodd"/><path fill="#444f5c" d="M3 1.5A1.5 1.5 0 0 0 1.5 3v10A1.5 1.5 0 0 0 3 14.5h10a1.5 1.5 0 0 0 1.5-1.5V8a.5.5 0 0 0-1 0v5a.5.5 0 0 1-.5.5H3a.5.5 0 0 1-.5-.5V3a.5.5 0 0 1 .5-.5h4a.5.5 0 0 0 0-1z"/></svg>