<svg xmlns="http://www.w3.org/2000/svg" width="16" height="16" fill="none" viewBox="0 0 16 16"><g clip-path="url(#a)"><path fill="#444f5c" d="m5.15 13.256 7.649-7.649-2.406-2.406-7.649 7.649zm-1.008.608-2.006-2.006-.862 2.867 2.867-.862zm9.465-9.065 1.258-1.258-2.406-2.406-1.258 1.258zM1.405 10.584 11.657.332a1.134 1.134 0 0 1 1.604 0l2.406 2.406a1.134 1.134 0 0 1 0 1.604L5.415 14.594a.6.6 0 0 1-.238.142l-4.082 1.227a.852.852 0 0 1-1.06-1.06l1.227-4.082a.6.6 0 0 1 .142-.238z"/></g><defs><clipPath id="a"><path fill="#fff" d="M0 0h16v16H0z"/></clipPath></defs></svg>