<svg xmlns="http://www.w3.org/2000/svg" width="16" height="16" fill="none" viewBox="0 0 16 16"><g clip-path="url(#a)"><path fill="#444f5c" d="M5.864 0a.53.53 0 0 0-.527.544v1.953H4.039a.533.533 0 0 0-.477.533v3.019A3.555 3.555 0 0 0 7.113 9.6h.355v5.86a.533.533 0 1 0 1.065 0V9.6h.355a3.555 3.555 0 0 0 3.551-3.551V3.03a.533.533 0 0 0-.533-.533h-1.243V.544A.536.536 0 0 0 10.125 0a.53.53 0 0 0-.527.544v1.953H6.402V.544A.536.536 0 0 0 5.864 0M4.626 3.563h6.748v2.486a2.47 2.47 0 0 1-2.486 2.486H7.112a2.47 2.47 0 0 1-2.486-2.486z"/></g><defs><clipPath id="a"><path fill="#fff" d="M0 0h16v16H0z"/></clipPath></defs></svg>