<svg xmlns="http://www.w3.org/2000/svg" width="16" height="16" fill="none" viewBox="0 0 16 16"><path fill="#444f5c" d="M15.5 5.764a.5.5 0 0 1 .5.5V13a2 2 0 0 1-2 2H2a2 2 0 0 1-2-2V6.265a.5.5 0 0 1 .818-.386l5.951 4.886c.702.577 1.75.576 2.451 0l5.964-4.888a.5.5 0 0 1 .317-.113zM8 1c.513 0 .936.371.993.85L9 1.962v4.161l3.002-2.6.098-.074a.94.94 0 0 1 1.258.202c.34.424.285 1.055-.123 1.408l-4.618 4-.101.077a.93.93 0 0 1-1.131-.077l-4.618-4-.088-.086a1.03 1.03 0 0 1-.035-1.322l.083-.091a.936.936 0 0 1 1.272-.037l3.002 2.6V1.962c0-.531.448-.962 1-.962z"/></svg>