<svg xmlns="http://www.w3.org/2000/svg" width="16" height="16" fill="none" viewBox="0 0 16 16"><path fill="#444f5c" d="M8 1.572a6.428 6.428 0 1 1 0 12.856A6.428 6.428 0 0 1 8 1.572m0 .989a5.439 5.439 0 1 0 0 10.878A5.439 5.439 0 0 0 8 2.56m2.918 5.526.089.01a.495.495 0 0 1 .389.581 3.46 3.46 0 0 1-3.395 2.783c-1.68 0-3.1-1.169-3.403-2.789a.495.495 0 0 1 .972-.182c.215 1.15 1.225 1.982 2.43 1.982 1.185 0 2.197-.84 2.425-1.987a.494.494 0 0 1 .493-.398M6.517 5.033a.99.99 0 1 1 0 1.979.99.99 0 0 1 0-1.979m2.966 0a.99.99 0 1 1 0 1.979.99.99 0 0 1 0-1.979"/></svg>