<svg xmlns="http://www.w3.org/2000/svg" width="16" height="16" fill="none" viewBox="0 0 16 16"><path fill="#444f5c" fill-rule="evenodd" d="M10.354 2.56a.5.5 0 0 0-.708 0L2.561 9.647a.5.5 0 0 0 0 .708l1.5 1.5a.5.5 0 0 0 .353.146h3.172a.5.5 0 0 0 .353-.146l5.5-5.5a.5.5 0 0 0 0-.708zm-1.415-.706a1.5 1.5 0 0 1 2.122 0l3.085 3.085a1.5 1.5 0 0 1 0 2.122l-5.5 5.5a1.5 1.5 0 0 1-1.06.439H4.414a1.5 1.5 0 0 1-1.06-.44l-1.5-1.5a1.5 1.5 0 0 1 0-2.12z" clip-rule="evenodd"/><path fill="#444f5c" fill-rule="evenodd" d="M6.646 4.646a.5.5 0 0 1 .708 0l4 4a.5.5 0 1 1-.708.708l-4-4a.5.5 0 0 1 0-.708" clip-rule="evenodd"/></svg>