<svg xmlns="http://www.w3.org/2000/svg" width="16" height="16" fill="none" viewBox="0 0 16 16"><path fill="#444f5c" fill-rule="evenodd" d="M8 14A6 6 0 1 0 8 2a6 6 0 0 0 0 12m0 1A7 7 0 1 0 8 1a7 7 0 0 0 0 14" clip-rule="evenodd"/><path fill="#444f5c" d="M7 7a1 1 0 1 1-2 0 1 1 0 0 1 2 0m4 0a1 1 0 1 1-2 0 1 1 0 0 1 2 0"/><path fill="#444f5c" fill-rule="evenodd" d="M5.882 11.823a.5.5 0 0 1-.764-.646l.382.323-.382-.322v-.001l.001-.001.002-.002.004-.005.013-.015a2 2 0 0 1 .187-.183c.125-.112.307-.257.547-.4A4.1 4.1 0 0 1 8 10c.933 0 1.646.283 2.127.57a3.6 3.6 0 0 1 .694.54l.04.044.014.015.004.005.002.002s.001.002-.381.324l.382-.322a.5.5 0 0 1-.763.645l-.019-.02a2.6 2.6 0 0 0-.486-.375A3.1 3.1 0 0 0 8 11.001c-.723 0-1.26.217-1.614.43a2.6 2.6 0 0 0-.486.374zl-.002.002.001-.001zm4.237 0v.002h.002z" clip-rule="evenodd"/></svg>