<svg xmlns="http://www.w3.org/2000/svg" width="16" height="16" fill="none" viewBox="0 0 16 16"><g fill="#444f5c" clip-path="url(#a)"><path d="M11.353 4.647a.5.5 0 0 1 0 .707L8.707 8l2.647 2.646a.5.5 0 0 1-.708.707L8 8.707l-2.646 2.646a.5.5 0 0 1-.708-.707L7.293 8 4.647 5.353a.5.5 0 0 1 .707-.707L8 7.293l2.646-2.646a.5.5 0 0 1 .707 0"/><path fill-rule="evenodd" d="M4.445.938A1.5 1.5 0 0 1 5.505.5h4.99a1.5 1.5 0 0 1 1.06.438l3.504 3.492a1.5 1.5 0 0 1 .441 1.063v5.014a1.5 1.5 0 0 1-.441 1.063l-3.504 3.492a1.5 1.5 0 0 1-1.06.438h-4.99a1.5 1.5 0 0 1-1.06-.438L.941 11.57A1.5 1.5 0 0 1 .5 10.506V5.493c0-.399.159-.781.441-1.063zm1.06.562a.5.5 0 0 0-.354.146L1.647 5.139a.5.5 0 0 0-.147.354v5.014a.5.5 0 0 0 .147.354l3.504 3.493a.5.5 0 0 0 .353.146h4.992a.5.5 0 0 0 .353-.146l3.504-3.493a.5.5 0 0 0 .147-.354V5.493a.5.5 0 0 0-.147-.354l-3.504-3.493a.5.5 0 0 0-.353-.146z" clip-rule="evenodd"/></g><defs><clipPath id="a"><path fill="#fff" d="M0 0h16v16H0z"/></clipPath></defs></svg>