<svg xmlns="http://www.w3.org/2000/svg" width="16" height="16" fill="none" viewBox="0 0 16 16"><path fill="#444f5c" d="M8.5 5.999a.5.5 0 1 0-1 0v.5a.5.5 0 0 0 1 0z"/><path fill="#444f5c" fill-rule="evenodd" d="M3.029 4.966a1.5 1.5 0 0 1 1.5-1.5h6.942a1.5 1.5 0 0 1 1.5 1.5v3.195a.5.5 0 0 1-.5.5H3.529a.5.5 0 0 1-.5-.5zm1.5-.5a.5.5 0 0 0-.5.5v2.695h7.942V4.966a.5.5 0 0 0-.5-.5z" clip-rule="evenodd"/><path fill="#444f5c" fill-rule="evenodd" d="M.107 1.584a1.5 1.5 0 0 1 1.5-1.5h12.787a1.5 1.5 0 0 1 1.5 1.5v12.839a1.5 1.5 0 0 1-1.5 1.5H1.607a1.5 1.5 0 0 1-1.5-1.5zm1.5-.5a.5.5 0 0 0-.5.5v12.839a.5.5 0 0 0 .5.5h12.787a.5.5 0 0 0 .5-.5V1.583a.5.5 0 0 0-.5-.5z" clip-rule="evenodd"/></svg>