<svg xmlns="http://www.w3.org/2000/svg" width="16" height="16" fill="none" viewBox="0 0 16 16"><path fill="#444f5c" d="M7.679.065c.209-.066.433-.066.642 0l5.3 1.674c.444.14.745.552.745 1.017v6.59q.003 3.614-6.122 6.585a.53.53 0 0 1-.485-.01l-.366-.199q-5.761-3.188-5.761-6.375v-6.59c0-.465.302-.877.745-1.017zm3.463 5.785a.703.703 0 0 0-.99-.097L7.03 8.316l-1.127-1.41-.071-.076a.703.703 0 0 0-1.028.956l1.574 1.967.072.077a.705.705 0 0 0 .925.027l3.672-3.016.082-.08a.704.704 0 0 0 .015-.911z"/></svg>