<svg xmlns="http://www.w3.org/2000/svg" width="16" height="16" fill="none" viewBox="0 0 16 16"><path fill="#444f5c" d="M7.856 4.721a.3.3 0 0 0-.574.013L5.789 10.19c-.323 1.182-1.953 1.3-2.445.178l-1.027-2.35a.5.5 0 0 0-.458-.3H.5a.5.5 0 0 1 0-1h1.36a1.5 1.5 0 0 1 1.373.9L4.26 9.966a.3.3 0 0 0 .565-.041L6.317 4.47c.341-1.246 2.093-1.286 2.49-.057l2.219 6.856a.3.3 0 0 0 .575-.014l.82-3.02a1.5 1.5 0 0 1 1.447-1.106h1.641a.5.5 0 1 1 0 1h-1.64a.5.5 0 0 0-.483.369l-.82 3.019c-.339 1.248-2.094 1.29-2.492.06z"/></svg>