<svg xmlns="http://www.w3.org/2000/svg" width="16" height="16" fill="none" viewBox="0 0 16 16"><path fill="#444f5c" fill-rule="evenodd" d="M1 1.5a.5.5 0 0 1 .5-.5H5a.5.5 0 0 1 0 1H2.707l4.147 4.146a.5.5 0 1 1-.708.708L2 2.707V5a.5.5 0 0 1-1 0zm9.5 0A.5.5 0 0 1 11 1h3.5a.5.5 0 0 1 .5.5V5a.5.5 0 0 1-1 0V2.707L9.854 6.854a.5.5 0 1 1-.708-.708L13.293 2H11a.5.5 0 0 1-.5-.5M6.854 9.146a.5.5 0 0 1 0 .708L2.707 14H5a.5.5 0 0 1 0 1H1.5a.5.5 0 0 1-.5-.5V11a.5.5 0 0 1 1 0v2.293l4.146-4.147a.5.5 0 0 1 .708 0m2.292 0a.5.5 0 0 1 .708 0L14 13.293V11a.5.5 0 0 1 1 0v3.5a.5.5 0 0 1-.5.5H11a.5.5 0 0 1 0-1h2.293L9.146 9.854a.5.5 0 0 1 0-.708" clip-rule="evenodd"/></svg>