<svg xmlns="http://www.w3.org/2000/svg" width="16" height="16" fill="none" viewBox="0 0 16 16"><g fill="#444f5c" clip-path="url(#a)"><path d="M10.584 0a.5.5 0 0 0-.5.5v4.946a.5.5 0 0 0 .5.5h4.911a.5.5 0 0 0 0-1h-4.411V.5a.5.5 0 0 0-.5-.5M5.916.527a.5.5 0 1 0-1 0v4.419H.508a.5.5 0 0 0 0 1h4.908a.5.5 0 0 0 .5-.5zM.511 10.084a.5.5 0 1 0 0 1h4.435v4.423a.5.5 0 1 0 1 0v-4.923a.5.5 0 0 0-.5-.5zm14.979 0a.5.5 0 1 1 0 1h-4.436v4.42a.5.5 0 1 1-1 0v-4.92a.5.5 0 0 1 .5-.5z"/></g><defs><clipPath id="a"><path fill="#fff" d="M0 0h16v16H0z"/></clipPath></defs></svg>