<svg xmlns="http://www.w3.org/2000/svg" width="16" height="16" fill="none" viewBox="0 0 16 16"><path fill="#444f5c" fill-rule="evenodd" d="M14.03 1.513a.5.5 0 0 1 .384.336.5.5 0 0 1-.009.337L9.6 14.54c-.509 1.309-2.376 1.263-2.82-.069l-1.151-3.45-2.54 2.541a.5.5 0 1 1-.708-.707L5.49 9.747l.008-.009 8.088-8.087a.5.5 0 0 1 .444-.138m-1.419 2.526L6.42 10.231l1.309 3.924a.5.5 0 0 0 .94.023z" clip-rule="evenodd"/><path fill="#444f5c" d="M8.686 4.17a.5.5 0 0 0-.386-.923L1.265 6.19c-1.278.534-1.21 2.368.103 2.807l1.776.592a.5.5 0 1 0 .317-.948l-1.776-.593a.5.5 0 0 1-.034-.936z"/></svg>