<svg xmlns="http://www.w3.org/2000/svg" width="16" height="16" fill="none" viewBox="0 0 16 16"><path fill="#444f5c" fill-rule="evenodd" d="M2.165 2.753c-1.135.544-1.135 2.16 0 2.704l5.186 2.489a1.5 1.5 0 0 0 1.298 0l5.185-2.489c1.135-.544 1.135-2.16 0-2.704L8.65.263a1.5 1.5 0 0 0-1.298 0zm.433 1.803a.5.5 0 0 1 0-.902l5.185-2.489a.5.5 0 0 1 .433 0l5.186 2.49a.5.5 0 0 1 0 .9l-5.186 2.49a.5.5 0 0 1-.433 0z" clip-rule="evenodd"/><path fill="#444f5c" d="M2.054 6.588a.5.5 0 1 0-.502.865l4.691 2.723a3.5 3.5 0 0 0 3.515 0l4.69-2.723a.5.5 0 0 0-.502-.865l-4.69 2.724a2.5 2.5 0 0 1-2.51 0z"/><path fill="#444f5c" d="M1.37 9.369a.5.5 0 0 1 .684-.182l4.691 2.724a2.5 2.5 0 0 0 2.51 0l4.691-2.724a.5.5 0 1 1 .502.865l-4.69 2.723a3.5 3.5 0 0 1-3.515 0l-4.69-2.723a.5.5 0 0 1-.182-.683"/><path fill="#444f5c" d="M2.054 11.786a.5.5 0 0 0-.502.865l4.691 2.724a3.5 3.5 0 0 0 3.515 0l4.69-2.724a.5.5 0 1 0-.502-.865l-4.69 2.724a2.5 2.5 0 0 1-2.51 0z"/></svg>