<svg xmlns="http://www.w3.org/2000/svg" width="16" height="16" fill="none" viewBox="0 0 16 16"><g clip-path="url(#a)"><path fill="#444f5c" d="m10.364 8.138 5.406 5.405a.787.787 0 0 1 0 1.114l-1.113 1.113a.79.79 0 0 1-1.113 0l-5.406-5.407c.239-.48.546-.922.913-1.313a5.3 5.3 0 0 1 1.313-.911zM2.446 6.904l.071.065 4.161 4.161a.99.99 0 0 1 0 1.404l-.822.822a.99.99 0 0 1-1.404 0L.291 9.195a.99.99 0 0 1 0-1.404l.822-.822a.994.994 0 0 1 1.333-.065M6.461 3.12l4.068 4.068c-.75.31-1.439.752-2.034 1.305a7 7 0 0 0-1.306 2.034L3.121 6.459a6.8 6.8 0 0 0 2.034-1.304 6.9 6.9 0 0 0 1.306-2.033zM9.124.226l.071.065 4.161 4.161a.99.99 0 0 1 0 1.404l-.822.822a.994.994 0 0 1-1.333.065l-.071-.064-4.161-4.161a.99.99 0 0 1 0-1.404l.822-.822A.993.993 0 0 1 9.124.227z"/></g><defs><clipPath id="a"><path fill="#fff" d="M0 0h16v16H0z"/></clipPath></defs></svg>