<svg xmlns="http://www.w3.org/2000/svg" width="16" height="16" fill="none" viewBox="0 0 16 16"><path fill="#444f5c" d="M7.499.75c.69 0 1.242.559 1.305 1.271l.005.134.112-.031q.065-.015.131-.022l.135-.007c.691 0 1.256.565 1.32 1.276l.006.135.002 4.569.061-.057c.237-.209.526-.349.837-.402l.157-.019c.415-.029.824.099 1.142.35l.367.314c.146.124.202.32.151.499l-.034.088-2.452 4.835c-.459.905-1.312 1.491-2.258 1.561l-.191.007h-2.75c-1.491 0-2.704-1.264-2.79-2.847l-.005-.177-.001-7.193c.002-.726.522-1.327 1.193-1.396l.146-.006q.147 0 .287.03l.089.024.001-.764c0-.729.519-1.335 1.192-1.404l.128-.006q.217.001.419.074l.058.025.017-.043A1.33 1.33 0 0 1 7.347.76l.151-.007zm0 .961h-.02c-.177 0-.336.149-.373.354l-.008.091v5.905c0 .264-.211.48-.474.48a.476.476 0 0 1-.467-.394l-.008-.086V2.92c0-.257-.17-.451-.366-.451-.173 0-.325.149-.36.358l-.008.093v5.141c0 .264-.211.48-.474.48a.476.476 0 0 1-.467-.394l-.008-.086v-3.03c0-.219-.133-.391-.302-.43l-.074-.009h-.019c-.199 0-.372.191-.372.443l.001 7.19c.001 1.093.76 1.98 1.709 2.058l.137.006h2.75c.61 0 1.181-.339 1.524-.901l.081-.145L12.18 8.75l-.066-.056a.73.73 0 0 0-.374-.139h-.101a.75.75 0 0 0-.469.216l-.072.081-.686.858a.47.47 0 0 1-.53.149.48.48 0 0 1-.305-.367l-.008-.085-.004-5.9c0-.254-.174-.45-.372-.45-.169 0-.321.142-.362.337l-.011.086v4.58a.477.477 0 0 1-.473.482.476.476 0 0 1-.468-.393l-.008-.086V2.159c0-.222-.133-.398-.299-.439z"/></svg>