<svg xmlns="http://www.w3.org/2000/svg" width="16" height="16" fill="none" viewBox="0 0 16 16"><g clip-path="url(#a)"><path fill="#444f5c" d="M14.536 1.765a.3.3 0 0 1-.009.066h.009l-.001.003-.022.066-.01.03-.025.076c-.056.172-.148.467-.264.866l-.059.208a44 44 0 0 0-1.346 6.803 38 38 0 0 0-.174 1.953l-.008.141c2.04.349 3.372.924 3.372 1.573 0 1.065-3.582 1.928-8 1.928s-8-.863-8-1.928c0-.649 1.331-1.224 3.371-1.573a36 36 0 0 0-.181-2.095C2.734 5.924 1.766 2.765 1.52 2.005l-.025-.076-.01-.03-.022-.066-.001-.003h.009a.3.3 0 0 1-.009-.066C1.462 1.089 4.281.54 7.799.52l.2-.001c3.61 0 6.536.557 6.536 1.245zM8 9.548c-1.768 0-3.417.123-4.81.335a37 37 0 0 1 .182 2.094c1.306-.223 2.903-.355 4.628-.355s3.321.132 4.628.355l-.016.307-.006.12q-.028.607-.033 1.225l-.001.243q0-.803.04-1.588l.017-.307h-.001q.064-1.078.182-2.095c-1.393-.211-3.042-.334-4.81-.334"/></g><defs><clipPath id="a"><path fill="#fff" d="M0 0h16v16H0z"/></clipPath></defs></svg>