<svg xmlns="http://www.w3.org/2000/svg" width="16" height="16" fill="none" viewBox="0 0 16 16"><path fill="#444f5c" fill-rule="evenodd" d="M3.025 6.5H4A1.5 1.5 0 0 1 5.5 8v3A1.5 1.5 0 0 1 4 12.5h-.5A1.5 1.5 0 0 1 2 11V7a6 6 0 1 1 12 0v4a1.5 1.5 0 0 1-1.5 1.5H12a1.5 1.5 0 0 1-1.5-1.5V8A1.5 1.5 0 0 1 12 6.5h.975a5 5 0 0 0-9.95 0M13 7.5h-1a.5.5 0 0 0-.5.5v3a.5.5 0 0 0 .5.5h.5a.5.5 0 0 0 .5-.5zm-10 0h1a.5.5 0 0 1 .5.5v3a.5.5 0 0 1-.5.5h-.5A.5.5 0 0 1 3 11z" clip-rule="evenodd"/><path fill="#444f5c" fill-rule="evenodd" d="M13.5 10.5a.5.5 0 0 1 .5.5v2.02a1.5 1.5 0 0 1-.563 1.17l-1.597 1.28a.825.825 0 1 1-.515-1.47H12q.034 0 .069.005l.743-.595a.5.5 0 0 0 .188-.39V11a.5.5 0 0 1 .5-.5" clip-rule="evenodd"/></svg>