<svg xmlns="http://www.w3.org/2000/svg" width="16" height="16" fill="none" viewBox="0 0 16 16"><path fill="#444f5c" d="M8.5.5a.5.5 0 0 0-1 0v2.308a.5.5 0 0 0 1 0z"/><path fill="#444f5c" fill-rule="evenodd" d="M4.96 5.769a1.5 1.5 0 0 0-1.5 1.5v2.047c0 .398.159.78.44 1.061l1.722 1.722a.5.5 0 0 1 .147.354V15.5a.5.5 0 0 0 .5.5H9.73a.5.5 0 0 0 .5-.5v-3.047a.5.5 0 0 1 .147-.354l1.721-1.722a1.5 1.5 0 0 0 .44-1.06V7.268a1.5 1.5 0 0 0-1.5-1.5zm-.5 1.5a.5.5 0 0 1 .5-.5h6.078a.5.5 0 0 1 .5.5v2.047a.5.5 0 0 1-.147.354L9.67 11.392a1.5 1.5 0 0 0-.44 1.06V15H6.77v-2.547a1.5 1.5 0 0 0-.44-1.061L4.607 9.67a.5.5 0 0 1-.146-.354z" clip-rule="evenodd"/><path fill="#444f5c" d="M13.545 1.877a.5.5 0 0 0-.707 0l-1.73 1.731a.5.5 0 1 0 .706.707l1.731-1.73a.5.5 0 0 0 0-.708m-10.383 0a.5.5 0 0 0-.707.708l1.73 1.73a.5.5 0 0 0 .708-.707z"/></svg>