<svg xmlns="http://www.w3.org/2000/svg" width="24" height="16" fill="none" viewBox="0 0 24 16"><g clip-path="url(#a)"><path fill="#444f5c" d="M7.599 13.678q.4.118.88.118 1.266 0 2.16-.903a2.6 2.6 0 0 0 .547-.68.22.22 0 0 1 .133-.092.13.13 0 0 1 .147.013.2.2 0 0 1 .094.275q-.24.419-.613.785a3.4 3.4 0 0 1-2.466 1.007q-.586 0-1.093-.157l-.227.366a.25.25 0 0 1-.107.079.12.12 0 0 1-.133 0 .4.4 0 0 1-.12-.079l-.773-1.138q-.053-.078-.04-.144a.22.22 0 0 1 .093-.131q.053-.053.16-.039l1.347.196a.3.3 0 0 1 .133.052q.04.053.04.131a.2.2 0 0 1-.013.118l-.147.222zm1.16-5.94a.2.2 0 0 1-.147-.065.23.23 0 0 1-.053-.144.2.2 0 0 1 .093-.144.18.18 0 0 1 .133-.052q1.24.105 2.16 1.007.84.798 1 1.884l.413.052q.067 0 .12.065a.23.23 0 0 1 .067.118.3.3 0 0 1-.027.131l-.747 1.164a.22.22 0 0 1-.147.079q-.067.027-.147-.013a.16.16 0 0 1-.093-.131l-.373-1.295a.17.17 0 0 1 0-.131q.027-.066.107-.092.053-.04.12-.026l.28.026q-.173-.89-.88-1.544v-.013a2.98 2.98 0 0 0-1.88-.877zM7.732 2.584a.25.25 0 0 1 .067.144.25.25 0 0 1-.04.131q-.507.602 0 1.505.666 1.177.027 1.884a.17.17 0 0 1-.12.079q-.107 0-.16-.052a.16.16 0 0 1-.067-.131.15.15 0 0 1 .04-.157q.427-.537-.093-1.426-.666-1.178.067-1.962.053-.066.12-.065.107 0 .16.052zm.854-.053q.093 0 .147.052a.17.17 0 0 1 .067.144q.013.065-.04.131-.507.602 0 1.505.667 1.178.04 1.884a.2.2 0 0 1-.133.079.26.26 0 0 1-.16-.052.34.34 0 0 1-.08-.131q0-.091.053-.157.427-.537-.08-1.426-.68-1.177.053-1.962a.17.17 0 0 1 .133-.065zm1.253.053a.2.2 0 0 1 .08.144q0 .066-.067.131-.507.602 0 1.505.68 1.177.053 1.884a.27.27 0 0 1-.147.079.24.24 0 0 1-.147-.052.2.2 0 0 1-.08-.131q0-.091.053-.157.414-.537-.08-1.426-.693-1.178.04-1.962a.18.18 0 0 1 .147-.065.24.24 0 0 1 .147.052zM6.506 7.49q-.027-.066 0-.118a.23.23 0 0 1 .067-.118.2.2 0 0 1 .147-.026l1.4.131q.08 0 .133.065a.2.2 0 0 1 .053.144.4.4 0 0 1-.053.144l-1.04.903a.3.3 0 0 1-.12.052.4.4 0 0 1-.133-.026.24.24 0 0 1-.08-.105l-.12-.314a5 5 0 0 0-.48.393v.013q-.92.89-.92 2.133 0 1.02.613 1.805a.2.2 0 0 1 .053.131.2.2 0 0 1-.093.144.3.3 0 0 1-.16.039.2.2 0 0 1-.133-.079q-.693-.876-.693-2.041 0-1.427 1.04-2.42a3.2 3.2 0 0 1 .64-.51zm5.626-4.514a.18.18 0 0 1-.133.052.22.22 0 0 1-.16-.039L8.946.66.8 7.175h1.04q.08 0 .16.065a.23.23 0 0 1 .053.144v5.272q0 1.073.413 1.727.653 1.02 2.386 1.02h8.172q1.653-.027 2.293-1.02.28-.445.36-1.086l-2.88-2.499 2.92-2.119V7.384q0-.078.08-.144a.16.16 0 0 1 .133-.065h1.16l-2.16-1.714-.053-.079a.2.2 0 0 1-.013-.079V2.071h-2.68v.759a.2.2 0 0 1-.053.144zm2.933-1.308q.093 0 .147.079a.16.16 0 0 1 .067.131v3.323l2.546 2.028q.04.026.053.105.027.052 0 .118a.3.3 0 0 1-.067.105.4.4 0 0 1-.133.026h-1.533V9.14l.093.092v-.013a.7.7 0 0 0 .48.196q.44-.014.733-.249.387-.34.88-.34.387-.026.96.497.453.366.987.366.4-.013.84-.353.573-.471.987-.458.44-.014 1.04.406.36.25.68.314.093.013.133.079a.2.2 0 0 1 .04.157.22.22 0 0 1-.093.131.18.18 0 0 1-.147.039q-.4-.078-.853-.393-.466-.327-.787-.327h-.013q-.307.013-.72.353-.573.458-1.107.458-.693.027-1.253-.484-.427-.367-.693-.379a.85.85 0 0 0-.6.236h-.013q-.373.354-.987.353-.307.013-.587-.157v1.217l.04.039q.013 0 .013.013a.75.75 0 0 0 .48.183q.44-.026.72-.262a1.3 1.3 0 0 1 .893-.327q.373-.04.96.484.44.38.973.379.4-.013.853-.379.547-.457.973-.445.453-.013 1.053.419.347.235.68.301.067.013.133.092.04.066.027.157a.16.16 0 0 1-.093.118q-.067.066-.147.039-.4-.078-.853-.393t-.8-.314q-.293.013-.72.353-.573.458-1.107.458-.693.013-1.253-.497-.413-.354-.68-.366a.9.9 0 0 0-.613.236q-.373.327-1 .353-.28 0-.533-.131v1.23a.1.1 0 0 0 .04.026q.013 0 .013.013a.75.75 0 0 0 .48.183q.44 0 .72-.236.374-.353.893-.353.373-.026.96.497.44.38.973.379.4-.014.853-.366.547-.47.973-.445.453-.026 1.053.406.347.235.68.301.067.013.133.092.04.066.027.144a.16.16 0 0 1-.093.131.18.18 0 0 1-.147.039q-.4-.066-.853-.379-.453-.327-.8-.327-.293.013-.72.34-.573.471-1.107.471-.693.013-1.253-.484-.413-.38-.68-.393a.9.9 0 0 0-.613.236q-.373.353-1 .353a1.1 1.1 0 0 1-.547-.118q-.08.877-.453 1.465-.747 1.19-2.64 1.217H4.85q-1.986 0-2.746-1.217-.467-.746-.467-1.936V7.584H.21a.4.4 0 0 1-.133-.026.3.3 0 0 1-.067-.105q-.027-.066 0-.118.013-.078.067-.105L8.796.244a.23.23 0 0 1 .147-.052q.067 0 .133.052l2.693 2.159V1.88a.16.16 0 0 1 .067-.131q.067-.079.147-.079h3.08z"/></g><defs><clipPath id="a"><path fill="#fff" d="M0 0h24v16H0z"/></clipPath></defs></svg>