<svg xmlns="http://www.w3.org/2000/svg" width="16" height="16" fill="none" viewBox="0 0 16 16"><path fill="#444f5c" d="M9.56 2.488a.5.5 0 0 1 .5-.5 5.303 5.303 0 0 1 5.303 5.303.5.5 0 0 1-1 0 4.3 4.3 0 0 0-4.303-4.303.5.5 0 0 1-.5-.5M2 2.993a.5.5 0 0 0-.5.5v7.553a.5.5 0 0 0 .5.5h12a.5.5 0 0 0 .5-.5V10.01a.5.5 0 0 1 1 0v1.036a1.5 1.5 0 0 1-1.5 1.5H2a1.5 1.5 0 0 1-1.5-1.5V3.493a1.5 1.5 0 0 1 1.5-1.5h4.658a.5.5 0 1 1 0 1z"/><path fill="#444f5c" d="M9.56 6.33a.5.5 0 0 1 .5-.5 1.46 1.46 0 0 1 1.46 1.461.5.5 0 0 1-1 0 .46.46 0 0 0-.46-.46.5.5 0 0 1-.5-.5"/><path fill="#444f5c" d="M10.06 3.91a.5.5 0 0 0 0 1 2.38 2.38 0 0 1 2.382 2.381.5.5 0 0 0 1 0A3.38 3.38 0 0 0 10.06 3.91M6 13.5a.5.5 0 0 0 0 1h4a.5.5 0 0 0 0-1z"/></svg>