<svg xmlns="http://www.w3.org/2000/svg" width="16" height="16" fill="none" viewBox="0 0 16 16"><path fill="#444f5c" d="M1.067 2C.482 2 0 2.482 0 3.067v9.955c0 .585.482 1.067 1.067 1.067h13.866c.585 0 1.067-.482 1.067-1.067V3.067C16 2.482 15.518 2 14.933 2zm0 .711h13.866c.203 0 .356.153.356.356v7.439l-2.977-2.383a.37.37 0 0 0-.423-.017L9.261 9.912 5.734 7.057a.36.36 0 0 0-.267-.078.4.4 0 0 0-.156.061l-4.6 3.173V3.068c0-.202.153-.356.357-.356zm8.177 1.778c-.781 0-1.422.64-1.422 1.422 0 .78.64 1.422 1.422 1.422s1.422-.641 1.422-1.422c0-.782-.64-1.422-1.422-1.422m0 .71c.397 0 .711.314.711.712a.705.705 0 0 1-.711.71.705.705 0 0 1-.711-.71c0-.398.314-.711.711-.711m-3.75 2.573 3.528 2.855a.37.37 0 0 0 .422.017l2.623-1.806 3.222 2.578v1.606a.35.35 0 0 1-.356.356H1.067a.35.35 0 0 1-.356-.356v-1.95z"/></svg>