<svg xmlns="http://www.w3.org/2000/svg" width="16" height="16" fill="none" viewBox="0 0 16 16"><path fill="#444f5c" fill-rule="evenodd" d="M4.504.5a1.5 1.5 0 0 0-1.5 1.5v3.412a.5.5 0 0 0 1 0V2a.5.5 0 0 1 .5-.5h4.859v2.184a1.5 1.5 0 0 0 1.5 1.5h2.127V14a.5.5 0 0 1-.5.5H4.504a.5.5 0 0 1-.5-.5v-3.426a.5.5 0 1 0-1 0V14a1.5 1.5 0 0 0 1.5 1.5h7.986a1.5 1.5 0 0 0 1.5-1.5V4.684a.5.5 0 0 0-.144-.35L10.219.648A.5.5 0 0 0 9.863.5zm7.792 3.684-1.933-1.963v1.463a.5.5 0 0 0 .5.5z" clip-rule="evenodd"/><path fill="#444f5c" d="M6.383 5.667a.5.5 0 0 1 .706-.04l2.244 2a.5.5 0 0 1 0 .746l-2.244 2a.5.5 0 1 1-.665-.746L7.688 8.5H1.49a.5.5 0 0 1 0-1h6.198L6.424 6.373a.5.5 0 0 1-.04-.706"/></svg>