<svg xmlns="http://www.w3.org/2000/svg" width="16" height="16" fill="none" viewBox="0 0 16 16"><g clip-path="url(#a)"><path fill="#444f5c" d="M15.793.207a.705.705 0 0 0-.998 0l-3.783 3.785-.001-2.288L11 1.577a.706.706 0 0 0-1.4.127v3.991l.011.127c.06.329.348.579.694.579h3.991l.127-.011a.706.706 0 0 0 .579-.694l-.011-.127a.706.706 0 0 0-.694-.579l-2.288.001 3.785-3.785.082-.098a.706.706 0 0 0-.082-.9zm-1.127 13.795.03-.089.012-.037-.014.037zc.406-1.235.456-1.83-.611-2.404-.692-.372-1.392-.796-2.116-1.092-1.399-.57-1.304 1.116-2.303 1.663-.649.355-1.565-.289-2.132-.645a10 10 0 0 1-2.595-2.392c-.373-.485-1.198-1.397-1.096-2.077.161-1.079 1.438-1.133 1.072-2.453-.195-.707-.545-1.403-.806-2.084-.35-.913-.495-1.497-1.517-1.448-.739.036-1.229.351-1.683.944C-.35 3.615-.164 5.772.661 7.528c1.169 2.484 3.172 4.826 5.311 6.339 1.456 1.029 3.373 1.964 5.135 2.123 1.29.116 3.095-.581 3.558-1.985z"/></g><defs><clipPath id="a"><path fill="#fff" d="M0 0h16v16H0z"/></clipPath></defs></svg>