<svg xmlns="http://www.w3.org/2000/svg" width="24" height="24" fill="none" viewBox="0 0 24 24"><path fill="#444f5c" d="m9.952 13.947-2.398.001a3.814 3.814 0 0 0-3.742 3.077h5.924c.079.521.215 1.024.403 1.5l-7.924-.001v-.763a5.34 5.34 0 0 1 5.34-5.34h3.065a7 7 0 0 0-.667 1.525zM9.08 4.029a3.814 3.814 0 1 1 .002 7.63 3.814 3.814 0 0 1-.003-7.631zm-.446 1.57a2.286 2.286 0 0 0-.825 4.147 2.29 2.29 0 0 0 2.89-.284 2.288 2.288 0 0 0-2.065-3.863m3.685 9.525v3.074l-.002 1.125v.008l.003.051.001.008a.66.66 0 0 0 .662.581.657.657 0 0 0 .665-.647v-.453h6.012v.461l.003.051.001.008a.66.66 0 0 0 .662.581.657.657 0 0 0 .665-.647zm0 0h-.341c-.256 0-.491-.274-.491-.534 0-.238.136-.488.363-.517l.192-.025.01-.001h.548l.872-1.776a.9.9 0 0 1 .778-.596h.006l.071-.003h4.659a.9.9 0 0 1 .856.6l.851 1.75.642.053c.256 0 .452.258.452.517 0 .238-.163.5-.389.53l-.01.001-.054.003h-.342v3.286l-.001.035-.001.879-8.671-4.2zm6.636-2.532.848 2.591-1.489.001-.044.003-.01.001a.465.465 0 0 0-.409.457c0 .259.216.461.472.461h1.724v1.591h-6.426v-1.591h1.309l.044-.003.01-.001a.465.465 0 0 0 .409-.457.467.467 0 0 0-.472-.461h-1.413l.849-2.591h4.599z"/></svg>