<svg xmlns="http://www.w3.org/2000/svg" width="24" height="24" fill="none" viewBox="0 0 24 24"><path fill="#444f5c" d="m4.392 13.132-.051 1.15a.688.688 0 1 0 1.373-.006l-.061-1.141.963.625a.684.684 0 1 0 .685-1.18l-1.012-.521 1.01-.52a.685.685 0 1 0-.682-1.186l-.964.616.061-1.145a.687.687 0 1 0-1.373-.006l.051 1.153-.965-.616a.68.68 0 1 0-.678 1.179l1.021.526-1.023.527a.68.68 0 1 0 .68 1.173l.964-.626zm6.975-.049-.051 1.15a.687.687 0 1 0 1.373-.006l-.061-1.141.963.625a.684.684 0 1 0 .685-1.18l-1.012-.521 1.01-.52a.685.685 0 1 0-.682-1.186l-.964.616.061-1.145a.687.687 0 1 0-1.373-.006l.051 1.153-.965-.616a.68.68 0 1 0-.678 1.179l1.021.526-1.023.527a.68.68 0 1 0 .68 1.173l.964-.626zm6.975-.05-.051 1.15a.687.687 0 1 0 1.373-.006l-.061-1.141.963.625a.684.684 0 1 0 .685-1.18l-1.012-.521 1.01-.52a.685.685 0 1 0-.682-1.186l-.964.616.061-1.145a.687.687 0 1 0-1.373-.006l.051 1.153-.965-.616a.68.68 0 1 0-.677 1.179l1.021.526-1.023.527a.68.68 0 1 0 .68 1.173l.964-.626z"/></svg>