<svg xmlns="http://www.w3.org/2000/svg" width="16" height="16" fill="none" viewBox="0 0 16 16"><path fill="#444f5c" fill-rule="evenodd" d="M2 3.836a1.5 1.5 0 0 0-1.5 1.5v6a1.5 1.5 0 0 0 1.5 1.5h8a1.5 1.5 0 0 0 1.5-1.5V9.868l2.422 1.168a1.1 1.1 0 0 0 1.578-.991v-4.09a1.1 1.1 0 0 0-1.578-.99L11.5 6.135v-.8a1.5 1.5 0 0 0-1.5-1.5zm9.5 3.409v1.513l2.857 1.377a.1.1 0 0 0 .143-.09v-4.09a.1.1 0 0 0-.143-.09zm-10-1.91a.5.5 0 0 1 .5-.5h8a.5.5 0 0 1 .5.5v6a.5.5 0 0 1-.5.5H2a.5.5 0 0 1-.5-.5z" clip-rule="evenodd"/></svg>