<svg xmlns="http://www.w3.org/2000/svg" width="24" height="24" fill="none" viewBox="0 0 24 24"><path fill="#444f5c" d="M14.684 21.866v.999H9.772v-.999zM7.103 5.608v.999H3.45a.5.5 0 0 0-.492.41l-.008.09v11.671c0 .245.177.449.41.492l.09.008h17.1a.5.5 0 0 0 .492-.41l.008-.09V7.107a.5.5 0 0 0-.41-.492l-.09-.008h-3.393v-.999h3.393a1.5 1.5 0 0 1 1.492 1.355l.007.144v11.671a1.5 1.5 0 0 1-1.355 1.492l-.144.007H3.45a1.5 1.5 0 0 1-1.492-1.355l-.007-.144V7.107a1.5 1.5 0 0 1 1.355-1.492l.144-.007zM12 1.134a1.72 1.72 0 0 1 1.467.827l5.146 8.591a1.712 1.712 0 0 1-1.471 2.57H6.853a1.71 1.71 0 0 1-1.47-.865 1.71 1.71 0 0 1 .009-1.712l5.143-8.586A1.7 1.7 0 0 1 12 1.134m0 1a.72.72 0 0 0-.61.342l-5.138 8.577a.71.71 0 0 0 .256.973.7.7 0 0 0 .349.099h10.278a.72.72 0 0 0 .706-.717.7.7 0 0 0-.092-.348l-5.14-8.581a.71.71 0 0 0-.611-.344zm.5 3.777v3.241h-.999V5.911z"/></svg>