<svg xmlns="http://www.w3.org/2000/svg" width="16" height="16" fill="none" viewBox="0 0 16 16"><g clip-path="url(#a)"><path fill="#444f5c" d="M16 8A8 8 0 1 1 0 8a8 8 0 0 1 16 0m-4.44-1.143c.391 0 .587-.447.31-.708L9.724 4.122a.457.457 0 0 0-.621 0 .4.4 0 0 0 0 .587l1.396 1.319H4.438a.43.43 0 0 0-.439.415c0 .229.197.415.439.415zM12 9.558a.43.43 0 0 0-.439-.415H4.44c-.391 0-.587.447-.31.708l2.146 2.027a.457.457 0 0 0 .621 0 .4.4 0 0 0 0-.587L5.501 9.972h6.061a.43.43 0 0 0 .439-.415z"/></g><defs><clipPath id="a"><path fill="#fff" d="M0 0h16v16H0z"/></clipPath></defs></svg>