<svg xmlns="http://www.w3.org/2000/svg" width="16" height="16" fill="none" viewBox="0 0 16 16"><path fill="#444f5c" d="M4.5 5a.5.5 0 0 1 .5-.5h2a.5.5 0 0 1 0 1H5a.5.5 0 0 1-.5-.5M5 7.5a.5.5 0 0 0 0 1h4a.5.5 0 0 0 0-1z"/><path fill="#444f5c" fill-rule="evenodd" d="M1.5 12.492V1.924A1.5 1.5 0 0 1 3 .424h10a1.5 1.5 0 0 1 1.5 1.5v7.568a1.5 1.5 0 0 1 1.49 1.5v3.383a.5.5 0 1 1-1 0v-3.383a.5.5 0 0 0-.5-.5h-1.815a.5.5 0 0 0-.342.135L9.7 13.088a1.5 1.5 0 0 1-1.024.404H1.51a.5.5 0 0 0-.5.5v.383a.5.5 0 0 1-1 0v-.383a1.5 1.5 0 0 1 1.49-1.5m1-10.568a.5.5 0 0 1 .5-.5h10a.5.5 0 0 1 .5.5v7.568h-.825a1.5 1.5 0 0 0-1.025.404l-2.633 2.461a.5.5 0 0 1-.341.135H2.5z" clip-rule="evenodd"/></svg>