<svg xmlns="http://www.w3.org/2000/svg" width="16" height="16" fill="none" viewBox="0 0 16 16"><path fill="#444f5c" fill-rule="evenodd" d="M5.704 1.57a.5.5 0 1 0-1 0v1.178H.732a.5.5 0 0 0 0 1H6.92a6.2 6.2 0 0 1-1.717 3.808A6.2 6.2 0 0 1 3.82 5.317a.5.5 0 0 0-.943.334 7.2 7.2 0 0 0 1.575 2.567 6.2 6.2 0 0 1-3.721 1.24.5.5 0 0 0 0 1 7.2 7.2 0 0 0 4.472-1.556 7.2 7.2 0 0 0 3.685 1.512l-1.896 3.792a.5.5 0 1 0 .895.447l.98-1.96h4.973l.98 1.96a.5.5 0 0 0 .895-.447l-1.105-2.21-.027-.052-2.782-5.566a.5.5 0 0 0-.895 0L9.372 9.45a6.2 6.2 0 0 1-3.418-1.232 7.2 7.2 0 0 0 1.97-4.47h1.754a.5.5 0 0 0 0-1H5.704zm4.416 8.619.009-.017 1.226-2.452 1.986 3.973H9.368z" clip-rule="evenodd"/></svg>