<svg xmlns="http://www.w3.org/2000/svg" width="16" height="16" fill="none" viewBox="0 0 16 16"><path fill="#444f5c" fill-rule="evenodd" d="M5.204.82a.5.5 0 0 1 .5.5v1.178h3.973a.5.5 0 0 1 0 1H7.924a7.2 7.2 0 0 1-1.97 4.47l.137.1A6.2 6.2 0 0 0 9.372 9.2l1.536-3.072a.5.5 0 0 1 .894 0l3.914 7.828a.5.5 0 0 1-.895.447l-.98-1.96H8.868l-.98 1.96a.5.5 0 1 1-.894-.447l1.113-2.227.009-.017.774-1.548a7.2 7.2 0 0 1-3.686-1.512A7.2 7.2 0 0 1 .73 10.207a.5.5 0 0 1 0-1 6.2 6.2 0 0 0 3.723-1.24 7.2 7.2 0 0 1-1.575-2.566.5.5 0 1 1 .943-.334 6.2 6.2 0 0 0 1.382 2.238A6.2 6.2 0 0 0 6.92 3.498H.73a.5.5 0 0 1 0-1h3.973V1.32a.5.5 0 0 1 .5-.5m4.916 9.12-.752 1.503h3.973L11.355 7.47l-1.226 2.45z" clip-rule="evenodd"/></svg>