<svg xmlns="http://www.w3.org/2000/svg" width="16" height="16" fill="none" viewBox="0 0 16 16"><path fill="#444f5c" d="M3.517 4.958a5.413 5.413 0 0 1 9.779 1.958l-.858-.65a.5.5 0 1 0-.604.797L13.597 8.4c.103.078.228.11.35.1a.5.5 0 0 0 .368-.214l1.39-1.568a.5.5 0 0 0-.747-.663l-.665.75A6.414 6.414 0 0 0 2.69 4.393a.5.5 0 0 0 .827.564M2.473 7.689a.5.5 0 0 0-.848.105L.308 9.317a.5.5 0 0 0 .756.655l.636-.736a6.414 6.414 0 0 0 11.773 2.093.5.5 0 1 0-.855-.52 5.413 5.413 0 0 1-9.927-1.716l.863.636a.5.5 0 0 0 .594-.804z"/><path fill="#444f5c" d="M10.166 6.994a.5.5 0 0 0-.707-.707L7.094 8.652 6.54 8.1a.5.5 0 1 0-.707.707l.906.906a.5.5 0 0 0 .707 0z"/></svg>