<svg xmlns="http://www.w3.org/2000/svg" width="16" height="16" fill="none" viewBox="0 0 16 16"><g clip-path="url(#a)"><path fill="#444f5c" d="M7.856-.004a8.004 8.004 0 0 1 8.003 7.902c.055 4.39-3.478 8.032-7.867 8.104A8.01 8.01 0 0 1 .19 10.306a1.17 1.17 0 0 1 1.119-1.505L7.655 8.8c.416 0 .625.503.33.797l-1.267 1.266a.8.8 0 0 0-.084 1.033l.084.099a.8.8 0 0 0 1.033.084l.099-.084 3.43-3.43a.8.8 0 0 0 .084-1.033l-.084-.099-3.412-3.412c-.313-.313-.828-.334-1.144-.023a.8.8 0 0 0-.09 1.038l.084.099L7.984 6.4a.467.467 0 0 1-.33.797H1.309A1.17 1.17 0 0 1 .191 5.69 8.01 8.01 0 0 1 7.581 0l.275-.005z"/></g><defs><clipPath id="a"><path fill="#fff" d="M0 0h16v16H0z"/></clipPath></defs></svg>