<svg xmlns="http://www.w3.org/2000/svg" width="16" height="16" fill="none" viewBox="0 0 16 16"><path fill="#444f5c" d="M1.5 2A1.5 1.5 0 0 1 3 .5h7A1.5 1.5 0 0 1 11.5 2v2.48a.5.5 0 0 1-1 0V2a.5.5 0 0 0-.5-.5H3a.5.5 0 0 0-.5.5v12a.5.5 0 0 0 .5.5h7a.5.5 0 0 0 .5-.5v-2.48a.5.5 0 0 1 1 0V14a1.5 1.5 0 0 1-1.5 1.5H3A1.5 1.5 0 0 1 1.5 14z"/><path fill="#444f5c" d="M6.5 8a.5.5 0 0 1 .5-.5h6.793l-1.147-1.146a.5.5 0 0 1 .708-.708l2 2a.5.5 0 0 1 0 .708l-2 2a.5.5 0 0 1-.708-.708L13.793 8.5H7a.5.5 0 0 1-.5-.5"/></svg>