<svg xmlns="http://www.w3.org/2000/svg" width="16" height="16" fill="none" viewBox="0 0 16 16"><path fill="#444f5c" fill-rule="evenodd" d="M7.697 2.16a1.5 1.5 0 0 1 1.5 1.5v8.698a1.5 1.5 0 0 1-1.5 1.5h-5.72a1.5 1.5 0 0 1-1.5-1.5V3.661a1.5 1.5 0 0 1 1.5-1.5zm.5 1.5a.5.5 0 0 0-.5-.5h-5.72a.5.5 0 0 0-.5.5v8.698a.5.5 0 0 0 .5.5h5.72a.5.5 0 0 0 .5-.5z" clip-rule="evenodd"/><path fill="#444f5c" d="M14.65 4.425a.5.5 0 1 1 0 1h-3.166a.5.5 0 0 1 0-1zm.5 3.392a.5.5 0 0 0-.5-.5h-3.166a.5.5 0 0 0 0 1h3.166a.5.5 0 0 0 .5-.5m-.5 2.441a.5.5 0 1 1 0 1h-3.166a.5.5 0 1 1 0-1z"/></svg>