<svg xmlns="http://www.w3.org/2000/svg" width="16" height="16" fill="none" viewBox="0 0 16 16"><g clip-path="url(#a)"><path fill="#444f5c" d="M12.502 5.999h-.5V3.998A4.006 4.006 0 0 0 8-.004a4.006 4.006 0 0 0-4.002 4.002v2.001h-.5c-.827 0-1.501.673-1.501 1.501v7.003c0 .828.674 1.501 1.501 1.501h9.004c.827 0 1.501-.673 1.501-1.501V7.5c0-.828-.674-1.501-1.501-1.501m-7.17-2.001A2.67 2.67 0 0 1 8 1.33a2.67 2.67 0 0 1 2.668 2.668v2.001H5.332z"/></g><defs><clipPath id="a"><path fill="#fff" d="M0 0h16v16H0z"/></clipPath></defs></svg>