<svg xmlns="http://www.w3.org/2000/svg" width="24" height="24" fill="none" viewBox="0 0 24 24"><path fill="#444f5c" d="M14.707 1c1.484 0 2.691 1.22 2.691 2.72v7.635h3.704c.771 0 1.397.634 1.397 1.413v7.009c0 1.777-1.43 3.223-3.188 3.223H5.921c-2.438 0-4.422-2.005-4.422-4.469V3.721c0-1.5 1.207-2.72 2.691-2.72h10.516zm0 1.289H4.191c-.781 0-1.416.642-1.416 1.431v14.81c0 1.754 1.411 3.18 3.146 3.18h10.841a3.23 3.23 0 0 1-.639-1.934V3.719c0-.789-.635-1.431-1.416-1.431zm6.396 10.356h-3.704v7.133c0 1.066.858 1.934 1.913 1.934a1.925 1.925 0 0 0 1.913-1.934v-7.009a.123.123 0 0 0-.122-.123zM12.19 9.614c.352 0 .638.289.638.645v.343c.707.144 1.209.564 1.196.578.403.403.119 1.102-.448 1.102-.338 0-.365-.193-.748-.343v1.994q.164.062.325.119c2.343.837 1.905 4.069-.325 4.641v.446a.64.64 0 0 1-.638.645.64.64 0 0 1-.638-.645v-.386c-.525-.049-.943-.195-1.517-.575a.65.65 0 0 1-.185-.892.634.634 0 0 1 .883-.187c.333.22.543.317.819.358v-2.66a4.6 4.6 0 0 1-.942-.558c-1.148-.91-.786-3.134.942-3.593v-.387c0-.356.285-.645.638-.645m.638 5.692v2.005c.708-.424.931-1.597 0-2.005m-4.909-2.919c.352 0 .638.289.638.645a.64.64 0 0 1-.638.645H4.688a.64.64 0 0 1-.638-.645c0-.356.285-.645.638-.645zm3.634-.338c-.386.317-.427.959-.155 1.175q.072.057.155.111zM7.919 9.637c.352 0 .638.289.638.645a.64.64 0 0 1-.638.645H4.688a.64.64 0 0 1-.638-.645c0-.356.285-.645.638-.645zm6.292-2.75c.352 0 .638.289.638.645a.64.64 0 0 1-.638.645H4.689a.64.64 0 0 1-.638-.645c0-.356.285-.645.638-.645zm0-2.407c.352 0 .638.289.638.645a.64.64 0 0 1-.638.645H4.689a.64.64 0 0 1-.638-.645c0-.356.285-.645.638-.645z"/></svg>