<svg xmlns="http://www.w3.org/2000/svg" width="16" height="16" fill="none" viewBox="0 0 16 16"><path fill="#444f5c" d="M0 2.535h2.43v6.521c0 1.032.472 1.647.845 1.91-.395.351-1.603.659-2.503-.088C.241 10.438 0 9.714 0 9.034zm15.185 5.417v-.685h.741V4.863h-.814a3.205 3.205 0 0 0-6.339.68v5.614c.504.071 1.105-.009 1.616-.433.531-.44.772-1.164.772-1.844v-.207h1.213V6.269h-1.213v-.726h.003a.813.813 0 1 1 1.629 0v2.409A3.207 3.207 0 0 0 16 11.157V8.766a.814.814 0 0 1-.815-.814M5.982 4.863v3.528c0 .2-.166.363-.371.363a.367.367 0 0 1-.371-.363V4.863H2.836v4.15c0 .746.253 1.691 1.405 1.998 1.153.308 1.822-.329 1.822-.329-.061.42-.456.727-1.093.793-.482.05-1.098-.11-1.405-.242v2.198c.783.231 1.611.306 2.422.148 1.471-.285 2.399-1.515 2.399-3.151V4.862H5.982z"/></svg>