<svg xmlns="http://www.w3.org/2000/svg" width="16" height="16" fill="none" viewBox="0 0 16 16"><g fill="#444f5c" clip-path="url(#a)"><path fill-rule="evenodd" d="M5.49 5.178a2.305 2.305 0 1 1 4.61 0 2.305 2.305 0 0 1-4.61 0m2.305-1.305a1.305 1.305 0 1 0 0 2.61 1.305 1.305 0 0 0 0-2.61" clip-rule="evenodd"/><path fill-rule="evenodd" d="M7.795.25A5.295 5.295 0 0 0 2.5 5.545c0 1.481.685 2.837 1.623 4.053.938 1.217 2.17 2.346 3.342 3.374a.5.5 0 0 0 .62.03 15.8 15.8 0 0 0 3.26-3.175c.971-1.285 1.744-2.797 1.744-4.282A5.295 5.295 0 0 0 7.795.25M3.5 5.545a4.295 4.295 0 1 1 8.59 0c0 1.162-.62 2.459-1.543 3.68a15 15 0 0 1-2.725 2.729c-1.067-.947-2.11-1.932-2.907-2.967C4.04 7.854 3.5 6.711 3.5 5.545" clip-rule="evenodd"/><path d="M3.48 11.285a.5.5 0 0 1 .108.698l-2.03 2.767h12.895l-2.218-2.748a.5.5 0 1 1 .778-.629l2.218 2.749a1 1 0 0 1-.778 1.628H1.558a1 1 0 0 1-.807-1.592l2.03-2.766a.5.5 0 0 1 .7-.107"/></g><defs><clipPath id="a"><path fill="#fff" d="M0 0h16v16H0z"/></clipPath></defs></svg>