<svg xmlns="http://www.w3.org/2000/svg" width="16" height="16" fill="none" viewBox="0 0 16 16"><path fill="#444f5c" fill-rule="evenodd" d="M7.587 1.534a.44.44 0 0 0-.231.235L5 7.105V13.5h6.563a1.5 1.5 0 0 0 1.481-1.26l.853-5.266a1.5 1.5 0 0 0-1.481-1.74h-3.15a.5.5 0 0 1-.475-.658c.268-.803.196-1.423-.011-1.897-.212-.486-.585-.861-.98-1.125a.22.22 0 0 0-.213-.02M4 13.5v-6H2.5A.5.5 0 0 0 2 8v5a.5.5 0 0 0 .5.5zm.174-7 2.267-5.135C6.736.695 7.595.215 8.355.723c.508.339 1.033.85 1.341 1.555.244.558.34 1.212.212 1.956h2.508a2.5 2.5 0 0 1 2.468 2.9l-.853 5.265a2.5 2.5 0 0 1-2.468 2.101H2.5A1.5 1.5 0 0 1 1 13V8a1.5 1.5 0 0 1 1.5-1.5z" clip-rule="evenodd"/></svg>