<svg xmlns="http://www.w3.org/2000/svg" width="16" height="16" fill="none" viewBox="0 0 16 16"><g clip-path="url(#a)"><path fill="#444f5c" d="M12.276.98a2.34 2.34 0 0 1 2.25 1.697l1.429 5.002A1.17 1.17 0 0 1 14.83 9.17h-4.299a1.17 1.17 0 0 0-1.17 1.17v3.51a1.17 1.17 0 0 1-1.17 1.17h-.378c-.478 0-.909-.291-1.086-.736l-1.711-4.278a4.7 4.7 0 0 1-.335-1.738V2.149c0-.646.524-1.17 1.17-1.17zM1.989.98c.517 0 .936.419.936.936v6.318a.936.936 0 0 1-.936.936H.936A.936.936 0 0 1 0 8.234V1.916C0 1.399.419.98.936.98z"/></g><defs><clipPath id="a"><path fill="#fff" d="M0 0h16v16H0z"/></clipPath></defs></svg>