<svg xmlns="http://www.w3.org/2000/svg" width="16" height="16" fill="none" viewBox="0 0 16 16"><path fill="#444f5c" d="M.25 7.767a.25.25 0 0 0-.25.25v3.233c0 .138.112.25.25.25h4.5a.25.25 0 0 0 .25-.25V8.017a.25.25 0 0 0-.25-.25zm4.03 3.294H.72a.25.25 0 0 1-.25-.25V8.456a.25.25 0 0 1 .25-.25h3.56a.25.25 0 0 1 .25.25v2.355a.25.25 0 0 1-.25.25M2.5 8.7c.275 0 .5.198.5.439 0 .154-.1.297-.25.373v.475a.25.25 0 0 1-.5 0v-.475A.41.41 0 0 1 2 9.14c0-.241.225-.439.5-.439M2.495 5c1.104 0 1.996.827 1.996 1.851v.915h-.47v-.915c0-.784-.68-1.415-1.525-1.415S.97 6.067.97 6.85v.915H.5V6.85C.5 5.827 1.392 5 2.495 5M6.25 8.563h1.5v1.5h-1.5zm2.75 0h1.5v1.5H9zm2.75 0h1.5v1.5h-1.5zm2.75 0H16v1.5h-1.5z"/></svg>