<svg xmlns="http://www.w3.org/2000/svg" width="16" height="16" fill="none" viewBox="0 0 16 16"><path fill="#444f5c" d="M1 4.008a.5.5 0 0 1 .5.5V11.5a.5.5 0 1 1-1 0V4.508a.5.5 0 0 1 .5-.5m14 .005a.5.5 0 0 1 .5.5V11.5a.5.5 0 0 1-1 0V4.513a.5.5 0 0 1 .5-.5"/><path fill="#444f5c" fill-rule="evenodd" d="M12.984 6.007a1.5 1.5 0 0 0-1.5-1.5h-7.03a1.5 1.5 0 0 0-1.5 1.5v4a1.5 1.5 0 0 0 1.5 1.5h7.03a1.5 1.5 0 0 0 1.5-1.5zm-1.5-.5a.5.5 0 0 1 .5.5v4a.5.5 0 0 1-.5.5h-7.03a.5.5 0 0 1-.5-.5v-4a.5.5 0 0 1 .5-.5z" clip-rule="evenodd"/></svg>