<svg xmlns="http://www.w3.org/2000/svg" width="16" height="16" fill="none" viewBox="0 0 16 16"><path fill="#444f5c" d="M11.127 5.591a.5.5 0 0 1 .045-.706l2-1.76a.5.5 0 0 1 .66 0l2 1.76a.5.5 0 0 1-.66.75l-1.17-1.03v6.786l1.17-1.03a.5.5 0 0 1 .66.75l-2 1.761a.5.5 0 0 1-.672-.01l-1.988-1.75a.5.5 0 0 1 .66-.751l1.17 1.03V4.605l-1.17 1.03a.5.5 0 0 1-.705-.045M1 3.018a.5.5 0 0 0 0 1h8.103a.5.5 0 1 0 0-1zM.5 8a.5.5 0 0 1 .5-.5h6.318a.5.5 0 0 1 0 1H1A.5.5 0 0 1 .5 8m.5 3.998a.5.5 0 1 0 0 1h8.103a.5.5 0 0 0 0-1z"/></svg>