<svg xmlns="http://www.w3.org/2000/svg" width="16" height="16" fill="none" viewBox="0 0 16 16"><g clip-path="url(#a)"><path fill="#444f5c" d="M1.718.634c-.18-.261-.011-.638.279-.638h3.579a.67.67 0 0 1 .548.3l1.152 1.667-2.317 3.368zM8 16.004a4.666 4.666 0 0 1-4.669-4.669c0-1.239.492-2.426 1.367-3.302a4.67 4.67 0 0 1 6.604 0 4.67 4.67 0 0 1 0 6.604A4.67 4.67 0 0 1 8 16.004m0-3.255.967.509a.335.335 0 0 0 .475-.346l-.185-1.077.784-.763a.334.334 0 0 0-.182-.559l-1.082-.157-.483-.98a.334.334 0 0 0-.588 0l-.483.98-1.082.157a.334.334 0 0 0-.182.559l.784.763-.185 1.077a.335.335 0 0 0 .475.346zM8 5.49a5.8 5.8 0 0 1 2.54.58L14.282.634c.18-.261.011-.638-.279-.638h-3.579a.67.67 0 0 0-.548.3L6.077 5.815A5.8 5.8 0 0 1 8 5.49"/></g><defs><clipPath id="a"><path fill="#fff" d="M0 0h16v16H0z"/></clipPath></defs></svg>