<svg xmlns="http://www.w3.org/2000/svg" width="16" height="16" fill="none" viewBox="0 0 16 16"><g fill="#444f5c" clip-path="url(#a)"><path d="M6.194 8a.8.8 0 1 1-1.6 0 .8.8 0 0 1 1.6 0m2.037.8a.8.8 0 1 0 0-1.6.8.8 0 0 0 0 1.6M11.87 8a.8.8 0 1 1-1.6 0 .8.8 0 0 1 1.6 0"/><path fill-rule="evenodd" d="M8 .844a7.156 7.156 0 0 0-6.454 10.249.6.6 0 0 1 .052.392l-.559 2.307a1 1 0 0 0 1.149 1.22l2.66-.479a.6.6 0 0 1 .334.046A7.156 7.156 0 1 0 8 .844M1.844 8a6.156 6.156 0 1 1 3.732 5.66 1.6 1.6 0 0 0-.905-.11l-2.66.478.559-2.308c.09-.37.029-.744-.123-1.06A6.1 6.1 0 0 1 1.844 8" clip-rule="evenodd"/></g><defs><clipPath id="a"><path fill="#fff" d="M0 0h16v16H0z"/></clipPath></defs></svg>