<svg xmlns="http://www.w3.org/2000/svg" width="16" height="16" fill="none" viewBox="0 0 16 16"><g fill="#444f5c" clip-path="url(#a)"><path d="M5.362 11.663c.286-.3 1.02-.76 1.95-.998.92-.235 1.952-.235 2.868.273a.5.5 0 1 0 .485-.875c-1.207-.669-2.52-.643-3.6-.367-1.067.273-1.983.81-2.428 1.278a.5.5 0 1 0 .725.69"/><path fill-rule="evenodd" d="M8 .219A7.781 7.781 0 1 0 8 15.78 7.781 7.781 0 0 0 8 .22M1.218 8a6.781 6.781 0 1 1 13.563 0A6.781 6.781 0 0 1 1.218 8" clip-rule="evenodd"/></g><defs><clipPath id="a"><path fill="#fff" d="M0 0h16v16H0z"/></clipPath></defs></svg>