<svg xmlns="http://www.w3.org/2000/svg" width="16" height="16" fill="none" viewBox="0 0 16 16"><g clip-path="url(#a)"><path fill="#444f5c" fill-rule="evenodd" d="M2.585 12.5c.151.426.489.764.915.915V15a.5.5 0 0 0 1 0v-1.5h1.725V15a.5.5 0 0 0 1 0v-1.5H8.95V15a.5.5 0 0 0 1 0v-1.5h1.55V15a.5.5 0 0 0 1 0v-1.585c.426-.151.764-.489.915-.915H15a.5.5 0 0 0 0-1h-1.5V9.774H15a.5.5 0 0 0 0-1h-1.5V7.05H15a.5.5 0 0 0 0-1h-1.5V4.5H15a.5.5 0 0 0 0-1h-1.585a1.5 1.5 0 0 0-.915-.915V1a.5.5 0 0 0-1 0v1.5H9.775V1a.5.5 0 0 0-1 0v1.5H7.05V1a.5.5 0 0 0-1 0v1.5H4.5V1a.5.5 0 0 0-1 0v1.585a1.5 1.5 0 0 0-.915.915H1a.5.5 0 0 0 0 1h1.5v1.726H1a.5.5 0 1 0 0 1h1.5V8.95H1a.5.5 0 1 0 0 1h1.5v1.55H1a.5.5 0 0 0 0 1zM12 3.5a.5.5 0 0 1 .5.5v8a.5.5 0 0 1-.5.5H4a.5.5 0 0 1-.5-.5V4a.5.5 0 0 1 .5-.5z" clip-rule="evenodd"/></g><defs><clipPath id="a"><path fill="#fff" d="M0 0h16v16H0z"/></clipPath></defs></svg>