<svg xmlns="http://www.w3.org/2000/svg" width="16" height="16" fill="none" viewBox="0 0 16 16"><path fill="#444f5c" d="M8.5 7a.5.5 0 1 0-1 0v.5a1.5 1.5 0 0 0 0 3H9a.5.5 0 0 1 0 1H6.5a.5.5 0 0 0 0 1h1v.5a.5.5 0 0 0 1 0v-.5H9a1.5 1.5 0 0 0 0-3H7.5a.5.5 0 0 1 0-1h2a.5.5 0 1 0 0-1h-1z"/><path fill="#444f5c" fill-rule="evenodd" d="M5.776 3.67a1.5 1.5 0 0 0 .166.261 3.5 3.5 0 0 0-1.41 1.433l-2.645 5C.654 12.694 2.344 15.5 4.98 15.5h6.038c2.637 0 4.327-2.806 3.094-5.136l-2.644-5a3.5 3.5 0 0 0-1.411-1.433 1.5 1.5 0 0 0 .166-.26l.644-1.29A1.3 1.3 0 0 0 9.706.5H6.294a1.3 1.3 0 0 0-1.162 1.881zm1.342-.17a.5.5 0 0 1-.447-.276l-.645-1.29a.3.3 0 0 1 .268-.434h3.412a.3.3 0 0 1 .268.434l-.645 1.29a.5.5 0 0 1-.447.276zM5.415 5.831A2.5 2.5 0 0 1 7.625 4.5h.75a2.5 2.5 0 0 1 2.21 1.331l2.644 5c.881 1.665-.326 3.669-2.21 3.669H4.981c-1.884 0-3.091-2.004-2.21-3.669z" clip-rule="evenodd"/></svg>