<svg xmlns="http://www.w3.org/2000/svg" width="16" height="16" fill="none" viewBox="0 0 16 16"><path fill="#444f5c" fill-rule="evenodd" d="M10.07 3.248c.468-.559 1.034-.873 1.66-.703l.067.024c.718.311 1.265.993 1.69 1.78.431.8.775 1.782 1.049 2.803.548 2.044.837 4.324.962 5.806A.5.5 0 0 1 15 13.5H1a.5.5 0 0 1-.5-.5c0-.478.176-1.267.368-2 .2-.756.437-1.529.596-2.011l.001-.005c.234-.684.569-1.62.929-2.486.351-.845.755-1.695 1.138-2.155.264-.317.701-.788 1.293-.922.674-.152 1.334.16 1.943.932.125.159.253.334.366.49.07.095.135.184.19.256.164.216.3.37.44.48.13.1.268.164.445.188.142.019.325.014.568-.037.433-1.149.86-1.962 1.294-2.482M8.43 6.776a2 2 0 0 1-.352-.018 1.9 1.9 0 0 1-.926-.39 3.5 3.5 0 0 1-.623-.664 18 18 0 0 1-.227-.306c-.099-.136-.196-.27-.318-.426-.478-.606-.784-.61-.937-.575-.234.053-.484.271-.746.586-.272.326-.625 1.038-.983 1.899q-.08.191-.157.385a1.6 1.6 0 0 1 .667.075c.398.13.748.395 1.028.667.284.276.526.589.706.859.741 1.11 1.263 1.213 1.495 1.164.273-.056.599-.393.775-1.022.156-.553.269-.99.366-1.368.083-.32.154-.597.232-.866m-6.02 2.54c.233-.582.466-.853.64-.969.15-.1.295-.111.467-.055.194.064.416.214.642.434.221.215.42.47.571.697.79 1.183 1.658 1.77 2.53 1.588.832-.172 1.325-.983 1.535-1.73.173-.617.29-1.072.388-1.45.15-.586.253-.985.443-1.509.451-1.248.862-2.011 1.213-2.433.314-.375.504-.4.6-.385.397.188.795.626 1.169 1.32.38.704.699 1.604.963 2.587.464 1.733.74 3.662.882 5.089H1.554c.058-.34.158-.775.282-1.246.19-.725.419-1.47.573-1.938" clip-rule="evenodd"/></svg>