<svg xmlns="http://www.w3.org/2000/svg" width="32" height="32" fill="none" viewBox="0 0 32 32"><g fill="#444f5c" clip-path="url(#a)"><path d="M14.059 18.548c0-.316.244-.571.546-.571s.546.256.546.571v2.12a.56.56 0 0 1-.546.571.56.56 0 0 1-.546-.571z"/><path d="M1.85 20.437q-.755.364-.755.814v2.558c0 1.862 1.4 3.372 3.126 3.372h2.087c.972 4.461 5.374 2.511 5.168 0h9.502c.467 3.984 5.011 3.095 5.011 0h4.307a.6.6 0 0 0 .223-.045c.314-.133.469-.515.346-.854l-1.381-3.804c-.222-.612-.722-1.056-1.321-1.175l-5.021-.708a2.7 2.7 0 0 1-1.043-.451l-2.9-2.051a7.2 7.2 0 0 0-4.119-1.339l-4.919-.027c-1.38-.008-2.706.576-3.688 1.622l-1.466 1.562a1.63 1.63 0 0 1-1.187.526H1.847zm21.906 10.537c-1.665.155-3.091-.851-3.652-2.65h-7.675c-.392 1.289-1.533 2.317-2.887 2.593-1.747.356-3.306-.599-4.042-2.593H4.22c-2.337 0-4.218-2.029-4.218-4.515v-2.558c0-.859.541-1.442 1.389-1.852l.218-.105h2.213c.15 0 .296-.065.408-.184l1.466-1.562c1.188-1.266 2.797-1.973 4.473-1.964l4.919.027a8.25 8.25 0 0 1 4.725 1.535l2.9 2.051c.193.137.409.23.577.265l5.078.717c.975.194 1.782.912 2.138 1.892l1.381 3.804c.332.915-.088 1.952-.958 2.319a1.6 1.6 0 0 1-.631.128h-3.376c-.431 1.474-1.681 2.512-3.165 2.65z"/><path d="M23.484 29.841c1.384 0 2.506-1.21 2.506-2.703s-1.122-2.703-2.506-2.703-2.506 1.21-2.506 2.703 1.122 2.703 2.506 2.703m0 1.035c-1.937 0-3.495-1.68-3.495-3.738s1.558-3.738 3.495-3.738 3.495 1.68 3.495 3.738-1.558 3.738-3.495 3.738M8.922 29.841c1.384 0 2.506-1.21 2.506-2.703s-1.122-2.703-2.506-2.703-2.506 1.21-2.506 2.703 1.122 2.703 2.506 2.703m0 1.035c-1.937 0-3.495-1.68-3.495-3.738S6.985 23.4 8.922 23.4s3.495 1.68 3.495 3.738-1.558 3.738-3.495 3.738M.546 23.81A.56.56 0 0 1 0 23.239c0-.315.244-.571.546-.571h2.546c.302 0 .546.256.546.571a.56.56 0 0 1-.546.571zm26.939 0a.56.56 0 0 1-.546-.571c0-.315.244-.571.546-.571h2.546c.302 0 .546.256.546.571a.56.56 0 0 1-.546.571zM6.371 21.524a.56.56 0 0 1-.546-.571c0-.315.244-.571.546-.571h17.108c.302 0 .546.256.546.571a.56.56 0 0 1-.546.571z"/><path d="M8.213 20.896a.53.53 0 0 1-.772 0 .59.59 0 0 1 0-.808l2.376-2.486a.53.53 0 0 1 .772 0 .59.59 0 0 1 0 .808zm13.961-13.79c.403 0 .728-.341.728-.762V4.82c0-.421-.325-.762-.728-.762s-.728.341-.728.762v1.524c0 .421.325.762.728.762"/><path d="M24.358 8.629h-8.737l-2.912-3.048 2.912-3.048h8.737zm0-7.619h-8.737a1.43 1.43 0 0 0-1.03.446l-2.912 3.048a1.5 1.5 0 0 0-.288.455c-3.386.653-5.962 3.751-5.962 7.48v1.524c0 .421.325.762.728.762s.728-.341.728-.762v-1.524c0-2.949 2.01-5.413 4.671-5.974.044.063.068.136.123.194l2.912 3.048c.273.286.644.447 1.03.447h8.737c.804 0 1.456-.683 1.456-1.524V2.534c0-.841-.652-1.524-1.456-1.524"/></g><defs><clipPath id="a"><path fill="#fff" d="M0 0h32v32H0z"/></clipPath></defs></svg>