<svg xmlns="http://www.w3.org/2000/svg" width="16" height="16" fill="none" viewBox="0 0 16 16"><g clip-path="url(#a)"><path fill="#444f5c" fill-rule="evenodd" d="M3.213 1a.5.5 0 0 0-.426.238l-1.692 2.75c.69.87 2.08.815 2.696-.167a.56.56 0 0 1 .967.032c.483.898 1.77.898 2.25.007a.56.56 0 0 1 .984 0c.48.89 1.767.89 2.25-.007a.56.56 0 0 1 .967-.032c.617.982 2.007 1.036 2.697.167l-1.693-2.75A.5.5 0 0 0 11.787 1zM1.935.714A1.5 1.5 0 0 1 3.213 0h8.574a1.5 1.5 0 0 1 1.278.714l1.837 2.985a.57.57 0 0 1-.003.606l-.041.065c-.927 1.476-2.945 1.615-4.107.468-.876.908-2.366.921-3.25.024-.886.897-2.376.884-3.252-.024a2.66 2.66 0 0 1-1.749.76V13a.5.5 0 0 0 .5.5h2.5a.5.5 0 1 1 0 1H3A1.5 1.5 0 0 1 1.5 13V5.455A2.6 2.6 0 0 1 .142 4.37l-.041-.065a.57.57 0 0 1-.003-.606zM12 15.5a4 4 0 1 0 0-8 4 4 0 0 0 0 8m3-4a3 3 0 1 1-6 0 3 3 0 0 1 6 0m-1.646-1.354a.5.5 0 0 1 0 .708l-.647.646.647.646a.5.5 0 0 1-.708.708L12 12.207l-.646.647a.5.5 0 0 1-.708-.708l.647-.646-.647-.646a.5.5 0 0 1 .708-.708l.646.647.646-.647a.5.5 0 0 1 .708 0" clip-rule="evenodd"/></g><defs><clipPath id="a"><path fill="#fff" d="M0 0h16v16H0z"/></clipPath></defs></svg>