<svg xmlns="http://www.w3.org/2000/svg" width="16" height="16" fill="none" viewBox="0 0 16 16"><path fill="#444f5c" fill-rule="evenodd" d="M10.123 1.599a.5.5 0 0 1 .237.425c0 1.021.035 2.483.654 3.523.296.497.722.89 1.36 1.095.65.208 1.566.236 2.86-.102a.5.5 0 0 1 .6.642c-.27.813-.652 1.44-1.2 1.916-.545.473-1.216.766-2.012.973-2.325.606-4.72-.693-5.31-2.964-.28-1.072-.27-2.17.105-3.15.377-.989 1.112-1.826 2.22-2.38a.5.5 0 0 1 .486.022M8.351 4.313c-.287.752-.31 1.633-.072 2.542.44 1.692 2.256 2.727 4.09 2.249.712-.186 1.223-.425 1.609-.76.197-.172.372-.377.527-.63-.961.146-1.765.096-2.436-.12a3.38 3.38 0 0 1-1.915-1.536c-.578-.972-.735-2.18-.778-3.138a3.26 3.26 0 0 0-1.025 1.393" clip-rule="evenodd"/><path fill="#444f5c" d="M2.388 8.99a.5.5 0 0 0-.475.659l1.34 4.019a.5.5 0 0 0 .474.341h8.634a.5.5 0 0 0 .464-.313l.711-1.77a.5.5 0 1 1 .928.372l-.71 1.77a1.5 1.5 0 0 1-1.393.941H3.727a1.5 1.5 0 0 1-1.423-1.025L.964 9.965a1.5 1.5 0 0 1 1.424-1.974H5.57a.5.5 0 0 1 0 1z"/><path fill="#444f5c" d="M4.47 10.945a.56.56 0 0 0 .565-.553.56.56 0 0 0-.566-.554.56.56 0 0 0-.565.554.56.56 0 0 0 .566.553m3.143-.554a.56.56 0 0 1-.566.553.56.56 0 0 1-.566-.553.56.56 0 0 1 .566-.553.56.56 0 0 1 .566.553m-2.578 2.771a.56.56 0 0 0 .566-.553.56.56 0 0 0-.566-.553.56.56 0 0 0-.566.553.56.56 0 0 0 .566.553m3.537-.553a.56.56 0 0 1-.565.553.56.56 0 0 1-.566-.553.56.56 0 0 1 .566-.553.56.56 0 0 1 .565.553m2.405.553a.56.56 0 0 0 .566-.553.56.56 0 0 0-.566-.553.56.56 0 0 0-.565.553.56.56 0 0 0 .565.553"/></svg>