<svg xmlns="http://www.w3.org/2000/svg" width="16" height="16" fill="none" viewBox="0 0 16 16"><path fill="#444f5c" d="M13.479 3.523a.5.5 0 0 1-.003.707L10.9 6.78a.5.5 0 0 1-.704 0l-.858-.85a.5.5 0 1 1 .704-.71l.506.501 2.223-2.203a.5.5 0 0 1 .707.004"/><path fill="#444f5c" fill-rule="evenodd" d="M11.407.667a4.483 4.483 0 1 0 0 8.966 4.483 4.483 0 0 0 0-8.966M7.924 5.15a3.483 3.483 0 1 1 6.965 0 3.483 3.483 0 0 1-6.965 0" clip-rule="evenodd"/><path fill="#444f5c" d="M1.148 8.343a.5.5 0 0 1 .475-.658h3.443a.5.5 0 0 0 0-1H1.623A1.5 1.5 0 0 0 .2 8.659l1.454 4.362a1.5 1.5 0 0 0 1.423 1.026h9.207a1.5 1.5 0 0 0 1.392-.941l.765-1.907a.5.5 0 1 0-.928-.373l-.765 1.907a.5.5 0 0 1-.464.314H3.077a.5.5 0 0 1-.474-.342z"/><path fill="#444f5c" d="M3.903 9.778c.33 0 .598-.262.598-.584a.59.59 0 0 0-.598-.585.59.59 0 0 0-.598.585c0 .322.268.584.598.584m3.323-.584a.59.59 0 0 1-.598.584.59.59 0 0 1-.598-.584c0-.323.267-.585.598-.585s.598.262.598.585M4.5 12.122c.33 0 .598-.261.598-.584a.59.59 0 0 0-.598-.585.59.59 0 0 0-.598.585c0 .323.268.584.598.584m3.74-.584a.59.59 0 0 1-.599.584.59.59 0 0 1-.598-.584c0-.323.268-.585.598-.585s.598.262.598.585m2.543.584c.33 0 .598-.261.598-.584a.59.59 0 0 0-.598-.585.59.59 0 0 0-.598.585c0 .323.268.584.598.584"/></svg>