<svg xmlns="http://www.w3.org/2000/svg" width="16" height="16" fill="none" viewBox="0 0 16 16"><path fill="#444f5c" d="M2.517 1.508a.5.5 0 0 0-.5.5v10.967a.5.5 0 0 0 .5.5H4a.5.5 0 0 1 0 1H2.517a1.5 1.5 0 0 1-1.5-1.5V2.008a1.5 1.5 0 0 1 1.5-1.5h10.966a1.5 1.5 0 0 1 1.5 1.5v1.484a.5.5 0 0 1-1 0V2.008a.5.5 0 0 0-.5-.5z"/><path fill="#444f5c" fill-rule="evenodd" d="M9.04 10.522a1.99 1.99 0 1 1 3.98 0 1.99 1.99 0 0 1-3.98 0m1.99-.99a.99.99 0 1 0 0 1.98.99.99 0 0 0 0-1.98" clip-rule="evenodd"/><path fill="#444f5c" fill-rule="evenodd" d="M10.653 5.492a.5.5 0 0 0-.46.302l-.248.58a.887.887 0 0 1-1.118.454l-.573-.231a.5.5 0 0 0-.54.11L7.22 7.2a.5.5 0 0 0-.112.537l.234.592a.85.85 0 0 1-.453 1.104l-.59.258A.5.5 0 0 0 6 10.15v.69c0 .199.12.38.303.459l.58.249c.411.19.616.662.454 1.117l-.232.573a.5.5 0 0 0 .11.54l.494.495a.5.5 0 0 0 .537.111l.593-.234a.85.85 0 0 1 1.103.453l.258.59a.5.5 0 0 0 .458.299h.69a.5.5 0 0 0 .459-.303l.249-.58a.887.887 0 0 1 1.118-.454l.572.232a.5.5 0 0 0 .541-.11l.494-.494a.5.5 0 0 0 .111-.537l-.234-.593a.85.85 0 0 1 .453-1.103l.59-.259a.5.5 0 0 0 .299-.458v-.682a.5.5 0 0 0-.303-.46l-.57-.245-.025-.01a.86.86 0 0 1-.418-.386l-.057-.187a.9.9 0 0 1 .034-.537l.235-.58a.5.5 0 0 0-.11-.54l-.494-.495a.5.5 0 0 0-.537-.111l-.593.234a.85.85 0 0 1-1.103-.453l-.259-.59a.5.5 0 0 0-.458-.3zm4.091 4.879.006.002.25.107v.027l-.273.12c-.925.381-1.369 1.449-1 2.391v.002l.115.288-.028.027-.274-.11-.017-.007a1.887 1.887 0 0 0-2.38.981l-.125.293h-.033l-.12-.273c-.381-.926-1.449-1.37-2.392-1l-.29.114-.027-.027.111-.275.007-.016a1.887 1.887 0 0 0-.981-2.38L7 10.51v-.033l.273-.12c.926-.382 1.37-1.45 1-2.392l-.114-.29.027-.027.275.111.016.006a1.887 1.887 0 0 0 2.38-.98l.126-.293h.033l.12.273c.381.926 1.449 1.37 2.391 1h.002l.288-.114.027.027-.11.275-.001.001a1.9 1.9 0 0 0-.066 1.19l.075.244.03.075c.201.404.538.734.972.908" clip-rule="evenodd"/></svg>