<svg xmlns="http://www.w3.org/2000/svg" width="16" height="16" fill="none" viewBox="0 0 16 16"><path fill="#444f5c" d="M10.15 6.442a.5.5 0 0 1 0 .708L8.706 8.592l1.442 1.442a.5.5 0 1 1-.707.707L8 9.3l-1.442 1.44a.5.5 0 0 1-.707-.707l1.442-1.442L5.85 7.15a.5.5 0 0 1 .707-.707L8 7.885l1.442-1.443a.5.5 0 0 1 .707 0"/><path fill="#444f5c" fill-rule="evenodd" d="m8.006.42.251.151c1.345.807 2.89 2.103 4.104 3.612C13.567 5.68 14.5 7.458 14.5 9.22c0 3.486-2.928 6.28-6.5 6.28s-6.5-2.794-6.5-6.28c0-1.346.439-2.769 1.17-4.002C3.818 3.282 5.858 1.651 7.75.566zm-.013 1.163C6.258 2.618 4.507 4.08 3.53 5.728 2.875 6.832 2.5 8.081 2.5 9.22c0 2.899 2.445 5.28 5.5 5.28s5.5-2.381 5.5-5.28c0-1.429-.771-2.985-1.918-4.41a15.5 15.5 0 0 0-3.59-3.227" clip-rule="evenodd"/></svg>