<svg xmlns="http://www.w3.org/2000/svg" width="16" height="16" fill="none" viewBox="0 0 16 16"><g fill="#444f5c" clip-path="url(#a)"><path d="m6.789 7.733-1.059.611.52.901a.567.567 0 0 1-.207.774l-1.434.828a.5.5 0 1 1-.5-.866l1.058-.611-.52-.901a.567.567 0 0 1 .208-.774l1.434-.828a.5.5 0 0 1 .5.866"/><path fill-rule="evenodd" d="M1.656.027a.5.5 0 0 0 0 1h2.683v1.917H1.632c-.899 0-1.626.729-1.626 1.627v8.11c0 .478.209.93.572 1.24l1.975 1.681c.294.25.668.388 1.054.388h4.848c.898 0 1.625-.73 1.625-1.627v-1.366a.42.42 0 0 1 .15-.344c.098-.082.26-.146.476-.146h.797c.216 0 .378.064.476.146a.42.42 0 0 1 .15.344v.529c0 .459.191.847.51 1.112.309.258.71.378 1.116.378h.599c.405 0 .807-.12 1.116-.378.319-.265.51-.653.51-1.112v-8.98c0-.938-.771-1.524-1.598-1.542l-.6-.013h-.035c-.85 0-1.618.598-1.618 1.542v.5c0 .163-.06.266-.147.337-.097.08-.26.143-.479.143h-.797c-.22 0-.381-.063-.479-.143a.4.4 0 0 1-.147-.337v-.462c0-.898-.727-1.627-1.625-1.627H5.339V1.027h2.723a.5.5 0 1 0 0-1zm-.65 4.544c0-.347.28-.627.626-.627h6.823c.345 0 .625.28.625.627v.462c0 .46.192.847.513 1.11.31.255.71.37 1.113.37h.797c.402 0 .803-.115 1.113-.37.32-.263.513-.65.513-1.11v-.5c0-.301.225-.543.618-.543h.014l.599.014c.397.009.62.255.62.542v8.98c0 .164-.061.27-.15.344-.098.082-.26.146-.476.146h-.6a.75.75 0 0 1-.476-.146.42.42 0 0 1-.15-.344v-.529c0-.459-.19-.847-.509-1.112a1.73 1.73 0 0 0-1.116-.378h-.797c-.405 0-.807.12-1.116.378-.318.265-.51.653-.51 1.112v1.366c0 .347-.28.627-.625.627H3.607a.63.63 0 0 1-.406-.15l-1.975-1.68a.63.63 0 0 1-.22-.478z" clip-rule="evenodd"/></g><defs><clipPath id="a"><path fill="#fff" d="M0 0h16v16H0z"/></clipPath></defs></svg>