<svg xmlns="http://www.w3.org/2000/svg" width="16" height="16" fill="none" viewBox="0 0 16 16"><g fill="#444f5c" fill-rule="evenodd" clip-path="url(#a)" clip-rule="evenodd"><path d="M9 .208a1.5 1.5 0 0 0-1.5 1.5v3.187a1.5 1.5 0 0 0 1.5 1.5h.924l.723 1.342a.5.5 0 0 0 .744.16l1.964-1.502h1.054a1.5 1.5 0 0 0 1.5-1.5V1.709a1.5 1.5 0 0 0-1.5-1.5zm-.5 1.5a.5.5 0 0 1 .5-.5h5.409a.5.5 0 0 1 .5.5v3.187a.5.5 0 0 1-.5.5h-1.223a.5.5 0 0 0-.303.103l-1.634 1.249-.586-1.09a.5.5 0 0 0-.44-.262H9a.5.5 0 0 1-.5-.5zM4.674 4.525c-.308-.633-1.062-1.018-1.784-.73C1.737 4.251.963 4.928.53 5.76.1 6.586.035 7.507.192 8.405c.312 1.778 1.507 3.578 2.77 4.744 2.265 2.092 4.342 2.754 6.09 2.586 1.736-.166 3.051-1.14 3.821-2.135.593-.765.124-1.712-.607-2.023l-2.306-.981a1.5 1.5 0 0 0-1.509.196l-.93.724a.5.5 0 0 1-.647-.027L4.92 9.679a.5.5 0 0 1-.036-.697l.6-.682a1.5 1.5 0 0 0 .224-1.646zm-1.415.199c.17-.068.404.009.515.238l1.033 2.129a.5.5 0 0 1-.074.549l-.6.681a1.5 1.5 0 0 0 .106 2.093l1.956 1.809a1.5 1.5 0 0 0 1.94.082l.93-.724a.5.5 0 0 1 .503-.065l2.306.981a.44.44 0 0 1 .247.25q.047.127-.038.241c-.639.825-1.721 1.617-3.126 1.752-1.393.133-3.2-.37-5.317-2.325-1.151-1.064-2.2-2.679-2.463-4.182-.13-.743-.064-1.428.24-2.01.3-.578.865-1.111 1.842-1.5"/></g><defs><clipPath id="a"><path fill="#fff" d="M0 0h16v16H0z"/></clipPath></defs></svg>