<svg xmlns="http://www.w3.org/2000/svg" width="16" height="16" fill="none" viewBox="0 0 16 16"><g clip-path="url(#a)"><path fill="#444f5c" d="M2.475 5.688a.47.47 0 0 1 .445.32l.758 2.275a.47.47 0 0 1-.054.408l-.81 1.215c.596 1.49 1.823 2.686 3.313 3.281l1.215-.81c.12-.08.271-.1.408-.054l2.275.758a.47.47 0 0 1 .32.445v1.537a.94.94 0 0 1-.938.938c-5.17 0-9.406-4.205-9.406-9.375a.94.94 0 0 1 .938-.938zm13.056-2.813c.259 0 .469.21.469.469v4.688c0 .259-.21.469-.469.469h-2.65l-1.738 1.738a.47.47 0 0 1-.8-.331V8.502H8.937a.47.47 0 0 1-.469-.469V3.345c0-.259.21-.469.469-.469zM13.625 0c.259 0 .469.21.469.469v1.469H8.938c-.775 0-1.406.631-1.406 1.406v3.281H6.126a.47.47 0 0 1-.469-.469V.468c0-.259.21-.469.469-.469zm-3.282 5.219a.469.469 0 1 0 0 .938.469.469 0 0 0 0-.938m1.875 0a.469.469 0 1 0 0 .938.469.469 0 0 0 0-.938m1.875 0a.469.469 0 1 0 0 .938.469.469 0 0 0 0-.938"/></g><defs><clipPath id="a"><path fill="#fff" d="M0 0h16v16H0z"/></clipPath></defs></svg>