<svg xmlns="http://www.w3.org/2000/svg" width="16" height="16" fill="none" viewBox="0 0 16 16"><path fill="#444f5c" fill-rule="evenodd" d="M10.146 1.146a.5.5 0 0 0 0 .708l4 4a.5.5 0 0 0 .708-.708l-4-4a.5.5 0 0 0-.708 0" clip-rule="evenodd"/><path fill="#444f5c" fill-rule="evenodd" d="M11.307 1.605a.5.5 0 0 0-.702.088L7.255 6H4.5a.5.5 0 0 0-.354.854l5 5A.5.5 0 0 0 10 11.5V8.745l4.307-3.35a.5.5 0 0 0-.614-.79l-4.5 3.5A.5.5 0 0 0 9 8.5v1.793L5.707 7H7.5a.5.5 0 0 0 .395-.193l3.5-4.5a.5.5 0 0 0-.088-.702" clip-rule="evenodd"/><path fill="#444f5c" fill-rule="evenodd" d="M7.354 8.646a.5.5 0 0 0-.708 0l-4.5 4.5a.5.5 0 0 0 .708.708l4.5-4.5a.5.5 0 0 0 0-.708m-.208-2.5a.5.5 0 0 0 0 .708l2 2a.5.5 0 1 0 .708-.708l-2-2a.5.5 0 0 0-.708 0" clip-rule="evenodd"/></svg>