<svg xmlns="http://www.w3.org/2000/svg" width="16" height="16" fill="none" viewBox="0 0 16 16"><path fill="#444f5c" fill-rule="evenodd" d="M5.854 1.146a.5.5 0 0 1 0 .708l-4 4a.5.5 0 1 1-.708-.708l4-4a.5.5 0 0 1 .708 0" clip-rule="evenodd"/><path fill="#444f5c" fill-rule="evenodd" d="M4.693 1.605a.5.5 0 0 1 .702.088L8.745 6H11.5a.5.5 0 0 1 .354.854l-5 5A.5.5 0 0 1 6 11.5V8.745l-4.307-3.35a.5.5 0 0 1 .614-.79l4.5 3.5A.5.5 0 0 1 7 8.5v1.793L10.293 7H8.5a.5.5 0 0 1-.395-.193l-3.5-4.5a.5.5 0 0 1 .088-.702" clip-rule="evenodd"/><path fill="#444f5c" fill-rule="evenodd" d="M8.646 8.646a.5.5 0 0 1 .708 0l4.5 4.5a.5.5 0 0 1-.708.708l-4.5-4.5a.5.5 0 0 1 0-.708m.208-2.5a.5.5 0 0 1 0 .708l-2 2a.5.5 0 1 1-.708-.708l2-2a.5.5 0 0 1 .708 0" clip-rule="evenodd"/></svg>