<svg xmlns="http://www.w3.org/2000/svg" width="16" height="16" fill="none" viewBox="0 0 16 16"><g fill="#444f5c" clip-path="url(#a)"><path d="M8.878 1.194a1.5 1.5 0 0 0-1.061-.017L.662 3.755a.5.5 0 0 1-.34-.941L7.479.236a2.5 2.5 0 0 1 1.769.028l6.445 2.556a.5.5 0 1 1-.369.93z"/><path fill-rule="evenodd" d="M4.948 15.311a1.37 1.37 0 0 0-1.489-.06l-.71.422a2.5 2.5 0 0 1-1.276.35h-.252a.5.5 0 0 1 0-1h.252a1.5 1.5 0 0 0 .766-.21l.527-.313a.5.5 0 0 1-.026-.158v-7.98a2.396 2.396 0 0 1 4.792 0V7.65a.5.5 0 0 1-1 0V6.362a1.396 1.396 0 1 0-2.792 0V9.79h6.178V6.362a2.396 2.396 0 1 1 4.792 0V7.65a.5.5 0 0 1-1 0V6.362a1.396 1.396 0 0 0-2.792 0v8.274q.137-.048.262-.129a2.28 2.28 0 0 1 2.655.127c.226.18.507.277.795.277h.148a.5.5 0 1 1 0 1h-.148a2.28 2.28 0 0 1-1.416-.493 1.28 1.28 0 0 0-1.491-.071c-.775.501-1.78.48-2.536-.038a1.33 1.33 0 0 0-1.516.011 2.33 2.33 0 0 1-2.696.01zm4.97-4.522v3.79a1.3 1.3 0 0 1-.166-.096 2.33 2.33 0 0 0-2.664.024 1.33 1.33 0 0 1-1.536.007l-.027-.019a2.37 2.37 0 0 0-1.785-.398V10.79z" clip-rule="evenodd"/></g><defs><clipPath id="a"><path fill="#fff" d="M0 0h16v16H0z"/></clipPath></defs></svg>