<svg xmlns="http://www.w3.org/2000/svg" width="16" height="16" fill="none" viewBox="0 0 16 16"><g fill="#444f5c" clip-path="url(#a)"><path fill-rule="evenodd" d="m8.854 2.671.662-.662A6.07 6.07 0 0 1 13.805.232c.788 0 1.428.64 1.428 1.428a6.07 6.07 0 0 1-1.777 4.288l-.662.662-.235 3.296a.5.5 0 0 1-.145.318L9.43 13.208a.5.5 0 0 1-.854-.334l-.124-3.108.001-.06L5.76 7.013l-.06.001-3.108-.124a.5.5 0 0 1-.334-.853l2.984-2.984a.5.5 0 0 1 .318-.145zm4.951-1.439c.236 0 .428.192.428.428a5.07 5.07 0 0 1-1.484 3.581L9.075 8.915 6.55 6.389l2.865-2.864.029-.03.78-.78a5.07 5.07 0 0 1 3.581-1.483m-6.03 2.519-1.958.14-2.045 2.044 1.748.07zm1.755 7.942-.07-1.748 2.254-2.255-.14 1.959z" clip-rule="evenodd"/><path d="M7.302 10.62a.5.5 0 1 0-.865-.502 3.45 3.45 0 0 1-1.999 1.584 4 4 0 0 1-.661.148c.174-1.575.864-2.441 1.547-2.867a.5.5 0 1 0-.53-.849c-1.083.677-1.987 2.026-2.055 4.234a.5.5 0 0 0 .474.515l.026-.498-.026.498h.015l.027.001h.095q.12.001.326-.017c.27-.024.644-.08 1.061-.211.838-.263 1.864-.83 2.565-2.035M2.354 8.146a.5.5 0 0 0-.707 0L.232 9.561a.5.5 0 0 0 .707.707l1.415-1.414a.5.5 0 0 0 0-.708m4.293 5.001a.5.5 0 1 1 .707.707l-1.415 1.414a.5.5 0 1 1-.707-.707z"/></g><defs><clipPath id="a"><path fill="#fff" d="M0 0h16v16H0z"/></clipPath></defs></svg>