<svg xmlns="http://www.w3.org/2000/svg" width="16" height="16" fill="none" viewBox="0 0 16 16"><path fill="#444f5c" d="M9.5 8a1.5 1.5 0 1 1-3 0 1.5 1.5 0 0 1 3 0"/><path fill="#444f5c" fill-rule="evenodd" d="M8 2.5c-1.718 0-3.261.886-4.458 1.88-1.205.999-2.12 2.157-2.594 2.813a1.37 1.37 0 0 0 0 1.615c.473.655 1.389 1.813 2.594 2.813C4.739 12.614 6.282 13.5 8 13.5c1.719 0 3.261-.886 4.458-1.88 1.205-.999 2.12-2.157 2.594-2.812a1.37 1.37 0 0 0 0-1.616c-.473-.655-1.389-1.813-2.594-2.813C11.261 3.386 9.718 2.5 8 2.5M1.758 7.778c.45-.62 1.308-1.705 2.422-2.63C5.302 4.219 6.621 3.5 8 3.5s2.698.718 3.82 1.649c1.114.924 1.973 2.008 2.422 2.63a.37.37 0 0 1 0 .443c-.45.62-1.308 1.705-2.422 2.63-1.122.93-2.441 1.648-3.82 1.648s-2.698-.718-3.82-1.649c-1.114-.924-1.973-2.008-2.422-2.63a.37.37 0 0 1 0-.443" clip-rule="evenodd"/></svg>