<svg xmlns="http://www.w3.org/2000/svg" width="16" height="16" fill="none" viewBox="0 0 16 16"><g fill="#444f5c" clip-path="url(#a)"><path fill-rule="evenodd" d="M12.99 3.5V3a2.5 2.5 0 0 0-2.5-2.5h-5A2.5 2.5 0 0 0 2.99 3v.5H2A1.5 1.5 0 0 0 .5 5v4.508a1.5 1.5 0 0 0 .93 1.387l1.094.45A2.5 2.5 0 0 0 5 13.5h1.467a.5.5 0 0 0 0-1H5a1.5 1.5 0 0 1-1.5-1.511V8.5H8a.5.5 0 0 0 0-1H3a.5.5 0 0 0-.5.5v2.254l-.69-.284a.5.5 0 0 1-.31-.462V5a.5.5 0 0 1 .5-.5h11.98a.5.5 0 0 1 .5.5v2a.5.5 0 0 0 1 0V5a1.5 1.5 0 0 0-1.5-1.5zm-1 0V3a1.5 1.5 0 0 0-1.5-1.5h-5A1.5 1.5 0 0 0 3.99 3v.5z" clip-rule="evenodd"/><path d="M13.354 11.046a.5.5 0 0 1 0 .708l-1.5 1.5a.5.5 0 0 1-.708 0l-.5-.5a.5.5 0 0 1 .708-.708l.146.147 1.146-1.147a.5.5 0 0 1 .708 0"/><path fill-rule="evenodd" d="M12 8a4 4 0 1 0 0 8 4 4 0 0 0 0-8m-3 4a3 3 0 1 1 6 0 3 3 0 0 1-6 0" clip-rule="evenodd"/></g><defs><clipPath id="a"><path fill="#fff" d="M0 0h16v16H0z"/></clipPath></defs></svg>