<svg xmlns="http://www.w3.org/2000/svg" width="16" height="16" fill="none" viewBox="0 0 16 16"><g fill="#444f5c" fill-rule="evenodd" clip-path="url(#a)" clip-rule="evenodd"><path d="M2.5 5A1.5 1.5 0 0 0 1 6.5v4.646a1.5 1.5 0 0 0 .943 1.393l1.243.497a.5.5 0 1 1-.372.928l-1.242-.497A2.5 2.5 0 0 1 0 11.146V6.5A2.5 2.5 0 0 1 2.5 4h11A2.5 2.5 0 0 1 16 6.5v4.6a2.5 2.5 0 0 1-1.646 2.349l-1.433.52a.5.5 0 0 1-.342-.939l1.434-.521a1.5 1.5 0 0 0 .987-1.41V6.5A1.5 1.5 0 0 0 13.5 5z"/><path d="M4.5 1a.5.5 0 0 0-.5.5V4a.5.5 0 0 1-1 0V1.5A1.5 1.5 0 0 1 4.5 0h7A1.5 1.5 0 0 1 13 1.5V4a.5.5 0 0 1-1 0V1.5a.5.5 0 0 0-.5-.5zM3 10.5a.5.5 0 0 1 .5-.5h9a.5.5 0 0 1 .5.5v4a1.5 1.5 0 0 1-1.5 1.5h-7A1.5 1.5 0 0 1 3 14.5zm1 .5v3.5a.5.5 0 0 0 .5.5h7a.5.5 0 0 0 .5-.5V11zm7-3.5a.5.5 0 0 1 .5-.5h1a.5.5 0 0 1 0 1h-1a.5.5 0 0 1-.5-.5"/><path d="M5 12.5a.5.5 0 0 1 .5-.5h5a.5.5 0 0 1 0 1h-5a.5.5 0 0 1-.5-.5"/></g><defs><clipPath id="a"><path fill="#fff" d="M0 0h16v16H0z"/></clipPath></defs></svg>