<svg xmlns="http://www.w3.org/2000/svg" width="16" height="16" fill="none" viewBox="0 0 16 16"><path fill="#444f5c" fill-rule="evenodd" d="M8.106 5.414a1.5 1.5 0 0 0-2.24 1.304v2.467a1.5 1.5 0 0 0 2.3 1.268l2.056-1.3a1.5 1.5 0 0 0-.06-2.572zm-1.24 1.304a.5.5 0 0 1 .746-.435l2.056 1.168a.5.5 0 0 1 .02.857l-2.056 1.3a.5.5 0 0 1-.767-.423z" clip-rule="evenodd"/><path fill="#444f5c" fill-rule="evenodd" d="M13.634 2.363a1.37 1.37 0 0 0-1.478-.304l-.444.178c-.873.324-1.849-.071-2.264-.952L9.272.87A1.379 1.379 0 0 0 6.738.86l-.192.442c-.39.893-1.408 1.292-2.258.935l-.457-.179A1.372 1.372 0 0 0 2.06 3.845l.177.443c.324.873-.07 1.85-.952 2.264l-.414.176a1.379 1.379 0 0 0-.01 2.535l.441.191c.894.392 1.293 1.409.936 2.257l-.179.457a1.372 1.372 0 0 0 1.787 1.773l.443-.177c.873-.324 1.85.07 2.265.952l.175.414a1.38 1.38 0 0 0 2.535.01l.191-.441c.392-.894 1.409-1.293 2.258-.936l.462.18a1.36 1.36 0 0 0 1.46-.306l.32-.32a.68.68 0 0 0 .15-.729l-.34-.848-.014-.034a1.77 1.77 0 0 1-.04-1.2l.17-.324c.198-.326.488-.584.829-.73l.421-.18a1.38 1.38 0 0 0 .01-2.534l-.441-.191c-.894-.391-1.293-1.408-.935-2.258l.178-.457a1.37 1.37 0 0 0-.308-1.469m-1.107.625a.372.372 0 0 1 .484.48l-.172.44c-.57 1.365.08 2.952 1.46 3.555l.001.001.442.192a.379.379 0 0 1-.002.696l-.423.18h-.002c-.548.235-1 .645-1.3 1.15l-.006.01-.19.36a1 1 0 0 0-.056.13c-.202.63-.19 1.317.077 1.94l.005.011.25.628-.169.17a.36.36 0 0 1-.389.08l-.444-.173c-1.365-.57-2.952.08-3.555 1.46v.002l-.192.442a.379.379 0 0 1-.697-.002l-.183-.431-.004-.008c-.629-1.35-2.152-1.988-3.53-1.472l-.458.183a.372.372 0 0 1-.484-.48l.171-.44c.57-1.364-.08-2.95-1.46-3.554H1.7l-.443-.193a.379.379 0 0 1 .003-.696l.431-.183.008-.004c1.35-.629 1.987-2.152 1.472-3.53l-.183-.458a.372.372 0 0 1 .48-.484l.439.171c1.365.57 2.952-.08 3.556-1.46l.192-.443a.379.379 0 0 1 .697.003l.182.43.004.009c.63 1.35 2.153 1.987 3.53 1.471z" clip-rule="evenodd"/></svg>