<svg xmlns="http://www.w3.org/2000/svg" width="16" height="16" fill="none" viewBox="0 0 16 16"><path fill="#444f5c" d="M10.354 6.354a.5.5 0 0 0-.708-.708L7 8.293l-.646-.647a.5.5 0 0 0-.708.707l1 1a.5.5 0 0 0 .708 0z"/><path fill="#444f5c" fill-rule="evenodd" d="M8.362.66A.5.5 0 0 0 7.69.643c-.412.353-1.185.9-2.127 1.355-.946.458-2.023.806-3.055.806a.5.5 0 0 0-.5.5v5.62l.002.052c.154 1.5 1.563 4.714 5.814 6.476a.5.5 0 0 0 .373.005c.883-.344 2.214-1.056 3.379-2.095 1.162-1.037 2.21-2.446 2.415-4.184l.003-.059V3.192a.5.5 0 0 0-.542-.498c-.87.073-3.195-.214-5.09-2.033M3.008 8.898V3.78c1.068-.09 2.11-.457 2.99-.883a12 12 0 0 0 1.997-1.219c1.77 1.529 3.795 1.977 5 2.021v5.388c-.174 1.389-1.026 2.581-2.085 3.526a11 11 0 0 1-2.89 1.834c-3.736-1.623-4.884-4.42-5.012-5.551" clip-rule="evenodd"/></svg>