<svg xmlns="http://www.w3.org/2000/svg" width="16" height="16" fill="none" viewBox="0 0 16 16"><path fill="#444f5c" fill-rule="evenodd" d="M1.646 4.679a.5.5 0 0 1 .5-.5H5.46c.342.011.777.177 1.121.572.35.403.58 1.006.58 1.85 0 .855-.256 1.454-.66 1.83-.386.357-.851.46-1.194.437h-2.66v2.914a.5.5 0 1 1-1 0zm1 3.189h2.68l.043.002a.62.62 0 0 0 .45-.172c.15-.14.34-.443.34-1.096 0-.663-.176-1.014-.333-1.193-.157-.181-.326-.226-.394-.23H2.646z" clip-rule="evenodd"/><path fill="#444f5c" d="M7.72 4.727a.5.5 0 0 1 .5-.5h6.189a.5.5 0 1 1 0 1h-2.545v5.987a.5.5 0 1 1-1 0V5.227H8.22a.5.5 0 0 1-.5-.5"/></svg>