<svg xmlns="http://www.w3.org/2000/svg" width="16" height="16" fill="none" viewBox="0 0 16 16"><g fill="#444f5c" clip-path="url(#a)"><path d="M6.767 4.071a2.214 2.214 0 0 0 0 4.429h2.466a1.214 1.214 0 1 1 0 2.428h-3.29a.5.5 0 0 0 0 1H7.5v1.215a.5.5 0 0 0 1 0v-1.215h.733a2.214 2.214 0 1 0 0-4.428H6.767a1.214 1.214 0 0 1 0-2.429h3.29a.5.5 0 1 0 0-1H8.5V2.857a.5.5 0 0 0-1 0V4.07z"/><path fill-rule="evenodd" d="M16 8A8 8 0 1 1 0 8a8 8 0 0 1 16 0m-1 0A7 7 0 1 1 1 8a7 7 0 0 1 14 0" clip-rule="evenodd"/></g><defs><clipPath id="a"><path fill="#fff" d="M0 0h16v16H0z"/></clipPath></defs></svg>