<svg xmlns="http://www.w3.org/2000/svg" width="16" height="16" fill="none" viewBox="0 0 16 16"><path fill="#444f5c" fill-rule="evenodd" d="M8.314 1.084a.62.62 0 0 1 .856.572V8a.5.5 0 1 0 1 0V3.149a.62.62 0 1 1 1.24 0V8a.5.5 0 0 0 1 0V4.645a.645.645 0 1 1 1.29 0v6.167A4.19 4.19 0 0 1 9.512 15h-.918a4.54 4.54 0 0 1-3.989-2.368l-2.083-3.82a.745.745 0 0 1 1.189-.874l1.12 1.16a.5.5 0 0 0 .699.019.5.5 0 0 0 .164-.37V3.148a.62.62 0 0 1 1.237-.047v.047l.002.042V8a.5.5 0 0 0 1 0V3.149l-.002-.076V1.656a.62.62 0 0 1 .383-.572m-3.62 6.433V3.149a1.62 1.62 0 0 1 2.237-1.497 1.62 1.62 0 0 1 3.24 0 1.62 1.62 0 0 1 2.239 1.48 1.645 1.645 0 0 1 2.29 1.514v6.166A5.187 5.187 0 0 1 9.512 16h-.918a5.54 5.54 0 0 1-4.867-2.889l-2.083-3.82A1.745 1.745 0 0 1 4.43 7.244z" clip-rule="evenodd"/></svg>