<svg xmlns="http://www.w3.org/2000/svg" width="16" height="16" fill="none" viewBox="0 0 16 16"><path fill="#444f5c" fill-rule="evenodd" d="M7.967 4.497c-1.629 0-2.953 1.34-2.953 2.98 0 .736.282 1.454.854 2.2.459.604 1.053 1.155 1.618 1.657.122.114.28.174.437.182l.015.008h.035a.76.76 0 0 0 .416-.135l.005-.004a8.2 8.2 0 0 0 1.617-1.598c.59-.8.908-1.572.908-2.31 0-1.64-1.324-2.98-2.952-2.98m-1.984 2.98A1.99 1.99 0 0 1 7.956 5.48 1.99 1.99 0 0 1 9.93 7.478c0 .616-.376 1.263-.713 1.712a7 7 0 0 1-1.25 1.266c-.486-.436-.97-.902-1.333-1.376-.445-.583-.65-1.11-.65-1.602" clip-rule="evenodd"/><path fill="#444f5c" fill-rule="evenodd" d="M8.714.185a1.6 1.6 0 0 0-1.495 0L1.86 3.003A1.61 1.61 0 0 0 1 4.424v7.152c0 .596.33 1.144.859 1.421l5.36 2.819a1.6 1.6 0 0 0 1.495 0l5.36-2.819c.528-.277.86-.825.86-1.421V4.424c0-.596-.332-1.144-.86-1.421zm-1.025.893a.6.6 0 0 1 .555 0l5.36 2.818c.197.103.32.307.32.528v6.912c-.712-.521-1.412-.878-2.618-1.17l-.012-.003a.513.513 0 0 0-.598.375l-.002.01-.002.009a.513.513 0 0 0 .374.597l.005.001c1.097.275 1.687.575 2.33 1.056l-5.157 2.71a.6.6 0 0 1-.555 0l-5.13-2.696c.734-.481 1.446-.793 2.724-1.068l.012-.003a.513.513 0 0 0 .375-.597l-.002-.01-.002-.009a.513.513 0 0 0-.598-.375l-.008.002c-1.271.28-2.11.607-3.05 1.218V4.424c0-.221.122-.425.319-.528z" clip-rule="evenodd"/></svg>