<svg xmlns="http://www.w3.org/2000/svg" width="16" height="16" fill="none" viewBox="0 0 16 16"><path fill="#444f5c" fill-rule="evenodd" d="m10.378 1.331-8.533 8.836a.5.5 0 0 0-.14.294l-.274 2.185a.52.52 0 0 0 .142.428.48.48 0 0 0 .414.142l2.277-.335a.5.5 0 0 0 .279-.144l8.425-8.724a1.565 1.565 0 0 0 0-2.158l-.506-.524a1.44 1.44 0 0 0-2.084 0m-7.89 10.783.17-1.35 8.415-8.713a.48.48 0 0 1 .694 0l.506.523a.52.52 0 0 1 0 .72l-8.309 8.604z" clip-rule="evenodd"/><path fill="#444f5c" d="M8 12.5a.5.5 0 0 0 0 1h6a.5.5 0 0 0 0-1z"/></svg>