<svg xmlns="http://www.w3.org/2000/svg" width="32" height="32" fill="none" viewBox="0 0 32 32"><g fill="#444f5c" clip-path="url(#a)"><path d="M12.504 1.695C9.492 1.93 7.043 4.379 6.777 7.36c-.175 2.238.661 3.97 1.818 5.135 1.167 1.163 2.834 1.998 5.1 1.82 1.615-.119 2.927-.866 3.854-1.792.957-.92 1.58-2.211 1.849-3.814V7.307c-.24-1.644-.925-2.869-1.849-3.793-1.105-1.104-2.714-1.999-5.044-1.819zm-.027 4.741c0-.329.266-.57.537-.596.566-.063.865.416.984.837.384-.122.659-.298 1.014-.388-.15-.837-.747-1.256-1.522-1.463v-.599h-.775v.662c-1.522.06-2.002 2.028-1.074 2.949.564.57 2.119.631 2.239 1.286.178.805-.986 1.074-1.493.537-.181-.21-.15-.418-.27-.688-.387.092-.746.238-1.163.299.208.955.807 1.521 1.762 1.728v.778h.775c.028-.267-.06-.659.028-.864 1.763-.036 2.152-2.241 1.166-3.103-.628-.538-2.239-.63-2.208-1.375m1.429 6.533c-3.073.512-6.087-1.877-5.816-5.487.089-.955.476-1.668.744-2.118.718-1.137 1.852-2.117 3.67-2.331 1.464-.148 2.656.269 3.461.839 1.076.748 2.002 1.969 2.116 3.584.273 3.039-1.786 5.128-4.175 5.513m.153 5.47a.545.545 0 1 1 1.092 0v2.026a.545.545 0 1 1-1.092 0z"/><path d="M1.85 20.244q-.755.348-.755.778v2.444c0 1.779 1.4 3.222 3.126 3.222h2.087c.972 4.263 5.374 2.399 5.168 0h9.502c.467 3.807 5.011 2.958 5.011 0h4.307a.6.6 0 0 0 .223-.043.636.636 0 0 0 .346-.816l-1.381-3.635a1.78 1.78 0 0 0-1.321-1.123l-5.021-.676a2.8 2.8 0 0 1-1.043-.431l-2.9-1.96a7.4 7.4 0 0 0-4.119-1.279l-4.919-.026a5.13 5.13 0 0 0-3.688 1.55l-1.466 1.493a1.66 1.66 0 0 1-1.187.502H1.847zm21.906 10.069c-1.665.148-3.091-.814-3.652-2.533h-7.675c-.392 1.232-1.533 2.214-2.887 2.478-1.747.34-3.306-.572-4.042-2.478H4.22c-2.337 0-4.218-1.939-4.218-4.314v-2.444c0-.82.541-1.378 1.389-1.769l.218-.101h2.213c.15 0 .296-.062.408-.175l1.466-1.493a6.23 6.23 0 0 1 4.473-1.877l4.919.026a8.5 8.5 0 0 1 4.725 1.467l2.9 1.96c.193.131.409.22.577.253l5.078.686a2.87 2.87 0 0 1 2.138 1.808l1.381 3.635a1.73 1.73 0 0 1-.958 2.216 1.7 1.7 0 0 1-.631.123h-3.376c-.431 1.409-1.681 2.401-3.165 2.533z"/><path d="M23.484 29.23c1.384 0 2.506-1.156 2.506-2.583s-1.122-2.583-2.506-2.583-2.506 1.156-2.506 2.583 1.122 2.583 2.506 2.583m0 .989c-1.937 0-3.495-1.606-3.495-3.572s1.558-3.572 3.495-3.572 3.495 1.606 3.495 3.572-1.558 3.572-3.495 3.572M8.922 29.23c1.384 0 2.506-1.156 2.506-2.583s-1.122-2.583-2.506-2.583-2.506 1.156-2.506 2.583 1.122 2.583 2.506 2.583m0 .989c-1.937 0-3.495-1.606-3.495-3.572s1.558-3.572 3.495-3.572 3.495 1.606 3.495 3.572-1.558 3.572-3.495 3.572M.546 23.467a.545.545 0 1 1 0-1.092h2.546a.545.545 0 1 1 0 1.092zm26.939 0a.545.545 0 1 1 0-1.092h2.546a.545.545 0 1 1 0 1.092zM6.371 21.283a.545.545 0 1 1 0-1.092h17.108a.545.545 0 1 1 0 1.092z"/><path d="M8.213 20.683a.546.546 0 0 1-.772-.772l2.376-2.376a.546.546 0 0 1 .772.772z"/></g><defs><clipPath id="a"><path fill="#fff" d="M0 0h32v32H0z"/></clipPath></defs></svg>