<svg xmlns="http://www.w3.org/2000/svg" width="16" height="16" fill="none" viewBox="0 0 16 16"><path fill="#444f5c" fill-rule="evenodd" d="M11 1.02a1.5 1.5 0 0 0-1.5 1.5v3.546a1.5 1.5 0 0 0 1.5 1.5h.75V10a.5.5 0 0 0 1 0V7.566h.75a1.5 1.5 0 0 0 1.5-1.5V2.52a1.5 1.5 0 0 0-1.5-1.5zm-.5 1.5a.5.5 0 0 1 .5-.5h2.5a.5.5 0 0 1 .5.5v3.546a.5.5 0 0 1-.5.5H11a.5.5 0 0 1-.5-.5zm1.052.104a.5.5 0 1 0 .004 1l1.392-.006a.5.5 0 1 0-.004-1zM4.515 3.787a.5.5 0 0 1 .453-.287h1.72a.5.5 0 1 0 0-1h-1.72a1.5 1.5 0 0 0-1.357.86L1.683 7.45h-.85a.5.5 0 1 0 0 1H1.5V14a.5.5 0 0 0 1 0v-1.15h11V14a.5.5 0 0 0 1 0v-1.65a.5.5 0 0 0-.5-.5H2.5V10.1h1.833a.5.5 0 0 0 0-1H2.5V8.062z" clip-rule="evenodd"/></svg>