<svg xmlns="http://www.w3.org/2000/svg" width="16" height="16" fill="none" viewBox="0 0 16 16"><g clip-path="url(#a)"><path fill="#444f5c" d="M11.557-.004c.567 0 1.026.459 1.026 1.026v9.645h2.08l.077.004c.326.038.58.315.58.652v2.696l-.004.121a1.984 1.984 0 0 1-1.98 1.863l-.121-.004-.016-.001v.005H2.528a1.847 1.847 0 0 1-1.847-1.847V1.022c0-.567.459-1.026 1.026-1.026zm2.531 11.903h-1.505v2.121l.004.082a.753.753 0 0 0 1.5-.081V11.9zm-7.867 0H4.169a.616.616 0 0 0 0 1.232h2.052a.616.616 0 0 0 0-1.232m7.867-.575v.575h.575a.574.574 0 0 1-.575-.575M7.863 9.847H4.169a.616.616 0 0 0 0 1.232h3.694a.616.616 0 0 0 0-1.232M4.889 2.84a.38.38 0 0 0-.383.383v.259c-.491.102-.862.54-.862 1.063 0 .619.536 1.085 1.246 1.085.228 0 .42.146.42.319 0 .17-.158.319-.338.319-.141 0-.494-.052-.842-.19a.383.383 0 0 0-.283.711c.222.088.453.151.659.191v.226a.382.382 0 1 0 .766 0v-.214c.175-.049.337-.141.472-.271.214-.207.333-.481.333-.772 0-.598-.532-1.085-1.186-1.085-.278 0-.48-.134-.48-.319 0-.176.142-.319.316-.319.176 0 .405.019.77.161a.383.383 0 0 0 .278-.714 3.4 3.4 0 0 0-.502-.154v-.295a.38.38 0 0 0-.383-.383z"/></g><defs><clipPath id="a"><path fill="#fff" d="M0 0h16v16H0z"/></clipPath></defs></svg>