<svg xmlns="http://www.w3.org/2000/svg" width="16" height="16" fill="none" viewBox="0 0 16 16"><g fill="#444f5c" clip-path="url(#a)"><path d="M1 5.5A.5.5 0 0 1 .5 5V2A1.5 1.5 0 0 1 2 .5h3a.5.5 0 0 1 0 1H2a.5.5 0 0 0-.5.5v3a.5.5 0 0 1-.5.5m14 5a.5.5 0 0 1 .5.5v3a1.5 1.5 0 0 1-1.5 1.5h-3a.5.5 0 0 1 0-1h3a.5.5 0 0 0 .5-.5v-3a.5.5 0 0 1 .5-.5"/><path fill-rule="evenodd" d="M3 4a1 1 0 0 1 1-1h8a1 1 0 0 1 1 1v8a1 1 0 0 1-1 1H4a1 1 0 0 1-1-1zm1 0h8v8H4z" clip-rule="evenodd"/></g><defs><clipPath id="a"><path fill="#fff" d="M0 0h16v16H0z"/></clipPath></defs></svg>