<svg xmlns="http://www.w3.org/2000/svg" width="16" height="16" fill="none" viewBox="0 0 16 16"><path fill="#444f5c" d="M2.5 2a.5.5 0 0 1 .5-.5h10a.5.5 0 0 1 .5.5v5a.5.5 0 0 0 1 0V2A1.5 1.5 0 0 0 13 .5H3A1.5 1.5 0 0 0 1.5 2v12A1.5 1.5 0 0 0 3 15.5h5a.5.5 0 0 0 0-1H3a.5.5 0 0 1-.5-.5z"/><path fill="#444f5c" fill-rule="evenodd" d="M5 2.5a.5.5 0 0 0-.5.5v3a.5.5 0 0 0 1 0v-.874L6.634 6.34a.5.5 0 0 0 .732-.682l-.686-.735A1.25 1.25 0 0 0 6.25 2.5zM5.6 4a.5.5 0 0 0-.1.01V3.5h.75a.25.25 0 0 1 0 .5zm2.9 0a1.5 1.5 0 1 1 3 0v1a1.5 1.5 0 0 1-3 0zm1.5-.5a.5.5 0 0 0-.5.5v1a.5.5 0 0 0 1 0V4a.5.5 0 0 0-.5-.5" clip-rule="evenodd"/><path fill="#444f5c" d="M10.915 10.795a2.328 2.328 0 1 1-.482 2.778.5.5 0 1 0-.888.46 3.328 3.328 0 1 0 .66-3.945v-.985a.5.5 0 1 0-1 0v2.192a.5.5 0 0 0 .5.5h2.411a.5.5 0 1 0 0-1zM4 9a.5.5 0 0 1 .5-.5H6a.5.5 0 0 1 0 1H4.5A.5.5 0 0 1 4 9m.5 2.5a.5.5 0 0 0 0 1H6a.5.5 0 0 0 0-1z"/></svg>