<svg xmlns="http://www.w3.org/2000/svg" width="16" height="16" fill="none" viewBox="0 0 16 16"><path fill="#444f5c" fill-rule="evenodd" d="M8 2.583a1.5 1.5 0 0 0-1.5 1.5v7.854a1.5 1.5 0 0 0 1.5 1.5h5.112a1.5 1.5 0 0 0 1.5-1.5V4.083a1.5 1.5 0 0 0-1.5-1.5zm-.5 1.5a.5.5 0 0 1 .5-.5h5.112a.5.5 0 0 1 .5.5v7.854a.5.5 0 0 1-.5.5H8a.5.5 0 0 1-.5-.5z" clip-rule="evenodd"/><path fill="#444f5c" d="M1.515 4.668a.5.5 0 0 0 0 1h2.917a.5.5 0 1 0 0-1zm-.5 3.165a.5.5 0 0 1 .5-.5h2.917a.5.5 0 1 1 0 1H1.515a.5.5 0 0 1-.5-.5m.5 2.208a.5.5 0 0 0 0 1h2.917a.5.5 0 1 0 0-1z"/></svg>