<svg xmlns="http://www.w3.org/2000/svg" width="16" height="16" fill="none" viewBox="0 0 16 16"><path fill="#444f5c" d="M4.929 5.5c0-.482.278-.97.832-1.358C6.314 3.755 7.104 3.5 8 3.5s1.686.255 2.239.642c.554.388.832.876.832 1.358a.5.5 0 1 0 1 0c0-.898-.52-1.66-1.259-2.177C10.072 2.805 9.076 2.5 8 2.5s-2.072.305-2.812.823c-.739.517-1.26 1.279-1.26 2.177s.521 1.66 1.26 2.177c.735.515 1.723.819 2.791.823H8c.897 0 1.687.255 2.24.642.554.388.832.876.832 1.358s-.278.97-.832 1.358c-.553.387-1.343.642-2.24.642-.895 0-1.685-.255-2.238-.642-.554-.388-.833-.876-.833-1.358a.5.5 0 0 0-1 0c0 .898.521 1.66 1.26 2.177.74.518 1.736.823 2.812.823s2.072-.305 2.812-.823c.739-.516 1.26-1.279 1.26-2.177s-.521-1.66-1.26-2.177c-.735-.515-1.723-.819-2.791-.823H8c-.896 0-1.686-.255-2.239-.642-.554-.388-.832-.876-.832-1.358"/></svg>