<svg xmlns="http://www.w3.org/2000/svg" width="16" height="16" fill="none" viewBox="0 0 16 16"><g fill="#444f5c" clip-path="url(#a)"><path d="M4.77 11.926c.404-.581 1.318-1.38 2.472-1.628 1.106-.236 2.52.015 4.028 1.678a.5.5 0 0 0 .741-.672C10.295 9.412 8.531 9 7.033 9.321c-1.45.31-2.565 1.288-3.084 2.034a.5.5 0 0 0 .82.57"/><path fill-rule="evenodd" d="M8 .219A7.781 7.781 0 1 0 8 15.78 7.781 7.781 0 0 0 8 .22M1.219 8A6.781 6.781 0 1 1 14.78 8 6.781 6.781 0 0 1 1.22 8" clip-rule="evenodd"/></g><defs><clipPath id="a"><path fill="#fff" d="M0 0h16v16H0z"/></clipPath></defs></svg>