<svg xmlns="http://www.w3.org/2000/svg" width="16" height="16" fill="none" viewBox="0 0 16 16"><path fill="#444f5c" fill-rule="evenodd" d="M3 1a1 1 0 0 0-1 1v3a1 1 0 0 0 1 1h4.5v1.5h-3A1.5 1.5 0 0 0 3 9v1H2a1 1 0 0 0-1 1v3a1 1 0 0 0 1 1h3a1 1 0 0 0 1-1v-3a1 1 0 0 0-1-1H4V9a.5.5 0 0 1 .5-.5h7a.5.5 0 0 1 .5.5v1h-1a1 1 0 0 0-1 1v3a1 1 0 0 0 1 1h3a1 1 0 0 0 1-1v-3a1 1 0 0 0-1-1h-1V9a1.5 1.5 0 0 0-1.5-1.5h-3V6H13a1 1 0 0 0 1-1V2a1 1 0 0 0-1-1zm10 1H3v3h10zM2 11v3h3v-3zm9 3v-3h3v3z" clip-rule="evenodd"/></svg>