<svg xmlns="http://www.w3.org/2000/svg" width="16" height="16" fill="none" viewBox="0 0 16 16"><path fill="#444f5c" d="M2.516 2.018a.5.5 0 0 0-.5.5v2.478a.5.5 0 1 1-1 0V2.518a1.5 1.5 0 0 1 1.5-1.5h2.436a.5.5 0 0 1 0 1zm10.976 0a.5.5 0 0 1 .5.5v2.478a.5.5 0 0 0 1 0V2.518a1.5 1.5 0 0 0-1.5-1.5h-2.436a.5.5 0 0 0 0 1zM2.012 13.467a.5.5 0 0 0 .5.5h2.436a.5.5 0 0 1 0 1H2.512a1.5 1.5 0 0 1-1.5-1.5v-2.478a.5.5 0 1 1 1 0zm11.476.5a.5.5 0 0 0 .5-.5v-2.478a.5.5 0 1 1 1 0v2.478a1.5 1.5 0 0 1-1.5 1.5h-2.436a.5.5 0 0 1 0-1zM2.035 7.465a.5.5 0 1 0 0 1h11.942a.5.5 0 1 0 0-1z"/></svg>