<svg xmlns="http://www.w3.org/2000/svg" width="16" height="16" fill="none" viewBox="0 0 16 16"><path fill="#444f5c" d="M11.417 8a.5.5 0 0 1 .5.5v1.219h.883a.5.5 0 0 1 0 1h-1.383a.5.5 0 0 1-.5-.5v-1.72a.5.5 0 0 1 .5-.5"/><path fill="#444f5c" fill-rule="evenodd" d="M7.502 11.2.778 14.83a.5.5 0 0 1-.708-.611l2.262-6.22L.072 1.78a.5.5 0 0 1 .706-.611l8.855 4.776a4.278 4.278 0 1 1-2.13 5.255m1.196-4.622L1.46 2.674l1.754 4.825h2.02a.5.5 0 0 1 0 1h-2.02l-1.755 4.826 5.82-3.14a4.27 4.27 0 0 1 1.419-3.607m2.84-.078a3.278 3.278 0 1 0 0 6.555 3.278 3.278 0 0 0 0-6.555" clip-rule="evenodd"/></svg>