<svg xmlns="http://www.w3.org/2000/svg" width="16" height="16" fill="none" viewBox="0 0 16 16"><path fill="#444f5c" d="M2.497 3.993a.5.5 0 0 1 .5-.5H13a.5.5 0 0 1 .5.5v8.002a.5.5 0 0 1-.5.5h-2.998a.5.5 0 1 0 0 1H13a1.5 1.5 0 0 0 1.5-1.5V3.993a1.5 1.5 0 0 0-1.5-1.5H2.997a1.5 1.5 0 0 0-1.5 1.5v.978a.5.5 0 0 0 1 0z"/><path fill="#444f5c" d="M1.5 8a.5.5 0 0 1 .5-.5A5.5 5.5 0 0 1 7.5 13a.5.5 0 0 1-1 0A4.5 4.5 0 0 0 2 8.5a.5.5 0 0 1-.5-.5"/><path fill="#444f5c" d="M2 9.5a.5.5 0 0 0 0 1A2.5 2.5 0 0 1 4.5 13a.5.5 0 0 0 1 0A3.5 3.5 0 0 0 2 9.5"/><path fill="#444f5c" d="M2 11.5a.5.5 0 0 0 0 1 .5.5 0 0 1 .5.5.5.5 0 0 0 1 0A1.5 1.5 0 0 0 2 11.5"/></svg>