<svg xmlns="http://www.w3.org/2000/svg" width="16" height="16" fill="none" viewBox="0 0 16 16"><g fill="#444f5c" clip-path="url(#a)"><path fill-rule="evenodd" d="M8 2.5a.5.5 0 0 1 .5.5v.588c.43.073.828.24 1.173.477l.421-.42a.5.5 0 1 1 .707.706l-.411.412c.263.362.447.786.523 1.247h.587a.5.5 0 0 1 0 1h-.59a2.95 2.95 0 0 1-.48 1.17l.42.42a.5.5 0 0 1-.708.708l-.413-.413c-.357.259-.776.44-1.229.517V10a.5.5 0 0 1-1 0v-.588a2.9 2.9 0 0 1-1.173-.477l-.42.42a.5.5 0 0 1-.708-.707l.411-.41a2.94 2.94 0 0 1-.524-1.248H4.5a.5.5 0 0 1 0-1h.59a2.9 2.9 0 0 1 .48-1.17l-.42-.42a.5.5 0 1 1 .708-.708l.412.413c.358-.259.776-.44 1.23-.517V3a.5.5 0 0 1 .5-.5m0 2.046a1.954 1.954 0 1 0 0 3.908 1.954 1.954 0 0 0 0-3.908" clip-rule="evenodd"/><path d="M5 11.5a.5.5 0 0 0 0 1h6a.5.5 0 1 0 0-1z"/><path fill-rule="evenodd" d="M1.5 2A1.5 1.5 0 0 1 3 .5h10A1.5 1.5 0 0 1 14.5 2v12a1.5 1.5 0 0 1-1.5 1.5H3A1.5 1.5 0 0 1 1.5 14zM3 1.5a.5.5 0 0 0-.5.5v12a.5.5 0 0 0 .5.5h10a.5.5 0 0 0 .5-.5V2a.5.5 0 0 0-.5-.5z" clip-rule="evenodd"/></g><defs><clipPath id="a"><path fill="#fff" d="M0 0h16v16H0z"/></clipPath></defs></svg>