<svg xmlns="http://www.w3.org/2000/svg" width="16" height="16" fill="none" viewBox="0 0 16 16"><g clip-path="url(#a)"><path fill="#444f5c" d="M12.29 10.417c.292 0 .573-.11.78-.306s.323-.461.323-.738v-.438a1.03 1.03 0 0 0-.432-.82 1.15 1.15 0 0 0-.95-.182l-1.765.438c-.534.134-.881.623-.81 1.142.071.52.538.91 1.091.91zm-6.299 3.438c-.001.781-.669 1.415-1.495 1.417h-.942a1.56 1.56 0 0 1-1.067-.412 1.4 1.4 0 0 1-.445-1.005V8.042a1.7 1.7 0 0 0-.64-1.318C.501 5.993-.013 4.922 0 3.798S.549 1.614 1.466.9a.75.75 0 0 1 .466-.167c.411.007.74.324.74.713v1.592c0 .37.316.668.706.668h1.271c.187 0 .367-.07.499-.196a.65.65 0 0 0 .207-.472V1.44c0-.394.337-.713.754-.713a.75.75 0 0 1 .466.167q.295.229.535.501l-.174-.001c.923-.004 1.845.06 2.757.191.706.111 1.739.367 2.457 1.301.387.501.93 1.625 1.262 2.348.276-.157.594-.242.919-.249h.372c.712.001 1.291.519 1.298 1.16v.637c-.013.596-.505 1.094-1.16 1.174a3.7 3.7 0 0 1 .529 1.983v4.146c-.001.655-.59 1.186-1.317 1.187h-1.255c-.727 0-1.315-.532-1.317-1.187v-.334h-5.49v.105M7.568 2.04l.082.152a3.6 3.6 0 0 1 .395 1.605c.012 1.125-.503 2.198-1.406 2.93a1.7 1.7 0 0 0-.646 1.317v5.071l5.843.001c.094 0 .183.034.25.093a.3.3 0 0 1 .103.225v.653c0 .304.274.551.611.551h1.246c.337 0 .61-.247.61-.55V9.931a3.08 3.08 0 0 0-.734-2.086.29.29 0 0 1-.033-.333.36.36 0 0 1 .316-.176h.466c.345-.006.623-.26.625-.57v-.6c0-.298-.266-.54-.596-.543h-.353c-.316.017-.614.14-.834.346a.38.38 0 0 1-.317.078.34.34 0 0 1-.251-.19c-.549-1.231-1.071-2.229-1.362-2.607-.567-.738-1.405-.942-1.998-1.038A18 18 0 0 0 7.57 2.04zm4.724 6.521a.387.387 0 0 1 .396.376v.438a.39.39 0 0 1-.397.376h-1.765a.387.387 0 0 1-.397-.376.38.38 0 0 1 .296-.363l1.765-.438a.4.4 0 0 1 .102-.013M1.909 1.408A3.07 3.07 0 0 0 .696 3.835c0 .917.424 1.788 1.161 2.385.565.455.891 1.121.891 1.823v5.813c.001.414.355.75.793.75h.951c.437-.002.791-.337.792-.75V8.043a2.35 2.35 0 0 1 .913-1.832 3.07 3.07 0 0 0 1.161-2.416c-.01-.928-.454-1.804-1.23-2.393-.026.001-.047.021-.048.045v1.605a1.3 1.3 0 0 1-.414.945 1.45 1.45 0 0 1-.998.391H3.384a1.45 1.45 0 0 1-.998-.39 1.3 1.3 0 0 1-.414-.946V1.454c-.001-.024-.021-.044-.065-.045zm1.758 11.92V7.944c0-.185.706-.185.706 0v5.384c0 .184-.706.184-.706 0"/></g><defs><clipPath id="a"><path fill="#fff" d="M0 0h16v16H0z"/></clipPath></defs></svg>