<svg xmlns="http://www.w3.org/2000/svg" width="16" height="16" fill="none" viewBox="0 0 16 16"><path fill="#444f5c" fill-rule="evenodd" d="M9.221 1.306a1.324 1.324 0 0 0-2.433-.01l-.18.414c-.359.822-1.294 1.188-2.074.86l-.43-.167a1.317 1.317 0 0 0-1.7 1.715l.165.415c.298.802-.065 1.7-.875 2.082l-.388.164a1.324 1.324 0 0 0-.01 2.433l.414.18c.822.36 1.188 1.295.86 2.074l-.167.429a1.317 1.317 0 0 0 1.715 1.702l.415-.166c.802-.298 1.7.064 2.082.875l.164.388a1.324 1.324 0 0 0 2.434.01l.179-.414c.36-.822 1.295-1.188 2.074-.86l.434.169a1.31 1.31 0 0 0 1.401-.294l.3-.3a.67.67 0 0 0 .148-.717l-.318-.795-.014-.033a1.62 1.62 0 0 1-.037-1.1l.159-.3c.18-.3.448-.537.76-.67l.395-.168a1.324 1.324 0 0 0 .01-2.433l-.415-.18a.5.5 0 0 0-.397.918l.414.18a.324.324 0 0 1-.002.594l-.396.168-.002.001c-.52.223-.949.611-1.233 1.09l-.007.01-.178.338a1 1 0 0 0-.054.128 2.62 2.62 0 0 0 .073 1.839l.004.01.227.569-.144.144a.31.31 0 0 1-.33.07l-.417-.163c-1.295-.54-2.8.076-3.372 1.385v.002l-.18.414a.324.324 0 0 1-.595-.002l-.171-.405-.004-.007c-.596-1.28-2.041-1.885-3.347-1.396l-.431.172a.317.317 0 0 1-.413-.41l.16-.41c.541-1.296-.076-2.8-1.384-3.373h-.002l-.414-.18a.324.324 0 0 1 .002-.595l.405-.172.007-.003c1.28-.597 1.885-2.041 1.396-3.348l-.172-.43a.317.317 0 0 1 .41-.413l.41.16c1.296.542 2.801-.075 3.373-1.384l.18-.416a.324.324 0 0 1 .596.003l.168.396a.5.5 0 1 0 .92-.39zm3.246 10.373" clip-rule="evenodd"/><path fill="#444f5c" fill-rule="evenodd" d="M14.147 1.853a1.5 1.5 0 0 0-2.122 0L7 6.88a.5.5 0 0 0-.137.255L6.51 8.902a.5.5 0 0 0 .588.588l1.768-.353A.5.5 0 0 0 9.12 9l5.026-5.026a1.5 1.5 0 0 0 0-2.12m-1.415.707a.5.5 0 1 1 .708.707L8.52 8.186l-.884.177.177-.884z" clip-rule="evenodd"/></svg>