<svg xmlns="http://www.w3.org/2000/svg" width="16" height="16" fill="none" viewBox="0 0 16 16"><g fill="#444f5c" fill-rule="evenodd" clip-path="url(#a)" clip-rule="evenodd"><path d="M8 4.308a3.692 3.692 0 1 0 0 7.384 3.692 3.692 0 0 0 0-7.384M5.308 8a2.692 2.692 0 1 1 5.384 0 2.692 2.692 0 0 1-5.384 0"/><path d="M7.999.03c-.549 0-1.044.327-1.26.83l-.19.44c-.387.846-1.357 1.257-2.273.928l-.418-.17a1.379 1.379 0 0 0-1.8 1.786l.178.448c.355.908-.082 1.91-.936 2.257l-.449.197a1.372 1.372 0 0 0 .01 2.517l.439.188c.846.388 1.257 1.358.928 2.274l-.17.418a1.379 1.379 0 0 0 1.786 1.8l.448-.178c.908-.355 1.91.082 2.257.935l.197.449a1.371 1.371 0 0 0 2.517-.01l.188-.439c.388-.846 1.358-1.257 2.274-.928l.418.17a1.38 1.38 0 0 0 1.8-1.786l-.178-.448c-.355-.908.082-1.91.935-2.257l.454-.2c.495-.217.816-.707.816-1.248V7.55a.68.68 0 0 0-.41-.621l-.84-.36-.033-.014a1.77 1.77 0 0 1-.878-.821l-.107-.35a1.8 1.8 0 0 1 .069-1.101l.171-.425a1.379 1.379 0 0 0-1.785-1.8l-.448.178c-.908.355-1.91-.082-2.257-.936L9.255.851a1.37 1.37 0 0 0-1.256-.82m-.342 1.225a.372.372 0 0 1 .682-.002l.19.431c.561 1.37 2.143 2.032 3.546 1.483h.001l.448-.178a.379.379 0 0 1 .491.494l-.172.426v.002a2.8 2.8 0 0 0-.108 1.732l.003.012.12.389q.019.064.054.131a2.77 2.77 0 0 0 1.425 1.317l.012.005.62.267v.239a.36.36 0 0 1-.217.333l-.437.191c-1.367.562-2.03 2.144-1.48 3.547v.001l.177.448a.379.379 0 0 1-.495.49l-.433-.175-.009-.002c-1.399-.51-2.927.116-3.536 1.455l-.195.454a.372.372 0 0 1-.682.002l-.19-.431c-.562-1.368-2.143-2.03-3.546-1.482h-.001l-.448.178a.379.379 0 0 1-.491-.495l.175-.433.003-.009c.51-1.399-.116-2.927-1.455-3.536l-.454-.195a.372.372 0 0 1-.002-.682l.431-.19c1.37-.561 2.032-2.143 1.483-3.546l-.178-.45a.379.379 0 0 1 .494-.49l.434.175.009.003c1.399.51 2.927-.116 3.536-1.455z"/></g><defs><clipPath id="a"><path fill="#fff" d="M0 0h16v16H0z"/></clipPath></defs></svg>