<svg xmlns="http://www.w3.org/2000/svg" width="16" height="16" fill="none" viewBox="0 0 16 16"><g fill="#444f5c" clip-path="url(#a)"><path d="M6.803 6.036a.5.5 0 0 1-.014.707l-.085.088a.5.5 0 0 1-.742-.67 3 3 0 0 1 .134-.138.5.5 0 0 1 .707.013m.548-.242a.5.5 0 0 1 .466-.533l.096-.004a.5.5 0 1 1 .032 1l-.061.002a.5.5 0 0 1-.533-.465m-1.578 1.63a.5.5 0 0 1 .483.516v.123a.5.5 0 0 1-1 .035 3 3 0 0 1 0-.192.5.5 0 0 1 .517-.482M6 9.136a.5.5 0 0 1 .706.035l.085.088a.5.5 0 1 1-.692.721 3 3 0 0 1-.134-.138A.5.5 0 0 1 6 9.136m1.355 1.072a.5.5 0 0 1 .531-.467q.03.003.061.003a.5.5 0 1 1-.03 1l-.096-.005a.5.5 0 0 1-.466-.531M9.586 5.76a.5.5 0 1 0-.578.816 1.745 1.745 0 0 1-.017 2.86.5.5 0 0 0 .567.823 2.745 2.745 0 0 0 .028-4.499"/><path fill-rule="evenodd" d="M6.738.86A1.372 1.372 0 0 1 9.255.852l.197.45c.348.853 1.349 1.29 2.257.935l.448-.177a1.379 1.379 0 0 1 1.785 1.8l-.171.424a1.8 1.8 0 0 0-.07 1.102l.108.349a1.77 1.77 0 0 0 .912.834l.84.36a.68.68 0 0 1 .409.622v.453c0 .541-.32 1.031-.816 1.248l-.454.2c-.853.348-1.29 1.349-.935 2.257l.177.448a1.379 1.379 0 0 1-1.8 1.785l-.416-.169c-.917-.33-1.887.082-2.275.928l-.188.44a1.372 1.372 0 0 1-2.517.009l-.197-.45c-.348-.852-1.349-1.29-2.257-.934l-.448.177a1.38 1.38 0 0 1-1.785-1.8l.169-.417c.33-.916-.082-1.886-.928-2.274l-.44-.188a1.372 1.372 0 0 1-.009-2.517l.45-.197c.853-.348 1.29-1.349.935-2.257l-.177-.448a1.379 1.379 0 0 1 1.8-1.785l.417.169c.916.33 1.886-.082 2.274-.928zM8 1.03a.37.37 0 0 0-.342.225l-.195.454c-.609 1.339-2.137 1.965-3.536 1.455l-.008-.003-.434-.175a.379.379 0 0 0-.495.49l.178.45c.549 1.403-.114 2.985-1.483 3.547l-.431.19a.372.372 0 0 0 .002.68l.454.196c1.339.609 1.965 2.137 1.455 3.536l-.002.009-.176.434a.38.38 0 0 0 .49.494l.449-.177h.001c1.403-.55 2.985.113 3.547 1.48l.19.432a.372.372 0 0 0 .681-.002l.195-.454c.609-1.339 2.137-1.965 3.537-1.456l.008.003.434.176a.379.379 0 0 0 .494-.49l-.177-.449v-.001c-.55-1.403.113-2.985 1.48-3.547l.437-.191a.36.36 0 0 0 .218-.333v-.24l-.621-.266-.012-.005a2.77 2.77 0 0 1-1.425-1.317 1 1 0 0 1-.054-.131l-.12-.39-.002-.011a2.8 2.8 0 0 1 .106-1.732l.001-.002.172-.426a.379.379 0 0 0-.49-.494l-.449.177h-.001c-1.403.55-2.984-.113-3.547-1.482l-.189-.431A.37.37 0 0 0 8 1.03" clip-rule="evenodd"/></g><defs><clipPath id="a"><path fill="#fff" d="M0 0h16v16H0z"/></clipPath></defs></svg>