<svg xmlns="http://www.w3.org/2000/svg" width="16" height="16" fill="none" viewBox="0 0 16 16"><path fill="#444f5c" d="M11.132 7.538a.923.923 0 1 0-1.846 0v2.671h1.846z"/><path fill="#444f5c" d="M13.539 3.741v1.243l-.323 6.903a.74.74 0 0 1-.5.705v.414a.99.99 0 0 1-1 .994c-.556 0-1-.442-1-.994v-.373H5.214v.373a.99.99 0 0 1-1 .994c-.556 0-1-.442-1-.994v-.414a.76.76 0 0 1-.5-.705l-.25-8.146c0-.414.292-.898.667-1.077 0 0 1.584-.663 4.835-.663s4.908.663 4.908.663c.361.18.667.663.667 1.077zM3.717 11c0 .345.278.622.625.622A.63.63 0 0 0 4.967 11a.62.62 0 0 0-.625-.622.62.62 0 0 0-.625.622m7.911.622a.62.62 0 1 1 0-1.244.62.62 0 1 1 0 1.244m.412-2.765c.139 0 .25-.111.25-.249l.323-4.39a.25.25 0 0 0-.25-.249H3.787a.25.25 0 0 0-.25.249l.25 4.39c0 .138.111.249.25.249z"/></svg>