<svg xmlns="http://www.w3.org/2000/svg" width="16" height="16" fill="none" viewBox="0 0 16 16"><g fill="#444f5c" clip-path="url(#a)"><path d="M2.712 11.111a.5.5 0 0 1 .5-.5h1.14a.5.5 0 0 1 0 1h-1.14a.5.5 0 0 1-.5-.5m8.985-.5a.5.5 0 0 0 0 1h1.139a.5.5 0 1 0 0-1z"/><path fill-rule="evenodd" d="M2 .5A1.5 1.5 0 0 0 .5 2v10a1.5 1.5 0 0 0 1 1.415V15a.5.5 0 0 0 1 0v-1.5h11V15a.5.5 0 0 0 1 0v-1.585a1.5 1.5 0 0 0 1-1.415V2A1.5 1.5 0 0 0 14 .5zM1.5 2a.5.5 0 0 1 .5-.5h12a.5.5 0 0 1 .5.5v5.102a7.6 7.6 0 0 1-3.126.676H4.895A9 9 0 0 1 1.5 7.112zm0 6.183V12a.5.5 0 0 0 .5.5h12a.5.5 0 0 0 .5-.5V8.187a8.6 8.6 0 0 1-3.126.591H4.895A10 10 0 0 1 1.5 8.183" clip-rule="evenodd"/></g><defs><clipPath id="a"><path fill="#fff" d="M0 0h16v16H0z"/></clipPath></defs></svg>