<svg xmlns="http://www.w3.org/2000/svg" width="16" height="16" fill="none" viewBox="0 0 16 16"><g clip-path="url(#a)"><path fill="#444f5c" d="M10.854.646a.5.5 0 1 0-.707.708l.625.626q-.173.093-.445.17c-.413.113-.935.167-1.509.175-1.146.016-2.41-.153-3.22-.315a.5.5 0 0 0-.575.34l-2.5 8a.5.5 0 1 0 .954.3l2.368-7.578c.837.142 1.947.268 2.987.253.617-.009 1.233-.067 1.76-.212a2.8 2.8 0 0 0 .905-.409l1.924 1.924c-.219.615-.425 1.332-.482 2.214-.06.923.043 2.005.435 3.333L4.807 12.9l5.047-5.046a.5.5 0 0 0-.708-.708l-6.5 6.5a.5.5 0 0 0 .506.83l11-3.5a.5.5 0 0 0 .322-.634c-.482-1.448-.595-2.55-.537-3.434a6.5 6.5 0 0 1 .275-1.489l.434.435a.5.5 0 1 0 .708-.708z"/></g><defs><clipPath id="a"><path fill="#fff" d="M0 0h16v16H0z"/></clipPath></defs></svg>