<svg xmlns="http://www.w3.org/2000/svg" width="16" height="16" fill="none" viewBox="0 0 16 16"><g fill="#444f5c" clip-path="url(#a)"><path fill-rule="evenodd" d="M11.63.365a1.485 1.485 0 0 0-1.898 1L7.519 9.11a.5.5 0 0 0 .034.361l.624 1.248a.5.5 0 0 0 .67.224l1.248-.624a.5.5 0 0 0 .257-.31l2.237-7.827A1.485 1.485 0 0 0 11.63.365m-.937 1.276a.486.486 0 0 1 .934.266L9.451 9.523l-.604.302-.313-.627z" clip-rule="evenodd"/><path d="M1.514 4.757a.5.5 0 0 0-.5.5v9.23a.5.5 0 0 0 .5.5h12.972a.5.5 0 0 0 .5-.5v-9.23a.5.5 0 0 0-.5-.5h-.871a.5.5 0 0 1 0-1h.871a1.5 1.5 0 0 1 1.5 1.5v9.23a1.5 1.5 0 0 1-1.5 1.5H1.514a1.5 1.5 0 0 1-1.5-1.5v-9.23a1.5 1.5 0 0 1 1.5-1.5h5.862a.5.5 0 1 1 0 1z"/><path d="M2.508 12.991a.5.5 0 0 1 .5-.5h9.358a.5.5 0 0 1 0 1H3.008a.5.5 0 0 1-.5-.5"/></g><defs><clipPath id="a"><path fill="#fff" d="M0 0h16v16H0z"/></clipPath></defs></svg>