<svg xmlns="http://www.w3.org/2000/svg" width="16" height="16" fill="none" viewBox="0 0 16 16"><g clip-path="url(#a)"><path fill="#444f5c" d="M8 0a8 8 0 1 1 0 16A8 8 0 0 1 8 0M3.892 8.595a.13.13 0 0 0-.152 0c-.514.412-.922.894-1.317 1.36-.221.26-.449.53-.69.78-.034.035-.023.083.024.108q.028.015.06.015a.12.12 0 0 0 .084-.032c.245-.254.475-.525.697-.788.362-.428.736-.87 1.19-1.252.038.144-.016.401-.05.569-.02.096-.037.178-.041.238a1 1 0 0 1-.025.137c-.031.152-.067.324 0 .453a.3.3 0 0 0 .216.164c.204.037.436-.11.659-.253.085-.054.184-.118.262-.155a.5.5 0 0 1-.03.117.7.7 0 0 0-.036.139c-.004.036.026.07.072.08.324.076.59-.113.824-.28.262-.187.435-.295.628-.223.048.018.108.075.161.125.056.053.114.108.176.142.14.091.283.142.427.189.459.11 1.053.085 1.48-.061.052-.018.075-.064.051-.102s-.085-.056-.138-.038a2.6 2.6 0 0 1-1.319.058 1.5 1.5 0 0 1-.37-.165.8.8 0 0 1-.143-.118c-.07-.066-.142-.135-.232-.168-.337-.125-.617.074-.865.25-.181.129-.353.251-.529.254l.015-.044c.029-.086.062-.183.01-.289-.016-.033-.061-.054-.109-.05-.139.011-.293.109-.471.223-.157.101-.374.239-.473.22-.034-.006-.058-.041-.073-.07-.047-.09-.014-.248.012-.374q.018-.082.026-.15c.004-.054.02-.133.039-.225.062-.298.132-.635-.052-.782zm9.376-4.024-.087.004a1 1 0 0 0-.17.031l-.082.027-.079.034a1 1 0 0 0-.144.089l-.064.054L9.01 8.158l-.019.023-.012.027-.404 1.364-.004.03q0 .046.036.08a.13.13 0 0 0 .087.033l.032-.004 1.48-.372.029-.011a.1.1 0 0 0 .025-.018l3.288-3.032.467.431-1.564 1.442-.023.029a.105.105 0 0 0 .024.13.13.13 0 0 0 .142.021l.032-.021 1.603-1.478.027-.031a.16.16 0 0 0 0-.183l-.027-.031-.508-.468.17-.156.058-.059a1 1 0 0 0 .096-.133l.037-.072.029-.075a1 1 0 0 0 .034-.156l.004-.08-.004-.08a.8.8 0 0 0-.254-.495.9.9 0 0 0-.539-.235l-.087-.004zm0 .226.056.002a1 1 0 0 1 .109.018l.079.025.05.022a1 1 0 0 1 .094.055l.063.051.038.038a1 1 0 0 1 .064.084l.037.069.019.048a1 1 0 0 1 .024.1l.005.077-.002.051a1 1 0 0 1-.019.101l-.027.073-.024.047a1 1 0 0 1-.06.086l-.055.058-3.609 3.327-1.241.312.339-1.146 3.65-3.361a1 1 0 0 1 .091-.059l.075-.034.052-.018a1 1 0 0 1 .108-.022zm.246 1.288a.107.107 0 0 0-.001.159l.035.033.174-.16-.035-.032a.13.13 0 0 0-.174-.001z"/></g><defs><clipPath id="a"><path fill="#fff" d="M0 0h16v16H0z"/></clipPath></defs></svg>