<svg xmlns="http://www.w3.org/2000/svg" width="16" height="16" fill="none" viewBox="0 0 16 16"><g fill="#444f5c" clip-path="url(#a)"><path d="M5.797 2.662a1 1 0 0 0-1 1v.135a1 1 0 0 0 1 1h.135a1 1 0 0 0 1-1v-.135a1 1 0 0 0-1-1zm-1 5.271a1 1 0 0 1 1-1h.135a1 1 0 0 1 1 1v.135a1 1 0 0 1-1 1h-.135a1 1 0 0 1-1-1zm5.271-5.271a1 1 0 0 0-1 1v.135a1 1 0 0 0 1 1h.135a1 1 0 0 0 1-1v-.135a1 1 0 0 0-1-1zm-1 5.271a1 1 0 0 1 1-1h.135a1 1 0 0 1 1 1v.135a1 1 0 0 1-1 1h-.135a1 1 0 0 1-1-1z"/><path fill-rule="evenodd" d="M13.338 15.973a.5.5 0 0 0 .5-.5V1.527a1.5 1.5 0 0 0-1.5-1.5H3.662a1.5 1.5 0 0 0-1.5 1.5v13.946a.5.5 0 0 0 .5.5zM3.162 1.527a.5.5 0 0 1 .5-.5h8.676a.5.5 0 0 1 .5.5v13.446H10.1v-2.77a1.5 1.5 0 0 0-1.5-1.5H7.4a1.5 1.5 0 0 0-1.5 1.5v2.77H3.162zM6.9 14.973v-2.77a.5.5 0 0 1 .5-.5h1.2a.5.5 0 0 1 .5.5v2.77z" clip-rule="evenodd"/></g><defs><clipPath id="a"><path fill="#fff" d="M0 0h16v16H0z"/></clipPath></defs></svg>