<svg xmlns="http://www.w3.org/2000/svg" width="16" height="16" fill="none" viewBox="0 0 16 16"><path fill="#444f5c" fill-rule="evenodd" d="M12.534 2.82a.5.5 0 0 0-.28-.848c-1.213-.18-2.185-.102-2.953.18-.777.285-1.317.77-1.666 1.351-.372.619-.518 1.326-.535 1.995l-2.798-2.8a.5.5 0 0 0-.707 0L.647 5.647a.5.5 0 0 0 0 .708l3.469 3.47-1.842 1.842-.02.02c-.368.411-.511.888-.461 1.349.049.448.276.844.578 1.13.594.564 1.645.82 2.433.032l1.843-1.842 3 2.999a.5.5 0 0 0 .707 0l2.948-2.948a.5.5 0 0 0 0-.707l-2.395-2.394c1.653-.034 2.702-.664 3.273-1.625.676-1.14.57-2.58.305-3.525a.5.5 0 0 0-.835-.218l-1.947 1.947-.913-.182-.2-.937zm-2.94 6.587-2.24 2.24.909.91.91-.91a.5.5 0 0 1 .707.706l-.91.91 1.03 1.03 2.241-2.24zm-4.77-.29 2.24-2.241L3.948 3.76 1.708 6l1.555 1.556.91-.91a.5.5 0 1 1 .707.707l-.91.91zM12.22 6.78l1.457-1.458c.046.635-.04 1.31-.358 1.847-.437.735-1.422 1.38-3.666 1.049a.5.5 0 0 0-.427.14l-5.13 5.13c-.294.295-.712.26-1.037-.049a.86.86 0 0 1-.273-.514c-.018-.164.023-.357.204-.563l5.12-5.12a.5.5 0 0 0 .13-.478c-.21-.817-.235-1.938.25-2.746.236-.39.597-.724 1.155-.929.368-.135.834-.218 1.418-.214L9.69 4.25a.5.5 0 0 0-.135.458l.326 1.524a.5.5 0 0 0 .391.386l1.497.3a.5.5 0 0 0 .452-.137" clip-rule="evenodd"/></svg>