<svg xmlns="http://www.w3.org/2000/svg" width="16" height="16" fill="none" viewBox="0 0 16 16"><path fill="#444f5c" d="M7.249 1.418c.19-.557 1.311-.557 1.502 0 .458 1.336 1.135 2.842 2.062 3.77.927.926 2.433 1.603 3.769 2.06.557.192.557 1.312 0 1.503-1.336.458-2.842 1.135-3.77 2.062-.926.927-1.603 2.433-2.06 3.769-.192.557-1.312.557-1.503 0-.458-1.336-1.135-2.842-2.062-3.77-.927-.926-2.433-1.603-3.769-2.06-.557-.192-.557-1.312 0-1.503 1.336-.458 2.842-1.135 3.77-2.062.926-.927 1.603-2.433 2.06-3.769"/></svg>