<svg xmlns="http://www.w3.org/2000/svg" width="16" height="16" fill="none" viewBox="0 0 16 16"><g clip-path="url(#a)"><path fill="#444f5c" fill-rule="evenodd" d="m9.714 8.007 1.267-1.218a3.28 3.28 0 0 0 3.415-.576 3.27 3.27 0 0 0 .865-3.67.5.5 0 0 0-.802-.18L12.77 3.916l-.573-.123-.122-.57 1.557-1.683a.5.5 0 0 0-.18-.803 3.28 3.28 0 0 0-3.677.862 3.26 3.26 0 0 0-.586 3.39 4.036 4.036 0 0 0-5.543.156L.938 7.855a2.5 2.5 0 0 0-.153 3.368l3.324 3.988a1.5 1.5 0 0 0 1.823.382l2.921-1.46a1.5 1.5 0 0 0 .752-.868l.187-.56.037.018A1.5 1.5 0 0 0 12 11.383v-.054a2.5 2.5 0 0 0-.732-1.767zm1.99-6.447q.3-.07.603-.059l-1.143 1.236a.5.5 0 0 0-.122.444l.246 1.14a.5.5 0 0 0 .384.383l1.142.245a.5.5 0 0 0 .443-.121l1.242-1.143a2.26 2.26 0 0 1-.765 1.779 2.28 2.28 0 0 1-2.61.287.5.5 0 0 0-.587.078l-1.53 1.47-.355-.355a.5.5 0 0 0 .101-.078l1.399-1.408a.5.5 0 0 0 .082-.595 2.26 2.26 0 0 1 .289-2.599c.311-.35.724-.597 1.182-.704m-3.737 4.7a.5.5 0 0 1 .077-.1l.448-.45a3.036 3.036 0 0 0-4.138.143l-2.71 2.709a1.5 1.5 0 0 0-.092 2.02l3.324 3.99a.5.5 0 0 0 .608.127l2.92-1.461a.5.5 0 0 0 .252-.29l.369-1.106a.5.5 0 0 1 .698-.29l.552.277a.5.5 0 0 0 .724-.447v-.054a1.5 1.5 0 0 0-.44-1.06L8.654 8.36l-.013-.013-1.494-1.494a.5.5 0 1 1 .708-.707z" clip-rule="evenodd"/></g><defs><clipPath id="a"><path fill="#fff" d="M0 0h16v16H0z"/></clipPath></defs></svg>