<svg xmlns="http://www.w3.org/2000/svg" width="16" height="16" fill="none" viewBox="0 0 16 16"><path fill="#444f5c" fill-rule="evenodd" d="M11.963 2.737c-1.35-.936-2.922-1.263-3.858-1.235H8.09c-2.406 0-4.037.798-5.07 1.919C1.976 4.55 1.5 6.053 1.5 7.527v2.096h1.376a1.5 1.5 0 0 1 1.5 1.5V14a1.5 1.5 0 0 1-1.5 1.5H2A1.5 1.5 0 0 1 .5 14V7.527c0-1.68.543-3.44 1.784-4.785C3.532 1.39 5.444.503 8.083.502 9.222.47 11 .852 12.533 1.915c1.558 1.08 2.86 2.866 2.967 5.593V14a1.5 1.5 0 0 1-1.5 1.5h-1.257a1.5 1.5 0 0 1-1.5-1.5v-2.877a1.5 1.5 0 0 1 1.5-1.5H14.5V7.537c-.096-2.375-1.21-3.88-2.537-4.8m2.537 7.886h-1.757a.5.5 0 0 0-.5.5V14a.5.5 0 0 0 .5.5H14a.5.5 0 0 0 .5-.5zm-13 0V14a.5.5 0 0 0 .5.5h.876a.5.5 0 0 0 .5-.5v-2.877a.5.5 0 0 0-.5-.5z" clip-rule="evenodd"/></svg>