<svg xmlns="http://www.w3.org/2000/svg" width="16" height="16" fill="none" viewBox="0 0 16 16"><g fill="#444f5c" clip-path="url(#a)"><path d="m15.107.883.005.005.009.009.014.014-.014-.014z"/><path fill-rule="evenodd" d="M12.147 2.147a1.21 1.21 0 0 1 1.277-.278l.222-.223a.5.5 0 0 1 .708.708l-.223.222c.16.43.068.932-.277 1.278L12.707 5l.475.475a.5.5 0 0 1-.707.707L12 5.707l-1.025 1.025.56.56a.5.5 0 1 1-.707.708l-.56-.56-1.06 1.06.56.56a.5.5 0 1 1-.707.708l-.561-.56-1.06 1.06.56.56a.5.5 0 0 1-.707.708l-.56-.561L5.706 12l.475.475a.5.5 0 1 1-.707.707L5 12.707l-1.146 1.147a1.21 1.21 0 0 1-1.278.277l-.222.223a.5.5 0 1 1-.708-.708l.223-.223a1.21 1.21 0 0 1 .278-1.276L3.293 11l-.647-.646a.5.5 0 1 1 .708-.707l.646.646 1.025-1.025-.56-.56A.5.5 0 1 1 5.171 8l.56.56 1.06-1.06-.56-.56a.5.5 0 0 1 .707-.708l.561.561 1.06-1.06L8 5.17a.5.5 0 0 1 .707-.707l.56.561L10.294 4l-.647-.646a.5.5 0 1 1 .708-.707l.646.646zm.707.707a.207.207 0 0 1 .29-.003l.002.003.003.002a.207.207 0 0 1-.002.29L12 4.293 11.707 4zM4 11.707l-1.146 1.147a.207.207 0 0 0 .293.293L4.293 12zm1-.414L4.707 11l1.025-1.025.293.293zM7.793 8.5l-1.06 1.06-.294-.292L7.5 8.208zm.707-.707L8.207 7.5l1.06-1.06.294.292zm1.475-2.06L11 4.706l.293.293-1.025 1.025z" clip-rule="evenodd"/></g><defs><clipPath id="a"><path fill="#fff" d="M0 0h16v16H0z"/></clipPath></defs></svg>