<svg xmlns="http://www.w3.org/2000/svg" width="16" height="16" fill="none" viewBox="0 0 16 16"><g clip-path="url(#a)"><path fill="#444f5c" fill-rule="evenodd" d="M2.533.92a1.5 1.5 0 0 0-1.5 1.5v11.23a1.5 1.5 0 0 0 1.5 1.5h11.23a1.5 1.5 0 0 0 1.5-1.5V2.42a1.5 1.5 0 0 0-1.5-1.5zm-.5 1.5a.5.5 0 0 1 .5-.5H5.43v3.375H2.033zm0 3.875H5.43v3.41H2.033zm0 4.41v2.946a.5.5 0 0 0 .5.5H5.43v-3.446zm4.397 0v3.446h7.334a.5.5 0 0 0 .5-.5v-2.946zm7.834-1v-3.41H6.43v3.41zM6.43 5.295h7.834V2.42a.5.5 0 0 0-.5-.5H6.43z" clip-rule="evenodd"/></g><defs><clipPath id="a"><path fill="#fff" d="M0 0h16v16H0z"/></clipPath></defs></svg>