<svg xmlns="http://www.w3.org/2000/svg" width="16" height="16" fill="none" viewBox="0 0 16 16"><g clip-path="url(#a)"><path fill="#444f5c" fill-rule="evenodd" d="M.5 2A1.5 1.5 0 0 1 2 .5h12A1.5 1.5 0 0 1 15.5 2v12a1.5 1.5 0 0 1-1.5 1.5H2A1.5 1.5 0 0 1 .5 14zM2 1.5a.5.5 0 0 0-.5.5v2.922h13V2a.5.5 0 0 0-.5-.5zm12.5 4.422H5.093v3.694H14.5zm0 4.694H5.093V14.5H14a.5.5 0 0 0 .5-.5zM4.093 14.5v-3.884H1.5V14a.5.5 0 0 0 .5.5zM1.5 9.616h2.593V5.922H1.5z" clip-rule="evenodd"/></g><defs><clipPath id="a"><path fill="#fff" d="M0 0h16v16H0z"/></clipPath></defs></svg>