<svg xmlns="http://www.w3.org/2000/svg" width="16" height="16" fill="none" viewBox="0 0 16 16"><g fill="#444f5c" fill-rule="evenodd" clip-path="url(#a)" clip-rule="evenodd"><path d="M5.03 6.512a3.012 3.012 0 1 1 6.023 0 3.012 3.012 0 0 1-6.024 0M8.04 4.5a2.012 2.012 0 1 0 0 4.024 2.012 2.012 0 0 0 0-4.024"/><path d="M13.743 13.57a8 8 0 1 0-.136.137.5.5 0 0 0 .136-.138m-.136-1.378a6.96 6.96 0 0 0 1.377-3.708.5.5 0 0 1-.127.016h-1.143a.5.5 0 1 1 0-1h1.143a.5.5 0 0 1 .127.016 7 7 0 0 0-6.5-6.5.5.5 0 0 1 .016.127v1.143a.5.5 0 1 1-1 0V1.143a.5.5 0 0 1 .016-.127 7 7 0 0 0-6.5 6.5.5.5 0 0 1 .127-.016h1.143a.5.5 0 0 1 0 1H1.143a.5.5 0 0 1-.127-.016 6.97 6.97 0 0 0 1.381 3.713 2.86 2.86 0 0 1 2.635-1.748h5.953c1.18 0 2.192.72 2.622 1.743m-.792.889a1.843 1.843 0 0 0-1.83-1.632H5.032c-.95 0-1.734.713-1.845 1.633a6.97 6.97 0 0 0 4.33 1.901.5.5 0 0 1-.017-.126v-1.143a.5.5 0 1 1 1 0v1.143a.5.5 0 0 1-.016.127 6.97 6.97 0 0 0 4.331-1.903"/></g><defs><clipPath id="a"><path fill="#fff" d="M0 0h16v16H0z"/></clipPath></defs></svg>