<svg xmlns="http://www.w3.org/2000/svg" width="16" height="16" fill="none" viewBox="0 0 16 16"><g fill="#444f5c" clip-path="url(#a)"><path d="M11.295 4.491a.5.5 0 1 0-.707-.707L4.705 9.666a.5.5 0 0 0 .707.707z"/><path fill-rule="evenodd" d="M4.56 5.081a1.44 1.44 0 1 1 2.882 0 1.44 1.44 0 0 1-2.882 0m1.441-.44a.44.44 0 1 0 0 .881.44.44 0 0 0 0-.882M10 7.638a1.44 1.44 0 1 0 0 2.882 1.44 1.44 0 0 0 0-2.882m-.44 1.44a.44.44 0 1 1 .882 0 .44.44 0 0 1-.882 0" clip-rule="evenodd"/><path fill-rule="evenodd" d="M.005.609a.5.5 0 0 1 .5-.5h14.99a.5.5 0 1 1 0 1h-1.682V13.41c0 .778-.537 1.293-1.138 1.438a1.51 1.51 0 0 1-1.686-.733.508.508 0 0 0-.814-.1L9.107 15.2a1.5 1.5 0 0 1-2.229 0l-1.067-1.185a.508.508 0 0 0-.814.1 1.51 1.51 0 0 1-1.686.734c-.601-.145-1.138-.66-1.138-1.438V1.11H.505a.5.5 0 0 1-.5-.5m3.168.5h9.64v12.3a.46.46 0 0 1-.372.466.51.51 0 0 1-.581-.252c-.498-.885-1.735-1.049-2.428-.28L8.364 14.53a.5.5 0 0 1-.743 0l-1.067-1.185c-.693-.77-1.93-.606-2.428.28a.51.51 0 0 1-.581.25.46.46 0 0 1-.372-.465z" clip-rule="evenodd"/></g><defs><clipPath id="a"><path fill="#fff" d="M0 0h16v16H0z"/></clipPath></defs></svg>