<svg xmlns="http://www.w3.org/2000/svg" width="16" height="16" fill="none" viewBox="0 0 16 16"><path fill="#444f5c" fill-rule="evenodd" d="M.519 3.729a.5.5 0 0 0 0 1h2.5v6.5a.5.5 0 0 0 1 0v-6.5h2.5a.5.5 0 1 0 0-1zm6.066 6.005H10a.5.5 0 0 0 .5-.5 2.5 2.5 0 1 0-2.5 2.5c.569 0 .98-.126 1.262-.274a1.7 1.7 0 0 0 .408-.299l.029-.031.01-.013.004-.005.002-.002.001-.001c0-.001.001-.002-.393-.309l.394.307a.5.5 0 0 0-.776-.63l-.013.012a.7.7 0 0 1-.129.085c-.132.069-.383.16-.799.16a1.5 1.5 0 0 1-1.415-1m1.415-2a1.5 1.5 0 0 0-1.415 1h2.83a1.5 1.5 0 0 0-1.415-1m4.5 1.5a1.5 1.5 0 0 1 2.492-1.125.5.5 0 0 0 .662-.75 2.5 2.5 0 1 0 0 3.75.5.5 0 0 0-.662-.75A1.5 1.5 0 0 1 12.5 9.234" clip-rule="evenodd"/></svg>