<svg xmlns="http://www.w3.org/2000/svg" width="24" height="24" fill="none" viewBox="0 0 24 24"><path fill="#444f5c" d="M17.462 2.4v19.083a1 1 0 0 1-.009.139q.016-.113.03-.227-.018.098-.053.191l.085-.206q-.041.088-.098.167l.134-.173a1 1 0 0 1-.134.135l.173-.135a1 1 0 0 1-.166.098l.205-.086a1 1 0 0 1-.19.054l.226-.03c-.143.019-.292.009-.437.009H5.738c-.508 0-1.711-.019-2.217-.021a1 1 0 0 1-.13-.009q.113.017.226.03a1 1 0 0 1-.19-.054l.205.086a1 1 0 0 1-.166-.098l.173.135a1 1 0 0 1-.134-.135l.134.173a1 1 0 0 1-.098-.167l.085.206a.8.8 0 0 1-.053-.191q.017.114.03.227c-.026-.186-.009-.381-.009-.57V2.399q0-.07.009-.139l-.03.227q.018-.098.053-.191l-.085.206q.042-.088.098-.167l-.134.173a1 1 0 0 1 .134-.135l-.173.135a1 1 0 0 1 .166-.098l-.205.086a1 1 0 0 1 .19-.054l-.226.03c.143-.019.292-.009.437-.009.305 0 1.308.021 1.613.021h9.983c.508 0 1.605-.002 2.111 0q.067 0 .13.009l-.226-.03q.098.017.19.054l-.205-.086q.088.042.166.098l-.173-.135a1 1 0 0 1 .134.135l-.134-.173a1 1 0 0 1 .098.167l-.085-.206a.8.8 0 0 1 .053.191l-.03-.227a1 1 0 0 1 .009.118c.004.223.092 1.174.249 1.333.147.148-.2.261.013.25.454-.021.861-.377.853-.856-.009-.447-.19-.912-.535-1.205a1.7 1.7 0 0 0-1.085-.422H4.214c-.164 0-.339.019-.495.073a1.68 1.68 0 0 0-1.051 1.032c-.102.27-.09.555-.09.833v17.344q-.002.075.002.15c.041.542.286.983.727 1.297a1.6 1.6 0 0 0 .893.27h12.746c.183-.002.371-.026.544-.094.239-.096.454-.21.633-.403s.296-.4.382-.649c.06-.176.072-.364.072-.55V3.121c0-.447-.392-.878-.853-.856-.463.026-.265-.346-.265.134z"/><path fill="#444f5c" d="M20.577 5.337v9.69c0 .402.003.803 0 1.205q0 .06-.007.12l.024-.211q-.014.092-.042.177l.068-.191a1 1 0 0 1-.078.155l.107-.161a.7.7 0 0 1-.107.125l.137-.125a.7.7 0 0 1-.132.092l.163-.08a.6.6 0 0 1-.151.05q.09-.016.18-.028c-.095.014-.195.008-.29.008H18.38c.225.265-.116-.038.109.227V6.057c0-.472.007-.304 0-.776v-.02c-.225.265.116-.11-.109.155h2.017c.113 0 .23-.01.342.008l-.18-.028q.078.016.151.05l-.163-.08q.07.038.132.092l-.137-.125q.06.057.107.125l-.107-.161q.045.072.078.155l-.068-.191q.03.086.042.177l-.024-.211.007.112a.9.9 0 0 0 .198.564c.117.137-.203.243-.033.233.361-.02.684.291.677-.155-.014-.833-.577-1.5-1.287-1.512q-.178-.002-.357 0h-1.399c-.366 0-.677.365-.677.797v10.26c0 .472-.005.377 0 .849v.02c0 .43.31.797.677.797h.551c.4 0 .799.006 1.199 0 .249-.004.517-.084.72-.259a1.6 1.6 0 0 0 .393-.486c.107-.211.146-.42.171-.659q.009-.107.007-.213V6.703q.002-.344 0-.687v-.03c0-.416-.312-.817-.677-.797-.366.016-.163-.296-.163.15zm-5.675-.486v4.811c0 .174.015.354-.004.526l.03-.228a.5.5 0 0 1-.032.11l.086-.206q-.026.05-.058.097l.135-.174-.06.06.174-.135a.4.4 0 0 1-.097.058l.206-.086a.5.5 0 0 1-.11.032l.228-.03c-.277.03-.567.004-.844.004h-7.04c-.32 0-1.327.006-1.647 0q-.035 0-.071-.004.114.017.228.03a.5.5 0 0 1-.11-.032l.206.086q-.05-.026-.097-.058l.174.135-.06-.06.135.174a.4.4 0 0 1-.058-.097l.086.206a.5.5 0 0 1-.032-.11l.03.228c-.015-.144-.004-.292-.004-.438V5.326c0-.176-.015-.359.004-.535l-.03.228a.5.5 0 0 1 .032-.11l-.086.206q.026-.05.058-.097l-.135.174.06-.06-.174.135a.4.4 0 0 1 .097-.058l-.206.086a.5.5 0 0 1 .11-.032l-.228.03c.277-.03 1.252-.004 1.529-.004h7.041c.32 0 .642-.006.963 0q.035 0 .071.004l-.228-.03a.5.5 0 0 1 .11.032l-.206-.086q.05.026.097.058l-.174-.135.06.06-.135-.174q.036.043.058.097l-.086-.206a.5.5 0 0 1 .032.11l-.03-.228a.3.3 0 0 1 .004.06c.009.226.09.447.251.608.148.148-.373.262-.159.251.451-.019.877.288.859-.193a1.31 1.31 0 0 0-.881-1.212 1.3 1.3 0 0 0-.415-.067H6.577a1.31 1.31 0 0 0-1.255.907c-.062.187-.056.38-.056.574v3.798c.026.556.378 1.016.907 1.192.155.052.316.056.475.056h7.42c.189 0 .38.011.567-.004.546-.043 1.021-.391 1.173-.93.037-.125.047-.258.047-.387V5.517c0-.449-.395-.881-.859-.859-.466.021-.095-.288-.095.193zM7.026 17.843c.483 0 .84.393.859.859.021.464-.41.859-.859.859h-.864c-.481 0-.838-.393-.859-.859-.021-.464.41-.859.859-.859zm3.856 0c.483 0 .84.393.859.859.021.464-.41.859-.859.859h-.864c-.481 0-.838-.393-.859-.859-.021-.464.41-.859.859-.859zm3.857 0c.483 0 .84.393.859.859.021.464-.41.859-.859.859h-.864c-.481 0-.838-.393-.859-.859-.021-.464.41-.859.859-.859zM7.026 15.05c.483 0 .84.393.859.859.021.464-.41.859-.859.859h-.864c-.481 0-.838-.393-.859-.859-.021-.464.41-.859.859-.859zm3.856 0c.483 0 .84.393.859.859.021.464-.41.859-.859.859h-.864c-.481 0-.838-.393-.859-.859-.021-.464.41-.859.859-.859zm3.857 0c.483 0 .84.393.859.859.021.464-.41.859-.859.859h-.864c-.481 0-.838-.393-.859-.859-.021-.464.41-.859.859-.859zM7 12.04c.481 0 .838.395.859.859s-.41.859-.859.859h-.864c-.481 0-.838-.393-.859-.859-.021-.464.41-.859.859-.859zm3.857 0c.481 0 .838.395.859.859s-.41.859-.859.859h-.864c-.481 0-.838-.393-.859-.859-.021-.464.41-.859.859-.859zm3.856 0c.481 0 .838.395.859.859s-.41.859-.859.859h-.864c-.481 0-.838-.393-.859-.859-.021-.464.41-.859.859-.859z"/></svg>