<svg xmlns="http://www.w3.org/2000/svg" width="16" height="16" fill="none" viewBox="0 0 16 16"><path fill="#444f5c" d="M11.71 7.172c2.049 0 3.71 1.62 3.71 3.618s-1.661 3.618-3.71 3.618S8 12.788 8 10.79s1.661-3.618 3.71-3.618m.928-5.581c1.025 0 1.855.83 1.855 1.855l.001 4.066a4.36 4.36 0 0 0-3.057-1.245 4.35 4.35 0 0 0-2.714.944.68.68 0 0 0-.474-.193H4.04a.678.678 0 0 0-.079 1.352l.079.005h3.657a4.3 4.3 0 0 0-.625 2.244v.017H4.275c-.576 0-1.119.268-1.471.724l-.834 1.085a.776.776 0 0 1-1.391-.473V3.446c0-1.025.831-1.855 1.855-1.855zm.118 7.622-.059.033-.06.049-.923.899-.923-.9-.06-.048a.445.445 0 0 0-.555.049.416.416 0 0 0-.046.547l.046.053.922.899-.922.9-.046.053a.416.416 0 0 0 .046.547.44.44 0 0 0 .496.082l.059-.033.06-.05.923-.898.923.899.06.049a.445.445 0 0 0 .555-.05.416.416 0 0 0 .046-.546l-.046-.053-.923-.9.923-.9.046-.052a.416.416 0 0 0-.046-.547.44.44 0 0 0-.496-.082m-1.724-5.36H4.04a.678.678 0 0 0-.079 1.352l.079.005h6.992a.678.678 0 1 0 0-1.356z"/></svg>