<svg xmlns="http://www.w3.org/2000/svg" width="16" height="16" fill="none" viewBox="0 0 16 16"><path fill="#444f5c" d="M14.364 12c.147 0 .267.119.267.267V14.4a.267.267 0 0 1-.267.267h-12.8a.267.267 0 0 1-.267-.267v-2.133c0-.147.119-.267.267-.267zM7.715 7.792l2.764 1.865-.367.544a.253.253 0 0 1-.351.068c-.188-.127-.673.094-.983.373l.009-.008-.684.921a.23.23 0 0 1-.197.111H6.595a.23.23 0 0 1-.209-.141c-.049-.063-.034-.175.008-.238L7.419 9.72c.127-.371.165-.921-.023-1.048-.126-.085-.153-.225-.047-.337l.367-.544zm4.035-6.025a.987.987 0 0 1 1.368-.266l1.152.777a.987.987 0 0 1 .266 1.368l-.622.921-3.187 4.678L7.963 7.38l3.166-4.692z"/></svg>