<svg xmlns="http://www.w3.org/2000/svg" width="16" height="16" fill="none" viewBox="0 0 16 16"><path fill="#444f5c" fill-rule="evenodd" d="M.5 4.755a1.5 1.5 0 0 1 1.5-1.5h6.49a1.5 1.5 0 0 1 1.5 1.5v6.49a1.5 1.5 0 0 1-1.5 1.5H2a1.5 1.5 0 0 1-1.5-1.5zm1.5-.5a.5.5 0 0 0-.5.5v6.49a.5.5 0 0 0 .5.5h6.49a.5.5 0 0 0 .5-.5v-6.49a.5.5 0 0 0-.5-.5zm9.063.5a1.5 1.5 0 0 1 1.5-1.5H14a1.5 1.5 0 0 1 1.5 1.5v1.437a1.5 1.5 0 0 1-1.5 1.5h-1.437a1.5 1.5 0 0 1-1.5-1.5zm1.5-.5a.5.5 0 0 0-.5.5v1.437a.5.5 0 0 0 .5.5H14a.5.5 0 0 0 .5-.5V4.755a.5.5 0 0 0-.5-.5zm0 4.053a1.5 1.5 0 0 0-1.5 1.5v1.437a1.5 1.5 0 0 0 1.5 1.5H14a1.5 1.5 0 0 0 1.5-1.5V9.808a1.5 1.5 0 0 0-1.5-1.5zm-.5 1.5a.5.5 0 0 1 .5-.5H14a.5.5 0 0 1 .5.5v1.437a.5.5 0 0 1-.5.5h-1.437a.5.5 0 0 1-.5-.5z" clip-rule="evenodd"/></svg>