<svg xmlns="http://www.w3.org/2000/svg" width="16" height="16" fill="none" viewBox="0 0 16 16"><path fill="#444f5c" fill-rule="evenodd" d="M2.5 13.5A1.5 1.5 0 0 1 1 12v-1.5a.5.5 0 0 1 .5-.5c.253 0 .644-.08.958-.306C2.746 9.487 3 9.137 3 8.5s-.254-.987-.542-1.194A1.74 1.74 0 0 0 1.5 7a.5.5 0 0 1-.5-.5V5a1.5 1.5 0 0 1 1.5-1.5h11A1.5 1.5 0 0 1 15 5v1.5a.5.5 0 0 1-.5.5c-.253 0-.644.08-.958.306-.288.207-.542.557-.542 1.194s.254.987.542 1.194c.314.226.705.306.958.306a.5.5 0 0 1 .5.5V12a1.5 1.5 0 0 1-1.5 1.5zM2 5a.5.5 0 0 1 .5-.5h3v8h-3A.5.5 0 0 1 2 12v-1.051a2.7 2.7 0 0 0 1.042-.443C3.588 10.113 4 9.463 4 8.5s-.412-1.613-.958-2.006A2.7 2.7 0 0 0 2 6.051zm4.5 7.5v-8h7a.5.5 0 0 1 .5.5v1.051a2.7 2.7 0 0 0-1.042.443C12.412 6.887 12 7.537 12 8.5s.412 1.613.958 2.006c.336.242.709.377 1.042.443V12a.5.5 0 0 1-.5.5z" clip-rule="evenodd"/></svg>