<svg xmlns="http://www.w3.org/2000/svg" width="16" height="16" fill="none" viewBox="0 0 16 16"><path fill="#444f5c" d="M1.49 7.617a6.522 6.522 0 0 1 13.022-.545.5.5 0 1 0 .996-.082A7.523 7.523 0 1 0 5 14.512a.5.5 0 1 0 .401-.917 6.52 6.52 0 0 1-3.912-5.978"/><path fill="#444f5c" d="M8.305 4a.5.5 0 1 0-1 0v4a.5.5 0 0 0 .784.411l2.89-2a.5.5 0 1 0-.568-.822L8.305 7.046zm5.721 6.9a.5.5 0 0 1 0 .708l-1.989 1.99a.5.5 0 0 1-.707 0l-.663-.664a.5.5 0 0 1 .707-.707l.31.31 1.635-1.636a.5.5 0 0 1 .707 0"/><path fill="#444f5c" fill-rule="evenodd" d="M12.348 8.604a3.644 3.644 0 1 0 0 7.29 3.644 3.644 0 0 0 0-7.29M9.703 12.25a2.644 2.644 0 1 1 5.289 0 2.644 2.644 0 0 1-5.289 0" clip-rule="evenodd"/></svg>