<svg xmlns="http://www.w3.org/2000/svg" width="16" height="16" fill="none" viewBox="0 0 16 16"><g fill="#444f5c" fill-rule="evenodd" clip-path="url(#a)" clip-rule="evenodd"><path d="M8 13A5 5 0 1 0 8 3a5 5 0 0 0 0 10m0-1c.924 0 1.776-.314 2.453-.84L9.016 9.723A2 2 0 0 1 8 10a2 2 0 0 1-1.016-.277L5.547 11.16c.678.527 1.529.84 2.453.84m4-4c0 .924-.313 1.775-.84 2.453L9.723 9.016A2 2 0 0 0 10 8a2 2 0 0 0-.277-1.016l1.437-1.437c.526.677.84 1.529.84 2.453m-7.16 2.453 1.437-1.437A2 2 0 0 1 6 8c0-.37.101-.718.277-1.016L4.84 5.547A4 4 0 0 0 4 8c0 .924.314 1.775.84 2.453m.707-5.613A4 4 0 0 1 8 4c.924 0 1.775.314 2.453.84L9.016 6.277A2 2 0 0 0 8 6c-.37 0-.718.101-1.016.277zM9 8a1 1 0 1 1-2 0 1 1 0 0 1 2 0"/><path d="M8 16A8 8 0 1 0 8 0a8 8 0 0 0 0 16m0-1A7 7 0 1 0 8 1a7 7 0 0 0 0 14"/></g><defs><clipPath id="a"><path fill="#fff" d="M0 0h16v16H0z"/></clipPath></defs></svg>