<svg xmlns="http://www.w3.org/2000/svg" width="16" height="16" fill="none" viewBox="0 0 16 16"><g clip-path="url(#a)"><path fill="#444f5c" fill-rule="evenodd" d="M2.548.468a2.048 2.048 0 0 0-.5 4.034v6.996a2.049 2.049 0 1 0 1 0V8.203H7.55v3.295a2.049 2.049 0 1 0 1 0V8.203h3.057a2.345 2.345 0 0 0 2.345-2.345V4.502a2.049 2.049 0 1 0-1 0v1.356c0 .743-.602 1.345-1.345 1.345H8.55v-2.71a2.049 2.049 0 1 0-1 .018v2.692H3.048v-2.7a2.049 2.049 0 0 0-.5-4.035M1.5 2.516a1.048 1.048 0 1 1 2.096 0 1.048 1.048 0 0 1-2.096 0m6.514-1.048a1.048 1.048 0 1 0 0 2.096 1.048 1.048 0 0 0 0-2.096m4.39 1.048a1.048 1.048 0 1 1 2.096 0 1.048 1.048 0 0 1-2.096 0m-9.856 9.92a1.048 1.048 0 1 0 0 2.097 1.048 1.048 0 0 0 0-2.096m4.454 1.049a1.048 1.048 0 1 1 2.096 0 1.048 1.048 0 0 1-2.096 0" clip-rule="evenodd"/></g><defs><clipPath id="a"><path fill="#fff" d="M0 0h16v16H0z"/></clipPath></defs></svg>