<svg xmlns="http://www.w3.org/2000/svg" width="16" height="16" fill="none" viewBox="0 0 16 16"><path fill="#444f5c" fill-rule="evenodd" d="M2 2.5a.5.5 0 0 1 .5-.5h11a.5.5 0 0 1 .5.5v2a.5.5 0 0 1-.5.5h-11a.5.5 0 0 1-.5-.5zM3 3v1h10V3z" clip-rule="evenodd"/><path fill="#444f5c" fill-rule="evenodd" d="M3.477 4A.5.5 0 0 1 4 4.478L4.478 15h7.044l.479-10.523a.5.5 0 0 1 .999.046l-.5 11A.5.5 0 0 1 12 16H4a.5.5 0 0 1-.5-.477l-.5-11A.5.5 0 0 1 3.478 4M5 .5a.5.5 0 0 1 .5-.5h5a.5.5 0 0 1 .5.5v2a.5.5 0 0 1-1 0V1H6v1.5a.5.5 0 0 1-1 0z" clip-rule="evenodd"/><path fill="#444f5c" fill-rule="evenodd" d="M9.5 6.5a.5.5 0 0 1 .5.5v4a.5.5 0 0 1-1 0V7a.5.5 0 0 1 .5-.5m-3 0A.5.5 0 0 1 7 7v4a.5.5 0 0 1-1 0V7a.5.5 0 0 1 .5-.5" clip-rule="evenodd"/></svg>