<svg xmlns="http://www.w3.org/2000/svg" width="16" height="16" fill="none" viewBox="0 0 16 16"><g fill="#444f5c" clip-path="url(#a)"><path d="M8.5.558a.5.5 0 0 0-1 0V7.5H.558a.5.5 0 0 0 0 1H7.5v6.943a.5.5 0 0 0 1 0V8.5h6.942a.5.5 0 1 0 0-1H8.5z"/><path d="M13.87 2.407a.5.5 0 0 1 0 .707l-.923.923.922.923a.5.5 0 0 1-.707.707l-.923-.923-.922.923a.5.5 0 1 1-.707-.707l.922-.923-.922-.923a.5.5 0 0 1 .707-.707l.922.923.923-.923a.5.5 0 0 1 .707 0m-8.455 8.452a.5.5 0 0 1 0 .707l-.923.923.923.923a.5.5 0 1 1-.708.707l-.922-.923-.923.923a.5.5 0 0 1-.707-.707l.923-.923-.923-.923a.5.5 0 1 1 .707-.707l.923.923.922-.923a.5.5 0 0 1 .708 0m8.731-.024a.5.5 0 0 1 .048.706l-2.223 2.553a.5.5 0 0 1-.753.001l-.93-1.059a.5.5 0 1 1 .752-.66l.553.63 1.847-2.122a.5.5 0 0 1 .706-.049m-8.408-7.75a.5.5 0 0 0-.754-.657L3.135 4.55l-.552-.63a.5.5 0 1 0-.751.66l.928 1.06a.5.5 0 0 0 .753-.001z"/></g><defs><clipPath id="a"><path fill="#fff" d="M0 0h16v16H0z"/></clipPath></defs></svg>