<svg xmlns="http://www.w3.org/2000/svg" width="16" height="16" fill="none" viewBox="0 0 16 16"><g clip-path="url(#a)"><path fill="#444f5c" fill-rule="evenodd" d="M5.734 7.212v-1.99h-.788v5.46h.78v-.498q.273.273.636.433t.784.16q.437 0 .819-.164.382-.165.663-.445t.445-.66q.164-.377.164-.806a2 2 0 0 0-.164-.811 2.07 2.07 0 0 0-1.108-1.108 2.1 2.1 0 0 0-.819-.164q-.421 0-.78.16t-.632.433m.383 2.465a1.36 1.36 0 0 1-.397-.975q0-.288.109-.542.108-.254.296-.441a1.36 1.36 0 0 1 .967-.398 1.33 1.33 0 0 1 .963.398q.184.188.293.44.11.254.109.543 0 .287-.109.538a1.38 1.38 0 0 1-.726.733 1.3 1.3 0 0 1-.53.109q-.289 0-.538-.11a1.4 1.4 0 0 1-.437-.295M1.202 9.65a1.4 1.4 0 0 1-.281-.46l-.001.001a1.7 1.7 0 0 1-.101-.597v-3.37H0v3.417q0 .484.16.878t.437.675.655.433.815.152q.43 0 .8-.156t.644-.445v.507h.811v-5.46h-.819v3.37q0 .328-.101.592a1.3 1.3 0 0 1-.714.752 1.3 1.3 0 0 1-.527.105 1.4 1.4 0 0 1-.534-.1 1.2 1.2 0 0 1-.425-.294M9.681 7.9a2.1 2.1 0 0 1 .429-.659 2 2 0 0 1 1.459-.613q.428 0 .796.156.367.156.632.433.266.277.413.655.148.378.148.823v.257H10.32a1.34 1.34 0 0 0 1.319 1.132q.71 0 1.147-.585l.569.421a2.1 2.1 0 0 1-.733.624 2.1 2.1 0 0 1-.983.226q-.444 0-.831-.156a2.02 2.02 0 0 1-1.12-1.096 2 2 0 0 1-.164-.823q0-.421.156-.796zm1.096-.31q-.332.277-.441.738h2.426a1.3 1.3 0 0 0-.433-.737 1.18 1.18 0 0 0-.776-.277q-.444 0-.776.277m4.006.832q0-.468.25-.74v-.002a.83.83 0 0 1 .64-.273H16v-.733h-.273q-.329 0-.566.14a1.1 1.1 0 0 0-.386.382v-.49h-.78v3.978h.788z" clip-rule="evenodd"/></g><defs><clipPath id="a"><path fill="#fff" d="M0 0h16v16H0z"/></clipPath></defs></svg>