<svg xmlns="http://www.w3.org/2000/svg" width="16" height="16" fill="none" viewBox="0 0 16 16"><path fill="#444f5c" fill-rule="evenodd" d="M1.5 3a1.5 1.5 0 1 1 3 0v.5h2.085a1.5 1.5 0 0 1 2.83 0H11.5V3a1.5 1.5 0 0 1 3 0v2a1.5 1.5 0 0 1-3 0v-.5H9.415a1.5 1.5 0 0 1-.922.917L8.5 5.5v5l-.007.083c.43.15.77.489.922.917H11.5V11a1.5 1.5 0 0 1 3 0v2a1.5 1.5 0 0 1-3 0v-.5H9.415a1.5 1.5 0 0 1-2.83 0H4.5v.5a1.5 1.5 0 0 1-3 0v-2a1.5 1.5 0 0 1 3 0v.5h2.085c.152-.428.492-.768.922-.917L7.5 10.5v-5q0-.042.007-.083c-.43-.15-.77-.489-.922-.917H4.5V5a1.5 1.5 0 1 1-3 0zm2 8a.5.5 0 0 0-1 0v2a.5.5 0 0 0 1 0zm0-8v2a.5.5 0 0 1-1 0V3a.5.5 0 0 1 1 0m9 10a.5.5 0 0 0 1 0v-2a.5.5 0 0 0-1 0zm.5-7.5a.5.5 0 0 1-.5-.5V3a.5.5 0 0 1 1 0v2a.5.5 0 0 1-.5.5M7.5 4a.5.5 0 1 1 1 0 .5.5 0 0 1-1 0m.5 7.5a.5.5 0 1 1 0 1 .5.5 0 0 1 0-1" clip-rule="evenodd"/></svg>