<svg xmlns="http://www.w3.org/2000/svg" width="16" height="16" fill="none" viewBox="0 0 16 16"><path fill="#444f5c" d="M8 1a7 7 0 1 1 0 14A7 7 0 0 1 8 1m-.219 10.465a.693.693 0 0 0-.69.69.693.693 0 0 0 1.387 0 .694.694 0 0 0-.697-.69M7.98 3.2c-.779 0-1.408.198-1.866.581-.52.424-.813 1.005-.813 1.531 0 .267.15.438.396.438.219 0 .335-.109.458-.417.287-.793.82-1.306 1.839-1.306.971 0 1.668.602 1.668 1.442 0 .69-.287 1.094-1.066 1.716-1.08.868-1.313 1.319-1.313 2.229 0 .308.191.506.472.506q.43 0 .472-.513c.055-.711.191-.998 1.073-1.702.943-.759 1.333-1.36 1.333-2.229 0-1.367-1.094-2.276-2.652-2.276z"/></svg>