<svg xmlns="http://www.w3.org/2000/svg" width="16" height="16" fill="none" viewBox="0 0 16 16"><path fill="#444f5c" d="M.842 6.55A1.68 1.68 0 0 0 0 8v5.053c0 .929.755 1.684 1.684 1.684h6.737c.929 0 1.684-.755 1.684-1.684V8c0-.621-.341-1.158-.842-1.45zm5.053 4.49v1.17H4.211v-1.17a1.25 1.25 0 0 1-.421-.934 1.263 1.263 0 0 1 2.526 0c0 .373-.164.704-.421.935M16 5.474a4.216 4.216 0 0 0-4.211-4.211 4.216 4.216 0 0 0-4.211 4.21V6.55h8.421V5.474zm-4.211-2.527a2.53 2.53 0 0 1 2.526 2.526v1.076H9.262V5.473a2.53 2.53 0 0 1 2.527-2.526"/></svg>