<svg xmlns="http://www.w3.org/2000/svg" width="16" height="16" fill="none" viewBox="0 0 16 16"><g fill="#444f5c" fill-rule="evenodd" clip-path="url(#a)" clip-rule="evenodd"><path d="M4.884.5A2.384 2.384 0 0 0 4.5 5.237v5.294a2.384 2.384 0 1 0 1 .05V5.186A2.385 2.385 0 0 0 4.884.5M3.5 2.884a1.384 1.384 0 1 1 2.768 0 1.384 1.384 0 0 1-2.768 0M4.884 11.5a1.384 1.384 0 1 0 0 2.768 1.384 1.384 0 0 0 0-2.768m8-5a2.384 2.384 0 1 0 0 4.768 2.384 2.384 0 0 0 0-4.768M11.5 8.884a1.384 1.384 0 1 1 2.768 0 1.384 1.384 0 0 1-2.768 0"/></g><defs><clipPath id="a"><path fill="#fff" d="M0 0h16v16H0z"/></clipPath></defs></svg>