<svg xmlns="http://www.w3.org/2000/svg" width="16" height="16" fill="none" viewBox="0 0 16 16"><g fill="#444f5c" clip-path="url(#a)"><path d="M8.983 5.034a.5.5 0 0 0-.707-.707l-2.34 2.34a2.364 2.364 0 1 0 3.342 3.344l2.341-2.342a.5.5 0 0 0-.707-.707L8.57 9.303a1.364 1.364 0 0 1-1.929-1.928z"/><path fill-rule="evenodd" d="M14.001.519a1.5 1.5 0 0 1 1.5 1.5l-.003 5.182a1.5 1.5 0 0 1-.44 1.06l-6.376 6.37a1.5 1.5 0 0 1-2.121-.001L1.348 9.41a1.5 1.5 0 0 1-.011-2.11L7.54.968a1.5 1.5 0 0 1 1.072-.45zm.5 1.5a.5.5 0 0 0-.5-.5l-5.39-.003a.5.5 0 0 0-.357.15L2.051 8.001a.5.5 0 0 0 .004.704l5.213 5.218a.5.5 0 0 0 .707 0l6.376-6.37a.5.5 0 0 0 .147-.353z" clip-rule="evenodd"/></g><defs><clipPath id="a"><path fill="#fff" d="M0 0h16v16H0z"/></clipPath></defs></svg>