<svg xmlns="http://www.w3.org/2000/svg" width="16" height="16" fill="none" viewBox="0 0 16 16"><path fill="#444f5c" fill-rule="evenodd" d="M1.5 9.5a.5.5 0 0 1 .5.5v2.5a.5.5 0 0 0 .5.5h10a.5.5 0 0 0 .5-.5V10a.5.5 0 0 1 1 0v2.5a1.5 1.5 0 0 1-1.5 1.5h-10A1.5 1.5 0 0 1 1 12.5V10a.5.5 0 0 1 .5-.5" clip-rule="evenodd"/><path fill="#444f5c" fill-rule="evenodd" d="M7.5 2a.5.5 0 0 1 .5.5v8a.5.5 0 0 1-1 0v-8a.5.5 0 0 1 .5-.5" clip-rule="evenodd"/><path fill="#444f5c" fill-rule="evenodd" d="M7.146 2.146a.5.5 0 0 1 .708 0l3 3a.5.5 0 0 1-.708.708L7.5 3.207 4.854 5.854a.5.5 0 1 1-.708-.708z" clip-rule="evenodd"/></svg>