<svg xmlns="http://www.w3.org/2000/svg" width="16" height="16" fill="none" viewBox="0 0 16 16"><g fill="#444f5c" clip-path="url(#a)"><path d="M4.302 4.02a.5.5 0 1 0 .707.708L7.5 2.237v8.32a.5.5 0 0 0 1 0v-8.32l2.492 2.491a.5.5 0 0 0 .707-.707L8.354.676a.5.5 0 0 0-.707 0z"/><path d="M15.5 6.758a.5.5 0 0 1 .5.5v6.65a1.5 1.5 0 0 1-1.5 1.5h-13a1.5 1.5 0 0 1-1.5-1.5V7.31a.5.5 0 1 1 1 0v6.596a.5.5 0 0 0 .5.5h13a.5.5 0 0 0 .5-.5V7.258a.5.5 0 0 1 .5-.5"/></g><defs><clipPath id="a"><path fill="#fff" d="M0 0h16v16H0z"/></clipPath></defs></svg>