<svg xmlns="http://www.w3.org/2000/svg" width="16" height="16" fill="none" viewBox="0 0 16 16"><path fill="#444f5c" fill-rule="evenodd" d="M7.5 3a2.5 2.5 0 1 0 0 5 2.5 2.5 0 0 0 0-5M4 5.5a3.5 3.5 0 1 1 7 0 3.5 3.5 0 0 1-7 0" clip-rule="evenodd"/><path fill="#444f5c" fill-rule="evenodd" d="M7.5 9a4.5 4.5 0 0 0-4.41 3.6.29.29 0 0 0 .078.262c.074.08.193.138.332.138h8a.46.46 0 0 0 .332-.138.29.29 0 0 0 .078-.262A4.5 4.5 0 0 0 7.5 9m-5.39 3.4a5.502 5.502 0 0 1 10.78 0c.186.916-.591 1.6-1.39 1.6h-8c-.799 0-1.576-.684-1.39-1.6" clip-rule="evenodd"/></svg>