<svg xmlns="http://www.w3.org/2000/svg" width="16" height="16" fill="none" viewBox="0 0 16 16"><path fill="#444f5c" d="M3.777 2.86A1.5 1.5 0 0 1 5.134 2h5.732a1.5 1.5 0 0 1 1.357.86l.896 1.902a.5.5 0 1 1-.905.426l-.896-1.901A.5.5 0 0 0 10.866 3H5.134a.5.5 0 0 0-.452.287L2.667 7.562V8.6H4.5a.5.5 0 0 1 0 1H2.667v1.75h2.56a.5.5 0 0 1 0 1h-2.56v1.15a.5.5 0 0 1-1 0V7.95H1a.5.5 0 0 1 0-1h.85zM12.5 10.5a.5.5 0 0 0-1 0v1.582a.5.5 0 0 0 .5.5h1.519a.5.5 0 0 0 0-1H12.5z"/><path fill="#444f5c" fill-rule="evenodd" d="M8 12a4 4 0 1 1 8 0 4 4 0 0 1-8 0m4-3a3 3 0 1 0 0 6 3 3 0 0 0 0-6" clip-rule="evenodd"/></svg>