<svg xmlns="http://www.w3.org/2000/svg" width="16" height="16" fill="none" viewBox="0 0 16 16"><g fill="#444f5c" clip-path="url(#a)"><path d="M3.926 10.98a.5.5 0 0 1 .5-.5h7.54a.5.5 0 0 1 0 1h-7.54a.5.5 0 0 1-.5-.5m.5 1.407a.5.5 0 0 0 0 1h3.77a.5.5 0 1 0 0-1z"/><path fill-rule="evenodd" d="M1.674.183a1.5 1.5 0 0 0-1.5 1.5v12.652a1.5 1.5 0 0 0 1.5 1.5h12.652a1.5 1.5 0 0 0 1.5-1.5V1.683a1.5 1.5 0 0 0-1.5-1.5zm-.5 1.5a.5.5 0 0 1 .5-.5h3.289v6.562a.5.5 0 0 0 .853.353l2.215-2.214 2.214 2.214a.5.5 0 0 0 .854-.353V1.183h3.227a.5.5 0 0 1 .5.5v12.652a.5.5 0 0 1-.5.5H1.674a.5.5 0 0 1-.5-.5zm8.925-.5H5.963v5.355l1.714-1.715a.5.5 0 0 1 .707 0L10.1 6.538z" clip-rule="evenodd"/></g><defs><clipPath id="a"><path fill="#fff" d="M0 0h16v16H0z"/></clipPath></defs></svg>