<svg xmlns="http://www.w3.org/2000/svg" width="16" height="16" fill="none" viewBox="0 0 16 16"><g fill="#444f5c" clip-path="url(#a)"><path fill-rule="evenodd" d="M3 3.5a3.5 3.5 0 1 1 7 0 3.5 3.5 0 0 1-7 0M6.5 1a2.5 2.5 0 1 0 0 5 2.5 2.5 0 0 0 0-5" clip-rule="evenodd"/><path d="M5.5 9A4.5 4.5 0 0 0 1 13.5a.5.5 0 0 1-1 0A5.5 5.5 0 0 1 5.5 8H8a.5.5 0 0 1 0 1z"/><path fill-rule="evenodd" d="M12.15 8.286a.7.7 0 0 0-1.3 0l-.674 1.703-1.758.148a.7.7 0 0 0-.41 1.217l1.365 1.229-.416 1.83a.7.7 0 0 0 1.06.744l1.483-.952 1.482.952a.7.7 0 0 0 1.06-.744l-.415-1.83 1.364-1.229a.7.7 0 0 0-.41-1.217l-1.757-.148zm-1.113 2.244.463-1.17.463 1.17a.7.7 0 0 0 .592.44l1.252.105-.98.883a.7.7 0 0 0-.214.675l.292 1.286-1.027-.66a.7.7 0 0 0-.756 0l-1.027.66.292-1.286a.7.7 0 0 0-.215-.675l-.98-.883 1.253-.105a.7.7 0 0 0 .592-.44" clip-rule="evenodd"/></g><defs><clipPath id="a"><path fill="#fff" d="M0 0h16v16H0z"/></clipPath></defs></svg>