<svg xmlns="http://www.w3.org/2000/svg" width="16" height="17" fill="none" viewBox="0 0 16 17"><path fill="#444f5c" fill-rule="evenodd" d="M11.172 11.546c.784 0 1.595-.674 1.367-1.61a4.674 4.674 0 0 0-9.08 0c-.227.936.584 1.61 1.368 1.61zm.396-1.373q.032.135-.066.239a.45.45 0 0 1-.33.134H4.827a.45.45 0 0 1-.33-.134.25.25 0 0 1-.066-.239 3.674 3.674 0 0 1 7.137 0" clip-rule="evenodd"/><path fill="#444f5c" fill-rule="evenodd" d="M8 .472a7.781 7.781 0 1 0 0 15.562A7.781 7.781 0 0 0 8 .472m-6.781 7.78a6.781 6.781 0 1 1 13.562 0 6.781 6.781 0 0 1-13.562 0" clip-rule="evenodd"/></svg>