<svg xmlns="http://www.w3.org/2000/svg" width="24" height="24" fill="none" viewBox="0 0 24 24"><g clip-path="url(#a)"><path fill="#444f5c" d="M1.422 8.417q.163 0 .316.06l8.374 3.281c.51.2.846.692.846 1.24v9.557a.866.866 0 0 1-1.182.806L1.402 20.08c-.51-.2-.846-.692-.846-1.24V9.283c0-.478.388-.866.866-.866m21.156 0c.478 0 .866.388.866.866v9.557c0 .548-.336 1.04-.846 1.24l-8.374 3.281a.866.866 0 0 1-1.182-.806v-9.557c0-.548.336-1.04.846-1.24l8.374-3.281a.9.9 0 0 1 .316-.06M2.056 10.212v8.513l7.402 2.9v-8.513zm19.889 0-7.402 2.9v8.513l7.402-2.9zM11.743.627a.75.75 0 0 1 .529 0l10.687 4.029c.647.244.647 1.16 0 1.404l-10.687 4.029a.75.75 0 0 1-.529 0L1.056 6.06c-.647-.244-.647-1.16 0-1.404zm.264 1.503L3.446 5.357l8.561 3.227 8.561-3.227z"/></g><defs><clipPath id="a"><path fill="#fff" d="M0 0h24v24H0z"/></clipPath></defs></svg>