<svg xmlns="http://www.w3.org/2000/svg" width="16" height="16" fill="none" viewBox="0 0 16 16"><g clip-path="url(#a)"><path fill="#444f5c" fill-rule="evenodd" d="M15.492 2.09a.5.5 0 0 0-.984-.18l-.22 1.193a7.97 7.97 0 1 0 .787 8.57.5.5 0 0 0-.887-.462 6.97 6.97 0 1 1-.67-7.471l-1.438-.233a.5.5 0 0 0-.16.987l2.555.415a.5.5 0 0 0 .572-.403zM5.357 5a.5.5 0 0 1 .5-.5h4.205a.5.5 0 0 1 .5.5v.982a1.5 1.5 0 0 1-.62 1.215l-1.073.776-.028.02.027.018L10 8.799c.403.28.643.74.643 1.231V11a.5.5 0 0 1-.5.5H5.938a.5.5 0 0 1-.5-.5v-.982c0-.48.23-.933.62-1.215l1.073-.776.028-.02-.026-.018L6 7.201a1.5 1.5 0 0 1-.643-1.231zm1 .5v.47a.5.5 0 0 0 .214.41l1.133.788a.5.5 0 0 0 .579-.005l1.072-.776a.5.5 0 0 0 .207-.405V5.5zm3.286 5v-.47a.5.5 0 0 0-.214-.41l-1.133-.788a.5.5 0 0 0-.578.005l-1.073.776a.5.5 0 0 0-.207.405v.482z" clip-rule="evenodd"/></g><defs><clipPath id="a"><path fill="#fff" d="M0 0h16v16H0z"/></clipPath></defs></svg>