<svg xmlns="http://www.w3.org/2000/svg" width="16" height="16" fill="none" viewBox="0 0 16 16"><g clip-path="url(#a)"><path fill="#444f5c" fill-rule="evenodd" d="M.5.99a.5.5 0 0 1 .5-.5h14a.5.5 0 1 1 0 1h-1.992v1.262a5.76 5.76 0 0 1-3.356 5.232 5.95 5.95 0 0 1 3.534 5.434v1.072h1.813a.5.5 0 1 1 0 1H1a.5.5 0 1 1 0-1h1.991v-1.25A5.77 5.77 0 0 1 6.347 8a5.93 5.93 0 0 1-3.534-5.425V1.49H1a.5.5 0 0 1-.5-.5m3.491 13.5h8.195v-1.072c0-2.44-1.78-4.512-4.186-4.885a4.77 4.77 0 0 0-4.01 4.707zm-.178-13h8.195v1.262c0 2.34-1.702 4.33-4.009 4.696a4.93 4.93 0 0 1-4.186-4.873z" clip-rule="evenodd"/></g><defs><clipPath id="a"><path fill="#fff" d="M0 0h16v16H0z"/></clipPath></defs></svg>