<svg xmlns="http://www.w3.org/2000/svg" width="16" height="16" fill="none" viewBox="0 0 16 16"><g fill="#444f5c" clip-path="url(#a)"><path fill-rule="evenodd" d="M8.049.547a3.5 3.5 0 1 0 0 7 3.5 3.5 0 0 0 0-7m-2.5 3.5a2.5 2.5 0 1 1 5 0 2.5 2.5 0 0 1-5 0" clip-rule="evenodd"/><path d="M2.138 15.108A4.86 4.86 0 0 1 7 10.246a.5.5 0 0 0 0-1 5.86 5.86 0 0 0-5.862 5.862v.272a.5.5 0 1 0 1 0zM12.5 10.5a.5.5 0 0 0-1 0v2a.5.5 0 0 0 .5.5h1.5a.5.5 0 0 0 0-1h-1z"/><path fill-rule="evenodd" d="M16 12a4 4 0 1 1-8 0 4 4 0 0 1 8 0m-4 3a3 3 0 1 0 0-6 3 3 0 0 0 0 6" clip-rule="evenodd"/></g><defs><clipPath id="a"><path fill="#fff" d="M0 0h16v16H0z"/></clipPath></defs></svg>