<svg xmlns="http://www.w3.org/2000/svg" width="16" height="16" fill="none" viewBox="0 0 16 16"><path fill="#444f5c" fill-rule="evenodd" d="M2.521 2.101a1.5 1.5 0 0 0-1.5 1.5V12.4a1.5 1.5 0 0 0 1.5 1.5H12.4a1.5 1.5 0 0 0 1.5-1.5V8.5h.58a.5.5 0 0 0 .5-.5V4.76a.5.5 0 0 0-.5-.5h-.58v-.659a1.5 1.5 0 0 0-1.5-1.5zM12.9 4.261V3.6a.5.5 0 0 0-.5-.5H2.52a.5.5 0 0 0-.5.5v8.8a.5.5 0 0 0 .5.5h9.88a.5.5 0 0 0 .5-.5V8.5h-1.66a2.12 2.12 0 1 1 0-4.24zm.513 3.239H11.24a1.12 1.12 0 1 1 0-2.24h2.74V7.5z" clip-rule="evenodd"/></svg>