<svg xmlns="http://www.w3.org/2000/svg" width="16" height="16" fill="none" viewBox="0 0 16 16"><path fill="#444f5c" fill-rule="evenodd" d="M6.687 1.345a1.5 1.5 0 0 1 2.626 0l6.307 11.43A1.5 1.5 0 0 1 14.306 15H1.694A1.5 1.5 0 0 1 .38 12.775zm1.75.484a.5.5 0 0 0-.875 0l-6.306 11.43a.5.5 0 0 0 .438.741h12.612a.5.5 0 0 0 .438-.742z" clip-rule="evenodd"/><path fill="#444f5c" d="M8.047 9.5h-.095a.5.5 0 0 1-.497-.45l-.4-4a.5.5 0 0 1 .497-.55h.895a.5.5 0 0 1 .498.55l-.4 4a.5.5 0 0 1-.498.45M9 12a1 1 0 1 1-2 0 1 1 0 0 1 2 0"/></svg>