<svg xmlns="http://www.w3.org/2000/svg" width="16" height="16" fill="none" viewBox="0 0 16 16"><path fill="#444f5c" fill-rule="evenodd" d="M14.565 3.51a7.953 7.953 0 1 0 .152.23.5.5 0 0 0-.152-.23m-7.37-2.418a7 7 0 0 1 1.465-.015 8.3 8.3 0 0 1 1.725 2.312H5.487a8.3 8.3 0 0 1 1.708-2.297M4.378 3.39a10 10 0 0 1 1.099-1.87 7 7 0 0 0-2.682 1.87zm-2.322 1h1.932a11.4 11.4 0 0 0-.567 3.132H1.186a.5.5 0 0 0-.124.015 6.9 6.9 0 0 1 .994-3.147m-.991 4.117c.08 1.11.42 2.147.96 3.052h1.946a11.4 11.4 0 0 1-.548-3.037H1.186a.5.5 0 0 1-.121-.015m3.36.015c.051 1.08.263 2.103.604 3.037h5.814a10.3 10.3 0 0 0 .604-3.037zm8.024 0a11.4 11.4 0 0 1-.548 3.037h2.073a6.9 6.9 0 0 0 .96-3.043l-.073.006zm2.488-.995-.076-.005h-2.41a11.4 11.4 0 0 0-.567-3.132h2.06c.563.926.916 1.994.993 3.137m-3.487-.005H4.422c.05-1.117.27-2.173.626-3.132h5.776c.356.96.576 2.015.626 3.132m-8.7 5.037h1.605a10 10 0 0 0 1.122 1.922 7 7 0 0 1-2.728-1.922m7.661 0H5.46a8.3 8.3 0 0 0 1.734 2.348 7 7 0 0 0 1.465.015 8.3 8.3 0 0 0 1.751-2.363m-.067 1.989a9.8 9.8 0 0 0 1.173-1.99h1.733a6.96 6.96 0 0 1-2.906 1.99m2.86-11.158h-1.71a9.8 9.8 0 0 0-1.15-1.937 6.96 6.96 0 0 1 2.86 1.937" clip-rule="evenodd"/></svg>