<svg xmlns="http://www.w3.org/2000/svg" width="16" height="16" fill="none" viewBox="0 0 16 16"><path fill="#444f5c" d="M1.277 6.041a10.17 10.17 0 0 1 13.446 0 .5.5 0 0 0 .661-.75 11.17 11.17 0 0 0-14.768 0 .5.5 0 0 0 .661.75"/><path fill="#444f5c" d="M3.653 8.417a6.83 6.83 0 0 1 8.747 0 .5.5 0 0 0 .64-.769 7.83 7.83 0 0 0-10.027 0 .5.5 0 0 0 .64.769m4.351 1.75a3.5 3.5 0 0 0-2.028.647.5.5 0 0 1-.579-.815 4.5 4.5 0 0 1 5.213 0 .5.5 0 1 1-.58.815 3.5 3.5 0 0 0-2.026-.647M8 11.999a1 1 0 1 0 0 2h.007a1 1 0 1 0 0-2z"/></svg>