<svg xmlns="http://www.w3.org/2000/svg" width="16" height="16" fill="none" viewBox="0 0 16 16"><g clip-path="url(#a)"><path fill="#444f5c" fill-rule="evenodd" d="M2.173 1.534a.14.14 0 0 1 .097-.04h7.16a.5.5 0 0 0-.02.137v3.82a.5.5 0 0 0 .5.5h3.82a.5.5 0 0 0 .137-.019v1.43a.5.5 0 1 0 1 0V5.864a1.5 1.5 0 0 0-.44-1.06L10.558.933A1.5 1.5 0 0 0 9.496.494H2.27a1.137 1.137 0 0 0-1.137 1.137v5.73a.5.5 0 0 0 1 0v-5.73q0-.056.04-.097m8.237 3.417v-2.75l2.75 2.75zm-2.547 5.594a.5.5 0 0 0-1 0v4.457a.5.5 0 0 0 .5.5h2.229a.5.5 0 0 0 0-1H7.863zm-5.823-.29a.5.5 0 0 0-.814.58l1.384 1.938-1.384 1.938a.5.5 0 0 0 .814.582l1.185-1.66 1.185 1.66a.5.5 0 0 0 .813-.582L3.84 12.773l1.384-1.937a.5.5 0 1 0-.813-.582l-1.185 1.66zm10.398-.021a1.5 1.5 0 0 0 0 3h.866a.633.633 0 1 1 0 1.266H11.5a.5.5 0 0 0 0 1h1.804a1.633 1.633 0 1 0 0-3.266h-.867a.5.5 0 0 1 0-1H14.2a.5.5 0 0 0 0-1z" clip-rule="evenodd"/></g><defs><clipPath id="a"><path fill="#fff" d="M0 0h16v16H0z"/></clipPath></defs></svg>