<svg xmlns="http://www.w3.org/2000/svg" width="16" height="16" fill="none" viewBox="0 0 16 16"><path fill="#444f5c" d="M9.588 6.727a.5.5 0 0 1-.5.5H7.227v1.862a.5.5 0 0 1-1 0V7.227H4.364a.5.5 0 0 1 0-1h1.862V4.365a.5.5 0 1 1 1 0v1.862h1.862a.5.5 0 0 1 .5.5"/><path fill="#444f5c" fill-rule="evenodd" d="M6.726.875a5.851 5.851 0 1 0 3.768 10.328l3.776 3.776a.5.5 0 1 0 .707-.707L11.2 10.496A5.851 5.851 0 0 0 6.726.875M1.874 6.726a4.851 4.851 0 1 1 9.703 0 4.851 4.851 0 0 1-9.703 0" clip-rule="evenodd"/></svg>