<svg xmlns="http://www.w3.org/2000/svg" width="17" height="17" fill="none" viewBox="0 0 17 17"><path fill="#444f5c" d="M5.555 8.865c.196-.097.535-.189.988-.254.442-.063.955-.095 1.473-.095.517 0 1.03.032 1.472.095.453.065.792.157.988.254a.5.5 0 1 0 .447-.894c-.34-.17-.807-.28-1.293-.35a12 12 0 0 0-1.614-.105c-.556 0-1.117.034-1.614.105-.487.07-.953.18-1.294.35a.5.5 0 0 0 .447.894"/><path fill="#444f5c" fill-rule="evenodd" d="M0 8.016a8.016 8.016 0 1 1 16.031 0A8.016 8.016 0 0 1 0 8.016M8.016 1a7.02 7.02 0 0 0-6.641 4.748 19.94 19.94 0 0 1 13.282 0A7.02 7.02 0 0 0 8.016 1M1 8.016q0-.57.088-1.113a.5.5 0 0 0 .128-.031 18.94 18.94 0 0 1 13.599 0 .5.5 0 0 0 .129.03 7.1 7.1 0 0 1-.108 2.763 5.33 5.33 0 0 0-5.17 5.171 7 7 0 0 1-3.3 0 5.33 5.33 0 0 0-5.17-5.17A7 7 0 0 1 1 8.015m9.69 6.487a4.334 4.334 0 0 1 3.813-3.812 7.04 7.04 0 0 1-3.812 3.812M1.529 10.69a7.04 7.04 0 0 0 3.813 3.812 4.33 4.33 0 0 0-3.813-3.812" clip-rule="evenodd"/></svg>