<svg xmlns="http://www.w3.org/2000/svg" width="16" height="16" fill="none" viewBox="0 0 16 16"><path fill="#444f5c" fill-rule="evenodd" d="M3 1.008a1.5 1.5 0 0 0-1.5 1.5v10.985a1.5 1.5 0 0 0 1.5 1.5h1.481a.5.5 0 0 0 0-1H3a.5.5 0 0 1-.5-.5V2.508a.5.5 0 0 1 .5-.5h8a.5.5 0 0 1 .5.5V3.5a.5.5 0 0 0 1 0v-.992a1.5 1.5 0 0 0-1.5-1.5zM11 16a5 5 0 1 0 0-10 5 5 0 0 0 0 10m4-5a4 4 0 1 1-8 0 4 4 0 0 1 8 0M4 4a.5.5 0 0 1 .5-.5h4a.5.5 0 0 1 0 1h-4A.5.5 0 0 1 4 4m7.5 5a.5.5 0 0 0-1 0v2.793l-.413-.413a.5.5 0 0 0-.707.707l1.266 1.267a.5.5 0 0 0 .708 0l1.266-1.267a.5.5 0 0 0-.707-.707l-.413.413z" clip-rule="evenodd"/></svg>