<svg xmlns="http://www.w3.org/2000/svg" width="16" height="16" fill="none" viewBox="0 0 16 16"><g clip-path="url(#a)"><path fill="#444f5c" d="M13.66 13.66A7.98 7.98 0 0 0 16 8a7.98 7.98 0 0 0-2.34-5.66A7.98 7.98 0 0 0 8 0a7.98 7.98 0 0 0-5.66 2.34A7.98 7.98 0 0 0 0 8c0 2.208.892 4.212 2.34 5.66A7.98 7.98 0 0 0 8 16a7.98 7.98 0 0 0 5.66-2.34m-4.577-2.574c0 .599-.483 1.097-1.082 1.097a1.106 1.106 0 0 1-1.097-1.097c0-.6.497-1.082 1.097-1.082s1.082.483 1.082 1.082M8 8.907c-.395 0-.688-.322-.731-.731l-.366-3.261C6.844 4.344 7.444 3.818 8 3.818s1.156.526 1.082 1.097l-.351 3.261c-.044.409-.336.731-.731.731"/></g><defs><clipPath id="a"><path fill="#fff" d="M0 0h16v16H0z"/></clipPath></defs></svg>