<svg xmlns="http://www.w3.org/2000/svg" width="17" height="17" fill="none" viewBox="0 0 17 17"><path fill="#444f5c" d="M15.52 0a.5.5 0 0 0-.5.5v15.02a.5.5 0 1 0 1 0V.5a.5.5 0 0 0-.5-.5"/><path fill="#444f5c" fill-rule="evenodd" d="M13.516 9.01a1.5 1.5 0 0 0-1.5-1.5H1.5A1.5 1.5 0 0 0 0 9.01v4.258a1.5 1.5 0 0 0 1.5 1.5h10.516a1.5 1.5 0 0 0 1.5-1.5zm-1.5-.5a.5.5 0 0 1 .5.5v4.258a.5.5 0 0 1-.5.5H1.5a.5.5 0 0 1-.5-.5V9.01a.5.5 0 0 1 .5-.5zm0-7.259a1.5 1.5 0 0 1 1.5 1.5v1.755a1.5 1.5 0 0 1-1.5 1.5h-5.51a1.5 1.5 0 0 1-1.5-1.5V2.751a1.5 1.5 0 0 1 1.5-1.5zm.5 1.5a.5.5 0 0 0-.5-.5h-5.51a.5.5 0 0 0-.5.5v1.755a.5.5 0 0 0 .5.5h5.51a.5.5 0 0 0 .5-.5z" clip-rule="evenodd"/></svg>