<svg xmlns="http://www.w3.org/2000/svg" width="16" height="16" fill="none" viewBox="0 0 16 16"><path fill="#444f5c" d="M2 1.5a.5.5 0 0 1 .5.5v12a.5.5 0 0 1-1 0V2a.5.5 0 0 1 .5-.5"/><path fill="#444f5c" fill-rule="evenodd" d="M3.5 9A1.5 1.5 0 0 1 5 7.5h9A1.5 1.5 0 0 1 15.5 9v3a1.5 1.5 0 0 1-1.5 1.5H5A1.5 1.5 0 0 1 3.5 12zM5 8.5a.5.5 0 0 0-.5.5v3a.5.5 0 0 0 .5.5h9a.5.5 0 0 0 .5-.5V9a.5.5 0 0 0-.5-.5zm0-6A1.5 1.5 0 0 0 3.5 4v1A1.5 1.5 0 0 0 5 6.5h4A1.5 1.5 0 0 0 10.5 5V4A1.5 1.5 0 0 0 9 2.5zM4.5 4a.5.5 0 0 1 .5-.5h4a.5.5 0 0 1 .5.5v1a.5.5 0 0 1-.5.5H5a.5.5 0 0 1-.5-.5z" clip-rule="evenodd"/></svg>