<svg xmlns="http://www.w3.org/2000/svg" width="16" height="16" fill="none" viewBox="0 0 16 16"><g fill="#444f5c" clip-path="url(#a)"><path d="M5.07 8a.5.5 0 0 1 .5-.5h4.828a.5.5 0 1 1 0 1H5.57a.5.5 0 0 1-.5-.5"/><path fill-rule="evenodd" d="M1.9.5A1.5 1.5 0 0 0 .4 2v1a1.5 1.5 0 0 0 1 1.415V14a1.5 1.5 0 0 0 1.5 1.5h10a1.5 1.5 0 0 0 1.5-1.5V4.415A1.5 1.5 0 0 0 15.4 3V2A1.5 1.5 0 0 0 13.9.5zm11.5 4h-11V14a.5.5 0 0 0 .5.5h10a.5.5 0 0 0 .5-.5zm.5-1a.5.5 0 0 0 .5-.5V2a.5.5 0 0 0-.5-.5h-12a.5.5 0 0 0-.5.5v1a.5.5 0 0 0 .5.5z" clip-rule="evenodd"/></g><defs><clipPath id="a"><path fill="#fff" d="M0 0h16v16H0z"/></clipPath></defs></svg>