<svg xmlns="http://www.w3.org/2000/svg" width="16" height="16" fill="none" viewBox="0 0 16 16"><path fill="#444f5c" d="M8.717 4H7.283a.25.25 0 0 0-.248.281l.461 3.688a.3.3 0 0 1 0 .062l-.46 3.688a.25.25 0 0 0 .247.281h1.434a.25.25 0 0 0 .248-.281l-.461-3.688a.3.3 0 0 1 0-.062l.46-3.688A.25.25 0 0 0 8.718 4"/><path fill="#444f5c" d="m4.894 5.38-.717 1.24a.25.25 0 0 0 .12.356L7.72 8.421a.3.3 0 0 1 .054.03l2.963 2.244a.25.25 0 0 0 .368-.074l.716-1.242a.25.25 0 0 0-.119-.355L8.28 7.579a.3.3 0 0 1-.054-.03L5.262 5.304a.25.25 0 0 0-.368.074"/><path fill="#444f5c" d="m11.823 6.62-.717-1.24a.25.25 0 0 0-.368-.075L7.775 7.548a.3.3 0 0 1-.054.031L4.297 9.024a.25.25 0 0 0-.12.355l.717 1.242a.25.25 0 0 0 .368.074l2.963-2.243a.3.3 0 0 1 .054-.031l3.424-1.445a.25.25 0 0 0 .12-.355"/></svg>