<svg xmlns="http://www.w3.org/2000/svg" width="16" height="16" fill="none" viewBox="0 0 16 16"><g fill="#444f5c" clip-path="url(#a)"><path d="M8.5 4a.5.5 0 0 0-1 0v8a.5.5 0 0 0 1 0zM4 3.5a.5.5 0 0 1 .5.5v8a.5.5 0 0 1-1 0V4a.5.5 0 0 1 .5-.5m8.5.5a.5.5 0 0 0-1 0v8a.5.5 0 0 0 1 0z"/><path fill-rule="evenodd" d="M1.57.032a1.5 1.5 0 0 0-1.5 1.5v12.936a1.5 1.5 0 0 0 1.5 1.5h12.86a1.5 1.5 0 0 0 1.5-1.5V1.532a1.5 1.5 0 0 0-1.5-1.5zm-.5 1.5a.5.5 0 0 1 .5-.5h12.86a.5.5 0 0 1 .5.5v12.936a.5.5 0 0 1-.5.5H1.57a.5.5 0 0 1-.5-.5z" clip-rule="evenodd"/></g><defs><clipPath id="a"><path fill="#fff" d="M0 0h16v16H0z"/></clipPath></defs></svg>