<svg xmlns="http://www.w3.org/2000/svg" width="16" height="16" fill="none" viewBox="0 0 16 16"><path fill="#444f5c" d="M3.354 3.354a6.57 6.57 0 0 1 9.704.451l-2.363-.337a.5.5 0 0 0-.142.99l3.5.5a.5.5 0 0 0 .566-.425l.024-.166h.001v-.002l.475-3.332a.5.5 0 1 0-.99-.141l-.321 2.25a7.571 7.571 0 1 0 .914 8.346.5.5 0 0 0-.888-.46 6.57 6.57 0 1 1-10.48-7.674"/><path fill="#444f5c" fill-rule="evenodd" d="M8.487 4.757a.5.5 0 0 0-.92.002l-2.57 6.095a.5.5 0 1 0 .922.388l.54-1.282h3.158l.547 1.284a.5.5 0 0 0 .92-.392zm.704 4.203h-2.31L8.03 6.234z" clip-rule="evenodd"/></svg>