<svg xmlns="http://www.w3.org/2000/svg" width="16" height="16" fill="none" viewBox="0 0 16 16"><path fill="#444f5c" d="M4.523 9.993a.5.5 0 0 1 .5-.5h5.952a.5.5 0 0 1 0 1H5.023a.5.5 0 0 1-.5-.5m0 2.51a.5.5 0 0 1 .5-.5h5.952a.5.5 0 0 1 0 1H5.023a.5.5 0 0 1-.5-.5"/><path fill="#444f5c" fill-rule="evenodd" d="M3 .5A1.5 1.5 0 0 0 1.5 2v12A1.5 1.5 0 0 0 3 15.5h10a1.5 1.5 0 0 0 1.5-1.5V5.468a1.5 1.5 0 0 0-.54-1.152L9.798.848A1.5 1.5 0 0 0 8.838.5zM2.5 2a.5.5 0 0 1 .5-.5h5.7v2.638a1.5 1.5 0 0 0 1.5 1.5h3.3V14a.5.5 0 0 1-.5.5H3a.5.5 0 0 1-.5-.5zm10.283 2.638-3.082-2.57v2.07a.5.5 0 0 0 .5.5z" clip-rule="evenodd"/></svg>