<svg xmlns="http://www.w3.org/2000/svg" width="16" height="16" fill="none" viewBox="0 0 16 16"><path fill="#444f5c" fill-rule="evenodd" d="M1.5 5a.5.5 0 0 1 .5-.5h3.33A2 2 0 0 1 6.653 8a2 2 0 0 1-1.323 3.5H2a.5.5 0 0 1-.5-.5zm1 .5v2h2.83a1 1 0 1 0 0-2zm0 3v2h2.83a1 1 0 1 0 0-2z" clip-rule="evenodd"/><path fill="#444f5c" d="M9.128 8c0-1.372 1.136-2.5 2.557-2.5.777 0 1.471.338 1.94.87a.5.5 0 0 0 .75-.66 3.58 3.58 0 0 0-2.69-1.21C9.73 4.5 8.128 6.058 8.128 8s1.602 3.5 3.557 3.5a3.58 3.58 0 0 0 2.69-1.21.5.5 0 1 0-.75-.66 2.58 2.58 0 0 1-1.94.87c-1.421 0-2.557-1.128-2.557-2.5"/></svg>