<svg xmlns="http://www.w3.org/2000/svg" width="16" height="16" fill="none" viewBox="0 0 16 16"><path fill="#444f5c" d="M15.246 8.914q0 .239-.12.52a1.87 1.87 0 0 1-1.015.98 2.3 2.3 0 0 1-.916.168q-.396 0-.721-.076a2 2 0 0 1-.592-.232 2 2 0 0 1-.485-.42 2.5 2.5 0 0 1-.338-.527 3 3 0 0 1-.212-.625 3.5 3.5 0 0 1-.069-.704q0-.606.175-1.084.177-.478.506-.817.328-.341.768-.52a2.5 2.5 0 0 1 .94-.177q.609 0 1.084.243.476.242.728.601.253.356.253.673a.44.44 0 0 1-.123.308.4.4 0 0 1-.297.133q-.195 0-.294-.092a1.3 1.3 0 0 1-.216-.318 1.5 1.5 0 0 0-.468-.557 1.13 1.13 0 0 0-.66-.184q-.626 0-.998.475-.369.474-.369 1.35 0 .585.164.974.164.386.465.578.3.19.704.19.438.001.738-.214.305-.22.458-.64.066-.198.161-.32.096-.127.308-.127a.43.43 0 0 1 .31.126q.13.127.13.315"/><path fill="#444f5c" fill-rule="evenodd" d="M6.424 5.485h1.323q.516 0 .885.096.37.095.67.359.783.67.783 2.037 0 .45-.08.824a2.5 2.5 0 0 1-.242.673q-.165.297-.42.533a1.7 1.7 0 0 1-.441.29 2 2 0 0 1-.516.155q-.274.045-.619.044H6.444q-.276 0-.417-.082a.4.4 0 0 1-.184-.236 1.6 1.6 0 0 1-.041-.396V6.107q0-.328.147-.475t.475-.147m.393.804v3.4h.769q.253 0 .396-.013.144-.014.298-.069a.8.8 0 0 0 .266-.153q.51-.432.51-1.484 0-.742-.226-1.11-.222-.37-.55-.469a2.7 2.7 0 0 0-.793-.102zm-5.452 4.207h1.531q.397 0 .694-.037.298-.042.527-.137.366-.16.58-.496.216-.338.216-.759 0-.91-.988-1.223.753-.35.752-1.1a1.2 1.2 0 0 0-.28-.773q-.137-.165-.314-.27a1.3 1.3 0 0 0-.472-.171 4 4 0 0 0-.622-.045H1.365q-.324 0-.471.147-.144.144-.144.475v3.767q0 .324.14.475.144.147.475.147m.4-2.225h1.056q.53 0 .797.17.266.172.266.551 0 .742-1.029.742h-1.09zm0-.728V6.248h.824q.554 0 .824.126.27.123.27.502a.6.6 0 0 1-.086.322.56.56 0 0 1-.318.273q-.204.072-.584.072z" clip-rule="evenodd"/></svg>