<svg xmlns="http://www.w3.org/2000/svg" width="32" height="32" fill="none" viewBox="0 0 32 32"><g fill="#444f5c" clip-path="url(#a)"><path d="M25.002 14.968a3.33 3.33 0 0 0-3.325 3.331.8.8 0 0 0 .797.798.8.8 0 0 0 .797-.798c0-.957.783-1.741 1.738-1.741a.8.8 0 0 0 .797-.798.805.805 0 0 0-.804-.792"/><path d="M29.828 12.967a8 8 0 0 0-.564-.494l-2.691-2.292a7.05 7.05 0 0 0-3.61-1.298l.144.145-1.634-1.647h-.013a2.556 2.556 0 0 0-4.161 1.106 2.33 2.33 0 0 0-1.122-.362c-.066-.007-.138-.007-.203-.007-.466 0-.899.138-1.267.369a2.565 2.565 0 0 0-2.435-1.772c-.663 0-1.267.25-1.726.672h-.013l-1.49 1.502a7.1 7.1 0 0 0-3.61 1.298l-2.691 2.292a6 6 0 0 0-.564.494 7.15 7.15 0 0 0-2.179 5.151c0 3.952 3.203 7.166 7.14 7.166 3.636 0 6.648-2.747 7.081-6.284a3.55 3.55 0 0 0 1.779.474 3.54 3.54 0 0 0 1.779-.474c.44 3.53 3.445 6.277 7.081 6.277 3.938 0 7.14-3.214 7.14-7.166a7.12 7.12 0 0 0-2.172-5.151zM7.14 23.011c-2.691 0-4.87-2.187-4.87-4.887s2.179-4.887 4.87-4.887 4.87 2.187 4.87 4.887a4.876 4.876 0 0 1-4.87 4.887m8.867-5.559a1.585 1.585 0 0 1-1.582-1.587c0-.876.709-1.587 1.582-1.587s1.582.711 1.582 1.587-.709 1.587-1.582 1.587m8.866 5.559c-2.691 0-4.87-2.187-4.87-4.887s2.179-4.887 4.87-4.887 4.87 2.187 4.87 4.887c0 2.694-2.179 4.887-4.87 4.887"/><path d="M7.454 14.968a3.33 3.33 0 0 0-3.325 3.331.8.8 0 0 0 .797.798.8.8 0 0 0 .797-.798c0-.957.783-1.741 1.738-1.741a.8.8 0 0 0 .797-.798.805.805 0 0 0-.804-.792"/></g><defs><clipPath id="a"><path fill="#fff" d="M0 0h32v32H0z"/></clipPath></defs></svg>