<svg xmlns="http://www.w3.org/2000/svg" width="16" height="16" fill="none" viewBox="0 0 16 16"><path fill="#444f5c" d="M7.661.396a.5.5 0 0 0-.853.354v4.5a.5.5 0 1 0 1 0V1.957l1.646 1.647a.5.5 0 0 0 .707-.708z"/><path fill="#444f5c" fill-rule="evenodd" d="M13.336 3.62a.5.5 0 1 0-.672-.74l-1.46 1.326-.04.034-9.5 8.64a.5.5 0 0 0 .672.74l1.46-1.328.04-.032L7.309 9.1v6.15a.5.5 0 0 0 .836.37l3.692-3.36a.5.5 0 0 0 0-.74L8.308 8.31v-.12zm-2.579 8.27-2.45 2.229V9.66z" clip-rule="evenodd"/><path fill="#444f5c" d="M2.646 3.756a.5.5 0 0 1 .708 0l2.64 2.64a.5.5 0 1 1-.708.707l-2.64-2.64a.5.5 0 0 1 0-.707"/></svg>