<svg xmlns="http://www.w3.org/2000/svg" width="16" height="16" fill="none" viewBox="0 0 16 16"><path fill="#444f5c" fill-rule="evenodd" d="M7.809.538a.5.5 0 0 1 .545.108l3.5 3.5a.5.5 0 0 1 0 .708L8.707 8l3.147 3.146a.5.5 0 0 1 0 .708l-3.5 3.5A.5.5 0 0 1 7.5 15V9.207l-2.646 2.647a.5.5 0 0 1-.708-.707L7.293 8 4.146 4.854a.5.5 0 1 1 .708-.708L7.5 6.793V1a.5.5 0 0 1 .309-.462m.691 8.67 2.293 2.292L8.5 13.793zm0-7L10.793 4.5 8.5 6.793zM16 8a2.167 2.167 0 1 1-4.333 0A2.167 2.167 0 0 1 16 8m-2.166 1.167a1.167 1.167 0 1 0 0-2.334 1.167 1.167 0 0 0 0 2.334m-11.667 1a2.167 2.167 0 1 0 0-4.334 2.167 2.167 0 0 0 0 4.334M3.333 8A1.167 1.167 0 1 1 1 8a1.167 1.167 0 0 1 2.333 0" clip-rule="evenodd"/></svg>