<svg xmlns="http://www.w3.org/2000/svg" width="16" height="16" fill="none" viewBox="0 0 16 16"><g clip-path="url(#a)"><path fill="#444f5c" fill-rule="evenodd" d="M5.27 14.986a7.5 7.5 0 0 0 9.506-3.772.5.5 0 1 0-.903-.428 6.498 6.498 0 0 1-11.204.933A6.5 6.5 0 0 1 7.536 1.517a.5.5 0 0 0-.072-.998A7.5 7.5 0 0 0 5.27 14.986m5.07-7.894c.24.62.835 1.289 1.686 1.256l1.989-.075c.805-.03 1.526-.729 1.363-1.62a7.5 7.5 0 0 0-3.749-5.217c-.793-.438-1.685.023-1.97.776l-.706 1.861c-.302.797.143 1.573.653 1.998a2.5 2.5 0 0 1 .734 1.021m1.648.257c-.252.01-.556-.207-.716-.618a3.5 3.5 0 0 0-1.026-1.428c-.338-.282-.447-.64-.358-.876l.706-1.86c.106-.28.377-.352.551-.256a6.5 6.5 0 0 1 3.25 4.522c.035.195-.12.43-.418.441zm-5.08 3.445a3 3 0 0 0 3.256-.716.5.5 0 1 1 .72.693 4 4 0 1 1-4.489-6.435.5.5 0 1 1 .401.916 3 3 0 0 0 .112 5.542M9 8a1 1 0 1 1-2 0 1 1 0 0 1 2 0" clip-rule="evenodd"/></g><defs><clipPath id="a"><path fill="#fff" d="M0 0h16v16H0z"/></clipPath></defs></svg>