<svg xmlns="http://www.w3.org/2000/svg" width="16" height="16" fill="none" viewBox="0 0 16 16"><g fill="#444f5c" clip-path="url(#a)"><path d="M8 0a.5.5 0 0 1 .5.5v1.071a.5.5 0 0 1-1 0V.5A.5.5 0 0 1 8 0"/><path fill-rule="evenodd" d="M8 12a4 4 0 1 0 0-8 4 4 0 0 0 0 8m0-1a3 3 0 1 0 0-6 3 3 0 0 0 0 6" clip-rule="evenodd"/><path d="M8.5 14.429a.5.5 0 0 0-1 0V15.5a.5.5 0 1 0 1 0zm5.156-.772a.5.5 0 0 1-.707 0l-.884-.884a.5.5 0 1 1 .707-.707l.884.884a.5.5 0 0 1 0 .707M3.228 3.934a.5.5 0 0 0 .707-.707l-.884-.884a.5.5 0 0 0-.707.707zm10.428-1.59a.5.5 0 0 1 0 .707l-.884.884a.5.5 0 1 1-.707-.707l.884-.884a.5.5 0 0 1 .707 0M3.935 12.773a.5.5 0 1 0-.707-.707l-.884.883a.5.5 0 1 0 .707.707zM16 8a.5.5 0 0 1-.5.5h-1.071a.5.5 0 1 1 0-1H15.5a.5.5 0 0 1 .5.5m-14.429.5a.5.5 0 0 0 0-1H.5a.5.5 0 0 0 0 1z"/></g><defs><clipPath id="a"><path fill="#fff" d="M0 0h16v16H0z"/></clipPath></defs></svg>