<svg xmlns="http://www.w3.org/2000/svg" width="16" height="16" fill="none" viewBox="0 0 16 16"><path fill="#444f5c" d="M4.301 15.438a9.3 9.3 0 0 0 6.232-.127l-.355-.935c-1.38.525-2.9.67-4.372.413 1.385-.182 2.808-.616 3.972-1.485 1.483-1.108 2.434-2.84 2.434-5.304s-.95-4.197-2.434-5.304c-1.164-.87-2.587-1.303-3.972-1.485a8.3 8.3 0 0 1 4.372.413c1.4.533 2.584 1.43 3.41 2.568A6.47 6.47 0 0 1 14.848 8a6.47 6.47 0 0 1-1.26 3.808c-.826 1.137-2.01 2.035-3.41 2.568l.356.934c1.573-.599 2.917-1.613 3.863-2.914A7.47 7.47 0 0 0 15.847 8a7.47 7.47 0 0 0-1.45-4.396c-.946-1.302-2.29-2.316-3.863-2.915A9.3 9.3 0 0 0 4.3.562c-.966.323-.512 1.502.505 1.56 3.121.175 6.406 1.533 6.406 5.878s-3.285 5.702-6.406 5.878c-1.017.057-1.471 1.237-.505 1.56"/></svg>