<svg xmlns="http://www.w3.org/2000/svg" width="16" height="16" fill="none" viewBox="0 0 16 16"><g fill="#444f5c" fill-rule="evenodd" clip-path="url(#a)" clip-rule="evenodd"><path d="M.49 4.984a4.484 4.484 0 1 1 8.967 0 4.484 4.484 0 0 1-8.968 0M4.972 1.5a3.484 3.484 0 1 0 0 6.968 3.484 3.484 0 0 0 0-6.968m4.472 8.95a3.033 3.033 0 1 1 6.066 0 3.033 3.033 0 0 1-6.066 0m3.033-2.033a2.033 2.033 0 1 0 0 4.067 2.033 2.033 0 0 0 0-4.067m-7.015 3.097a1.993 1.993 0 1 0 0 3.986 1.993 1.993 0 0 0 0-3.986m-.993 1.993a.993.993 0 1 1 1.986 0 .993.993 0 0 1-1.986 0"/></g><defs><clipPath id="a"><path fill="#fff" d="M0 0h16v16H0z"/></clipPath></defs></svg>