<svg xmlns="http://www.w3.org/2000/svg" width="16" height="16" fill="none" viewBox="0 0 16 16"><path fill="#444f5c" d="M4.5 4.5A.5.5 0 0 1 5 4h2a.5.5 0 0 1 0 1H5a.5.5 0 0 1-.5-.5m0 2.145a.5.5 0 0 1 .5-.5h2a.5.5 0 0 1 0 1H5a.5.5 0 0 1-.5-.5"/><path fill="#444f5c" fill-rule="evenodd" d="M3 1a1.5 1.5 0 0 0-1.5 1.5V14H1a.5.5 0 0 0 0 1h14a.5.5 0 0 0 0-1h-.5V6.5A1.5 1.5 0 0 0 13 5h-2.5V2.5A1.5 1.5 0 0 0 9 1zm10.5 13V6.5A.5.5 0 0 0 13 6h-2.5v8zm-4 0V2.5A.5.5 0 0 0 9 2H3a.5.5 0 0 0-.5.5V14z" clip-rule="evenodd"/></svg>