<svg xmlns="http://www.w3.org/2000/svg" width="16" height="16" fill="none" viewBox="0 0 16 16"><path fill="#444f5c" d="M12.191 4.476a.5.5 0 0 1 .05.705L8.721 9.22a.5.5 0 0 1-.752.001L6.5 7.546a.5.5 0 0 1 .75-.66l1.094 1.246 3.142-3.608a.5.5 0 0 1 .705-.048"/><path fill="#444f5c" fill-rule="evenodd" d="M3.876 1.617a1.5 1.5 0 0 1 1.5-1.5h7.986a1.5 1.5 0 0 1 1.5 1.5v10.51a1.5 1.5 0 0 1-1.5 1.5H4.376a.5.5 0 0 1-.5-.5zm1.5-.5a.5.5 0 0 0-.5.5v11.01h8.486a.5.5 0 0 0 .5-.5V1.617a.5.5 0 0 0-.5-.5z" clip-rule="evenodd"/><path fill="#444f5c" d="M2.622 2.873a.5.5 0 1 0-1 0v11.51a1.5 1.5 0 0 0 1.5 1.5h9.88a.5.5 0 1 0 0-1h-9.88a.5.5 0 0 1-.5-.5z"/></svg>