<svg xmlns="http://www.w3.org/2000/svg" width="16" height="16" fill="none" viewBox="0 0 16 16"><g fill="#444f5c" fill-rule="evenodd" clip-path="url(#a)" clip-rule="evenodd"><path d="M1.5 3a.5.5 0 0 0-.5.5v9a.5.5 0 0 0 .5.5h13a.5.5 0 0 0 .5-.5v-9a.5.5 0 0 0-.5-.5zM0 3.5A1.5 1.5 0 0 1 1.5 2h13A1.5 1.5 0 0 1 16 3.5v9a1.5 1.5 0 0 1-1.5 1.5h-13A1.5 1.5 0 0 1 0 12.5z"/><path d="M.036 4.814a.5.5 0 0 1 .65-.278l7.128 2.851a.5.5 0 0 0 .372 0l7.128-2.851a.5.5 0 1 1 .372.928L8.557 8.316a1.5 1.5 0 0 1-1.114 0L.314 5.464a.5.5 0 0 1-.278-.65M5.5 1a.5.5 0 0 0-.5.5v1a.5.5 0 0 1-1 0v-1A1.5 1.5 0 0 1 5.5 0h5A1.5 1.5 0 0 1 12 1.5v1a.5.5 0 1 1-1 0v-1a.5.5 0 0 0-.5-.5zM7 10.5a.5.5 0 0 1 .5-.5h1a.5.5 0 0 1 0 1h-1a.5.5 0 0 1-.5-.5"/></g><defs><clipPath id="a"><path fill="#fff" d="M0 0h16v16H0z"/></clipPath></defs></svg>