<svg xmlns="http://www.w3.org/2000/svg" width="16" height="16" fill="none" viewBox="0 0 16 16"><path fill="#444f5c" fill-rule="evenodd" d="M5.485 1.603C5.186.926 4.39.519 3.645.836c-1.32.562-2.19 1.39-2.674 2.39-.48.99-.56 2.101-.389 3.196.338 2.174 1.675 4.4 3.1 5.848 2.633 2.676 5.044 3.461 7.056 3.174 1.99-.284 3.455-1.6 4.252-2.856.478-.753.062-1.631-.632-1.956l-2.831-1.325a1.5 1.5 0 0 0-1.612.219l-1.134.971a.5.5 0 0 1-.682-.029L5.651 7.977a.5.5 0 0 1-.034-.663l.97-1.213a1.5 1.5 0 0 0 .202-1.543zm-1.45.154c.18-.076.427.006.535.25l1.304 2.955a.5.5 0 0 1-.067.514l-.97 1.213a1.5 1.5 0 0 0 .1 1.989l2.449 2.49a1.5 1.5 0 0 0 2.046.089l1.134-.971a.5.5 0 0 1 .537-.074l2.831 1.326a.46.46 0 0 1 .239.25q.05.137-.027.264c-.688 1.084-1.926 2.17-3.55 2.402-1.6.229-3.712-.356-6.202-2.886-1.316-1.336-2.525-3.38-2.824-5.3-.148-.953-.068-1.845.301-2.606.365-.753 1.037-1.425 2.165-1.905" clip-rule="evenodd"/><path fill="#444f5c" d="M9.08 2.377a.5.5 0 0 1 .611-.356 6.04 6.04 0 0 1 4.306 4.305.5.5 0 0 1-.967.255 5.04 5.04 0 0 0-3.593-3.593.5.5 0 0 1-.357-.61m-.562 2.254a.5.5 0 0 1 .612-.354c1.338.358 2.253 1.273 2.61 2.61a.5.5 0 1 1-.965.26c-.266-.993-.911-1.638-1.903-1.904a.5.5 0 0 1-.354-.612"/></svg>