<svg xmlns="http://www.w3.org/2000/svg" width="16" height="16" fill="none" viewBox="0 0 16 16"><path fill="#444f5c" fill-rule="evenodd" d="M11.173 8.077a3.173 3.173 0 1 1-6.346 0 3.173 3.173 0 0 1 6.346 0m-1 0a2.173 2.173 0 1 1-4.346 0 2.173 2.173 0 0 1 4.346 0" clip-rule="evenodd"/><path fill="#444f5c" fill-rule="evenodd" d="M6.31.654a1.5 1.5 0 0 0-1.341.829l-.601 1.202a.5.5 0 0 1-.448.276H1.5a1.5 1.5 0 0 0-1.5 1.5v8.385a1.5 1.5 0 0 0 1.5 1.5h13a1.5 1.5 0 0 0 1.5-1.5V4.462a1.5 1.5 0 0 0-1.5-1.5h-2.42a.5.5 0 0 1-.448-.277l-.6-1.202A1.5 1.5 0 0 0 9.69.653zM5.863 1.93a.5.5 0 0 1 .447-.276h3.38a.5.5 0 0 1 .447.276l.6 1.202a1.5 1.5 0 0 0 1.343.83h2.42a.5.5 0 0 1 .5.5v8.384a.5.5 0 0 1-.5.5h-13a.5.5 0 0 1-.5-.5V4.462a.5.5 0 0 1 .5-.5h2.42a1.5 1.5 0 0 0 1.342-.83z" clip-rule="evenodd"/></svg>