<svg xmlns="http://www.w3.org/2000/svg" width="16" height="16" fill="none" viewBox="0 0 16 16"><path fill="#444f5c" fill-rule="evenodd" d="M5.053.276A.5.5 0 0 1 5.5 0h5a.5.5 0 0 1 .447.276L11.81 2h2.69A1.5 1.5 0 0 1 16 3.5v9a1.5 1.5 0 0 1-1.5 1.5h-13A1.5 1.5 0 0 1 0 12.5v-9A1.5 1.5 0 0 1 1.5 2h2.691zM5.809 1l-.862 1.724A.5.5 0 0 1 4.5 3h-3a.5.5 0 0 0-.5.5v9a.5.5 0 0 0 .5.5h13a.5.5 0 0 0 .5-.5v-9a.5.5 0 0 0-.5-.5h-3a.5.5 0 0 1-.447-.276L10.19 1z" clip-rule="evenodd"/><path fill="#444f5c" fill-rule="evenodd" d="M8 10a2 2 0 1 0 0-4 2 2 0 0 0 0 4m0 1a3 3 0 1 0 0-6 3 3 0 0 0 0 6m4-6.5a.5.5 0 0 1 .5-.5h1a.5.5 0 0 1 0 1h-1a.5.5 0 0 1-.5-.5" clip-rule="evenodd"/></svg>