<svg xmlns="http://www.w3.org/2000/svg" width="16" height="16" fill="none" viewBox="0 0 16 16"><path fill="#444f5c" fill-rule="evenodd" d="M8 11a3 3 0 1 0 0-6 3 3 0 0 0 0 6m2-3a2 2 0 1 1-4 0 2 2 0 0 1 4 0" clip-rule="evenodd"/><path fill="#444f5c" fill-rule="evenodd" d="M6.618 1.5a1.5 1.5 0 0 0-1.342.83l-.447.894a.5.5 0 0 1-.447.276H2.5A1.5 1.5 0 0 0 1 5v7a1.5 1.5 0 0 0 1.5 1.5h11A1.5 1.5 0 0 0 15 12V5a1.5 1.5 0 0 0-1.5-1.5h-1.882a.5.5 0 0 1-.447-.276l-.447-.895A1.5 1.5 0 0 0 9.382 1.5zm-.447 1.276a.5.5 0 0 1 .447-.276h2.764a.5.5 0 0 1 .447.276l.447.895a1.5 1.5 0 0 0 1.342.829H13.5a.5.5 0 0 1 .5.5v7a.5.5 0 0 1-.5.5h-11A.5.5 0 0 1 2 12V5a.5.5 0 0 1 .5-.5h1.882a1.5 1.5 0 0 0 1.342-.83z" clip-rule="evenodd"/></svg>