<svg xmlns="http://www.w3.org/2000/svg" width="16" height="16" fill="none" viewBox="0 0 16 16"><path fill="#444f5c" d="M9.913 1.818c.601 0 1.141.362 1.361.912l.217.543h3.046c.808 0 1.463.644 1.463 1.439v8.032c0 .795-.655 1.439-1.463 1.439H1.463A1.45 1.45 0 0 1 0 12.744V4.712c0-.795.655-1.439 1.463-1.439h3.046l.217-.543c.22-.55.76-.912 1.361-.912zM8 5.455a2.908 2.908 0 1 0-.001 5.817A2.908 2.908 0 0 0 8 5.455m0 1.124c.971 0 1.766.795 1.766 1.785S8.971 10.149 8 10.149a1.776 1.776 0 0 1-1.766-1.785c0-.99.795-1.785 1.766-1.785"/></svg>