<svg xmlns="http://www.w3.org/2000/svg" width="16" height="16" fill="none" viewBox="0 0 16 16"><g fill="#444f5c" clip-path="url(#a)"><path d="M4.909.5a1.5 1.5 0 0 0-1.357.86L1.474 5.768H.55a.5.5 0 0 0 0 1h.742v5.94a.5.5 0 1 0 1 0V11.45h3.096a.5.5 0 1 0 0-1H2.292V8.524h1.983a.5.5 0 0 0 0-1H2.29V6.38l2.166-4.593a.5.5 0 0 1 .452-.287h6.182a.5.5 0 0 1 .452.287l2.213 4.695a.5.5 0 0 0 .453.286h1.241a.5.5 0 0 0 0-1h-.924L12.448 1.36A1.5 1.5 0 0 0 11.09.5z"/><path fill-rule="evenodd" d="M12.5 14.874a2.9 2.9 0 0 0 1.178-.489l.443.443a.5.5 0 0 0 .707-.707l-.443-.443c.244-.345.414-.745.489-1.178h.626a.5.5 0 0 0 0-1h-.626a2.9 2.9 0 0 0-.489-1.178l.443-.443a.5.5 0 1 0-.707-.707l-.443.442a2.9 2.9 0 0 0-1.178-.488V8.5a.5.5 0 0 0-1 0v.626a2.9 2.9 0 0 0-1.179.488l-.442-.442a.5.5 0 1 0-.707.707l.442.442a2.9 2.9 0 0 0-.488 1.179H8.5a.5.5 0 0 0 0 1h.626a2.9 2.9 0 0 0 .488 1.178l-.442.443a.5.5 0 1 0 .707.707l.443-.442a2.9 2.9 0 0 0 1.178.488v.626a.5.5 0 0 0 1 0zM13.916 12a1.917 1.917 0 1 1-3.833 0 1.917 1.917 0 0 1 3.833 0" clip-rule="evenodd"/></g><defs><clipPath id="a"><path fill="#fff" d="M0 0h16v16H0z"/></clipPath></defs></svg>