<svg xmlns="http://www.w3.org/2000/svg" width="16" height="16" fill="none" viewBox="0 0 16 16"><path fill="#444f5c" d="M2 1.5A1.5 1.5 0 0 0 .5 3v1a.5.5 0 0 0 1 0V3a.5.5 0 0 1 .5-.5h12a.5.5 0 0 1 .5.5v10a.5.5 0 0 1-.5.5h-3a.5.5 0 1 0 0 1h3a1.5 1.5 0 0 0 1.5-1.5V3A1.5 1.5 0 0 0 14 1.5z"/><path fill="#444f5c" d="M.5 6.8a.5.5 0 0 1 .5-.5c.987 0 1.964.2 2.875.587A7.5 7.5 0 0 1 6.308 8.56a7.7 7.7 0 0 1 1.623 2.497c.376.933.569 1.933.569 2.942a.5.5 0 0 1-1 0c0-.881-.169-1.754-.497-2.568a6.7 6.7 0 0 0-1.412-2.174 6.5 6.5 0 0 0-2.108-1.45A6.3 6.3 0 0 0 1 7.3a.5.5 0 0 1-.5-.5"/><path fill="#444f5c" d="M1 9.18a.5.5 0 1 0 0 1c.977 0 1.916.4 2.611 1.114A3.88 3.88 0 0 1 4.7 14a.5.5 0 1 0 1 0 4.88 4.88 0 0 0-1.372-3.403A4.64 4.64 0 0 0 1 9.18m0 2.88a.5.5 0 1 0 0 1 .88.88 0 0 1 .631.27c.17.176.269.416.269.67a.5.5 0 0 0 1 0c0-.51-.197-1.002-.552-1.367A1.88 1.88 0 0 0 1 12.06"/></svg>