<svg xmlns="http://www.w3.org/2000/svg" width="16" height="16" fill="none" viewBox="0 0 16 16"><g clip-path="url(#a)"><path fill="#444f5c" d="M8 16A8 8 0 1 1 8 0a8 8 0 0 1 0 16M8 1.333A6.67 6.67 0 0 0 1.333 8 6.67 6.67 0 0 0 8 14.667 6.67 6.67 0 0 0 14.667 8 6.67 6.67 0 0 0 8 1.333m0 12A5.33 5.33 0 0 1 2.667 8c0-1.233.42-2.367 1.127-3.267l7.473 7.473A5.27 5.27 0 0 1 8 13.333m4.207-2.066L4.734 3.794a5.27 5.27 0 0 1 3.267-1.127A5.33 5.33 0 0 1 13.334 8c0 1.233-.42 2.367-1.127 3.267"/></g><defs><clipPath id="a"><path fill="#fff" d="M0 0h16v16H0z"/></clipPath></defs></svg>