<svg xmlns="http://www.w3.org/2000/svg" width="16" height="16" fill="none" viewBox="0 0 16 16"><g clip-path="url(#a)"><path fill="#444f5c" d="M1.148 13.858h13.703L8 2.258zM8.521 1.439l7.397 12.522a.59.59 0 0 1-.217.815.6.6 0 0 1-.304.081H.604a.6.6 0 0 1-.603-.596c0-.105.028-.209.082-.3L7.48 1.439a.607.607 0 0 1 1.042 0zM8 13.143a.57.57 0 1 1 0-1.142.57.57 0 0 1 0 1.142m0-6.857a.57.57 0 0 1 .571.571v3.429a.57.57 0 1 1-1.142 0V6.857A.57.57 0 0 1 8 6.286"/></g><defs><clipPath id="a"><path fill="#fff" d="M0 0h16v16H0z"/></clipPath></defs></svg>