<svg xmlns="http://www.w3.org/2000/svg" width="16" height="16" fill="none" viewBox="0 0 16 16"><g clip-path="url(#a)"><path fill="#444f5c" d="M8.964.657a3.04 3.04 0 0 1 1.663 1.345l.1.183 4.452 8.903a3.04 3.04 0 0 1-.571 3.518 3.04 3.04 0 0 1-1.946.886l-.209.007H3.55c-.473 0-.94-.11-1.363-.322a3.03 3.03 0 0 1-1.528-1.762 3.04 3.04 0 0 1 .071-2.12l.094-.207 4.452-8.903A3.05 3.05 0 0 1 8.966.657zM8 11.046a1.016 1.016 0 1 0 0 2.032 1.016 1.016 0 0 0 0-2.032m0-6.197a.61.61 0 0 0-.61.61v4.064l.008.099a.61.61 0 0 0 1.212-.099V5.459l-.008-.099A.61.61 0 0 0 8 4.849"/></g><defs><clipPath id="a"><path fill="#fff" d="M0 0h16v16H0z"/></clipPath></defs></svg>