<svg xmlns="http://www.w3.org/2000/svg" width="16" height="16" fill="none" viewBox="0 0 16 16"><path fill="#444f5c" fill-rule="evenodd" d="M9.167 3.997a.5.5 0 0 0-.5.5v7.006a.5.5 0 0 0 .5.5h2.33a4.003 4.003 0 0 0 0-8.006zm.5 7.006V4.997h1.83a3.003 3.003 0 1 1 0 6.006z" clip-rule="evenodd"/><path fill="#444f5c" d="M1.5 8c0-1.653 1.4-3 3-3 .844 0 1.4.33 1.95.987a.5.5 0 1 0 .767-.64C6.524 4.516 5.706 4 4.5 4c-2.141 0-4 1.783-4 4s1.859 4 4 4c1.206 0 2.024-.517 2.717-1.346a.5.5 0 0 0-.767-.641C5.9 10.67 5.344 11 4.5 11c-1.6 0-3-1.347-3-3"/></svg>