<svg xmlns="http://www.w3.org/2000/svg" width="16" height="16" fill="none" viewBox="0 0 16 16"><g fill="#444f5c" clip-path="url(#a)"><path d="M1.398.898a.5.5 0 0 0-1 0v13.204a1.5 1.5 0 0 0 1.5 1.5h13.204a.5.5 0 1 0 0-1H1.898a.5.5 0 0 1-.5-.5z"/><path d="M4.95 8.592a.5.5 0 1 0-1 0v3.55a.5.5 0 1 0 1 0zM9.184 4.54a.5.5 0 0 1 .5.5v7.103a.5.5 0 0 1-1 0V5.04a.5.5 0 0 1 .5-.5m5.234-1.867a.5.5 0 0 0-1 0v9.47a.5.5 0 1 0 1 0z"/></g><defs><clipPath id="a"><path fill="#fff" d="M0 0h16v16H0z"/></clipPath></defs></svg>