<svg xmlns="http://www.w3.org/2000/svg" width="16" height="16" fill="none" viewBox="0 0 16 16"><path fill="#444f5c" fill-rule="evenodd" d="M8 1C4.064 1 1 3.751 1 7c0 1.595.728 3.057 1.94 4.144a.5.5 0 0 1 .162.436 3 3 0 0 1-.128.578 4.7 4.7 0 0 1-.613 1.227 7.7 7.7 0 0 0 1.468-.355c.384-.14.73-.302 1.035-.47a.5.5 0 0 1 .412-.032A8 8 0 0 0 8 13c3.936 0 7-2.751 7-6s-3.064-6-7-6M.773 13.554 1 14.5a.5.5 0 0 1-.228-.945zm1.293-1.857C.791 10.463 0 8.818 0 7c0-3.93 3.651-7 8-7s8 3.07 8 7-3.651 7-8 7a9 9 0 0 1-2.853-.458 8 8 0 0 1-.976.428c-.738.27-1.533.4-2.131.465a12 12 0 0 1-1.016.065H1l-.227-.946" clip-rule="evenodd"/><path fill="#444f5c" d="M6 7a1 1 0 1 1-2 0 1 1 0 0 1 2 0m3 0a1 1 0 1 1-2 0 1 1 0 0 1 2 0m3 0a1 1 0 1 1-2 0 1 1 0 0 1 2 0"/></svg>