<svg xmlns="http://www.w3.org/2000/svg" width="16" height="16" fill="none" viewBox="0 0 16 16"><path fill="#444f5c" d="M11.373 6.333a.5.5 0 0 0-.746-.666L6.955 9.773 5.33 8.146a.5.5 0 0 0-.707.708l2 2a.5.5 0 0 0 .726-.02z"/><path fill="#444f5c" fill-rule="evenodd" d="M2.503 1.003a1.5 1.5 0 0 0-1.5 1.5v10.994a1.5 1.5 0 0 0 1.5 1.5h10.994a1.5 1.5 0 0 0 1.5-1.5V2.503a1.5 1.5 0 0 0-1.5-1.5zm-.5 1.5a.5.5 0 0 1 .5-.5h10.994a.5.5 0 0 1 .5.5v10.994a.5.5 0 0 1-.5.5H2.503a.5.5 0 0 1-.5-.5z" clip-rule="evenodd"/></svg>