<svg xmlns="http://www.w3.org/2000/svg" width="16" height="16" fill="none" viewBox="0 0 16 16"><path fill="#444f5c" fill-rule="evenodd" d="M8 14A6 6 0 1 0 8 2a6 6 0 0 0 0 12m0 1A7 7 0 1 0 8 1a7 7 0 0 0 0 14" clip-rule="evenodd"/><path fill="#444f5c" fill-rule="evenodd" d="M4.646 4.646a.5.5 0 0 1 .708 0l6 6a.5.5 0 0 1-.708.708l-6-6a.5.5 0 0 1 0-.708" clip-rule="evenodd"/><path fill="#444f5c" fill-rule="evenodd" d="M11.354 4.646a.5.5 0 0 1 0 .708l-6 6a.5.5 0 0 1-.708-.708l6-6a.5.5 0 0 1 .708 0" clip-rule="evenodd"/></svg>