<svg xmlns="http://www.w3.org/2000/svg" width="16" height="16" fill="none" viewBox="0 0 16 16"><path fill="#444f5c" fill-rule="evenodd" d="M1.5 1A1.5 1.5 0 0 0 0 2.5v9a.5.5 0 0 0 .782.413l2.245-1.534a.5.5 0 0 1 .282-.087H3.5v1.375a1.5 1.5 0 0 0 1.5 1.5h7.191a.5.5 0 0 1 .282.087l2.245 1.534a.5.5 0 0 0 .782-.413v-9a1.5 1.5 0 0 0-1.5-1.5h-1.5V2.5A1.5 1.5 0 0 0 11 1zM1 2.5a.5.5 0 0 1 .5-.5H11a.5.5 0 0 1 .5.5v6.292a.5.5 0 0 1-.5.5H3.309a1.5 1.5 0 0 0-.846.261l-1.463 1zm11.5 2.375v3.917a1.5 1.5 0 0 1-1.5 1.5H4.5v1.375a.5.5 0 0 0 .5.5h7.191a1.5 1.5 0 0 1 .846.261l1.463 1V5.375a.5.5 0 0 0-.5-.5z" clip-rule="evenodd"/></svg>