<svg xmlns="http://www.w3.org/2000/svg" width="16" height="16" fill="none" viewBox="0 0 16 16"><path fill="#444f5c" d="M4.5 5a.5.5 0 0 1 .5-.5h6a.5.5 0 0 1 0 1H5a.5.5 0 0 1-.5-.5M5 7.5a.5.5 0 0 0 0 1h6a.5.5 0 0 0 0-1z"/><path fill="#444f5c" fill-rule="evenodd" d="M.5 2.519a1.5 1.5 0 0 1 1.5-1.5h12a1.5 1.5 0 0 1 1.5 1.5v8.262a1.5 1.5 0 0 1-1.5 1.5h-1.99a.5.5 0 0 0-.5.5v2.078a.7.7 0 0 1-1.128.553l-3.915-3.027a.5.5 0 0 0-.306-.104H2a1.5 1.5 0 0 1-1.5-1.5zm1.5-.5a.5.5 0 0 0-.5.5v8.262a.5.5 0 0 0 .5.5h4.16c.332 0 .655.11.918.313l3.43 2.654V12.78a1.5 1.5 0 0 1 1.5-1.5h1.993a.5.5 0 0 0 .5-.5V2.519a.5.5 0 0 0-.5-.5z" clip-rule="evenodd"/></svg>