<svg xmlns="http://www.w3.org/2000/svg" width="16" height="16" fill="none" viewBox="0 0 16 16"><path fill="#444f5c" d="M6.662 10.176a2.176 2.176 0 0 0-2.177 2.176.5.5 0 1 1-1 0 3.176 3.176 0 0 1 3.177-3.176h2.676a3.176 3.176 0 0 1 3.177 3.176.5.5 0 1 1-1 0 2.176 2.176 0 0 0-2.177-2.176z"/><path fill="#444f5c" fill-rule="evenodd" d="M7.942 3.172a2.489 2.489 0 1 0 0 4.978 2.489 2.489 0 0 0 0-4.978m-1.489 2.49a1.489 1.489 0 1 1 2.978 0 1.489 1.489 0 0 1-2.978 0" clip-rule="evenodd"/><path fill="#444f5c" fill-rule="evenodd" d="M.563 2.034a1.5 1.5 0 0 1 1.5-1.51h11.714a1.5 1.5 0 0 1 1.5 1.491l.074 11.976a1.5 1.5 0 0 1-1.5 1.509H2.136a1.5 1.5 0 0 1-1.5-1.491zm1.5-.51a.5.5 0 0 0-.5.503l.073 11.976a.5.5 0 0 0 .5.497h11.715a.5.5 0 0 0 .5-.503L14.277 2.02a.5.5 0 0 0-.5-.497z" clip-rule="evenodd"/></svg>