<svg xmlns="http://www.w3.org/2000/svg" width="16" height="16" fill="none" viewBox="0 0 16 16"><g fill="#444f5c" fill-rule="evenodd" clip-path="url(#a)" clip-rule="evenodd"><path d="M5.5 4a.5.5 0 0 1 .5-.5h2.167c.636 0 1.234.28 1.667.758a2.64 2.64 0 0 1 .666 1.768 2.64 2.64 0 0 1-.666 1.769c-.241.266-.533.47-.854.6l1.904 2.285a.5.5 0 0 1-.768.64L7.81 8.553H6.5V11a.5.5 0 0 1-1 0zm1 3.553h1.667c.336 0 .67-.148.925-.43A1.64 1.64 0 0 0 9.5 6.027c0-.42-.151-.814-.408-1.097a1.25 1.25 0 0 0-.925-.429H6.5z"/><path d="M16 8A8 8 0 1 1 0 8a8 8 0 0 1 16 0m-1 0A7 7 0 1 1 1 8a7 7 0 0 1 14 0"/></g><defs><clipPath id="a"><path fill="#fff" d="M0 0h16v16H0z"/></clipPath></defs></svg>