<svg xmlns="http://www.w3.org/2000/svg" width="16" height="16" fill="none" viewBox="0 0 16 16"><path fill="#444f5c" d="M4.898.001a.5.5 0 1 0 0 1h6.465a2.5 2.5 0 0 1 2.5 2.5v9.9a.5.5 0 1 0 1 0v-9.9a3.5 3.5 0 0 0-3.5-3.5z"/><path fill="#444f5c" fill-rule="evenodd" d="M2.587 2.279a1.5 1.5 0 0 0-1.5 1.5v10.72a1.5 1.5 0 0 0 1.5 1.5h8.392a1.5 1.5 0 0 0 1.5-1.5V3.778a1.5 1.5 0 0 0-1.5-1.5zm-.5 1.5a.5.5 0 0 1 .5-.5h8.392a.5.5 0 0 1 .5.5v10.72a.5.5 0 0 1-.5.5H2.588a.5.5 0 0 1-.5-.5z" clip-rule="evenodd"/></svg>