<svg xmlns="http://www.w3.org/2000/svg" width="16" height="16" fill="none" viewBox="0 0 16 16"><path fill="#444f5c" d="M4.5 7a.5.5 0 0 1 .5-.5h6a.5.5 0 0 1 0 1H5a.5.5 0 0 1-.5-.5M5 9.5a.5.5 0 0 0 0 1h3a.5.5 0 0 0 0-1z"/><path fill="#444f5c" fill-rule="evenodd" d="M5 0a1.5 1.5 0 0 0-1.5 1.5H3A1.5 1.5 0 0 0 1.5 3v11A1.5 1.5 0 0 0 3 15.5h10a1.5 1.5 0 0 0 1.5-1.5V3A1.5 1.5 0 0 0 13 1.5h-.5A1.5 1.5 0 0 0 11 0zm7.5 2.5A1.5 1.5 0 0 1 11 4H5a1.5 1.5 0 0 1-1.5-1.5H3a.5.5 0 0 0-.5.5v11a.5.5 0 0 0 .5.5h10a.5.5 0 0 0 .5-.5V3a.5.5 0 0 0-.5-.5zm-8-1A.5.5 0 0 1 5 1h6a.5.5 0 0 1 .5.5v1a.5.5 0 0 1-.5.5H5a.5.5 0 0 1-.5-.5z" clip-rule="evenodd"/></svg>