<svg xmlns="http://www.w3.org/2000/svg" width="16" height="16" fill="none" viewBox="0 0 16 16"><path fill="#444f5c" fill-rule="evenodd" d="M8.735 1.891a1 1 0 0 0-1.295.006L4.68 4.262l-2.636-.69A1 1 0 0 0 .849 4.877l1.787 4.986a1 1 0 0 0 .942.662h9.176a1 1 0 0 0 .957-.71l1.505-4.984a1 1 0 0 0-1.226-1.253l-2.443.681zm-.644.765 2.812 2.368a1 1 0 0 0 .912.199l2.444-.681-1.505 4.983H3.578L1.79 4.54l2.637.69a1 1 0 0 0 .904-.209z" clip-rule="evenodd"/><path fill="#444f5c" d="M4 11.985a.5.5 0 1 0 0 1h8a.5.5 0 0 0 0-1z"/></svg>