<svg xmlns="http://www.w3.org/2000/svg" width="16" height="16" fill="none" viewBox="0 0 16 16"><g fill="#444f5c" clip-path="url(#a)"><path fill-rule="evenodd" d="M12.59.013a3.357 3.357 0 0 0-3.137 4.556c.068.18.08.33.05.446l-.183.699c-.225.859.699 1.563 1.468 1.119l.337-.195c.134-.077.333-.096.577-.03a3.36 3.36 0 0 0 4.245-3.238A3.357 3.357 0 0 0 12.589.013M10.231 3.37a2.357 2.357 0 1 1 1.734 2.274c-.399-.109-.898-.128-1.34.128l-.338.195.183-.699c.1-.382.03-.755-.084-1.056-.1-.26-.155-.544-.155-.842M2.509 5.843a2.843 2.843 0 1 1 5.686 0 2.843 2.843 0 0 1-5.686 0M5.352 4a1.843 1.843 0 1 0 0 3.686 1.843 1.843 0 0 0 0-3.686" clip-rule="evenodd"/><path d="M5.627 10.643A4.127 4.127 0 0 0 1.5 14.769v.431a.5.5 0 0 1-1 0v-.43a5.127 5.127 0 0 1 5.127-5.127 4.577 4.577 0 0 1 4.577 4.576v.6a.5.5 0 0 1-1 0v-.6a3.577 3.577 0 0 0-3.577-3.576"/></g><defs><clipPath id="a"><path fill="#fff" d="M0 0h16v16H0z"/></clipPath></defs></svg>