<svg xmlns="http://www.w3.org/2000/svg" width="16" height="16" fill="none" viewBox="0 0 16 16"><path fill="#444f5c" fill-rule="evenodd" d="M3.503 3.002a.5.5 0 0 0-.5.5V8a.5.5 0 0 0 .5.5h3.373a.5.5 0 0 0 .5-.5V3.502a.5.5 0 0 0-.5-.5zm.5 4.498V4.002h2.373V7.5zm-1 2.749a.5.5 0 0 1 .5-.5h3.373a.5.5 0 0 1 .5.5v2.248a.5.5 0 0 1-.5.5H3.503a.5.5 0 0 1-.5-.5zm1 .5v1.248h2.373V10.75zm5.121-7.747a.5.5 0 0 0-.5.5v8.995a.5.5 0 0 0 .5.5h3.373a.5.5 0 0 0 .5-.5V3.502a.5.5 0 0 0-.5-.5zm2.873 8.995H9.624V4.002h2.373z" clip-rule="evenodd"/><path fill="#444f5c" fill-rule="evenodd" d="M2.515 1.015a1.5 1.5 0 0 0-1.5 1.5v10.97a1.5 1.5 0 0 0 1.5 1.5h10.97a1.5 1.5 0 0 0 1.5-1.5V2.515a1.5 1.5 0 0 0-1.5-1.5zm-.5 1.5a.5.5 0 0 1 .5-.5h10.97a.5.5 0 0 1 .5.5v10.97a.5.5 0 0 1-.5.5H2.515a.5.5 0 0 1-.5-.5z" clip-rule="evenodd"/></svg>