<svg xmlns="http://www.w3.org/2000/svg" width="16" height="16" fill="none" viewBox="0 0 16 16"><g clip-path="url(#a)"><path fill="#444f5c" d="M8.159 1.08a2.6 2.6 0 0 1 1.468 1.037l.11.174 4.766 8.256a1.56 1.56 0 0 1-.444 2.049l-.126.081-5.401 3.118a1.56 1.56 0 0 1-2.049-.444l-.081-.126-4.766-8.256a2.6 2.6 0 0 1-.305-1.771l.045-.201 1.03-3.844A1.56 1.56 0 0 1 4.169.019l.147.032zM4.346 2.308a1.04 1.04 0 1 0 1.04 1.8 1.04 1.04 0 0 0-1.04-1.8"/></g><defs><clipPath id="a"><path fill="#fff" d="M0 0h16v16H0z"/></clipPath></defs></svg>