<svg xmlns="http://www.w3.org/2000/svg" width="16" height="16" fill="none" viewBox="0 0 16 16"><g clip-path="url(#a)"><path fill="#444f5c" d="M13.895 2.252.412 15.456H0L2.705.544h6.668c1.64 0 3.282.616 4.522 1.708m.422.407A6.1 6.1 0 0 1 16 6.919c0 3.677-2.497 7.984-8.607 8.488zM3.161 15.333l1.884-2.088H6.27l-1.582 2.088zm2.865-3.3 1.235-1.494h.897l-1.043 1.494zm1.891-2.131 1.059-1.2h.546l-.889 1.2zm1.489-1.834.666-.844h.258l-.456.844z"/></g><defs><clipPath id="a"><path fill="#fff" d="M0 0h16v16H0z"/></clipPath></defs></svg>