<svg xmlns="http://www.w3.org/2000/svg" width="24" height="24" fill="none" viewBox="0 0 24 24"><path fill="#444f5c" d="M3.503 3.751v10.655c0 .138.112.25.25.25h16.495a.25.25 0 0 0 .25-.25v-3.177a.75.75 0 0 1 1.5 0v3.177a1.75 1.75 0 0 1-1.75 1.75h-4.211v4.093a1.75 1.75 0 0 1-1.75 1.75H9.712a1.75 1.75 0 0 1-1.75-1.75v-4.093H3.753a1.75 1.75 0 0 1-1.75-1.75V3.751c0-.966.783-1.75 1.75-1.75h9.038a.75.75 0 0 1 0 1.5H3.753a.25.25 0 0 0-.25.25m11.033 12.405H9.461v4.093c0 .138.112.25.25.25h4.575a.25.25 0 0 0 .25-.25zm.309-13.487a.75.75 0 0 1 .828-.663 7.16 7.16 0 0 1 4.268 2.051 7.14 7.14 0 0 1 2.051 4.268.75.75 0 1 1-1.491.166 5.65 5.65 0 0 0-4.994-4.994.75.75 0 0 1-.663-.828zm.011 2.815a.75.75 0 0 1 .885-.585 4.3 4.3 0 0 1 3.36 3.36.75.75 0 1 1-1.47.3 2.82 2.82 0 0 0-2.19-2.19.75.75 0 0 1-.585-.885m.734 2.174a.75.75 0 0 0 0 1.5h.008a.75.75 0 0 0 0-1.5z"/></svg>