<svg xmlns="http://www.w3.org/2000/svg" width="16" height="16" fill="none" viewBox="0 0 16 16"><path fill="#444f5c" fill-rule="evenodd" d="M5.243 2.114c-.561 0-1.1.223-1.496.62a.5.5 0 0 0-.104.152L.857 9.225a3.192 3.192 0 1 0 6.028 1.468V5.81h2.23v4.884a3.192 3.192 0 1 0 6.03-1.464l-2.787-6.343a.5.5 0 0 0-.104-.152 2.115 2.115 0 0 0-2.992 0 .5.5 0 0 0-.146.353V4.81H6.885V3.087a.5.5 0 0 0-.146-.353 2.12 2.12 0 0 0-1.496-.62m9.002 7.552.13.297q.123.345.125.73a2.192 2.192 0 1 1-.255-1.027m-.871-1.983-1.89-4.3a1.115 1.115 0 0 0-1.368-.065v5.055a3.18 3.18 0 0 1 2.192-.872c.374 0 .732.064 1.066.182M1.757 9.662l-.134.305a2.192 2.192 0 1 0 .134-.305m2.76-6.28-1.89 4.301a3.2 3.2 0 0 1 1.065-.182c.85 0 1.621.331 2.193.872V3.318a1.115 1.115 0 0 0-1.368.065" clip-rule="evenodd"/></svg>