<svg xmlns="http://www.w3.org/2000/svg" width="16" height="16" fill="none" viewBox="0 0 16 16"><path fill="#444f5c" d="M5 1a.5.5 0 0 1 .5-.5h7A2.5 2.5 0 0 1 15 3v9a.5.5 0 0 1-1 0V3a1.5 1.5 0 0 0-1.5-1.5h-7A.5.5 0 0 1 5 1m-.623 6.84a.5.5 0 0 0 0 1h3.246a.5.5 0 0 0 0-1zm-.5 2.664a.5.5 0 0 1 .5-.5h3.246a.5.5 0 0 1 0 1H4.377a.5.5 0 0 1-.5-.5m1.582-3.828a.5.5 0 1 0 0-1H4.377a.5.5 0 0 0 0 1z"/><path fill="#444f5c" fill-rule="evenodd" d="M1.5 4.493a1.5 1.5 0 0 1 1.5-1.5h8a1.5 1.5 0 0 1 1.5 1.5v10a1.5 1.5 0 0 1-1.5 1.5H3a1.5 1.5 0 0 1-1.5-1.5zm1.5-.5a.5.5 0 0 0-.5.5v10a.5.5 0 0 0 .5.5h8a.5.5 0 0 0 .5-.5v-10a.5.5 0 0 0-.5-.5z" clip-rule="evenodd"/></svg>