<svg xmlns="http://www.w3.org/2000/svg" width="16" height="16" fill="none" viewBox="0 0 16 16"><g fill="#444f5c" clip-path="url(#a)"><path d="M7.474 4.991a.5.5 0 0 1 0 .707L5.172 8l2.302 2.3a.5.5 0 1 1-.708.707L4.111 8.354a.5.5 0 0 1 0-.707l2.655-2.655a.5.5 0 0 1 .708 0"/><path d="M11.013 5.698a.5.5 0 1 0-.707-.707L7.65 7.646a.5.5 0 0 0 0 .707l2.656 2.656a.5.5 0 1 0 .707-.708L8.71 8z"/><path fill-rule="evenodd" d="M8 15.5a7.5 7.5 0 1 0 0-15 7.5 7.5 0 0 0 0 15m0-1a6.5 6.5 0 1 0 0-13 6.5 6.5 0 0 0 0 13" clip-rule="evenodd"/></g><defs><clipPath id="a"><path fill="#fff" d="M0 0h16v16H0z"/></clipPath></defs></svg>