<svg xmlns="http://www.w3.org/2000/svg" width="16" height="16" fill="none" viewBox="0 0 16 16"><path fill="#444f5c" fill-rule="evenodd" d="M1.5 9.5a.5.5 0 0 1 .5.5v2.5a.5.5 0 0 0 .5.5h10a.5.5 0 0 0 .5-.5V10a.5.5 0 0 1 1 0v2.5a1.5 1.5 0 0 1-1.5 1.5h-10A1.5 1.5 0 0 1 1 12.5V10a.5.5 0 0 1 .5-.5" clip-rule="evenodd"/><path fill="#444f5c" fill-rule="evenodd" d="M7.5 2a.5.5 0 0 1 .5.5v7a.5.5 0 0 1-1 0v-7a.5.5 0 0 1 .5-.5" clip-rule="evenodd"/><path fill="#444f5c" fill-rule="evenodd" d="M4.146 7.146a.5.5 0 0 1 .708 0L7.5 9.793l2.646-2.647a.5.5 0 0 1 .708.708l-3 3a.5.5 0 0 1-.708 0l-3-3a.5.5 0 0 1 0-.708" clip-rule="evenodd"/></svg>