<svg xmlns="http://www.w3.org/2000/svg" width="16" height="16" fill="none" viewBox="0 0 16 16"><path fill="#444f5c" fill-rule="evenodd" d="M11.406.787c-1.15 0-2.093.922-2.093 2.073 0 .395.11.763.303 1.076l-3.97 3.998a.5.5 0 1 0 .709.705l.395-.398.997.997a.5.5 0 0 0 .707-.707l-1-1 .827-.832.865.866a.5.5 0 0 0 .708-.708l-.868-.867 1.343-1.353a2.1 2.1 0 0 0 1.077.296c1.15 0 2.094-.922 2.094-2.073A2.083 2.083 0 0 0 11.406.787M10.313 2.86c0-.587.483-1.073 1.093-1.073S12.5 2.273 12.5 2.86c0 .586-.483 1.073-1.094 1.073-.61 0-1.093-.487-1.093-1.073" clip-rule="evenodd"/><path fill="#444f5c" d="M.879 8.515a.5.5 0 0 1 .606.364l.81 3.242a.5.5 0 0 0 .486.38h10.438a.5.5 0 0 0 .485-.38l.81-3.242a.5.5 0 0 1 .971.242l-.81 3.243a1.5 1.5 0 0 1-1.456 1.136H2.781a1.5 1.5 0 0 1-1.455-1.136L.515 9.12a.5.5 0 0 1 .364-.606"/></svg>