<svg xmlns="http://www.w3.org/2000/svg" width="16" height="16" fill="none" viewBox="0 0 16 16"><path fill="#444f5c" d="M3.62.076a.5.5 0 0 0 0 1h7.197a2.5 2.5 0 0 1 2.5 2.5v10.686a.5.5 0 0 0 1 0V3.576a3.5 3.5 0 0 0-3.5-3.5z"/><path fill="#444f5c" d="M7.584 7.19a.5.5 0 0 0-1 0v1.435H5.147a.5.5 0 1 0 0 1h1.437v1.437a.5.5 0 1 0 1 0V9.625H9.02a.5.5 0 1 0 0-1H7.584z"/><path fill="#444f5c" fill-rule="evenodd" d="M3.454 2.252a1.5 1.5 0 0 0-1.5 1.5v10.68a1.5 1.5 0 0 0 1.5 1.5h7.169a1.5 1.5 0 0 0 1.5-1.5V3.753a1.5 1.5 0 0 0-1.5-1.5zm-.5 1.5a.5.5 0 0 1 .5-.5h7.169a.5.5 0 0 1 .5.5v10.68a.5.5 0 0 1-.5.5h-7.17a.5.5 0 0 1-.5-.5z" clip-rule="evenodd"/></svg>