<svg xmlns="http://www.w3.org/2000/svg" width="16" height="16" fill="none" viewBox="0 0 16 16"><g clip-path="url(#a)"><path fill="#444f5c" d="M11.429 13.714A2.286 2.286 0 0 1 9.143 16H2.286A2.286 2.286 0 0 1 0 13.714V6.857a2.286 2.286 0 0 1 2.286-2.286h2.286c.631 0 1.143-.512 1.143-1.143V2.285A2.286 2.286 0 0 1 8.001-.001h5.714a2.286 2.286 0 0 1 2.286 2.286v5.714a2.286 2.286 0 0 1-2.286 2.286.686.686 0 0 1-.686-.686V7.656a.8.8 0 0 0-.691-.793l-.109-.007a.8.8 0 0 0-.793.691l-.007.109z"/></g><defs><clipPath id="a"><path fill="#fff" d="M0 0h16v16H0z"/></clipPath></defs></svg>