<svg xmlns="http://www.w3.org/2000/svg" width="16" height="16" fill="none" viewBox="0 0 16 16"><path fill="#444f5c" d="M4.838 3.631a.5.5 0 0 1 .085.635l-.055.072-3.321 3.623a.5.5 0 0 0-.03.64l.062.068 3.257 2.961a.5.5 0 0 1-.6.794l-.072-.055L.902 9.404a1.5 1.5 0 0 1-.19-2.001l.098-.118 3.321-3.623a.5.5 0 0 1 .706-.031zm6.964-.03.067.061 3.321 3.623a1.5 1.5 0 0 1 .016 2.01l-.112.114-3.257 2.961a.499.499 0 0 1-.733-.674l.061-.066 3.257-2.961a.5.5 0 0 0 .087-.636l-.055-.072-3.321-3.623a.499.499 0 0 1 .671-.736z"/></svg>