<svg xmlns="http://www.w3.org/2000/svg" width="16" height="16" fill="none" viewBox="0 0 16 16"><g clip-path="url(#a)"><path fill="#444f5c" d="M12.235 7.311C14.314 7.311 16 9.012 16 11.11s-1.686 3.799-3.765 3.799S8.47 13.208 8.47 11.11s1.686-3.799 3.765-3.799m-1.555 2.23a.45.45 0 0 0-.051.568l.051.062.935.945-.935.944-.051.062a.45.45 0 0 0 .051.568.44.44 0 0 0 .496.09l.067-.039.061-.052.935-.945.937.945.061.052c.172.12.41.103.563-.052a.45.45 0 0 0 .051-.568l-.051-.062-.937-.944.937-.945.051-.062a.45.45 0 0 0-.051-.568.44.44 0 0 0-.496-.09l-.067.039-.061.052-.937.944-.935-.944-.061-.052a.44.44 0 0 0-.563.052m3.908-7.019a.47.47 0 0 1 .465.401l.005.07v4.318a4.66 4.66 0 0 0-2.824-.95c-2.599 0-4.706 2.126-4.706 4.749q0 .265.028.525l-5.675-.001c-1 0-1.817-.779-1.879-1.763l-.004-.119V2.994a.472.472 0 0 1 .716-.402l.062.045 5.593 4.816c.626.54 1.544.567 2.2.085l.107-.085 5.604-4.817a.47.47 0 0 1 .307-.114zm-1.497-1.431a.47.47 0 0 1 .362.772l-.054.054L7.96 6.604c-.257.221-.541.24-.802.055l-.071-.055-5.434-4.682a.472.472 0 0 1 .238-.822l.07-.005z"/></g><defs><clipPath id="a"><path fill="#fff" d="M0 0h16v16H0z"/></clipPath></defs></svg>