<svg xmlns="http://www.w3.org/2000/svg" width="16" height="16" fill="none" viewBox="0 0 16 16"><path fill="#444f5c" d="M14.902 5.485h-1.248a.406.406 0 0 0-.406.406v.91h-.697V5.544a.406.406 0 0 0-.406-.406h-1.808v-.867a.406.406 0 0 0-.406-.406H8.065V2.81h1.536A.406.406 0 0 0 9.6 2H4.086a.406.406 0 0 0 0 .811h1.597v1.055H4.086a.406.406 0 0 0-.406.406v.867H2.205a.406.406 0 0 0-.405.406v2.567H.81V5.547a.406.406 0 0 0-.811 0v6.023a.406.406 0 0 0 .811 0V8.924h.99v2.646c0 .223.182.405.405.405H6l1.357 1.657a.4.4 0 0 0 .315.149h4.474a.406.406 0 0 0 .405-.406v-1.961h.698v1.043c0 .224.182.406.405.406h1.248a.405.405 0 0 0 .378-.261c1.608-4.196.034-6.816-.034-6.925a.4.4 0 0 0-.344-.192M6.495 2.811h.758v1.055h-.758zm8.124 9.24h-.56v-1.043a.406.406 0 0 0-.405-.406h-1.51a.406.406 0 0 0-.405.406v1.961H7.863l-1.357-1.656a.4.4 0 0 0-.315-.15h-3.58V5.952h1.476a.406.406 0 0 0 .405-.406v-.868h5.033v.868c0 .224.182.406.406.406h1.809v1.255c0 .224.181.406.405.406h1.103v1.42a.406.406 0 1 0 .812 0V6.297h.596c.29.617 1.05 2.692-.038 5.753z"/></svg>