<svg xmlns="http://www.w3.org/2000/svg" width="16" height="16" fill="none" viewBox="0 0 16 16"><g clip-path="url(#a)"><path fill="#444f5c" d="M10.751 14H7a.5.5 0 1 1 0-1h3.751a.25.25 0 0 0 .249-.249V10.5a.499.499 0 1 1 1 0v2.251A1.25 1.25 0 0 1 10.751 14M15.5 7.5H10a.5.5 0 1 1 0-1h5.5a.5.5 0 1 1 0 1m0 0a.5.5 0 0 1-.354-.146l-1.5-1.5a.5.5 0 0 1 0-.707.5.5 0 0 1 .707 0l1.5 1.5a.499.499 0 0 1-.354.853zM14 9a.499.499 0 0 1-.354-.853l1.5-1.5a.5.5 0 0 1 .707 0 .5.5 0 0 1 0 .707l-1.5 1.5a.5.5 0 0 1-.354.146zm-2.5-5a.5.5 0 0 1-.5-.5V1.249a.25.25 0 0 0-.249-.25H1.248a.247.247 0 0 0-.247.248.5.5 0 0 1-1 0C.001.559.56-.001 1.248-.001h9.503c.688 0 1.249.56 1.249 1.25V3.5a.5.5 0 0 1-.5.5M6.251 16q-.159 0-.316-.04L.939 14.668A1.254 1.254 0 0 1 0 13.456V1.467a.5.5 0 0 1 .5-.5l.139.019a.5.5 0 0 1 .643-.514l5.327 1.607c.533.161.891.643.891 1.199v11.47c0 .39-.177.751-.486.989a1.24 1.24 0 0 1-.763.263M.999 1.431 1 1.467v11.989c0 .114.077.216.189.244l4.996 1.291a.25.25 0 0 0 .218-.045.25.25 0 0 0 .098-.199V3.277a.25.25 0 0 0-.179-.241L1.001 1.431z"/></g><defs><clipPath id="a"><path fill="#fff" d="M0 0h16v16H0z"/></clipPath></defs></svg>