<svg xmlns="http://www.w3.org/2000/svg" width="24" height="24" fill="none" viewBox="0 0 24 24"><path fill="#444f5c" d="m11.69 3.541 1.04.021.929.03.813.04.474.033.419.037.361.042q.166.022.302.048c1.413.262 2.462.776 3.267 1.935.221.309.47.761.741 1.321l.237.505.216.486.176-.034.205-.026.209-.012h.44a2.29 2.29 0 0 1 2.221 2.083l.009.159v.797a2.3 2.3 0 0 1-.945 1.83l-.083.055.052.149c.159.501.248 1.021.264 1.54l.001 3.612a2.29 2.29 0 0 1-2.136 2.275l-.157.006h-1.4a2.29 2.29 0 0 1-2.29-2.125l-.006-.156-.001-1.057H6.953l.001 1.059a2.29 2.29 0 0 1-2.135 2.274l-.157.006h-1.4a2.29 2.29 0 0 1-2.289-2.125l-.005-.156v-3.307a.75.75 0 0 1 1.493-.102l.007.102v3.306c0 .394.299.723.688.775l.108.007H4.66a.795.795 0 0 0 .788-.676l.007-.105v-1.806a.75.75 0 0 1 .648-.743l.102-.007H17.8a.75.75 0 0 1 .743.648l.007.102v1.805a.79.79 0 0 0 .688.776l.108.007h1.397a.79.79 0 0 0 .788-.676l.007-.105v-3.319c.018-.703-.14-1.4-.461-2.027a.75.75 0 0 1 .423-1.051l.094-.026a.815.815 0 0 0 .646-.662l.009-.109v-.77a.785.785 0 0 0-.652-.751l-.099-.009h-.404a1.3 1.3 0 0 0-.519.116l-.12.061a.75.75 0 0 1-1.064-.361l-.218-.511-.212-.479-.204-.441-.194-.397a7 7 0 0 0-.496-.866c-.541-.778-1.252-1.127-2.314-1.324a5 5 0 0 0-.264-.041l-.328-.037-.389-.033-.447-.029-.774-.037-.581-.02-.961-.023-.343-.006c-.961-.015-1.971-.018-2.96-.013l-1.694.016a.75.75 0 0 1-.024-1.5l.725-.009c1.3-.013 2.681-.013 3.976.007z"/><path fill="#444f5c" d="M11.159 10.25a.75.75 0 0 1 .102 1.493l-.102.007H1a.75.75 0 0 1-.102-1.493L1 10.25zm0-3.001a.75.75 0 0 1 .102 1.493l-.102.007H5a.75.75 0 0 1-.102-1.493L5 7.249z"/></svg>