<svg xmlns="http://www.w3.org/2000/svg" width="16" height="16" fill="none" viewBox="0 0 16 16"><path fill="#444f5c" fill-rule="evenodd" d="M1 3.5A1.5 1.5 0 0 1 2.5 2H8a.5.5 0 0 1 0 1H2.5a.5.5 0 0 0-.5.5v10a.5.5 0 0 0 .5.5h10a.5.5 0 0 0 .5-.5V8a.5.5 0 0 1 1 0v5.5a1.5 1.5 0 0 1-1.5 1.5h-10A1.5 1.5 0 0 1 1 13.5z" clip-rule="evenodd"/><path fill="#444f5c" fill-rule="evenodd" d="M14.354 1.646a.5.5 0 0 1 0 .708l-6 6a.5.5 0 1 1-.708-.708l6-6a.5.5 0 0 1 .708 0" clip-rule="evenodd"/><path fill="#444f5c" fill-rule="evenodd" d="M10.5 1.5A.5.5 0 0 1 11 1h3.5a.5.5 0 0 1 .5.5V5a.5.5 0 0 1-1 0V2h-3a.5.5 0 0 1-.5-.5" clip-rule="evenodd"/></svg>