<svg xmlns="http://www.w3.org/2000/svg" width="16" height="16" fill="none" viewBox="0 0 16 16"><g fill="#444f5c" clip-path="url(#a)"><path d="M11.354 4.646a.5.5 0 0 1 0 .707L8.707 8l2.646 2.646a.5.5 0 1 1-.707.707L8 8.707l-2.646 2.646a.5.5 0 1 1-.707-.707L7.293 8 4.646 5.354a.5.5 0 0 1 .708-.708L8 7.294l2.646-2.647a.5.5 0 0 1 .707 0"/><path fill-rule="evenodd" d="M8 .5a7.5 7.5 0 1 0 0 15 7.5 7.5 0 0 0 0-15M1.5 8a6.5 6.5 0 1 1 13 0 6.5 6.5 0 0 1-13 0" clip-rule="evenodd"/></g><defs><clipPath id="a"><path fill="#fff" d="M0 0h16v16H0z"/></clipPath></defs></svg>