<svg xmlns="http://www.w3.org/2000/svg" width="16" height="16" fill="none" viewBox="0 0 16 16"><path fill="#444f5c" d="M10.43 5.946a.52.52 0 0 1 .719.003l1.705 1.667a.48.48 0 0 1 .007.685l-1.704 1.742a.52.52 0 0 1-.718.019.48.48 0 0 1-.02-.696l.941-.961H7.2a.5.5 0 0 1-.508-.493.5.5 0 0 1 .508-.492h4.025l-.796-.778a.48.48 0 0 1 .003-.696"/><path fill="#444f5c" fill-rule="evenodd" d="M2 .5A1.5 1.5 0 0 0 .5 2v12A1.5 1.5 0 0 0 2 15.5h12a1.5 1.5 0 0 0 1.5-1.5V2A1.5 1.5 0 0 0 14 .5zM1.5 2a.5.5 0 0 1 .5-.5h2.304v13H2a.5.5 0 0 1-.5-.5zm3.804 12.5v-13H14a.5.5 0 0 1 .5.5v12a.5.5 0 0 1-.5.5z" clip-rule="evenodd"/></svg>