<svg xmlns="http://www.w3.org/2000/svg" width="16" height="16" fill="none" viewBox="0 0 16 16"><g clip-path="url(#a)"><path fill="#444f5c" d="M12.02.664C9.469-1.538 7.395 2.318 5.652 3.788c-.083.085-.15.113-.273.077-.596-.178-1.133-.05-1.581.376-.498.474-.982.964-1.465 1.454-.352.357-.335.823.038 1.195.952.925 1.852 1.898 2.835 2.79-1.609 1.641-3.249 3.242-4.878 4.862-.494.38-.432 1.201.186 1.403a.75.75 0 0 0 .818-.17C3 14.138 4.635 12.471 6.306 10.837c.946.919 1.869 1.86 2.808 2.786.414.412.865.411 1.28-.002q.677-.676 1.356-1.35c.473-.47.625-1.025.432-1.661-.038-.124.028-.171.091-.236q1.515-1.536 3.026-3.075a2.34 2.34 0 0 0 .699-1.721c-.008-.619-.219-1.167-.654-1.607-1.1-1.11-2.202-2.22-3.325-3.307z"/></g><defs><clipPath id="a"><path fill="#fff" d="M0 0h16v16H0z"/></clipPath></defs></svg>