<svg xmlns="http://www.w3.org/2000/svg" width="16" height="16" fill="none" viewBox="0 0 16 16"><g clip-path="url(#a)"><path fill="#444f5c" fill-rule="evenodd" d="M1.205 2.6C.523 1.605 1.235.252 2.442.252h11.099c1.212 0 1.923 1.363 1.231 2.357l-4.748 6.822a.5.5 0 0 0-.09.285v3.979a1 1 0 0 1-.52.876l-1.962 1.077a1 1 0 0 1-1.481-.877V9.712a.5.5 0 0 0-.088-.282zm1.237-1.348a.5.5 0 0 0-.412.783l4.678 6.83a1.5 1.5 0 0 1 .263.847v5.059l1.963-1.077V9.717a1.5 1.5 0 0 1 .269-.857l4.748-6.82a.5.5 0 0 0-.41-.787z" clip-rule="evenodd"/></g><defs><clipPath id="a"><path fill="#fff" d="M0 0h16v16H0z"/></clipPath></defs></svg>