<svg xmlns="http://www.w3.org/2000/svg" width="16" height="16" fill="none" viewBox="0 0 16 16"><path fill="#444f5c" fill-rule="evenodd" d="M3 2.7v5.543a5.6 5.6 0 0 1 1.063-.24c1.104-.137 2.603.006 4.214 1.08 1.366.911 2.592.903 3.477.682A4.4 4.4 0 0 0 13 9.238V3.494c-.176.088-.38.17-.613.237-1.021.292-2.526.259-4.61-.784-1.916-.957-3.161-.924-3.89-.716-.37.105-.626.261-.785.384q-.06.046-.102.085m10.1-.5.004-.005A.5.5 0 0 1 14 2.5v7a.5.5 0 0 1-.188.39L13.5 9.5l.312.39v.001l-.002.001-.003.002-.009.007a2 2 0 0 1-.129.094 5 5 0 0 1-.364.223 5.4 5.4 0 0 1-1.309.517c-1.115.279-2.639.27-4.273-.819-1.389-.926-2.64-1.032-3.536-.92A4.5 4.5 0 0 0 3 9.311V14.5a.5.5 0 1 1-1 0v-12a.5.5 0 0 1 .1-.3l.4.3-.4-.3.001-.002.001-.001.003-.004.008-.01a1 1 0 0 1 .099-.112c.064-.067.157-.154.28-.249a3.3 3.3 0 0 1 1.12-.553c1.022-.292 2.526-.259 4.612.784 1.915.957 3.16.924 3.889.716.37-.105.626-.262.785-.384a1.5 1.5 0 0 0 .202-.186l.004-.004-.002.003H13.1z" clip-rule="evenodd"/></svg>