<svg xmlns="http://www.w3.org/2000/svg" width="16" height="16" fill="none" viewBox="0 0 16 16"><path fill="#444f5c" d="M3 8.203a.5.5 0 0 0 0 1h5a.5.5 0 1 0 0-1zm-.5 2.699a.5.5 0 0 1 .5-.5h5a.5.5 0 0 1 0 1H3a.5.5 0 0 1-.5-.5M5 7a.5.5 0 0 0 0-1H3a.5.5 0 0 0 0 1z"/><path fill="#444f5c" fill-rule="evenodd" d="M4.5 2A1.5 1.5 0 0 1 6 .5h8A1.5 1.5 0 0 1 15.5 2v9a1.5 1.5 0 0 1-1.5 1.5h-2.5v1.906a1.5 1.5 0 0 1-1.5 1.5H2a1.5 1.5 0 0 1-1.5-1.5V5A1.5 1.5 0 0 1 2 3.5h2.5zm9.5 9.5h-2.5V5A1.5 1.5 0 0 0 10 3.5H5.5V2a.5.5 0 0 1 .5-.5h8a.5.5 0 0 1 .5.5v9a.5.5 0 0 1-.5.5m-12-7a.5.5 0 0 0-.5.5v9.406a.5.5 0 0 0 .5.5h8a.5.5 0 0 0 .5-.5V5a.5.5 0 0 0-.5-.5z" clip-rule="evenodd"/></svg>