<svg xmlns="http://www.w3.org/2000/svg" width="16" height="16" fill="none" viewBox="0 0 16 16"><g fill="#444f5c" clip-path="url(#a)"><path d="M.5 1.493a.5.5 0 0 1 .5-.5h14a.5.5 0 0 1 0 1H8.325l-5.868 13.21a.5.5 0 0 1-.914-.406L7.231 1.993H1a.5.5 0 0 1-.5-.5"/><path d="M15.356 8.65a.5.5 0 0 1-.005.706l-2.639 2.6 2.64 2.6a.5.5 0 0 1-.703.713L12 12.659l-2.649 2.61a.5.5 0 0 1-.702-.712l2.639-2.6-2.639-2.6a.5.5 0 1 1 .702-.713l2.65 2.61 2.648-2.61a.5.5 0 0 1 .707.005"/></g><defs><clipPath id="a"><path fill="#fff" d="M0 0h16v16H0z"/></clipPath></defs></svg>