<svg xmlns="http://www.w3.org/2000/svg" width="16" height="16" fill="none" viewBox="0 0 16 16"><path fill="#444f5c" d="M7.888 5.31c-.088-.29-.503-.282-.578.013l-1.3 5.102c-.309 1.216-1.99 1.331-2.463.17l-.879-2.16a.5.5 0 0 0-.463-.31H1a.5.5 0 0 1 0-1h1.205a1.5 1.5 0 0 1 1.39.934l.878 2.158a.3.3 0 0 0 .569-.039L6.34 5.076c.325-1.277 2.125-1.316 2.505-.054l1.947 6.471c.088.291.504.282.578-.013l.71-2.812a1.5 1.5 0 0 1 1.455-1.133H15a.5.5 0 0 1 0 1h-1.465a.5.5 0 0 0-.485.378l-.71 2.812c-.323 1.279-2.125 1.32-2.505.056z"/></svg>