<svg xmlns="http://www.w3.org/2000/svg" width="16" height="16" fill="none" viewBox="0 0 16 16"><g fill="#444f5c" clip-path="url(#a)"><path d="M9.136.994a.5.5 0 0 1 .5-.5H15a.5.5 0 0 1 .5.5v5.364a.5.5 0 1 1-1 0V2.201L7.592 9.11a.5.5 0 0 1-.707-.707l6.909-6.91H9.636a.5.5 0 0 1-.5-.5"/><path d="M2 1.5a.5.5 0 0 0-.5.5v12a.5.5 0 0 0 .5.5h12a.5.5 0 0 0 .5-.5v-4a.5.5 0 0 1 1 0v4a1.5 1.5 0 0 1-1.5 1.5H2A1.5 1.5 0 0 1 .5 14V2A1.5 1.5 0 0 1 2 .5h4a.5.5 0 1 1 0 1z"/></g><defs><clipPath id="a"><path fill="#fff" d="M0 0h16v16H0z"/></clipPath></defs></svg>