<svg xmlns="http://www.w3.org/2000/svg" width="16" height="16" fill="none" viewBox="0 0 16 16"><g fill="#444f5c" clip-path="url(#a)"><path d="M1.045.536a.5.5 0 1 0-1 0v13.912a1.5 1.5 0 0 0 1.5 1.5h13.897a.5.5 0 0 0 0-1H1.545a.5.5 0 0 1-.5-.5z"/><path d="M11.148 3.5a.5.5 0 1 0 0 1h1.792l-2.846 2.955L8.448 6.22a.5.5 0 0 0-.685.08l-3.7 4.466a.5.5 0 0 0 .77.638L8.23 7.306 9.848 8.52a.5.5 0 0 0 .66-.053l3.124-3.243.016 1.282a.5.5 0 0 0 1-.012l-.032-2.5a.5.5 0 0 0-.5-.494z"/></g><defs><clipPath id="a"><path fill="#fff" d="M0 0h16v16H0z"/></clipPath></defs></svg>