<svg xmlns="http://www.w3.org/2000/svg" width="16" height="16" fill="none" viewBox="0 0 16 16"><g clip-path="url(#a)"><path fill="#444f5c" fill-rule="evenodd" d="M3.179 0a.5.5 0 0 1 .5.5v.571h1.107a.5.5 0 0 1 0 1h-2.57a.84.84 0 0 0 0 1.679h1.926a1.84 1.84 0 1 1 0 3.679h-.463v.57a.5.5 0 1 1-1 .001v-.571H1.57a.5.5 0 0 1 0-1h2.571a.84.84 0 0 0 0-1.679H2.215a1.84 1.84 0 1 1 0-3.679h.464V.5a.5.5 0 0 1 .5-.5m7.71 5.794h4.623a.5.5 0 0 1 .5.5v4.623a.5.5 0 0 1-1 0v-3.39l-5.02 5.168a1.5 1.5 0 0 1-2.015.125l-1.903-1.53a.5.5 0 0 0-.666.037L.91 15.824a.5.5 0 1 1-.707-.707L4.7 10.62a1.5 1.5 0 0 1 2-.109l1.902 1.53a.5.5 0 0 0 .672-.042l5.054-5.205h-3.44a.5.5 0 1 1 0-1" clip-rule="evenodd"/></g><defs><clipPath id="a"><path fill="#fff" d="M0 0h16v16H0z"/></clipPath></defs></svg>