<svg xmlns="http://www.w3.org/2000/svg" width="16" height="16" fill="none" viewBox="0 0 16 16"><path fill="#444f5c" fill-rule="evenodd" d="M4.003 5.502a1.5 1.5 0 0 1 1.5-1.5h2.371a1.5 1.5 0 0 1 1.5 1.5v1.123h1.123a1.5 1.5 0 0 1 1.5 1.5v2.372a1.5 1.5 0 0 1-1.5 1.5H8.126a1.5 1.5 0 0 1-1.5-1.5V9.374H5.503a1.5 1.5 0 0 1-1.5-1.5zm1.5-.5a.5.5 0 0 0-.5.5v2.372a.5.5 0 0 0 .5.5h2.371a.5.5 0 0 0 .5-.5V5.502a.5.5 0 0 0-.5-.5zm2.123 4.372v1.123a.5.5 0 0 0 .5.5h2.371a.5.5 0 0 0 .5-.5V8.125a.5.5 0 0 0-.5-.5H9.374v.25a1.5 1.5 0 0 1-1.5 1.5z" clip-rule="evenodd"/><path fill="#444f5c" fill-rule="evenodd" d="M14.496 3.938a2 2 0 1 0-2.434-2.434L12 1.5H4l-.062.004a2 2 0 1 0-2.434 2.434L1.5 4v8q0 .032.004.062A2 2 0 1 0 3.937 14.5H12l.062-.004a2 2 0 1 0 2.434-2.434L14.5 12V4zM3 2a1 1 0 1 1-2 0 1 1 0 0 1 2 0m.938.496a2 2 0 0 1-1.442 1.442q.004.03.004.062v8l-.004.062c.705.18 1.26.734 1.441 1.438H12q.032 0 .062.004a2 2 0 0 1 1.442-1.442L13.5 12V4q0-.032.004-.062a2 2 0 0 1-1.442-1.442L12 2.5H4zM2 13a1 1 0 1 1 0 2 1 1 0 0 1 0-2m13 1a1 1 0 1 1-2 0 1 1 0 0 1 2 0M14 3a1 1 0 1 0 0-2 1 1 0 0 0 0 2" clip-rule="evenodd"/></svg>