<svg xmlns="http://www.w3.org/2000/svg" width="16" height="16" fill="none" viewBox="0 0 16 16"><path fill="#444f5c" fill-rule="evenodd" d="M2.414 1.507a.5.5 0 1 0-.707.707l2.07 2.07Q2.23 5.55.601 7.699a.5.5 0 0 0 0 .604C3.213 11.748 5.667 13.5 8 13.5q1.773-.001 3.649-1.345L14 14.507a.5.5 0 0 0 .707-.707zm8.515 9.93L8.776 9.283a1.5 1.5 0 0 1-2.06-2.06L4.488 4.995Q3.235 5.998 1.883 7.68l-.253.321.253.32c2.17 2.701 4.153 4.08 5.921 4.173L8 12.5q1.38.002 2.93-1.062" clip-rule="evenodd"/><path fill="#444f5c" d="M13.304 9.996a.51.51 0 0 1-.015-.701q.409-.456.826-.976L14.37 8l-.254-.32c-2.17-2.703-4.153-4.08-5.92-4.175L7.998 3.5a4 4 0 0 0-.749.076.57.57 0 0 1-.513-.146c-.27-.27-.17-.729.204-.812A5 5 0 0 1 7.999 2.5c2.333 0 4.786 1.752 7.398 5.198a.5.5 0 0 1 0 .604 26 26 0 0 1-1.38 1.68.49.49 0 0 1-.713.014"/></svg>