<svg xmlns="http://www.w3.org/2000/svg" width="16" height="16" fill="none" viewBox="0 0 16 16"><path fill="#444f5c" d="M10.602.747a.5.5 0 0 1 .5.5v5.25a.5.5 0 0 1-1 0v-5.25a.5.5 0 0 1 .5-.5"/><path fill="#444f5c" fill-rule="evenodd" d="M2.89 3.794c.722-.287 1.476.098 1.784.731l1.033 2.13A1.5 1.5 0 0 1 5.483 8.3l-.6.682a.5.5 0 0 0 .036.698l1.955 1.809a.5.5 0 0 0 .647.027l.93-.724a1.5 1.5 0 0 1 1.509-.196l2.306.98c.731.312 1.2 1.259.607 2.024-.77.995-2.085 1.969-3.82 2.135-1.75.168-3.826-.494-6.091-2.586C1.699 11.983.504 10.183.192 8.405.035 7.507.1 6.585.53 5.76c.433-.83 1.207-1.508 2.36-1.966m.884 1.168c-.111-.23-.345-.306-.515-.238-.977.388-1.541.92-1.843 1.498-.303.583-.369 1.268-.239 2.01.264 1.504 1.312 3.12 2.463 4.183 2.117 1.954 3.924 2.458 5.317 2.325 1.405-.135 2.487-.927 3.126-1.752a.24.24 0 0 0 .038-.242.44.44 0 0 0-.247-.249l-2.306-.981a.5.5 0 0 0-.503.065l-.93.725a1.5 1.5 0 0 1-1.94-.083l-1.956-1.81a1.5 1.5 0 0 1-.107-2.092l.6-.681a.5.5 0 0 0 .075-.55z" clip-rule="evenodd"/><path fill="#444f5c" d="M14.15 1.247a.5.5 0 0 0-1 0v5.25a.5.5 0 1 0 1 0z"/></svg>