<svg xmlns="http://www.w3.org/2000/svg" width="16" height="16" fill="none" viewBox="0 0 16 16"><path fill="#444f5c" fill-rule="evenodd" d="M3.5 3v1.5H2A1.5 1.5 0 0 0 .5 6v7A1.5 1.5 0 0 0 2 14.5h12a1.5 1.5 0 0 0 1.5-1.5V6A1.5 1.5 0 0 0 14 4.5h-1.5V3A1.5 1.5 0 0 0 11 1.5H5A1.5 1.5 0 0 0 3.5 3M5 2.5a.5.5 0 0 0-.5.5v1.5h7V3a.5.5 0 0 0-.5-.5zm-3 3a.5.5 0 0 0-.5.5v1.997h2v-.5a.5.5 0 0 1 1 0v.5h7v-.5a.5.5 0 0 1 1 0v.5h2V6a.5.5 0 0 0-.5-.5zm9.5 3.497v.5a.5.5 0 0 0 1 0v-.5h2V13a.5.5 0 0 1-.5.5H2a.5.5 0 0 1-.5-.5V8.997h2v.5a.5.5 0 0 0 1 0v-.5z" clip-rule="evenodd"/></svg>