<svg xmlns="http://www.w3.org/2000/svg" width="16" height="16" fill="none" viewBox="0 0 16 16"><g clip-path="url(#a)"><path fill="#444f5c" d="M5.141 5.31h5.707c.37-.384.583-.901.583-1.446V1.207h-6.86v2.669c0 .539.208 1.05.571 1.434zm-.571 9.434 2.717-2.717a1.01 1.01 0 0 1 1.427 0l2.717 2.717v-2.608c0-.7-.351-1.353-.935-1.739l-2.524-1.67-2.479 1.666a2.09 2.09 0 0 0-.922 1.731zM6.883 8 4.817 6.612a3.3 3.3 0 0 1-1.458-2.736V1.207h-.74a.605.605 0 0 1 0-1.21H13.38a.605.605 0 0 1 0 1.21h-.74v2.657a3.3 3.3 0 0 1-1.477 2.749L9.065 8.001l2.098 1.388a3.3 3.3 0 0 1 1.477 2.749v2.657h.74a.605.605 0 0 1 0 1.21H2.619a.605.605 0 0 1 0-1.21h.74v-2.669c0-1.098.547-2.123 1.458-2.736l2.066-1.388z"/></g><defs><clipPath id="a"><path fill="#fff" d="M0 0h16v16H0z"/></clipPath></defs></svg>