<svg xmlns="http://www.w3.org/2000/svg" width="16" height="16" fill="none" viewBox="0 0 16 16"><g clip-path="url(#a)"><path fill="#444f5c" d="M13.65-.004c.351 0 .636.271.636.605s-.285.605-.636.605h-.778l.001 2.657c0 1.045-.52 2.023-1.393 2.643l-.158.106L9.12 7.999l2.202 1.388c.969.61 1.551 1.643 1.551 2.749l-.001 2.657h.778c.351 0 .636.271.636.605s-.285.605-.636.605H2.351c-.351 0-.636-.271-.636-.605s.285-.605.636-.605h.777v-2.669c0-1.098.574-2.123 1.531-2.735L6.828 8 4.659 6.612c-.904-.578-1.466-1.525-1.525-2.553l-.005-.182V1.208h-.777c-.351 0-.636-.271-.636-.605s.285-.605.636-.605h11.299zM7.97 8.728l-2.603 1.666a2.06 2.06 0 0 0-.968 1.731v1.834l2.749-2.617a1.235 1.235 0 0 1 1.705 0l2.749 2.617v-1.822c0-.7-.369-1.353-.981-1.739l-2.65-1.67zm3.632-7.521H4.399v2.084h7.202z"/></g><defs><clipPath id="a"><path fill="#fff" d="M0 0h16v16H0z"/></clipPath></defs></svg>