<svg xmlns="http://www.w3.org/2000/svg" width="16" height="16" fill="none" viewBox="0 0 16 16"><path fill="#444f5c" fill-rule="evenodd" d="M3.5 2c-.274 0-.53.073-.75.2l-.5-.865A2.5 2.5 0 0 1 3.5 1h1v1zm4 0h-2V1h2zm3 0h-2V1h2zm2 0h-1V1h1c.455 0 .882.122 1.25.335l-.5.865c-.22-.127-.476-.2-.75-.2m-10.3.75c-.127.22-.2.476-.2.75v1H1v-1c0-.455.122-.882.335-1.25zM14 3.5c0-.274-.073-.53-.2-.75l.865-.5c.213.368.335.795.335 1.25v1h-1zm-12 2v2H1v-2zm12 2v-2h1v2zm-12 1v2H1v-2zm12 2v-2h1v2zm-12 1v1c0 .274.073.53.2.75l-.865.5A2.5 2.5 0 0 1 1 12.5v-1zm12 1v-1h1v1c0 .455-.122.882-.335 1.25l-.865-.5c.127-.22.2-.476.2-.75M2.75 13.8c.22.127.476.2.75.2h1v1h-1a2.5 2.5 0 0 1-1.25-.335zm9.75.2c.274 0 .53-.073.75-.2l.5.865A2.5 2.5 0 0 1 12.5 15h-1v-1zm-7 0h2v1h-2zm3 0h2v1h-2zM7.094 4.618a3.5 3.5 0 0 1 1.812 0l-.258.967a2.5 2.5 0 0 0-1.296 0zm2.657.35c.53.308.973.75 1.28 1.281l-.865.501a2.5 2.5 0 0 0-.916-.916zM4.969 6.25c.307-.53.75-.973 1.28-1.28l.501.865c-.38.22-.696.537-.916.916zm6.413.845a3.5 3.5 0 0 1 0 1.812l-.967-.258a2.5 2.5 0 0 0 0-1.296zM4.5 8q.001-.47.118-.906l.967.258a2.5 2.5 0 0 0 0 1.296l-.967.258A3.5 3.5 0 0 1 4.5 8m1.75 3.031a3.5 3.5 0 0 1-1.281-1.28l.865-.501c.22.38.537.696.916.916zm4.781-1.28c-.307.53-.75.973-1.28 1.28l-.501-.865c.38-.22.696-.537.916-.916zM8 11.5q-.47-.001-.906-.118l.258-.967a2.5 2.5 0 0 0 1.296 0l.258.967q-.436.117-.906.118" clip-rule="evenodd"/></svg>