<svg xmlns="http://www.w3.org/2000/svg" width="16" height="16" fill="none" viewBox="0 0 16 16"><g clip-path="url(#a)"><path fill="#444f5c" fill-rule="evenodd" d="M5.142 3.028A2.858 2.858 0 1 1 8.5 5.843v1.79h3.436a1.5 1.5 0 0 1 1.5 1.5v.666h.765a1.5 1.5 0 0 1 1.5 1.5v3.193a1.5 1.5 0 0 1-1.5 1.5h-2.529a1.5 1.5 0 0 1-1.5-1.5V11.3a1.5 1.5 0 0 1 1.5-1.5h.764v-.666a.5.5 0 0 0-.5-.5H4.064a.5.5 0 0 0-.5.5V9.8h.764a1.5 1.5 0 0 1 1.5 1.5v3.193a1.5 1.5 0 0 1-1.5 1.5H1.8a1.5 1.5 0 0 1-1.5-1.5V11.3a1.5 1.5 0 0 1 1.5-1.5h.764v-.666a1.5 1.5 0 0 1 1.5-1.5H7.5v-1.79a2.86 2.86 0 0 1-2.358-2.815M8 1.17a1.858 1.858 0 1 0 0 3.716A1.858 1.858 0 0 0 8 1.17M1.8 10.8a.5.5 0 0 0-.5.5v3.192a.5.5 0 0 0 .5.5h2.528a.5.5 0 0 0 .5-.5V11.3a.5.5 0 0 0-.5-.5zm9.372.5a.5.5 0 0 1 .5-.5h2.529a.5.5 0 0 1 .5.5v3.192a.5.5 0 0 1-.5.5h-2.529a.5.5 0 0 1-.5-.5z" clip-rule="evenodd"/></g><defs><clipPath id="a"><path fill="#fff" d="M0 0h16v16H0z"/></clipPath></defs></svg>