<svg xmlns="http://www.w3.org/2000/svg" width="16" height="16" fill="none" viewBox="0 0 16 16"><g clip-path="url(#a)"><path fill="#444f5c" fill-rule="evenodd" d="M11.275 3.302A3.276 3.276 0 0 1 8.5 6.54v3.18h1.143a1.5 1.5 0 0 1 1.5 1.5v3.287a1.5 1.5 0 0 1-1.5 1.5H6.357a1.5 1.5 0 0 1-1.5-1.5V11.22a1.5 1.5 0 0 1 1.5-1.5H7.5V6.54a3.276 3.276 0 1 1 3.775-3.238M8 1.027a2.275 2.275 0 1 0 0 4.55 2.275 2.275 0 0 0 0-4.55m-.017 9.694H6.357a.5.5 0 0 0-.5.5v3.287a.5.5 0 0 0 .5.5h3.286a.5.5 0 0 0 .5-.5V11.22a.5.5 0 0 0-.5-.5z" clip-rule="evenodd"/></g><defs><clipPath id="a"><path fill="#fff" d="M0 0h16v16H0z"/></clipPath></defs></svg>