<svg xmlns="http://www.w3.org/2000/svg" width="16" height="16" fill="none" viewBox="0 0 16 16"><path fill="#444f5c" d="M4.304 4.5a.5.5 0 0 1 .5.5v6a.5.5 0 0 1-1 0V5a.5.5 0 0 1 .5-.5m2.222.03a.5.5 0 0 1 .554.15l2.116 2.539 2.116-2.54a.5.5 0 0 1 .884.321v6a.5.5 0 1 1-1 0V6.381L9.58 8.321a.5.5 0 0 1-.768 0L7.196 6.38V11a.5.5 0 1 1-1 0V5a.5.5 0 0 1 .33-.47"/><path fill="#444f5c" fill-rule="evenodd" d="M2 .5A1.5 1.5 0 0 0 .5 2v12A1.5 1.5 0 0 0 2 15.5h12a1.5 1.5 0 0 0 1.5-1.5V2A1.5 1.5 0 0 0 14 .5zM1.5 2a.5.5 0 0 1 .5-.5h12a.5.5 0 0 1 .5.5v12a.5.5 0 0 1-.5.5H2a.5.5 0 0 1-.5-.5z" clip-rule="evenodd"/></svg>