<svg xmlns="http://www.w3.org/2000/svg" width="16" height="16" fill="none" viewBox="0 0 16 16"><path fill="#444f5c" d="M9.256 6.744a.5.5 0 0 1-.145-.378L9.11 2.71a.5.5 0 1 1 1 0v2.473l3.287-3.287a.5.5 0 1 1 .707.708L10.818 5.89h2.472a.5.5 0 1 1 0 1H9.637a.5.5 0 0 1-.38-.146"/><path fill="#444f5c" d="M12.29 14.25a1.5 1.5 0 0 0 1.5-1.5V9.457a.5.5 0 0 0-1 0v3.293a.5.5 0 0 1-.5.5H3.25a.5.5 0 0 1-.5-.5V3.71a.5.5 0 0 1 .5-.5h3.293a.5.5 0 1 0 0-1H3.25a1.5 1.5 0 0 0-1.5 1.5v9.04a1.5 1.5 0 0 0 1.5 1.5z"/></svg>