<svg xmlns="http://www.w3.org/2000/svg" width="24" height="24" fill="none" viewBox="0 0 24 24"><path fill="#444f5c" d="M10.129 13.739H7.748a3.814 3.814 0 0 0-3.742 3.078h5.932q.126.784.416 1.5l-7.946-.001v-.763a5.34 5.34 0 0 1 5.34-5.34h3.032a7 7 0 0 0-.651 1.525M9.273 3.82a3.814 3.814 0 1 1 .002 7.63 3.814 3.814 0 0 1-.003-7.631zm-.446 1.57a2.286 2.286 0 0 0-.825 4.147 2.29 2.29 0 0 0 2.89-.284A2.288 2.288 0 0 0 8.827 5.39m8.022 4.926c-2.296 0-3.317 1.904-3.551 2.817a.8.8 0 0 0-.023.185v2.643l-.95.95a.75.75 0 0 0-.22.53v.443c0 .414.336.75.75.75h7.987a.75.75 0 0 0 .75-.75v-.443a.75.75 0 0 0-.22-.53l-.95-.95v-2.643a.8.8 0 0 0-.023-.185c-.234-.913-1.255-2.817-3.551-2.817zm-2.274 5.872v-2.796c.195-.664.891-1.776 2.274-1.776s2.08 1.11 2.274 1.776v2.796c0 .199.079.39.22.53l.615.615h-6.219l.615-.615a.75.75 0 0 0 .221-.53m2.274 3.99a1.315 1.315 0 0 0 1.252-.899h-2.505c.09.263.26.49.484.653.224.162.493.248.768.247z"/></svg>