<svg xmlns="http://www.w3.org/2000/svg" width="16" height="16" fill="none" viewBox="0 0 16 16"><path fill="#444f5c" fill-rule="evenodd" d="M2.493.753a1.5 1.5 0 0 0-1.5 1.5v11.495a1.5 1.5 0 0 0 1.5 1.5h11.002a1.5 1.5 0 0 0 1.5-1.5V6.755a1.5 1.5 0 0 0-.435-1.056l-4.463-4.502A1.5 1.5 0 0 0 9.032.753zm-.5 1.5a.5.5 0 0 1 .5-.5h6.539a.5.5 0 0 1 .355.148l4.463 4.502a.5.5 0 0 1 .145.352v1.314l-.473.315-1.589-1.232a1.5 1.5 0 0 0-.92-.315H10.5V5.5a.5.5 0 1 0-1 0V9a.5.5 0 1 0 1 0V7.837h.514a.5.5 0 0 1 .306.105l1.325 1.027-.477.318a1.5 1.5 0 0 0-.668 1.248v3.713H8.148V12a1.5 1.5 0 0 0-1.5-1.5H5.247V6a1.5 1.5 0 0 0-1.5-1.5H1.993zm10.73 7.866 1.272-.848v4.477a.5.5 0 0 1-.5.5H12.5v-3.713a.5.5 0 0 1 .223-.416M1.992 5.5v7.764l.891-.982 1.363-1.477V6a.5.5 0 0 0-.5-.5zm.459 8.746.041.002h4.655V12a.5.5 0 0 0-.5-.5H4.966L3.62 12.958z" clip-rule="evenodd"/></svg>