<svg xmlns="http://www.w3.org/2000/svg" width="16" height="16" fill="none" viewBox="0 0 16 16"><path fill="#444f5c" d="M6.305 2.477a.5.5 0 0 1 .5-.5h2.39a.5.5 0 0 1 0 1h-2.39a.5.5 0 0 1-.5-.5M8 13.78a.81.81 0 0 0 .808-.81.81.81 0 0 0-.808-.812.81.81 0 0 0-.807.811.81.81 0 0 0 .807.812"/><path fill="#444f5c" fill-rule="evenodd" d="M1.438 1.927a1.5 1.5 0 0 1 1.5-1.5h10.125a1.5 1.5 0 0 1 1.5 1.5v12.147a1.5 1.5 0 0 1-1.5 1.5H2.938a1.5 1.5 0 0 1-1.5-1.5zm1.5-.5a.5.5 0 0 0-.5.5v12.147a.5.5 0 0 0 .5.5h10.125a.5.5 0 0 0 .5-.5V1.927a.5.5 0 0 0-.5-.5z" clip-rule="evenodd"/></svg>