<svg xmlns="http://www.w3.org/2000/svg" width="16" height="16" fill="none" viewBox="0 0 16 16"><path fill="#444f5c" d="M9.015 5.324a.5.5 0 0 0-1 0v1.582a.5.5 0 0 0 .5.5h.791a.5.5 0 0 0 0-1h-.29z"/><path fill="#444f5c" fill-rule="evenodd" d="M5.034 6.5a3.5 3.5 0 1 1 7 0 3.5 3.5 0 0 1-7 0m3.5-2.5a2.5 2.5 0 1 0 0 5 2.5 2.5 0 0 0 0-5" clip-rule="evenodd"/><path fill="#444f5c" fill-rule="evenodd" d="M2.144 14.322a1.5 1.5 0 0 0 1.492 1.63h9.372a.5.5 0 0 0 0-1H3.636a.496.496 0 0 1-.435-.732 2.49 2.49 0 0 1 2.183-1.296h7.658a1.5 1.5 0 0 0 1.5-1.5V1.548a1.5 1.5 0 0 0-1.5-1.5H3.644a1.5 1.5 0 0 0-1.5 1.5zm1.5-13.274a.5.5 0 0 0-.5.5v11.19a3.5 3.5 0 0 1 2.24-.814h7.658a.5.5 0 0 0 .5-.5V1.548a.5.5 0 0 0-.5-.5z" clip-rule="evenodd"/></svg>