<svg xmlns="http://www.w3.org/2000/svg" width="16" height="16" fill="none" viewBox="0 0 16 16"><g clip-path="url(#a)"><path fill="#444f5c" d="M.96 12.816c0 .18.166.326.371.326h13.337c.205 0 .371-.146.371-.326V3.184c0-.18-.166-.326-.371-.326H1.331c-.205 0-.371.146-.371.326zm-.96 0V3.184C0 2.436.674 1.83 1.505 1.83h12.991c.831 0 1.505.606 1.505 1.354v9.632c0 .748-.674 1.354-1.505 1.354H1.505C.674 14.17 0 13.564 0 12.816"/></g><defs><clipPath id="a"><path fill="#fff" d="M0 0h16v16H0z"/></clipPath></defs></svg>