<svg xmlns="http://www.w3.org/2000/svg" width="16" height="16" fill="none" viewBox="0 0 16 16"><g fill="#444f5c" clip-path="url(#a)"><path d="M15.185 16H.925a.875.875 0 0 1-.87-.87V3.958c0-.477.393-.87.87-.87h14.26c.477 0 .87.393.87.87V15.13c0 .477-.393.87-.87.87M11.56 9.499a3.45 3.45 0 0 1-1.016 2.453 3.45 3.45 0 0 1-2.453 1.016 3.45 3.45 0 0 1-2.453-1.015 3.45 3.45 0 0 1-1.016-2.454 3.45 3.45 0 0 1 1.015-2.453A3.45 3.45 0 0 1 8.09 6.03c.926 0 1.798.361 2.453 1.016a.447.447 0 0 0 .631-.631A4.33 4.33 0 0 0 8.09 5.138c-1.165 0-2.26.453-3.084 1.278a4.33 4.33 0 0 0-1.277 3.083c0 1.165.453 2.26 1.277 3.084A4.33 4.33 0 0 0 8.09 13.86a4.33 4.33 0 0 0 3.084-1.278 4.33 4.33 0 0 0 1.278-3.084.446.446 0 1 0-.892.001M8.091 7.435a.445.445 0 0 0-.446.446v1.555c0 .108.04.213.111.294l1.443 1.644a.447.447 0 1 0 .67-.589L8.536 9.267V7.88a.444.444 0 0 0-.446-.446zm7.122-5.189h-.561c0-.281-.112-.281-.253-.281H1.711c-.14 0-.253 0-.253.281H.897c0-.561.365-.842.814-.842h12.716c.421 0 .786.281.786.842M13.248.842c0-.281-.112-.281-.14-.281H3.003c-.028 0-.14 0-.14.281h-.561c0-.561.309-.842.702-.842h10.133c.365 0 .674.281.674.842z"/></g><defs><clipPath id="a"><path fill="#fff" d="M0 0h16v16H0z"/></clipPath></defs></svg>