<svg xmlns="http://www.w3.org/2000/svg" width="16" height="16" fill="none" viewBox="0 0 16 16"><path fill="#444f5c" fill-rule="evenodd" d="M7.775.553a.5.5 0 0 1 .453.002l7 3.604a.5.5 0 0 1-.008.893l-7 3.436a.5.5 0 0 1-.445-.002l-7-3.52a.5.5 0 0 1 0-.893zM2.113 4.52l5.889 2.96 5.885-2.887-5.89-3.032z" clip-rule="evenodd"/><path fill="#444f5c" d="M.553 7.815a.5.5 0 0 1 .672-.223L8 11l6.775-3.407a.5.5 0 1 1 .45.894l-7 3.52a.5.5 0 0 1-.45 0l-7-3.52a.5.5 0 0 1-.222-.671"/><path fill="#444f5c" d="M1.225 11.112a.5.5 0 1 0-.45.893l7 3.52a.5.5 0 0 0 .45 0l7-3.52a.5.5 0 1 0-.45-.893L8 14.519z"/></svg>