<svg xmlns="http://www.w3.org/2000/svg" width="16" height="16" fill="none" viewBox="0 0 16 16"><path fill="#444f5c" fill-rule="evenodd" d="M.292 3.374c1.577-.857 2.68-2.33 3.031-2.956a.5.5 0 0 1 .69-.212c.09.05.16.126.203.212.352.626 1.454 2.099 3.032 2.956a.498.498 0 0 1 .114.803.5.5 0 0 1-.114.082c-1.578.858-2.68 2.33-3.032 2.956a.5.5 0 0 1-.689.212.5.5 0 0 1-.204-.212C2.972 6.59 1.87 5.117.292 4.26a.5.5 0 0 1-.225-.643.5.5 0 0 1 .225-.242M3.77 1.56a9.9 9.9 0 0 0 2.293 2.257A9.9 9.9 0 0 0 3.77 6.074a9.9 9.9 0 0 0-2.293-2.257A9.9 9.9 0 0 0 3.77 1.56m6.94 3.431a.5.5 0 0 0-.708 0 .5.5 0 0 0-.087.118c-.56 1.008-2.342 3.403-4.911 4.799a.498.498 0 0 0-.122.796.5.5 0 0 0 .122.09c2.57 1.395 4.35 3.79 4.91 4.798a.498.498 0 0 0 .796.117.5.5 0 0 0 .087-.117c.56-1.008 2.341-3.403 4.91-4.799a.5.5 0 0 0 .268-.442.5.5 0 0 0-.268-.443c-2.569-1.396-4.35-3.791-4.91-4.799a.5.5 0 0 0-.088-.118m3.784 5.36c-1.93 1.239-3.363 2.924-4.138 4.062-.775-1.138-2.208-2.823-4.139-4.062 1.93-1.24 3.364-2.925 4.139-4.063.775 1.138 2.208 2.823 4.138 4.063" clip-rule="evenodd"/><path fill="#444f5c" d="M11.485 1.003a.5.5 0 0 0-1 0V2.99a.5.5 0 0 0 1 0zm3.227 1.913a.5.5 0 0 1 .5.5v1.987a.5.5 0 0 1-1 0V3.416a.5.5 0 0 1 .5-.5"/><path fill="#444f5c" fill-rule="evenodd" d="M2.715 11.892a1.554 1.554 0 1 0 0 3.108 1.554 1.554 0 0 0 0-3.108m-.554 1.554a.554.554 0 1 1 1.108 0 .554.554 0 0 1-1.108 0" clip-rule="evenodd"/></svg>