<svg xmlns="http://www.w3.org/2000/svg" width="17" height="16" fill="none" viewBox="0 0 17 16"><path fill="#444f5c" fill-rule="evenodd" d="M8.006 5.388a2.611 2.611 0 1 0 0 5.222 2.611 2.611 0 0 0 0-5.222M6.395 8a1.611 1.611 0 1 1 3.222 0 1.611 1.611 0 0 1-3.222 0" clip-rule="evenodd"/><path fill="#444f5c" fill-rule="evenodd" d="M1.509 3.25a1.5 1.5 0 0 0-1.5 1.5v2.61a.5.5 0 0 0 0 .189v.978a.5.5 0 0 0 0 .188v2.555a1.5 1.5 0 0 0 1.5 1.5h13.014a1.5 1.5 0 0 0 1.5-1.5V4.75a1.5 1.5 0 0 0-1.5-1.5zm-.5 6.511v1.509a.5.5 0 0 0 .5.5h1.704zM4.68 11.77h6.66a.5.5 0 0 1 .072-.08l3.61-3.29v-.724l-3.61-3.29a.5.5 0 0 1-.106-.136h-6.59a.5.5 0 0 1-.106.136L1.009 7.667v.741l3.6 3.282q.042.036.072.08m9.842 0h-1.714l2.214-2.017v1.517a.5.5 0 0 1-.5.5m.5-7.02v1.573L12.748 4.25h1.775a.5.5 0 0 1 .5.5m-11.748-.5H1.509a.5.5 0 0 0-.5.5v1.565z" clip-rule="evenodd"/></svg>