<svg xmlns="http://www.w3.org/2000/svg" width="16" height="16" fill="none" viewBox="0 0 16 16"><g clip-path="url(#a)"><path fill="#444f5c" fill-rule="evenodd" d="M13.225 0a.5.5 0 0 1 .5.5v.39h.834a.5.5 0 0 1 0 1h-2.135a.612.612 0 1 0 0 1.224h1.6a1.612 1.612 0 1 1 0 3.225h-.3v.39a.5.5 0 0 1-1 0v-.39h-.834a.5.5 0 0 1 0-1h2.135a.612.612 0 1 0 0-1.225h-1.6a1.612 1.612 0 0 1 0-3.224h.3V.5a.5.5 0 0 1 .5-.5M4.06 9.232A2.5 2.5 0 0 1 5.828 8.5h2.926c.19 0 .423.018.655.103.408.15.718.385.91.7.191.313.238.654.213.965-.016.194-.06.385-.12.568l2.43-.81c.484-.162.938-.135 1.317.06.37.192.617.518.747.863.244.652.122 1.596-.682 1.998l-.032.014-4.835 2.015a5.5 5.5 0 0 1-2.662.396L2.975 15H2a1.5 1.5 0 0 1-1.5-1.5V12A1.5 1.5 0 0 1 2 10.5h.793zM2.5 11.5V14H2a.5.5 0 0 1-.5-.5V12a.5.5 0 0 1 .5-.5zm6.735-.5c.153-.25.279-.55.3-.811a.6.6 0 0 0-.069-.364c-.052-.086-.16-.195-.402-.284a.9.9 0 0 0-.31-.041H5.828a1.5 1.5 0 0 0-1.06.44L3.5 11.206v2.84l3.294.33a4.5 4.5 0 0 0 2.179-.324l4.815-2.006c.189-.104.31-.405.181-.746a.6.6 0 0 0-.269-.325c-.105-.055-.276-.09-.542-.002l-2.692.898a2.5 2.5 0 0 1-.79.128H7a.5.5 0 0 1 0-1z" clip-rule="evenodd"/></g><defs><clipPath id="a"><path fill="#fff" d="M0 0h16v16H0z"/></clipPath></defs></svg>