<svg xmlns="http://www.w3.org/2000/svg" width="16" height="16" fill="none" viewBox="0 0 16 16"><g fill="#444f5c" clip-path="url(#a)"><path fill-rule="evenodd" d="M3.749 3.527a3.413 3.413 0 1 1 6.825 0 3.413 3.413 0 0 1-6.825 0M7.16 1.115a2.413 2.413 0 1 0 0 4.825 2.413 2.413 0 0 0 0-4.825" clip-rule="evenodd"/><path d="M7.168 8.742a5.25 5.25 0 0 0-5.251 5.251v.536a.5.5 0 0 1-1 0v-.536a6.25 6.25 0 0 1 6.251-6.251h.733a.5.5 0 0 1 0 1zm5.591 1.451a.5.5 0 0 0-.707-.707l-2 2a.5.5 0 1 0 .707.707z"/><path d="m12.3 8.039-1.158 1.155a.5.5 0 1 1-.706-.708l1.16-1.159a2.35 2.35 0 0 1 3.324 3.323l-.003.003-1.159 1.157a.5.5 0 0 1-.706-.708l1.157-1.154a1.35 1.35 0 0 0-1.91-1.91M9.76 10.576a.5.5 0 1 0-.708-.706l-1.156 1.158-.002.003a2.35 2.35 0 0 0 3.323 3.323l1.16-1.161a.5.5 0 0 0-.708-.707l-1.155 1.157a1.35 1.35 0 0 1-1.909-1.91z"/></g><defs><clipPath id="a"><path fill="#fff" d="M0 0h16v16H0z"/></clipPath></defs></svg>