<svg xmlns="http://www.w3.org/2000/svg" width="16" height="16" fill="none" viewBox="0 0 16 16"><path fill="#444f5c" d="M5.548 1.79a.5.5 0 0 1-.243.663C3.181 3.442 1.721 5.558 1.721 8c0 2.443 1.46 4.558 3.584 5.547a.5.5 0 1 1-.421.906C2.428 13.312.72 10.855.72 8s1.707-5.31 4.163-6.453a.5.5 0 0 1 .664.242m4.905.001a.5.5 0 0 1 .664-.243C13.572 2.689 15.28 5.146 15.28 8s-1.707 5.31-4.163 6.454a.5.5 0 0 1-.421-.907C12.82 12.558 14.28 10.443 14.28 8s-1.46-4.558-3.585-5.547a.5.5 0 0 1-.242-.664"/><path fill="#444f5c" d="M9.041 11.206a.5.5 0 0 1 .25-.662c1.018-.46 1.702-1.434 1.702-2.544s-.684-2.085-1.702-2.544a.5.5 0 1 1 .412-.912c1.342.606 2.29 1.917 2.29 3.456s-.948 2.85-2.29 3.456a.5.5 0 0 1-.662-.25m-2.082 0a.5.5 0 0 1-.662.25C4.955 10.85 4.007 9.538 4.007 8s.948-2.85 2.29-3.456a.5.5 0 1 1 .412.912C5.69 5.916 5.007 6.89 5.007 8s.684 2.085 1.702 2.544a.5.5 0 0 1 .25.662"/><path fill="#444f5c" d="M9 8a1 1 0 1 1-2 0 1 1 0 0 1 2 0"/></svg>