<svg xmlns="http://www.w3.org/2000/svg" width="16" height="16" fill="none" viewBox="0 0 16 16"><g fill="#444f5c" clip-path="url(#a)"><path d="M8.5 1a.5.5 0 1 0-1 0v3a.5.5 0 0 0 1 0zm0 11a.5.5 0 0 0-1 0v3a.5.5 0 0 0 1 0zm4.098-10.366a.5.5 0 0 1 .109.698l-1.768 2.424a.5.5 0 0 1-.808-.59L11.9 1.744a.5.5 0 0 1 .699-.11m2.551 4.564a.5.5 0 1 0-.3-.954l-2.862.9a.5.5 0 0 0 .3.954zm.324 4.232a.5.5 0 0 1-.633.316l-2.845-.95a.5.5 0 0 1 .317-.95l2.845.952a.5.5 0 0 1 .316.632m-3.556 3.81a.5.5 0 1 0 .804-.594l-1.781-2.413a.5.5 0 1 0-.805.594zM3.403 1.634a.5.5 0 0 0-.11.698l1.768 2.424a.5.5 0 1 0 .808-.59L4.101 1.744a.5.5 0 0 0-.698-.11M.85 6.198a.5.5 0 1 1 .3-.954l2.862.9a.5.5 0 1 1-.3.954zM.526 10.43a.5.5 0 0 0 .633.316l2.845-.95a.5.5 0 0 0-.317-.95l-2.845.952a.5.5 0 0 0-.316.632m3.556 3.81a.5.5 0 1 1-.804-.594l1.782-2.413a.5.5 0 1 1 .804.594z"/></g><defs><clipPath id="a"><path fill="#fff" d="M0 0h16v16H0z"/></clipPath></defs></svg>