<svg xmlns="http://www.w3.org/2000/svg" width="16" height="16" fill="none" viewBox="0 0 16 16"><path fill="#444f5c" fill-rule="evenodd" d="M8 3.9a2.9 2.9 0 1 0 0 5.8 2.9 2.9 0 0 0 0-5.8M6.1 6.8a1.9 1.9 0 1 1 3.8 0 1.9 1.9 0 0 1-3.8 0" clip-rule="evenodd"/><path fill="#444f5c" fill-rule="evenodd" d="M8 .3C4.424.3 1.5 3.12 1.5 6.628c0 1.772.844 3.399 2.01 4.867 1.166 1.47 2.7 2.836 4.166 4.086a.5.5 0 0 0 .61.03 19.4 19.4 0 0 0 4.051-3.836c1.21-1.554 2.163-3.37 2.163-5.147C14.5 3.12 11.576.3 8 .3M2.5 6.628C2.5 3.7 4.95 1.3 8 1.3c3.051 0 5.5 2.399 5.5 5.328 0 1.444-.79 3.041-1.952 4.533a18.5 18.5 0 0 1-3.52 3.405c-1.365-1.173-2.71-2.4-3.735-3.692C3.19 9.486 2.5 8.076 2.5 6.628" clip-rule="evenodd"/></svg>