<svg xmlns="http://www.w3.org/2000/svg" width="16" height="16" fill="none" viewBox="0 0 16 16"><path fill="#444f5c" d="M8.5 9.882a.5.5 0 1 0-1 0v2.5a.5.5 0 1 0 1 0z"/><path fill="#444f5c" fill-rule="evenodd" d="M4.5 3.882v1.686h-.844a2 2 0 0 0-2 2v6.375a2 2 0 0 0 2 2h8.689a2 2 0 0 0 2-2V7.568a2 2 0 0 0-2-2H11.5V3.882a3.5 3.5 0 1 0-7 0m3.5-2.5a2.5 2.5 0 0 0-2.5 2.5v1.686h5V3.882a2.5 2.5 0 0 0-2.5-2.5M3.656 6.568a1 1 0 0 0-1 1v6.375a1 1 0 0 0 1 1h8.689a1 1 0 0 0 1-1V7.568a1 1 0 0 0-1-1z" clip-rule="evenodd"/></svg>