<svg xmlns="http://www.w3.org/2000/svg" width="16" height="16" fill="none" viewBox="0 0 16 16"><path fill="#444f5c" d="M15 5.054c.164 0 .3.117.328.271l.005.059v7.293c0 .697-.544 1.268-1.234 1.319l-.1.004h-12a1.33 1.33 0 0 1-1.33-1.224l-.004-.099V5.385a.33.33 0 0 1 .081-.216.336.336 0 0 1 .421-.07l.049.035 5.653 4.827a1.74 1.74 0 0 0 2.148.078l.099-.078 5.665-4.828a.33.33 0 0 1 .217-.08zm-1.247-1.236c.097 0 .189.042.253.115a.33.33 0 0 1 .007.423l-.042.043-5.552 4.744c-.25.214-.527.231-.781.053l-.069-.053-5.547-4.739a.33.33 0 0 1-.116-.25c0-.162.118-.297.273-.325l.06-.005zM12.633 2c.276 0 .5.222.5.496v.099a.5.5 0 0 1-.5.496H3.366a.5.5 0 0 1-.5-.496v-.099c0-.274.224-.496.5-.496z"/></svg>