<svg xmlns="http://www.w3.org/2000/svg" width="16" height="16" fill="none" viewBox="0 0 16 16"><g fill="#444f5c" fill-rule="evenodd" clip-path="url(#a)" clip-rule="evenodd"><path d="M1.5 3a.5.5 0 0 0-.5.5v9a.5.5 0 0 0 .5.5h13a.5.5 0 0 0 .5-.5v-9a.5.5 0 0 0-.5-.5zM0 3.5A1.5 1.5 0 0 1 1.5 2h13A1.5 1.5 0 0 1 16 3.5v9a1.5 1.5 0 0 1-1.5 1.5h-13A1.5 1.5 0 0 1 0 12.5z"/><path d="M.059 4.765a.5.5 0 0 1 .676-.206l7.03 3.749a.5.5 0 0 0 .47 0l7.03-3.75a.5.5 0 0 1 .47.883l-7.03 3.75a1.5 1.5 0 0 1-1.41 0L.264 5.44a.5.5 0 0 1-.206-.676"/></g><defs><clipPath id="a"><path fill="#fff" d="M0 0h16v16H0z"/></clipPath></defs></svg>