<svg xmlns="http://www.w3.org/2000/svg" width="16" height="16" fill="none" viewBox="0 0 16 16"><path fill="#444f5c" fill-rule="evenodd" d="M3 2.5A1.5 1.5 0 0 0 1.5 4v7A1.5 1.5 0 0 0 3 12.5h2.5a.5.5 0 0 0 0-1H3a.5.5 0 0 1-.5-.5V4.093l5.232 3.329a.5.5 0 0 0 .536 0l5.232-3.33V6a.5.5 0 0 0 1 0V4A1.5 1.5 0 0 0 13 2.5zm.431 1L8 6.407 12.569 3.5z" clip-rule="evenodd"/><path fill="#444f5c" d="M11 11.5a.5.5 0 1 0 0 1h2a.5.5 0 0 0 0-1z"/><path fill="#444f5c" fill-rule="evenodd" d="M12 16a4 4 0 1 0 0-8 4 4 0 0 0 0 8m0-1a3 3 0 1 0 0-6 3 3 0 0 0 0 6" clip-rule="evenodd"/></svg>