<svg xmlns="http://www.w3.org/2000/svg" width="16" height="16" fill="none" viewBox="0 0 16 16"><path fill="#444f5c" d="M3.341.526a.5.5 0 0 0-.707.02l-1.987 2.1a.5.5 0 0 0 0 .708l1.997 2a.5.5 0 0 0 .707-.707L2.206 3.5h2.058a1.5 1.5 0 0 1 1.342.83l.447.894a.5.5 0 1 0 .894-.447L6.5 3.882A2.5 2.5 0 0 0 4.264 2.5H2.162L3.36 1.233a.5.5 0 0 0-.02-.707m7.055 3.804a1.5 1.5 0 0 1 1.341-.83h2.111l-1.21 1.28a.5.5 0 1 0 .726.687l1.998-2.112a.5.5 0 0 0 .128-.251.5.5 0 0 0-.213-.52L13.354.657a.5.5 0 1 0-.708.707L13.78 2.5h-2.044A2.5 2.5 0 0 0 9.5 3.882l-3.894 7.789a1.5 1.5 0 0 1-1.342.829H2.161l1.2-1.268a.5.5 0 1 0-.727-.687L.637 12.656a.5.5 0 0 0 .009.697l1.998 2a.5.5 0 1 0 .707-.706L2.206 13.5h2.058A2.5 2.5 0 0 0 6.5 12.118zm2.261 11.144a.5.5 0 0 0 .707-.02l1.965-2.077a.5.5 0 0 0 .002-.753l-1.976-1.978a.5.5 0 1 0-.708.706l1.147 1.148h-2.057a1.5 1.5 0 0 1-1.341-.83l-.448-.893a.5.5 0 1 0-.894.447l.447.894a2.5 2.5 0 0 0 2.236 1.382h2.1l-1.2 1.267a.5.5 0 0 0 .02.707"/></svg>