<svg xmlns="http://www.w3.org/2000/svg" width="16" height="16" fill="none" viewBox="0 0 16 16"><g clip-path="url(#a)"><path fill="#444f5c" d="M4.02 3.956a.535.535 0 0 1 .725.648 4.743 4.743 0 0 0 6.424 5.759.535.535 0 0 1 .725.648A5.814 5.814 0 1 1 4.02 3.956m5.57.151c.445 0 .682.502.438.843l-.06.07-1.227 1.226h.849c.263 0 .481.189.526.439l.009.096a.534.534 0 0 1-.439.526l-.096.009H7.451a.535.535 0 0 1-.438-.843l.06-.07 1.225-1.226h-.847a.534.534 0 0 1-.526-.439l-.009-.096c0-.263.189-.481.439-.526l.096-.009zM14.938.898c.445 0 .682.502.438.843l-.06.07-2.297 2.296h1.919c.263 0 .481.189.526.439l.009.096a.534.534 0 0 1-.439.526l-.096.009h-3.209a.535.535 0 0 1-.438-.843l.06-.07 2.295-2.296h-1.917a.534.534 0 0 1-.526-.439l-.009-.096c0-.263.189-.481.439-.526l.096-.009z"/></g><defs><clipPath id="a"><path fill="#fff" d="M0 0h16v16H0z"/></clipPath></defs></svg>