<svg xmlns="http://www.w3.org/2000/svg" width="16" height="16" fill="none" viewBox="0 0 16 16"><path fill="#444f5c" fill-rule="evenodd" d="M7.587 13.977a.44.44 0 0 1-.231-.235L5 8.405V2.011h6.563a1.5 1.5 0 0 1 1.481 1.26l.853 5.266a1.5 1.5 0 0 1-1.481 1.74h-3.15a.5.5 0 0 0-.475.658c.268.803.196 1.423-.011 1.897-.212.486-.585.86-.98 1.124a.22.22 0 0 1-.213.02M4 2.01v6H2.5a.5.5 0 0 1-.5-.5v-5a.5.5 0 0 1 .5-.5zm.174 7 2.267 5.135c.295.67 1.154 1.15 1.914.642.508-.34 1.033-.85 1.341-1.556.244-.557.34-1.211.212-1.955h2.508a2.5 2.5 0 0 0 2.468-2.9l-.853-5.266a2.5 2.5 0 0 0-2.468-2.1H2.5A1.5 1.5 0 0 0 1 2.51v5a1.5 1.5 0 0 0 1.5 1.5z" clip-rule="evenodd"/></svg>