<svg xmlns="http://www.w3.org/2000/svg" width="16" height="16" fill="none" viewBox="0 0 16 16"><path fill="#444f5c" fill-rule="evenodd" d="M2.5 2.884a2.384 2.384 0 1 1 3.005 2.302A3.5 3.5 0 0 0 9 8.5h1.53a2.384 2.384 0 1 1 .05 1H9a4.5 4.5 0 0 1-3.5-1.671v2.751a2.385 2.385 0 1 1-1-.05V5.238a2.384 2.384 0 0 1-2-2.353M4.884 1.5a1.384 1.384 0 1 0 0 2.768 1.384 1.384 0 0 0 0-2.768m8 6a1.384 1.384 0 1 0 0 2.768 1.384 1.384 0 0 0 0-2.768M3.5 12.884a1.384 1.384 0 1 1 2.768 0 1.384 1.384 0 0 1-2.768 0" clip-rule="evenodd"/></svg>