<svg xmlns="http://www.w3.org/2000/svg" width="16" height="16" fill="none" viewBox="0 0 16 16"><path fill="#444f5c" fill-rule="evenodd" d="M8.927 1.22a1.31 1.31 0 0 0-1.854 0A5.37 5.37 0 0 0 5.5 5.017v.249l-2.82 2.35A.5.5 0 0 0 2.5 8v4a.5.5 0 0 0 .777.416L6.151 10.5H9.85l2.874 1.916A.5.5 0 0 0 13.5 12V8a.5.5 0 0 0-.18-.384l-2.82-2.35v-.25A5.37 5.37 0 0 0 8.927 1.22m-1.147.707a.31.31 0 0 1 .44 0 4.37 4.37 0 0 1 1.28 3.09V9.5h-3V5.017c0-1.16.46-2.27 1.28-3.09M5.5 9.732V6.567l-2 1.667v2.832zm7 1.334-2-1.334V6.567l2 1.667z" clip-rule="evenodd"/><path fill="#444f5c" d="M9.483 11.38a.5.5 0 1 0-.966.256c.237.896.025 1.64-.253 2.172a3.5 3.5 0 0 1-.263.426c-.81-1.042-.905-1.962-.755-2.613a.5.5 0 1 0-.974-.226c-.257 1.113.027 2.527 1.364 3.948a.5.5 0 0 0 .698.029L8 15l.334.372.002-.002.002-.002.006-.005.019-.018.06-.06q.077-.075.194-.215a4.5 4.5 0 0 0 .534-.8c.36-.69.65-1.692.332-2.89m3.671-9.637a.5.5 0 0 1 .354.612l-.55 2.049a.5.5 0 1 1-.966-.259l.55-2.049a.5.5 0 0 1 .612-.353m-9.696.353a.5.5 0 1 0-.965.259l.549 2.049a.5.5 0 0 0 .965-.259z"/></svg>