<svg xmlns="http://www.w3.org/2000/svg" width="16" height="16" fill="none" viewBox="0 0 16 16"><g fill="#444f5c" fill-rule="evenodd" clip-path="url(#a)" clip-rule="evenodd"><path d="M0 1.5A1.5 1.5 0 0 1 1.5 0h8A1.5 1.5 0 0 1 11 1.5v2a.5.5 0 0 1-1 0v-2a.5.5 0 0 0-.5-.5h-8a.5.5 0 0 0-.5.5v13a.5.5 0 0 0 .5.5h8a.5.5 0 0 0 .5-.5v-2a.5.5 0 0 1 1 0v2A1.5 1.5 0 0 1 9.5 16h-8A1.5 1.5 0 0 1 0 14.5z"/><path d="M7.5 8a.5.5 0 0 1 .5-.5h7.5a.5.5 0 0 1 0 1H8a.5.5 0 0 1-.5-.5"/><path d="M12.646 5.146a.5.5 0 0 1 .708 0l2.5 2.5a.5.5 0 0 1 0 .708l-2.5 2.5a.5.5 0 0 1-.708-.708L14.793 8l-2.147-2.146a.5.5 0 0 1 0-.708"/></g><defs><clipPath id="a"><path fill="#fff" d="M0 0h16v16H0z"/></clipPath></defs></svg>