<svg xmlns="http://www.w3.org/2000/svg" width="16" height="16" fill="none" viewBox="0 0 16 16"><path fill="#444f5c" d="M7.5 5a.5.5 0 0 1 .5-.5h3a.5.5 0 0 1 0 1H8a.5.5 0 0 1-.5-.5M5 4.5a.5.5 0 0 0 0 1h1a.5.5 0 0 0 0-1zM7.5 8a.5.5 0 0 1 .5-.5h3a.5.5 0 0 1 0 1H8a.5.5 0 0 1-.5-.5M5 7.5a.5.5 0 0 0 0 1h1a.5.5 0 0 0 0-1zM7.5 11a.5.5 0 0 1 .5-.5h3a.5.5 0 0 1 0 1H8a.5.5 0 0 1-.5-.5M5 10.5a.5.5 0 0 0 0 1h1a.5.5 0 0 0 0-1z"/><path fill="#444f5c" fill-rule="evenodd" d="M1.5 2A1.5 1.5 0 0 1 3 .5h10A1.5 1.5 0 0 1 14.5 2v12a1.5 1.5 0 0 1-1.5 1.5H3A1.5 1.5 0 0 1 1.5 14zM3 1.5a.5.5 0 0 0-.5.5v12a.5.5 0 0 0 .5.5h10a.5.5 0 0 0 .5-.5V2a.5.5 0 0 0-.5-.5z" clip-rule="evenodd"/></svg>