<svg xmlns="http://www.w3.org/2000/svg" width="16" height="16" fill="none" viewBox="0 0 16 16"><path fill="#444f5c" fill-rule="evenodd" d="M2 1.5a.5.5 0 0 1 .5.5v3.882l.081-.163c.839-1.677 3.156-1.868 4.258-.352l1.927 2.649.73-1.898c.807-2.1 3.834-1.92 4.388.259L13.4 6.5l.49-.098.6 3a.5.5 0 0 1-.98.196l-.598-2.986c-.322-1.224-2.027-1.32-2.483-.135L9.493 8.91l1.891 2.269a.5.5 0 0 1-.768.64L9.082 9.98l-.022.058c-.728 1.893-3.404 1.9-4.143.012-.478-1.222-2.284-.933-2.357.377l-.06 1.087V13a.5.5 0 0 0 .5.5h11a.5.5 0 0 1 0 1H3A1.5 1.5 0 0 1 1.5 13V2a.5.5 0 0 1 .5-.5m.557 7.13c1.077-.684 2.715-.418 3.292 1.056.406 1.038 1.877 1.034 2.277-.007l.223-.58-.244-.292-2.074-2.852a1.5 1.5 0 0 0-2.555.211l-.395.79a5.5 5.5 0 0 0-.524 1.673" clip-rule="evenodd"/></svg>