<svg xmlns="http://www.w3.org/2000/svg" width="16" height="16" fill="none" viewBox="0 0 16 16"><path fill="#444f5c" fill-rule="evenodd" d="M1.049 1.549a.5.5 0 0 1 .5-.5h3.656l-.004.055v5.747a.5.5 0 0 0 .854.353L8 5.26l1.945 1.945a.5.5 0 0 0 .854-.353V1.104l-.003-.055h3.655a.5.5 0 0 1 .5.5V8a.5.5 0 1 0 1 0V1.549a1.5 1.5 0 0 0-1.5-1.5H1.55a1.5 1.5 0 0 0-1.5 1.5V14.45a1.5 1.5 0 0 0 1.5 1.5H8a.5.5 0 0 0 0-1H1.549a.5.5 0 0 1-.5-.5zm8.753-.5H6.198l.003.055v4.54l1.445-1.445a.5.5 0 0 1 .708 0l1.445 1.445v-4.54q0-.028.003-.055" clip-rule="evenodd"/><path fill="#444f5c" d="M11.154 11.969a.5.5 0 1 0 0 1h2.631a.5.5 0 0 0 0-1z"/><path fill="#444f5c" fill-rule="evenodd" d="M8.986 12.469a3.482 3.482 0 1 1 6.965 0 3.482 3.482 0 0 1-6.965 0m3.483-2.483a2.483 2.483 0 1 0 0 4.965 2.483 2.483 0 0 0 0-4.965" clip-rule="evenodd"/></svg>