<svg xmlns="http://www.w3.org/2000/svg" width="16" height="16" fill="none" viewBox="0 0 16 16"><g fill="#444f5c" clip-path="url(#a)"><path fill-rule="evenodd" d="M5 .513a1.5 1.5 0 0 0-1.5 1.5v4a.5.5 0 1 0 1 0v-4a.5.5 0 0 1 .5-.5h5.432v3.509a.5.5 0 0 0 .5.5H14.5v8.491a.5.5 0 0 1-.5.5h-4a.5.5 0 1 0 0 1h4a1.5 1.5 0 0 0 1.5-1.5V5.411a1.5 1.5 0 0 0-.404-1.024L11.921.989a1.5 1.5 0 0 0-1.096-.476zm8.853 4.009L11.432 1.93v2.592z" clip-rule="evenodd"/><path d="M4.5 9.013a.5.5 0 0 0-1 0v2.5H1a.5.5 0 1 0 0 1h2.5v2.5a.5.5 0 0 0 1 0v-2.5H7a.5.5 0 0 0 0-1H4.5z"/></g><defs><clipPath id="a"><path fill="#fff" d="M0 0h16v16H0z"/></clipPath></defs></svg>