<svg xmlns="http://www.w3.org/2000/svg" width="16" height="16" fill="none" viewBox="0 0 16 16"><path fill="#444f5c" fill-rule="evenodd" d="M11.232 1.558A.5.5 0 0 1 11.5 2v8.793l2.355 2.353a.5.5 0 0 1-.708.708l-2.488-2.489-.024-.024-8.488-8.487a.5.5 0 1 1 .708-.708l2.87 2.87.038-.03 4.954-3.398a.5.5 0 0 1 .516-.03M6.441 5.734 10.5 9.792V2.95z" clip-rule="evenodd"/><path fill="#444f5c" d="M3.5 6.5A.5.5 0 0 1 4 7v3.13a.5.5 0 0 0 .5.5h.792c.304 0 .6.092.85.264l4.641 3.194a.5.5 0 0 1-.567.824l-4.64-3.194a.5.5 0 0 0-.284-.088H4.5a1.5 1.5 0 0 1-1.5-1.5V7a.5.5 0 0 1 .5-.5"/></svg>