<svg xmlns="http://www.w3.org/2000/svg" width="16" height="16" fill="none" viewBox="0 0 16 16"><path fill="#444f5c" d="M12.26 13.367a.5.5 0 0 1-.706-.027L9.845 11.5H2.237l1.168 1.142a.5.5 0 0 1-.7.715l-1.99-1.945A.5.5 0 0 1 .5 11v-.005a.5.5 0 0 1 .143-.355l2.055-2.1a.5.5 0 0 1 .715.699L2.179 10.5h6.737l-4.643-5H1a.5.5 0 0 1 0-1h2.344L2.267 3.34a.5.5 0 1 1 .731-.68l9.288 10a.5.5 0 0 1-.026.707M8.216 5a.5.5 0 0 1 .5-.5h4.314c.783 0 1.375.445 1.766 1.027.387.576.608 1.322.679 2.065.07.746-.005 1.535-.255 2.209-.25.67-.696 1.283-1.4 1.556a.5.5 0 1 1-.362-.933c.348-.134.635-.462.825-.972.188-.507.256-1.14.196-1.765-.06-.627-.243-1.2-.513-1.602-.265-.395-.58-.585-.936-.585H8.716a.5.5 0 0 1-.5-.5"/></svg>