<svg xmlns="http://www.w3.org/2000/svg" width="16" height="16" fill="none" viewBox="0 0 16 16"><path fill="#444f5c" d="M5.5 7a.5.5 0 0 1 .5-.5h4a.5.5 0 0 1 0 1H6a.5.5 0 0 1-.5-.5M5 9.524a.5.5 0 0 0 0 1h6a.5.5 0 1 0 0-1z"/><path fill="#444f5c" fill-rule="evenodd" d="M5 .5a.5.5 0 0 1 .5.5v.5h5V1a.5.5 0 0 1 1 0v.5H13A1.5 1.5 0 0 1 14.5 3v11a1.5 1.5 0 0 1-1.5 1.5H3A1.5 1.5 0 0 1 1.5 14V3A1.5 1.5 0 0 1 3 1.5h1.5V1A.5.5 0 0 1 5 .5m5.5 2v1.07a.5.5 0 0 0 1 0V2.5H13a.5.5 0 0 1 .5.5v11a.5.5 0 0 1-.5.5H3a.5.5 0 0 1-.5-.5V3a.5.5 0 0 1 .5-.5h1.5v1.07a.5.5 0 0 0 1 0V2.5z" clip-rule="evenodd"/></svg>