<svg xmlns="http://www.w3.org/2000/svg" width="16" height="16" fill="none" viewBox="0 0 16 16"><g clip-path="url(#a)"><path fill="#444f5c" d="M13.714 0A2.286 2.286 0 0 1 16 2.286v3.429a2.286 2.286 0 0 1-2.286 2.286h-3.429a2.286 2.286 0 0 0-2.286 2.286v3.429a2.286 2.286 0 0 1-2.286 2.286H2.284a2.286 2.286 0 0 1-2.286-2.286V2.287A2.286 2.286 0 0 1 2.284.001zm1.135 9.371a.57.57 0 0 1 .404.975l-4.906 4.906a.572.572 0 0 1-.975-.404V10.97a1.6 1.6 0 0 1 1.6-1.6z"/></g><defs><clipPath id="a"><path fill="#fff" d="M0 0h16v16H0z"/></clipPath></defs></svg>