<svg xmlns="http://www.w3.org/2000/svg" width="16" height="16" fill="none" viewBox="0 0 16 16"><path fill="#444f5c" fill-rule="evenodd" d="M7.288 9.995q.436-.83.436-1.995 0-1.164-.436-1.99a3.1 3.1 0 0 0-1.182-1.27Q5.36 4.3 4.414 4.3t-1.696.44a3.1 3.1 0 0 0-1.182 1.27q-.433.825-.433 1.99 0 1.161.433 1.991.436.828 1.182 1.27.75.44 1.696.44t1.692-.44q.75-.44 1.182-1.266M6.155 6.618q.257.563.257 1.382 0 .82-.257 1.386-.253.563-.703.855-.45.29-1.038.289-.588 0-1.038-.289-.45-.292-.707-.855Q2.414 8.82 2.415 8q0-.82.254-1.382.257-.567.707-.855.45-.292 1.038-.292.587 0 1.038.292.45.288.703.855m3.803 4.985H11.4q1.097 0 1.878-.433a2.9 2.9 0 0 0 1.2-1.242q.418-.81.418-1.935 0-1.122-.415-1.928a2.9 2.9 0 0 0-1.189-1.234q-.77-.433-1.843-.433h-1.49a1 1 0 0 0-1 1v5.205a1 1 0 0 0 1 1m1.378-1.13h-1.073V5.527h1.112q.732 0 1.224.274.495.271.75.82.253.546.253 1.372t-.253 1.38a1.76 1.76 0 0 1-.757.826q-.503.274-1.256.274" clip-rule="evenodd"/></svg>