<svg xmlns="http://www.w3.org/2000/svg" width="16" height="16" fill="none" viewBox="0 0 16 16"><path fill="#444f5c" d="m9.854 9.146-1.5-1.5a.5.5 0 0 0-.708 0l-1.5 1.5a.5.5 0 1 0 .708.708l.646-.647V12a.5.5 0 0 0 1 0V9.207l.646.647a.5.5 0 0 0 .708-.708"/><path fill="#444f5c" fill-rule="evenodd" d="M3.277 1.017a1.5 1.5 0 0 0-1.445 1.1L1.07 4.864a1.5 1.5 0 0 0-.054.4v8.218a1.5 1.5 0 0 0 1.5 1.5h10.966a1.5 1.5 0 0 0 1.5-1.5V5.265a1.5 1.5 0 0 0-.054-.4l-.76-2.749a1.5 1.5 0 0 0-1.446-1.1zm-.481 1.366a.5.5 0 0 1 .481-.366H7.5V4.5H2.21zM8.5 4.5V2.017h4.223a.5.5 0 0 1 .481.366L13.79 4.5zm-6.483 1v7.983a.5.5 0 0 0 .5.5h10.966a.5.5 0 0 0 .5-.5V5.5z" clip-rule="evenodd"/></svg>