<svg xmlns="http://www.w3.org/2000/svg" width="16" height="16" fill="none" viewBox="0 0 16 16"><path fill="#444f5c" fill-rule="evenodd" d="M3.277.804a1.5 1.5 0 0 0-1.445 1.1L1.07 4.652a1.5 1.5 0 0 0-.054.4v8.218a1.5 1.5 0 0 0 1.5 1.5H7a.5.5 0 0 0 0-1H2.517a.5.5 0 0 1-.5-.5V5.288h11.966v1.5a.5.5 0 0 0 1 0V5.052a1.5 1.5 0 0 0-.054-.4l-.76-2.748a1.5 1.5 0 0 0-1.446-1.1zM13.79 4.287H8.5V1.804h4.223a.5.5 0 0 1 .481.366zm-6.29 0V1.804H3.277a.5.5 0 0 0-.481.366L2.21 4.287z" clip-rule="evenodd"/><path fill="#444f5c" fill-rule="evenodd" d="M12.431 8.034a.5.5 0 0 0-.862 0l-1.025 1.749-1.98.434a.5.5 0 0 0-.267.82l1.347 1.516-.199 2.017a.5.5 0 0 0 .698.507L12 14.265l1.857.812a.5.5 0 0 0 .698-.507l-.199-2.017 1.347-1.515a.5.5 0 0 0-.267-.82l-1.98-.435zm-1.135 2.443L12 9.276l.704 1.201a.5.5 0 0 0 .324.236l1.36.298-.924 1.041a.5.5 0 0 0-.124.381l.136 1.386-1.276-.558a.5.5 0 0 0-.4 0l-1.276.558.136-1.386a.5.5 0 0 0-.124-.381l-.925-1.041 1.36-.298a.5.5 0 0 0 .325-.236" clip-rule="evenodd"/></svg>