<svg xmlns="http://www.w3.org/2000/svg" width="16" height="16" fill="none" viewBox="0 0 16 16"><g fill="#444f5c" clip-path="url(#a)"><path d="M5.15 5.296a.5.5 0 0 1 .5-.5h4.7a.5.5 0 1 1 0 1h-4.7a.5.5 0 0 1-.5-.5m.5 1.624a.5.5 0 0 0 0 1h4.7a.5.5 0 1 0 0-1z"/><path fill-rule="evenodd" d="M10.67 2.171 9.016.711a1.5 1.5 0 0 0-1.98-.003L5.364 2.171H3.937a1.5 1.5 0 0 0-1.5 1.5v1.06L.741 6.22a1.5 1.5 0 0 0-.51 1.127v7.186a1.5 1.5 0 0 0 1.5 1.5h12.537a1.5 1.5 0 0 0 1.5-1.5V7.35a1.5 1.5 0 0 0-.51-1.127l-1.695-1.49v-1.06a1.5 1.5 0 0 0-1.5-1.5zm-2.316-.71a.5.5 0 0 0-.66 0l-.811.71h2.276zm4.209 3.225a.5.5 0 0 0 0 .45v2.868l-2.89 2.064a.5.5 0 0 1-.291.093H6.638a.5.5 0 0 1-.29-.092l-2.91-2.072V3.671a.5.5 0 0 1 .5-.5h8.124a.5.5 0 0 1 .5.5zm-10.126 2.6V6.062l-.77.676zm11.126.004V6.063l.77.677zM1.23 14.534v-6.88l4.538 3.23a1.5 1.5 0 0 0 .87.277h2.743a1.5 1.5 0 0 0 .872-.279l4.514-3.225v6.877a.5.5 0 0 1-.5.5H1.731a.5.5 0 0 1-.5-.5" clip-rule="evenodd"/></g><defs><clipPath id="a"><path fill="#fff" d="M0 0h16v16H0z"/></clipPath></defs></svg>