<svg xmlns="http://www.w3.org/2000/svg" width="16" height="16" fill="none" viewBox="0 0 16 16"><path fill="#444f5c" d="M8.744 9.489a.5.5 0 0 1 .5-.5h3.733a.5.5 0 0 1 0 1H9.244a.5.5 0 0 1-.5-.5m.5 1.988a.5.5 0 1 0 0 1h1.867a.5.5 0 0 0 0-1z"/><path fill="#444f5c" fill-rule="evenodd" d="M14.465.034a1.5 1.5 0 0 1 1.5 1.5v12.932a1.5 1.5 0 0 1-1.5 1.5H1.533a1.5 1.5 0 0 1-1.5-1.5V1.534a1.5 1.5 0 0 1 1.5-1.5zm-13.432 1.5a.5.5 0 0 1 .5-.5h3.48v5.722a.5.5 0 0 0 .8.4L8 5.514l2.189 1.642a.5.5 0 0 0 .8-.4V1.034h3.475a.5.5 0 0 1 .5.5v12.932a.5.5 0 0 1-.5.5H1.533a.5.5 0 0 1-.5-.5zm8.957-.5v4.722L8.3 4.489a.5.5 0 0 0-.6 0L6.013 5.756V1.034z" clip-rule="evenodd"/></svg>