<svg xmlns="http://www.w3.org/2000/svg" width="16" height="16" fill="none" viewBox="0 0 16 16"><g fill="#444f5c" clip-path="url(#a)"><path d="M7.457 2.472a5.6 5.6 0 0 1 1.088 0 .5.5 0 0 1-.097.995 4.6 4.6 0 0 0-.894 0 .5.5 0 1 1-.097-.995M5.18 3.775a.5.5 0 0 1-.068.704q-.347.285-.632.632a.5.5 0 1 1-.773-.635q.348-.423.77-.77a.5.5 0 0 1 .704.07m5.641-.001a.5.5 0 0 1 .703-.069q.423.347.77.77a.5.5 0 1 1-.773.635 4.6 4.6 0 0 0-.632-.632.5.5 0 0 1-.069-.704M3.019 7.007a.5.5 0 0 1 .449.546 4.6 4.6 0 0 0 0 .894.5.5 0 1 1-.995.097 5.6 5.6 0 0 1 0-1.088.5.5 0 0 1 .546-.45m9.964.001a.5.5 0 0 1 .546.449 5.6 5.6 0 0 1 0 1.088.5.5 0 1 1-.995-.097 4.6 4.6 0 0 0 0-.894.5.5 0 0 1 .45-.546M3.776 10.82a.5.5 0 0 1 .704.07q.285.346.632.631a.5.5 0 0 1-.635.773 5.6 5.6 0 0 1-.77-.77.5.5 0 0 1 .07-.704m8.449 0a.5.5 0 0 1 .069.704q-.347.422-.77.77a.5.5 0 1 1-.635-.773q.348-.285.632-.632a.5.5 0 0 1 .704-.069m-5.218 2.162a.5.5 0 0 1 .546-.449 4.6 4.6 0 0 0 .894 0 .5.5 0 0 1 .097.995 5.6 5.6 0 0 1-1.088 0 .5.5 0 0 1-.45-.546"/><path fill-rule="evenodd" d="M8 11.428a3.429 3.429 0 1 0 0-6.857 3.429 3.429 0 0 0 0 6.857m0-1a2.429 2.429 0 1 0 0-4.857 2.429 2.429 0 0 0 0 4.857" clip-rule="evenodd"/><path fill-rule="evenodd" d="M16 8A8 8 0 1 1 0 8a8 8 0 0 1 16 0m-1 0A7 7 0 1 1 1 8a7 7 0 0 1 14 0" clip-rule="evenodd"/></g><defs><clipPath id="a"><path fill="#fff" d="M0 0h16v16H0z"/></clipPath></defs></svg>