<svg xmlns="http://www.w3.org/2000/svg" width="24" height="24" fill="none" viewBox="0 0 24 24"><path fill="#444f5c" fill-rule="evenodd" d="M12.055 1.7a2.38 2.38 0 1 1 0 4.76 2.38 2.38 0 0 1 0-4.76" clip-rule="evenodd"/><path fill="#444f5c" fill-rule="evenodd" d="M12.055.3a3.78 3.78 0 1 0 0 7.56 3.78 3.78 0 0 0 0-7.56m0 1.4a2.38 2.38 0 1 1 0 4.76 2.38 2.38 0 0 1 0-4.76M3.899 11.783h16.306a.3.3 0 0 1 .224.5l-2.892 3.237a1.7 1.7 0 0 0-.424 1.304l.49 4.833a.3.3 0 0 1-.42.305l-4.445-1.96a1.7 1.7 0 0 0-1.371 0l-4.446 1.96a.3.3 0 0 1-.42-.305l.49-4.833a1.7 1.7 0 0 0-.424-1.304l-2.892-3.237a.3.3 0 0 1 .224-.5" clip-rule="evenodd"/><path fill="#444f5c" fill-rule="evenodd" d="M20.205 10.383H3.9a1.7 1.7 0 0 0-1.268 2.833l2.892 3.237a.3.3 0 0 1 .075.23l-.49 4.833a1.7 1.7 0 0 0 2.378 1.727l4.445-1.96a.3.3 0 0 1 .242 0l4.446 1.96a1.7 1.7 0 0 0 2.377-1.727l-.49-4.833a.3.3 0 0 1 .075-.23l2.892-3.237a1.7 1.7 0 0 0-1.268-2.833M3.9 11.783h16.306a.3.3 0 0 1 .224.5l-2.892 3.237a1.7 1.7 0 0 0-.424 1.304l.49 4.833a.3.3 0 0 1-.42.305l-4.445-1.96a1.7 1.7 0 0 0-1.371 0l-4.446 1.96a.3.3 0 0 1-.42-.305l.49-4.833a1.7 1.7 0 0 0-.424-1.304l-2.892-3.237a.3.3 0 0 1 .224-.5" clip-rule="evenodd"/></svg>