<svg xmlns="http://www.w3.org/2000/svg" width="16" height="16" fill="none" viewBox="0 0 16 16"><path fill="#444f5c" fill-rule="evenodd" d="M6.581 1.813a.5.5 0 0 0-.918-.01l-5.554 12.5a.5.5 0 0 0 .457.703h14.889a.5.5 0 0 0 .443-.732l-4.38-8.368a.5.5 0 0 0-.874-.022l-1.382 2.34zm8.048 12.193H1.336l3.061-6.891a1.5 1.5 0 0 1 .285.43l.289.661a.5.5 0 0 0 .707.233l1.092-.626a1.5 1.5 0 0 1 .747-.2h.406l.801 1.917a.5.5 0 0 0 .892.061l1.432-2.425zM7.505 6.613 6.106 3.27 4.833 6.133l.023.022.233.237a2.5 2.5 0 0 1 .51.753l.065.15.608-.35a2.5 2.5 0 0 1 1.233-.332" clip-rule="evenodd"/></svg>