<svg xmlns="http://www.w3.org/2000/svg" width="16" height="16" fill="none" viewBox="0 0 16 16"><path fill="#444f5c" fill-rule="evenodd" d="M3.883 1.91a1.5 1.5 0 0 1 2.2.084l1.694 1.977a1.5 1.5 0 0 1-.078 2.037L6.707 7 9 9.293l.992-.992a1.5 1.5 0 0 1 2.036-.078l1.977 1.695a1.5 1.5 0 0 1 .085 2.2l-.555.554c-1.44 1.44-3.704 1.758-5.414.571-1.014-.704-2.145-1.56-2.975-2.39s-1.685-1.96-2.39-2.974c-1.186-1.71-.869-3.973.572-5.414zm4.763 8.444-3-3a.5.5 0 0 1 0-.708l1.346-1.345a.5.5 0 0 0 .026-.679L5.323 2.645a.5.5 0 0 0-.733-.028l-.555.555c-1.13 1.13-1.343 2.86-.457 4.137.695 1 1.51 2.071 2.276 2.837s1.837 1.581 2.837 2.276c1.277.886 3.007.673 4.137-.457l.555-.555a.5.5 0 0 0-.028-.733l-1.977-1.695a.5.5 0 0 0-.68.026l-1.344 1.346a.5.5 0 0 1-.708 0" clip-rule="evenodd"/></svg>