<svg xmlns="http://www.w3.org/2000/svg" width="16" height="16" fill="none" viewBox="0 0 16 16"><g clip-path="url(#a)"><path fill="#444f5c" d="M2.402 2.003c.959-.047 1.094.501 1.422 1.357.245.638.573 1.291.756 1.953.343 1.238-.854 1.288-1.005 2.3-.095.637.678 1.492 1.028 1.947a9.4 9.4 0 0 0 2.433 2.243c.531.334 1.39.938 1.998.605.936-.512.848-2.094 2.159-1.559.679.277 1.335.675 1.983 1.024 1.001.539.954 1.097.573 2.254l.014-.045.006-.017-.005.017-.016.047c-.433 1.313-2.125 1.967-3.335 1.858-1.652-.148-3.45-1.025-4.814-1.99C3.593 12.578 1.715 10.383.62 8.054c-.774-1.646-.947-3.668.204-5.168.426-.555.885-.851 1.577-.885zM12 0a4 4 0 1 1 0 8 4 4 0 0 1 0-8m1.128 2.256-.063.037-.065.054-.995.994-.995-.994-.065-.054a.47.47 0 0 0-.647.659l.049.058.994.995-.994.995-.049.058a.47.47 0 0 0 .584.696l.063-.037.065-.054.995-.994.995.994.065.054a.468.468 0 0 0 .647-.659L13.663 5l-.994-.995.994-.995.049-.058a.47.47 0 0 0-.584-.696"/></g><defs><clipPath id="a"><path fill="#fff" d="M0 0h16v16H0z"/></clipPath></defs></svg>