<svg xmlns="http://www.w3.org/2000/svg" width="16" height="16" fill="none" viewBox="0 0 16 16"><path fill="#444f5c" fill-rule="evenodd" d="M5.237 1.593C4.937.922 4.147.516 3.403.83 2.168 1.355 1.355 2.115.91 3.037.468 3.95.417 4.969.599 5.967c.36 1.978 1.661 3.996 3.003 5.342a.5.5 0 0 0 .102.078L.646 14.445a.5.5 0 1 0 .708.707L12.152 4.354a.5.5 0 0 0-.707-.708L6.42 8.67 5.09 7.413l1.19-1.607A1.5 1.5 0 0 0 6.447 4.3zm.477 7.784L4.08 7.835a.5.5 0 0 1-.059-.662L5.48 5.21a.5.5 0 0 0 .054-.502L4.323 2c-.108-.242-.354-.322-.53-.248-1.052.446-1.661 1.053-1.983 1.72-.325.673-.383 1.463-.228 2.315.314 1.72 1.48 3.564 2.728 4.816a.5.5 0 0 1 .078.1z" clip-rule="evenodd"/><path fill="#444f5c" d="M10.354 10.227a.5.5 0 0 1 .623-.147l1.973.986c.12.06.198.156.231.252q.046.136-.03.253c-.462.704-1.178 1.366-2.104 1.7-.914.33-2.076.356-3.482-.279a8 8 0 0 1-.738-.382.5.5 0 1 0-.505.863q.423.247.831.43c1.622.733 3.055.734 4.234.309 1.167-.421 2.043-1.244 2.6-2.092.487-.74.083-1.613-.59-1.95l-1.973-.985a1.5 1.5 0 0 0-1.87.442L8.282 11.32a.5.5 0 1 0 .8.6z"/></svg>