<svg xmlns="http://www.w3.org/2000/svg" width="16" height="16" fill="none" viewBox="0 0 16 16"><g clip-path="url(#a)"><path fill="#444f5c" d="M9.161 13.824c.054-.077 1.306-1.868.382-4.125l4.118-4.675c.725.18 1.495.14 2.183-.116a.24.24 0 0 0 .086-.393L11.485.07a.24.24 0 0 0-.393.086 3.74 3.74 0 0 0-.116 2.184L6.302 6.459c-2.259-.927-4.049.326-4.126.381a.24.24 0 0 0-.099.174.24.24 0 0 0 .069.188l3.156 3.156-5.303 5.303.338.338 5.303-5.303 3.157 3.157c.049.05.118.075.188.069a.24.24 0 0 0 .175-.099z"/></g><defs><clipPath id="a"><path fill="#fff" d="M0 0h16v16H0z"/></clipPath></defs></svg>