<svg xmlns="http://www.w3.org/2000/svg" width="16" height="16" fill="none" viewBox="0 0 16 16"><g clip-path="url(#a)"><path fill="#444f5c" fill-rule="evenodd" d="M11.654.47A1.5 1.5 0 0 0 9.629.437L5.952 3.693a.5.5 0 0 1-.25.119l-2.593.432c-1.223.204-1.685 1.72-.784 2.57l3.2 3.021a.5.5 0 0 0-.184.117l-4.49 4.49a.5.5 0 1 0 .708.706l4.489-4.489a.5.5 0 0 0 .126-.21l3.3 3.117c.957.903 2.53.225 2.53-1.091V9.552a.5.5 0 0 1 .157-.363l3.207-3.03a1.5 1.5 0 0 0 0-2.181zm-1.362.716a.5.5 0 0 1 .675.01l3.715 3.509a.5.5 0 0 1 0 .727l-3.208 3.03a1.5 1.5 0 0 0-.47 1.09v2.923a.5.5 0 0 1-.843.364L3.012 6.087a.5.5 0 0 1 .261-.856l2.594-.433a1.5 1.5 0 0 0 .748-.356z" clip-rule="evenodd"/></g><defs><clipPath id="a"><path fill="#fff" d="M0 0h16v16H0z"/></clipPath></defs></svg>