<svg xmlns="http://www.w3.org/2000/svg" width="16" height="16" fill="none" viewBox="0 0 16 16"><path fill="#444f5c" fill-rule="evenodd" d="M5.813 1.025a1.5 1.5 0 0 0-1.5 1.5v3.402a.5.5 0 0 1-.125.331l-1.484 1.68c-.852.965-.175 2.483 1.11 2.494l3.684.032v5.005a.5.5 0 1 0 1 0v-4.996l3.672.031c1.288.011 1.99-1.498 1.152-2.476l-1.515-1.767a.5.5 0 0 1-.12-.325v-3.41a1.5 1.5 0 0 0-1.5-1.5zm-.5 1.5a.5.5 0 0 1 .5-.5h4.374a.5.5 0 0 1 .5.5v3.41c0 .359.128.705.361.977l1.515 1.767a.5.5 0 0 1-.384.825l-8.356-.072a.5.5 0 0 1-.37-.831l1.485-1.68a1.5 1.5 0 0 0 .376-.994z" clip-rule="evenodd"/></svg>