<svg xmlns="http://www.w3.org/2000/svg" width="16" height="16" fill="none" viewBox="0 0 16 16"><path fill="#444f5c" fill-rule="evenodd" d="m6.502 11.465 4.5-2.599a1 1 0 0 0 0-1.732l-4.5-2.598a1 1 0 0 0-1.5.866v5.196a1 1 0 0 0 1.5.866m-.5-6.063L10.502 8l-4.5 2.598z" clip-rule="evenodd"/><path fill="#444f5c" fill-rule="evenodd" d="M2 1.5A1.5 1.5 0 0 0 .5 3v10A1.5 1.5 0 0 0 2 14.5h12a1.5 1.5 0 0 0 1.5-1.5V3A1.5 1.5 0 0 0 14 1.5zM1.5 3a.5.5 0 0 1 .5-.5h12a.5.5 0 0 1 .5.5v10a.5.5 0 0 1-.5.5H2a.5.5 0 0 1-.5-.5z" clip-rule="evenodd"/></svg>