<svg xmlns="http://www.w3.org/2000/svg" width="16" height="16" fill="none" viewBox="0 0 16 16"><g fill="#444f5c" clip-path="url(#a)"><path d="M11.5 4.25a.75.75 0 1 0 0-1.5.75.75 0 0 0 0 1.5"/><path fill-rule="evenodd" d="M11.5.5c-.839 0-1.584.383-2.168.822a7.6 7.6 0 0 0-1.36 1.361 1.316 1.316 0 0 0 0 1.634c.3.383.772.918 1.36 1.36.584.44 1.33.823 2.168.823s1.584-.383 2.168-.822a7.6 7.6 0 0 0 1.36-1.361 1.315 1.315 0 0 0 0-1.634 7.6 7.6 0 0 0-1.36-1.36C13.084.882 12.338.5 11.5.5M8.759 3.3a6.6 6.6 0 0 1 1.174-1.179c.497-.373 1.033-.621 1.567-.621s1.07.248 1.566.621c.493.371.903.832 1.175 1.18a.316.316 0 0 1 0 .398 6.6 6.6 0 0 1-1.174 1.18c-.497.373-1.033.621-1.567.621s-1.07-.248-1.567-.621a6.6 6.6 0 0 1-1.174-1.18.316.316 0 0 1 0-.398m-5.808-.398c.672-.356 1.457-.085 1.846.497L6.06 5.287A1.5 1.5 0 0 1 5.95 7.1l-.462.536a.5.5 0 0 0 .007.661l2.189 2.428a.5.5 0 0 0 .728.015l.589-.6a1.5 1.5 0 0 1 2.05-.083L12.4 11.22c.72.622.684 1.726.079 2.369l-.1.106c-.677.722-1.542 1.646-2.84 1.786-1.374.148-3.05-.582-5.345-2.714C2.873 11.54 1.366 9.787.768 7.994.465 7.088.382 6.133.715 5.226c.334-.912 1.062-1.7 2.236-2.323m1.015 1.053c-.139-.208-.38-.257-.546-.17-1.014.538-1.537 1.16-1.767 1.785-.231.63-.192 1.342.063 2.106.518 1.551 1.873 3.165 3.158 4.358 2.249 2.09 3.638 2.552 4.556 2.453.924-.1 1.554-.77 2.307-1.57l.013-.013c.263-.28.233-.72-.005-.927l-1.348-1.165a.5.5 0 0 0-.684.028l-.589.6a1.5 1.5 0 0 1-2.184-.047L4.752 8.967a1.5 1.5 0 0 1-.023-1.984l.462-.536a.5.5 0 0 0 .037-.604z" clip-rule="evenodd"/></g><defs><clipPath id="a"><path fill="#fff" d="M0 0h16v16H0z"/></clipPath></defs></svg>