<svg xmlns="http://www.w3.org/2000/svg" width="16" height="16" fill="none" viewBox="0 0 16 16"><g fill="#444f5c" clip-path="url(#a)"><path fill-rule="evenodd" d="M12.879 3.282v-.477a2.5 2.5 0 0 0-2.5-2.5H5.466a2.5 2.5 0 0 0-2.5 2.5v.477H2a1.5 1.5 0 0 0-1.5 1.5v4.462a1.5 1.5 0 0 0 .929 1.387l1.077.444a2.5 2.5 0 0 0 2.475 2.14h1.433a.5.5 0 0 0 0-1H4.98a1.5 1.5 0 0 1-1.5-1.48l-.685-3.448h.001l.684 3.43V8.253h4.451a.5.5 0 0 0 0-1h-4.95a.5.5 0 0 0-.184.035L2.2 4.282h11.646a.5.5 0 0 1 .5.5V6.76a.5.5 0 0 0 1 0V4.782a1.5 1.5 0 0 0-1.5-1.5zm-1 0v-.477a1.5 1.5 0 0 0-1.5-1.5H5.466a1.5 1.5 0 0 0-1.5 1.5v.477zm-9.68 1 .597 3.005a.5.5 0 0 0-.315.465v2.23l-.671-.276a.5.5 0 0 1-.31-.462V4.782a.5.5 0 0 1 .5-.5z" clip-rule="evenodd"/><path d="M12.393 10.73a.5.5 0 1 0-1 0v1.616a.5.5 0 0 0 .5.5h1.189a.5.5 0 0 0 0-1h-.689z"/><path fill-rule="evenodd" d="M7.927 11.722a3.97 3.97 0 0 1 3.966-3.974 3.97 3.97 0 0 1 3.966 3.974 3.97 3.97 0 0 1-3.966 3.973 3.97 3.97 0 0 1-3.966-3.973m3.966-2.974a2.97 2.97 0 0 0-2.966 2.974 2.97 2.97 0 0 0 2.966 2.973 2.97 2.97 0 0 0 2.966-2.973 2.97 2.97 0 0 0-2.966-2.974" clip-rule="evenodd"/></g><defs><clipPath id="a"><path fill="#fff" d="M0 0h16v16H0z"/></clipPath></defs></svg>