<svg xmlns="http://www.w3.org/2000/svg" width="16" height="16" fill="none" viewBox="0 0 16 16"><path fill="#444f5c" d="M12.534 7.069a.536.536 0 1 0 0-1.069.536.536 0 0 0-.537.534c0 .296.24.535.537.535"/><path fill="#444f5c" fill-rule="evenodd" d="M13.034 4v.5h.947a1.5 1.5 0 0 1 1.5 1.5v3.456a1.5 1.5 0 0 1-1.029 1.424l-1.418.469V12a2.5 2.5 0 0 1-2.5 2.5h-5a2.5 2.5 0 0 1-2.5-2.5v-.626l-1.503-.495A1.5 1.5 0 0 1 .5 9.454V6A1.5 1.5 0 0 1 2 4.5h1.034V4a2.5 2.5 0 0 1 2.5-2.5h5a2.5 2.5 0 0 1 2.5 2.5m-1 0v.5h-8V4a1.5 1.5 0 0 1 1.5-1.5h5a1.5 1.5 0 0 1 1.5 1.5M2 5.5h11.98a.5.5 0 0 1 .5.5v3.456a.5.5 0 0 1-.342.474l-1.104.366V10a.5.5 0 0 0-.5-.5h-9a.5.5 0 0 0-.5.5v.321l-1.19-.392a.5.5 0 0 1-.344-.475V6a.5.5 0 0 1 .5-.5M4.034 12v-1.5h8V12a1.5 1.5 0 0 1-1.5 1.5h-5a1.5 1.5 0 0 1-1.5-1.5" clip-rule="evenodd"/></svg>