<svg xmlns="http://www.w3.org/2000/svg" width="16" height="16" fill="none" viewBox="0 0 16 16"><g fill="#444f5c" clip-path="url(#a)"><path fill-rule="evenodd" d="M12.74 2.75v.5h.99a1.5 1.5 0 0 1 1.5 1.5v2a.5.5 0 1 1-1 0v-2a.5.5 0 0 0-.5-.5H1.75a.5.5 0 0 0-.5.5v4.508a.5.5 0 0 0 .31.462l.69.284V7.75a.5.5 0 0 1 .5-.5h5a.5.5 0 0 1 0 1h-4.5v2.51a1.5 1.5 0 0 0 1.5 1.49h1.467a.5.5 0 0 1 0 1H4.75a2.5 2.5 0 0 1-2.476-2.155l-1.094-.45a1.5 1.5 0 0 1-.93-1.387V4.75a1.5 1.5 0 0 1 1.5-1.5h.99v-.5a2.5 2.5 0 0 1 2.5-2.5h5a2.5 2.5 0 0 1 2.5 2.5m-1 0v.5h-8v-.5a1.5 1.5 0 0 1 1.5-1.5h5a1.5 1.5 0 0 1 1.5 1.5" clip-rule="evenodd"/><path d="M12.25 11.976v1.663a.5.5 0 1 1-1 0v-1.663a.5.5 0 1 1 1 0m-.5-1.046a.536.536 0 1 0 0-1.069.536.536 0 0 0-.537.534c0 .295.24.534.537.534"/><path fill-rule="evenodd" d="M11.75 7.75a4 4 0 1 0 0 8 4 4 0 0 0 0-8m-3 4a3 3 0 1 1 6 0 3 3 0 0 1-6 0" clip-rule="evenodd"/></g><defs><clipPath id="a"><path fill="#fff" d="M0 0h16v16H0z"/></clipPath></defs></svg>