<svg xmlns="http://www.w3.org/2000/svg" width="16" height="16" fill="none" viewBox="0 0 16 16"><path fill="#444f5c" d="M12.004 8.538a.535.535 0 0 0 .537-.534.536.536 0 0 0-.537-.534.536.536 0 0 0-.537.534c0 .295.24.534.537.534"/><path fill="#444f5c" fill-rule="evenodd" d="M2.901 4.367v1.538H1.5a1.5 1.5 0 0 0-1.5 1.5v3.954a1.5 1.5 0 0 0 1.146 1.457l2.972.723a2.5 2.5 0 0 0 2.184 1.281h3.397a2.5 2.5 0 0 0 2.183-1.281l2.972-.723A1.5 1.5 0 0 0 16 11.36V7.405a1.5 1.5 0 0 0-1.5-1.5h-1.4V4.367a2.5 2.5 0 0 0-2.5-2.5H5.4a2.5 2.5 0 0 0-2.5 2.5m9.2 1.537V4.367a1.5 1.5 0 0 0-1.5-1.5H5.401a1.5 1.5 0 0 0-1.5 1.5v1.537zm.097 6.53 2.422-.59A.5.5 0 0 0 15 11.36V7.405a.5.5 0 0 0-.5-.5h-13a.5.5 0 0 0-.5.5v3.954a.5.5 0 0 0 .382.486l2.422.588-.002-.113V9.923a.5.5 0 0 1 .5-.5h7.397a.5.5 0 0 1 .5.5v2.397q0 .057-.003.113m-7.394-.114v-1.897h6.397v1.897a1.5 1.5 0 0 1-1.5 1.5H6.302a1.5 1.5 0 0 1-1.5-1.5" clip-rule="evenodd"/></svg>