<svg xmlns="http://www.w3.org/2000/svg" width="16" height="16" fill="none" viewBox="0 0 16 16"><g fill="#444f5c" clip-path="url(#a)"><path fill-rule="evenodd" d="M8 .042A7.959 7.959 0 1 0 15.96 8a.5.5 0 0 0-.5-.5H8.5V.542a.5.5 0 0 0-.5-.5M4.134 2.214A6.96 6.96 0 0 1 7.5 1.06V8a.5.5 0 0 0 .5.5h6.94A6.958 6.958 0 1 1 4.135 2.214" clip-rule="evenodd"/><path d="M15.209.622H12.01a.5.5 0 0 0 0 1h2.001L10.973 4.66a.5.5 0 1 0 .707.707l3.05-3.051v1.98a.5.5 0 0 0 1 0V1.121a.5.5 0 0 0-.521-.5"/></g><defs><clipPath id="a"><path fill="#fff" d="M0 0h16v16H0z"/></clipPath></defs></svg>