<svg xmlns="http://www.w3.org/2000/svg" width="16" height="16" fill="none" viewBox="0 0 16 16"><g clip-path="url(#a)"><path fill="#444f5c" d="M8 0a8 8 0 1 1 0 16A8 8 0 0 1 8 0m.422 2.76a.65.65 0 0 0-.65.65v.287a.5.5 0 0 1-.5.5h-.708l-.16.006a2.234 2.234 0 0 0 .159 4.463h2.875l.109.006a.933.933 0 0 1-.109 1.862H5.821l-.096.007a.65.65 0 0 0 .096 1.293h1.45a.5.5 0 0 1 .5.5v.287l.007.096a.65.65 0 0 0 1.293-.096v-.42l.007-.074a.37.37 0 0 1 .359-.293l.16-.006a2.234 2.234 0 0 0-.159-4.463H6.563l-.109-.006a.935.935 0 0 1 .109-1.862h3.716l.096-.007a.65.65 0 0 0-.096-1.293H9.57l-.09-.008a.5.5 0 0 1-.41-.492V3.41l-.007-.096a.65.65 0 0 0-.643-.554z"/></g><defs><clipPath id="a"><path fill="#fff" d="M0 0h16v16H0z"/></clipPath></defs></svg>