<svg xmlns="http://www.w3.org/2000/svg" width="16" height="16" fill="none" viewBox="0 0 16 16"><path fill="#444f5c" d="m6.354 10.354 4-4a.5.5 0 0 0-.708-.708l-4 4a.5.5 0 0 0 .708.708M7 6a1 1 0 1 1-2 0 1 1 0 0 1 2 0m3 5a1 1 0 1 0 0-2 1 1 0 0 0 0 2"/><path fill="#444f5c" fill-rule="evenodd" d="M8.712 1.01a1 1 0 0 0-1.424 0L5.75 2.57l-2.19-.016a1 1 0 0 0-1.007 1.007l.016 2.19-1.56 1.537a1 1 0 0 0 0 1.424l1.56 1.537-.016 2.19a1 1 0 0 0 1.008 1.007l2.189-.016 1.537 1.56a1 1 0 0 0 1.424 0l1.537-1.56 2.19.016a1 1 0 0 0 1.007-1.008l-.016-2.19 1.56-1.536a1 1 0 0 0 0-1.424L13.43 5.75l.016-2.19a1 1 0 0 0-1.008-1.007l-2.189.016zM8 1.713l1.537 1.56a1 1 0 0 0 .72.298l2.189-.016-.016 2.19a1 1 0 0 0 .298.72L14.288 8l-1.56 1.537a1 1 0 0 0-.298.72l.016 2.189-2.19-.016a1 1 0 0 0-.72.298L8 14.288l-1.537-1.56a1 1 0 0 0-.72-.298l-2.189.016.016-2.19a1 1 0 0 0-.298-.72L1.712 8l1.56-1.537a1 1 0 0 0 .298-.72l-.016-2.189 2.19.016a1 1 0 0 0 .72-.298z" clip-rule="evenodd"/></svg>