<svg xmlns="http://www.w3.org/2000/svg" width="16" height="16" fill="none" viewBox="0 0 16 16"><path fill="#444f5c" d="M2.172 10.948V8.797h.936l1.179 2.151h1.467l-1.35-2.286c.648-.153 1.314-.72 1.314-1.782 0-1.116-.765-1.935-2.016-1.935H.894v6.003zm1.342-3.249H2.173V6.043h1.341c.513 0 .9.324.9.828s-.387.828-.9.828m4.914 3.357c.675 0 1.35-.198 1.791-.603l-.504-.738c-.279.27-.756.432-1.161.432-.738 0-1.179-.459-1.251-1.008h3.231v-.252c0-1.422-.882-2.394-2.178-2.394-1.323 0-2.25 1.017-2.25 2.277 0 1.395.999 2.286 2.322 2.286m.999-2.691H7.285c.054-.432.36-.963 1.071-.963.756 0 1.044.549 1.071.963m3.959 2.691c.891 0 1.431-.387 1.719-.792l-.747-.693a1.1 1.1 0 0 1-.918.468c-.693 0-1.179-.513-1.179-1.269s.486-1.26 1.179-1.26c.396 0 .711.171.918.468l.747-.693c-.288-.405-.828-.792-1.719-.792-1.341 0-2.304.945-2.304 2.277 0 1.341.963 2.286 2.304 2.286"/></svg>