<svg xmlns="http://www.w3.org/2000/svg" width="16" height="16" fill="none" viewBox="0 0 16 16"><path fill="#444f5c" fill-rule="evenodd" d="M1.007 2.507a1.5 1.5 0 0 1 1.5-1.5h10.985a1.5 1.5 0 0 1 1.5 1.5v2.98a.5.5 0 1 1-1 0v-2.98a.5.5 0 0 0-.5-.5H11.5v1.5a1.5 1.5 0 0 1-1.5 1.5H6a1.5 1.5 0 0 1-1.5-1.5v-1.5H2.507a.5.5 0 0 0-.5.5v10.985a.5.5 0 0 0 .5.5h1.974a.5.5 0 0 1 0 1H2.507a1.5 1.5 0 0 1-1.5-1.5zm4.493 1v-1.5h3.002L8.5 2.05v.5a.5.5 0 1 0 1 0v-.5l-.002-.042H10.5v1.5a.5.5 0 0 1-.5.5H6a.5.5 0 0 1-.5-.5m9.875 4.805a.5.5 0 0 1 .5.5v1.876a.5.5 0 0 1-.5.5H13.5a.5.5 0 0 1 0-1h.864A3.5 3.5 0 0 0 11.738 9c-.764 0-1.47.244-2.044.659a.5.5 0 0 1-.585-.811A4.5 4.5 0 0 1 11.738 8c1.22 0 2.327.486 3.137 1.275v-.463a.5.5 0 0 1 .5-.5m-6.85 7.376a.5.5 0 0 1-.5-.5v-1.876a.5.5 0 0 1 .5-.5H10.4a.5.5 0 1 1 0 1h-.864A3.5 3.5 0 0 0 12.163 15c.764 0 1.47-.244 2.044-.659a.5.5 0 1 1 .585.811 4.5 4.5 0 0 1-2.63.848 4.5 4.5 0 0 1-3.137-1.275v.463a.5.5 0 0 1-.5.5" clip-rule="evenodd"/></svg>