<svg xmlns="http://www.w3.org/2000/svg" width="16" height="16" fill="none" viewBox="0 0 16 16"><g fill="#444f5c" clip-path="url(#a)"><path d="M5.033.5a1.5 1.5 0 0 0-1.352.85L1.69 5.488H.804a.5.5 0 0 0 0 1h.7v5.597a.5.5 0 0 0 1 0v-1.162h2.398a.5.5 0 0 0 0-1H2.504V8.15h1.9a.5.5 0 0 0 0-1h-1.9V6.102l2.078-4.319a.5.5 0 0 1 .45-.283h5.944a.5.5 0 0 1 .45.283l.328.68a.5.5 0 1 0 .9-.433l-.327-.68A1.5 1.5 0 0 0 10.976.5z"/><path d="M7.45 9.651a3.756 3.756 0 0 1 3.327-3.732l-.562.48a.5.5 0 0 0 .649.76l1.557-1.328a.5.5 0 0 0 .08-.675L11.325 3.54a.5.5 0 0 0-.81.588l.56.769a4.756 4.756 0 0 0-2.607 8.645.5.5 0 1 0 .576-.818A3.75 3.75 0 0 1 7.45 9.651m6.355-3.983a.5.5 0 1 0-.547.837 3.758 3.758 0 0 1-1.204 6.807l.495-.473a.5.5 0 0 0-.69-.724l-1.481 1.413a.5.5 0 0 0-.043.678l1.264 1.549a.5.5 0 0 0 .775-.632l-.61-.748a4.757 4.757 0 0 0 2.041-8.707"/></g><defs><clipPath id="a"><path fill="#fff" d="M0 0h16v16H0z"/></clipPath></defs></svg>