<svg xmlns="http://www.w3.org/2000/svg" width="16" height="16" fill="none" viewBox="0 0 16 16"><g fill="#444f5c" clip-path="url(#a)"><path d="M2.146.146a.5.5 0 1 1 .708.708l-2 2a.5.5 0 1 1-.708-.708zM8.5 5a.5.5 0 0 0-1 0v3a.5.5 0 0 0 .146.354l2 2a.5.5 0 0 0 .708-.708L8.5 7.793z"/><path fill-rule="evenodd" d="M15 8.375a7 7 0 1 1-14 0 7 7 0 0 1 14 0m-1 0a6 6 0 1 1-12 0 6 6 0 0 1 12 0" clip-rule="evenodd"/><path d="M13.146.146a.5.5 0 0 1 .708 0l2 2a.5.5 0 0 1-.708.708l-2-2a.5.5 0 0 1 0-.708"/></g><defs><clipPath id="a"><path fill="#fff" d="M0 0h16v16H0z"/></clipPath></defs></svg>