<svg xmlns="http://www.w3.org/2000/svg" width="16" height="16" fill="none" viewBox="0 0 16 16"><g clip-path="url(#a)"><path fill="#444f5c" d="M13.714 0A2.286 2.286 0 0 1 16 2.286v11.429a2.286 2.286 0 0 1-2.286 2.286H2.285a2.286 2.286 0 0 1-2.286-2.286V2.286A2.286 2.286 0 0 1 2.285 0zM9.429 9.714H3.143a.857.857 0 0 0 0 1.714h6.286a.857.857 0 0 0 0-1.714m3.428-5.143H3.143a.857.857 0 0 0 0 1.714h9.714a.857.857 0 0 0 0-1.714"/></g><defs><clipPath id="a"><path fill="#fff" d="M0 0h16v16H0z"/></clipPath></defs></svg>