<svg xmlns="http://www.w3.org/2000/svg" width="16" height="16" fill="none" viewBox="0 0 16 16"><path fill="#444f5c" d="M4.34 8.375a.5.5 0 0 1 .5-.5h2.4a.5.5 0 1 1 0 1h-2.4a.5.5 0 0 1-.5-.5m.5 2.235a.5.5 0 0 0 0 1h6.376a.5.5 0 1 0 0-1z"/><path fill="#444f5c" fill-rule="evenodd" d="M3.028.5a1.5 1.5 0 0 0-1.5 1.5v12a1.5 1.5 0 0 0 1.5 1.5h10a1.5 1.5 0 0 0 1.5-1.5V5.468a1.5 1.5 0 0 0-.54-1.152L9.828.848A1.5 1.5 0 0 0 8.867.5zm-.5 1.5a.5.5 0 0 1 .5-.5h5.7v2.638a1.5 1.5 0 0 0 1.5 1.5h3.3V14a.5.5 0 0 1-.5.5h-10a.5.5 0 0 1-.5-.5zm10.284 2.638L9.73 2.068v2.07a.5.5 0 0 0 .5.5z" clip-rule="evenodd"/></svg>