<svg xmlns="http://www.w3.org/2000/svg" width="16" height="16" fill="none" viewBox="0 0 16 16"><g fill="#444f5c" clip-path="url(#a)"><path d="M8 6.184a.5.5 0 0 1-.5-.5V2.279L5.921 3.806a.5.5 0 1 1-.695-.718L7.517.87a.5.5 0 0 1 .972.025l2.284 2.19a.5.5 0 0 1-.693.722L8.5 2.292v3.392a.5.5 0 0 1-.5.5m.5 4.173a.5.5 0 1 0-1 0v3.428L5.92 12.27a.5.5 0 1 0-.692.722l2.369 2.273a.5.5 0 0 0 .403.204h.011c.125 0 .25-.047.348-.14l2.415-2.339a.5.5 0 1 0-.695-.718L8.5 13.798zM9.863 8a.5.5 0 0 1 .5-.5h3.453l-1.498-1.57a.5.5 0 0 1 .724-.69l2.24 2.35a.5.5 0 0 1 .21.339.5.5 0 0 1-.129.433l-2.32 2.456a.5.5 0 1 1-.726-.687l1.54-1.63h-3.494a.5.5 0 0 1-.5-.5M6.17 8a.5.5 0 0 1-.5.5H2.157l1.525 1.6a.5.5 0 0 1-.724.69L.639 8.356A.5.5 0 0 1 .5 8a.5.5 0 0 1 .202-.4l2.255-2.387a.5.5 0 1 1 .727.687L2.171 7.5H5.67a.5.5 0 0 1 .5.5"/></g><defs><clipPath id="a"><path fill="#fff" d="M0 0h16v16H0z"/></clipPath></defs></svg>