<svg xmlns="http://www.w3.org/2000/svg" width="16" height="16" fill="none" viewBox="0 0 16 16"><g fill="#444f5c" clip-path="url(#a)"><path d="M5.835 4.598c-.166.124-.22.256-.22.358 0 .088.04.195.209.313.174.121.447.221.785.264.5.047.958.173 1.305.425.373.27.586.666.586 1.146 0 .49-.269.896-.625 1.16-.236.176-.521.3-.832.365v.068a.5.5 0 0 1-1 0v-.074a2.1 2.1 0 0 1-.805-.359c-.356-.264-.624-.67-.624-1.16a.5.5 0 1 1 1 0c0 .102.054.234.221.358s.42.216.722.216c.301 0 .555-.092.721-.216.167-.124.222-.256.222-.358a.38.38 0 0 0-.173-.337c-.144-.104-.4-.199-.809-.238l-.022-.003c-.45-.055-.896-.195-1.243-.437-.354-.246-.639-.628-.639-1.133 0-.49.269-.896.624-1.16.236-.176.522-.3.832-.365v-.068a.5.5 0 0 1 1 0v.074c.3.066.576.188.806.359.355.264.624.67.624 1.16a.5.5 0 0 1-1 0c0-.102-.055-.234-.221-.358a1.22 1.22 0 0 0-.722-.216 1.22 1.22 0 0 0-.722.216m-3.209 6.226a.5.5 0 0 1 .5-.5H9.16a.5.5 0 0 1 0 1H3.126a.5.5 0 0 1-.5-.5m.5 1.454a.5.5 0 0 0 0 1h3.517a.5.5 0 1 0 0-1z"/><path fill-rule="evenodd" d="M2.224.166a1.5 1.5 0 0 0-1.5 1.5v12.668a1.5 1.5 0 0 0 1.5 1.5h10.552a2.5 2.5 0 0 0 2.5-2.5V11.34a.5.5 0 0 0-.5-.5H12.56V1.666a1.5 1.5 0 0 0-1.5-1.5zM12.56 11.839v2.995h.216a1.5 1.5 0 0 0 1.5-1.5V11.84zm-1-10.173a.5.5 0 0 0-.5-.5H2.224a.5.5 0 0 0-.5.5v12.668a.5.5 0 0 0 .5.5h9.336z" clip-rule="evenodd"/></g><defs><clipPath id="a"><path fill="#fff" d="M0 0h16v16H0z"/></clipPath></defs></svg>