<svg xmlns="http://www.w3.org/2000/svg" width="16" height="16" fill="none" viewBox="0 0 16 16"><path fill="#444f5c" fill-rule="evenodd" d="M6.131 1.003a.5.5 0 0 0-.367.161l-.906.981h6.284l-.906-.981a.5.5 0 0 0-.367-.16zM3.72 3.145h-.53l.956 11.394a.5.5 0 0 0 .498.458h6.715a.5.5 0 0 0 .498-.459l.955-11.393zM5.03.485l-1.532 1.66H1.574a.5.5 0 1 0 0 1h.611l.963 11.477a1.5 1.5 0 0 0 1.495 1.375h6.715a1.5 1.5 0 0 0 1.494-1.375l.963-11.477h.61a.5.5 0 0 0 0-1h-1.922L10.97.485A1.5 1.5 0 0 0 9.869.004H6.13a1.5 1.5 0 0 0-1.1.482m3.326 6.092a.5.5 0 0 0-.716.006L5.425 8.887a.5.5 0 0 0 .72.693L7.5 8.17v4.114a.5.5 0 0 0 1 0v-4.14l1.43 1.442a.5.5 0 0 0 .71-.704z" clip-rule="evenodd"/></svg>