<svg xmlns="http://www.w3.org/2000/svg" width="16" height="16" fill="none" viewBox="0 0 16 16"><path fill="#444f5c" fill-rule="evenodd" d="M3.739 8.36a5 5 0 1 1 8.523 0l.02.034 2.16 4.116a.5.5 0 0 1-.53.724l-2.268-.404-.668 2.066a.5.5 0 0 1-.913.089L8 11.272l-2.063 3.713a.5.5 0 0 1-.907-.072l-.757-2.08-2.183.401a.5.5 0 0 1-.533-.724l2.161-4.116zM8 1.741a4 4 0 1 0 0 8 4 4 0 0 0 0-8m-.813 8.934a5 5 0 0 1-2.775-1.452l-1.492 2.84 1.588-.291a.5.5 0 0 1 .56.32l.527 1.449zm3.191 2.818-1.565-2.818a5 5 0 0 0 2.775-1.452l1.495 2.847-1.693-.302a.5.5 0 0 0-.563.338z" clip-rule="evenodd"/></svg>