<svg xmlns="http://www.w3.org/2000/svg" width="16" height="16" fill="none" viewBox="0 0 16 16"><path fill="#444f5c" fill-rule="evenodd" d="M8 2.5a5.5 5.5 0 1 0 5.423 6.421.5.5 0 0 1 .986.166A6.502 6.502 0 0 1 1.5 8a6.5 6.5 0 0 1 12.331-2.875.5.5 0 0 1-.896.443A5.5 5.5 0 0 0 8 2.5" clip-rule="evenodd"/><path fill="#444f5c" fill-rule="evenodd" d="M13.909 1.966a.5.5 0 0 1 .44.553L14.013 5.5a.5.5 0 0 1-.553.441l-2.981-.336a.5.5 0 0 1 .112-.994l2.484.28.28-2.484a.5.5 0 0 1 .553-.44" clip-rule="evenodd"/></svg>