<svg xmlns="http://www.w3.org/2000/svg" width="16" height="16" fill="none" viewBox="0 0 16 16"><path fill="#444f5c" d="M2.141 5.424c-.436.305-.641.678-.641 1.034s.205.73.641 1.034c.432.302 1.053.506 1.764.508h.012c.895 0 1.727.253 2.349.688.62.434 1.067 1.082 1.067 1.853 0 .772-.447 1.42-1.067 1.854-.622.435-1.454.688-2.35.688-.895 0-1.727-.253-2.348-.688S.5 11.313.5 10.54a.5.5 0 0 1 1 0c0 .356.205.73.641 1.034.434.304 1.06.508 1.776.508.715 0 1.341-.204 1.775-.508.436-.304.641-.678.641-1.034s-.205-.729-.64-1.034C5.26 9.205 4.638 9.002 3.928 9h-.012c-.896 0-1.728-.253-2.35-.689C.948 7.877.5 7.23.5 6.458s.448-1.42 1.068-1.853c.621-.435 1.453-.689 2.349-.689.895 0 1.727.254 2.349.689.62.434 1.067 1.081 1.067 1.853a.5.5 0 1 1-1 0c0-.356-.205-.729-.64-1.034-.435-.304-1.06-.508-1.776-.508s-1.342.204-1.776.508"/><path fill="#444f5c" fill-rule="evenodd" d="M11.897 4.217a.5.5 0 0 0-.92.005L7.54 12.39a.5.5 0 0 0 .922.388l.75-1.782h4.551l.78 1.788a.5.5 0 1 0 .916-.4zm1.429 5.778H9.632l1.815-4.31z" clip-rule="evenodd"/></svg>