<svg xmlns="http://www.w3.org/2000/svg" width="16" height="16" fill="none" viewBox="0 0 16 16"><g clip-path="url(#a)"><path fill="#444f5c" fill-rule="evenodd" d="M15.169.78a.5.5 0 1 0-.897.441c.146.297.228.628.228.98 0 .761-.392 1.447-1.001 1.867V3.8a1.5 1.5 0 0 0-1.5-1.5l-4.658-.003a1.5 1.5 0 0 0-1.072.45L.837 8.296a1.5 1.5 0 0 0 .01 2.11l4.504 4.507a1.5 1.5 0 0 0 2.121.002l5.585-5.58a1.5 1.5 0 0 0 .44-1.06l.001-3.067C14.673 4.692 15.5 3.547 15.5 2.2c0-.508-.119-.99-.331-1.42m-2.67 3.688a2.54 2.54 0 0 1-1.316-.14.5.5 0 0 0-.366.931 3.5 3.5 0 0 0 1.681.218l-.001 2.796a.5.5 0 0 1-.147.354l-5.585 5.579a.5.5 0 0 1-.707 0L1.555 9.698a.5.5 0 0 1-.003-.703l5.431-5.548a.5.5 0 0 1 .358-.15l4.658.003a.5.5 0 0 1 .5.5z" clip-rule="evenodd"/></g><defs><clipPath id="a"><path fill="#fff" d="M0 0h16v16H0z"/></clipPath></defs></svg>