<svg xmlns="http://www.w3.org/2000/svg" width="16" height="16" fill="none" viewBox="0 0 16 16"><g fill="#444f5c" clip-path="url(#a)"><path d="M4.924 9.216a.5.5 0 0 0-1 0c0 .898.522 1.66 1.26 2.177.742.517 1.739.822 2.816.822s2.074-.305 2.815-.822c.74-.517 1.261-1.279 1.261-2.177a.5.5 0 0 0-1 0c0 .482-.279.97-.834 1.357-.553.387-1.344.642-2.242.642s-1.689-.255-2.242-.642c-.555-.388-.834-.875-.834-1.357"/><path fill-rule="evenodd" d="M8 .152a7.848 7.848 0 1 0 0 15.696A7.848 7.848 0 0 0 8 .152M1.152 8a6.848 6.848 0 1 1 13.696 0A6.848 6.848 0 0 1 1.152 8" clip-rule="evenodd"/></g><defs><clipPath id="a"><path fill="#fff" d="M0 0h16v16H0z"/></clipPath></defs></svg>