<svg xmlns="http://www.w3.org/2000/svg" width="16" height="16" fill="none" viewBox="0 0 16 16"><g clip-path="url(#a)"><path fill="#444f5c" d="M6.443 11.369c2.874 0 5.205-2.299 5.205-5.134s-2.33-5.134-5.205-5.134S1.238 3.4 1.238 6.235s2.33 5.134 5.205 5.134m4.736-1.006 4.544 4.695a.554.554 0 0 1-.018.783.554.554 0 0 1-.783-.007l-4.558-4.709a6.35 6.35 0 0 1-3.921 1.345c-3.49 0-6.32-2.791-6.32-6.235S2.952 0 6.443 0s6.32 2.791 6.32 6.235a6.16 6.16 0 0 1-1.584 4.128"/></g><defs><clipPath id="a"><path fill="#fff" d="M0 0h16v16H0z"/></clipPath></defs></svg>