<svg xmlns="http://www.w3.org/2000/svg" width="16" height="16" fill="none" viewBox="0 0 16 16"><g clip-path="url(#a)"><path fill="#444f5c" d="M7.508 5.126a2.4 2.4 0 0 0-2.399 2.399 2.4 2.4 0 0 0 2.399 2.399 2.4 2.4 0 0 0 2.399-2.399 2.4 2.4 0 0 0-2.399-2.399M8 0a8 8 0 0 0-8 8 8 8 0 0 0 8 8 8 8 0 0 0 8-8 8 8 0 0 0-8-8m3.893 12.107a.7.7 0 0 1-.493.181.72.72 0 0 1-.493-.181l-1.511-1.511-.148.082a3.6 3.6 0 0 1-1.742.46 3.596 3.596 0 1 1 3.597-3.597c0 .706-.197 1.38-.592 1.971l-.099.164 1.495 1.495a.73.73 0 0 1 .197.476.74.74 0 0 1-.213.459z"/></g><defs><clipPath id="a"><path fill="#fff" d="M0 0h16v16H0z"/></clipPath></defs></svg>