<svg xmlns="http://www.w3.org/2000/svg" width="16" height="16" fill="none" viewBox="0 0 16 16"><path fill="#444f5c" d="M8 2C4.696 2 2 4.696 2 8s2.696 6 6 6 6-2.696 6-6-2.696-6-6-6m0 1.43a4.58 4.58 0 0 1 4.516 3.867h-1.219c-.773 0-1.507-.31-2.015-.851a1.76 1.76 0 0 0-2.564 0 2.76 2.76 0 0 1-2.015.851H3.484A4.58 4.58 0 0 1 8 3.43m0 5.976a1.056 1.056 0 1 1 .002-2.112A1.056 1.056 0 0 1 8 9.406m-4.256.26c.402-.158.693-.26 1.092-.26a2.11 2.11 0 0 1 2.085 2.426H6.92a2.1 2.1 0 0 1-.167.566 4.6 4.6 0 0 1-3.01-2.731zm5.502 2.732a2 2 0 0 1-.167-.566h-.001c-.225-1.495 1.155-2.729 2.586-2.366.151.038.34.102.591.2a4.6 4.6 0 0 1-3.01 2.731z"/></svg>