<svg xmlns="http://www.w3.org/2000/svg" width="16" height="16" fill="none" viewBox="0 0 16 16"><g clip-path="url(#a)"><path fill="#444f5c" d="M8 0a8 8 0 1 1 0 16A8 8 0 0 1 8 0M5.118 4.023c-.2-.05-.35-.025-.5.125q-.187.188-.075.45c.351.9.7 1.8 1.026 2.726.025.074.05.1.125.1.375.05.725.125 1.1.175.975.149 1.951.3 2.926.475.226.024.426.074.651.1v.025c-.05 0-.125.025-.2.025-1.476.25-2.977.5-4.452.75-.075.024-.1.05-.125.1-.15.475-.325.925-.5 1.376s-.325.9-.5 1.35c-.074.25.025.5.276.575.125.05.25 0 .375-.05l3.601-1.801c1.3-.675 2.626-1.325 3.926-1.975.1-.05.199-.125.225-.25.05-.226-.05-.401-.324-.5-2.476-1.225-4.952-2.476-7.428-3.726-.05-.024-.075-.024-.125-.05z"/></g><defs><clipPath id="a"><path fill="#fff" d="M0 0h16v16H0z"/></clipPath></defs></svg>