<svg xmlns="http://www.w3.org/2000/svg" width="16" height="16" fill="none" viewBox="0 0 16 16"><path fill="#444f5c" fill-rule="evenodd" d="M7.5 6.5a2 2 0 1 1 4 0 2 2 0 0 1-4 0m2-1a1 1 0 1 0 0 2 1 1 0 0 0 0-2" clip-rule="evenodd"/><path fill="#444f5c" fill-rule="evenodd" d="M9.12 1.44a.5.5 0 0 0-.459.302l-.25.584a.896.896 0 0 1-1.13.459l-.577-.233a.5.5 0 0 0-.54.11l-.498.497a.5.5 0 0 0-.111.537l.236.597a.86.86 0 0 1-.459 1.115l-.593.26a.5.5 0 0 0-.3.458v.694c0 .2.12.38.303.459l.584.25c.416.193.623.67.459 1.13l-.233.577a.5.5 0 0 0 .11.54l.497.498a.5.5 0 0 0 .537.111l.597-.236a.86.86 0 0 1 1.115.459l.26.593a.5.5 0 0 0 .458.3h.694a.5.5 0 0 0 .459-.304l.25-.584a.896.896 0 0 1 1.13-.458l.577.233a.5.5 0 0 0 .54-.11l.498-.497a.5.5 0 0 0 .111-.538l-.236-.596a.86.86 0 0 1 .459-1.115l.593-.26a.5.5 0 0 0 .3-.458v-.687a.5.5 0 0 0-.304-.46l-.574-.246-.025-.01a.87.87 0 0 1-.423-.392l-.058-.188a.9.9 0 0 1 .035-.543l.236-.584a.5.5 0 0 0-.11-.54l-.497-.498a.5.5 0 0 0-.537-.111l-.596.236a.86.86 0 0 1-1.115-.459l-.26-.593a.5.5 0 0 0-.459-.3zm4.12 4.905.006.002.254.109v.031l-.277.121c-.93.384-1.375 1.457-1.004 2.404v.002l.116.292-.031.03-.279-.112-.016-.006a1.896 1.896 0 0 0-2.392.986l-.127.296h-.037l-.122-.277c-.384-.93-1.456-1.375-2.404-1.004h-.001l-.292.116-.031-.031.113-.279.006-.016a1.896 1.896 0 0 0-.986-2.392l-.297-.127v-.037l.277-.122c.93-.383 1.377-1.456 1.006-2.404l-.116-.293.03-.031.28.113.015.006a1.896 1.896 0 0 0 2.392-.986l.127-.297h.038l.121.277c.384.93 1.456 1.377 2.404 1.006l.001-.001.292-.115.031.03-.112.28h-.001a1.9 1.9 0 0 0-.066 1.197l.075.244.03.076c.203.405.542.737.977.912" clip-rule="evenodd"/><path fill="#444f5c" d="M.5 12a.5.5 0 0 1 .5-.5h2.36a1.5 1.5 0 0 1 .931.324l2.494 1.973a2.5 2.5 0 0 0 1.931.51l5.208-.801a.5.5 0 1 1 .152.988l-5.208.801a3.5 3.5 0 0 1-2.704-.714l-2.493-1.973a.5.5 0 0 0-.31-.108H1a.5.5 0 0 1-.5-.5"/></svg>