<svg xmlns="http://www.w3.org/2000/svg" width="16" height="16" fill="none" viewBox="0 0 16 16"><path fill="#444f5c" fill-rule="evenodd" d="M14.53 2.903a.5.5 0 0 1 .354.35c.34 1.229.509 3.067-.332 4.507-.86 1.472-2.65 2.338-5.765 1.95l-5.341 5.34c-.855.855-1.966.97-2.655.332-.706-.653-.633-1.772.223-2.725l.019-.02 5.32-5.318c-.26-1.215-.316-2.884.47-4.212.89-1.504 2.734-2.382 5.945-1.921a.5.5 0 0 1 .282.848l-2.716 2.717.056 1.01h.93l2.729-2.728a.5.5 0 0 1 .48-.13M14.1 4.394l-2.22 2.22a.5.5 0 0 1-.353.147H9.916a.5.5 0 0 1-.499-.473l-.094-1.705a.5.5 0 0 1 .146-.381l2.128-2.129c-2.274-.115-3.38.643-3.913 1.544-.65 1.097-.583 2.609-.297 3.736a.5.5 0 0 1-.131.476L1.75 13.335c-.632.71-.436 1.169-.28 1.314.176.162.667.295 1.269-.306l5.515-5.516a.5.5 0 0 1 .425-.141c3.053.436 4.413-.409 5.01-1.43.484-.83.546-1.9.412-2.862" clip-rule="evenodd"/></svg>