<svg xmlns="http://www.w3.org/2000/svg" width="16" height="16" fill="none" viewBox="0 0 16 16"><g clip-path="url(#a)"><path fill="#444f5c" fill-rule="evenodd" d="M11.358.886a2.705 2.705 0 0 0-2.599 3.457L5.622 6.157a2.705 2.705 0 1 0 0 3.685l3.137 1.815a2.706 2.706 0 0 0 2.599 3.457 2.705 2.705 0 1 0-2.146-4.35L6.157 8.996a2.7 2.7 0 0 0 0-1.994l3.055-1.766a2.704 2.704 0 1 0 2.146-4.35M9.653 3.591a1.705 1.705 0 1 1 3.41 0 1.705 1.705 0 0 1-3.41 0m-4.56 5.305c.16-.26.254-.568.254-.896a1.7 1.7 0 0 0-.285-.942l-.003-.006a1.705 1.705 0 1 0 .033 1.843m6.265 1.809a1.705 1.705 0 1 0 0 3.409 1.705 1.705 0 0 0 0-3.41" clip-rule="evenodd"/></g><defs><clipPath id="a"><path fill="#fff" d="M0 0h16v16H0z"/></clipPath></defs></svg>