<svg xmlns="http://www.w3.org/2000/svg" width="16" height="16" fill="none" viewBox="0 0 16 16"><g clip-path="url(#a)"><path fill="#444f5c" d="M13.333.167a.5.5 0 0 1 .387.183l2 2.444a.5.5 0 0 1 .113.317v11c0 .961-.83 1.722-1.833 1.722H2c-1.003 0-1.833-.761-1.833-1.722v-11c0-.115.04-.227.113-.317l2-2.444a.5.5 0 0 1 .387-.183zm1.5 3.666H1.167v10.278c0 .33.262.62.628.7l.113.018.092.004h12c.47 0 .833-.334.833-.722zM10.667 5.5a.5.5 0 0 1 .5.5 3.167 3.167 0 0 1-6.334 0 .5.5 0 0 1 1 0 2.167 2.167 0 1 0 4.334 0 .5.5 0 0 1 .5-.5m2.43-4.333H2.903L1.539 2.833H14.46z"/></g><defs><clipPath id="a"><path fill="#fff" d="M0 0h16v16H0z"/></clipPath></defs></svg>