<svg xmlns="http://www.w3.org/2000/svg" width="16" height="16" fill="none" viewBox="0 0 16 16"><g clip-path="url(#a)"><path fill="#444f5c" d="M8.5 1a.5.5 0 0 0-1 0v1.792L6.353 1.646a.5.5 0 1 0-.707.708l1.852 1.852v2.927L4.966 5.67l-.679-2.532a.5.5 0 1 0-.966.259l.42 1.566-1.553-.897a.5.5 0 0 0-.5.866l1.553.897-1.566.42a.5.5 0 0 0 .259.966l2.532-.679L7 8 4.465 9.463l-2.532-.678a.5.5 0 0 0-.259.965l1.566.42-1.552.896a.5.5 0 1 0 .5.866l1.552-.896-.42 1.566a.5.5 0 0 0 .966.259l.679-2.532 2.534-1.463v2.927l-1.853 1.853a.5.5 0 0 0 .707.708l1.146-1.147V15a.5.5 0 1 0 1 0v-1.793l1.147 1.147a.5.5 0 0 0 .707-.708l-1.854-1.853V8.865l2.535 1.463.679 2.534a.5.5 0 1 0 .966-.259l-.42-1.567 1.553.896a.5.5 0 1 0 .5-.866l-1.551-.895 1.564-.42a.5.5 0 1 0-.258-.966l-2.53.678L9 8l2.533-1.462 2.534.678a.5.5 0 0 0 .259-.965l-1.568-.42 1.554-.898a.5.5 0 1 0-.5-.866l-1.552.896.42-1.564a.5.5 0 0 0-.967-.259l-.678 2.53L8.5 7.134V4.208l1.855-1.854a.5.5 0 0 0-.707-.708L8.499 2.794z"/></g><defs><clipPath id="a"><path fill="#fff" d="M0 0h16v16H0z"/></clipPath></defs></svg>