<svg xmlns="http://www.w3.org/2000/svg" width="16" height="16" fill="none" viewBox="0 0 16 16"><path fill="#444f5c" fill-rule="evenodd" d="M7.482 5.443a.545.545 0 0 0 .37-.938L4.568 1.331l-.007-.007-.005-.003a.5.5 0 0 0-.159-.105l-.002-.002-.006-.002-.007-.002-.007-.002-.006-.002a.5.5 0 0 0-.17-.033h-.005l-.006-.001-.006-.001h-.007l-.008.001a.5.5 0 0 0-.171.034l-.007.002-.008.002-.006.002-.007.002v.001a.6.6 0 0 0-.16.106l-.005.003-.007.007L.512 4.505a.545.545 0 0 0 .758.785l2.366-2.288v9.282a.545.545 0 1 0 1.091 0V3.002L7.094 5.29a.55.55 0 0 0 .388.153m7.637 4.932a.545.545 0 0 1 .369.938l-3.285 3.174-.006.007-.005.003-.062.05q0 .002-.003.003l-.004.004a.5.5 0 0 1-.094.05l-.008.003-.005.002-.005.001-.025.008-.06.018a.54.54 0 0 1-.28-.02q-.012-.002-.022-.006l-.004-.001q-.003 0-.005-.002l-.008-.002a.5.5 0 0 1-.094-.051l-.006-.005-.006-.005-.057-.047-.005-.003-.007-.006-3.284-3.175a.545.545 0 0 1 .758-.785l2.367 2.288V3.535a.545.545 0 1 1 1.09 0v9.281l2.367-2.288a.55.55 0 0 1 .389-.153" clip-rule="evenodd"/></svg>