<svg xmlns="http://www.w3.org/2000/svg" width="16" height="16" fill="none" viewBox="0 0 16 16"><path fill="#444f5c" d="M12.748 1.906a.5.5 0 0 0-.574.819c.844.592 2.604 2.533 2.604 5.373s-1.76 4.781-2.604 5.374a.5.5 0 0 0 .574.818c1.034-.725 3.03-2.942 3.03-6.192s-1.996-5.466-3.03-6.192"/><path fill="#444f5c" fill-rule="evenodd" d="M7.17 2.266a.5.5 0 0 1 .268.442V13.27a.5.5 0 0 1-.784.412l-4.233-2.913a.5.5 0 0 0-.283-.088h-.617a1.5 1.5 0 0 1-1.5-1.5V6.824a1.5 1.5 0 0 1 1.5-1.5h.565a.5.5 0 0 0 .283-.088l4.286-2.94a.5.5 0 0 1 .516-.03m-.732 1.391L2.935 6.061a1.5 1.5 0 0 1-.85.263h-.564a.5.5 0 0 0-.5.5V9.18a.5.5 0 0 0 .5.5h.617c.304 0 .6.092.85.264l3.45 2.374z" clip-rule="evenodd"/><path fill="#444f5c" d="M9.354 3.921a.5.5 0 0 1 .697-.122c.726.51 2.107 2.047 2.107 4.3s-1.38 3.788-2.107 4.299a.5.5 0 1 1-.575-.819c.537-.377 1.682-1.637 1.682-3.48 0-1.844-1.145-3.105-1.682-3.481a.5.5 0 0 1-.122-.697"/></svg>