<svg xmlns="http://www.w3.org/2000/svg" width="16" height="16" fill="none" viewBox="0 0 16 16"><g clip-path="url(#a)"><path fill="#444f5c" fill-rule="evenodd" d="M7.199 1.1a.9.9 0 0 1 1.6.003l1.958 3.83 3.934.653a.9.9 0 0 1 .52 1.49l-2.898 3.21.764 4.338a.9.9 0 0 1-1.325.942L8.1 13.527l-3.7 1.987a.9.9 0 0 1-1.31-.96l.808-4.265L.84 7.173a.9.9 0 0 1 .48-1.515l3.898-.717zm.8.631L6.083 5.443a.9.9 0 0 1-.637.473l-3.76.691 2.96 3.019a.9.9 0 0 1 .243.798l-.779 4.11 3.564-1.914a.9.9 0 0 1 .864.007l3.517 1.963-.737-4.178a.9.9 0 0 1 .219-.76l2.808-3.11-3.803-.631a.9.9 0 0 1-.654-.479z" clip-rule="evenodd"/></g><defs><clipPath id="a"><path fill="#fff" d="M0 0h16v16H0z"/></clipPath></defs></svg>