<svg xmlns="http://www.w3.org/2000/svg" width="16" height="16" fill="none" viewBox="0 0 16 16"><g clip-path="url(#a)"><path fill="#444f5c" fill-rule="evenodd" d="M8 16A8 8 0 1 0 8 0a8 8 0 0 0 0 16m.5-1.018a7 7 0 0 0 6.284-8.716l-4.51 1.503q.012.114.012.231c0 1.09-.764 2.003-1.786 2.23zm-1 0a7 7 0 0 1-6.284-8.716l4.51 1.503A2.287 2.287 0 0 0 7.5 10.231zM8 5.714c-.83 0-1.558.444-1.958 1.106l-4.51-1.503a7.002 7.002 0 0 1 12.935 0L9.958 6.82A2.28 2.28 0 0 0 8 5.714m0 3.572a1.286 1.286 0 1 0 0-2.572 1.286 1.286 0 0 0 0 2.572" clip-rule="evenodd"/></g><defs><clipPath id="a"><path fill="#fff" d="M0 0h16v16H0z"/></clipPath></defs></svg>