<svg xmlns="http://www.w3.org/2000/svg" width="16" height="16" fill="none" viewBox="0 0 16 16"><path fill="#444f5c" fill-rule="evenodd" d="M1 1.071a1 1 0 0 0-1 1v2.572a1 1 0 0 0 1 1h1.929v5a3.5 3.5 0 0 0 3.5 3.5h5l.054-.003a2.287 2.287 0 1 0 0-.994l-.054-.003h-5a2.5 2.5 0 0 1-2.5-2.5v-2.22L4 8.43h7.429l.054-.003a2.287 2.287 0 1 0 0-.994l-.054-.003H4l-.071.005v-1.79l1.928-.001a1 1 0 0 0 1-1V2.07a1 1 0 0 0-1-1zm4.857 1H1v2.572h4.857zm7.857 7.143a1.286 1.286 0 1 0 0-2.57 1.286 1.286 0 0 0 0 2.57M15 13.643a1.286 1.286 0 1 1-2.572 0 1.286 1.286 0 0 1 2.572 0" clip-rule="evenodd"/></svg>