<svg xmlns="http://www.w3.org/2000/svg" width="16" height="16" fill="none" viewBox="0 0 16 16"><path fill="#444f5c" d="M9.393 4.426a.5.5 0 0 1 .526.85l-1.165.72 1.139.703a.5.5 0 0 1-.526.851l-1.039-.642v1.293a.5.5 0 1 1-1 0V6.877l-1.116.69a.5.5 0 1 1-.525-.851l1.164-.72-1.137-.703a.5.5 0 1 1 .525-.85l1.09.672V3.91a.5.5 0 0 1 1 0v1.174z"/><path fill="#444f5c" fill-rule="evenodd" d="M4.303 1a1.5 1.5 0 0 0-1.5 1.5v12a.5.5 0 0 0 .807.395l4.193-3.262 4.193 3.262a.5.5 0 0 0 .807-.395v-12a1.5 1.5 0 0 0-1.5-1.5zm-.5 1.5a.5.5 0 0 1 .5-.5h7a.5.5 0 0 1 .5.5v10.978L8.11 10.605a.5.5 0 0 0-.614 0l-3.693 2.873z" clip-rule="evenodd"/></svg>