<svg xmlns="http://www.w3.org/2000/svg" width="24" height="24" fill="none" viewBox="0 0 24 24"><path fill="#444f5c" d="M3.548 1.226a.5.5 0 0 1 .492.41l.008.09V3.78a2.315 2.315 0 0 1 0 4.52v7.398a2.315 2.315 0 0 1 0 4.52v2.054a.5.5 0 0 1-.992.09l-.008-.09-.001-2.054a2.315 2.315 0 0 1 0-4.52V8.3a2.315 2.315 0 0 1 0-4.52l.001-2.054a.5.5 0 0 1 .5-.5m18.468 11.919a.75.75 0 0 1 .75.75v8.129a.75.75 0 0 1-.75.75H9.59a.75.75 0 0 1-.75-.75v-1.731L7.038 18.49a.75.75 0 0 1-.073-.977l.073-.084 1.802-1.803v-1.731a.75.75 0 0 1 .648-.743l.102-.007zm-.25.999H9.84v1.586a.75.75 0 0 1-.143.44l-.077.09-1.7 1.699 1.7 1.699a.75.75 0 0 1 .21.412l.009.118v1.585h11.926zm-2.3 4.565a.5.5 0 0 1 .09.992l-.09.008h-7.239a.5.5 0 0 1-.09-.992l.09-.008zM3.548 16.644a1.315 1.315 0 1 0 0 2.63 1.315 1.315 0 0 0 0-2.63m13.671-.435a.5.5 0 0 1 .09.992l-.09.008h-4.993a.5.5 0 0 1-.09-.992l.09-.008zm4.797-14.983a.75.75 0 0 1 .75.75v8.129a.75.75 0 0 1-.75.75H9.59a.75.75 0 0 1-.75-.75V8.373L7.038 6.57a.75.75 0 0 1-.073-.977l.073-.084L8.84 3.707V1.976a.75.75 0 0 1 .648-.743l.102-.007zm-.25 1H9.84v1.585a.75.75 0 0 1-.143.44l-.077.09-1.7 1.699 1.7 1.699a.74.74 0 0 1 .21.412l.009.118v1.584h11.926V2.225zm-2.3 4.565a.5.5 0 0 1 .09.992l-.09.008h-7.239a.5.5 0 0 1-.09-.992l.09-.008zM3.548 4.726a1.315 1.315 0 1 0 0 2.63 1.315 1.315 0 0 0 0-2.63m11.753-.435a.5.5 0 0 1 .09.992l-.09.008h-3.074a.5.5 0 0 1-.09-.992l.09-.008z"/></svg>