<svg xmlns="http://www.w3.org/2000/svg" width="16" height="16" fill="none" viewBox="0 0 16 16"><g clip-path="url(#a)"><path fill="#444f5c" d="M14.278 0H8.206a.47.47 0 0 0-.331.137L.505 7.508a1.726 1.726 0 0 0 0 2.436l5.553 5.553c.324.324.757.503 1.218.503s.894-.179 1.218-.503l7.37-7.371a.47.47 0 0 0 .137-.331V1.723c0-.95-.773-1.722-1.722-1.722zm-1.7 4.842a1.004 1.004 0 1 1-1.42-1.42 1.004 1.004 0 0 1 1.42 1.42"/></g><defs><clipPath id="a"><path fill="#fff" d="M0 0h16v16H0z"/></clipPath></defs></svg>