<svg xmlns="http://www.w3.org/2000/svg" width="16" height="16" fill="none" viewBox="0 0 16 16"><g clip-path="url(#a)"><path fill="#444f5c" d="M13.002 2.998c1.105 0 2.001.896 2.001 2.001v9.004a2 2 0 0 1-2.001 2.001H2.998a2 2 0 0 1-2.001-2.001V4.999c0-1.105.896-2.001 2.001-2.001zm-2.285 4.09-.069.058-3.436 3.436-.054.043a.3.3 0 0 1-.316 0l-.054-.043-1.435-1.435-.069-.058a.5.5 0 0 0-.696.696l.058.069 2.001 2.001.069.058a.5.5 0 0 0 .569 0l.069-.058 4.002-4.002.058-.069a.5.5 0 0 0-.696-.696zm1.035-7.092a.75.75 0 0 1 0 1.5H4.249a.75.75 0 0 1 0-1.5z"/></g><defs><clipPath id="a"><path fill="#fff" d="M0 0h16v16H0z"/></clipPath></defs></svg>