<svg xmlns="http://www.w3.org/2000/svg" width="16" height="16" fill="none" viewBox="0 0 16 16"><g clip-path="url(#a)"><path fill="#444f5c" d="M15.385 0a.615.615 0 0 1 .083 1.225l-.084.006h-1.027l.001 13.463q0 .197-.067.382c-.199.549-.78.845-1.331.709l-.11-.033-.066-.024-1.92-1.231-2.431 1.419-.054.019a1.13 1.13 0 0 1-.637.037l-.125-.037-.054-.019-2.43-1.419-1.92 1.231-.066.024a1.126 1.126 0 0 1-1.502-.942l-.006-.116V1.231H.613A.615.615 0 0 1 .53.006L.614 0zm-6.18 4.003-3.551 6.151a.616.616 0 0 0 1.066.616l3.551-6.151a.616.616 0 0 0-1.066-.616m-.641 4.661A1.326 1.326 0 1 0 10.86 9.99a1.326 1.326 0 0 0-2.296-1.326M5.006 4.806a1.326 1.326 0 1 0 2.296 1.326 1.326 1.326 0 0 0-2.296-1.326"/></g><defs><clipPath id="a"><path fill="#fff" d="M0 0h16v16H0z"/></clipPath></defs></svg>