<svg xmlns="http://www.w3.org/2000/svg" width="16" height="16" fill="none" viewBox="0 0 16 16"><path fill="#444f5c" d="M13.053 2c.155 0 .281.134.281.3s-.126.3-.281.3h-.531v10.838a.4.4 0 0 1-.01.094l-.013.046a.385.385 0 0 1-.442.265l-.056-.016-1.53-1.049a.37.37 0 0 0-.212-.016l-.052.016-1.92 1.197a.37.37 0 0 1-.212.016l-.052-.016-1.919-1.197a.37.37 0 0 0-.212-.016l-.052.016-1.53 1.049a.4.4 0 0 1-.132.024.396.396 0 0 1-.385-.357l-.004-.056V2.6h-.842c-.155 0-.281-.134-.281-.3s.126-.3.281-.3zm-2.948 6.769c-.403-.248-.918-.101-1.15.329s-.095.981.308 1.229.918.101 1.15-.329.095-.981-.308-1.229M9.684 5.15a.27.27 0 0 0-.383.11L6.775 9.937a.31.31 0 0 0 .103.41.27.27 0 0 0 .383-.11L9.787 5.56a.31.31 0 0 0-.103-.41m-.243 4.248a.27.27 0 0 1 .383-.11c.134.083.18.266.103.41a.27.27 0 0 1-.383.11.313.313 0 0 1-.103-.41M7.298 5.169c-.403-.248-.918-.101-1.15.329s-.095.981.308 1.229.918.101 1.15-.329.095-.981-.308-1.229m-.664.629a.27.27 0 0 1 .383-.11c.134.083.18.266.103.41a.27.27 0 0 1-.383.11.313.313 0 0 1-.103-.41"/></svg>