<svg xmlns="http://www.w3.org/2000/svg" width="16" height="16" fill="none" viewBox="0 0 16 16"><path fill="#444f5c" d="M3.738 6.935h-.014a1.631 1.631 0 1 1 1.593-2.04.5.5 0 0 0 .968-.25 2.631 2.631 0 1 0-4.282 2.637A4.5 4.5 0 0 0 .141 8.733a.5.5 0 1 0 .8.6 3.49 3.49 0 0 1 2.781-1.398h.014a.503.503 0 0 0 .502-.5.5.5 0 0 0-.5-.5"/><path fill="#444f5c" fill-rule="evenodd" d="M8 5.869a3.164 3.164 0 0 0-1.88 5.709 4.83 4.83 0 0 0-2.28 1.996.5.5 0 1 0 .861.508 3.828 3.828 0 0 1 6.598 0 .5.5 0 0 0 .861-.508 4.83 4.83 0 0 0-2.28-1.996A3.164 3.164 0 0 0 8 5.868M5.836 9.033a2.164 2.164 0 1 1 4.328 0 2.164 2.164 0 0 1-4.328 0" clip-rule="evenodd"/><path fill="#444f5c" d="M12.303 6.935h.014a1.631 1.631 0 1 0-1.593-2.04.5.5 0 1 1-.968-.25 2.631 2.631 0 1 1 4.282 2.637A4.47 4.47 0 0 1 15.9 8.733a.5.5 0 0 1-.8.6 3.49 3.49 0 0 0-2.781-1.398h-.014a.5.5 0 0 1-.002-1"/></svg>