<svg xmlns="http://www.w3.org/2000/svg" width="64" height="16" fill="none" viewBox="0 0 64 16"><g clip-path="url(#a)"><path fill="#444f5c" d="M62.509 4.924a.7.7 0 0 0-.212.513v2.971q0 .543-.061.829-.06.287-.288.287a.7.7 0 0 1-.31-.098 13 13 0 0 1-.477-.264l-6.933-4.223a1.47 1.47 0 0 0-.787-.226q-.621 0-1.037.422a1.43 1.43 0 0 0-.416 1.041v4.388q0 .302.212.513a.7.7 0 0 0 .515.211.7.7 0 0 0 .515-.211.7.7 0 0 0 .212-.513V7.593q0-.543.061-.829.06-.287.288-.287.121 0 .31.098t.477.264l6.933 4.223a1.47 1.47 0 0 0 .787.226q.621 0 1.037-.422t.416-1.041V5.437a.7.7 0 0 0-.212-.513.7.7 0 0 0-.515-.211.7.7 0 0 0-.515.211m-21.551-.212q-.65 0-1.166.302t-.878.777a3.7 3.7 0 0 0-.742 2.21q0 .558.182 1.131.181.573.522 1.041.34.467.825.777.484.309 1.105.339h6.903q.65 0 1.166-.302t.878-.777.552-1.056T50.494 8q0-.558-.182-1.131a3.6 3.6 0 0 0-.522-1.041 3 3 0 0 0-.825-.777 2.2 2.2 0 0 0-1.105-.339zm-.537 4.939a1.6 1.6 0 0 1-.515-.46 1.6 1.6 0 0 1-.257-.596 3 3 0 0 1-.068-.596q0-.272.068-.596t.257-.596q.19-.271.515-.46t.855-.189h6.116q.515 0 .848.189t.522.46a1.6 1.6 0 0 1 .257.596q.068.325.068.596t-.068.596a1.6 1.6 0 0 1-.257.596q-.189.271-.522.46-.333.188-.848.188h-6.116q-.53 0-.855-.188m-5.156-4.727a.7.7 0 0 0-.212.513v5.127q0 .302.212.513a.7.7 0 0 0 .515.211.7.7 0 0 0 .515-.211.7.7 0 0 0 .212-.513V5.437a.7.7 0 0 0-.212-.513.7.7 0 0 0-.515-.211.7.7 0 0 0-.515.211m-3.426 0q-.606.437-1.264.86a11 11 0 0 1-1.378.754q-.72.332-1.476.535a6 6 0 0 1-1.544.204h-.745v-1.84a.7.7 0 0 0-.212-.513.7.7 0 0 0-.515-.211.7.7 0 0 0-.5.211.7.7 0 0 0-.212.513v5.127q0 .302.212.513a.7.7 0 0 0 .515.211.7.7 0 0 0 .5-.211.7.7 0 0 0 .212-.513v-1.84h.745a6 6 0 0 1 1.544.196q.757.196 1.468.528.711.331 1.37.754.658.423 1.279.875.258.211.515.211a.7.7 0 0 0 .515-.211.7.7 0 0 0 .212-.513.6.6 0 0 0-.121-.369 1.4 1.4 0 0 0-.288-.279q-.393-.302-.757-.565a13 13 0 0 0-.727-.49 17 17 0 0 0-1.574-.859q.44-.212.825-.422.386-.211.749-.437t.727-.49.757-.566q.166-.12.288-.279a.6.6 0 0 0 .121-.37.7.7 0 0 0-.212-.513.7.7 0 0 0-.515-.211q-.258 0-.515.211zm-16.364-.212q-.65 0-1.166.302t-.878.777a3.5 3.5 0 0 0-.552 1.056 3.7 3.7 0 0 0-.189 1.154q0 .558.182 1.146.181.588.522 1.063.34.475.825.777t1.105.302h6.073a.7.7 0 0 0 .515-.211.7.7 0 0 0 .212-.513.7.7 0 0 0-.212-.513.7.7 0 0 0-.515-.211h-5.589q-.53 0-.855-.188a1.6 1.6 0 0 1-.515-.46 1.6 1.6 0 0 1-.257-.596 3 3 0 0 1-.068-.596q0-.272.068-.596t.257-.596.515-.46.855-.189h5.589q.303 0 .515-.211a.7.7 0 0 0 .212-.513.7.7 0 0 0-.212-.513.7.7 0 0 0-.515-.211zm-14.749 0a.7.7 0 0 0-.515.211.7.7 0 0 0-.212.513q0 .302.212.513a.7.7 0 0 0 .515.211h4.481v4.493q0 .264.212.449a.76.76 0 0 0 .515.185.76.76 0 0 0 .515-.185.57.57 0 0 0 .212-.449V6.16h4.541a.75.75 0 0 0 .469-.234.68.68 0 0 0 .197-.49.7.7 0 0 0-.212-.513.7.7 0 0 0-.515-.211zm15.207 2.564q-.285 0-.485.211a.72.72 0 0 0-.2.513.72.72 0 0 0 .2.513.64.64 0 0 0 .485.211h4.941q.285 0 .485-.211a.72.72 0 0 0 .2-.513.72.72 0 0 0-.2-.513.64.64 0 0 0-.485-.211z"/></g><defs><clipPath id="a"><path fill="#fff" d="M0 0h64v16H0z"/></clipPath></defs></svg>