<svg xmlns="http://www.w3.org/2000/svg" width="16" height="16" fill="none" viewBox="0 0 16 16"><path fill="url(#a)" fill-rule="evenodd" d="M3.902 11.83a1.655 1.655 0 1 1 2.866 1.655 1.655 1.655 0 0 1-2.866-1.655m5.95-.605a1.654 1.654 0 1 1 1.655 2.865 1.654 1.654 0 0 1-1.654-2.865M1.828 6.567a1.655 1.655 0 1 1 1.654 2.867 1.655 1.655 0 0 1-1.654-2.867m8.02-4.657a1.655 1.655 0 0 1 2.48 1.512c-.032.661-.183 1.393.148 1.967.33.573 1.04.81 1.63 1.112a1.654 1.654 0 1 1-2.41 1.392c.032-.662.182-1.394-.15-1.967-.33-.574-1.04-.81-1.629-1.113a1.655 1.655 0 0 1-.07-2.903m-5.34.057a1.655 1.655 0 1 1 1.655 2.866 1.655 1.655 0 0 1-1.654-2.866" clip-rule="evenodd"/><defs><linearGradient id="a" x1="1" x2="16.87" y1="1.688" y2="4.809" gradientUnits="userSpaceOnUse"><stop stop-color="#25c8a5"/><stop offset=".5" stop-color="#1b90b4"/><stop offset="1" stop-color="#1a6cc4"/></linearGradient></defs></svg>