<svg xmlns="http://www.w3.org/2000/svg" width="16" height="16" fill="none" viewBox="0 0 16 16"><g fill="#444f5c" clip-path="url(#a)"><path d="M8 9.1a.8.8 0 1 0 0-1.6.8.8 0 0 0 0 1.6"/><path fill-rule="evenodd" d="M.087 8a7.913 7.913 0 1 1 15.826 0A7.913 7.913 0 0 1 .087 8m1.019-.511a7 7 0 0 0-.003.992c3.38-.406 6.202 2.623 5.515 5.994l-.06.287a6.9 6.9 0 0 0 2.883 0l-.059-.287c-.687-3.37 2.134-6.4 5.515-5.994a7 7 0 0 0-.003-.992.5.5 0 0 1-.161-.066C12.816 6.21 10.499 5.5 8 5.5s-4.816.71-6.733 1.923a.5.5 0 0 1-.161.066m4.49 6.994.042-.209c.55-2.691-1.697-5.112-4.394-4.803a6.93 6.93 0 0 0 4.351 5.012m9.16-5.012a6.93 6.93 0 0 1-4.351 5.012l-.043-.209c-.55-2.691 1.697-5.112 4.394-4.803M1.316 6.23A13.6 13.6 0 0 1 8 4.5c2.442 0 4.73.63 6.684 1.73a6.916 6.916 0 0 0-13.368 0" clip-rule="evenodd"/></g><defs><clipPath id="a"><path fill="#fff" d="M0 0h16v16H0z"/></clipPath></defs></svg>