<svg xmlns="http://www.w3.org/2000/svg" width="16" height="16" fill="none" viewBox="0 0 16 16"><path fill="#444f5c" d="M4 5a.5.5 0 0 1 .5-.5h6a.5.5 0 0 1 0 1h-6A.5.5 0 0 1 4 5m0 3a.5.5 0 0 1 .5-.5h4a.5.5 0 0 1 0 1h-4A.5.5 0 0 1 4 8"/><path fill="#444f5c" fill-rule="evenodd" d="M2.25 1.313a1.5 1.5 0 0 0-1.5 1.5v11.375a.5.5 0 0 0 .796.403l2.804-2.057a.5.5 0 0 1 .296-.097h9.104a1.5 1.5 0 0 0 1.5-1.5V2.813a1.5 1.5 0 0 0-1.5-1.5zm-.5 1.5a.5.5 0 0 1 .5-.5h11.5a.5.5 0 0 1 .5.5v8.124a.5.5 0 0 1-.5.5H4.646a1.5 1.5 0 0 0-.887.29L1.75 13.202z" clip-rule="evenodd"/></svg>