<svg xmlns="http://www.w3.org/2000/svg" width="16" height="16" fill="none" viewBox="0 0 16 16"><g fill="#444f5c" clip-path="url(#a)"><path d="M9.263.004a.5.5 0 0 1 .5.5v2.94a.5.5 0 0 1-1 0V.504a.5.5 0 0 1 .5-.5M1.716.029a.5.5 0 0 1 .5.5V15.47a.5.5 0 0 1-1 0V.529a.5.5 0 0 1 .5-.5M6.457 8a.5.5 0 0 1 .5-.5h6.654l-1.907-1.906a.5.5 0 0 1 .707-.707l2.76 2.76a.5.5 0 0 1 0 .706l-2.76 2.76a.5.5 0 0 1-.707-.707L13.61 8.5H6.957a.5.5 0 0 1-.5-.5m3.544 4.527a.5.5 0 0 0-1 0v2.94a.5.5 0 1 0 1 0z"/></g><defs><clipPath id="a"><path fill="#fff" d="M0 0h16v16H0z"/></clipPath></defs></svg>