<svg xmlns="http://www.w3.org/2000/svg" width="16" height="16" fill="none" viewBox="0 0 16 16"><path fill="#444f5c" fill-rule="evenodd" d="M6.039 4.487a1.5 1.5 0 0 1-.696-.628l-.887-1.552A1.5 1.5 0 0 1 5.758.063h4.674a1.5 1.5 0 0 1 1.303 2.244l-.887 1.552a1.5 1.5 0 0 1-.698.629q.076.165.111.35l1.272 6.787a1.5 1.5 0 0 1-.413 1.337l-1.965 1.965a1.5 1.5 0 0 1-2.122 0l-1.965-1.965a1.5 1.5 0 0 1-.413-1.337l1.272-6.787a1.5 1.5 0 0 1 .112-.351m-.715-2.676a.5.5 0 0 1 .434-.748h4.674a.5.5 0 0 1 .435.748l-.888 1.552a.5.5 0 0 1-.434.252H6.646a.5.5 0 0 1-.435-.252zM7.38 4.615a.5.5 0 0 0-.47.408l-1.273 6.786a.5.5 0 0 0 .138.446L7.74 14.22a.5.5 0 0 0 .708 0l1.965-1.965a.5.5 0 0 0 .138-.446L9.278 5.023a.5.5 0 0 0-.47-.408z" clip-rule="evenodd"/></svg>