<svg xmlns="http://www.w3.org/2000/svg" width="16" height="16" fill="none" viewBox="0 0 16 16"><g fill="#444f5c" clip-path="url(#a)"><path fill-rule="evenodd" d="M2.686.5a1.686 1.686 0 0 0-.5 3.296V6.39a1.686 1.686 0 0 0 0 3.22v2.583a1.686 1.686 0 1 0 1 0V9.61a1.686 1.686 0 0 0 0-3.22V3.796A1.686 1.686 0 0 0 2.686.5M2 2.186a.686.686 0 1 1 1.371 0 .686.686 0 0 1-1.371 0m0 11.617a.686.686 0 1 1 1.371 0 .686.686 0 0 1-1.371 0m.686-6.489a.686.686 0 1 0 0 1.372.686.686 0 0 0 0-1.372" clip-rule="evenodd"/><path d="M11.746 6.254a.5.5 0 0 0-1 0v1.928a.5.5 0 0 0 .5.5h1a.5.5 0 0 0 0-1h-.5z"/><path fill-rule="evenodd" d="M7 8a4.246 4.246 0 1 1 8.493 0A4.246 4.246 0 0 1 7 8m4.246-3.246a3.246 3.246 0 1 0 0 6.493 3.246 3.246 0 0 0 0-6.493" clip-rule="evenodd"/></g><defs><clipPath id="a"><path fill="#fff" d="M0 0h16v16H0z"/></clipPath></defs></svg>