<svg xmlns="http://www.w3.org/2000/svg" width="16" height="17" fill="none" viewBox="0 0 16 17"><path fill="#444f5c" d="M5.2.027a.5.5 0 0 0 0 1h5.6a.5.5 0 0 0 0-1z"/><path fill="#444f5c" fill-rule="evenodd" d="M.98 1.425a.5.5 0 0 0-.707.707L12.09 13.947l.055.055 1.864 1.864a.5.5 0 1 0 .707-.707l-1.55-1.55a6.821 6.821 0 0 0-9.621-9.621zm3.272 3.271L8 8.444l2.028-2.028a.5.5 0 1 1 .707.707L8.707 9.15l3.748 3.748a5.822 5.822 0 0 0-8.203-8.203" clip-rule="evenodd"/><path fill="#444f5c" d="M2.57 7.048a.5.5 0 0 0-.933-.361 6.821 6.821 0 0 0 8.722 8.866.5.5 0 0 0-.345-.938A5.821 5.821 0 0 1 2.57 7.048"/></svg>