<svg xmlns="http://www.w3.org/2000/svg" width="16" height="16" fill="none" viewBox="0 0 16 16"><g clip-path="url(#a)"><path fill="#444f5c" d="M15.642 9.279c.198 0 .358.169.358.377a.4.4 0 0 1-.091.252l-1.201 1.416.185 1.925a.374.374 0 0 1-.32.414.34.34 0 0 1-.181-.03l-1.681-.78-1.681.78a.35.35 0 0 1-.472-.193.4.4 0 0 1-.029-.19l.185-1.925-1.201-1.416a.39.39 0 0 1 .028-.533.35.35 0 0 1 .239-.096zM9.524 6.924a.55.55 0 0 1 .409.915L8.094 9.898l.283 2.798a.548.548 0 0 1-.768.557l-2.573-1.134-2.573 1.134a.55.55 0 0 1-.767-.558l.283-2.798L.14 7.838a.549.549 0 0 1 .41-.915h8.975zm3.187-.569a1.096 1.096 0 1 1 0 2.191 1.096 1.096 0 0 1 0-2.191m-7.674-4.02a1.746 1.746 0 1 1 0 3.493 1.746 1.746 0 0 1 0-3.493"/></g><defs><clipPath id="a"><path fill="#fff" d="M0 0h16v16H0z"/></clipPath></defs></svg>