<svg xmlns="http://www.w3.org/2000/svg" width="16" height="16" fill="none" viewBox="0 0 16 16"><g fill="#444f5c" clip-path="url(#a)"><path d="M6.084 5.87a.5.5 0 0 1 .522.476l.281 6.125a.5.5 0 1 1-.999.046l-.281-6.125a.5.5 0 0 1 .477-.522m4.309.522a.5.5 0 1 0-.999-.046l-.281 6.125a.5.5 0 1 0 .999.046z"/><path fill-rule="evenodd" d="M3.729 2.76a.5.5 0 0 1 .117-.215L5.296.973A1.5 1.5 0 0 1 6.4.491h3.203a1.5 1.5 0 0 1 1.102.482l1.451 1.572a.5.5 0 0 1 .117.215h2.04a.5.5 0 0 1 0 1h-.48l-.96 10.881a1.5 1.5 0 0 1-1.495 1.368H4.623a1.5 1.5 0 0 1-1.494-1.368L2.17 3.76h-.482a.5.5 0 0 1 0-1zM6.03 1.652a.5.5 0 0 1 .37-.162h3.203a.5.5 0 0 1 .367.16l1.023 1.109H5.008zM4.125 14.553 3.172 3.76h9.656l-.953 10.793a.5.5 0 0 1-.498.456H4.623a.5.5 0 0 1-.498-.456" clip-rule="evenodd"/></g><defs><clipPath id="a"><path fill="#fff" d="M0 0h16v16H0z"/></clipPath></defs></svg>