<svg xmlns="http://www.w3.org/2000/svg" width="16" height="16" fill="none" viewBox="0 0 16 16"><g fill="#444f5c" clip-path="url(#a)"><path d="M6.215 6a.5.5 0 0 1 .523.477l.261 5.698a.5.5 0 1 1-.998.046l-.262-5.698A.5.5 0 0 1 6.215 6m4.046.523a.5.5 0 1 0-.999-.046l-.261 5.698a.5.5 0 1 0 .998.046z"/><path fill-rule="evenodd" d="M4 3.107a.5.5 0 0 1 .11-.188l1.329-1.44A1.5 1.5 0 0 1 6.54.996h2.92a1.5 1.5 0 0 1 1.102.483l1.33 1.44q.077.085.109.188h1.872a.5.5 0 1 1 0 1h-.415l-.886 10.029a1.5 1.5 0 0 1-1.494 1.368H4.922a1.5 1.5 0 0 1-1.494-1.368l-.886-10.03h-.415a.5.5 0 1 1 0-1zm2.173-.95a.5.5 0 0 1 .368-.16H9.46a.5.5 0 0 1 .367.16l.877.95H5.296zm-1.75 11.89-.877-9.94h8.908l-.878 9.94a.5.5 0 0 1-.498.457H4.922a.5.5 0 0 1-.498-.456" clip-rule="evenodd"/></g><defs><clipPath id="a"><path fill="#fff" d="M0 0h16v16H0z"/></clipPath></defs></svg>