<svg xmlns="http://www.w3.org/2000/svg" width="16" height="16" fill="none" viewBox="0 0 16 16"><path fill="#444f5c" fill-rule="evenodd" d="M1.99 1.6a.5.5 0 0 0-.597.8l4.724 3.523-3.787.942A1.5 1.5 0 0 0 1.19 8.32v3.295a1.5 1.5 0 0 0 1.5 1.5h2.603A2.82 2.82 0 0 0 7.727 14.5a2.82 2.82 0 0 0 2.433-1.385h4.53a.5.5 0 1 0 0-1h-4.173q.031-.207.032-.422a2.815 2.815 0 0 0-2.822-2.808 2.815 2.815 0 0 0-2.79 3.23H2.692a.5.5 0 0 1-.5-.5V8.32a.5.5 0 0 1 .38-.485L7.383 6.64a.5.5 0 0 0 .232-.13l3.886-3.864a.5.5 0 0 1 .353-.145h2.837a.5.5 0 1 0 0-1h-2.837a1.5 1.5 0 0 0-1.058.436l-3.58 3.56zm3.916 10.093c0-.996.812-1.808 1.821-1.808s1.822.812 1.822 1.808c0 .995-.813 1.807-1.822 1.807a1.815 1.815 0 0 1-1.821-1.807" clip-rule="evenodd"/><path fill="#444f5c" d="M11.406 5.692a.5.5 0 0 1 .5-.5h2.785a.5.5 0 0 1 0 1h-2.785a.5.5 0 0 1-.5-.5"/></svg>