<svg xmlns="http://www.w3.org/2000/svg" width="16" height="16" fill="none" viewBox="0 0 16 16"><path fill="#444f5c" fill-rule="evenodd" d="M2.5 7a.5.5 0 0 0-.5.5v6a.5.5 0 0 0 .5.5h10a.5.5 0 0 0 .5-.5v-6a.5.5 0 0 0-.5-.5zM1 7.5A1.5 1.5 0 0 1 2.5 6h10A1.5 1.5 0 0 1 14 7.5v6a1.5 1.5 0 0 1-1.5 1.5h-10A1.5 1.5 0 0 1 1 13.5z" clip-rule="evenodd"/><path fill="#444f5c" fill-rule="evenodd" d="m7 10.707-.144-.144a.911.911 0 1 1 1.288 0L8 10.707V12a.5.5 0 0 1-1 0zM7.5 1A3.5 3.5 0 0 0 4 4.5v2a.5.5 0 0 1-1 0v-2a4.5 4.5 0 0 1 8.673-1.688.5.5 0 0 1-.927.376A3.5 3.5 0 0 0 7.5 1" clip-rule="evenodd"/></svg>