<svg xmlns="http://www.w3.org/2000/svg" width="16" height="16" fill="none" viewBox="0 0 16 16"><g fill="#444f5c" clip-path="url(#a)"><path d="M8.5 9.63a.5.5 0 1 0-1 0v2.5a.5.5 0 1 0 1 0z"/><path fill-rule="evenodd" d="M8 1.5A2.5 2.5 0 0 0 5.5 4v1.5h6.845a2 2 0 0 1 2 2v6.375a2 2 0 0 1-2 2h-8.69a2 2 0 0 1-2-2V7.5a2 2 0 0 1 2-2H4.5V4a3.5 3.5 0 0 1 6.531-1.75.5.5 0 0 1-.865.5A2.5 2.5 0 0 0 8 1.5m-4.344 5h8.689a1 1 0 0 1 1 1v6.375a1 1 0 0 1-1 1h-8.69a1 1 0 0 1-1-1V7.5a1 1 0 0 1 1-1" clip-rule="evenodd"/></g><defs><clipPath id="a"><path fill="#fff" d="M0 0h16v16H0z"/></clipPath></defs></svg>