<svg xmlns="http://www.w3.org/2000/svg" width="16" height="16" fill="none" viewBox="0 0 16 16"><path fill="#444f5c" d="M3.07 5.111A4.55 4.55 0 0 1 7.598 1h.419c1.923 0 3.589 1.382 3.965 3.274a.705.705 0 0 0 .6.562l.293.038a2.417 2.417 0 0 1 1.042 4.4l-.196.133a.5.5 0 0 0 .56.829l.196-.133a3.418 3.418 0 0 0-1.473-6.22l-.087-.012C12.37 1.624 10.35 0 8.016 0h-.419a5.55 5.55 0 0 0-5.522 5.015l-.042.44-.226.078A2.66 2.66 0 0 0 .02 8.048v.263c0 1.117.787 2.078 1.882 2.297a.5.5 0 0 0 .196-.98A1.34 1.34 0 0 1 1.02 8.31v-.263c0-.707.447-1.338 1.116-1.57l.348-.122a.8.8 0 0 0 .532-.677z"/><path fill="#444f5c" d="M6.578 9.75a.5.5 0 0 1 .707 0l.715.715.715-.716a.5.5 0 1 1 .707.708l-.715.715.715.715a.5.5 0 1 1-.707.707L8 11.879l-.715.715a.5.5 0 0 1-.707-.707l.715-.715-.715-.715a.5.5 0 0 1 0-.708"/><path fill="#444f5c" fill-rule="evenodd" d="M12.275 11.172a4.275 4.275 0 1 1-8.55 0 4.275 4.275 0 0 1 8.55 0m-1 0a3.275 3.275 0 1 1-6.55 0 3.275 3.275 0 0 1 6.55 0" clip-rule="evenodd"/></svg>