<svg xmlns="http://www.w3.org/2000/svg" width="16" height="16" fill="none" viewBox="0 0 16 16"><path fill="#444f5c" d="M14.127 4.186a1.874 1.874 0 1 0 0-3.747 1.874 1.874 0 0 0 0 3.747M1.75 3.313a.5.5 0 0 1 .5-.5H9a.5.5 0 0 0 0-1H2.25a1.5 1.5 0 0 0-1.5 1.5v11.375a.5.5 0 0 0 .796.403l2.804-2.057a.5.5 0 0 1 .296-.097h9.104a1.5 1.5 0 0 0 1.5-1.5V7a.5.5 0 0 0-1 0v4.438a.5.5 0 0 1-.5.5H4.646a1.5 1.5 0 0 0-.887.29L1.75 13.7z"/><path fill="#444f5c" d="M5 5.5a.5.5 0 0 0 0 1h6a.5.5 0 0 0 0-1zm-.5 3A.5.5 0 0 1 5 8h3a.5.5 0 0 1 0 1H5a.5.5 0 0 1-.5-.5"/></svg>