<svg xmlns="http://www.w3.org/2000/svg" width="16" height="16" fill="none" viewBox="0 0 16 16"><g fill="#444f5c" clip-path="url(#a)"><path fill-rule="evenodd" d="M4.741.275a.5.5 0 0 1 .5.5v.24H10.5v-.24a.5.5 0 1 1 1 0v.24h1.986a1.5 1.5 0 0 1 1.5 1.499l.001 2.265a.5.5 0 0 1-.5.5H1.97v8.2a.5.5 0 0 0 .5.5H5a.5.5 0 0 1 0 1H2.47a1.5 1.5 0 0 1-1.5-1.5V2.514a1.5 1.5 0 0 1 1.5-1.5h1.771V.775a.5.5 0 0 1 .5-.5m-.5 1.74h-1.77a.5.5 0 0 0-.5.5v1.764h12.016V2.514a.5.5 0 0 0-.5-.5H11.5v.261a.5.5 0 0 1-1 0v-.26H5.241v.26a.5.5 0 0 1-1 0z" clip-rule="evenodd"/><path d="M13.51 10.75a.5.5 0 1 0-.706-.707L10.948 11.9l-.75-.751a.5.5 0 1 0-.708.707l1.105 1.104a.5.5 0 0 0 .707 0z"/><path fill-rule="evenodd" d="M7.001 11.502a4.5 4.5 0 1 1 9 0 4.5 4.5 0 0 1-9 0m4.5-3.5a3.5 3.5 0 1 0 0 7 3.5 3.5 0 0 0 0-7" clip-rule="evenodd"/></g><defs><clipPath id="a"><path fill="#fff" d="M0 0h16v16H0z"/></clipPath></defs></svg>