<svg xmlns="http://www.w3.org/2000/svg" width="16" height="16" fill="none" viewBox="0 0 16 16"><path fill="#444f5c" d="M8.151 2.134a.985.985 0 0 1 1.294.274c.501.688 1.291 2.062 1.634 2.842.091.207.109.441.051.659a1 1 0 0 1-.461.604l-.43.249.38.661c.017.03.019.072.007.103l-.012.021c-.025.03-.027.086-.005.123l.022.038c.022.038.071.063.109.057s.087.02.109.057l.007.012c.022.038.02.093-.005.124s-.027.086-.005.123l.014.024a.2.2 0 0 0 .116.086l.01.002c.042.01.064.051.049.093a.2.2 0 0 0 .012.143l.091.157a.2.2 0 0 0 .117.082l.013.002c.043.007.089.033.103.056a.26.26 0 0 1 .019.122l-.042.584c-.003.043-.246.185-.285.166l-.524-.256a.26.26 0 0 1-.096-.078c-.014-.024-.013-.076.003-.117l.004-.012q.015-.04-1.188-1.925l.054.085-.416.241a.986.986 0 0 1-1.25-.217l-.044-.057C7.105 6.574 6.315 5.2 5.972 4.42a1 1 0 0 1-.051-.659 1 1 0 0 1 .462-.604l1.769-1.026zm.219.918-1.297.752a.72.72 0 0 0-.263.988l.936 1.628a.72.72 0 0 0 .984.265l1.297-.752a.725.725 0 0 0 .263-.988l-.936-1.628a.72.72 0 0 0-.984-.265"/><path fill="#444f5c" d="m7.63 4.359.982-.569a.25.25 0 0 1 .342.092l.685 1.201a.253.253 0 0 1-.092.343l-.982.569a.25.25 0 0 1-.342-.092l-.685-1.201a.253.253 0 0 1 .092-.343M2.981 12.88H1.979c-.087 0-.157-.088-.157-.197V8.289c0-.109.07-.197.157-.197h1.002c.087 0 .157.088.157.197v4.394c0 .109-.07.197-.157.197"/><path fill="#444f5c" d="m10.875 11.231 2.281-1.693a.656.656 0 0 1 .909.176.66.66 0 0 1-.107.864l-2.254 1.95a1.9 1.9 0 0 1-.893.402l-3.135 1.057a1.15 1.15 0 0 1-.491-.033l-4.226-1.608V8.6h1.599a3.97 3.97 0 0 1 2.007.546c.446.262.939.434 1.45.507l1.095.256c.483.069.856.46.904.947l.031.316-3.814-.711c-.069-.01-.116.07-.073.125l.134.174a.63.63 0 0 0 .473.245l4.109.224z"/></svg>