<svg xmlns="http://www.w3.org/2000/svg" width="16" height="16" fill="none" viewBox="0 0 16 16"><g fill="#444f5c" clip-path="url(#a)"><path d="M3.552 1.36A1.5 1.5 0 0 1 4.91.5h6.182a1.5 1.5 0 0 1 1.357.86l2.078 4.408h.924a.5.5 0 0 1 0 1H14.21a.5.5 0 0 1-.453-.286l-2.213-4.695a.5.5 0 0 0-.452-.287H4.909a.5.5 0 0 0-.452.287L2.292 6.38v1.144h1.983a.5.5 0 0 1 0 1H2.292v1.927h3.096a.5.5 0 0 1 0 1H2.292v1.256a.5.5 0 1 1-1 0V6.768H.55a.5.5 0 1 1 0-1h.924z"/><path fill-rule="evenodd" d="M7.772 10.584a3.084 3.084 0 1 1 5.59 1.799l1.763 1.763a.5.5 0 0 1-.707.708l-1.764-1.764a3.084 3.084 0 0 1-4.882-2.506M10.856 8.5a2.084 2.084 0 1 0 0 4.168 2.084 2.084 0 0 0 0-4.168" clip-rule="evenodd"/></g><defs><clipPath id="a"><path fill="#fff" d="M0 0h16v16H0z"/></clipPath></defs></svg>