<svg xmlns="http://www.w3.org/2000/svg" width="16" height="16" fill="none" viewBox="0 0 16 16"><g fill="#444f5c" clip-path="url(#a)"><path fill-rule="evenodd" d="M11.725.526a.5.5 0 0 0-.798-.402c-.894.663-1.472 1.34-1.787 2.02a2.9 2.9 0 0 0-.204 1.96c.263 1.055 1.075 1.868 1.79 2.35V9.95c.028.512.247.92.585 1.192.328.263.737.374 1.123.364.758-.02 1.622-.542 1.622-1.583V6.426c1.664-1.31 2.133-2.65 1.825-3.858C15.58 1.388 14.578.528 13.8.09a.5.5 0 0 0-.745.436v2.111a.657.657 0 0 1-1.02.549.68.68 0 0 1-.31-.568zm2.33 2.111V1.501c.396.36.73.813.857 1.314.184.723-.018 1.746-1.654 2.962a.5.5 0 0 0-.202.401v3.745c0 .342-.26.573-.648.583a.73.73 0 0 1-.471-.144c-.105-.084-.196-.22-.212-.454v-3.73a.5.5 0 0 0-.246-.43c-.651-.385-1.37-1.076-1.572-1.885-.097-.39-.08-.822.14-1.299.136-.292.352-.61.678-.947v1.001c0 .57.294 1.1.768 1.408a1.657 1.657 0 0 0 2.563-1.388" clip-rule="evenodd"/><path d="M5.428 2.518a1.5 1.5 0 0 0-1.362.871L1.958 7.955h-.935a.5.5 0 0 0 0 1h.755v6.009a.5.5 0 0 0 1 0v-1.275h11.245v1.275a.5.5 0 0 0 1 0v-1.775a.5.5 0 0 0-.5-.5H2.778v-1.96h2.01a.5.5 0 1 0 0-1h-2.01V8.566l2.196-4.757a.5.5 0 0 1 .454-.29h1.424a.5.5 0 0 0 0-1z"/></g><defs><clipPath id="a"><path fill="#fff" d="M0 0h16v16H0z"/></clipPath></defs></svg>