<svg xmlns="http://www.w3.org/2000/svg" width="16" height="16" fill="none" viewBox="0 0 16 16"><path fill="#444f5c" d="M4.729.5a1.5 1.5 0 0 0-1.352.85L1.386 5.488H.5a.5.5 0 0 0 0 1h.7v5.597a.5.5 0 0 0 1 0v-1.162h2.2a.5.5 0 0 0 0-1H2.2V8.15h1.4a.5.5 0 0 0 0-1H2.2V6.102l2.078-4.319a.5.5 0 0 1 .45-.283H11.3a.5.5 0 0 0 0-1z"/><path fill="#444f5c" d="M7.45 9.651a3.756 3.756 0 0 1 3.327-3.732l-.562.48a.5.5 0 1 0 .649.76l1.557-1.328a.5.5 0 0 0 .08-.675L11.325 3.54a.5.5 0 1 0-.809.588l.56.769a4.756 4.756 0 0 0-2.607 8.645.5.5 0 1 0 .576-.818 3.75 3.75 0 0 1-1.596-3.073m6.356-3.983a.5.5 0 1 0-.547.837 3.758 3.758 0 0 1-1.204 6.807l.496-.473a.5.5 0 0 0-.69-.724l-1.482 1.413a.5.5 0 0 0-.042.678l1.263 1.549a.5.5 0 0 0 .775-.632l-.61-.748a4.757 4.757 0 0 0 2.041-8.707"/></svg>