<svg xmlns="http://www.w3.org/2000/svg" width="16" height="16" fill="none" viewBox="0 0 16 16"><g clip-path="url(#a)"><path fill="#444f5c" d="M11.248 1.346a1.87 1.87 0 0 1 1.784 1.308l1.42 4.498h.967a.58.58 0 1 1 0 1.162l-.71-.001.001 5.438a.903.903 0 1 1-1.806 0v-.922H3.097l.001.922a.903.903 0 1 1-1.806 0V8.313H.583a.58.58 0 1 1 0-1.161h.966L2.97 2.654a1.87 1.87 0 0 1 1.784-1.308h6.496zM5.829 8.83H3.484a.58.58 0 1 0 0 1.162h2.345a.58.58 0 1 0 0-1.162m6.709 0h-2.345a.58.58 0 1 0 0 1.162h2.345a.58.58 0 1 0 0-1.162"/></g><defs><clipPath id="a"><path fill="#fff" d="M0 0h16v16H0z"/></clipPath></defs></svg>