<svg xmlns="http://www.w3.org/2000/svg" width="16" height="16" fill="none" viewBox="0 0 16 16"><path fill="#444f5c" fill-rule="evenodd" d="M4.827 6.723c-.784 0-1.595.674-1.367 1.61a4.674 4.674 0 0 0 9.08 0c.227-.936-.583-1.61-1.368-1.61zm-.396 1.373a.25.25 0 0 1 .066-.238.45.45 0 0 1 .33-.135h6.345c.141 0 .26.059.33.135q.098.103.066.238a3.674 3.674 0 0 1-7.137 0" clip-rule="evenodd"/><path fill="#444f5c" fill-rule="evenodd" d="M8 .219A7.781 7.781 0 1 0 8 15.78 7.781 7.781 0 0 0 8 .22M1.22 8a6.781 6.781 0 1 1 13.56 0A6.781 6.781 0 0 1 1.22 8" clip-rule="evenodd"/></svg>