<svg xmlns="http://www.w3.org/2000/svg" width="16" height="16" fill="none" viewBox="0 0 16 16"><g clip-path="url(#a)"><path fill="#444f5c" d="M13.77 14.35a.618.618 0 0 1 .084 1.23l-.084.006H2.23a.618.618 0 0 1-.084-1.23l.084-.007zM8.601.754l3.305 5.508L14.91 4.26a.7.7 0 0 1 1.076.72l-1.477 7.385a1.44 1.44 0 0 1-1.414 1.16H2.907a1.44 1.44 0 0 1-1.414-1.16L.016 4.98a.7.7 0 0 1 1.076-.72l3.004 2.003L7.401.755a.7.7 0 0 1 1.202 0z"/></g><defs><clipPath id="a"><path fill="#fff" d="M0 0h16v16H0z"/></clipPath></defs></svg>