<svg xmlns="http://www.w3.org/2000/svg" width="16" height="16" fill="none" viewBox="0 0 16 16"><path fill="#444f5c" fill-rule="evenodd" d="M2.833.042a1.5 1.5 0 0 0-1.5 1.5V14.35l-.787.787a.5.5 0 1 0 .707.707L15.788 1.309a.5.5 0 1 0-.707-.707l-2.763 2.763L9.435.482a1.5 1.5 0 0 0-1.06-.44zm8.778 4.03-2.75-2.75v4.094a.5.5 0 0 0 .5.5h.405zM8.854 6.828a1.5 1.5 0 0 1-.992-1.412V1.042h-5.03a.5.5 0 0 0-.5.5V13.35z" clip-rule="evenodd"/><path fill="#444f5c" d="M14.667 6.5a.5.5 0 1 0-1 0v7.99a.5.5 0 0 1-.5.5h-8.06a.5.5 0 0 0 0 1h8.06a1.5 1.5 0 0 0 1.5-1.5z"/></svg>