<svg xmlns="http://www.w3.org/2000/svg" width="16" height="16" fill="none" viewBox="0 0 16 16"><g fill="#444f5c" clip-path="url(#a)"><path d="M12.474 5.16a.5.5 0 1 0-.947-.32L9.97 9.427 8.452 4.843a.5.5 0 0 0-.947-.007L5.92 9.411 4.477 4.849a.5.5 0 1 0-.954.302l1.899 6a.5.5 0 0 0 .949.013l1.596-4.606 1.525 4.6a.5.5 0 0 0 .948.003z"/><path fill-rule="evenodd" d="M2 .5A1.5 1.5 0 0 0 .5 2v12A1.5 1.5 0 0 0 2 15.5h12a1.5 1.5 0 0 0 1.5-1.5V2A1.5 1.5 0 0 0 14 .5zM1.5 2a.5.5 0 0 1 .5-.5h12a.5.5 0 0 1 .5.5v12a.5.5 0 0 1-.5.5H2a.5.5 0 0 1-.5-.5z" clip-rule="evenodd"/></g><defs><clipPath id="a"><path fill="#fff" d="M0 0h16v16H0z"/></clipPath></defs></svg>