<svg xmlns="http://www.w3.org/2000/svg" width="16" height="16" fill="none" viewBox="0 0 16 16"><g clip-path="url(#a)"><path fill="#444f5c" fill-rule="evenodd" d="M14.276 1.059a.5.5 0 0 0-.426-.554l-.01-.001-.03-.005-.114-.015-.422-.056c-.358-.046-.86-.108-1.435-.17C10.694.136 9.243.011 8.061.011c-1.18 0-2.662.125-3.837.247A75 75 0 0 0 2.31.483L2.194.5l-.03.004-.012.002a.5.5 0 0 0-.428.554l1.563 13.254a1.48 1.48 0 0 0 1.255 1.295c.881.127 2.402.32 3.53.32 1.116 0 2.553-.189 3.397-.316a1.475 1.475 0 0 0 1.243-1.291zM3.47 7.322l-.695-5.89.096-.012a72 72 0 0 1 1.456-.167c1.169-.122 2.607-.242 3.734-.242s2.535.12 3.672.242c.566.06 1.06.121 1.414.167l.078.01-.634 5.373-.039.066c-.18.363-.593.574-1.414.54-.81-.033-1.84-.305-2.953-.692-1.022-.356-2.093-.274-2.99-.053a7.7 7.7 0 0 0-1.725.658m.127 1.082.684 5.792a.48.48 0 0 0 .403.423c.882.127 2.339.31 3.388.31 1.035 0 2.408-.179 3.249-.305a.475.475 0 0 0 .398-.42l.704-5.975c-.404.154-.866.198-1.327.18-.962-.04-2.107-.354-3.24-.748-.774-.27-1.634-.22-2.421-.026a6.4 6.4 0 0 0-1.838.769" clip-rule="evenodd"/></g><defs><clipPath id="a"><path fill="#fff" d="M0 0h16v16H0z"/></clipPath></defs></svg>