<svg xmlns="http://www.w3.org/2000/svg" width="16" height="16" fill="none" viewBox="0 0 16 16"><path fill="#444f5c" fill-rule="evenodd" d="M11 3a3 3 0 0 1-2.502 2.959L8.5 6v1.5H12A1.5 1.5 0 0 1 13.5 9v1h.5a1 1 0 0 1 1 1v3a1 1 0 0 1-1 1h-3a1 1 0 0 1-1-1v-3a1 1 0 0 1 1-1h1.5V9a.5.5 0 0 0-.5-.5H4a.5.5 0 0 0-.5.5v1H5a1 1 0 0 1 1 1v3a1 1 0 0 1-1 1H2a1 1 0 0 1-1-1v-3a1 1 0 0 1 1-1h.5V9A1.5 1.5 0 0 1 4 7.5h3.5V6q0-.021.002-.041A3 3 0 1 1 11 3M8 5a2 2 0 1 0 0-4 2 2 0 0 0 0 4m-6 6v3h3v-3zm9 3v-3h3v3z" clip-rule="evenodd"/></svg>