<svg xmlns="http://www.w3.org/2000/svg" width="16" height="16" fill="none" viewBox="0 0 16 16"><g fill="#444f5c" clip-path="url(#a)"><path fill-rule="evenodd" d="M2.065 1.555a.15.15 0 0 1 .107-.043h7.335v3.926a.5.5 0 0 0 .5.5h3.99v2.455a.5.5 0 0 0 1 0V5.49a.5.5 0 0 0-.15-.356L10.307.656a.5.5 0 0 0-.351-.144H2.172c-.302 0-.594.118-.81.331a1.14 1.14 0 0 0-.339.809v6.741a.5.5 0 0 0 1 0V1.652c0-.035.014-.07.041-.097m11.16 3.383-2.718-2.68v2.68z" clip-rule="evenodd"/><path d="M13.484 10.679a.5.5 0 0 1 .5.5v3.473h1.128a.5.5 0 0 1 0 1h-1.628a.5.5 0 0 1-.5-.5v-3.973a.5.5 0 0 1 .5-.5m-5.884.216a.5.5 0 0 0-.912.284v3.973a.5.5 0 1 0 1 0v-2.365L8.73 14.3a.5.5 0 0 0 .824 0l1.04-1.513v2.364a.5.5 0 1 0 1 0V11.18a.5.5 0 0 0-.911-.284l-1.541 2.24zm-6.374-.103a.5.5 0 0 1 .704.07l1.24 1.514 1.242-1.514a.5.5 0 1 1 .773.633l-1.368 1.67 1.368 1.67a.5.5 0 0 1-.773.633L3.17 13.954l-1.24 1.514a.5.5 0 1 1-.774-.633l1.368-1.67-1.368-1.67a.5.5 0 0 1 .07-.703"/></g><defs><clipPath id="a"><path fill="#fff" d="M0 0h16v16H0z"/></clipPath></defs></svg>